<?xml version="1.0" encoding="utf-8" standalone="no"?>
<!DOCTYPE svg PUBLIC "-//W3C//DTD SVG 1.1//EN"
  "http://www.w3.org/Graphics/SVG/1.1/DTD/svg11.dtd">
<svg xmlns:xlink="http://www.w3.org/1999/xlink" width="460.8pt" height="345.6pt" viewBox="0 0 460.8 345.6" xmlns="http://www.w3.org/2000/svg" version="1.1">
 <metadata>
  <rdf:RDF xmlns:dc="http://purl.org/dc/elements/1.1/" xmlns:cc="http://creativecommons.org/ns#" xmlns:rdf="http://www.w3.org/1999/02/22-rdf-syntax-ns#">
   <cc:Work>
    <dc:type rdf:resource="http://purl.org/dc/dcmitype/StillImage"/>
    <dc:date>2023-05-09T15:29:09.818487</dc:date>
    <dc:format>image/svg+xml</dc:format>
    <dc:creator>
     <cc:Agent>
      <dc:title>Matplotlib v3.5.2, https://matplotlib.org/</dc:title>
     </cc:Agent>
    </dc:creator>
   </cc:Work>
  </rdf:RDF>
 </metadata>
 <defs>
  <style type="text/css">*{stroke-linejoin: round; stroke-linecap: butt}</style>
 </defs>
 <g id="figure_1">
  <g id="patch_1">
   <path d="M 0 345.6 
L 460.8 345.6 
L 460.8 0 
L 0 0 
z
" style="fill: #ffffff"/>
  </g>
  <g id="axes_1">
   <g id="patch_2">
    <path d="M 34.16 291.28 
L 453.192 291.28 
L 453.192 3 
L 34.16 3 
z
" style="fill: #ffffff"/>
   </g>
   <g id="matplotlib.axis_1">
    <g id="xtick_1">
     <g id="line2d_1">
      <path d="M 92.083066 291.28 
L 92.083066 3 
" clip-path="url(#p1ec5f47910)" style="fill: none; stroke: #b0b0b0; stroke-width: 0.8; stroke-linecap: square"/>
     </g>
     <g id="line2d_2">
      <defs>
       <path id="m7187d09af0" d="M 0 0 
L 0 3.5 
" style="stroke: #000000; stroke-width: 0.8"/>
      </defs>
      <g>
       <use xlink:href="#m7187d09af0" x="92.083066" y="291.28" style="stroke: #000000; stroke-width: 0.8"/>
      </g>
     </g>
     <g id="text_1">
      <!-- -1 -->
      <g transform="translate(82.112753 313.476875)scale(0.2 -0.2)">
       <defs>
        <path id="DejaVuSans-2d" d="M 313 2009 
L 1997 2009 
L 1997 1497 
L 313 1497 
L 313 2009 
z
" transform="scale(0.015625)"/>
        <path id="DejaVuSans-31" d="M 794 531 
L 1825 531 
L 1825 4091 
L 703 3866 
L 703 4441 
L 1819 4666 
L 2450 4666 
L 2450 531 
L 3481 531 
L 3481 0 
L 794 0 
L 794 531 
z
" transform="scale(0.015625)"/>
       </defs>
       <use xlink:href="#DejaVuSans-2d"/>
       <use xlink:href="#DejaVuSans-31" x="36.083984"/>
      </g>
     </g>
    </g>
    <g id="xtick_2">
     <g id="line2d_3">
      <path d="M 243.676 291.28 
L 243.676 3 
" clip-path="url(#p1ec5f47910)" style="fill: none; stroke: #b0b0b0; stroke-width: 0.8; stroke-linecap: square"/>
     </g>
     <g id="line2d_4">
      <g>
       <use xlink:href="#m7187d09af0" x="243.676" y="291.28" style="stroke: #000000; stroke-width: 0.8"/>
      </g>
     </g>
     <g id="text_2">
      <!-- 0 -->
      <g transform="translate(237.3135 313.476875)scale(0.2 -0.2)">
       <defs>
        <path id="DejaVuSans-30" d="M 2034 4250 
Q 1547 4250 1301 3770 
Q 1056 3291 1056 2328 
Q 1056 1369 1301 889 
Q 1547 409 2034 409 
Q 2525 409 2770 889 
Q 3016 1369 3016 2328 
Q 3016 3291 2770 3770 
Q 2525 4250 2034 4250 
z
M 2034 4750 
Q 2819 4750 3233 4129 
Q 3647 3509 3647 2328 
Q 3647 1150 3233 529 
Q 2819 -91 2034 -91 
Q 1250 -91 836 529 
Q 422 1150 422 2328 
Q 422 3509 836 4129 
Q 1250 4750 2034 4750 
z
" transform="scale(0.015625)"/>
       </defs>
       <use xlink:href="#DejaVuSans-30"/>
      </g>
     </g>
    </g>
    <g id="xtick_3">
     <g id="line2d_5">
      <path d="M 395.268934 291.28 
L 395.268934 3 
" clip-path="url(#p1ec5f47910)" style="fill: none; stroke: #b0b0b0; stroke-width: 0.8; stroke-linecap: square"/>
     </g>
     <g id="line2d_6">
      <g>
       <use xlink:href="#m7187d09af0" x="395.268934" y="291.28" style="stroke: #000000; stroke-width: 0.8"/>
      </g>
     </g>
     <g id="text_3">
      <!-- 1 -->
      <g transform="translate(388.906434 313.476875)scale(0.2 -0.2)">
       <use xlink:href="#DejaVuSans-31"/>
      </g>
     </g>
    </g>
    <g id="xtick_4">
     <g id="line2d_7">
      <defs>
       <path id="m2debdd1f70" d="M 0 0 
L 0 2 
" style="stroke: #000000; stroke-width: 0.6"/>
      </defs>
      <g>
       <use xlink:href="#m2debdd1f70" x="46.449045" y="291.28" style="stroke: #000000; stroke-width: 0.6"/>
      </g>
     </g>
    </g>
    <g id="xtick_5">
     <g id="line2d_8">
      <g>
       <use xlink:href="#m2debdd1f70" x="58.452363" y="291.28" style="stroke: #000000; stroke-width: 0.6"/>
      </g>
     </g>
    </g>
    <g id="xtick_6">
     <g id="line2d_9">
      <g>
       <use xlink:href="#m2debdd1f70" x="68.601023" y="291.28" style="stroke: #000000; stroke-width: 0.6"/>
      </g>
     </g>
    </g>
    <g id="xtick_7">
     <g id="line2d_10">
      <g>
       <use xlink:href="#m2debdd1f70" x="77.392192" y="291.28" style="stroke: #000000; stroke-width: 0.6"/>
      </g>
     </g>
    </g>
    <g id="xtick_8">
     <g id="line2d_11">
      <g>
       <use xlink:href="#m2debdd1f70" x="85.146553" y="291.28" style="stroke: #000000; stroke-width: 0.6"/>
      </g>
     </g>
    </g>
    <g id="xtick_9">
     <g id="line2d_12">
      <g>
       <use xlink:href="#m2debdd1f70" x="137.717086" y="291.28" style="stroke: #000000; stroke-width: 0.6"/>
      </g>
     </g>
    </g>
    <g id="xtick_10">
     <g id="line2d_13">
      <g>
       <use xlink:href="#m2debdd1f70" x="164.411277" y="291.28" style="stroke: #000000; stroke-width: 0.6"/>
      </g>
     </g>
    </g>
    <g id="xtick_11">
     <g id="line2d_14">
      <g>
       <use xlink:href="#m2debdd1f70" x="183.351106" y="291.28" style="stroke: #000000; stroke-width: 0.6"/>
      </g>
     </g>
    </g>
    <g id="xtick_12">
     <g id="line2d_15">
      <g>
       <use xlink:href="#m2debdd1f70" x="198.04198" y="291.28" style="stroke: #000000; stroke-width: 0.6"/>
      </g>
     </g>
    </g>
    <g id="xtick_13">
     <g id="line2d_16">
      <g>
       <use xlink:href="#m2debdd1f70" x="210.045297" y="291.28" style="stroke: #000000; stroke-width: 0.6"/>
      </g>
     </g>
    </g>
    <g id="xtick_14">
     <g id="line2d_17">
      <g>
       <use xlink:href="#m2debdd1f70" x="220.193957" y="291.28" style="stroke: #000000; stroke-width: 0.6"/>
      </g>
     </g>
    </g>
    <g id="xtick_15">
     <g id="line2d_18">
      <g>
       <use xlink:href="#m2debdd1f70" x="228.985127" y="291.28" style="stroke: #000000; stroke-width: 0.6"/>
      </g>
     </g>
    </g>
    <g id="xtick_16">
     <g id="line2d_19">
      <g>
       <use xlink:href="#m2debdd1f70" x="236.739488" y="291.28" style="stroke: #000000; stroke-width: 0.6"/>
      </g>
     </g>
    </g>
    <g id="xtick_17">
     <g id="line2d_20">
      <g>
       <use xlink:href="#m2debdd1f70" x="289.31002" y="291.28" style="stroke: #000000; stroke-width: 0.6"/>
      </g>
     </g>
    </g>
    <g id="xtick_18">
     <g id="line2d_21">
      <g>
       <use xlink:href="#m2debdd1f70" x="316.004211" y="291.28" style="stroke: #000000; stroke-width: 0.6"/>
      </g>
     </g>
    </g>
    <g id="xtick_19">
     <g id="line2d_22">
      <g>
       <use xlink:href="#m2debdd1f70" x="334.944041" y="291.28" style="stroke: #000000; stroke-width: 0.6"/>
      </g>
     </g>
    </g>
    <g id="xtick_20">
     <g id="line2d_23">
      <g>
       <use xlink:href="#m2debdd1f70" x="349.634914" y="291.28" style="stroke: #000000; stroke-width: 0.6"/>
      </g>
     </g>
    </g>
    <g id="xtick_21">
     <g id="line2d_24">
      <g>
       <use xlink:href="#m2debdd1f70" x="361.638231" y="291.28" style="stroke: #000000; stroke-width: 0.6"/>
      </g>
     </g>
    </g>
    <g id="xtick_22">
     <g id="line2d_25">
      <g>
       <use xlink:href="#m2debdd1f70" x="371.786892" y="291.28" style="stroke: #000000; stroke-width: 0.6"/>
      </g>
     </g>
    </g>
    <g id="xtick_23">
     <g id="line2d_26">
      <g>
       <use xlink:href="#m2debdd1f70" x="380.578061" y="291.28" style="stroke: #000000; stroke-width: 0.6"/>
      </g>
     </g>
    </g>
    <g id="xtick_24">
     <g id="line2d_27">
      <g>
       <use xlink:href="#m2debdd1f70" x="388.332422" y="291.28" style="stroke: #000000; stroke-width: 0.6"/>
      </g>
     </g>
    </g>
    <g id="xtick_25">
     <g id="line2d_28">
      <g>
       <use xlink:href="#m2debdd1f70" x="440.902955" y="291.28" style="stroke: #000000; stroke-width: 0.6"/>
      </g>
     </g>
    </g>
    <g id="text_4">
     <!-- log10 of FEvals ratio -->
     <g transform="translate(141.371312 336.833125)scale(0.2 -0.2)">
      <defs>
       <path id="DejaVuSans-6c" d="M 603 4863 
L 1178 4863 
L 1178 0 
L 603 0 
L 603 4863 
z
" transform="scale(0.015625)"/>
       <path id="DejaVuSans-6f" d="M 1959 3097 
Q 1497 3097 1228 2736 
Q 959 2375 959 1747 
Q 959 1119 1226 758 
Q 1494 397 1959 397 
Q 2419 397 2687 759 
Q 2956 1122 2956 1747 
Q 2956 2369 2687 2733 
Q 2419 3097 1959 3097 
z
M 1959 3584 
Q 2709 3584 3137 3096 
Q 3566 2609 3566 1747 
Q 3566 888 3137 398 
Q 2709 -91 1959 -91 
Q 1206 -91 779 398 
Q 353 888 353 1747 
Q 353 2609 779 3096 
Q 1206 3584 1959 3584 
z
" transform="scale(0.015625)"/>
       <path id="DejaVuSans-67" d="M 2906 1791 
Q 2906 2416 2648 2759 
Q 2391 3103 1925 3103 
Q 1463 3103 1205 2759 
Q 947 2416 947 1791 
Q 947 1169 1205 825 
Q 1463 481 1925 481 
Q 2391 481 2648 825 
Q 2906 1169 2906 1791 
z
M 3481 434 
Q 3481 -459 3084 -895 
Q 2688 -1331 1869 -1331 
Q 1566 -1331 1297 -1286 
Q 1028 -1241 775 -1147 
L 775 -588 
Q 1028 -725 1275 -790 
Q 1522 -856 1778 -856 
Q 2344 -856 2625 -561 
Q 2906 -266 2906 331 
L 2906 616 
Q 2728 306 2450 153 
Q 2172 0 1784 0 
Q 1141 0 747 490 
Q 353 981 353 1791 
Q 353 2603 747 3093 
Q 1141 3584 1784 3584 
Q 2172 3584 2450 3431 
Q 2728 3278 2906 2969 
L 2906 3500 
L 3481 3500 
L 3481 434 
z
" transform="scale(0.015625)"/>
       <path id="DejaVuSans-20" transform="scale(0.015625)"/>
       <path id="DejaVuSans-66" d="M 2375 4863 
L 2375 4384 
L 1825 4384 
Q 1516 4384 1395 4259 
Q 1275 4134 1275 3809 
L 1275 3500 
L 2222 3500 
L 2222 3053 
L 1275 3053 
L 1275 0 
L 697 0 
L 697 3053 
L 147 3053 
L 147 3500 
L 697 3500 
L 697 3744 
Q 697 4328 969 4595 
Q 1241 4863 1831 4863 
L 2375 4863 
z
" transform="scale(0.015625)"/>
       <path id="DejaVuSans-46" d="M 628 4666 
L 3309 4666 
L 3309 4134 
L 1259 4134 
L 1259 2759 
L 3109 2759 
L 3109 2228 
L 1259 2228 
L 1259 0 
L 628 0 
L 628 4666 
z
" transform="scale(0.015625)"/>
       <path id="DejaVuSans-45" d="M 628 4666 
L 3578 4666 
L 3578 4134 
L 1259 4134 
L 1259 2753 
L 3481 2753 
L 3481 2222 
L 1259 2222 
L 1259 531 
L 3634 531 
L 3634 0 
L 628 0 
L 628 4666 
z
" transform="scale(0.015625)"/>
       <path id="DejaVuSans-76" d="M 191 3500 
L 800 3500 
L 1894 563 
L 2988 3500 
L 3597 3500 
L 2284 0 
L 1503 0 
L 191 3500 
z
" transform="scale(0.015625)"/>
       <path id="DejaVuSans-61" d="M 2194 1759 
Q 1497 1759 1228 1600 
Q 959 1441 959 1056 
Q 959 750 1161 570 
Q 1363 391 1709 391 
Q 2188 391 2477 730 
Q 2766 1069 2766 1631 
L 2766 1759 
L 2194 1759 
z
M 3341 1997 
L 3341 0 
L 2766 0 
L 2766 531 
Q 2569 213 2275 61 
Q 1981 -91 1556 -91 
Q 1019 -91 701 211 
Q 384 513 384 1019 
Q 384 1609 779 1909 
Q 1175 2209 1959 2209 
L 2766 2209 
L 2766 2266 
Q 2766 2663 2505 2880 
Q 2244 3097 1772 3097 
Q 1472 3097 1187 3025 
Q 903 2953 641 2809 
L 641 3341 
Q 956 3463 1253 3523 
Q 1550 3584 1831 3584 
Q 2591 3584 2966 3190 
Q 3341 2797 3341 1997 
z
" transform="scale(0.015625)"/>
       <path id="DejaVuSans-73" d="M 2834 3397 
L 2834 2853 
Q 2591 2978 2328 3040 
Q 2066 3103 1784 3103 
Q 1356 3103 1142 2972 
Q 928 2841 928 2578 
Q 928 2378 1081 2264 
Q 1234 2150 1697 2047 
L 1894 2003 
Q 2506 1872 2764 1633 
Q 3022 1394 3022 966 
Q 3022 478 2636 193 
Q 2250 -91 1575 -91 
Q 1294 -91 989 -36 
Q 684 19 347 128 
L 347 722 
Q 666 556 975 473 
Q 1284 391 1588 391 
Q 1994 391 2212 530 
Q 2431 669 2431 922 
Q 2431 1156 2273 1281 
Q 2116 1406 1581 1522 
L 1381 1569 
Q 847 1681 609 1914 
Q 372 2147 372 2553 
Q 372 3047 722 3315 
Q 1072 3584 1716 3584 
Q 2034 3584 2315 3537 
Q 2597 3491 2834 3397 
z
" transform="scale(0.015625)"/>
       <path id="DejaVuSans-72" d="M 2631 2963 
Q 2534 3019 2420 3045 
Q 2306 3072 2169 3072 
Q 1681 3072 1420 2755 
Q 1159 2438 1159 1844 
L 1159 0 
L 581 0 
L 581 3500 
L 1159 3500 
L 1159 2956 
Q 1341 3275 1631 3429 
Q 1922 3584 2338 3584 
Q 2397 3584 2469 3576 
Q 2541 3569 2628 3553 
L 2631 2963 
z
" transform="scale(0.015625)"/>
       <path id="DejaVuSans-74" d="M 1172 4494 
L 1172 3500 
L 2356 3500 
L 2356 3053 
L 1172 3053 
L 1172 1153 
Q 1172 725 1289 603 
Q 1406 481 1766 481 
L 2356 481 
L 2356 0 
L 1766 0 
Q 1100 0 847 248 
Q 594 497 594 1153 
L 594 3053 
L 172 3053 
L 172 3500 
L 594 3500 
L 594 4494 
L 1172 4494 
z
" transform="scale(0.015625)"/>
       <path id="DejaVuSans-69" d="M 603 3500 
L 1178 3500 
L 1178 0 
L 603 0 
L 603 3500 
z
M 603 4863 
L 1178 4863 
L 1178 4134 
L 603 4134 
L 603 4863 
z
" transform="scale(0.015625)"/>
      </defs>
      <use xlink:href="#DejaVuSans-6c"/>
      <use xlink:href="#DejaVuSans-6f" x="27.783203"/>
      <use xlink:href="#DejaVuSans-67" x="88.964844"/>
      <use xlink:href="#DejaVuSans-31" x="152.441406"/>
      <use xlink:href="#DejaVuSans-30" x="216.064453"/>
      <use xlink:href="#DejaVuSans-20" x="279.6875"/>
      <use xlink:href="#DejaVuSans-6f" x="311.474609"/>
      <use xlink:href="#DejaVuSans-66" x="372.65625"/>
      <use xlink:href="#DejaVuSans-20" x="407.861328"/>
      <use xlink:href="#DejaVuSans-46" x="439.648438"/>
      <use xlink:href="#DejaVuSans-45" x="497.167969"/>
      <use xlink:href="#DejaVuSans-76" x="560.351562"/>
      <use xlink:href="#DejaVuSans-61" x="619.53125"/>
      <use xlink:href="#DejaVuSans-6c" x="680.810547"/>
      <use xlink:href="#DejaVuSans-73" x="708.59375"/>
      <use xlink:href="#DejaVuSans-20" x="760.693359"/>
      <use xlink:href="#DejaVuSans-72" x="792.480469"/>
      <use xlink:href="#DejaVuSans-61" x="833.59375"/>
      <use xlink:href="#DejaVuSans-74" x="894.873047"/>
      <use xlink:href="#DejaVuSans-69" x="934.082031"/>
      <use xlink:href="#DejaVuSans-6f" x="961.865234"/>
     </g>
    </g>
   </g>
   <g id="matplotlib.axis_2">
    <g id="ytick_1">
     <g id="line2d_29">
      <path d="M 34.16 288.453725 
L 453.192 288.453725 
" clip-path="url(#p1ec5f47910)" style="fill: none; stroke: #b0b0b0; stroke-width: 0.8; stroke-linecap: square"/>
     </g>
     <g id="line2d_30">
      <defs>
       <path id="m79fced88b1" d="M 0 0 
L -3.5 0 
" style="stroke: #000000; stroke-width: 0.8"/>
      </defs>
      <g>
       <use xlink:href="#m79fced88b1" x="34.16" y="288.453725" style="stroke: #000000; stroke-width: 0.8"/>
      </g>
     </g>
    </g>
    <g id="ytick_2">
     <g id="line2d_31">
      <path d="M 34.16 217.796863 
L 453.192 217.796863 
" clip-path="url(#p1ec5f47910)" style="fill: none; stroke: #b0b0b0; stroke-width: 0.8; stroke-linecap: square"/>
     </g>
     <g id="line2d_32">
      <g>
       <use xlink:href="#m79fced88b1" x="34.16" y="217.796863" style="stroke: #000000; stroke-width: 0.8"/>
      </g>
     </g>
    </g>
    <g id="ytick_3">
     <g id="line2d_33">
      <path d="M 34.16 147.14 
L 453.192 147.14 
" clip-path="url(#p1ec5f47910)" style="fill: none; stroke: #b0b0b0; stroke-width: 0.8; stroke-linecap: square"/>
     </g>
     <g id="line2d_34">
      <g>
       <use xlink:href="#m79fced88b1" x="34.16" y="147.14" style="stroke: #000000; stroke-width: 0.8"/>
      </g>
     </g>
    </g>
    <g id="ytick_4">
     <g id="line2d_35">
      <path d="M 34.16 76.483137 
L 453.192 76.483137 
" clip-path="url(#p1ec5f47910)" style="fill: none; stroke: #b0b0b0; stroke-width: 0.8; stroke-linecap: square"/>
     </g>
     <g id="line2d_36">
      <g>
       <use xlink:href="#m79fced88b1" x="34.16" y="76.483137" style="stroke: #000000; stroke-width: 0.8"/>
      </g>
     </g>
    </g>
    <g id="ytick_5">
     <g id="line2d_37">
      <path d="M 34.16 5.826275 
L 453.192 5.826275 
" clip-path="url(#p1ec5f47910)" style="fill: none; stroke: #b0b0b0; stroke-width: 0.8; stroke-linecap: square"/>
     </g>
     <g id="line2d_38">
      <g>
       <use xlink:href="#m79fced88b1" x="34.16" y="5.826275" style="stroke: #000000; stroke-width: 0.8"/>
      </g>
     </g>
    </g>
    <g id="text_5">
     <!-- proportion of trials -->
     <g transform="translate(19.000625 240.14625)rotate(-90)scale(0.2 -0.2)">
      <defs>
       <path id="DejaVuSans-70" d="M 1159 525 
L 1159 -1331 
L 581 -1331 
L 581 3500 
L 1159 3500 
L 1159 2969 
Q 1341 3281 1617 3432 
Q 1894 3584 2278 3584 
Q 2916 3584 3314 3078 
Q 3713 2572 3713 1747 
Q 3713 922 3314 415 
Q 2916 -91 2278 -91 
Q 1894 -91 1617 61 
Q 1341 213 1159 525 
z
M 3116 1747 
Q 3116 2381 2855 2742 
Q 2594 3103 2138 3103 
Q 1681 3103 1420 2742 
Q 1159 2381 1159 1747 
Q 1159 1113 1420 752 
Q 1681 391 2138 391 
Q 2594 391 2855 752 
Q 3116 1113 3116 1747 
z
" transform="scale(0.015625)"/>
       <path id="DejaVuSans-6e" d="M 3513 2113 
L 3513 0 
L 2938 0 
L 2938 2094 
Q 2938 2591 2744 2837 
Q 2550 3084 2163 3084 
Q 1697 3084 1428 2787 
Q 1159 2491 1159 1978 
L 1159 0 
L 581 0 
L 581 3500 
L 1159 3500 
L 1159 2956 
Q 1366 3272 1645 3428 
Q 1925 3584 2291 3584 
Q 2894 3584 3203 3211 
Q 3513 2838 3513 2113 
z
" transform="scale(0.015625)"/>
      </defs>
      <use xlink:href="#DejaVuSans-70"/>
      <use xlink:href="#DejaVuSans-72" x="63.476562"/>
      <use xlink:href="#DejaVuSans-6f" x="102.339844"/>
      <use xlink:href="#DejaVuSans-70" x="163.521484"/>
      <use xlink:href="#DejaVuSans-6f" x="226.998047"/>
      <use xlink:href="#DejaVuSans-72" x="288.179688"/>
      <use xlink:href="#DejaVuSans-74" x="329.292969"/>
      <use xlink:href="#DejaVuSans-69" x="368.501953"/>
      <use xlink:href="#DejaVuSans-6f" x="396.285156"/>
      <use xlink:href="#DejaVuSans-6e" x="457.466797"/>
      <use xlink:href="#DejaVuSans-20" x="520.845703"/>
      <use xlink:href="#DejaVuSans-6f" x="552.632812"/>
      <use xlink:href="#DejaVuSans-66" x="613.814453"/>
      <use xlink:href="#DejaVuSans-20" x="649.019531"/>
      <use xlink:href="#DejaVuSans-74" x="680.806641"/>
      <use xlink:href="#DejaVuSans-72" x="720.015625"/>
      <use xlink:href="#DejaVuSans-69" x="761.128906"/>
      <use xlink:href="#DejaVuSans-61" x="788.912109"/>
      <use xlink:href="#DejaVuSans-6c" x="850.191406"/>
      <use xlink:href="#DejaVuSans-73" x="877.974609"/>
     </g>
    </g>
   </g>
   <g id="line2d_39">
    <path d="M 34.16 267.159876 
L 104.27737 267.159876 
L 104.27737 266.837242 
L 106.037426 266.837242 
L 106.037426 266.514608 
L 111.921121 266.514608 
L 111.921121 266.191974 
L 141.993266 266.191974 
L 141.993266 265.86934 
L 143.753323 265.86934 
L 143.753323 265.546706 
L 144.762988 265.546706 
L 144.762988 265.224072 
L 146.523044 265.224072 
L 146.523044 264.901438 
L 149.637018 264.901438 
L 149.637018 264.578804 
L 152.406739 264.578804 
L 152.406739 264.25617 
L 153.114795 264.25617 
L 153.156541 263.610902 
L 153.527178 263.610902 
L 153.527178 263.288268 
L 155.019639 263.288268 
L 155.019639 262.965633 
L 157.470917 262.965633 
L 157.470917 262.642999 
L 157.909168 262.642999 
L 157.909168 262.320365 
L 165.304894 262.320365 
L 165.304894 261.997731 
L 183.380158 261.997731 
L 183.380158 261.675097 
L 185.140214 261.675097 
L 185.140214 261.352463 
L 185.507409 261.352463 
L 185.537243 260.707195 
L 187.267465 260.707195 
L 187.267465 260.384561 
L 188.60171 260.384561 
L 188.60171 260.061927 
L 189.077389 260.061927 
L 189.077389 259.739293 
L 189.500433 259.739293 
L 189.500433 259.416659 
L 190.361766 259.416659 
L 190.361766 259.094025 
L 190.830692 259.094025 
L 190.872438 258.448756 
L 191.023909 258.448756 
L 191.023909 258.126122 
L 191.243075 258.126122 
L 191.243075 257.803488 
L 192.318534 257.803488 
L 192.318534 257.480854 
L 192.735535 257.480854 
L 192.735535 257.15822 
L 193.15116 257.15822 
L 193.15116 256.835586 
L 193.600414 256.835586 
L 193.64216 256.190318 
L 194.012796 256.190318 
L 194.012796 255.867684 
L 195.186814 255.867684 
L 195.186814 255.54505 
L 195.505257 255.54505 
L 195.505257 255.222416 
L 195.625064 255.222416 
L 195.625064 254.899782 
L 196.245461 254.899782 
L 196.245461 254.577147 
L 196.963659 254.577147 
L 196.963659 254.254513 
L 197.956535 254.254513 
L 197.956535 253.931879 
L 198.394786 253.931879 
L 198.394786 253.609245 
L 198.893057 253.609245 
L 198.893057 253.286611 
L 199.879382 253.286611 
L 199.879382 252.963977 
L 200.877226 252.963977 
L 200.877226 252.641343 
L 201.677161 252.641343 
L 201.677161 252.318709 
L 203.02079 252.318709 
L 203.02079 251.996075 
L 204.417371 251.996075 
L 204.417371 251.673441 
L 204.840415 251.673441 
L 204.840415 251.350807 
L 205.242234 251.350807 
L 205.242234 251.028173 
L 205.524852 251.028173 
L 205.524852 250.705539 
L 205.790512 250.705539 
L 205.892102 250.06027 
L 206.65322 250.06027 
L 206.65322 249.737636 
L 207.066748 249.737636 
L 207.066748 249.415002 
L 207.658517 249.415002 
L 207.658517 249.092368 
L 208.149557 249.092368 
L 208.149557 248.4471 
L 208.486022 248.4471 
L 208.486022 248.124466 
L 209.739793 248.124466 
L 209.739793 247.801832 
L 210.500911 247.801832 
L 210.500911 247.479198 
L 210.921662 247.479198 
L 210.921662 247.156564 
L 211.23991 247.156564 
L 211.28169 246.188661 
L 211.997248 246.188661 
L 212.042808 245.220759 
L 212.21332 245.220759 
L 212.303642 244.575491 
L 212.462554 244.575491 
L 212.462554 244.252857 
L 212.700963 244.252857 
L 212.700963 243.930223 
L 213.107988 243.930223 
L 213.107988 243.607589 
L 213.450884 243.607589 
L 213.539144 242.317053 
L 213.816362 242.317053 
L 213.816362 241.994418 
L 214.233039 241.994418 
L 214.233039 241.671784 
L 214.491609 241.671784 
L 214.565306 241.026516 
L 214.798079 241.026516 
L 214.840613 240.381248 
L 214.958418 240.381248 
L 214.984058 239.413346 
L 215.107169 239.413346 
L 215.136604 238.445444 
L 215.219364 238.445444 
L 215.219364 238.12281 
L 215.897722 238.12281 
L 215.897722 237.800175 
L 216.061011 237.800175 
L 216.163591 236.509639 
L 216.314632 236.509639 
L 216.314632 236.187005 
L 216.540359 236.187005 
L 216.540359 235.864371 
L 216.669049 235.864371 
L 216.669049 235.541737 
L 217.031889 235.541737 
L 217.031889 235.219103 
L 217.214247 235.219103 
L 217.322929 234.573835 
L 217.394058 234.573835 
L 217.41561 233.605932 
L 217.602908 233.605932 
L 217.665826 232.63803 
L 217.886164 232.63803 
L 217.88982 231.992762 
L 218.084047 231.992762 
L 218.105451 231.02486 
L 218.213271 231.02486 
L 218.213271 230.702226 
L 218.338224 230.702226 
L 218.426944 229.734324 
L 218.519024 229.734324 
L 218.528495 229.089055 
L 218.647314 229.089055 
L 218.647314 228.766421 
L 218.761268 228.766421 
L 218.761268 228.443787 
L 219.022182 228.443787 
L 219.070358 227.475885 
L 219.20595 227.475885 
L 219.20595 227.153251 
L 219.382826 227.153251 
L 219.491531 226.507983 
L 219.580384 226.507983 
L 219.608268 225.540081 
L 219.816673 225.540081 
L 219.92328 224.249544 
L 219.936562 224.249544 
L 219.949567 223.604276 
L 220.411757 223.604276 
L 220.415504 222.959008 
L 220.523963 222.959008 
L 220.625224 222.31374 
L 220.684968 222.31374 
L 220.699996 221.668472 
L 221.094001 221.668472 
L 221.094001 221.345838 
L 221.265673 221.345838 
L 221.346597 219.732667 
L 221.457822 219.732667 
L 221.457822 219.410033 
L 221.57937 219.410033 
L 221.670398 218.764765 
L 221.88846 218.764765 
L 221.896707 218.119497 
L 222.259183 218.119497 
L 222.259183 217.796863 
L 222.710288 217.796863 
L 222.810115 217.151595 
L 223.053185 217.151595 
L 223.060864 216.506326 
L 223.316338 216.506326 
L 223.316338 216.183692 
L 223.476707 216.183692 
L 223.534952 215.538424 
L 223.597768 215.538424 
L 223.644147 214.893156 
L 223.736111 214.893156 
L 223.736111 214.570522 
L 223.871766 214.570522 
L 223.899751 213.925254 
L 223.987044 213.925254 
L 223.987044 213.60262 
L 224.164508 213.60262 
L 224.252209 212.957352 
L 224.358886 212.957352 
L 224.442914 212.312083 
L 224.532659 212.312083 
L 224.63593 211.666815 
L 224.925626 211.666815 
L 224.925626 211.344181 
L 225.11014 211.344181 
L 225.11014 211.021547 
L 225.247189 211.021547 
L 225.247189 210.698913 
L 225.367912 210.698913 
L 225.376773 210.053645 
L 225.551468 210.053645 
L 225.590086 209.408377 
L 225.744398 209.408377 
L 225.855222 207.795206 
L 225.922436 207.795206 
L 225.991722 206.827304 
L 226.052624 206.827304 
L 226.074555 205.859402 
L 226.222373 205.859402 
L 226.265333 204.8915 
L 226.350261 204.8915 
L 226.421963 203.923597 
L 226.533585 203.923597 
L 226.579892 203.278329 
L 226.717853 203.278329 
L 226.773713 202.310427 
L 226.979815 202.310427 
L 227.017376 201.665159 
L 227.157434 201.665159 
L 227.23599 201.019891 
L 227.286294 201.019891 
L 227.286294 200.697257 
L 227.493829 200.697257 
L 227.585454 200.051989 
L 227.631644 200.051989 
L 227.655062 199.40672 
L 227.921119 199.40672 
L 227.953246 198.761452 
L 228.068031 198.761452 
L 228.153892 198.116184 
L 228.286645 198.116184 
L 228.336967 197.148282 
L 228.462982 197.148282 
L 228.462982 196.825648 
L 228.705568 196.825648 
L 228.811178 195.857746 
L 228.890718 195.857746 
L 228.985127 194.567209 
L 229.003902 194.567209 
L 229.067056 193.599307 
L 229.140217 193.599307 
L 229.140217 193.276673 
L 229.28567 193.276673 
L 229.387623 192.308771 
L 229.449307 192.308771 
L 229.551867 191.663503 
L 229.591406 191.663503 
L 229.675819 190.6956 
L 229.818025 190.6956 
L 229.918986 189.727698 
L 229.929469 189.727698 
L 230.002927 189.08243 
L 230.05954 189.08243 
L 230.05954 188.759796 
L 230.29186 188.759796 
L 230.386647 187.46926 
L 230.462053 187.46926 
L 230.563929 185.856089 
L 230.680666 185.856089 
L 230.6924 185.210821 
L 230.860858 185.210821 
L 230.861551 184.565553 
L 231.141209 184.565553 
L 231.16661 183.920285 
L 231.269289 183.920285 
L 231.362978 182.307114 
L 231.397923 182.307114 
L 231.487903 181.016578 
L 231.522028 181.016578 
L 231.553781 180.048676 
L 231.664907 180.048676 
L 231.772394 179.080774 
L 231.781644 179.080774 
L 231.880342 178.112871 
L 231.973837 178.112871 
L 232.073948 177.467603 
L 232.088769 177.467603 
L 232.197275 176.177067 
L 232.20516 176.177067 
L 232.259329 174.886531 
L 232.458691 174.886531 
L 232.561513 173.918628 
L 232.58888 173.918628 
L 232.629966 172.950726 
L 232.764016 172.950726 
L 232.873372 171.66019 
L 233.063091 171.66019 
L 233.063091 171.337556 
L 233.272944 171.337556 
L 233.347583 170.047019 
L 233.642411 170.047019 
L 233.685599 169.079117 
L 233.84842 169.079117 
L 233.84842 168.756483 
L 234.05785 168.756483 
L 234.122427 167.788581 
L 234.236531 167.788581 
L 234.344834 166.175411 
L 234.360238 166.175411 
L 234.38658 165.530142 
L 234.641436 165.530142 
L 234.725551 164.884874 
L 234.757217 164.884874 
L 234.757217 164.56224 
L 234.944165 164.56224 
L 234.947188 163.916972 
L 235.06016 163.916972 
L 235.076493 162.94907 
L 235.187525 162.94907 
L 235.293292 161.981168 
L 235.495859 161.981168 
L 235.579352 160.367997 
L 235.614997 160.367997 
L 235.661422 159.722729 
L 235.75174 159.722729 
L 235.837611 158.754827 
L 235.902135 158.754827 
L 235.921639 157.786925 
L 236.036432 157.786925 
L 236.045142 157.141656 
L 236.165929 157.141656 
L 236.249678 156.173754 
L 236.287005 156.173754 
L 236.287005 155.85112 
L 236.433984 155.85112 
L 236.519353 154.560584 
L 236.573705 154.560584 
L 236.605655 153.592682 
L 236.686899 153.592682 
L 236.712288 152.947413 
L 236.843669 152.947413 
L 236.843669 152.624779 
L 236.973981 152.624779 
L 237.011956 151.979511 
L 237.128161 151.979511 
L 237.187754 150.688975 
L 237.321409 150.688975 
L 237.401161 149.075804 
L 237.439135 149.075804 
L 237.541288 147.14 
L 237.744058 147.14 
L 237.851518 145.849464 
L 238.015498 145.849464 
L 238.121614 144.558927 
L 238.156078 144.558927 
L 238.195398 143.591025 
L 238.313961 143.591025 
L 238.390633 142.945757 
L 238.446956 142.945757 
L 238.522505 142.300489 
L 238.696554 142.300489 
L 238.700956 141.655221 
L 238.828258 141.655221 
L 238.924307 140.687318 
L 238.957374 140.687318 
L 239.023662 140.04205 
L 239.133787 140.04205 
L 239.218744 138.42888 
L 239.329414 138.42888 
L 239.427044 137.460978 
L 239.580917 137.460978 
L 239.602372 136.81571 
L 239.714747 136.81571 
L 239.800765 135.525173 
L 239.917502 135.525173 
L 239.917502 135.202539 
L 240.033684 135.202539 
L 240.033684 134.879905 
L 240.169113 134.879905 
L 240.2694 133.912003 
L 240.299931 133.912003 
L 240.399903 132.944101 
L 240.418658 132.944101 
L 240.500745 131.653564 
L 240.724738 131.653564 
L 240.809835 131.008296 
L 240.913246 131.008296 
L 241.00923 129.395126 
L 241.213218 129.395126 
L 241.31845 128.104589 
L 241.397711 128.104589 
L 241.445811 127.459321 
L 241.510386 127.459321 
L 241.574177 126.814053 
L 241.688348 126.814053 
L 241.796076 124.878249 
L 241.847105 124.878249 
L 241.943374 124.232981 
L 241.972201 124.232981 
L 241.972201 123.587712 
L 242.119268 123.587712 
L 242.119268 123.265078 
L 242.233508 123.265078 
L 242.286271 122.297176 
L 242.388214 122.297176 
L 242.388214 121.974542 
L 242.546683 121.974542 
L 242.625344 121.329274 
L 242.663421 121.329274 
L 242.663421 121.00664 
L 242.895195 121.00664 
L 243.000753 119.716104 
L 243.023408 119.716104 
L 243.023408 119.393469 
L 243.184684 119.393469 
L 243.262898 118.425567 
L 243.450147 118.425567 
L 243.504775 117.457665 
L 243.56865 117.457665 
L 243.676 115.844495 
L 243.755149 115.844495 
L 243.847671 115.199226 
L 243.945851 115.199226 
L 243.945851 114.876592 
L 244.125394 114.876592 
L 244.181 114.231324 
L 244.242741 114.231324 
L 244.353099 112.940788 
L 244.407682 112.940788 
L 244.407682 112.618154 
L 244.541157 112.618154 
L 244.617768 111.972886 
L 244.657895 111.972886 
L 244.682156 111.004983 
L 244.823854 111.004983 
L 244.888483 110.359715 
L 244.937369 110.359715 
L 245.039184 109.069179 
L 245.090192 109.069179 
L 245.102106 108.423911 
L 245.237401 108.423911 
L 245.322966 107.456009 
L 245.386659 107.456009 
L 245.465131 106.81074 
L 245.568422 106.81074 
L 245.677146 105.520204 
L 245.749623 105.520204 
L 245.801195 104.874936 
L 245.874808 104.874936 
L 245.953284 104.229668 
L 246.035965 104.229668 
L 246.110285 103.261766 
L 246.178302 103.261766 
L 246.223134 102.616497 
L 246.314589 102.616497 
L 246.339872 101.971229 
L 246.534933 101.971229 
L 246.593261 101.003327 
L 246.801237 101.003327 
L 246.877258 100.358059 
L 246.926919 100.358059 
L 247.01018 99.390157 
L 247.147108 99.390157 
L 247.248448 98.422254 
L 247.353076 98.422254 
L 247.4316 97.776986 
L 247.639007 97.776986 
L 247.639007 97.454352 
L 247.805 97.454352 
L 247.908163 96.809084 
L 247.96185 96.809084 
L 247.96185 96.48645 
L 248.218213 96.48645 
L 248.314254 95.841182 
L 248.423065 95.841182 
L 248.512782 95.195914 
L 248.742805 95.195914 
L 248.85149 94.228011 
L 248.921393 94.228011 
L 248.921393 93.905377 
L 249.087696 93.905377 
L 249.087696 93.582743 
L 249.322741 93.582743 
L 249.322741 93.260109 
L 249.439819 93.260109 
L 249.526737 92.614841 
L 249.582494 92.614841 
L 249.683445 91.324305 
L 249.779614 91.324305 
L 249.869358 90.356403 
L 249.981682 90.356403 
L 249.981682 90.033768 
L 250.122064 90.033768 
L 250.138352 89.3885 
L 250.293735 89.3885 
L 250.354837 87.77533 
L 250.417538 87.77533 
L 250.527508 86.16216 
L 250.60337 86.16216 
L 250.663927 85.516891 
L 250.810269 85.516891 
L 250.835598 84.871623 
L 250.939678 84.871623 
L 250.939678 84.548989 
L 251.081098 84.548989 
L 251.137377 83.903721 
L 251.443129 83.903721 
L 251.55293 82.613185 
L 251.829665 82.613185 
L 251.878628 81.967917 
L 252.099516 81.967917 
L 252.099516 81.645282 
L 252.224847 81.645282 
L 252.224847 81.322648 
L 252.415636 81.322648 
L 252.498217 80.67738 
L 252.532373 80.67738 
L 252.551955 80.032112 
L 252.78407 80.032112 
L 252.857707 79.386844 
L 253.2623 79.386844 
L 253.33961 78.096308 
L 253.624101 78.096308 
L 253.624101 77.773674 
L 253.813231 77.773674 
L 253.851759 76.805771 
L 253.946951 76.805771 
L 253.946951 76.483137 
L 254.449824 76.483137 
L 254.507612 75.837869 
L 254.754188 75.837869 
L 254.811076 75.192601 
L 255.038679 75.192601 
L 255.038679 74.869967 
L 255.154725 74.869967 
L 255.206883 74.224699 
L 255.425497 74.224699 
L 255.49332 73.579431 
L 255.604119 73.579431 
L 255.664991 72.934162 
L 255.719351 72.934162 
L 255.720095 72.288894 
L 256.142754 72.288894 
L 256.142754 71.96626 
L 256.379221 71.96626 
L 256.420841 71.320992 
L 256.526475 71.320992 
L 256.526475 70.998358 
L 256.795872 70.998358 
L 256.795872 70.675724 
L 256.931835 70.675724 
L 257.000685 70.030456 
L 257.133697 70.030456 
L 257.235336 69.385188 
L 257.365546 69.385188 
L 257.365546 69.062553 
L 257.684629 69.062553 
L 257.684629 68.739919 
L 257.815941 68.739919 
L 257.815941 68.417285 
L 257.982241 68.417285 
L 257.987613 67.772017 
L 258.21045 67.772017 
L 258.292017 67.126749 
L 258.366873 67.126749 
L 258.4667 66.481481 
L 258.538545 66.481481 
L 258.538545 66.158847 
L 259.022952 66.158847 
L 259.022952 65.836213 
L 259.696938 65.836213 
L 259.792979 64.868311 
L 260.146332 64.868311 
L 260.146332 64.545676 
L 260.781263 64.545676 
L 260.781263 64.223042 
L 261.005462 64.223042 
L 261.005462 63.900408 
L 261.258339 63.900408 
L 261.258339 63.577774 
L 261.487646 63.577774 
L 261.487646 63.25514 
L 261.707733 63.25514 
L 261.707733 62.932506 
L 262.006846 62.932506 
L 262.057556 62.287238 
L 262.42989 62.287238 
L 262.535786 61.64197 
L 262.563098 61.64197 
L 262.563098 61.319336 
L 262.986142 61.319336 
L 262.986142 60.996702 
L 263.371525 60.996702 
L 263.371525 60.674068 
L 263.604298 60.674068 
L 263.604298 60.351433 
L 263.858745 60.351433 
L 263.913388 59.706165 
L 264.215588 59.706165 
L 264.215588 59.383531 
L 264.335192 59.383531 
L 264.335192 59.060897 
L 264.448361 59.060897 
L 264.448361 58.738263 
L 264.662333 58.738263 
L 264.763743 57.770361 
L 265.163489 57.770361 
L 265.247991 56.802459 
L 265.547675 56.802459 
L 265.547675 56.479825 
L 265.804243 56.479825 
L 265.896593 55.834556 
L 266.407184 55.834556 
L 266.407184 55.511922 
L 267.089428 55.511922 
L 267.109076 54.866654 
L 267.261099 54.866654 
L 267.261099 54.54402 
L 267.408251 54.54402 
L 267.408251 54.221386 
L 268.680965 54.221386 
L 268.742781 53.253484 
L 269.159194 53.253484 
L 269.159194 52.93085 
L 269.401997 52.93085 
L 269.402725 52.285582 
L 269.586844 52.285582 
L 269.586844 51.962947 
L 269.893116 51.962947 
L 269.893116 51.640313 
L 270.449368 51.640313 
L 270.449368 51.317679 
L 270.61448 51.317679 
L 270.61448 50.995045 
L 270.814852 50.995045 
L 270.814852 50.672411 
L 271.065403 50.672411 
L 271.084702 50.027143 
L 271.616335 50.027143 
L 271.616335 49.704509 
L 271.822514 49.704509 
L 271.909465 49.059241 
L 272.378765 49.059241 
L 272.460397 48.413973 
L 272.808839 48.413973 
L 272.808839 48.091339 
L 273.030592 48.091339 
L 273.030592 47.768704 
L 273.365091 47.768704 
L 273.365091 47.44607 
L 273.548294 47.44607 
L 273.548294 47.123436 
L 273.712836 47.123436 
L 273.712836 46.800802 
L 273.884508 46.800802 
L 273.884508 46.478168 
L 274.026524 46.478168 
L 274.026524 46.155534 
L 277.046442 46.155534 
L 277.046442 45.8329 
L 277.277204 45.8329 
L 277.277204 45.510266 
L 277.897922 45.510266 
L 277.897922 45.187632 
L 278.580166 45.187632 
L 278.580166 44.864998 
L 278.691782 44.864998 
L 278.751837 44.21973 
L 279.511353 44.21973 
L 279.511353 43.897096 
L 280.338889 43.897096 
L 280.338889 43.574461 
L 280.586587 43.574461 
L 280.586587 43.251827 
L 281.009631 43.251827 
L 281.009631 42.929193 
L 281.182952 42.929193 
L 281.182952 42.606559 
L 282.281074 42.606559 
L 282.281074 42.283925 
L 283.827733 42.283925 
L 283.827733 41.961291 
L 284.169367 41.961291 
L 284.169367 41.638657 
L 284.725618 41.638657 
L 284.725618 41.316023 
L 285.524325 41.316023 
L 285.566071 40.670755 
L 285.936708 40.670755 
L 285.936708 40.348121 
L 286.232858 40.348121 
L 286.274604 39.702853 
L 286.645241 39.702853 
L 286.645241 39.380218 
L 286.962298 39.380218 
L 286.962298 39.057584 
L 287.429168 39.057584 
L 287.429168 38.73495 
L 287.80636 38.73495 
L 287.80636 38.412316 
L 288.137701 38.412316 
L 288.137701 38.089682 
L 288.472858 38.089682 
L 288.472858 37.767048 
L 288.991587 37.767048 
L 288.991587 37.444414 
L 289.469817 37.444414 
L 289.547839 36.799146 
L 289.880447 36.799146 
L 289.880447 36.476512 
L 290.026068 36.476512 
L 290.026068 36.153878 
L 290.318697 36.153878 
L 290.402255 35.50861 
L 290.58898 35.50861 
L 290.58898 35.185975 
L 291.027231 35.185975 
L 291.027231 34.863341 
L 291.38858 34.863341 
L 291.38858 34.540707 
L 291.829627 34.540707 
L 291.829627 34.218073 
L 292.67369 34.218073 
L 292.67369 33.895439 
L 293.341214 33.895439 
L 293.341214 33.572805 
L 293.897466 33.572805 
L 293.897466 33.250171 
L 294.023458 33.250171 
L 294.023458 32.927537 
L 294.19513 32.927537 
L 294.19513 32.604903 
L 294.57971 32.604903 
L 294.57971 32.282269 
L 294.751382 32.282269 
L 294.751382 31.959635 
L 296.20406 31.959635 
L 296.20406 31.637001 
L 297.714423 31.637001 
L 297.714423 31.314367 
L 298.422957 31.314367 
L 298.422957 30.991732 
L 299.058931 30.991732 
L 299.058931 30.669098 
L 299.744206 30.669098 
L 299.744206 30.346464 
L 300.16725 30.346464 
L 300.16725 30.02383 
L 300.818988 30.02383 
L 300.818988 29.701196 
L 302.749108 29.701196 
L 302.749108 29.378562 
L 302.985351 29.378562 
L 302.985351 29.055928 
L 306.702683 29.055928 
L 306.702683 28.733294 
L 307.27292 28.733294 
L 307.27292 28.41066 
L 307.571328 28.41066 
L 307.630476 27.765392 
L 307.829171 27.765392 
L 307.829171 27.442758 
L 308.049558 27.442758 
L 308.116982 26.797489 
L 308.673234 26.797489 
L 308.673234 26.474855 
L 309.559874 26.474855 
L 309.559874 26.152221 
L 310.546199 26.152221 
L 310.546199 25.829587 
L 311.920956 25.829587 
L 311.920956 25.506953 
L 312.6032 25.506953 
L 312.6032 25.184319 
L 312.774871 25.184319 
L 312.774871 24.861685 
L 320.898244 24.861685 
L 320.898244 24.539051 
L 321.906727 24.539051 
L 321.906727 24.216417 
L 323.025495 24.216417 
L 323.025495 23.893783 
L 325.852661 23.893783 
L 325.852661 23.571149 
L 326.119796 23.571149 
L 326.119796 23.248515 
L 326.696724 23.248515 
L 326.728947 22.603246 
L 327.207176 22.603246 
L 327.207176 22.280612 
L 331.078574 22.280612 
L 331.078574 21.957978 
L 331.760818 21.957978 
L 331.760818 21.635344 
L 331.93249 21.635344 
L 331.93249 21.31271 
L 345.01028 21.31271 
L 345.01028 20.990076 
L 345.854342 20.990076 
L 345.854342 20.667442 
L 347.896357 20.667442 
L 347.938103 20.022174 
L 348.30874 20.022174 
L 348.30874 19.69954 
L 349.8012 19.69954 
L 349.8012 19.376906 
L 352.252479 19.376906 
L 352.252479 19.054272 
L 352.690729 19.054272 
L 352.690729 18.731638 
L 360.086456 18.731638 
L 360.086456 18.409003 
L 374.204985 18.409003 
L 374.204985 18.086369 
L 374.913519 18.086369 
L 374.913519 17.763735 
L 436.577018 17.763735 
L 436.577018 17.441101 
L 453.192 17.441101 
L 453.192 17.441101 
" clip-path="url(#p1ec5f47910)" style="fill: none; stroke: #000000; stroke-width: 3; stroke-linecap: square"/>
   </g>
   <g id="line2d_40">
    <path clip-path="url(#p1ec5f47910)" style="fill: none; stroke: #000000; stroke-width: 3; stroke-linecap: square"/>
   </g>
   <g id="line2d_41">
    <path d="M 34.16 288.453725 
L 187.765977 288.453725 
L 187.765977 288.035018 
L 193.160733 288.035018 
L 193.160733 287.616311 
L 194.944229 287.616311 
L 194.944229 287.197603 
L 197.12428 287.197603 
L 197.12428 286.778896 
L 197.313102 286.778896 
L 197.313102 286.360189 
L 200.338985 286.360189 
L 200.338985 285.941481 
L 203.764665 285.941481 
L 203.764665 285.522774 
L 204.302532 285.522774 
L 204.302532 285.104067 
L 204.491355 285.104067 
L 204.491355 284.685359 
L 205.276585 284.685359 
L 205.276585 284.266652 
L 206.497135 284.266652 
L 206.497135 283.847945 
L 207.482776 283.847945 
L 207.482776 283.429237 
L 207.777675 283.429237 
L 207.777675 283.01053 
L 208.295707 283.01053 
L 208.295707 282.591823 
L 209.083617 282.591823 
L 209.083617 282.173115 
L 210.643021 282.173115 
L 210.643021 281.754408 
L 210.942917 281.754408 
L 210.942917 281.335701 
L 211.402788 281.335701 
L 211.402788 280.916993 
L 212.454838 280.916993 
L 212.454838 280.498286 
L 212.724887 280.498286 
L 212.724887 280.079579 
L 213.675387 280.079579 
L 213.690463 279.242164 
L 214.43892 279.242164 
L 214.43892 278.823457 
L 214.661029 278.823457 
L 214.661029 278.404749 
L 214.955927 278.404749 
L 214.955927 277.986042 
L 215.073387 277.986042 
L 215.073387 277.567335 
L 215.214294 277.567335 
L 215.324547 276.72992 
L 215.903027 276.72992 
L 215.903027 276.311213 
L 216.261869 276.311213 
L 216.261869 275.892505 
L 216.706212 275.892505 
L 216.706212 275.473798 
L 217.174031 275.473798 
L 217.174031 275.055091 
L 217.65401 275.055091 
L 217.65401 274.636383 
L 217.818855 274.636383 
L 217.842832 273.798969 
L 218.143651 273.798969 
L 218.143651 273.380261 
L 218.71709 273.380261 
L 218.71709 272.961554 
L 219.326365 272.961554 
L 219.326365 272.542847 
L 219.833676 272.542847 
L 219.936119 270.868017 
L 220.328454 270.868017 
L 220.328454 270.44931 
L 220.468142 270.44931 
L 220.468142 270.030603 
L 220.695886 270.030603 
L 220.695886 269.611895 
L 221.465292 269.611895 
L 221.465292 269.193188 
L 221.839443 269.193188 
L 221.839443 268.774481 
L 222.035869 268.774481 
L 222.035869 268.355773 
L 222.5028 268.355773 
L 222.5028 267.937066 
L 223.520605 267.937066 
L 223.520605 267.518359 
L 223.797223 267.518359 
L 223.884464 266.680944 
L 223.986045 266.680944 
L 223.986045 266.262237 
L 224.111846 266.262237 
L 224.111846 265.843529 
L 224.294394 265.843529 
L 224.294394 265.424822 
L 224.43169 265.424822 
L 224.507392 264.587407 
L 224.600446 264.587407 
L 224.620512 263.749993 
L 224.888761 263.749993 
L 224.888761 263.331285 
L 225.196125 263.331285 
L 225.196125 262.912578 
L 225.360213 262.912578 
L 225.448959 260.819041 
L 225.806315 260.819041 
L 225.907216 259.981627 
L 226.059262 259.981627 
L 226.132038 259.144212 
L 226.208726 259.144212 
L 226.286675 257.469383 
L 226.467129 257.469383 
L 226.481858 256.631968 
L 226.611945 256.631968 
L 226.666982 255.794553 
L 226.732031 255.794553 
L 226.819029 254.957139 
L 226.856008 254.957139 
L 226.856008 254.538431 
L 226.972715 254.538431 
L 227.046442 253.282309 
L 227.111953 253.282309 
L 227.111953 252.863602 
L 227.346866 252.863602 
L 227.436749 251.60748 
L 228.012506 251.60748 
L 228.078241 250.351358 
L 228.17187 250.351358 
L 228.264215 248.676529 
L 228.307404 248.676529 
L 228.411805 247.839114 
L 228.55244 247.839114 
L 228.619463 247.001699 
L 228.691383 247.001699 
L 228.691383 246.582992 
L 228.838007 246.582992 
L 228.88336 244.908163 
L 228.996673 244.908163 
L 229.065534 243.652041 
L 229.171719 243.652041 
L 229.255454 241.977211 
L 229.370824 241.977211 
L 229.370824 241.558504 
L 229.534848 241.558504 
L 229.643126 239.464967 
L 229.661263 239.464967 
L 229.661263 239.04626 
L 229.860452 239.04626 
L 229.944902 237.371431 
L 230.020232 237.371431 
L 230.032473 236.115309 
L 230.294615 236.115309 
L 230.396184 234.859187 
L 230.406624 234.859187 
L 230.478489 233.603065 
L 230.630535 233.603065 
L 230.735669 231.090821 
L 230.857948 231.090821 
L 230.857948 230.672113 
L 231.072074 230.672113 
L 231.167222 228.997284 
L 231.319268 228.997284 
L 231.319268 228.578577 
L 231.546681 228.578577 
L 231.622198 227.741162 
L 231.77628 227.741162 
L 231.882271 226.903747 
L 231.903282 226.903747 
L 231.983377 224.391503 
L 232.101076 224.391503 
L 232.126787 223.135381 
L 232.256422 223.135381 
L 232.3484 221.460552 
L 232.420142 221.460552 
L 232.438226 220.623137 
L 232.548105 220.623137 
L 232.649514 217.273479 
L 232.672109 217.273479 
L 232.722551 216.436064 
L 232.817685 216.436064 
L 232.872901 215.598649 
L 232.949588 215.598649 
L 233.032353 213.505113 
L 233.083049 213.505113 
L 233.170078 212.248991 
L 233.211677 212.248991 
L 233.28379 210.574161 
L 233.324942 210.574161 
L 233.407845 208.480625 
L 233.454633 208.480625 
L 233.559891 206.805795 
L 233.569005 206.805795 
L 233.641664 205.130966 
L 233.702535 205.130966 
L 233.804544 203.456137 
L 233.883211 203.456137 
L 233.943114 201.781307 
L 234.055615 201.781307 
L 234.165909 198.431649 
L 234.285878 198.431649 
L 234.376585 197.594234 
L 234.41395 197.594234 
L 234.450618 196.756819 
L 234.572918 196.756819 
L 234.655036 194.244575 
L 234.715778 194.244575 
L 234.794854 191.313624 
L 234.912733 191.313624 
L 234.970018 190.057502 
L 235.057704 190.057502 
L 235.134391 188.382672 
L 235.18998 188.382672 
L 235.254074 187.545258 
L 235.30574 187.545258 
L 235.41437 185.870428 
L 235.421202 185.870428 
L 235.471456 185.033014 
L 235.56944 185.033014 
L 235.653596 182.939477 
L 235.726492 182.939477 
L 235.778531 180.84594 
L 235.854277 180.84594 
L 235.854277 180.427233 
L 235.96845 180.427233 
L 236.065858 178.333696 
L 236.083821 178.333696 
L 236.095447 176.658867 
L 236.227699 176.658867 
L 236.300571 174.984038 
L 236.383989 174.984038 
L 236.455822 172.890501 
L 236.536056 172.890501 
L 236.638764 172.053086 
L 236.657899 172.053086 
L 236.762293 169.95955 
L 236.9246 169.95955 
L 237.035478 168.703428 
L 237.097536 168.703428 
L 237.201545 167.028598 
L 237.215227 167.028598 
L 237.235941 166.191184 
L 237.361005 166.191184 
L 237.448248 164.935062 
L 237.566703 164.935062 
L 237.589444 163.67894 
L 237.704903 163.67894 
L 237.778266 162.422818 
L 237.862404 162.422818 
L 237.89422 161.166696 
L 238.010087 161.166696 
L 238.106467 159.910574 
L 238.166124 159.910574 
L 238.218192 159.073159 
L 238.377497 159.073159 
L 238.433889 157.817037 
L 238.56632 157.817037 
L 238.61209 156.142208 
L 238.679804 156.142208 
L 238.728788 154.886086 
L 238.817613 154.886086 
L 238.923867 153.629964 
L 238.969419 153.629964 
L 239.07822 151.536427 
L 239.153579 151.536427 
L 239.220281 150.280305 
L 239.28614 150.280305 
L 239.393086 148.605476 
L 239.39783 148.605476 
L 239.435548 146.930646 
L 239.589483 146.930646 
L 239.676355 145.674524 
L 239.727658 145.674524 
L 239.806105 143.999695 
L 240.028767 143.999695 
L 240.133537 140.650036 
L 240.164912 140.650036 
L 240.243958 138.5565 
L 240.315992 138.5565 
L 240.315992 138.137792 
L 240.436223 138.137792 
L 240.521578 136.462963 
L 240.621282 136.462963 
L 240.699856 135.625548 
L 240.772624 135.625548 
L 240.878906 134.369426 
L 240.978879 134.369426 
L 241.079315 133.113304 
L 241.133393 133.113304 
L 241.195628 131.857182 
L 241.260494 131.857182 
L 241.323313 130.182353 
L 241.433556 130.182353 
L 241.507545 128.926231 
L 241.552621 128.926231 
L 241.657082 128.088816 
L 241.683334 128.088816 
L 241.683334 127.670109 
L 241.799008 127.670109 
L 241.867657 126.413987 
L 241.913036 126.413987 
L 242.012761 124.739158 
L 242.039177 124.739158 
L 242.129723 122.645621 
L 242.157495 122.645621 
L 242.204744 121.808206 
L 242.315704 121.808206 
L 242.36923 120.970792 
L 242.474483 120.970792 
L 242.565599 119.71467 
L 242.631835 119.71467 
L 242.731573 117.202426 
L 242.784127 117.202426 
L 242.887466 115.946304 
L 242.93021 115.946304 
L 243.02819 114.690182 
L 243.140099 114.690182 
L 243.226212 111.75923 
L 243.379155 111.75923 
L 243.416132 110.921816 
L 243.50688 110.921816 
L 243.597426 108.828279 
L 243.676 108.828279 
L 243.762146 107.15345 
L 243.828046 107.15345 
L 243.828046 106.734742 
L 243.948664 106.734742 
L 244.055459 103.803791 
L 244.067437 103.803791 
L 244.105581 102.966376 
L 244.229829 102.966376 
L 244.327488 101.291547 
L 244.414827 101.291547 
L 244.414827 100.87284 
L 244.567303 100.87284 
L 244.656962 99.616718 
L 244.693094 99.616718 
L 244.79041 98.360595 
L 244.989897 98.360595 
L 245.097235 96.267059 
L 245.103237 96.267059 
L 245.186231 94.592229 
L 245.237715 94.592229 
L 245.237715 94.173522 
L 245.413956 94.173522 
L 245.509222 90.823863 
L 245.541607 90.823863 
L 245.543005 89.567741 
L 245.741749 89.567741 
L 245.847025 88.730327 
L 245.888435 88.730327 
L 245.978981 87.892912 
L 245.999864 87.892912 
L 245.999864 87.474205 
L 246.117084 87.474205 
L 246.193175 85.799375 
L 246.233768 85.799375 
L 246.275661 84.961961 
L 246.354564 84.961961 
L 246.44883 83.287131 
L 246.507646 83.287131 
L 246.578805 81.612302 
L 246.652144 81.612302 
L 246.743728 80.35618 
L 246.88323 80.35618 
L 246.962298 78.262643 
L 247.038517 78.262643 
L 247.07809 77.006521 
L 247.303632 77.006521 
L 247.380497 75.331692 
L 247.419164 75.331692 
L 247.504752 74.07557 
L 247.567183 74.07557 
L 247.657325 72.819448 
L 247.750352 72.819448 
L 247.838754 71.563326 
L 247.94794 71.563326 
L 248.04967 69.888497 
L 248.103117 69.888497 
L 248.170889 68.213667 
L 248.218213 68.213667 
L 248.326588 66.957545 
L 248.366362 66.957545 
L 248.44305 65.282716 
L 248.519149 65.282716 
L 248.519149 64.864009 
L 248.708812 64.864009 
L 248.735994 64.026594 
L 248.862522 64.026594 
L 248.901307 62.770472 
L 248.976008 62.770472 
L 249.053353 61.51435 
L 249.280766 61.51435 
L 249.343642 60.258228 
L 249.54878 60.258228 
L 249.634696 58.583399 
L 250.009779 58.583399 
L 250.009779 58.164691 
L 250.193548 58.164691 
L 250.193548 57.745984 
L 250.336834 57.745984 
L 250.406194 56.071155 
L 250.452097 56.071155 
L 250.486238 55.23374 
L 250.618797 55.23374 
L 250.618797 54.815033 
L 250.807619 54.815033 
L 250.828015 53.558911 
L 251.041637 53.558911 
L 251.117713 52.302789 
L 251.170909 52.302789 
L 251.230459 51.465374 
L 251.466386 51.465374 
L 251.466386 51.046667 
L 251.69094 51.046667 
L 251.69094 50.627959 
L 251.877451 50.627959 
L 251.877451 50.209252 
L 251.990138 50.209252 
L 252.016251 49.371837 
L 252.17896 49.371837 
L 252.17896 48.95313 
L 252.325128 48.95313 
L 252.325128 48.534423 
L 252.528939 48.534423 
L 252.544916 47.697008 
L 252.72292 47.697008 
L 252.72292 47.278301 
L 252.986982 47.278301 
L 253.080851 46.440886 
L 253.19005 46.440886 
L 253.19005 46.022179 
L 253.387681 46.022179 
L 253.387681 45.603471 
L 253.978104 45.603471 
L 253.978104 45.184764 
L 254.290601 45.184764 
L 254.290601 44.766057 
L 254.471718 44.766057 
L 254.56181 43.509935 
L 255.624363 43.509935 
L 255.672265 42.67252 
L 255.789711 42.67252 
L 255.789711 42.253813 
L 256.447224 42.253813 
L 256.447224 41.835105 
L 256.577765 41.835105 
L 256.577765 41.416398 
L 257.171375 41.416398 
L 257.259182 40.578983 
L 257.682022 40.578983 
L 257.682022 40.160276 
L 257.959429 40.160276 
L 257.959429 39.741569 
L 258.630523 39.741569 
L 258.630523 39.322861 
L 258.771103 39.322861 
L 258.771103 38.904154 
L 259.193943 38.904154 
L 259.193943 38.485447 
L 259.966599 38.485447 
L 259.991652 37.648032 
L 260.142443 37.648032 
L 260.142443 37.229325 
L 260.414492 37.229325 
L 260.414492 36.810617 
L 260.977293 36.810617 
L 261.001923 35.973203 
L 261.272192 35.973203 
L 261.362993 35.135788 
L 261.400133 35.135788 
L 261.400133 34.717081 
L 261.695032 34.717081 
L 261.695032 34.298373 
L 261.84198 34.298373 
L 261.84198 33.879666 
L 262.348634 33.879666 
L 262.348634 33.460959 
L 262.486659 33.460959 
L 262.578134 32.204837 
L 262.643533 32.204837 
L 262.643533 31.786129 
L 263.000974 31.786129 
L 263.000974 31.367422 
L 263.289087 31.367422 
L 263.289087 30.948715 
L 263.949475 30.948715 
L 263.985769 30.1113 
L 264.773823 30.1113 
L 264.773823 29.692593 
L 265.361355 29.692593 
L 265.361355 29.273885 
L 265.805527 29.273885 
L 265.805527 28.855178 
L 265.99435 28.855178 
L 265.99435 28.436471 
L 266.219404 28.436471 
L 266.219404 28.017763 
L 266.642244 28.017763 
L 266.642244 27.599056 
L 267.590745 27.599056 
L 267.590745 27.180349 
L 268.819064 27.180349 
L 268.819064 26.761641 
L 269.241905 26.761641 
L 269.324902 25.924227 
L 269.513724 25.924227 
L 269.513724 25.505519 
L 270.190405 25.505519 
L 270.200729 24.668105 
L 270.623569 24.668105 
L 270.623569 24.249397 
L 270.850053 24.249397 
L 270.850053 23.83069 
L 271.572069 23.83069 
L 271.572069 23.411983 
L 272.445912 23.411983 
L 272.445912 22.993275 
L 273.957833 22.993275 
L 273.957833 22.574568 
L 275.178382 22.574568 
L 275.178382 22.155861 
L 275.530386 22.155861 
L 275.530386 21.737153 
L 275.953226 21.737153 
L 275.965287 20.899739 
L 276.164024 20.899739 
L 276.244809 20.062324 
L 276.458922 20.062324 
L 276.458922 19.643617 
L 276.901727 19.643617 
L 276.901727 19.224909 
L 277.015122 19.224909 
L 277.015122 18.806202 
L 277.437962 18.806202 
L 277.477207 17.968787 
L 277.764864 17.968787 
L 277.764864 17.55008 
L 278.386463 17.55008 
L 278.386463 17.131373 
L 278.697757 17.131373 
L 278.697757 16.712665 
L 279.683398 16.712665 
L 279.683398 16.293958 
L 279.978297 16.293958 
L 279.978297 15.875251 
L 280.208356 15.875251 
L 280.208356 15.456543 
L 280.397179 15.456543 
L 280.397179 15.037836 
L 281.284239 15.037836 
L 281.284239 14.619129 
L 281.406134 14.619129 
L 281.406134 14.200421 
L 284.005795 14.200421 
L 284.005795 13.781714 
L 284.925509 13.781714 
L 284.925509 13.363007 
L 285.387459 13.363007 
L 285.387459 12.944299 
L 286.848741 12.944299 
L 286.848741 12.525592 
L 287.525169 12.525592 
L 287.525169 12.106885 
L 288.360662 12.106885 
L 288.360662 11.688177 
L 288.906833 11.688177 
L 288.906833 11.26947 
L 289.581211 11.26947 
L 289.581211 10.850763 
L 290.566853 10.850763 
L 290.566853 10.432055 
L 290.717116 10.432055 
L 290.717116 10.013348 
L 290.861751 10.013348 
L 290.861751 9.594641 
L 292.167693 9.594641 
L 292.201853 8.757226 
L 294.236491 8.757226 
L 294.236491 8.338519 
L 295.721227 8.338519 
L 295.808963 7.501104 
L 298.408624 7.501104 
L 298.408624 7.082397 
L 299.790288 7.082397 
L 299.790288 6.663689 
L 305.119946 6.663689 
L 305.119946 6.244982 
L 306.604682 6.244982 
L 306.604682 5.826275 
L 453.192 5.826275 
L 453.192 5.826275 
" clip-path="url(#p1ec5f47910)" style="fill: none; stroke: #00bfbf; stroke-width: 3; stroke-linecap: square"/>
   </g>
   <g id="line2d_42">
    <path clip-path="url(#p1ec5f47910)" style="fill: none; stroke: #00bfbf; stroke-width: 3; stroke-linecap: square"/>
   </g>
   <g id="line2d_43">
    <path d="M 34.16 288.453725 
L 168.785268 288.453725 
L 168.785268 288.035018 
L 172.765056 288.035018 
L 172.765056 287.616311 
L 173.156938 287.616311 
L 173.156938 287.197603 
L 173.793252 287.197603 
L 173.793252 286.778896 
L 175.963521 286.778896 
L 175.963521 286.360189 
L 176.654667 286.360189 
L 176.654667 285.941481 
L 176.816058 285.941481 
L 176.816058 285.522774 
L 179.597941 285.522774 
L 179.670222 284.685359 
L 179.943309 284.685359 
L 179.943309 284.266652 
L 180.335191 284.266652 
L 180.335191 283.847945 
L 180.971504 283.847945 
L 180.971504 283.429237 
L 183.832919 283.429237 
L 183.832919 283.01053 
L 183.99431 283.01053 
L 184.055926 282.173115 
L 184.521383 282.173115 
L 184.521383 281.754408 
L 185.068608 281.754408 
L 185.068608 281.335701 
L 186.776194 281.335701 
L 186.848475 280.498286 
L 187.765977 280.498286 
L 187.765977 280.079579 
L 188.011787 280.079579 
L 188.011787 279.660871 
L 189.814865 279.660871 
L 189.814865 279.242164 
L 191.234179 279.242164 
L 191.234179 278.823457 
L 191.699636 278.823457 
L 191.699636 278.404749 
L 192.24686 278.404749 
L 192.24686 277.986042 
L 192.865504 277.986042 
L 192.865504 277.567335 
L 194.944229 277.567335 
L 194.944229 277.148627 
L 195.160021 277.148627 
L 195.190039 276.311213 
L 196.993117 276.311213 
L 196.993117 275.892505 
L 197.17814 275.892505 
L 197.17814 275.473798 
L 199.096026 275.473798 
L 199.139809 274.636383 
L 199.531691 274.636383 
L 199.531691 274.217676 
L 200.043756 274.217676 
L 200.043756 273.798969 
L 200.168005 273.798969 
L 200.168005 273.380261 
L 201.157928 273.380261 
L 201.157928 272.961554 
L 201.54981 272.961554 
L 201.54981 272.542847 
L 202.186124 272.542847 
L 202.186124 272.124139 
L 203.02942 272.124139 
L 203.075815 271.286725 
L 203.190811 271.286725 
L 203.190811 270.868017 
L 203.467697 270.868017 
L 203.467697 270.44931 
L 204.10401 270.44931 
L 204.10401 270.030603 
L 205.047539 270.030603 
L 205.047539 269.611895 
L 205.20893 269.611895 
L 205.20893 269.193188 
L 205.972694 269.193188 
L 206.044975 268.355773 
L 206.965425 268.355773 
L 206.965425 267.937066 
L 207.126816 267.937066 
L 207.126816 267.518359 
L 207.2913 267.518359 
L 207.2913 267.099651 
L 207.990813 267.099651 
L 208.063094 266.262237 
L 209.457148 266.262237 
L 209.457148 265.843529 
L 209.900761 265.843529 
L 209.980981 264.1687 
L 210.038486 264.1687 
L 210.038486 263.749993 
L 210.341405 263.749993 
L 210.430679 262.912578 
L 210.614957 262.912578 
L 210.699751 261.656456 
L 210.896136 261.656456 
L 210.896136 261.237749 
L 211.174532 261.237749 
L 211.271088 260.400334 
L 211.443361 260.400334 
L 211.443361 259.981627 
L 211.66297 259.981627 
L 211.66297 259.562919 
L 212.075068 259.562919 
L 212.075068 259.144212 
L 212.299283 259.144212 
L 212.299283 258.725505 
L 212.448798 258.725505 
L 212.448798 258.306797 
L 212.914255 258.306797 
L 213.001807 257.050675 
L 213.116737 257.050675 
L 213.116737 256.631968 
L 213.269666 256.631968 
L 213.269666 256.213261 
L 213.46148 256.213261 
L 213.46148 255.794553 
L 214.018274 255.794553 
L 214.018274 255.375846 
L 214.14073 255.375846 
L 214.14073 254.957139 
L 214.25514 254.957139 
L 214.25514 254.538431 
L 214.366685 254.538431 
L 214.442974 252.863602 
L 214.594745 252.863602 
L 214.594745 252.444895 
L 214.832141 252.444895 
L 214.832141 252.026187 
L 214.986627 252.026187 
L 215.046469 251.188773 
L 215.160698 251.188773 
L 215.160698 250.770065 
L 215.322089 250.770065 
L 215.379366 249.932651 
L 215.62294 249.932651 
L 215.62294 249.513943 
L 216.158849 249.513943 
L 216.189618 248.676529 
L 216.328885 248.676529 
L 216.404659 247.839114 
L 216.705381 247.839114 
L 216.705381 247.420407 
L 217.907884 247.420407 
L 217.907884 247.001699 
L 218.069275 247.001699 
L 218.176254 245.32687 
L 218.207737 245.32687 
L 218.207737 244.908163 
L 218.322545 244.908163 
L 218.322545 244.489455 
L 218.484355 244.489455 
L 218.484355 244.070748 
L 218.645746 244.070748 
L 218.645746 243.652041 
L 219.240257 243.652041 
L 219.240257 243.233333 
L 220.125623 243.233333 
L 220.125623 242.814626 
L 220.685169 242.814626 
L 220.685169 242.395919 
L 220.851159 242.395919 
L 220.92344 241.558504 
L 221.077051 241.558504 
L 221.077051 241.139797 
L 221.258376 241.139797 
L 221.258376 240.721089 
L 221.42763 240.721089 
L 221.499911 239.883675 
L 221.713364 239.883675 
L 221.713364 239.464967 
L 222.279785 239.464967 
L 222.279785 239.04626 
L 222.561958 239.04626 
L 222.561958 238.627553 
L 222.702625 238.627553 
L 222.702625 238.208845 
L 223.027415 238.208845 
L 223.027415 237.790138 
L 223.176262 237.790138 
L 223.176262 237.371431 
L 223.574639 237.371431 
L 223.574639 236.952723 
L 224.574779 236.952723 
L 224.574779 236.534016 
L 224.73617 236.534016 
L 224.73617 236.115309 
L 225.309144 236.115309 
L 225.309144 235.696601 
L 225.774601 235.696601 
L 225.885615 234.859187 
L 226.259574 234.859187 
L 226.351072 233.184357 
L 226.517818 233.184357 
L 226.530736 232.346943 
L 226.651455 232.346943 
L 226.682414 231.509528 
L 226.898297 231.509528 
L 226.974349 230.672113 
L 227.01453 230.672113 
L 227.074296 229.834699 
L 227.287769 229.834699 
L 227.287769 229.415991 
L 227.414993 229.415991 
L 227.518054 228.578577 
L 227.590335 228.578577 
L 227.693875 227.741162 
L 227.710609 227.741162 
L 227.773339 226.903747 
L 228.24812 226.903747 
L 228.320896 226.066333 
L 228.899216 226.066333 
L 228.899216 225.647625 
L 229.019195 225.647625 
L 229.019195 225.228918 
L 229.148656 225.228918 
L 229.148656 224.810211 
L 229.265004 224.810211 
L 229.265004 224.391503 
L 229.595666 224.391503 
L 229.595666 223.972796 
L 229.841475 223.972796 
L 229.841475 223.554089 
L 230.034146 223.554089 
L 230.075394 222.297967 
L 230.149184 222.297967 
L 230.190325 221.460552 
L 230.310575 221.460552 
L 230.343254 220.623137 
L 230.572024 220.623137 
L 230.572024 220.20443 
L 230.733415 220.20443 
L 230.733415 219.785723 
L 231.068082 219.785723 
L 231.068082 219.367015 
L 231.2852 219.367015 
L 231.383323 217.692186 
L 231.516562 217.692186 
L 231.516562 217.273479 
L 231.644554 217.273479 
L 231.644554 216.854771 
L 231.826936 216.854771 
L 231.915488 215.598649 
L 231.976039 215.598649 
L 231.976039 215.179942 
L 232.160058 215.179942 
L 232.26758 214.342527 
L 232.295493 214.342527 
L 232.295493 213.92382 
L 232.432389 213.92382 
L 232.441496 213.086405 
L 232.546462 213.086405 
L 232.643852 211.411576 
L 232.876002 211.411576 
L 232.916183 210.155454 
L 232.988721 210.155454 
L 233.092458 208.899332 
L 233.100707 208.899332 
L 233.164739 208.061917 
L 233.316646 208.061917 
L 233.402661 205.968381 
L 233.515298 205.968381 
L 233.595528 204.293551 
L 233.674992 204.293551 
L 233.783691 203.037429 
L 233.809121 203.037429 
L 233.877442 202.200015 
L 234.001243 202.200015 
L 234.013934 201.3626 
L 234.118721 201.3626 
L 234.209584 200.106478 
L 234.265608 200.106478 
L 234.279027 199.269063 
L 234.405816 199.269063 
L 234.488466 198.012941 
L 234.531609 198.012941 
L 234.610787 196.338112 
L 234.681477 196.338112 
L 234.777978 193.825868 
L 234.855734 193.825868 
L 234.930467 190.894916 
L 235.04213 190.894916 
L 235.149865 188.80138 
L 235.195841 188.80138 
L 235.195841 188.382672 
L 235.311765 188.382672 
L 235.325475 187.545258 
L 235.428747 187.545258 
L 235.508211 186.707843 
L 235.604357 186.707843 
L 235.704716 184.195599 
L 235.819647 184.195599 
L 235.819647 183.776892 
L 235.931899 183.776892 
L 235.982992 180.84594 
L 236.091978 180.84594 
L 236.181314 179.171111 
L 236.216814 179.171111 
L 236.27975 177.914989 
L 236.369149 177.914989 
L 236.40899 177.077574 
L 236.610167 177.077574 
L 236.610167 176.658867 
L 236.795031 176.658867 
L 236.883528 174.146623 
L 236.958049 174.146623 
L 237.059137 172.471794 
L 237.137845 172.471794 
L 237.241717 170.796964 
L 237.278277 170.796964 
L 237.278277 170.378257 
L 237.418215 170.378257 
L 237.466515 169.540842 
L 237.550444 169.540842 
L 237.64809 167.866013 
L 237.675304 167.866013 
L 237.771912 166.191184 
L 237.795953 166.191184 
L 237.903545 164.097647 
L 237.908565 164.097647 
L 238.019048 159.491866 
L 238.064936 159.491866 
L 238.135812 156.560915 
L 238.239567 156.560915 
L 238.326744 154.048671 
L 238.43874 154.048671 
L 238.549642 151.955134 
L 238.563125 151.955134 
L 238.649336 149.861598 
L 238.680211 149.861598 
L 238.765243 149.024183 
L 238.794973 149.024183 
L 238.90263 146.511939 
L 238.914699 146.511939 
L 238.985965 144.83711 
L 239.031795 144.83711 
L 239.063599 143.580988 
L 239.163502 143.580988 
L 239.26464 138.5565 
L 239.304126 138.5565 
L 239.365474 137.719085 
L 239.416084 137.719085 
L 239.513337 134.788134 
L 239.617322 134.788134 
L 239.669269 132.694597 
L 239.735756 132.694597 
L 239.814942 131.438475 
L 239.863482 131.438475 
L 239.928383 130.60106 
L 239.990598 130.60106 
L 240.007847 129.763646 
L 240.197064 129.763646 
L 240.307095 125.99528 
L 240.314603 125.99528 
L 240.413873 123.901743 
L 240.451106 123.901743 
L 240.526478 121.808206 
L 240.563038 121.808206 
L 240.642038 120.133377 
L 240.696053 120.133377 
L 240.805419 117.621133 
L 240.8456 117.621133 
L 240.944891 115.108889 
L 240.98589 115.108889 
L 241.026621 113.43406 
L 241.106085 113.43406 
L 241.192749 111.75923 
L 241.246063 111.75923 
L 241.340612 107.990864 
L 241.369915 107.990864 
L 241.473384 105.47862 
L 241.49932 105.47862 
L 241.608471 101.291547 
L 241.63785 101.291547 
L 241.689116 99.19801 
L 241.788801 99.19801 
L 241.887559 96.267059 
L 241.912877 96.267059 
L 241.945919 95.010937 
L 242.041383 95.010937 
L 242.079734 92.9174 
L 242.174842 92.9174 
L 242.271547 90.405156 
L 242.309902 90.405156 
L 242.310975 89.567741 
L 242.424832 89.567741 
L 242.533054 85.799375 
L 242.570616 85.799375 
L 242.63535 82.868424 
L 242.685541 82.868424 
L 242.781779 81.193595 
L 242.797718 81.193595 
L 242.903085 79.518765 
L 242.979726 79.518765 
L 243.087299 78.262643 
L 243.172194 78.262643 
L 243.244321 77.425229 
L 243.30843 77.425229 
L 243.40814 75.750399 
L 243.434117 75.750399 
L 243.538489 74.494277 
L 243.561012 74.494277 
L 243.653527 71.982033 
L 243.676 71.982033 
L 243.768938 70.307204 
L 243.799173 70.307204 
L 243.906465 68.213667 
L 243.95987 68.213667 
L 244.021395 66.120131 
L 244.122239 66.120131 
L 244.201487 64.864009 
L 244.253971 64.864009 
L 244.314414 63.189179 
L 244.391282 63.189179 
L 244.461897 62.351765 
L 244.50616 62.351765 
L 244.609785 60.258228 
L 244.626269 60.258228 
L 244.700456 58.164691 
L 244.820329 58.164691 
L 244.914573 54.815033 
L 244.965678 54.815033 
L 245.04908 53.140203 
L 245.159798 53.140203 
L 245.219187 51.046667 
L 245.28349 51.046667 
L 245.38571 47.278301 
L 245.463325 47.278301 
L 245.509589 45.184764 
L 245.63698 45.184764 
L 245.70052 43.928642 
L 245.770261 43.928642 
L 245.86724 42.253813 
L 245.993874 42.253813 
L 246.059415 41.416398 
L 246.167906 41.416398 
L 246.240656 40.160276 
L 246.306934 40.160276 
L 246.360021 38.485447 
L 246.424472 38.485447 
L 246.527003 37.229325 
L 246.551881 37.229325 
L 246.588441 36.39191 
L 246.735219 36.39191 
L 246.824406 34.717081 
L 246.90534 34.717081 
L 246.90534 34.298373 
L 247.016581 34.298373 
L 247.093361 33.460959 
L 247.233543 33.460959 
L 247.329212 32.623544 
L 247.402623 32.623544 
L 247.402623 32.204837 
L 247.574694 32.204837 
L 247.598299 30.948715 
L 247.912962 30.948715 
L 247.944102 30.1113 
L 248.105137 30.1113 
L 248.164657 29.273885 
L 248.241652 29.273885 
L 248.35147 27.599056 
L 248.491179 27.599056 
L 248.536211 26.761641 
L 248.63706 26.761641 
L 248.64599 25.924227 
L 248.838362 25.924227 
L 248.855289 25.086812 
L 249.014855 25.086812 
L 249.01668 24.249397 
L 249.203419 24.249397 
L 249.260665 22.993275 
L 249.319695 22.993275 
L 249.319695 22.574568 
L 249.624767 22.574568 
L 249.684752 21.737153 
L 249.795528 21.737153 
L 249.795528 21.318446 
L 250.276861 21.318446 
L 250.317725 20.481031 
L 250.884084 20.481031 
L 250.884084 20.062324 
L 251.063743 20.062324 
L 251.063743 19.643617 
L 251.365417 19.643617 
L 251.365417 19.224909 
L 251.798563 19.224909 
L 251.870844 18.387495 
L 252.737174 18.387495 
L 252.737174 17.968787 
L 253.20263 17.968787 
L 253.20263 17.55008 
L 253.35007 17.55008 
L 253.35007 17.131373 
L 253.749855 17.131373 
L 253.749855 16.712665 
L 254.114382 16.712665 
L 254.114382 16.293958 
L 256.256548 16.293958 
L 256.256548 15.875251 
L 256.447224 15.875251 
L 256.447224 15.456543 
L 256.693034 15.456543 
L 256.722005 14.619129 
L 257.26923 14.619129 
L 257.329858 13.781714 
L 257.72174 13.781714 
L 257.72174 13.363007 
L 258.358053 13.363007 
L 258.358053 12.944299 
L 258.496112 12.944299 
L 258.496112 12.525592 
L 259.966599 12.525592 
L 259.966599 12.106885 
L 260.212409 12.106885 
L 260.212409 11.688177 
L 261.219468 11.688177 
L 261.219468 11.26947 
L 261.380859 11.26947 
L 261.380859 10.850763 
L 261.546751 10.850763 
L 261.546751 10.432055 
L 262.015487 10.432055 
L 262.015487 10.013348 
L 264.162743 10.013348 
L 264.235024 9.175933 
L 265.066126 9.175933 
L 265.066126 8.757226 
L 268.620728 8.757226 
L 268.620728 8.338519 
L 269.086185 8.338519 
L 269.086185 7.919811 
L 269.633409 7.919811 
L 269.633409 7.501104 
L 272.330779 7.501104 
L 272.330779 7.082397 
L 272.576588 7.082397 
L 272.576588 6.663689 
L 274.379666 6.663689 
L 274.379666 6.244982 
L 277.430305 6.244982 
L 277.430305 5.826275 
L 453.192 5.826275 
L 453.192 5.826275 
" clip-path="url(#p1ec5f47910)" style="fill: none; stroke: #bf00bf; stroke-width: 3; stroke-linecap: square"/>
   </g>
   <g id="line2d_44">
    <path clip-path="url(#p1ec5f47910)" style="fill: none; stroke: #bf00bf; stroke-width: 3; stroke-linecap: square"/>
   </g>
   <g id="line2d_45">
    <path d="M 34.16 288.453725 
L 147.719324 288.453725 
L 147.719324 287.616311 
L 151.239336 287.616311 
L 151.239336 287.197603 
L 152.615417 287.197603 
L 152.615417 286.778896 
L 152.839567 286.778896 
L 152.839567 286.360189 
L 154.897576 286.360189 
L 154.897576 285.522774 
L 156.925139 285.522774 
L 156.925139 285.104067 
L 157.250171 285.104067 
L 157.250171 284.685359 
L 157.62854 284.685359 
L 157.62854 284.266652 
L 158.417589 284.266652 
L 158.417589 283.847945 
L 159.199462 283.847945 
L 159.252477 283.01053 
L 159.79367 283.01053 
L 159.874163 282.173115 
L 160.01782 282.173115 
L 160.01782 281.754408 
L 160.646072 281.754408 
L 160.646072 281.335701 
L 163.411922 281.335701 
L 163.411922 280.916993 
L 164.103392 280.916993 
L 164.103392 280.498286 
L 164.428424 280.498286 
L 164.428424 280.079579 
L 164.806792 280.079579 
L 164.806792 279.660871 
L 165.206345 279.660871 
L 165.206345 279.242164 
L 166.377715 279.242164 
L 166.43073 278.404749 
L 166.892026 278.404749 
L 166.892026 277.986042 
L 167.052415 277.986042 
L 167.052415 277.567335 
L 167.824325 277.567335 
L 167.824325 277.148627 
L 170.590174 277.148627 
L 170.590174 276.72992 
L 172.384597 276.72992 
L 172.384597 276.311213 
L 174.070279 276.311213 
L 174.094077 275.055091 
L 176.112196 275.055091 
L 176.112196 274.217676 
L 177.614089 274.217676 
L 177.614089 273.798969 
L 178.030082 273.798969 
L 178.030082 272.961554 
L 178.99017 272.961554 
L 178.99017 272.542847 
L 179.21432 272.542847 
L 179.21432 272.124139 
L 179.632208 272.124139 
L 179.632208 271.705432 
L 181.008289 271.705432 
L 181.008289 271.286725 
L 181.232439 271.286725 
L 181.232439 270.868017 
L 181.550094 270.868017 
L 181.550094 270.44931 
L 182.926176 270.44931 
L 182.926176 270.030603 
L 183.150326 270.030603 
L 183.150326 269.611895 
L 183.299892 269.611895 
L 183.299892 269.193188 
L 183.624924 269.193188 
L 183.624924 268.774481 
L 184.003293 268.774481 
L 184.003293 268.355773 
L 185.318011 268.355773 
L 185.318011 267.937066 
L 185.574215 267.937066 
L 185.643043 266.680944 
L 186.021412 266.680944 
L 186.021412 266.262237 
L 186.225355 266.262237 
L 186.248916 265.006115 
L 187.020825 265.006115 
L 187.020825 264.587407 
L 187.235897 264.587407 
L 187.235897 264.1687 
L 187.560929 264.1687 
L 187.645349 262.912578 
L 187.939298 262.912578 
L 187.939298 262.493871 
L 188.267034 262.493871 
L 188.267034 262.075163 
L 188.972541 262.075163 
L 189.038944 260.819041 
L 189.51022 260.819041 
L 189.563236 259.144212 
L 189.745368 259.144212 
L 189.786675 258.306797 
L 190.184921 258.306797 
L 190.184921 257.88809 
L 190.956831 257.88809 
L 190.956831 257.469383 
L 191.121449 257.469383 
L 191.121449 257.050675 
L 191.345599 257.050675 
L 191.345599 256.631968 
L 191.581098 256.631968 
L 191.581098 256.213261 
L 191.804794 256.213261 
L 191.804794 255.794553 
L 192.492554 255.794553 
L 192.492554 255.375846 
L 193.069025 255.375846 
L 193.069025 254.957139 
L 193.266779 254.957139 
L 193.266779 254.538431 
L 193.599217 254.538431 
L 193.599217 254.119724 
L 193.72268 254.119724 
L 193.72268 253.701017 
L 193.868635 253.701017 
L 193.868635 253.282309 
L 194.092785 253.282309 
L 194.092785 252.863602 
L 194.445106 252.863602 
L 194.445106 252.444895 
L 194.669256 252.444895 
L 194.669256 252.026187 
L 195.284898 252.026187 
L 195.284898 251.60748 
L 195.431171 251.60748 
L 195.517103 250.770065 
L 195.639436 250.770065 
L 195.639436 249.932651 
L 195.756203 249.932651 
L 195.756203 249.513943 
L 196.134571 249.513943 
L 196.134571 249.095236 
L 197.202784 249.095236 
L 197.202784 248.676529 
L 197.705494 248.676529 
L 197.758509 247.839114 
L 198.178357 247.839114 
L 198.178357 247.420407 
L 198.380194 247.420407 
L 198.380194 247.001699 
L 198.503389 247.001699 
L 198.503389 246.582992 
L 198.754828 246.582992 
L 198.754828 246.164285 
L 198.881757 246.164285 
L 198.881757 245.745577 
L 199.07986 245.745577 
L 199.159449 244.489455 
L 199.458229 244.489455 
L 199.458229 244.070748 
L 200.45268 244.070748 
L 200.53553 242.814626 
L 200.75968 242.814626 
L 200.75968 242.395919 
L 201.029151 242.395919 
L 201.12738 241.139797 
L 201.213841 241.139797 
L 201.213841 240.302382 
L 201.636681 240.302382 
L 201.703851 239.04626 
L 201.89929 239.04626 
L 201.917953 238.208845 
L 202.475761 238.208845 
L 202.475761 237.790138 
L 203.712376 237.790138 
L 203.712376 237.371431 
L 204.665139 237.371431 
L 204.733853 236.534016 
L 204.845252 236.534016 
L 204.845252 236.115309 
L 205.156693 236.115309 
L 205.241611 234.859187 
L 205.398058 234.859187 
L 205.398058 234.440479 
L 205.548653 234.440479 
L 205.548653 234.021772 
L 206.109934 234.021772 
L 206.109934 233.603065 
L 206.334084 233.603065 
L 206.334084 233.184357 
L 206.459562 233.184357 
L 206.532775 232.346943 
L 206.756924 232.346943 
L 206.756924 231.928235 
L 207.036034 231.928235 
L 207.119575 231.090821 
L 207.17259 231.090821 
L 207.17259 230.672113 
L 207.794275 230.672113 
L 207.794275 230.253406 
L 208.145244 230.253406 
L 208.145244 229.834699 
L 208.566185 229.834699 
L 208.566185 229.415991 
L 208.721715 229.415991 
L 208.721715 228.997284 
L 208.968202 228.997284 
L 208.968202 228.159869 
L 210.419656 228.159869 
L 210.419656 227.741162 
L 210.744688 227.741162 
L 210.842496 226.903747 
L 211.123057 226.903747 
L 211.167528 226.066333 
L 211.332035 226.066333 
L 211.332035 225.647625 
L 211.545897 225.647625 
L 211.545897 225.228918 
L 212.488214 225.228918 
L 212.488214 224.810211 
L 212.693979 224.810211 
L 212.746994 223.972796 
L 213.116819 223.972796 
L 213.169834 222.716674 
L 213.36868 222.716674 
L 213.36868 222.297967 
L 213.79152 222.297967 
L 213.864295 221.460552 
L 214.088445 221.460552 
L 214.140589 220.623137 
L 214.56343 220.623137 
L 214.56343 220.20443 
L 214.812139 220.20443 
L 214.812139 219.785723 
L 216.400571 219.785723 
L 216.400571 218.948308 
L 216.906439 218.948308 
L 216.906439 218.529601 
L 217.329279 218.529601 
L 217.329279 218.110893 
L 218.174017 218.110893 
L 218.174017 217.692186 
L 218.499049 217.692186 
L 218.499049 217.273479 
L 218.700862 217.273479 
L 218.768478 216.436064 
L 218.877418 216.436064 
L 218.877418 216.017357 
L 219.123702 216.017357 
L 219.123702 215.598649 
L 219.267805 215.598649 
L 219.267805 215.179942 
L 219.919946 215.179942 
L 219.920583 213.92382 
L 220.386543 213.92382 
L 220.44834 212.667698 
L 220.501355 212.667698 
L 220.501355 212.248991 
L 220.809383 212.248991 
L 220.809383 211.830283 
L 221.123041 211.830283 
L 221.123041 211.411576 
L 221.296665 211.411576 
L 221.372778 210.574161 
L 221.520815 210.574161 
L 221.520815 210.155454 
L 221.876719 210.155454 
L 221.89495 209.318039 
L 222.585101 209.318039 
L 222.684532 208.480625 
L 222.708142 208.480625 
L 222.708142 208.061917 
L 223.084428 208.061917 
L 223.084428 207.64321 
L 223.225428 207.64321 
L 223.248844 206.805795 
L 223.439958 206.805795 
L 223.505879 205.968381 
L 224.040096 205.968381 
L 224.040096 205.549673 
L 224.218709 205.549673 
L 224.218709 205.130966 
L 224.6608 205.130966 
L 224.6608 204.712259 
L 224.816039 204.712259 
L 224.816039 204.293551 
L 225.040189 204.293551 
L 225.040189 203.874844 
L 225.189401 203.874844 
L 225.189401 203.456137 
L 225.606386 203.456137 
L 225.693342 202.618722 
L 225.931419 202.618722 
L 225.931419 202.200015 
L 226.06738 202.200015 
L 226.06738 201.781307 
L 226.179441 201.781307 
L 226.179441 201.3626 
L 226.309787 201.3626 
L 226.309787 200.943893 
L 226.455223 200.943893 
L 226.524765 199.687771 
L 226.936441 199.687771 
L 227.04205 198.850356 
L 227.065467 198.850356 
L 227.065467 198.431649 
L 227.322502 198.431649 
L 227.322502 198.012941 
L 227.728594 198.012941 
L 227.728594 197.594234 
L 227.856718 197.594234 
L 227.933725 196.338112 
L 228.140904 196.338112 
L 228.140904 195.919405 
L 228.55541 195.919405 
L 228.55541 195.500697 
L 228.879953 195.500697 
L 228.879953 195.08199 
L 229.125761 195.08199 
L 229.125761 194.663282 
L 229.32732 194.663282 
L 229.379281 193.825868 
L 229.450793 193.825868 
L 229.450793 193.40716 
L 229.829162 193.40716 
L 229.884002 192.569746 
L 229.996064 192.569746 
L 229.996064 192.151038 
L 230.513561 192.151038 
L 230.513561 191.732331 
L 230.753063 191.732331 
L 230.753063 191.313624 
L 231.400084 191.313624 
L 231.484253 190.057502 
L 231.545217 190.057502 
L 231.545217 189.638794 
L 231.988194 189.638794 
L 232.093169 188.382672 
L 232.100109 188.382672 
L 232.100109 187.963965 
L 232.284125 187.963965 
L 232.315433 186.707843 
L 232.599436 186.707843 
L 232.599436 186.289136 
L 232.796008 186.289136 
L 232.846694 185.033014 
L 233.336903 185.033014 
L 233.396304 183.776892 
L 233.617355 183.776892 
L 233.617355 183.358184 
L 233.733717 183.358184 
L 233.733717 182.939477 
L 233.887592 182.939477 
L 233.887592 182.52077 
L 234.151571 182.52077 
L 234.236441 181.683355 
L 234.704409 181.683355 
L 234.803432 180.008526 
L 234.892352 180.008526 
L 234.977538 179.171111 
L 235.152574 179.171111 
L 235.242411 177.496282 
L 235.302759 177.496282 
L 235.302759 177.077574 
L 235.506224 177.077574 
L 235.612544 175.821452 
L 235.804138 175.821452 
L 235.907718 174.146623 
L 236.016163 174.146623 
L 236.099656 172.890501 
L 236.178855 172.890501 
L 236.270793 172.053086 
L 236.290916 172.053086 
L 236.340263 171.215672 
L 236.407045 171.215672 
L 236.489351 169.540842 
L 236.557058 169.540842 
L 236.598331 168.28472 
L 236.83751 168.28472 
L 236.943754 166.609891 
L 236.988678 166.609891 
L 237.047916 165.772476 
L 237.180219 165.772476 
L 237.233569 164.935062 
L 237.344682 164.935062 
L 237.407732 162.841525 
L 237.474544 162.841525 
L 237.584391 161.585403 
L 237.646392 161.585403 
L 237.736926 159.910574 
L 237.766842 159.910574 
L 237.852027 158.654452 
L 237.911673 158.654452 
L 237.946652 157.817037 
L 238.027063 157.817037 
L 238.122959 155.7235 
L 238.152495 155.7235 
L 238.236253 154.467378 
L 238.31444 154.467378 
L 238.380713 153.211256 
L 238.445235 153.211256 
L 238.534621 151.955134 
L 238.585445 151.955134 
L 238.69339 150.280305 
L 238.701379 150.280305 
L 238.743096 148.605476 
L 238.891973 148.605476 
L 238.974146 146.511939 
L 239.015958 146.511939 
L 239.09365 143.999695 
L 239.15743 143.999695 
L 239.260436 141.906158 
L 239.283798 141.906158 
L 239.3913 140.650036 
L 239.39901 140.650036 
L 239.508058 138.5565 
L 239.511072 138.5565 
L 239.597592 136.044256 
L 239.666316 136.044256 
L 239.75699 133.950719 
L 239.7806 133.950719 
L 239.847382 130.60106 
L 239.895674 130.60106 
L 239.895674 130.182353 
L 240.040861 130.182353 
L 240.075049 128.507524 
L 240.160547 128.507524 
L 240.268071 126.413987 
L 240.297885 126.413987 
L 240.405405 122.226914 
L 240.421532 122.226914 
L 240.525581 118.877255 
L 240.54889 118.877255 
L 240.645119 116.783718 
L 240.775182 116.783718 
L 240.884092 114.690182 
L 240.901376 114.690182 
L 240.969717 113.015352 
L 241.017792 113.015352 
L 241.112553 110.503108 
L 241.137443 110.503108 
L 241.24755 105.47862 
L 241.276514 105.47862 
L 241.368615 103.385084 
L 241.422586 103.385084 
L 241.519581 100.87284 
L 241.535342 100.87284 
L 241.628357 98.779303 
L 241.647404 98.779303 
L 241.734349 96.267059 
L 241.760968 96.267059 
L 241.854297 93.754815 
L 241.89217 93.754815 
L 242.000213 91.242571 
L 242.023522 91.242571 
L 242.109791 89.149034 
L 242.175604 89.149034 
L 242.25969 85.799375 
L 242.337796 85.799375 
L 242.41604 82.868424 
L 242.465326 82.868424 
L 242.567381 79.937473 
L 242.620781 79.937473 
L 242.7302 77.843936 
L 242.772695 77.843936 
L 242.854946 75.750399 
L 242.915822 75.750399 
L 243.008543 73.656863 
L 243.139837 73.656863 
L 243.235138 71.563326 
L 243.251898 71.563326 
L 243.348922 68.213667 
L 243.363567 68.213667 
L 243.460236 66.120131 
L 243.485389 66.120131 
L 243.587445 64.445301 
L 243.605839 64.445301 
L 243.701652 61.933057 
L 243.743328 61.933057 
L 243.817279 58.583399 
L 243.85539 58.583399 
L 243.955898 55.652447 
L 243.995465 55.652447 
L 244.095474 52.302789 
L 244.16359 52.302789 
L 244.262148 50.209252 
L 244.308705 50.209252 
L 244.381443 49.371837 
L 244.42395 49.371837 
L 244.52596 47.278301 
L 244.612389 47.278301 
L 244.673112 45.184764 
L 244.732265 45.184764 
L 244.842921 41.835105 
L 244.867834 41.835105 
L 244.878748 40.997691 
L 245.035828 40.997691 
L 245.143621 38.066739 
L 245.147889 38.066739 
L 245.210874 36.39191 
L 245.282886 36.39191 
L 245.334196 35.554495 
L 245.404543 35.554495 
L 245.476315 32.204837 
L 245.54776 32.204837 
L 245.649648 30.948715 
L 245.733319 30.948715 
L 245.811572 29.273885 
L 245.849253 29.273885 
L 245.955898 27.599056 
L 246.000866 27.599056 
L 246.019335 26.761641 
L 246.120297 26.761641 
L 246.214183 25.086812 
L 246.302936 25.086812 
L 246.405005 22.993275 
L 246.665126 22.993275 
L 246.75909 21.318446 
L 246.788054 21.318446 
L 246.875024 19.643617 
L 246.951095 19.643617 
L 247.059935 17.968787 
L 247.077733 17.968787 
L 247.083244 17.131373 
L 247.24151 17.131373 
L 247.331074 16.293958 
L 247.383982 16.293958 
L 247.383982 15.875251 
L 247.548073 15.875251 
L 247.548073 15.456543 
L 247.739266 15.456543 
L 247.739266 15.037836 
L 247.852089 15.037836 
L 247.952211 13.363007 
L 247.976724 13.363007 
L 247.976866 12.525592 
L 248.176794 12.525592 
L 248.265456 11.26947 
L 248.483043 11.26947 
L 248.53142 10.432055 
L 248.669594 10.432055 
L 248.669594 10.013348 
L 249.078548 10.013348 
L 249.078548 9.594641 
L 249.202564 9.594641 
L 249.202564 9.175933 
L 249.364517 9.175933 
L 249.364517 8.757226 
L 249.482686 8.757226 
L 249.508814 7.919811 
L 249.768655 7.919811 
L 249.771147 7.082397 
L 250.390287 7.082397 
L 250.390287 6.663689 
L 250.794426 6.663689 
L 250.794426 6.244982 
L 251.456828 6.244982 
L 251.456828 5.826275 
L 453.192 5.826275 
L 453.192 5.826275 
" clip-path="url(#p1ec5f47910)" style="fill: none; stroke: #ff0000; stroke-width: 3; stroke-linecap: square"/>
   </g>
   <g id="line2d_46">
    <path clip-path="url(#p1ec5f47910)" style="fill: none; stroke: #ff0000; stroke-width: 3; stroke-linecap: square"/>
   </g>
   <g id="line2d_47">
    <path d="M 243.676 291.28 
L 243.676 3 
" clip-path="url(#p1ec5f47910)" style="fill: none; stroke: #000000; stroke-width: 1.5; stroke-linecap: square"/>
   </g>
   <g id="line2d_48">
    <path d="M 34.16 147.14 
L 453.192 147.14 
" clip-path="url(#p1ec5f47910)" style="fill: none; stroke-dasharray: 2,3.3; stroke-dashoffset: 0; stroke: #000000; stroke-width: 2"/>
   </g>
   <g id="patch_3">
    <path d="M 34.16 291.28 
L 34.16 3 
" style="fill: none; stroke: #000000; stroke-width: 0.8; stroke-linejoin: miter; stroke-linecap: square"/>
   </g>
   <g id="patch_4">
    <path d="M 453.192 291.28 
L 453.192 3 
" style="fill: none; stroke: #000000; stroke-width: 0.8; stroke-linejoin: miter; stroke-linecap: square"/>
   </g>
   <g id="patch_5">
    <path d="M 34.16 291.28 
L 453.192 291.28 
" style="fill: none; stroke: #000000; stroke-width: 0.8; stroke-linejoin: miter; stroke-linecap: square"/>
   </g>
   <g id="patch_6">
    <path d="M 34.16 3 
L 453.192 3 
" style="fill: none; stroke: #000000; stroke-width: 0.8; stroke-linejoin: miter; stroke-linecap: square"/>
   </g>
   <g id="text_6">
    <!-- f1-f5,20-D -->
    <g transform="translate(343.64261 285.5144)scale(0.2 -0.2)">
     <defs>
      <path id="DejaVuSans-35" d="M 691 4666 
L 3169 4666 
L 3169 4134 
L 1269 4134 
L 1269 2991 
Q 1406 3038 1543 3061 
Q 1681 3084 1819 3084 
Q 2600 3084 3056 2656 
Q 3513 2228 3513 1497 
Q 3513 744 3044 326 
Q 2575 -91 1722 -91 
Q 1428 -91 1123 -41 
Q 819 9 494 109 
L 494 744 
Q 775 591 1075 516 
Q 1375 441 1709 441 
Q 2250 441 2565 725 
Q 2881 1009 2881 1497 
Q 2881 1984 2565 2268 
Q 2250 2553 1709 2553 
Q 1456 2553 1204 2497 
Q 953 2441 691 2322 
L 691 4666 
z
" transform="scale(0.015625)"/>
      <path id="DejaVuSans-2c" d="M 750 794 
L 1409 794 
L 1409 256 
L 897 -744 
L 494 -744 
L 750 256 
L 750 794 
z
" transform="scale(0.015625)"/>
      <path id="DejaVuSans-32" d="M 1228 531 
L 3431 531 
L 3431 0 
L 469 0 
L 469 531 
Q 828 903 1448 1529 
Q 2069 2156 2228 2338 
Q 2531 2678 2651 2914 
Q 2772 3150 2772 3378 
Q 2772 3750 2511 3984 
Q 2250 4219 1831 4219 
Q 1534 4219 1204 4116 
Q 875 4013 500 3803 
L 500 4441 
Q 881 4594 1212 4672 
Q 1544 4750 1819 4750 
Q 2544 4750 2975 4387 
Q 3406 4025 3406 3419 
Q 3406 3131 3298 2873 
Q 3191 2616 2906 2266 
Q 2828 2175 2409 1742 
Q 1991 1309 1228 531 
z
" transform="scale(0.015625)"/>
      <path id="DejaVuSans-44" d="M 1259 4147 
L 1259 519 
L 2022 519 
Q 2988 519 3436 956 
Q 3884 1394 3884 2338 
Q 3884 3275 3436 3711 
Q 2988 4147 2022 4147 
L 1259 4147 
z
M 628 4666 
L 1925 4666 
Q 3281 4666 3915 4102 
Q 4550 3538 4550 2338 
Q 4550 1131 3912 565 
Q 3275 0 1925 0 
L 628 0 
L 628 4666 
z
" transform="scale(0.015625)"/>
     </defs>
     <use xlink:href="#DejaVuSans-66"/>
     <use xlink:href="#DejaVuSans-31" x="35.205078"/>
     <use xlink:href="#DejaVuSans-2d" x="98.828125"/>
     <use xlink:href="#DejaVuSans-66" x="134.912109"/>
     <use xlink:href="#DejaVuSans-35" x="170.117188"/>
     <use xlink:href="#DejaVuSans-2c" x="233.740234"/>
     <use xlink:href="#DejaVuSans-32" x="265.527344"/>
     <use xlink:href="#DejaVuSans-30" x="329.150391"/>
     <use xlink:href="#DejaVuSans-2d" x="392.773438"/>
     <use xlink:href="#DejaVuSans-44" x="428.857422"/>
    </g>
   </g>
   <g id="text_7">
    <!-- v2.6.3.10 -->
    <g style="fill: #808080" transform="translate(220.043187 286.317512)scale(0.1 -0.1)">
     <defs>
      <path id="DejaVuSans-2e" d="M 684 794 
L 1344 794 
L 1344 0 
L 684 0 
L 684 794 
z
" transform="scale(0.015625)"/>
      <path id="DejaVuSans-36" d="M 2113 2584 
Q 1688 2584 1439 2293 
Q 1191 2003 1191 1497 
Q 1191 994 1439 701 
Q 1688 409 2113 409 
Q 2538 409 2786 701 
Q 3034 994 3034 1497 
Q 3034 2003 2786 2293 
Q 2538 2584 2113 2584 
z
M 3366 4563 
L 3366 3988 
Q 3128 4100 2886 4159 
Q 2644 4219 2406 4219 
Q 1781 4219 1451 3797 
Q 1122 3375 1075 2522 
Q 1259 2794 1537 2939 
Q 1816 3084 2150 3084 
Q 2853 3084 3261 2657 
Q 3669 2231 3669 1497 
Q 3669 778 3244 343 
Q 2819 -91 2113 -91 
Q 1303 -91 875 529 
Q 447 1150 447 2328 
Q 447 3434 972 4092 
Q 1497 4750 2381 4750 
Q 2619 4750 2861 4703 
Q 3103 4656 3366 4563 
z
" transform="scale(0.015625)"/>
      <path id="DejaVuSans-33" d="M 2597 2516 
Q 3050 2419 3304 2112 
Q 3559 1806 3559 1356 
Q 3559 666 3084 287 
Q 2609 -91 1734 -91 
Q 1441 -91 1130 -33 
Q 819 25 488 141 
L 488 750 
Q 750 597 1062 519 
Q 1375 441 1716 441 
Q 2309 441 2620 675 
Q 2931 909 2931 1356 
Q 2931 1769 2642 2001 
Q 2353 2234 1838 2234 
L 1294 2234 
L 1294 2753 
L 1863 2753 
Q 2328 2753 2575 2939 
Q 2822 3125 2822 3475 
Q 2822 3834 2567 4026 
Q 2313 4219 1838 4219 
Q 1578 4219 1281 4162 
Q 984 4106 628 3988 
L 628 4550 
Q 988 4650 1302 4700 
Q 1616 4750 1894 4750 
Q 2613 4750 3031 4423 
Q 3450 4097 3450 3541 
Q 3450 3153 3228 2886 
Q 3006 2619 2597 2516 
z
" transform="scale(0.015625)"/>
     </defs>
     <use xlink:href="#DejaVuSans-76"/>
     <use xlink:href="#DejaVuSans-32" x="59.179688"/>
     <use xlink:href="#DejaVuSans-2e" x="122.802734"/>
     <use xlink:href="#DejaVuSans-36" x="154.589844"/>
     <use xlink:href="#DejaVuSans-2e" x="218.212891"/>
     <use xlink:href="#DejaVuSans-33" x="250"/>
     <use xlink:href="#DejaVuSans-2e" x="313.623047"/>
     <use xlink:href="#DejaVuSans-31" x="345.410156"/>
     <use xlink:href="#DejaVuSans-30" x="409.033203"/>
    </g>
   </g>
   <g id="legend_1">
    <g id="patch_7">
     <path d="M 48.16 136.425 
L 177.381875 136.425 
Q 181.381875 136.425 181.381875 132.425 
L 181.381875 17 
Q 181.381875 13 177.381875 13 
L 48.16 13 
Q 44.16 13 44.16 17 
L 44.16 132.425 
Q 44.16 136.425 48.16 136.425 
z
" style="fill: #ffffff; opacity: 0.2; stroke: #cccccc; stroke-linejoin: miter"/>
    </g>
    <g id="line2d_49">
     <path d="M 52.16 29.196875 
L 72.16 29.196875 
L 92.16 29.196875 
" style="fill: none; stroke: #000000; stroke-width: 3; stroke-linecap: square"/>
    </g>
    <g id="text_8">
     <!-- 1: 4/4 -->
     <g transform="translate(108.16 36.196875)scale(0.2 -0.2)">
      <defs>
       <path id="DejaVuSans-3a" d="M 750 794 
L 1409 794 
L 1409 0 
L 750 0 
L 750 794 
z
M 750 3309 
L 1409 3309 
L 1409 2516 
L 750 2516 
L 750 3309 
z
" transform="scale(0.015625)"/>
       <path id="DejaVuSans-34" d="M 2419 4116 
L 825 1625 
L 2419 1625 
L 2419 4116 
z
M 2253 4666 
L 3047 4666 
L 3047 1625 
L 3713 1625 
L 3713 1100 
L 3047 1100 
L 3047 0 
L 2419 0 
L 2419 1100 
L 313 1100 
L 313 1709 
L 2253 4666 
z
" transform="scale(0.015625)"/>
       <path id="DejaVuSans-2f" d="M 1625 4666 
L 2156 4666 
L 531 -594 
L 0 -594 
L 1625 4666 
z
" transform="scale(0.015625)"/>
      </defs>
      <use xlink:href="#DejaVuSans-31"/>
      <use xlink:href="#DejaVuSans-3a" x="63.623047"/>
      <use xlink:href="#DejaVuSans-20" x="97.314453"/>
      <use xlink:href="#DejaVuSans-34" x="129.101562"/>
      <use xlink:href="#DejaVuSans-2f" x="192.724609"/>
      <use xlink:href="#DejaVuSans-34" x="226.416016"/>
     </g>
    </g>
    <g id="line2d_50">
     <path d="M 52.16 58.553125 
L 72.16 58.553125 
L 92.16 58.553125 
" style="fill: none; stroke: #00bfbf; stroke-width: 3; stroke-linecap: square"/>
    </g>
    <g id="text_9">
     <!-- -1: 3/3 -->
     <g transform="translate(108.16 65.553125)scale(0.2 -0.2)">
      <use xlink:href="#DejaVuSans-2d"/>
      <use xlink:href="#DejaVuSans-31" x="36.083984"/>
      <use xlink:href="#DejaVuSans-3a" x="99.707031"/>
      <use xlink:href="#DejaVuSans-20" x="133.398438"/>
      <use xlink:href="#DejaVuSans-33" x="165.185547"/>
      <use xlink:href="#DejaVuSans-2f" x="228.808594"/>
      <use xlink:href="#DejaVuSans-33" x="262.5"/>
     </g>
    </g>
    <g id="line2d_51">
     <path d="M 52.16 87.909375 
L 72.16 87.909375 
L 92.16 87.909375 
" style="fill: none; stroke: #bf00bf; stroke-width: 3; stroke-linecap: square"/>
    </g>
    <g id="text_10">
     <!-- -4: 3/3 -->
     <g transform="translate(108.16 94.909375)scale(0.2 -0.2)">
      <use xlink:href="#DejaVuSans-2d"/>
      <use xlink:href="#DejaVuSans-34" x="36.083984"/>
      <use xlink:href="#DejaVuSans-3a" x="99.707031"/>
      <use xlink:href="#DejaVuSans-20" x="133.398438"/>
      <use xlink:href="#DejaVuSans-33" x="165.185547"/>
      <use xlink:href="#DejaVuSans-2f" x="228.808594"/>
      <use xlink:href="#DejaVuSans-33" x="262.5"/>
     </g>
    </g>
    <g id="line2d_52">
     <path d="M 52.16 117.265625 
L 72.16 117.265625 
L 92.16 117.265625 
" style="fill: none; stroke: #ff0000; stroke-width: 3; stroke-linecap: square"/>
    </g>
    <g id="text_11">
     <!-- -8: 3/3 -->
     <g transform="translate(108.16 124.265625)scale(0.2 -0.2)">
      <defs>
       <path id="DejaVuSans-38" d="M 2034 2216 
Q 1584 2216 1326 1975 
Q 1069 1734 1069 1313 
Q 1069 891 1326 650 
Q 1584 409 2034 409 
Q 2484 409 2743 651 
Q 3003 894 3003 1313 
Q 3003 1734 2745 1975 
Q 2488 2216 2034 2216 
z
M 1403 2484 
Q 997 2584 770 2862 
Q 544 3141 544 3541 
Q 544 4100 942 4425 
Q 1341 4750 2034 4750 
Q 2731 4750 3128 4425 
Q 3525 4100 3525 3541 
Q 3525 3141 3298 2862 
Q 3072 2584 2669 2484 
Q 3125 2378 3379 2068 
Q 3634 1759 3634 1313 
Q 3634 634 3220 271 
Q 2806 -91 2034 -91 
Q 1263 -91 848 271 
Q 434 634 434 1313 
Q 434 1759 690 2068 
Q 947 2378 1403 2484 
z
M 1172 3481 
Q 1172 3119 1398 2916 
Q 1625 2713 2034 2713 
Q 2441 2713 2670 2916 
Q 2900 3119 2900 3481 
Q 2900 3844 2670 4047 
Q 2441 4250 2034 4250 
Q 1625 4250 1398 4047 
Q 1172 3844 1172 3481 
z
" transform="scale(0.015625)"/>
      </defs>
      <use xlink:href="#DejaVuSans-2d"/>
      <use xlink:href="#DejaVuSans-38" x="36.083984"/>
      <use xlink:href="#DejaVuSans-3a" x="99.707031"/>
      <use xlink:href="#DejaVuSans-20" x="133.398438"/>
      <use xlink:href="#DejaVuSans-33" x="165.185547"/>
      <use xlink:href="#DejaVuSans-2f" x="228.808594"/>
      <use xlink:href="#DejaVuSans-33" x="262.5"/>
     </g>
    </g>
   </g>
  </g>
 </g>
 <defs>
  <clipPath id="p1ec5f47910">
   <rect x="34.16" y="3" width="419.032" height="288.28"/>
  </clipPath>
 </defs>
</svg>
