<?xml version="1.0" encoding="utf-8" standalone="no"?>
<!DOCTYPE svg PUBLIC "-//W3C//DTD SVG 1.1//EN"
  "http://www.w3.org/Graphics/SVG/1.1/DTD/svg11.dtd">
<svg xmlns:xlink="http://www.w3.org/1999/xlink" width="460.8pt" height="345.6pt" viewBox="0 0 460.8 345.6" xmlns="http://www.w3.org/2000/svg" version="1.1">
 <metadata>
  <rdf:RDF xmlns:dc="http://purl.org/dc/elements/1.1/" xmlns:cc="http://creativecommons.org/ns#" xmlns:rdf="http://www.w3.org/1999/02/22-rdf-syntax-ns#">
   <cc:Work>
    <dc:type rdf:resource="http://purl.org/dc/dcmitype/StillImage"/>
    <dc:date>2023-05-09T15:29:09.282281</dc:date>
    <dc:format>image/svg+xml</dc:format>
    <dc:creator>
     <cc:Agent>
      <dc:title>Matplotlib v3.5.2, https://matplotlib.org/</dc:title>
     </cc:Agent>
    </dc:creator>
   </cc:Work>
  </rdf:RDF>
 </metadata>
 <defs>
  <style type="text/css">*{stroke-linejoin: round; stroke-linecap: butt}</style>
 </defs>
 <g id="figure_1">
  <g id="patch_1">
   <path d="M 0 345.6 
L 460.8 345.6 
L 460.8 0 
L 0 0 
z
" style="fill: #ffffff"/>
  </g>
  <g id="axes_1">
   <g id="patch_2">
    <path d="M 34.16 291.28 
L 453.192 291.28 
L 453.192 3 
L 34.16 3 
z
" style="fill: #ffffff"/>
   </g>
   <g id="matplotlib.axis_1">
    <g id="xtick_1">
     <g id="line2d_1">
      <path d="M 162.90485 291.28 
L 162.90485 3 
" clip-path="url(#p8d37103055)" style="fill: none; stroke: #b0b0b0; stroke-width: 0.8; stroke-linecap: square"/>
     </g>
     <g id="line2d_2">
      <defs>
       <path id="mf314ce1cf7" d="M 0 0 
L 0 3.5 
" style="stroke: #000000; stroke-width: 0.8"/>
      </defs>
      <g>
       <use xlink:href="#mf314ce1cf7" x="162.90485" y="291.28" style="stroke: #000000; stroke-width: 0.8"/>
      </g>
     </g>
     <g id="text_1">
      <!-- -1 -->
      <g transform="translate(152.934537 313.476875)scale(0.2 -0.2)">
       <defs>
        <path id="DejaVuSans-2d" d="M 313 2009 
L 1997 2009 
L 1997 1497 
L 313 1497 
L 313 2009 
z
" transform="scale(0.015625)"/>
        <path id="DejaVuSans-31" d="M 794 531 
L 1825 531 
L 1825 4091 
L 703 3866 
L 703 4441 
L 1819 4666 
L 2450 4666 
L 2450 531 
L 3481 531 
L 3481 0 
L 794 0 
L 794 531 
z
" transform="scale(0.015625)"/>
       </defs>
       <use xlink:href="#DejaVuSans-2d"/>
       <use xlink:href="#DejaVuSans-31" x="36.083984"/>
      </g>
     </g>
    </g>
    <g id="xtick_2">
     <g id="line2d_3">
      <path d="M 324.44715 291.28 
L 324.44715 3 
" clip-path="url(#p8d37103055)" style="fill: none; stroke: #b0b0b0; stroke-width: 0.8; stroke-linecap: square"/>
     </g>
     <g id="line2d_4">
      <g>
       <use xlink:href="#mf314ce1cf7" x="324.44715" y="291.28" style="stroke: #000000; stroke-width: 0.8"/>
      </g>
     </g>
     <g id="text_2">
      <!-- 1 -->
      <g transform="translate(318.08465 313.476875)scale(0.2 -0.2)">
       <use xlink:href="#DejaVuSans-31"/>
      </g>
     </g>
    </g>
    <g id="xtick_3">
     <g id="line2d_5">
      <defs>
       <path id="mce13be785b" d="M 0 0 
L 0 2 
" style="stroke: #000000; stroke-width: 0.6"/>
      </defs>
      <g>
       <use xlink:href="#mce13be785b" x="39.900181" y="291.28" style="stroke: #000000; stroke-width: 0.6"/>
      </g>
     </g>
    </g>
    <g id="xtick_4">
     <g id="line2d_6">
      <g>
       <use xlink:href="#mce13be785b" x="49.991627" y="291.28" style="stroke: #000000; stroke-width: 0.6"/>
      </g>
     </g>
    </g>
    <g id="xtick_5">
     <g id="line2d_7">
      <g>
       <use xlink:href="#mce13be785b" x="57.81916" y="291.28" style="stroke: #000000; stroke-width: 0.6"/>
      </g>
     </g>
    </g>
    <g id="xtick_6">
     <g id="line2d_8">
      <g>
       <use xlink:href="#mce13be785b" x="64.21472" y="291.28" style="stroke: #000000; stroke-width: 0.6"/>
      </g>
     </g>
    </g>
    <g id="xtick_7">
     <g id="line2d_9">
      <g>
       <use xlink:href="#mce13be785b" x="69.622089" y="291.28" style="stroke: #000000; stroke-width: 0.6"/>
      </g>
     </g>
    </g>
    <g id="xtick_8">
     <g id="line2d_10">
      <g>
       <use xlink:href="#mce13be785b" x="74.306166" y="291.28" style="stroke: #000000; stroke-width: 0.6"/>
      </g>
     </g>
    </g>
    <g id="xtick_9">
     <g id="line2d_11">
      <g>
       <use xlink:href="#mce13be785b" x="78.437814" y="291.28" style="stroke: #000000; stroke-width: 0.6"/>
      </g>
     </g>
    </g>
    <g id="xtick_10">
     <g id="line2d_12">
      <g>
       <use xlink:href="#mce13be785b" x="106.448238" y="291.28" style="stroke: #000000; stroke-width: 0.6"/>
      </g>
     </g>
    </g>
    <g id="xtick_11">
     <g id="line2d_13">
      <g>
       <use xlink:href="#mce13be785b" x="120.671332" y="291.28" style="stroke: #000000; stroke-width: 0.6"/>
      </g>
     </g>
    </g>
    <g id="xtick_12">
     <g id="line2d_14">
      <g>
       <use xlink:href="#mce13be785b" x="130.762777" y="291.28" style="stroke: #000000; stroke-width: 0.6"/>
      </g>
     </g>
    </g>
    <g id="xtick_13">
     <g id="line2d_15">
      <g>
       <use xlink:href="#mce13be785b" x="138.59031" y="291.28" style="stroke: #000000; stroke-width: 0.6"/>
      </g>
     </g>
    </g>
    <g id="xtick_14">
     <g id="line2d_16">
      <g>
       <use xlink:href="#mce13be785b" x="144.985871" y="291.28" style="stroke: #000000; stroke-width: 0.6"/>
      </g>
     </g>
    </g>
    <g id="xtick_15">
     <g id="line2d_17">
      <g>
       <use xlink:href="#mce13be785b" x="150.39324" y="291.28" style="stroke: #000000; stroke-width: 0.6"/>
      </g>
     </g>
    </g>
    <g id="xtick_16">
     <g id="line2d_18">
      <g>
       <use xlink:href="#mce13be785b" x="155.077316" y="291.28" style="stroke: #000000; stroke-width: 0.6"/>
      </g>
     </g>
    </g>
    <g id="xtick_17">
     <g id="line2d_19">
      <g>
       <use xlink:href="#mce13be785b" x="159.208964" y="291.28" style="stroke: #000000; stroke-width: 0.6"/>
      </g>
     </g>
    </g>
    <g id="xtick_18">
     <g id="line2d_20">
      <g>
       <use xlink:href="#mce13be785b" x="187.219389" y="291.28" style="stroke: #000000; stroke-width: 0.6"/>
      </g>
     </g>
    </g>
    <g id="xtick_19">
     <g id="line2d_21">
      <g>
       <use xlink:href="#mce13be785b" x="201.442482" y="291.28" style="stroke: #000000; stroke-width: 0.6"/>
      </g>
     </g>
    </g>
    <g id="xtick_20">
     <g id="line2d_22">
      <g>
       <use xlink:href="#mce13be785b" x="211.533928" y="291.28" style="stroke: #000000; stroke-width: 0.6"/>
      </g>
     </g>
    </g>
    <g id="xtick_21">
     <g id="line2d_23">
      <g>
       <use xlink:href="#mce13be785b" x="219.361461" y="291.28" style="stroke: #000000; stroke-width: 0.6"/>
      </g>
     </g>
    </g>
    <g id="xtick_22">
     <g id="line2d_24">
      <g>
       <use xlink:href="#mce13be785b" x="225.757021" y="291.28" style="stroke: #000000; stroke-width: 0.6"/>
      </g>
     </g>
    </g>
    <g id="xtick_23">
     <g id="line2d_25">
      <g>
       <use xlink:href="#mce13be785b" x="231.16439" y="291.28" style="stroke: #000000; stroke-width: 0.6"/>
      </g>
     </g>
    </g>
    <g id="xtick_24">
     <g id="line2d_26">
      <g>
       <use xlink:href="#mce13be785b" x="235.848467" y="291.28" style="stroke: #000000; stroke-width: 0.6"/>
      </g>
     </g>
    </g>
    <g id="xtick_25">
     <g id="line2d_27">
      <g>
       <use xlink:href="#mce13be785b" x="239.980115" y="291.28" style="stroke: #000000; stroke-width: 0.6"/>
      </g>
     </g>
    </g>
    <g id="xtick_26">
     <g id="line2d_28">
      <g>
       <use xlink:href="#mce13be785b" x="267.990539" y="291.28" style="stroke: #000000; stroke-width: 0.6"/>
      </g>
     </g>
    </g>
    <g id="xtick_27">
     <g id="line2d_29">
      <g>
       <use xlink:href="#mce13be785b" x="282.213633" y="291.28" style="stroke: #000000; stroke-width: 0.6"/>
      </g>
     </g>
    </g>
    <g id="xtick_28">
     <g id="line2d_30">
      <g>
       <use xlink:href="#mce13be785b" x="292.305078" y="291.28" style="stroke: #000000; stroke-width: 0.6"/>
      </g>
     </g>
    </g>
    <g id="xtick_29">
     <g id="line2d_31">
      <g>
       <use xlink:href="#mce13be785b" x="300.132611" y="291.28" style="stroke: #000000; stroke-width: 0.6"/>
      </g>
     </g>
    </g>
    <g id="xtick_30">
     <g id="line2d_32">
      <g>
       <use xlink:href="#mce13be785b" x="306.528172" y="291.28" style="stroke: #000000; stroke-width: 0.6"/>
      </g>
     </g>
    </g>
    <g id="xtick_31">
     <g id="line2d_33">
      <g>
       <use xlink:href="#mce13be785b" x="311.935541" y="291.28" style="stroke: #000000; stroke-width: 0.6"/>
      </g>
     </g>
    </g>
    <g id="xtick_32">
     <g id="line2d_34">
      <g>
       <use xlink:href="#mce13be785b" x="316.619617" y="291.28" style="stroke: #000000; stroke-width: 0.6"/>
      </g>
     </g>
    </g>
    <g id="xtick_33">
     <g id="line2d_35">
      <g>
       <use xlink:href="#mce13be785b" x="320.751265" y="291.28" style="stroke: #000000; stroke-width: 0.6"/>
      </g>
     </g>
    </g>
    <g id="xtick_34">
     <g id="line2d_36">
      <g>
       <use xlink:href="#mce13be785b" x="348.76169" y="291.28" style="stroke: #000000; stroke-width: 0.6"/>
      </g>
     </g>
    </g>
    <g id="xtick_35">
     <g id="line2d_37">
      <g>
       <use xlink:href="#mce13be785b" x="362.984783" y="291.28" style="stroke: #000000; stroke-width: 0.6"/>
      </g>
     </g>
    </g>
    <g id="xtick_36">
     <g id="line2d_38">
      <g>
       <use xlink:href="#mce13be785b" x="373.076229" y="291.28" style="stroke: #000000; stroke-width: 0.6"/>
      </g>
     </g>
    </g>
    <g id="xtick_37">
     <g id="line2d_39">
      <g>
       <use xlink:href="#mce13be785b" x="380.903762" y="291.28" style="stroke: #000000; stroke-width: 0.6"/>
      </g>
     </g>
    </g>
    <g id="xtick_38">
     <g id="line2d_40">
      <g>
       <use xlink:href="#mce13be785b" x="387.299322" y="291.28" style="stroke: #000000; stroke-width: 0.6"/>
      </g>
     </g>
    </g>
    <g id="xtick_39">
     <g id="line2d_41">
      <g>
       <use xlink:href="#mce13be785b" x="392.706691" y="291.28" style="stroke: #000000; stroke-width: 0.6"/>
      </g>
     </g>
    </g>
    <g id="xtick_40">
     <g id="line2d_42">
      <g>
       <use xlink:href="#mce13be785b" x="397.390768" y="291.28" style="stroke: #000000; stroke-width: 0.6"/>
      </g>
     </g>
    </g>
    <g id="xtick_41">
     <g id="line2d_43">
      <g>
       <use xlink:href="#mce13be785b" x="401.522416" y="291.28" style="stroke: #000000; stroke-width: 0.6"/>
      </g>
     </g>
    </g>
    <g id="xtick_42">
     <g id="line2d_44">
      <g>
       <use xlink:href="#mce13be785b" x="429.53284" y="291.28" style="stroke: #000000; stroke-width: 0.6"/>
      </g>
     </g>
    </g>
    <g id="xtick_43">
     <g id="line2d_45">
      <g>
       <use xlink:href="#mce13be785b" x="443.755934" y="291.28" style="stroke: #000000; stroke-width: 0.6"/>
      </g>
     </g>
    </g>
    <g id="text_3">
     <!-- log10 of FEvals ratio -->
     <g transform="translate(141.371312 336.833125)scale(0.2 -0.2)">
      <defs>
       <path id="DejaVuSans-6c" d="M 603 4863 
L 1178 4863 
L 1178 0 
L 603 0 
L 603 4863 
z
" transform="scale(0.015625)"/>
       <path id="DejaVuSans-6f" d="M 1959 3097 
Q 1497 3097 1228 2736 
Q 959 2375 959 1747 
Q 959 1119 1226 758 
Q 1494 397 1959 397 
Q 2419 397 2687 759 
Q 2956 1122 2956 1747 
Q 2956 2369 2687 2733 
Q 2419 3097 1959 3097 
z
M 1959 3584 
Q 2709 3584 3137 3096 
Q 3566 2609 3566 1747 
Q 3566 888 3137 398 
Q 2709 -91 1959 -91 
Q 1206 -91 779 398 
Q 353 888 353 1747 
Q 353 2609 779 3096 
Q 1206 3584 1959 3584 
z
" transform="scale(0.015625)"/>
       <path id="DejaVuSans-67" d="M 2906 1791 
Q 2906 2416 2648 2759 
Q 2391 3103 1925 3103 
Q 1463 3103 1205 2759 
Q 947 2416 947 1791 
Q 947 1169 1205 825 
Q 1463 481 1925 481 
Q 2391 481 2648 825 
Q 2906 1169 2906 1791 
z
M 3481 434 
Q 3481 -459 3084 -895 
Q 2688 -1331 1869 -1331 
Q 1566 -1331 1297 -1286 
Q 1028 -1241 775 -1147 
L 775 -588 
Q 1028 -725 1275 -790 
Q 1522 -856 1778 -856 
Q 2344 -856 2625 -561 
Q 2906 -266 2906 331 
L 2906 616 
Q 2728 306 2450 153 
Q 2172 0 1784 0 
Q 1141 0 747 490 
Q 353 981 353 1791 
Q 353 2603 747 3093 
Q 1141 3584 1784 3584 
Q 2172 3584 2450 3431 
Q 2728 3278 2906 2969 
L 2906 3500 
L 3481 3500 
L 3481 434 
z
" transform="scale(0.015625)"/>
       <path id="DejaVuSans-30" d="M 2034 4250 
Q 1547 4250 1301 3770 
Q 1056 3291 1056 2328 
Q 1056 1369 1301 889 
Q 1547 409 2034 409 
Q 2525 409 2770 889 
Q 3016 1369 3016 2328 
Q 3016 3291 2770 3770 
Q 2525 4250 2034 4250 
z
M 2034 4750 
Q 2819 4750 3233 4129 
Q 3647 3509 3647 2328 
Q 3647 1150 3233 529 
Q 2819 -91 2034 -91 
Q 1250 -91 836 529 
Q 422 1150 422 2328 
Q 422 3509 836 4129 
Q 1250 4750 2034 4750 
z
" transform="scale(0.015625)"/>
       <path id="DejaVuSans-20" transform="scale(0.015625)"/>
       <path id="DejaVuSans-66" d="M 2375 4863 
L 2375 4384 
L 1825 4384 
Q 1516 4384 1395 4259 
Q 1275 4134 1275 3809 
L 1275 3500 
L 2222 3500 
L 2222 3053 
L 1275 3053 
L 1275 0 
L 697 0 
L 697 3053 
L 147 3053 
L 147 3500 
L 697 3500 
L 697 3744 
Q 697 4328 969 4595 
Q 1241 4863 1831 4863 
L 2375 4863 
z
" transform="scale(0.015625)"/>
       <path id="DejaVuSans-46" d="M 628 4666 
L 3309 4666 
L 3309 4134 
L 1259 4134 
L 1259 2759 
L 3109 2759 
L 3109 2228 
L 1259 2228 
L 1259 0 
L 628 0 
L 628 4666 
z
" transform="scale(0.015625)"/>
       <path id="DejaVuSans-45" d="M 628 4666 
L 3578 4666 
L 3578 4134 
L 1259 4134 
L 1259 2753 
L 3481 2753 
L 3481 2222 
L 1259 2222 
L 1259 531 
L 3634 531 
L 3634 0 
L 628 0 
L 628 4666 
z
" transform="scale(0.015625)"/>
       <path id="DejaVuSans-76" d="M 191 3500 
L 800 3500 
L 1894 563 
L 2988 3500 
L 3597 3500 
L 2284 0 
L 1503 0 
L 191 3500 
z
" transform="scale(0.015625)"/>
       <path id="DejaVuSans-61" d="M 2194 1759 
Q 1497 1759 1228 1600 
Q 959 1441 959 1056 
Q 959 750 1161 570 
Q 1363 391 1709 391 
Q 2188 391 2477 730 
Q 2766 1069 2766 1631 
L 2766 1759 
L 2194 1759 
z
M 3341 1997 
L 3341 0 
L 2766 0 
L 2766 531 
Q 2569 213 2275 61 
Q 1981 -91 1556 -91 
Q 1019 -91 701 211 
Q 384 513 384 1019 
Q 384 1609 779 1909 
Q 1175 2209 1959 2209 
L 2766 2209 
L 2766 2266 
Q 2766 2663 2505 2880 
Q 2244 3097 1772 3097 
Q 1472 3097 1187 3025 
Q 903 2953 641 2809 
L 641 3341 
Q 956 3463 1253 3523 
Q 1550 3584 1831 3584 
Q 2591 3584 2966 3190 
Q 3341 2797 3341 1997 
z
" transform="scale(0.015625)"/>
       <path id="DejaVuSans-73" d="M 2834 3397 
L 2834 2853 
Q 2591 2978 2328 3040 
Q 2066 3103 1784 3103 
Q 1356 3103 1142 2972 
Q 928 2841 928 2578 
Q 928 2378 1081 2264 
Q 1234 2150 1697 2047 
L 1894 2003 
Q 2506 1872 2764 1633 
Q 3022 1394 3022 966 
Q 3022 478 2636 193 
Q 2250 -91 1575 -91 
Q 1294 -91 989 -36 
Q 684 19 347 128 
L 347 722 
Q 666 556 975 473 
Q 1284 391 1588 391 
Q 1994 391 2212 530 
Q 2431 669 2431 922 
Q 2431 1156 2273 1281 
Q 2116 1406 1581 1522 
L 1381 1569 
Q 847 1681 609 1914 
Q 372 2147 372 2553 
Q 372 3047 722 3315 
Q 1072 3584 1716 3584 
Q 2034 3584 2315 3537 
Q 2597 3491 2834 3397 
z
" transform="scale(0.015625)"/>
       <path id="DejaVuSans-72" d="M 2631 2963 
Q 2534 3019 2420 3045 
Q 2306 3072 2169 3072 
Q 1681 3072 1420 2755 
Q 1159 2438 1159 1844 
L 1159 0 
L 581 0 
L 581 3500 
L 1159 3500 
L 1159 2956 
Q 1341 3275 1631 3429 
Q 1922 3584 2338 3584 
Q 2397 3584 2469 3576 
Q 2541 3569 2628 3553 
L 2631 2963 
z
" transform="scale(0.015625)"/>
       <path id="DejaVuSans-74" d="M 1172 4494 
L 1172 3500 
L 2356 3500 
L 2356 3053 
L 1172 3053 
L 1172 1153 
Q 1172 725 1289 603 
Q 1406 481 1766 481 
L 2356 481 
L 2356 0 
L 1766 0 
Q 1100 0 847 248 
Q 594 497 594 1153 
L 594 3053 
L 172 3053 
L 172 3500 
L 594 3500 
L 594 4494 
L 1172 4494 
z
" transform="scale(0.015625)"/>
       <path id="DejaVuSans-69" d="M 603 3500 
L 1178 3500 
L 1178 0 
L 603 0 
L 603 3500 
z
M 603 4863 
L 1178 4863 
L 1178 4134 
L 603 4134 
L 603 4863 
z
" transform="scale(0.015625)"/>
      </defs>
      <use xlink:href="#DejaVuSans-6c"/>
      <use xlink:href="#DejaVuSans-6f" x="27.783203"/>
      <use xlink:href="#DejaVuSans-67" x="88.964844"/>
      <use xlink:href="#DejaVuSans-31" x="152.441406"/>
      <use xlink:href="#DejaVuSans-30" x="216.064453"/>
      <use xlink:href="#DejaVuSans-20" x="279.6875"/>
      <use xlink:href="#DejaVuSans-6f" x="311.474609"/>
      <use xlink:href="#DejaVuSans-66" x="372.65625"/>
      <use xlink:href="#DejaVuSans-20" x="407.861328"/>
      <use xlink:href="#DejaVuSans-46" x="439.648438"/>
      <use xlink:href="#DejaVuSans-45" x="497.167969"/>
      <use xlink:href="#DejaVuSans-76" x="560.351562"/>
      <use xlink:href="#DejaVuSans-61" x="619.53125"/>
      <use xlink:href="#DejaVuSans-6c" x="680.810547"/>
      <use xlink:href="#DejaVuSans-73" x="708.59375"/>
      <use xlink:href="#DejaVuSans-20" x="760.693359"/>
      <use xlink:href="#DejaVuSans-72" x="792.480469"/>
      <use xlink:href="#DejaVuSans-61" x="833.59375"/>
      <use xlink:href="#DejaVuSans-74" x="894.873047"/>
      <use xlink:href="#DejaVuSans-69" x="934.082031"/>
      <use xlink:href="#DejaVuSans-6f" x="961.865234"/>
     </g>
    </g>
   </g>
   <g id="matplotlib.axis_2">
    <g id="ytick_1">
     <g id="line2d_46">
      <path d="M 34.16 288.453725 
L 453.192 288.453725 
" clip-path="url(#p8d37103055)" style="fill: none; stroke: #b0b0b0; stroke-width: 0.8; stroke-linecap: square"/>
     </g>
     <g id="line2d_47">
      <defs>
       <path id="m1a8ed23e5e" d="M 0 0 
L -3.5 0 
" style="stroke: #000000; stroke-width: 0.8"/>
      </defs>
      <g>
       <use xlink:href="#m1a8ed23e5e" x="34.16" y="288.453725" style="stroke: #000000; stroke-width: 0.8"/>
      </g>
     </g>
    </g>
    <g id="ytick_2">
     <g id="line2d_48">
      <path d="M 34.16 217.796863 
L 453.192 217.796863 
" clip-path="url(#p8d37103055)" style="fill: none; stroke: #b0b0b0; stroke-width: 0.8; stroke-linecap: square"/>
     </g>
     <g id="line2d_49">
      <g>
       <use xlink:href="#m1a8ed23e5e" x="34.16" y="217.796863" style="stroke: #000000; stroke-width: 0.8"/>
      </g>
     </g>
    </g>
    <g id="ytick_3">
     <g id="line2d_50">
      <path d="M 34.16 147.14 
L 453.192 147.14 
" clip-path="url(#p8d37103055)" style="fill: none; stroke: #b0b0b0; stroke-width: 0.8; stroke-linecap: square"/>
     </g>
     <g id="line2d_51">
      <g>
       <use xlink:href="#m1a8ed23e5e" x="34.16" y="147.14" style="stroke: #000000; stroke-width: 0.8"/>
      </g>
     </g>
    </g>
    <g id="ytick_4">
     <g id="line2d_52">
      <path d="M 34.16 76.483137 
L 453.192 76.483137 
" clip-path="url(#p8d37103055)" style="fill: none; stroke: #b0b0b0; stroke-width: 0.8; stroke-linecap: square"/>
     </g>
     <g id="line2d_53">
      <g>
       <use xlink:href="#m1a8ed23e5e" x="34.16" y="76.483137" style="stroke: #000000; stroke-width: 0.8"/>
      </g>
     </g>
    </g>
    <g id="ytick_5">
     <g id="line2d_54">
      <path d="M 34.16 5.826275 
L 453.192 5.826275 
" clip-path="url(#p8d37103055)" style="fill: none; stroke: #b0b0b0; stroke-width: 0.8; stroke-linecap: square"/>
     </g>
     <g id="line2d_55">
      <g>
       <use xlink:href="#m1a8ed23e5e" x="34.16" y="5.826275" style="stroke: #000000; stroke-width: 0.8"/>
      </g>
     </g>
    </g>
    <g id="text_4">
     <!-- proportion of trials -->
     <g transform="translate(19.000625 240.14625)rotate(-90)scale(0.2 -0.2)">
      <defs>
       <path id="DejaVuSans-70" d="M 1159 525 
L 1159 -1331 
L 581 -1331 
L 581 3500 
L 1159 3500 
L 1159 2969 
Q 1341 3281 1617 3432 
Q 1894 3584 2278 3584 
Q 2916 3584 3314 3078 
Q 3713 2572 3713 1747 
Q 3713 922 3314 415 
Q 2916 -91 2278 -91 
Q 1894 -91 1617 61 
Q 1341 213 1159 525 
z
M 3116 1747 
Q 3116 2381 2855 2742 
Q 2594 3103 2138 3103 
Q 1681 3103 1420 2742 
Q 1159 2381 1159 1747 
Q 1159 1113 1420 752 
Q 1681 391 2138 391 
Q 2594 391 2855 752 
Q 3116 1113 3116 1747 
z
" transform="scale(0.015625)"/>
       <path id="DejaVuSans-6e" d="M 3513 2113 
L 3513 0 
L 2938 0 
L 2938 2094 
Q 2938 2591 2744 2837 
Q 2550 3084 2163 3084 
Q 1697 3084 1428 2787 
Q 1159 2491 1159 1978 
L 1159 0 
L 581 0 
L 581 3500 
L 1159 3500 
L 1159 2956 
Q 1366 3272 1645 3428 
Q 1925 3584 2291 3584 
Q 2894 3584 3203 3211 
Q 3513 2838 3513 2113 
z
" transform="scale(0.015625)"/>
      </defs>
      <use xlink:href="#DejaVuSans-70"/>
      <use xlink:href="#DejaVuSans-72" x="63.476562"/>
      <use xlink:href="#DejaVuSans-6f" x="102.339844"/>
      <use xlink:href="#DejaVuSans-70" x="163.521484"/>
      <use xlink:href="#DejaVuSans-6f" x="226.998047"/>
      <use xlink:href="#DejaVuSans-72" x="288.179688"/>
      <use xlink:href="#DejaVuSans-74" x="329.292969"/>
      <use xlink:href="#DejaVuSans-69" x="368.501953"/>
      <use xlink:href="#DejaVuSans-6f" x="396.285156"/>
      <use xlink:href="#DejaVuSans-6e" x="457.466797"/>
      <use xlink:href="#DejaVuSans-20" x="520.845703"/>
      <use xlink:href="#DejaVuSans-6f" x="552.632812"/>
      <use xlink:href="#DejaVuSans-66" x="613.814453"/>
      <use xlink:href="#DejaVuSans-20" x="649.019531"/>
      <use xlink:href="#DejaVuSans-74" x="680.806641"/>
      <use xlink:href="#DejaVuSans-72" x="720.015625"/>
      <use xlink:href="#DejaVuSans-69" x="761.128906"/>
      <use xlink:href="#DejaVuSans-61" x="788.912109"/>
      <use xlink:href="#DejaVuSans-6c" x="850.191406"/>
      <use xlink:href="#DejaVuSans-73" x="877.974609"/>
     </g>
    </g>
   </g>
   <g id="line2d_56">
    <path d="M 34.16 278.536973 
L 93.710233 278.536973 
L 93.710233 278.261507 
L 94.581191 278.261507 
L 94.581191 277.986042 
L 95.986391 277.986042 
L 95.986391 277.710577 
L 99.974903 277.710577 
L 99.974903 277.435111 
L 102.504176 277.435111 
L 102.571186 276.884181 
L 104.16924 276.884181 
L 104.16924 276.608715 
L 104.720395 276.608715 
L 104.720395 276.33325 
L 104.934506 276.33325 
L 104.934506 276.057785 
L 111.941369 276.057785 
L 111.941369 275.782319 
L 112.699772 275.782319 
L 112.699772 275.506854 
L 113.813421 275.506854 
L 113.813421 275.231389 
L 115.584558 275.231389 
L 115.584558 274.955923 
L 116.194634 274.955923 
L 116.194634 274.680458 
L 116.893232 274.680458 
L 116.893232 274.404993 
L 117.867697 274.404993 
L 117.867697 274.129527 
L 119.738992 274.129527 
L 119.738992 273.854062 
L 125.055129 273.854062 
L 125.055129 273.578596 
L 129.567781 273.578596 
L 129.567781 273.303131 
L 131.994553 273.303131 
L 131.994553 273.027666 
L 133.047307 273.027666 
L 133.047307 272.7522 
L 133.19356 272.7522 
L 133.19356 272.476735 
L 134.33337 272.476735 
L 134.33337 272.20127 
L 134.64536 272.20127 
L 134.64536 271.925804 
L 134.791613 271.925804 
L 134.791613 271.650339 
L 135.931423 271.650339 
L 135.931423 271.374874 
L 143.175892 271.374874 
L 143.175892 271.099408 
L 143.322145 271.099408 
L 143.322145 270.823943 
L 144.461955 270.823943 
L 144.461955 270.548478 
L 146.060678 270.548478 
L 146.060678 270.273012 
L 146.206931 270.273012 
L 146.206931 269.997547 
L 146.670754 269.997547 
L 146.670754 269.722082 
L 146.817007 269.722082 
L 146.817007 269.446616 
L 147.346742 269.446616 
L 147.369352 268.895686 
L 147.515605 268.895686 
L 147.515605 268.62022 
L 147.956817 268.62022 
L 147.956817 268.344755 
L 148.343817 268.344755 
L 148.343817 268.069289 
L 148.49007 268.069289 
L 148.49007 267.793824 
L 148.655416 267.793824 
L 148.681756 266.691963 
L 149.62988 266.691963 
L 149.62988 266.416497 
L 150.215112 266.416497 
L 150.215112 266.141032 
L 150.361365 266.141032 
L 150.361365 265.865567 
L 151.501175 265.865567 
L 151.501175 265.590101 
L 155.53125 265.590101 
L 155.53125 265.314636 
L 155.677503 265.314636 
L 155.677503 265.039171 
L 156.509289 265.039171 
L 156.509289 263.386378 
L 156.817313 263.386378 
L 156.817313 263.110913 
L 159.561515 263.110913 
L 159.561515 262.284517 
L 162.470673 262.284517 
L 162.470673 262.009052 
L 162.616926 262.009052 
L 162.616926 261.733586 
L 163.756737 261.733586 
L 163.756737 261.458121 
L 170.732383 261.458121 
L 170.732383 260.631725 
L 175.416459 260.631725 
L 175.416459 259.805329 
L 176.276046 259.805329 
L 176.276046 259.529864 
L 180.823828 259.529864 
L 180.823828 258.703467 
L 187.111562 258.703467 
L 187.219389 256.499745 
L 187.716192 256.499745 
L 187.716192 256.224279 
L 192.053749 256.224279 
L 192.053749 255.948814 
L 195.046922 255.948814 
L 195.046922 255.397883 
L 196.779706 255.397883 
L 196.779706 255.122418 
L 197.23165 255.122418 
L 197.310834 253.745091 
L 198.099147 253.745091 
L 198.099147 253.469626 
L 198.717447 253.469626 
L 198.717447 253.19416 
L 198.829703 253.19416 
L 198.829703 252.918695 
L 202.360257 252.918695 
L 202.360257 252.64323 
L 202.552468 252.64323 
L 202.552468 252.367764 
L 204.459095 252.367764 
L 204.459095 252.092299 
L 204.946156 252.092299 
L 204.946156 251.816834 
L 205.138367 251.816834 
L 205.138367 247.133923 
L 205.330053 247.133923 
L 205.330053 246.858457 
L 206.735253 246.858457 
L 206.735253 246.582992 
L 207.044333 246.582992 
L 207.044333 246.307527 
L 207.360235 246.307527 
L 207.360235 246.032061 
L 208.136584 246.032061 
L 208.190593 244.654735 
L 209.155375 244.654735 
L 209.155375 244.379269 
L 209.270015 244.379269 
L 209.270015 244.103804 
L 209.630232 244.103804 
L 209.734638 243.552873 
L 210.245022 243.552873 
L 210.245022 243.277408 
L 210.723765 243.277408 
L 210.723765 243.001942 
L 210.855097 243.001942 
L 210.855097 242.726477 
L 211.553696 242.726477 
L 211.553696 242.451012 
L 211.673172 242.451012 
L 211.673172 242.175546 
L 212.52816 242.175546 
L 212.52816 241.900081 
L 212.965901 241.900081 
L 212.995136 240.522754 
L 213.231594 240.522754 
L 213.253038 239.971824 
L 213.534595 239.971824 
L 213.534595 239.696358 
L 213.954092 239.696358 
L 213.954092 239.420893 
L 214.175059 239.420893 
L 214.175059 239.145428 
L 214.36727 239.145428 
L 214.399455 238.594497 
L 215.101555 238.594497 
L 215.101555 238.319031 
L 215.293766 238.319031 
L 215.293766 238.043566 
L 215.469257 238.043566 
L 215.469257 237.768101 
L 215.683369 237.768101 
L 215.683369 237.492635 
L 216.018126 237.492635 
L 216.018126 236.941705 
L 216.195739 236.941705 
L 216.195739 236.666239 
L 216.711608 236.666239 
L 216.711608 236.390774 
L 216.839399 236.390774 
L 216.941297 235.839843 
L 217.72113 235.839843 
L 217.72113 235.564378 
L 218.26517 235.564378 
L 218.317099 235.013447 
L 218.509311 235.013447 
L 218.509311 234.737982 
L 218.698889 234.737982 
L 218.781638 234.187051 
L 218.859135 234.187051 
L 218.859135 233.911586 
L 219.063426 233.911586 
L 219.063426 233.63612 
L 219.297507 233.63612 
L 219.361461 231.156932 
L 219.425298 231.156932 
L 219.425298 230.881467 
L 219.554731 230.881467 
L 219.554731 230.606002 
L 219.715593 230.606002 
L 219.810232 229.50414 
L 219.891624 229.50414 
L 219.891624 229.228675 
L 220.296942 229.228675 
L 220.33864 228.402279 
L 220.530851 228.402279 
L 220.537385 227.851348 
L 220.729597 227.851348 
L 220.729597 227.575883 
L 221.149956 227.575883 
L 221.149956 227.300417 
L 221.408285 227.300417 
L 221.408285 227.024952 
L 221.625373 227.024952 
L 221.657558 226.198556 
L 221.760032 226.198556 
L 221.760032 225.923091 
L 222.169236 225.923091 
L 222.169236 225.647625 
L 222.361447 225.647625 
L 222.45863 225.096695 
L 222.477524 225.096695 
L 222.508687 224.545764 
L 222.690231 224.545764 
L 222.690231 224.270299 
L 223.001176 224.270299 
L 223.021715 223.719368 
L 223.113318 223.719368 
L 223.113318 223.443902 
L 223.433095 223.443902 
L 223.433095 223.168437 
L 223.552413 223.168437 
L 223.552413 222.892972 
L 223.771271 222.892972 
L 223.771271 222.617506 
L 223.963482 222.617506 
L 224.045537 221.24018 
L 224.238807 221.24018 
L 224.238807 220.964714 
L 224.562283 220.964714 
L 224.562283 220.689249 
L 224.76883 220.689249 
L 224.818411 219.862853 
L 224.895788 219.862853 
L 224.994416 219.311922 
L 225.022716 219.311922 
L 225.022716 219.036457 
L 225.186627 219.036457 
L 225.221462 218.485526 
L 225.298993 218.485526 
L 225.328517 217.383665 
L 225.607615 217.383665 
L 225.678721 216.832734 
L 225.757021 216.832734 
L 225.757021 216.281803 
L 226.138313 216.281803 
L 226.199476 215.730873 
L 226.416464 215.730873 
L 226.416464 215.455407 
L 226.549679 215.455407 
L 226.655017 214.629011 
L 226.853313 214.629011 
L 226.853313 214.353546 
L 227.092757 214.353546 
L 227.188994 213.52715 
L 227.284968 213.52715 
L 227.284968 213.251684 
L 227.440798 213.251684 
L 227.531572 212.425288 
L 227.604675 212.425288 
L 227.604675 212.149823 
L 227.821056 212.149823 
L 227.884893 211.323427 
L 227.954879 211.323427 
L 228.010541 210.772496 
L 228.283516 210.772496 
L 228.283516 210.497031 
L 228.455347 210.497031 
L 228.526411 209.9461 
L 228.654201 209.9461 
L 228.654201 209.670635 
L 228.827474 209.670635 
L 228.937037 208.844239 
L 229.063142 208.844239 
L 229.063142 208.568773 
L 229.255281 208.568773 
L 229.255281 208.293308 
L 229.452906 208.293308 
L 229.535932 206.089585 
L 229.580697 206.089585 
L 229.678492 205.538655 
L 229.881569 205.538655 
L 229.938817 204.712259 
L 230.117471 204.712259 
L 230.117471 204.436793 
L 230.462428 204.436793 
L 230.462428 204.161328 
L 230.620527 204.161328 
L 230.628831 203.610397 
L 230.821042 203.610397 
L 230.878229 202.784001 
L 231.3393 202.784001 
L 231.3393 202.508536 
L 231.583038 202.508536 
L 231.593188 201.957605 
L 231.706427 201.957605 
L 231.804725 200.855744 
L 231.87307 200.855744 
L 231.943391 200.029348 
L 232.121757 200.029348 
L 232.176832 199.202951 
L 232.313968 199.202951 
L 232.322336 198.652021 
L 232.505132 198.652021 
L 232.505132 198.376555 
L 232.632922 198.376555 
L 232.668451 197.825625 
L 232.796241 197.825625 
L 232.83451 196.723763 
L 233.020934 196.723763 
L 233.104778 196.172833 
L 233.214915 196.172833 
L 233.214915 195.897367 
L 233.390213 195.897367 
L 233.433679 195.346437 
L 233.677973 195.346437 
L 233.677973 195.070971 
L 233.906083 195.070971 
L 233.996335 194.244575 
L 234.033873 194.244575 
L 234.132278 193.418179 
L 234.174122 193.418179 
L 234.174122 193.142714 
L 234.372868 193.142714 
L 234.472664 192.316318 
L 234.605621 192.316318 
L 234.702832 191.489922 
L 234.812968 191.489922 
L 234.915604 190.112595 
L 234.946996 190.112595 
L 235.020269 189.286199 
L 235.106742 189.286199 
L 235.106742 189.010733 
L 235.312907 189.010733 
L 235.367216 187.908872 
L 235.699513 187.908872 
L 235.763014 187.357941 
L 235.848467 187.357941 
L 235.898259 184.327822 
L 236.004719 184.327822 
L 236.004719 184.052357 
L 236.257901 184.052357 
L 236.338679 183.225961 
L 236.520588 183.225961 
L 236.601167 182.399565 
L 236.648378 182.399565 
L 236.710591 181.573169 
L 236.805833 181.573169 
L 236.902995 181.022238 
L 236.978037 181.022238 
L 237.086099 180.195842 
L 237.113796 180.195842 
L 237.113796 179.644912 
L 237.240555 179.644912 
L 237.28044 178.818515 
L 237.472126 178.818515 
L 237.580001 177.716654 
L 237.606753 177.716654 
L 237.637087 177.165723 
L 237.794113 177.165723 
L 237.870008 176.063862 
L 238.040292 176.063862 
L 238.122622 174.962001 
L 238.250413 174.962001 
L 238.250413 174.686535 
L 238.412101 174.686535 
L 238.441858 174.135604 
L 238.829898 174.135604 
L 238.877326 173.309208 
L 238.978558 173.309208 
L 238.991924 172.758278 
L 239.097486 172.758278 
L 239.140457 171.931882 
L 239.345767 171.931882 
L 239.383866 171.105486 
L 239.473558 171.105486 
L 239.509256 170.554555 
L 239.631496 170.554555 
L 239.700604 170.003624 
L 239.743097 170.003624 
L 239.784691 169.177228 
L 239.960523 169.177228 
L 239.960523 168.901763 
L 240.073304 168.901763 
L 240.114921 168.350832 
L 240.21619 168.350832 
L 240.316644 167.248971 
L 240.355289 167.248971 
L 240.355289 166.973505 
L 240.474441 166.973505 
L 240.549534 166.422575 
L 240.623774 166.422575 
L 240.672801 165.320713 
L 240.746888 165.320713 
L 240.852631 164.494317 
L 240.917559 164.494317 
L 241.000099 163.667921 
L 241.182832 163.667921 
L 241.255836 162.56606 
L 241.296887 162.56606 
L 241.34115 161.739664 
L 241.444108 161.739664 
L 241.543759 160.913268 
L 241.571899 160.913268 
L 241.571899 160.637802 
L 241.697586 160.637802 
L 241.729542 160.086872 
L 241.906963 160.086872 
L 241.986216 159.535941 
L 242.060849 159.535941 
L 242.147587 158.709545 
L 242.192282 158.709545 
L 242.294175 157.607683 
L 242.418554 157.607683 
L 242.525783 156.230357 
L 242.605562 156.230357 
L 242.605562 155.954891 
L 242.830695 155.954891 
L 242.878728 154.85303 
L 242.944444 154.85303 
L 243.023184 154.026634 
L 243.072917 154.026634 
L 243.072917 153.751168 
L 243.233364 153.751168 
L 243.3435 152.373842 
L 243.361393 152.373842 
L 243.361393 152.098376 
L 243.476122 152.098376 
L 243.580026 150.445584 
L 243.676 150.445584 
L 243.707714 145.211743 
L 243.795926 145.211743 
L 243.853967 144.660812 
L 243.909857 144.660812 
L 244.010715 144.109881 
L 244.156968 144.109881 
L 244.156968 143.834416 
L 244.43273 143.834416 
L 244.464313 143.283485 
L 244.551791 143.283485 
L 244.624124 142.732554 
L 244.704768 142.732554 
L 244.800975 141.906158 
L 244.963428 141.906158 
L 244.993777 141.079762 
L 245.107973 141.079762 
L 245.107973 140.253366 
L 245.296778 140.253366 
L 245.395111 139.702436 
L 245.431705 139.702436 
L 245.509955 138.876039 
L 245.655875 138.876039 
L 245.7087 138.325109 
L 245.781909 138.325109 
L 245.781909 138.049643 
L 245.957239 138.049643 
L 246.049362 137.223247 
L 246.11815 137.223247 
L 246.228286 136.121386 
L 246.306803 136.121386 
L 246.306803 135.845921 
L 246.423086 135.845921 
L 246.473108 135.29499 
L 246.600899 135.29499 
L 246.710008 134.193128 
L 246.728226 134.193128 
L 246.838362 133.642198 
L 246.937471 133.642198 
L 246.960593 133.091267 
L 247.245721 133.091267 
L 247.340551 131.71394 
L 247.426824 131.71394 
L 247.536961 130.612079 
L 247.61133 130.612079 
L 247.61133 130.336614 
L 247.754216 130.336614 
L 247.831552 129.510217 
L 247.933153 129.510217 
L 247.942636 128.683821 
L 248.122255 128.683821 
L 248.160198 128.132891 
L 248.248892 128.132891 
L 248.284913 127.58196 
L 248.360076 127.58196 
L 248.401288 126.755564 
L 248.511425 126.755564 
L 248.578634 126.204633 
L 248.672671 126.204633 
L 248.764762 125.378237 
L 248.813595 125.378237 
L 248.892552 124.551841 
L 248.942586 124.551841 
L 248.952966 124.00091 
L 249.083369 124.00091 
L 249.181491 123.174514 
L 249.233598 123.174514 
L 249.236751 122.623584 
L 249.466744 122.623584 
L 249.466744 122.348118 
L 249.628288 122.348118 
L 249.653124 121.797188 
L 249.774283 121.797188 
L 249.871683 120.970792 
L 250.031494 120.970792 
L 250.07156 119.86893 
L 250.165731 119.86893 
L 250.272584 119.042534 
L 250.38272 119.042534 
L 250.38272 118.767069 
L 250.67812 118.767069 
L 250.767459 118.216138 
L 250.794853 118.216138 
L 250.794853 117.940673 
L 250.970686 117.940673 
L 251.008965 117.389742 
L 251.11658 117.389742 
L 251.184797 116.838811 
L 251.229124 116.838811 
L 251.29029 116.287881 
L 251.457649 116.287881 
L 251.457649 116.012415 
L 251.682963 116.012415 
L 251.739224 115.461485 
L 251.820988 115.461485 
L 251.897074 114.910554 
L 251.944778 114.910554 
L 251.944778 114.635088 
L 252.086698 114.635088 
L 252.086698 114.359623 
L 252.264072 114.359623 
L 252.264072 114.084158 
L 252.756469 114.084158 
L 252.783216 113.533227 
L 253.027798 113.533227 
L 253.027798 113.257762 
L 253.164362 113.257762 
L 253.225264 112.706831 
L 253.313914 112.706831 
L 253.366544 112.1559 
L 253.562906 112.1559 
L 253.632428 111.054039 
L 253.702183 111.054039 
L 253.767445 108.299385 
L 254.065143 108.299385 
L 254.172981 107.748455 
L 254.207307 107.748455 
L 254.241777 107.197524 
L 254.573142 107.197524 
L 254.657288 106.646593 
L 254.832304 106.646593 
L 254.87158 105.820197 
L 255.039607 105.820197 
L 255.074869 104.718336 
L 255.217636 104.718336 
L 255.217636 104.44287 
L 255.446161 104.44287 
L 255.47893 103.616474 
L 255.588721 103.616474 
L 255.698858 102.790078 
L 255.754537 102.790078 
L 255.846044 101.963682 
L 255.978341 101.963682 
L 255.978341 101.688217 
L 256.704355 101.688217 
L 256.736579 101.137286 
L 256.910902 101.137286 
L 256.948942 100.586356 
L 257.293072 100.586356 
L 257.352147 99.759959 
L 257.706882 99.759959 
L 257.746909 98.933563 
L 257.899094 98.933563 
L 257.975434 97.556237 
L 258.015827 97.556237 
L 258.015827 97.280771 
L 258.184867 97.280771 
L 258.19166 96.729841 
L 258.678647 96.729841 
L 258.678647 96.454375 
L 258.903937 96.454375 
L 258.952798 95.903445 
L 259.16691 95.903445 
L 259.16691 95.627979 
L 259.530944 95.627979 
L 259.584725 95.077049 
L 259.887879 95.077049 
L 259.966854 94.250652 
L 260.063711 94.250652 
L 260.163006 93.424256 
L 260.177239 93.424256 
L 260.191653 92.873326 
L 260.405764 92.873326 
L 260.405764 92.59786 
L 260.775989 92.59786 
L 260.775989 92.322395 
L 260.951319 92.322395 
L 260.951319 92.04693 
L 261.186066 92.04693 
L 261.186066 91.771464 
L 261.53627 91.771464 
L 261.594979 90.394138 
L 262.22704 90.394138 
L 262.22704 90.118672 
L 262.427388 90.118672 
L 262.528145 89.292276 
L 262.638281 89.292276 
L 262.695942 88.741345 
L 263.033477 88.741345 
L 263.033477 88.46588 
L 264.712345 88.46588 
L 264.712345 88.190415 
L 264.920691 88.190415 
L 264.938314 87.364019 
L 265.19173 87.364019 
L 265.19173 87.088553 
L 266.173772 87.088553 
L 266.173772 86.813088 
L 267.063781 86.813088 
L 267.063781 86.537623 
L 267.184102 86.537623 
L 267.184102 86.262157 
L 267.412627 86.262157 
L 267.412627 85.986692 
L 267.990539 85.986692 
L 268.045824 84.609365 
L 268.302128 84.609365 
L 268.302128 84.3339 
L 269.056154 84.3339 
L 269.166464 83.782969 
L 269.284679 83.782969 
L 269.393461 83.232038 
L 269.972901 83.232038 
L 269.972901 82.956573 
L 271.333874 82.956573 
L 271.333874 82.130177 
L 271.933319 82.130177 
L 271.933319 81.854712 
L 272.122187 81.854712 
L 272.122187 81.579246 
L 272.458716 81.579246 
L 272.458716 81.303781 
L 273.397908 81.303781 
L 273.420564 80.477385 
L 273.566817 80.477385 
L 273.566817 80.20192 
L 273.758653 80.20192 
L 273.805371 79.650989 
L 273.904906 79.650989 
L 273.904906 79.375523 
L 274.706627 79.375523 
L 274.706627 79.100058 
L 275.044716 79.100058 
L 275.044716 78.824593 
L 275.64224 78.824593 
L 275.64224 78.549127 
L 275.818072 78.549127 
L 275.818072 77.722731 
L 276.53035 77.722731 
L 276.53035 77.447266 
L 276.806263 77.447266 
L 276.806263 77.171801 
L 278.081985 77.171801 
L 278.081985 76.62087 
L 278.911372 76.62087 
L 278.911372 76.345405 
L 279.161407 76.345405 
L 279.161407 75.794474 
L 282.213633 75.794474 
L 282.213633 74.417147 
L 282.818142 74.417147 
L 282.818142 74.141682 
L 283.800185 74.141682 
L 283.800185 73.866216 
L 284.810515 73.866216 
L 284.810515 73.590751 
L 285.03904 73.590751 
L 285.03904 73.315286 
L 287.621002 73.315286 
L 287.621002 73.03982 
L 288.609193 73.03982 
L 288.609193 72.48889 
L 289.252853 72.48889 
L 289.303327 71.662494 
L 289.559732 71.662494 
L 289.559732 71.387028 
L 292.305078 71.387028 
L 292.305078 67.805979 
L 293.384501 67.805979 
L 293.384501 67.530513 
L 298.068577 67.530513 
L 298.068577 67.255048 
L 299.912571 67.255048 
L 299.912571 66.979583 
L 300.132611 66.979583 
L 300.132611 65.326791 
L 302.802612 65.326791 
L 302.802612 65.051325 
L 303.475946 65.051325 
L 303.475946 64.500394 
L 303.815839 64.500394 
L 303.815839 64.224929 
L 306.528172 64.224929 
L 306.528172 63.673998 
L 307.892057 63.673998 
L 307.892057 63.398533 
L 308.195058 63.398533 
L 308.195058 63.123068 
L 309.466309 63.123068 
L 309.466309 62.847602 
L 309.871507 62.847602 
L 309.871507 62.296672 
L 311.935541 62.296672 
L 311.935541 61.470276 
L 314.720773 61.470276 
L 314.720773 61.19481 
L 316.619617 61.19481 
L 316.619617 60.368414 
L 318.796992 60.368414 
L 318.796992 60.092949 
L 319.099993 60.092949 
L 319.099993 59.817483 
L 320.751265 59.817483 
L 320.751265 59.542018 
L 323.672034 59.542018 
L 323.672034 59.266553 
L 324.022238 59.266553 
L 324.022238 58.991087 
L 324.913356 58.991087 
L 324.913356 58.715622 
L 325.283078 58.715622 
L 325.283078 58.440157 
L 326.394421 58.440157 
L 326.394421 58.164691 
L 327.406659 58.164691 
L 327.406659 57.889226 
L 327.790485 57.889226 
L 327.790485 56.511899 
L 329.359296 56.511899 
L 329.359296 56.236434 
L 329.662297 56.236434 
L 329.662297 55.960969 
L 330.335731 55.960969 
L 330.335731 55.685503 
L 330.470639 55.685503 
L 330.470639 55.410038 
L 330.685935 55.410038 
L 330.77364 54.859107 
L 331.4026 54.859107 
L 331.4026 54.583642 
L 331.577053 54.583642 
L 331.577053 54.308176 
L 332.406421 54.308176 
L 332.406421 54.032711 
L 334.070356 54.032711 
L 334.070356 53.757246 
L 334.867705 53.757246 
L 334.944684 53.206315 
L 335.478818 53.206315 
L 335.478818 52.93085 
L 335.781819 52.93085 
L 335.83947 52.379919 
L 337.604907 52.379919 
L 337.604907 52.104454 
L 337.942996 52.104454 
L 337.942996 51.828988 
L 338.128208 51.828988 
L 338.128208 51.553523 
L 338.30404 51.553523 
L 338.30404 51.278058 
L 338.943923 51.278058 
L 339.016318 50.727127 
L 339.246924 50.727127 
L 339.246924 50.451662 
L 339.688967 50.451662 
L 339.799104 49.900731 
L 339.915688 49.900731 
L 339.915688 49.625265 
L 340.218689 49.625265 
L 340.218689 49.3498 
L 341.608382 49.3498 
L 341.608382 49.074335 
L 342.013579 49.074335 
L 342.013579 48.798869 
L 343.765186 48.798869 
L 343.875322 48.247939 
L 344.068187 48.247939 
L 344.178323 47.697008 
L 344.791905 47.697008 
L 344.791905 47.421543 
L 344.967738 47.421543 
L 345.065804 46.319681 
L 345.30411 46.319681 
L 345.30411 46.044216 
L 345.680015 46.044216 
L 345.680015 45.768751 
L 346.286153 45.768751 
L 346.327286 45.21782 
L 347.133723 45.21782 
L 347.133723 44.942354 
L 347.296483 44.942354 
L 347.296483 44.666889 
L 347.525008 44.666889 
L 347.525008 44.391424 
L 348.509842 44.391424 
L 348.509842 44.115958 
L 348.84793 44.115958 
L 348.84793 43.840493 
L 350.403504 43.840493 
L 350.403504 43.565028 
L 350.706505 43.565028 
L 350.706505 43.289562 
L 351.209941 43.289562 
L 351.209941 43.014097 
L 351.512942 43.014097 
L 351.512942 42.738632 
L 351.967808 42.738632 
L 352.0457 42.187701 
L 352.94985 42.187701 
L 352.94985 41.912236 
L 353.275843 41.912236 
L 353.275843 41.63677 
L 353.626047 41.63677 
L 353.626047 41.361305 
L 353.96018 41.361305 
L 353.96018 41.08584 
L 354.188705 41.08584 
L 354.188705 40.810374 
L 354.517165 40.810374 
L 354.517165 40.534909 
L 357.010467 40.534909 
L 357.010467 40.259443 
L 357.994584 40.259443 
L 357.994584 39.983978 
L 358.709397 39.983978 
L 358.709397 39.708513 
L 359.072146 39.708513 
L 359.072146 39.433047 
L 359.410235 39.433047 
L 359.421533 38.882117 
L 360.183489 38.882117 
L 360.183489 38.606651 
L 360.521578 38.606651 
L 360.521578 38.331186 
L 364.548493 38.331186 
L 364.548493 38.055721 
L 365.191668 38.055721 
L 365.191668 37.780255 
L 365.529757 37.780255 
L 365.529757 37.50479 
L 366.328118 37.50479 
L 366.328118 36.678394 
L 367.732017 36.678394 
L 367.732017 36.402929 
L 367.907849 36.402929 
L 367.907849 36.127463 
L 368.620127 36.127463 
L 368.656773 35.576533 
L 368.994862 35.576533 
L 368.994862 35.301067 
L 369.628538 35.301067 
L 369.628538 35.025602 
L 369.966627 35.025602 
L 369.966627 34.750136 
L 373.478036 34.750136 
L 373.588172 34.199206 
L 373.816124 34.199206 
L 373.926261 33.648275 
L 374.907919 33.648275 
L 374.907919 33.37281 
L 375.889962 33.37281 
L 375.889962 33.097344 
L 376.900292 33.097344 
L 376.900292 32.821879 
L 377.128817 32.821879 
L 377.128817 32.546414 
L 378.864006 32.546414 
L 378.864006 32.270948 
L 379.21421 32.270948 
L 379.21421 31.995483 
L 380.105328 31.995483 
L 380.116355 31.444552 
L 380.290956 31.444552 
L 380.290956 31.169087 
L 380.454443 31.169087 
L 380.454443 30.893622 
L 380.641159 30.893622 
L 380.641159 30.618156 
L 380.922792 30.618156 
L 380.922792 30.342691 
L 381.26088 30.342691 
L 381.26088 30.067225 
L 381.532278 30.067225 
L 381.532278 29.79176 
L 381.649509 29.79176 
L 381.649509 29.516295 
L 382.59863 29.516295 
L 382.59863 29.240829 
L 384.02558 29.240829 
L 384.02558 28.965364 
L 390.136656 28.965364 
L 390.136656 28.689899 
L 391.563606 28.689899 
L 391.563606 28.414433 
L 393.32018 28.414433 
L 393.32018 28.138968 
L 393.496012 28.138968 
L 393.496012 27.863503 
L 394.20829 27.863503 
L 394.20829 27.588037 
L 394.747129 27.588037 
L 394.747129 27.312572 
L 394.922962 27.312572 
L 394.922962 27.037107 
L 395.635239 27.037107 
L 395.635239 26.761641 
L 400.496082 26.761641 
L 400.496082 26.486176 
L 401.478125 26.486176 
L 401.478125 26.210711 
L 401.923032 26.210711 
L 401.923032 25.935245 
L 402.488454 25.935245 
L 402.488454 25.65978 
L 402.716979 25.65978 
L 402.716979 25.384314 
L 402.905075 25.384314 
L 402.905075 25.108849 
L 403.915404 25.108849 
L 403.915404 24.833384 
L 404.143929 24.833384 
L 404.143929 24.557918 
L 407.237672 24.557918 
L 407.237672 24.282453 
L 408.664622 24.282453 
L 408.664622 24.006988 
L 453.192 24.006988 
L 453.192 24.006988 
" clip-path="url(#p8d37103055)" style="fill: none; stroke: #000000; stroke-width: 3; stroke-linecap: square"/>
   </g>
   <g id="line2d_57">
    <path clip-path="url(#p8d37103055)" style="fill: none; stroke: #000000; stroke-width: 3; stroke-linecap: square"/>
   </g>
   <g id="line2d_58">
    <path d="M 34.16 184.956349 
L 52.402201 184.956349 
L 52.402201 184.160215 
L 54.121677 184.160215 
L 54.121677 183.364082 
L 72.649712 183.364082 
L 72.649712 182.567948 
L 74.369188 182.567948 
L 74.369188 181.771814 
L 116.801368 181.771814 
L 116.801368 180.975681 
L 118.520844 180.975681 
L 118.520844 180.179547 
L 121.126207 180.179547 
L 121.126207 179.383413 
L 141.373718 179.383413 
L 141.373718 178.58728 
L 142.079338 178.58728 
L 142.079338 177.791146 
L 142.670595 177.791146 
L 142.670595 176.995012 
L 143.798814 176.995012 
L 143.798814 176.198879 
L 144.390071 176.198879 
L 144.390071 175.402745 
L 150.558759 175.402745 
L 150.558759 174.606611 
L 151.094009 174.606611 
L 151.094009 173.810478 
L 170.80627 173.810478 
L 170.80627 173.014344 
L 171.34152 173.014344 
L 171.34152 172.21821 
L 173.187031 172.21821 
L 173.187031 171.422077 
L 173.583018 171.422077 
L 173.583018 170.625943 
L 174.906506 170.625943 
L 174.906506 169.829809 
L 175.019619 169.829809 
L 175.019619 169.033676 
L 175.302494 169.033676 
L 175.302494 168.237542 
L 176.163205 168.237542 
L 176.163205 167.441408 
L 185.525373 167.441408 
L 185.525373 166.645275 
L 187.902602 166.645275 
L 187.902602 165.849141 
L 189.287642 165.849141 
L 189.287642 165.053007 
L 206.298204 165.053007 
L 206.298204 164.256874 
L 207.441789 164.256874 
L 207.441789 163.46074 
L 208.534102 163.46074 
L 208.534102 162.664606 
L 209.677688 162.664606 
L 209.677688 161.868473 
L 210.803344 161.868473 
L 210.803344 161.072339 
L 211.394601 161.072339 
L 211.394601 160.276205 
L 214.957926 160.276205 
L 214.957926 159.480072 
L 215.493176 159.480072 
L 215.493176 158.683938 
L 217.170669 158.683938 
L 217.170669 157.887804 
L 218.314255 157.887804 
L 218.314255 157.091671 
L 219.181187 157.091671 
L 219.181187 156.295537 
L 220.043696 156.295537 
L 220.043696 155.499403 
L 220.566227 155.499403 
L 220.566227 154.70327 
L 221.417085 154.70327 
L 221.417085 153.907136 
L 222.395129 153.907136 
L 222.395129 153.111002 
L 222.802125 153.111002 
L 222.802125 152.314869 
L 230.053652 152.314869 
L 230.053652 151.518735 
L 231.438692 151.518735 
L 231.438692 150.722601 
L 233.43983 150.722601 
L 233.43983 149.926468 
L 234.054869 149.926468 
L 234.054869 149.130334 
L 234.583416 149.130334 
L 234.583416 148.3342 
L 235.198455 148.3342 
L 235.198455 147.538067 
L 235.371235 147.538067 
L 235.371235 146.741933 
L 236.514821 146.741933 
L 236.514821 145.9458 
L 240.043058 145.9458 
L 240.043058 145.149666 
L 240.235896 145.149666 
L 240.291207 143.557399 
L 240.771146 143.557399 
L 240.827153 141.965131 
L 241.186644 141.965131 
L 241.186644 141.168998 
L 241.362403 141.168998 
L 241.362403 140.372864 
L 241.911036 140.372864 
L 241.911036 139.57673 
L 242.307024 139.57673 
L 242.307024 138.780597 
L 243.300379 138.780597 
L 243.300379 137.984463 
L 245.019855 137.984463 
L 245.019855 137.188329 
L 245.706439 137.188329 
L 245.706439 136.392196 
L 246.322813 136.392196 
L 246.322813 135.596062 
L 246.850025 135.596062 
L 246.937852 134.003795 
L 247.707854 134.003795 
L 247.707854 133.207661 
L 248.192637 133.207661 
L 248.254218 131.615394 
L 248.322892 131.615394 
L 248.322892 130.81926 
L 249.60473 130.81926 
L 249.639258 129.226993 
L 249.719661 129.226993 
L 249.719661 128.430859 
L 249.912112 128.430859 
L 249.912112 127.634725 
L 250.863247 127.634725 
L 250.863247 126.838592 
L 251.324205 126.838592 
L 251.324205 126.042458 
L 252.926041 126.042458 
L 252.926041 125.246324 
L 253.673714 125.246324 
L 253.673714 124.450191 
L 254.311081 124.450191 
L 254.311081 123.654057 
L 255.909612 123.654057 
L 255.909612 122.857923 
L 258.589422 122.857923 
L 258.589422 122.06179 
L 259.974462 122.06179 
L 259.974462 121.265656 
L 262.602644 121.265656 
L 262.602644 120.469522 
L 263.987684 120.469522 
L 263.987684 119.673389 
L 264.546179 119.673389 
L 264.546179 118.877255 
L 271.343589 118.877255 
L 271.343589 118.081121 
L 271.739576 118.081121 
L 271.739576 117.284988 
L 271.878838 117.284988 
L 271.878838 116.488854 
L 272.274826 116.488854 
L 272.274826 115.69272 
L 280.815341 115.69272 
L 280.815341 114.896587 
L 281.430379 114.896587 
L 281.430379 114.100453 
L 282.746745 114.100453 
L 282.746745 113.304319 
L 284.442863 113.304319 
L 284.442863 112.508186 
L 287.418568 112.508186 
L 287.418568 111.712052 
L 293.081949 111.712052 
L 293.081949 110.915918 
L 297.095171 110.915918 
L 297.095171 110.119785 
L 309.720833 110.119785 
L 309.720833 109.323651 
L 310.31209 109.323651 
L 310.31209 108.527517 
L 312.024385 108.527517 
L 312.024385 107.731384 
L 316.916642 107.731384 
L 316.916642 106.93525 
L 318.328735 106.93525 
L 318.328735 106.139116 
L 340.828526 106.139116 
L 340.828526 105.342983 
L 341.224513 105.342983 
L 341.224513 104.546849 
L 341.456937 104.546849 
L 341.456937 103.750715 
L 341.992187 103.750715 
L 341.992187 102.954582 
L 346.349195 102.954582 
L 346.349195 102.158448 
L 346.884445 102.158448 
L 346.884445 101.362314 
L 347.761288 101.362314 
L 347.761288 100.566181 
L 348.296537 100.566181 
L 348.296537 99.770047 
L 410.941874 99.770047 
L 410.941874 98.973913 
L 415.834132 98.973913 
L 415.834132 98.17778 
L 417.246225 98.17778 
L 417.246225 97.381646 
L 453.192 97.381646 
L 453.192 97.381646 
" clip-path="url(#p8d37103055)" style="fill: none; stroke: #00bfbf; stroke-width: 3; stroke-linecap: square"/>
   </g>
   <g id="line2d_59">
    <path clip-path="url(#p8d37103055)" style="fill: none; stroke: #00bfbf; stroke-width: 3; stroke-linecap: square"/>
   </g>
   <g id="line2d_60">
    <path d="M 34.16 241.34915 
L 69.523437 241.34915 
L 69.523437 239.778998 
L 73.546263 239.778998 
L 73.546263 238.208845 
L 88.703403 238.208845 
L 88.703403 236.638693 
L 92.726229 236.638693 
L 92.726229 235.06854 
L 124.363716 235.06854 
L 124.363716 233.498388 
L 132.620446 233.498388 
L 132.620446 231.928235 
L 136.643271 231.928235 
L 136.643271 230.358083 
L 143.543682 230.358083 
L 143.543682 228.78793 
L 152.854219 228.78793 
L 152.854219 227.217778 
L 153.211361 227.217778 
L 153.211361 225.647625 
L 156.976252 225.647625 
L 156.976252 224.077473 
L 157.350925 224.077473 
L 157.350925 222.50732 
L 160.999077 222.50732 
L 160.999077 220.937168 
L 161.373751 220.937168 
L 161.373751 219.367015 
L 172.034186 219.367015 
L 172.034186 217.796863 
L 172.391328 217.796863 
L 172.391328 216.22671 
L 186.201261 216.22671 
L 186.201261 214.656558 
L 187.460725 214.656558 
L 187.460725 213.086405 
L 187.526632 213.086405 
L 187.526632 211.516253 
L 190.224086 211.516253 
L 190.224086 209.9461 
L 191.549458 209.9461 
L 191.549458 208.375948 
L 211.816531 208.375948 
L 211.816531 206.805795 
L 212.191204 206.805795 
L 212.191204 205.235643 
L 215.951228 205.235643 
L 215.951228 203.66549 
L 216.30837 203.66549 
L 216.30837 202.095338 
L 221.408219 202.095338 
L 221.408219 200.525185 
L 240.307034 200.525185 
L 240.307034 198.955033 
L 240.588185 198.955033 
L 240.588185 197.38488 
L 240.664176 197.38488 
L 240.664176 195.814728 
L 240.681708 195.814728 
L 240.681708 194.244575 
L 241.03885 194.244575 
L 241.03885 192.674423 
L 241.04154 192.674423 
L 241.04154 191.10427 
L 242.366912 191.10427 
L 242.366912 189.534118 
L 244.667773 189.534118 
L 244.667773 187.963965 
L 245.901487 187.963965 
L 245.901487 186.393813 
L 248.690599 186.393813 
L 248.690599 184.82366 
L 248.709262 184.82366 
L 248.709262 183.253508 
L 249.924312 183.253508 
L 249.924312 181.683355 
L 252.732088 181.683355 
L 252.732088 180.113203 
L 269.532043 180.113203 
L 269.532043 178.54305 
L 269.889185 178.54305 
L 269.889185 176.972898 
L 270.857415 176.972898 
L 270.857415 175.402745 
L 271.214557 175.402745 
L 271.214557 173.832593 
L 284.505227 173.832593 
L 284.505227 172.26244 
L 299.508053 172.26244 
L 299.508053 170.692288 
L 300.741766 170.692288 
L 300.741766 169.122135 
L 303.549541 169.122135 
L 303.549541 167.551983 
L 308.861033 167.551983 
L 308.861033 165.98183 
L 309.235707 165.98183 
L 309.235707 164.411678 
L 327.998556 164.411678 
L 327.998556 162.841525 
L 328.355698 162.841525 
L 328.355698 161.271373 
L 329.232269 161.271373 
L 329.232269 159.70122 
L 329.589411 159.70122 
L 329.589411 158.131068 
L 332.040044 158.131068 
L 332.040044 156.560915 
L 332.397186 156.560915 
L 332.397186 154.990763 
L 338.086042 154.990763 
L 338.086042 153.42061 
L 339.411414 153.42061 
L 339.411414 151.850458 
L 396.552555 151.850458 
L 396.552555 150.280305 
L 397.786268 150.280305 
L 397.786268 148.710153 
L 400.594044 148.710153 
L 400.594044 147.14 
L 453.192 147.14 
" clip-path="url(#p8d37103055)" style="fill: none; stroke: #bf00bf; stroke-width: 3; stroke-linecap: square"/>
   </g>
   <g id="line2d_61">
    <path clip-path="url(#p8d37103055)" style="fill: none; stroke: #bf00bf; stroke-width: 3; stroke-linecap: square"/>
   </g>
   <g id="line2d_62">
    <path d="M 34.16 228.953209 
L 99.528577 228.953209 
L 99.528577 227.300417 
L 102.027558 227.300417 
L 102.027558 225.647625 
L 143.338648 225.647625 
L 143.338648 223.994833 
L 145.837628 223.994833 
L 145.837628 222.342041 
L 145.844536 222.342041 
L 145.844536 220.689249 
L 167.28589 220.689249 
L 167.28589 219.036457 
L 167.383201 219.036457 
L 167.383201 217.383665 
L 169.784871 217.383665 
L 169.784871 215.730873 
L 169.882181 215.730873 
L 169.882181 214.07808 
L 172.851794 214.07808 
L 172.851794 212.425288 
L 173.130665 212.425288 
L 173.130665 210.772496 
L 189.654606 210.772496 
L 189.654606 209.119704 
L 195.365702 209.119704 
L 195.365702 207.466912 
L 196.166705 207.466912 
L 196.166705 205.81412 
L 197.864682 205.81412 
L 197.864682 204.161328 
L 198.665685 204.161328 
L 198.665685 202.508536 
L 213.601849 202.508536 
L 213.601849 200.855744 
L 213.699159 200.855744 
L 213.699159 199.202951 
L 216.661864 199.202951 
L 216.661864 197.550159 
L 216.940736 197.550159 
L 216.940736 195.897367 
L 240.609107 195.897367 
L 240.609107 194.244575 
L 240.706417 194.244575 
L 240.706417 192.591783 
L 240.887978 192.591783 
L 240.887978 190.938991 
L 240.965282 190.938991 
L 240.965282 189.286199 
L 240.985289 189.286199 
L 240.985289 187.633407 
L 241.68166 187.633407 
L 241.68166 185.980615 
L 242.482663 185.980615 
L 242.482663 184.327822 
L 243.865195 184.327822 
L 243.865195 182.67503 
L 245.961646 182.67503 
L 245.961646 181.022238 
L 246.364176 181.022238 
L 246.364176 179.369446 
L 247.381416 179.369446 
L 247.381416 177.716654 
L 248.460627 177.716654 
L 248.460627 176.063862 
L 249.880397 176.063862 
L 249.880397 174.41107 
L 268.688918 174.41107 
L 268.688918 172.758278 
L 268.96779 172.758278 
L 268.96779 171.105486 
L 269.489921 171.105486 
L 269.489921 169.452693 
L 269.768793 169.452693 
L 269.768793 167.799901 
L 284.775353 167.799901 
L 284.775353 166.147109 
L 290.181154 166.147109 
L 290.181154 164.494317 
L 292.277605 164.494317 
L 292.277605 162.841525 
L 293.697375 162.841525 
L 293.697375 161.188733 
L 308.722595 161.188733 
L 308.722595 159.535941 
L 308.819906 159.535941 
L 308.819906 157.883149 
L 317.188412 157.883149 
L 317.188412 156.230357 
L 317.467283 156.230357 
L 317.467283 154.577564 
L 319.284863 154.577564 
L 319.284863 152.924772 
L 319.563734 152.924772 
L 319.563734 151.27198 
L 320.704633 151.27198 
L 320.704633 149.619188 
L 320.983504 149.619188 
L 320.983504 147.966396 
L 336.802407 147.966396 
L 336.802407 146.313604 
L 337.60341 146.313604 
L 337.60341 144.660812 
L 385.301901 144.660812 
L 385.301901 143.00802 
L 387.398352 143.00802 
L 387.398352 141.355228 
L 388.818121 141.355228 
L 388.818121 139.702436 
L 453.192 139.702436 
" clip-path="url(#p8d37103055)" style="fill: none; stroke: #ff0000; stroke-width: 3; stroke-linecap: square"/>
   </g>
   <g id="line2d_63">
    <path clip-path="url(#p8d37103055)" style="fill: none; stroke: #ff0000; stroke-width: 3; stroke-linecap: square"/>
   </g>
   <g id="line2d_64">
    <path d="M 243.676 291.28 
L 243.676 3 
" clip-path="url(#p8d37103055)" style="fill: none; stroke: #000000; stroke-width: 1.5; stroke-linecap: square"/>
   </g>
   <g id="line2d_65">
    <path d="M 34.16 147.14 
L 453.192 147.14 
" clip-path="url(#p8d37103055)" style="fill: none; stroke-dasharray: 2,3.3; stroke-dashoffset: 0; stroke: #000000; stroke-width: 2"/>
   </g>
   <g id="patch_3">
    <path d="M 34.16 291.28 
L 34.16 3 
" style="fill: none; stroke: #000000; stroke-width: 0.8; stroke-linejoin: miter; stroke-linecap: square"/>
   </g>
   <g id="patch_4">
    <path d="M 453.192 291.28 
L 453.192 3 
" style="fill: none; stroke: #000000; stroke-width: 0.8; stroke-linejoin: miter; stroke-linecap: square"/>
   </g>
   <g id="patch_5">
    <path d="M 34.16 291.28 
L 453.192 291.28 
" style="fill: none; stroke: #000000; stroke-width: 0.8; stroke-linejoin: miter; stroke-linecap: square"/>
   </g>
   <g id="patch_6">
    <path d="M 34.16 3 
L 453.192 3 
" style="fill: none; stroke: #000000; stroke-width: 0.8; stroke-linejoin: miter; stroke-linecap: square"/>
   </g>
   <g id="text_5">
    <!-- f20-f24,20-D -->
    <g transform="translate(318.19261 285.5144)scale(0.2 -0.2)">
     <defs>
      <path id="DejaVuSans-32" d="M 1228 531 
L 3431 531 
L 3431 0 
L 469 0 
L 469 531 
Q 828 903 1448 1529 
Q 2069 2156 2228 2338 
Q 2531 2678 2651 2914 
Q 2772 3150 2772 3378 
Q 2772 3750 2511 3984 
Q 2250 4219 1831 4219 
Q 1534 4219 1204 4116 
Q 875 4013 500 3803 
L 500 4441 
Q 881 4594 1212 4672 
Q 1544 4750 1819 4750 
Q 2544 4750 2975 4387 
Q 3406 4025 3406 3419 
Q 3406 3131 3298 2873 
Q 3191 2616 2906 2266 
Q 2828 2175 2409 1742 
Q 1991 1309 1228 531 
z
" transform="scale(0.015625)"/>
      <path id="DejaVuSans-34" d="M 2419 4116 
L 825 1625 
L 2419 1625 
L 2419 4116 
z
M 2253 4666 
L 3047 4666 
L 3047 1625 
L 3713 1625 
L 3713 1100 
L 3047 1100 
L 3047 0 
L 2419 0 
L 2419 1100 
L 313 1100 
L 313 1709 
L 2253 4666 
z
" transform="scale(0.015625)"/>
      <path id="DejaVuSans-2c" d="M 750 794 
L 1409 794 
L 1409 256 
L 897 -744 
L 494 -744 
L 750 256 
L 750 794 
z
" transform="scale(0.015625)"/>
      <path id="DejaVuSans-44" d="M 1259 4147 
L 1259 519 
L 2022 519 
Q 2988 519 3436 956 
Q 3884 1394 3884 2338 
Q 3884 3275 3436 3711 
Q 2988 4147 2022 4147 
L 1259 4147 
z
M 628 4666 
L 1925 4666 
Q 3281 4666 3915 4102 
Q 4550 3538 4550 2338 
Q 4550 1131 3912 565 
Q 3275 0 1925 0 
L 628 0 
L 628 4666 
z
" transform="scale(0.015625)"/>
     </defs>
     <use xlink:href="#DejaVuSans-66"/>
     <use xlink:href="#DejaVuSans-32" x="35.205078"/>
     <use xlink:href="#DejaVuSans-30" x="98.828125"/>
     <use xlink:href="#DejaVuSans-2d" x="162.451172"/>
     <use xlink:href="#DejaVuSans-66" x="198.535156"/>
     <use xlink:href="#DejaVuSans-32" x="233.740234"/>
     <use xlink:href="#DejaVuSans-34" x="297.363281"/>
     <use xlink:href="#DejaVuSans-2c" x="360.986328"/>
     <use xlink:href="#DejaVuSans-32" x="392.773438"/>
     <use xlink:href="#DejaVuSans-30" x="456.396484"/>
     <use xlink:href="#DejaVuSans-2d" x="520.019531"/>
     <use xlink:href="#DejaVuSans-44" x="556.103516"/>
    </g>
   </g>
   <g id="text_6">
    <!-- v2.6.3.10 -->
    <g style="fill: #808080" transform="translate(220.043187 286.317512)scale(0.1 -0.1)">
     <defs>
      <path id="DejaVuSans-2e" d="M 684 794 
L 1344 794 
L 1344 0 
L 684 0 
L 684 794 
z
" transform="scale(0.015625)"/>
      <path id="DejaVuSans-36" d="M 2113 2584 
Q 1688 2584 1439 2293 
Q 1191 2003 1191 1497 
Q 1191 994 1439 701 
Q 1688 409 2113 409 
Q 2538 409 2786 701 
Q 3034 994 3034 1497 
Q 3034 2003 2786 2293 
Q 2538 2584 2113 2584 
z
M 3366 4563 
L 3366 3988 
Q 3128 4100 2886 4159 
Q 2644 4219 2406 4219 
Q 1781 4219 1451 3797 
Q 1122 3375 1075 2522 
Q 1259 2794 1537 2939 
Q 1816 3084 2150 3084 
Q 2853 3084 3261 2657 
Q 3669 2231 3669 1497 
Q 3669 778 3244 343 
Q 2819 -91 2113 -91 
Q 1303 -91 875 529 
Q 447 1150 447 2328 
Q 447 3434 972 4092 
Q 1497 4750 2381 4750 
Q 2619 4750 2861 4703 
Q 3103 4656 3366 4563 
z
" transform="scale(0.015625)"/>
      <path id="DejaVuSans-33" d="M 2597 2516 
Q 3050 2419 3304 2112 
Q 3559 1806 3559 1356 
Q 3559 666 3084 287 
Q 2609 -91 1734 -91 
Q 1441 -91 1130 -33 
Q 819 25 488 141 
L 488 750 
Q 750 597 1062 519 
Q 1375 441 1716 441 
Q 2309 441 2620 675 
Q 2931 909 2931 1356 
Q 2931 1769 2642 2001 
Q 2353 2234 1838 2234 
L 1294 2234 
L 1294 2753 
L 1863 2753 
Q 2328 2753 2575 2939 
Q 2822 3125 2822 3475 
Q 2822 3834 2567 4026 
Q 2313 4219 1838 4219 
Q 1578 4219 1281 4162 
Q 984 4106 628 3988 
L 628 4550 
Q 988 4650 1302 4700 
Q 1616 4750 1894 4750 
Q 2613 4750 3031 4423 
Q 3450 4097 3450 3541 
Q 3450 3153 3228 2886 
Q 3006 2619 2597 2516 
z
" transform="scale(0.015625)"/>
     </defs>
     <use xlink:href="#DejaVuSans-76"/>
     <use xlink:href="#DejaVuSans-32" x="59.179688"/>
     <use xlink:href="#DejaVuSans-2e" x="122.802734"/>
     <use xlink:href="#DejaVuSans-36" x="154.589844"/>
     <use xlink:href="#DejaVuSans-2e" x="218.212891"/>
     <use xlink:href="#DejaVuSans-33" x="250"/>
     <use xlink:href="#DejaVuSans-2e" x="313.623047"/>
     <use xlink:href="#DejaVuSans-31" x="345.410156"/>
     <use xlink:href="#DejaVuSans-30" x="409.033203"/>
    </g>
   </g>
   <g id="legend_1">
    <g id="patch_7">
     <path d="M 48.16 136.425 
L 177.381875 136.425 
Q 181.381875 136.425 181.381875 132.425 
L 181.381875 17 
Q 181.381875 13 177.381875 13 
L 48.16 13 
Q 44.16 13 44.16 17 
L 44.16 132.425 
Q 44.16 136.425 48.16 136.425 
z
" style="fill: #ffffff; opacity: 0.2; stroke: #cccccc; stroke-linejoin: miter"/>
    </g>
    <g id="line2d_66">
     <path d="M 52.16 29.196875 
L 72.16 29.196875 
L 92.16 29.196875 
" style="fill: none; stroke: #000000; stroke-width: 3; stroke-linecap: square"/>
    </g>
    <g id="text_7">
     <!-- 1: 5/5 -->
     <g transform="translate(108.16 36.196875)scale(0.2 -0.2)">
      <defs>
       <path id="DejaVuSans-3a" d="M 750 794 
L 1409 794 
L 1409 0 
L 750 0 
L 750 794 
z
M 750 3309 
L 1409 3309 
L 1409 2516 
L 750 2516 
L 750 3309 
z
" transform="scale(0.015625)"/>
       <path id="DejaVuSans-35" d="M 691 4666 
L 3169 4666 
L 3169 4134 
L 1269 4134 
L 1269 2991 
Q 1406 3038 1543 3061 
Q 1681 3084 1819 3084 
Q 2600 3084 3056 2656 
Q 3513 2228 3513 1497 
Q 3513 744 3044 326 
Q 2575 -91 1722 -91 
Q 1428 -91 1123 -41 
Q 819 9 494 109 
L 494 744 
Q 775 591 1075 516 
Q 1375 441 1709 441 
Q 2250 441 2565 725 
Q 2881 1009 2881 1497 
Q 2881 1984 2565 2268 
Q 2250 2553 1709 2553 
Q 1456 2553 1204 2497 
Q 953 2441 691 2322 
L 691 4666 
z
" transform="scale(0.015625)"/>
       <path id="DejaVuSans-2f" d="M 1625 4666 
L 2156 4666 
L 531 -594 
L 0 -594 
L 1625 4666 
z
" transform="scale(0.015625)"/>
      </defs>
      <use xlink:href="#DejaVuSans-31"/>
      <use xlink:href="#DejaVuSans-3a" x="63.623047"/>
      <use xlink:href="#DejaVuSans-20" x="97.314453"/>
      <use xlink:href="#DejaVuSans-35" x="129.101562"/>
      <use xlink:href="#DejaVuSans-2f" x="192.724609"/>
      <use xlink:href="#DejaVuSans-35" x="226.416016"/>
     </g>
    </g>
    <g id="line2d_67">
     <path d="M 52.16 58.553125 
L 72.16 58.553125 
L 92.16 58.553125 
" style="fill: none; stroke: #00bfbf; stroke-width: 3; stroke-linecap: square"/>
    </g>
    <g id="text_8">
     <!-- -1: 2/2 -->
     <g transform="translate(108.16 65.553125)scale(0.2 -0.2)">
      <use xlink:href="#DejaVuSans-2d"/>
      <use xlink:href="#DejaVuSans-31" x="36.083984"/>
      <use xlink:href="#DejaVuSans-3a" x="99.707031"/>
      <use xlink:href="#DejaVuSans-20" x="133.398438"/>
      <use xlink:href="#DejaVuSans-32" x="165.185547"/>
      <use xlink:href="#DejaVuSans-2f" x="228.808594"/>
      <use xlink:href="#DejaVuSans-32" x="262.5"/>
     </g>
    </g>
    <g id="line2d_68">
     <path d="M 52.16 87.909375 
L 72.16 87.909375 
L 92.16 87.909375 
" style="fill: none; stroke: #bf00bf; stroke-width: 3; stroke-linecap: square"/>
    </g>
    <g id="text_9">
     <!-- -4: 1/1 -->
     <g transform="translate(108.16 94.909375)scale(0.2 -0.2)">
      <use xlink:href="#DejaVuSans-2d"/>
      <use xlink:href="#DejaVuSans-34" x="36.083984"/>
      <use xlink:href="#DejaVuSans-3a" x="99.707031"/>
      <use xlink:href="#DejaVuSans-20" x="133.398438"/>
      <use xlink:href="#DejaVuSans-31" x="165.185547"/>
      <use xlink:href="#DejaVuSans-2f" x="228.808594"/>
      <use xlink:href="#DejaVuSans-31" x="262.5"/>
     </g>
    </g>
    <g id="line2d_69">
     <path d="M 52.16 117.265625 
L 72.16 117.265625 
L 92.16 117.265625 
" style="fill: none; stroke: #ff0000; stroke-width: 3; stroke-linecap: square"/>
    </g>
    <g id="text_10">
     <!-- -8: 1/1 -->
     <g transform="translate(108.16 124.265625)scale(0.2 -0.2)">
      <defs>
       <path id="DejaVuSans-38" d="M 2034 2216 
Q 1584 2216 1326 1975 
Q 1069 1734 1069 1313 
Q 1069 891 1326 650 
Q 1584 409 2034 409 
Q 2484 409 2743 651 
Q 3003 894 3003 1313 
Q 3003 1734 2745 1975 
Q 2488 2216 2034 2216 
z
M 1403 2484 
Q 997 2584 770 2862 
Q 544 3141 544 3541 
Q 544 4100 942 4425 
Q 1341 4750 2034 4750 
Q 2731 4750 3128 4425 
Q 3525 4100 3525 3541 
Q 3525 3141 3298 2862 
Q 3072 2584 2669 2484 
Q 3125 2378 3379 2068 
Q 3634 1759 3634 1313 
Q 3634 634 3220 271 
Q 2806 -91 2034 -91 
Q 1263 -91 848 271 
Q 434 634 434 1313 
Q 434 1759 690 2068 
Q 947 2378 1403 2484 
z
M 1172 3481 
Q 1172 3119 1398 2916 
Q 1625 2713 2034 2713 
Q 2441 2713 2670 2916 
Q 2900 3119 2900 3481 
Q 2900 3844 2670 4047 
Q 2441 4250 2034 4250 
Q 1625 4250 1398 4047 
Q 1172 3844 1172 3481 
z
" transform="scale(0.015625)"/>
      </defs>
      <use xlink:href="#DejaVuSans-2d"/>
      <use xlink:href="#DejaVuSans-38" x="36.083984"/>
      <use xlink:href="#DejaVuSans-3a" x="99.707031"/>
      <use xlink:href="#DejaVuSans-20" x="133.398438"/>
      <use xlink:href="#DejaVuSans-31" x="165.185547"/>
      <use xlink:href="#DejaVuSans-2f" x="228.808594"/>
      <use xlink:href="#DejaVuSans-31" x="262.5"/>
     </g>
    </g>
   </g>
  </g>
 </g>
 <defs>
  <clipPath id="p8d37103055">
   <rect x="34.16" y="3" width="419.032" height="288.28"/>
  </clipPath>
 </defs>
</svg>
