<?xml version="1.0" encoding="utf-8" standalone="no"?>
<!DOCTYPE svg PUBLIC "-//W3C//DTD SVG 1.1//EN"
  "http://www.w3.org/Graphics/SVG/1.1/DTD/svg11.dtd">
<svg xmlns:xlink="http://www.w3.org/1999/xlink" width="460.8pt" height="345.6pt" viewBox="0 0 460.8 345.6" xmlns="http://www.w3.org/2000/svg" version="1.1">
 <metadata>
  <rdf:RDF xmlns:dc="http://purl.org/dc/elements/1.1/" xmlns:cc="http://creativecommons.org/ns#" xmlns:rdf="http://www.w3.org/1999/02/22-rdf-syntax-ns#">
   <cc:Work>
    <dc:type rdf:resource="http://purl.org/dc/dcmitype/StillImage"/>
    <dc:date>2023-05-09T15:29:17.144688</dc:date>
    <dc:format>image/svg+xml</dc:format>
    <dc:creator>
     <cc:Agent>
      <dc:title>Matplotlib v3.5.2, https://matplotlib.org/</dc:title>
     </cc:Agent>
    </dc:creator>
   </cc:Work>
  </rdf:RDF>
 </metadata>
 <defs>
  <style type="text/css">*{stroke-linejoin: round; stroke-linecap: butt}</style>
 </defs>
 <g id="figure_1">
  <g id="patch_1">
   <path d="M 0 345.6 
L 460.8 345.6 
L 460.8 0 
L 0 0 
z
" style="fill: #ffffff"/>
  </g>
  <g id="axes_1">
   <g id="patch_2">
    <path d="M 62.208 293.76 
L 460.8 293.76 
L 460.8 3.456 
L 62.208 3.456 
z
" style="fill: #ffffff"/>
   </g>
   <g id="line2d_1"/>
   <g id="line2d_2"/>
   <g id="line2d_3"/>
   <g id="line2d_4"/>
   <g id="line2d_5"/>
   <g id="line2d_6"/>
   <g id="line2d_7"/>
   <g id="line2d_8"/>
   <g id="line2d_9">
    <path d="M 383.884341 293.76 
L 383.884341 289.927604 
L 404.350654 289.927604 
L 404.350654 286.095208 
L 411.242107 286.095208 
L 411.242107 282.262812 
L 412.16671 282.262812 
L 412.16671 278.430416 
L 412.83125 278.430416 
L 412.83125 274.59802 
L 413.169824 274.59802 
L 413.169824 270.765624 
L 413.763417 270.765624 
L 413.763417 266.933228 
L 414.954694 266.933228 
L 415.005459 259.268436 
L 416.277551 259.268436 
L 416.277551 255.43604 
L 417.269169 255.43604 
L 417.269169 251.603644 
L 417.637909 251.603644 
L 417.637909 247.771248 
L 417.958375 247.771248 
L 417.958375 243.938851 
L 418.28581 243.938851 
L 418.28581 240.106455 
L 418.731198 240.106455 
L 418.78936 232.441663 
L 418.942271 232.441663 
L 418.942271 228.609267 
L 420.548692 228.609267 
L 420.548692 224.776871 
L 420.899219 224.776871 
L 420.899219 220.944475 
L 434.451996 220.944475 
L 434.451996 217.112079 
L 437.425748 217.112079 
L 437.425748 213.279683 
L 440.491766 213.279683 
L 440.491766 209.447287 
L 442.942275 209.447287 
L 442.942275 205.614891 
L 444.677619 205.614891 
L 444.677619 201.782495 
L 445.194167 201.782495 
L 445.194167 197.950099 
L 447.063773 197.950099 
L 447.063773 194.117703 
L 448.017138 194.117703 
L 448.038487 186.452911 
L 449.678139 186.452911 
L 449.678139 182.620515 
L 450.255322 182.620515 
L 450.255322 178.788119 
L 450.683005 178.788119 
L 450.683005 174.955723 
L 450.860618 174.955723 
L 450.860618 171.123327 
L 451.276552 171.123327 
L 451.276552 167.290931 
L 451.432466 167.290931 
L 451.432466 163.458535 
L 452.25286 163.458535 
L 452.25286 159.626139 
L 453.16282 159.626139 
L 453.16282 155.793743 
L 454.04976 155.793743 
L 454.04976 151.961347 
L 454.430928 151.961347 
L 454.430928 148.12895 
L 455.704681 148.12895 
L 455.704681 144.296554 
L 457.890306 144.296554 
L 457.890306 140.464158 
L 461.8 140.464158 
L 461.8 140.464158 
" clip-path="url(#p28f5f1619e)" style="fill: none; stroke: #f5deb3; stroke-width: 1.5; stroke-linecap: square"/>
   </g>
   <g id="line2d_10"/>
   <g id="line2d_11"/>
   <g id="line2d_12"/>
   <g id="line2d_13"/>
   <g id="line2d_14"/>
   <g id="line2d_15"/>
   <g id="line2d_16"/>
   <g id="line2d_17"/>
   <g id="line2d_18"/>
   <g id="line2d_19"/>
   <g id="line2d_20"/>
   <g id="line2d_21"/>
   <g id="line2d_22"/>
   <g id="line2d_23"/>
   <g id="line2d_24">
    <path d="M 399.33046 293.76 
L 399.33046 289.927604 
L 402.621758 289.927604 
L 402.664231 282.262812 
L 446.556752 282.262812 
L 446.556752 278.430416 
L 446.696032 278.430416 
L 446.696032 274.59802 
L 450.006353 274.59802 
L 450.006353 270.765624 
L 450.747801 270.765624 
L 450.747801 266.933228 
L 451.102692 266.933228 
L 451.102692 263.100832 
L 454.084807 263.100832 
L 454.084807 259.268436 
L 457.252406 259.268436 
L 457.252406 255.43604 
L 457.442934 255.43604 
L 457.442934 251.603644 
L 461.8 251.603644 
L 461.8 251.603644 
" clip-path="url(#p28f5f1619e)" style="fill: none; stroke: #f5deb3; stroke-width: 1.5; stroke-linecap: square"/>
   </g>
   <g id="line2d_25">
    <path clip-path="url(#p28f5f1619e)" style="fill: none; stroke: #f5deb3; stroke-width: 1.5; stroke-linecap: square"/>
   </g>
   <g id="line2d_26">
    <path clip-path="url(#p28f5f1619e)" style="fill: none; stroke: #f5deb3; stroke-width: 1.5; stroke-linecap: square"/>
   </g>
   <g id="line2d_27"/>
   <g id="line2d_28">
    <path clip-path="url(#p28f5f1619e)" style="fill: none; stroke: #f5deb3; stroke-width: 1.5; stroke-linecap: square"/>
   </g>
   <g id="line2d_29"/>
   <g id="line2d_30"/>
   <g id="matplotlib.axis_1">
    <g id="xtick_1">
     <g id="line2d_31">
      <path d="M 62.208 293.76 
L 62.208 3.456 
" clip-path="url(#p28f5f1619e)" style="fill: none; stroke: #b0b0b0; stroke-width: 0.8; stroke-linecap: square"/>
     </g>
     <g id="line2d_32">
      <defs>
       <path id="m39febcc25e" d="M 0 0 
L 0 3.5 
" style="stroke: #000000; stroke-width: 0.8"/>
      </defs>
      <g>
       <use xlink:href="#m39febcc25e" x="62.208" y="293.76" style="stroke: #000000; stroke-width: 0.8"/>
      </g>
     </g>
     <g id="text_1">
      <!-- 0 -->
      <g transform="translate(55.8455 315.956875)scale(0.2 -0.2)">
       <defs>
        <path id="DejaVuSans-30" d="M 2034 4250 
Q 1547 4250 1301 3770 
Q 1056 3291 1056 2328 
Q 1056 1369 1301 889 
Q 1547 409 2034 409 
Q 2525 409 2770 889 
Q 3016 1369 3016 2328 
Q 3016 3291 2770 3770 
Q 2525 4250 2034 4250 
z
M 2034 4750 
Q 2819 4750 3233 4129 
Q 3647 3509 3647 2328 
Q 3647 1150 3233 529 
Q 2819 -91 2034 -91 
Q 1250 -91 836 529 
Q 422 1150 422 2328 
Q 422 3509 836 4129 
Q 1250 4750 2034 4750 
z
" transform="scale(0.015625)"/>
       </defs>
       <use xlink:href="#DejaVuSans-30"/>
      </g>
     </g>
    </g>
    <g id="xtick_2">
     <g id="line2d_33">
      <path d="M 251.928304 293.76 
L 251.928304 3.456 
" clip-path="url(#p28f5f1619e)" style="fill: none; stroke: #b0b0b0; stroke-width: 0.8; stroke-linecap: square"/>
     </g>
     <g id="line2d_34">
      <g>
       <use xlink:href="#m39febcc25e" x="251.928304" y="293.76" style="stroke: #000000; stroke-width: 0.8"/>
      </g>
     </g>
     <g id="text_2">
      <!-- 2 -->
      <g transform="translate(245.565804 315.956875)scale(0.2 -0.2)">
       <defs>
        <path id="DejaVuSans-32" d="M 1228 531 
L 3431 531 
L 3431 0 
L 469 0 
L 469 531 
Q 828 903 1448 1529 
Q 2069 2156 2228 2338 
Q 2531 2678 2651 2914 
Q 2772 3150 2772 3378 
Q 2772 3750 2511 3984 
Q 2250 4219 1831 4219 
Q 1534 4219 1204 4116 
Q 875 4013 500 3803 
L 500 4441 
Q 881 4594 1212 4672 
Q 1544 4750 1819 4750 
Q 2544 4750 2975 4387 
Q 3406 4025 3406 3419 
Q 3406 3131 3298 2873 
Q 3191 2616 2906 2266 
Q 2828 2175 2409 1742 
Q 1991 1309 1228 531 
z
" transform="scale(0.015625)"/>
       </defs>
       <use xlink:href="#DejaVuSans-32"/>
      </g>
     </g>
    </g>
    <g id="xtick_3">
     <g id="line2d_35">
      <path d="M 441.648609 293.76 
L 441.648609 3.456 
" clip-path="url(#p28f5f1619e)" style="fill: none; stroke: #b0b0b0; stroke-width: 0.8; stroke-linecap: square"/>
     </g>
     <g id="line2d_36">
      <g>
       <use xlink:href="#m39febcc25e" x="441.648609" y="293.76" style="stroke: #000000; stroke-width: 0.8"/>
      </g>
     </g>
     <g id="text_3">
      <!-- 4 -->
      <g transform="translate(435.286109 315.956875)scale(0.2 -0.2)">
       <defs>
        <path id="DejaVuSans-34" d="M 2419 4116 
L 825 1625 
L 2419 1625 
L 2419 4116 
z
M 2253 4666 
L 3047 4666 
L 3047 1625 
L 3713 1625 
L 3713 1100 
L 3047 1100 
L 3047 0 
L 2419 0 
L 2419 1100 
L 313 1100 
L 313 1709 
L 2253 4666 
z
" transform="scale(0.015625)"/>
       </defs>
       <use xlink:href="#DejaVuSans-34"/>
      </g>
     </g>
    </g>
    <g id="xtick_4">
     <g id="line2d_37">
      <path d="M 90.763751 293.76 
L 90.763751 3.456 
" clip-path="url(#p28f5f1619e)" style="fill: none; stroke: #b0b0b0; stroke-width: 0.8; stroke-linecap: square"/>
     </g>
     <g id="line2d_38">
      <defs>
       <path id="m91fa0f231f" d="M 0 0 
L 0 2 
" style="stroke: #000000; stroke-width: 0.6"/>
      </defs>
      <g>
       <use xlink:href="#m91fa0f231f" x="90.763751" y="293.76" style="stroke: #000000; stroke-width: 0.6"/>
      </g>
     </g>
    </g>
    <g id="xtick_5">
     <g id="line2d_39">
      <path d="M 107.467795 293.76 
L 107.467795 3.456 
" clip-path="url(#p28f5f1619e)" style="fill: none; stroke: #b0b0b0; stroke-width: 0.8; stroke-linecap: square"/>
     </g>
     <g id="line2d_40">
      <g>
       <use xlink:href="#m91fa0f231f" x="107.467795" y="293.76" style="stroke: #000000; stroke-width: 0.6"/>
      </g>
     </g>
    </g>
    <g id="xtick_6">
     <g id="line2d_41">
      <path d="M 119.319502 293.76 
L 119.319502 3.456 
" clip-path="url(#p28f5f1619e)" style="fill: none; stroke: #b0b0b0; stroke-width: 0.8; stroke-linecap: square"/>
     </g>
     <g id="line2d_42">
      <g>
       <use xlink:href="#m91fa0f231f" x="119.319502" y="293.76" style="stroke: #000000; stroke-width: 0.6"/>
      </g>
     </g>
    </g>
    <g id="xtick_7">
     <g id="line2d_43">
      <path d="M 128.512401 293.76 
L 128.512401 3.456 
" clip-path="url(#p28f5f1619e)" style="fill: none; stroke: #b0b0b0; stroke-width: 0.8; stroke-linecap: square"/>
     </g>
     <g id="line2d_44">
      <g>
       <use xlink:href="#m91fa0f231f" x="128.512401" y="293.76" style="stroke: #000000; stroke-width: 0.6"/>
      </g>
     </g>
    </g>
    <g id="xtick_8">
     <g id="line2d_45">
      <path d="M 136.023546 293.76 
L 136.023546 3.456 
" clip-path="url(#p28f5f1619e)" style="fill: none; stroke: #b0b0b0; stroke-width: 0.8; stroke-linecap: square"/>
     </g>
     <g id="line2d_46">
      <g>
       <use xlink:href="#m91fa0f231f" x="136.023546" y="293.76" style="stroke: #000000; stroke-width: 0.6"/>
      </g>
     </g>
    </g>
    <g id="xtick_9">
     <g id="line2d_47">
      <path d="M 142.374129 293.76 
L 142.374129 3.456 
" clip-path="url(#p28f5f1619e)" style="fill: none; stroke: #b0b0b0; stroke-width: 0.8; stroke-linecap: square"/>
     </g>
     <g id="line2d_48">
      <g>
       <use xlink:href="#m91fa0f231f" x="142.374129" y="293.76" style="stroke: #000000; stroke-width: 0.6"/>
      </g>
     </g>
    </g>
    <g id="xtick_10">
     <g id="line2d_49">
      <path d="M 147.875254 293.76 
L 147.875254 3.456 
" clip-path="url(#p28f5f1619e)" style="fill: none; stroke: #b0b0b0; stroke-width: 0.8; stroke-linecap: square"/>
     </g>
     <g id="line2d_50">
      <g>
       <use xlink:href="#m91fa0f231f" x="147.875254" y="293.76" style="stroke: #000000; stroke-width: 0.6"/>
      </g>
     </g>
    </g>
    <g id="xtick_11">
     <g id="line2d_51">
      <path d="M 152.72759 293.76 
L 152.72759 3.456 
" clip-path="url(#p28f5f1619e)" style="fill: none; stroke: #b0b0b0; stroke-width: 0.8; stroke-linecap: square"/>
     </g>
     <g id="line2d_52">
      <g>
       <use xlink:href="#m91fa0f231f" x="152.72759" y="293.76" style="stroke: #000000; stroke-width: 0.6"/>
      </g>
     </g>
    </g>
    <g id="xtick_12">
     <g id="line2d_53">
      <path d="M 185.623903 293.76 
L 185.623903 3.456 
" clip-path="url(#p28f5f1619e)" style="fill: none; stroke: #b0b0b0; stroke-width: 0.8; stroke-linecap: square"/>
     </g>
     <g id="line2d_54">
      <g>
       <use xlink:href="#m91fa0f231f" x="185.623903" y="293.76" style="stroke: #000000; stroke-width: 0.6"/>
      </g>
     </g>
    </g>
    <g id="xtick_13">
     <g id="line2d_55">
      <path d="M 202.327947 293.76 
L 202.327947 3.456 
" clip-path="url(#p28f5f1619e)" style="fill: none; stroke: #b0b0b0; stroke-width: 0.8; stroke-linecap: square"/>
     </g>
     <g id="line2d_56">
      <g>
       <use xlink:href="#m91fa0f231f" x="202.327947" y="293.76" style="stroke: #000000; stroke-width: 0.6"/>
      </g>
     </g>
    </g>
    <g id="xtick_14">
     <g id="line2d_57">
      <path d="M 214.179655 293.76 
L 214.179655 3.456 
" clip-path="url(#p28f5f1619e)" style="fill: none; stroke: #b0b0b0; stroke-width: 0.8; stroke-linecap: square"/>
     </g>
     <g id="line2d_58">
      <g>
       <use xlink:href="#m91fa0f231f" x="214.179655" y="293.76" style="stroke: #000000; stroke-width: 0.6"/>
      </g>
     </g>
    </g>
    <g id="xtick_15">
     <g id="line2d_59">
      <path d="M 223.372553 293.76 
L 223.372553 3.456 
" clip-path="url(#p28f5f1619e)" style="fill: none; stroke: #b0b0b0; stroke-width: 0.8; stroke-linecap: square"/>
     </g>
     <g id="line2d_60">
      <g>
       <use xlink:href="#m91fa0f231f" x="223.372553" y="293.76" style="stroke: #000000; stroke-width: 0.6"/>
      </g>
     </g>
    </g>
    <g id="xtick_16">
     <g id="line2d_61">
      <path d="M 230.883698 293.76 
L 230.883698 3.456 
" clip-path="url(#p28f5f1619e)" style="fill: none; stroke: #b0b0b0; stroke-width: 0.8; stroke-linecap: square"/>
     </g>
     <g id="line2d_62">
      <g>
       <use xlink:href="#m91fa0f231f" x="230.883698" y="293.76" style="stroke: #000000; stroke-width: 0.6"/>
      </g>
     </g>
    </g>
    <g id="xtick_17">
     <g id="line2d_63">
      <path d="M 237.234281 293.76 
L 237.234281 3.456 
" clip-path="url(#p28f5f1619e)" style="fill: none; stroke: #b0b0b0; stroke-width: 0.8; stroke-linecap: square"/>
     </g>
     <g id="line2d_64">
      <g>
       <use xlink:href="#m91fa0f231f" x="237.234281" y="293.76" style="stroke: #000000; stroke-width: 0.6"/>
      </g>
     </g>
    </g>
    <g id="xtick_18">
     <g id="line2d_65">
      <path d="M 242.735406 293.76 
L 242.735406 3.456 
" clip-path="url(#p28f5f1619e)" style="fill: none; stroke: #b0b0b0; stroke-width: 0.8; stroke-linecap: square"/>
     </g>
     <g id="line2d_66">
      <g>
       <use xlink:href="#m91fa0f231f" x="242.735406" y="293.76" style="stroke: #000000; stroke-width: 0.6"/>
      </g>
     </g>
    </g>
    <g id="xtick_19">
     <g id="line2d_67">
      <path d="M 247.587742 293.76 
L 247.587742 3.456 
" clip-path="url(#p28f5f1619e)" style="fill: none; stroke: #b0b0b0; stroke-width: 0.8; stroke-linecap: square"/>
     </g>
     <g id="line2d_68">
      <g>
       <use xlink:href="#m91fa0f231f" x="247.587742" y="293.76" style="stroke: #000000; stroke-width: 0.6"/>
      </g>
     </g>
    </g>
    <g id="xtick_20">
     <g id="line2d_69">
      <path d="M 280.484056 293.76 
L 280.484056 3.456 
" clip-path="url(#p28f5f1619e)" style="fill: none; stroke: #b0b0b0; stroke-width: 0.8; stroke-linecap: square"/>
     </g>
     <g id="line2d_70">
      <g>
       <use xlink:href="#m91fa0f231f" x="280.484056" y="293.76" style="stroke: #000000; stroke-width: 0.6"/>
      </g>
     </g>
    </g>
    <g id="xtick_21">
     <g id="line2d_71">
      <path d="M 297.188099 293.76 
L 297.188099 3.456 
" clip-path="url(#p28f5f1619e)" style="fill: none; stroke: #b0b0b0; stroke-width: 0.8; stroke-linecap: square"/>
     </g>
     <g id="line2d_72">
      <g>
       <use xlink:href="#m91fa0f231f" x="297.188099" y="293.76" style="stroke: #000000; stroke-width: 0.6"/>
      </g>
     </g>
    </g>
    <g id="xtick_22">
     <g id="line2d_73">
      <path d="M 309.039807 293.76 
L 309.039807 3.456 
" clip-path="url(#p28f5f1619e)" style="fill: none; stroke: #b0b0b0; stroke-width: 0.8; stroke-linecap: square"/>
     </g>
     <g id="line2d_74">
      <g>
       <use xlink:href="#m91fa0f231f" x="309.039807" y="293.76" style="stroke: #000000; stroke-width: 0.6"/>
      </g>
     </g>
    </g>
    <g id="xtick_23">
     <g id="line2d_75">
      <path d="M 318.232705 293.76 
L 318.232705 3.456 
" clip-path="url(#p28f5f1619e)" style="fill: none; stroke: #b0b0b0; stroke-width: 0.8; stroke-linecap: square"/>
     </g>
     <g id="line2d_76">
      <g>
       <use xlink:href="#m91fa0f231f" x="318.232705" y="293.76" style="stroke: #000000; stroke-width: 0.6"/>
      </g>
     </g>
    </g>
    <g id="xtick_24">
     <g id="line2d_77">
      <path d="M 325.74385 293.76 
L 325.74385 3.456 
" clip-path="url(#p28f5f1619e)" style="fill: none; stroke: #b0b0b0; stroke-width: 0.8; stroke-linecap: square"/>
     </g>
     <g id="line2d_78">
      <g>
       <use xlink:href="#m91fa0f231f" x="325.74385" y="293.76" style="stroke: #000000; stroke-width: 0.6"/>
      </g>
     </g>
    </g>
    <g id="xtick_25">
     <g id="line2d_79">
      <path d="M 332.094433 293.76 
L 332.094433 3.456 
" clip-path="url(#p28f5f1619e)" style="fill: none; stroke: #b0b0b0; stroke-width: 0.8; stroke-linecap: square"/>
     </g>
     <g id="line2d_80">
      <g>
       <use xlink:href="#m91fa0f231f" x="332.094433" y="293.76" style="stroke: #000000; stroke-width: 0.6"/>
      </g>
     </g>
    </g>
    <g id="xtick_26">
     <g id="line2d_81">
      <path d="M 337.595558 293.76 
L 337.595558 3.456 
" clip-path="url(#p28f5f1619e)" style="fill: none; stroke: #b0b0b0; stroke-width: 0.8; stroke-linecap: square"/>
     </g>
     <g id="line2d_82">
      <g>
       <use xlink:href="#m91fa0f231f" x="337.595558" y="293.76" style="stroke: #000000; stroke-width: 0.6"/>
      </g>
     </g>
    </g>
    <g id="xtick_27">
     <g id="line2d_83">
      <path d="M 342.447894 293.76 
L 342.447894 3.456 
" clip-path="url(#p28f5f1619e)" style="fill: none; stroke: #b0b0b0; stroke-width: 0.8; stroke-linecap: square"/>
     </g>
     <g id="line2d_84">
      <g>
       <use xlink:href="#m91fa0f231f" x="342.447894" y="293.76" style="stroke: #000000; stroke-width: 0.6"/>
      </g>
     </g>
    </g>
    <g id="xtick_28">
     <g id="line2d_85">
      <path d="M 375.344208 293.76 
L 375.344208 3.456 
" clip-path="url(#p28f5f1619e)" style="fill: none; stroke: #b0b0b0; stroke-width: 0.8; stroke-linecap: square"/>
     </g>
     <g id="line2d_86">
      <g>
       <use xlink:href="#m91fa0f231f" x="375.344208" y="293.76" style="stroke: #000000; stroke-width: 0.6"/>
      </g>
     </g>
    </g>
    <g id="xtick_29">
     <g id="line2d_87">
      <path d="M 392.048251 293.76 
L 392.048251 3.456 
" clip-path="url(#p28f5f1619e)" style="fill: none; stroke: #b0b0b0; stroke-width: 0.8; stroke-linecap: square"/>
     </g>
     <g id="line2d_88">
      <g>
       <use xlink:href="#m91fa0f231f" x="392.048251" y="293.76" style="stroke: #000000; stroke-width: 0.6"/>
      </g>
     </g>
    </g>
    <g id="xtick_30">
     <g id="line2d_89">
      <path d="M 403.899959 293.76 
L 403.899959 3.456 
" clip-path="url(#p28f5f1619e)" style="fill: none; stroke: #b0b0b0; stroke-width: 0.8; stroke-linecap: square"/>
     </g>
     <g id="line2d_90">
      <g>
       <use xlink:href="#m91fa0f231f" x="403.899959" y="293.76" style="stroke: #000000; stroke-width: 0.6"/>
      </g>
     </g>
    </g>
    <g id="xtick_31">
     <g id="line2d_91">
      <path d="M 413.092857 293.76 
L 413.092857 3.456 
" clip-path="url(#p28f5f1619e)" style="fill: none; stroke: #b0b0b0; stroke-width: 0.8; stroke-linecap: square"/>
     </g>
     <g id="line2d_92">
      <g>
       <use xlink:href="#m91fa0f231f" x="413.092857" y="293.76" style="stroke: #000000; stroke-width: 0.6"/>
      </g>
     </g>
    </g>
    <g id="xtick_32">
     <g id="line2d_93">
      <path d="M 420.604003 293.76 
L 420.604003 3.456 
" clip-path="url(#p28f5f1619e)" style="fill: none; stroke: #b0b0b0; stroke-width: 0.8; stroke-linecap: square"/>
     </g>
     <g id="line2d_94">
      <g>
       <use xlink:href="#m91fa0f231f" x="420.604003" y="293.76" style="stroke: #000000; stroke-width: 0.6"/>
      </g>
     </g>
    </g>
    <g id="xtick_33">
     <g id="line2d_95">
      <path d="M 426.954585 293.76 
L 426.954585 3.456 
" clip-path="url(#p28f5f1619e)" style="fill: none; stroke: #b0b0b0; stroke-width: 0.8; stroke-linecap: square"/>
     </g>
     <g id="line2d_96">
      <g>
       <use xlink:href="#m91fa0f231f" x="426.954585" y="293.76" style="stroke: #000000; stroke-width: 0.6"/>
      </g>
     </g>
    </g>
    <g id="xtick_34">
     <g id="line2d_97">
      <path d="M 432.45571 293.76 
L 432.45571 3.456 
" clip-path="url(#p28f5f1619e)" style="fill: none; stroke: #b0b0b0; stroke-width: 0.8; stroke-linecap: square"/>
     </g>
     <g id="line2d_98">
      <g>
       <use xlink:href="#m91fa0f231f" x="432.45571" y="293.76" style="stroke: #000000; stroke-width: 0.6"/>
      </g>
     </g>
    </g>
    <g id="xtick_35">
     <g id="line2d_99">
      <path d="M 437.308046 293.76 
L 437.308046 3.456 
" clip-path="url(#p28f5f1619e)" style="fill: none; stroke: #b0b0b0; stroke-width: 0.8; stroke-linecap: square"/>
     </g>
     <g id="line2d_100">
      <g>
       <use xlink:href="#m91fa0f231f" x="437.308046" y="293.76" style="stroke: #000000; stroke-width: 0.6"/>
      </g>
     </g>
    </g>
    <g id="text_4">
     <!-- log10 of FEvals / DIM -->
     <g transform="translate(156.430563 339.313125)scale(0.2 -0.2)">
      <defs>
       <path id="DejaVuSans-6c" d="M 603 4863 
L 1178 4863 
L 1178 0 
L 603 0 
L 603 4863 
z
" transform="scale(0.015625)"/>
       <path id="DejaVuSans-6f" d="M 1959 3097 
Q 1497 3097 1228 2736 
Q 959 2375 959 1747 
Q 959 1119 1226 758 
Q 1494 397 1959 397 
Q 2419 397 2687 759 
Q 2956 1122 2956 1747 
Q 2956 2369 2687 2733 
Q 2419 3097 1959 3097 
z
M 1959 3584 
Q 2709 3584 3137 3096 
Q 3566 2609 3566 1747 
Q 3566 888 3137 398 
Q 2709 -91 1959 -91 
Q 1206 -91 779 398 
Q 353 888 353 1747 
Q 353 2609 779 3096 
Q 1206 3584 1959 3584 
z
" transform="scale(0.015625)"/>
       <path id="DejaVuSans-67" d="M 2906 1791 
Q 2906 2416 2648 2759 
Q 2391 3103 1925 3103 
Q 1463 3103 1205 2759 
Q 947 2416 947 1791 
Q 947 1169 1205 825 
Q 1463 481 1925 481 
Q 2391 481 2648 825 
Q 2906 1169 2906 1791 
z
M 3481 434 
Q 3481 -459 3084 -895 
Q 2688 -1331 1869 -1331 
Q 1566 -1331 1297 -1286 
Q 1028 -1241 775 -1147 
L 775 -588 
Q 1028 -725 1275 -790 
Q 1522 -856 1778 -856 
Q 2344 -856 2625 -561 
Q 2906 -266 2906 331 
L 2906 616 
Q 2728 306 2450 153 
Q 2172 0 1784 0 
Q 1141 0 747 490 
Q 353 981 353 1791 
Q 353 2603 747 3093 
Q 1141 3584 1784 3584 
Q 2172 3584 2450 3431 
Q 2728 3278 2906 2969 
L 2906 3500 
L 3481 3500 
L 3481 434 
z
" transform="scale(0.015625)"/>
       <path id="DejaVuSans-31" d="M 794 531 
L 1825 531 
L 1825 4091 
L 703 3866 
L 703 4441 
L 1819 4666 
L 2450 4666 
L 2450 531 
L 3481 531 
L 3481 0 
L 794 0 
L 794 531 
z
" transform="scale(0.015625)"/>
       <path id="DejaVuSans-20" transform="scale(0.015625)"/>
       <path id="DejaVuSans-66" d="M 2375 4863 
L 2375 4384 
L 1825 4384 
Q 1516 4384 1395 4259 
Q 1275 4134 1275 3809 
L 1275 3500 
L 2222 3500 
L 2222 3053 
L 1275 3053 
L 1275 0 
L 697 0 
L 697 3053 
L 147 3053 
L 147 3500 
L 697 3500 
L 697 3744 
Q 697 4328 969 4595 
Q 1241 4863 1831 4863 
L 2375 4863 
z
" transform="scale(0.015625)"/>
       <path id="DejaVuSans-46" d="M 628 4666 
L 3309 4666 
L 3309 4134 
L 1259 4134 
L 1259 2759 
L 3109 2759 
L 3109 2228 
L 1259 2228 
L 1259 0 
L 628 0 
L 628 4666 
z
" transform="scale(0.015625)"/>
       <path id="DejaVuSans-45" d="M 628 4666 
L 3578 4666 
L 3578 4134 
L 1259 4134 
L 1259 2753 
L 3481 2753 
L 3481 2222 
L 1259 2222 
L 1259 531 
L 3634 531 
L 3634 0 
L 628 0 
L 628 4666 
z
" transform="scale(0.015625)"/>
       <path id="DejaVuSans-76" d="M 191 3500 
L 800 3500 
L 1894 563 
L 2988 3500 
L 3597 3500 
L 2284 0 
L 1503 0 
L 191 3500 
z
" transform="scale(0.015625)"/>
       <path id="DejaVuSans-61" d="M 2194 1759 
Q 1497 1759 1228 1600 
Q 959 1441 959 1056 
Q 959 750 1161 570 
Q 1363 391 1709 391 
Q 2188 391 2477 730 
Q 2766 1069 2766 1631 
L 2766 1759 
L 2194 1759 
z
M 3341 1997 
L 3341 0 
L 2766 0 
L 2766 531 
Q 2569 213 2275 61 
Q 1981 -91 1556 -91 
Q 1019 -91 701 211 
Q 384 513 384 1019 
Q 384 1609 779 1909 
Q 1175 2209 1959 2209 
L 2766 2209 
L 2766 2266 
Q 2766 2663 2505 2880 
Q 2244 3097 1772 3097 
Q 1472 3097 1187 3025 
Q 903 2953 641 2809 
L 641 3341 
Q 956 3463 1253 3523 
Q 1550 3584 1831 3584 
Q 2591 3584 2966 3190 
Q 3341 2797 3341 1997 
z
" transform="scale(0.015625)"/>
       <path id="DejaVuSans-73" d="M 2834 3397 
L 2834 2853 
Q 2591 2978 2328 3040 
Q 2066 3103 1784 3103 
Q 1356 3103 1142 2972 
Q 928 2841 928 2578 
Q 928 2378 1081 2264 
Q 1234 2150 1697 2047 
L 1894 2003 
Q 2506 1872 2764 1633 
Q 3022 1394 3022 966 
Q 3022 478 2636 193 
Q 2250 -91 1575 -91 
Q 1294 -91 989 -36 
Q 684 19 347 128 
L 347 722 
Q 666 556 975 473 
Q 1284 391 1588 391 
Q 1994 391 2212 530 
Q 2431 669 2431 922 
Q 2431 1156 2273 1281 
Q 2116 1406 1581 1522 
L 1381 1569 
Q 847 1681 609 1914 
Q 372 2147 372 2553 
Q 372 3047 722 3315 
Q 1072 3584 1716 3584 
Q 2034 3584 2315 3537 
Q 2597 3491 2834 3397 
z
" transform="scale(0.015625)"/>
       <path id="DejaVuSans-2f" d="M 1625 4666 
L 2156 4666 
L 531 -594 
L 0 -594 
L 1625 4666 
z
" transform="scale(0.015625)"/>
       <path id="DejaVuSans-44" d="M 1259 4147 
L 1259 519 
L 2022 519 
Q 2988 519 3436 956 
Q 3884 1394 3884 2338 
Q 3884 3275 3436 3711 
Q 2988 4147 2022 4147 
L 1259 4147 
z
M 628 4666 
L 1925 4666 
Q 3281 4666 3915 4102 
Q 4550 3538 4550 2338 
Q 4550 1131 3912 565 
Q 3275 0 1925 0 
L 628 0 
L 628 4666 
z
" transform="scale(0.015625)"/>
       <path id="DejaVuSans-49" d="M 628 4666 
L 1259 4666 
L 1259 0 
L 628 0 
L 628 4666 
z
" transform="scale(0.015625)"/>
       <path id="DejaVuSans-4d" d="M 628 4666 
L 1569 4666 
L 2759 1491 
L 3956 4666 
L 4897 4666 
L 4897 0 
L 4281 0 
L 4281 4097 
L 3078 897 
L 2444 897 
L 1241 4097 
L 1241 0 
L 628 0 
L 628 4666 
z
" transform="scale(0.015625)"/>
      </defs>
      <use xlink:href="#DejaVuSans-6c"/>
      <use xlink:href="#DejaVuSans-6f" x="27.783203"/>
      <use xlink:href="#DejaVuSans-67" x="88.964844"/>
      <use xlink:href="#DejaVuSans-31" x="152.441406"/>
      <use xlink:href="#DejaVuSans-30" x="216.064453"/>
      <use xlink:href="#DejaVuSans-20" x="279.6875"/>
      <use xlink:href="#DejaVuSans-6f" x="311.474609"/>
      <use xlink:href="#DejaVuSans-66" x="372.65625"/>
      <use xlink:href="#DejaVuSans-20" x="407.861328"/>
      <use xlink:href="#DejaVuSans-46" x="439.648438"/>
      <use xlink:href="#DejaVuSans-45" x="497.167969"/>
      <use xlink:href="#DejaVuSans-76" x="560.351562"/>
      <use xlink:href="#DejaVuSans-61" x="619.53125"/>
      <use xlink:href="#DejaVuSans-6c" x="680.810547"/>
      <use xlink:href="#DejaVuSans-73" x="708.59375"/>
      <use xlink:href="#DejaVuSans-20" x="760.693359"/>
      <use xlink:href="#DejaVuSans-2f" x="792.480469"/>
      <use xlink:href="#DejaVuSans-20" x="826.171875"/>
      <use xlink:href="#DejaVuSans-44" x="857.958984"/>
      <use xlink:href="#DejaVuSans-49" x="934.960938"/>
      <use xlink:href="#DejaVuSans-4d" x="964.453125"/>
     </g>
    </g>
   </g>
   <g id="matplotlib.axis_2">
    <g id="ytick_1">
     <g id="line2d_101">
      <path d="M 62.208 293.76 
L 460.8 293.76 
" clip-path="url(#p28f5f1619e)" style="fill: none; stroke: #b0b0b0; stroke-width: 0.8; stroke-linecap: square"/>
     </g>
     <g id="line2d_102">
      <defs>
       <path id="m0fba11951e" d="M 0 0 
L -3.5 0 
" style="stroke: #000000; stroke-width: 0.8"/>
      </defs>
      <g>
       <use xlink:href="#m0fba11951e" x="62.208" y="293.76" style="stroke: #000000; stroke-width: 0.8"/>
      </g>
     </g>
     <g id="text_5">
      <!-- 0.0 -->
      <g transform="translate(29.763 299.83875)scale(0.16 -0.16)">
       <defs>
        <path id="DejaVuSans-2e" d="M 684 794 
L 1344 794 
L 1344 0 
L 684 0 
L 684 794 
z
" transform="scale(0.015625)"/>
       </defs>
       <use xlink:href="#DejaVuSans-30"/>
       <use xlink:href="#DejaVuSans-2e" x="63.623047"/>
       <use xlink:href="#DejaVuSans-30" x="95.410156"/>
      </g>
     </g>
    </g>
    <g id="ytick_2">
     <g id="line2d_103">
      <path d="M 62.208 236.274059 
L 460.8 236.274059 
" clip-path="url(#p28f5f1619e)" style="fill: none; stroke: #b0b0b0; stroke-width: 0.8; stroke-linecap: square"/>
     </g>
     <g id="line2d_104">
      <g>
       <use xlink:href="#m0fba11951e" x="62.208" y="236.274059" style="stroke: #000000; stroke-width: 0.8"/>
      </g>
     </g>
     <g id="text_6">
      <!-- 0.2 -->
      <g transform="translate(29.763 242.352809)scale(0.16 -0.16)">
       <use xlink:href="#DejaVuSans-30"/>
       <use xlink:href="#DejaVuSans-2e" x="63.623047"/>
       <use xlink:href="#DejaVuSans-32" x="95.410156"/>
      </g>
     </g>
    </g>
    <g id="ytick_3">
     <g id="line2d_105">
      <path d="M 62.208 178.788119 
L 460.8 178.788119 
" clip-path="url(#p28f5f1619e)" style="fill: none; stroke: #b0b0b0; stroke-width: 0.8; stroke-linecap: square"/>
     </g>
     <g id="line2d_106">
      <g>
       <use xlink:href="#m0fba11951e" x="62.208" y="178.788119" style="stroke: #000000; stroke-width: 0.8"/>
      </g>
     </g>
     <g id="text_7">
      <!-- 0.4 -->
      <g transform="translate(29.763 184.866869)scale(0.16 -0.16)">
       <use xlink:href="#DejaVuSans-30"/>
       <use xlink:href="#DejaVuSans-2e" x="63.623047"/>
       <use xlink:href="#DejaVuSans-34" x="95.410156"/>
      </g>
     </g>
    </g>
    <g id="ytick_4">
     <g id="line2d_107">
      <path d="M 62.208 121.302178 
L 460.8 121.302178 
" clip-path="url(#p28f5f1619e)" style="fill: none; stroke: #b0b0b0; stroke-width: 0.8; stroke-linecap: square"/>
     </g>
     <g id="line2d_108">
      <g>
       <use xlink:href="#m0fba11951e" x="62.208" y="121.302178" style="stroke: #000000; stroke-width: 0.8"/>
      </g>
     </g>
     <g id="text_8">
      <!-- 0.6 -->
      <g transform="translate(29.763 127.380928)scale(0.16 -0.16)">
       <defs>
        <path id="DejaVuSans-36" d="M 2113 2584 
Q 1688 2584 1439 2293 
Q 1191 2003 1191 1497 
Q 1191 994 1439 701 
Q 1688 409 2113 409 
Q 2538 409 2786 701 
Q 3034 994 3034 1497 
Q 3034 2003 2786 2293 
Q 2538 2584 2113 2584 
z
M 3366 4563 
L 3366 3988 
Q 3128 4100 2886 4159 
Q 2644 4219 2406 4219 
Q 1781 4219 1451 3797 
Q 1122 3375 1075 2522 
Q 1259 2794 1537 2939 
Q 1816 3084 2150 3084 
Q 2853 3084 3261 2657 
Q 3669 2231 3669 1497 
Q 3669 778 3244 343 
Q 2819 -91 2113 -91 
Q 1303 -91 875 529 
Q 447 1150 447 2328 
Q 447 3434 972 4092 
Q 1497 4750 2381 4750 
Q 2619 4750 2861 4703 
Q 3103 4656 3366 4563 
z
" transform="scale(0.015625)"/>
       </defs>
       <use xlink:href="#DejaVuSans-30"/>
       <use xlink:href="#DejaVuSans-2e" x="63.623047"/>
       <use xlink:href="#DejaVuSans-36" x="95.410156"/>
      </g>
     </g>
    </g>
    <g id="ytick_5">
     <g id="line2d_109">
      <path d="M 62.208 63.816238 
L 460.8 63.816238 
" clip-path="url(#p28f5f1619e)" style="fill: none; stroke: #b0b0b0; stroke-width: 0.8; stroke-linecap: square"/>
     </g>
     <g id="line2d_110">
      <g>
       <use xlink:href="#m0fba11951e" x="62.208" y="63.816238" style="stroke: #000000; stroke-width: 0.8"/>
      </g>
     </g>
     <g id="text_9">
      <!-- 0.8 -->
      <g transform="translate(29.763 69.894988)scale(0.16 -0.16)">
       <defs>
        <path id="DejaVuSans-38" d="M 2034 2216 
Q 1584 2216 1326 1975 
Q 1069 1734 1069 1313 
Q 1069 891 1326 650 
Q 1584 409 2034 409 
Q 2484 409 2743 651 
Q 3003 894 3003 1313 
Q 3003 1734 2745 1975 
Q 2488 2216 2034 2216 
z
M 1403 2484 
Q 997 2584 770 2862 
Q 544 3141 544 3541 
Q 544 4100 942 4425 
Q 1341 4750 2034 4750 
Q 2731 4750 3128 4425 
Q 3525 4100 3525 3541 
Q 3525 3141 3298 2862 
Q 3072 2584 2669 2484 
Q 3125 2378 3379 2068 
Q 3634 1759 3634 1313 
Q 3634 634 3220 271 
Q 2806 -91 2034 -91 
Q 1263 -91 848 271 
Q 434 634 434 1313 
Q 434 1759 690 2068 
Q 947 2378 1403 2484 
z
M 1172 3481 
Q 1172 3119 1398 2916 
Q 1625 2713 2034 2713 
Q 2441 2713 2670 2916 
Q 2900 3119 2900 3481 
Q 2900 3844 2670 4047 
Q 2441 4250 2034 4250 
Q 1625 4250 1398 4047 
Q 1172 3844 1172 3481 
z
" transform="scale(0.015625)"/>
       </defs>
       <use xlink:href="#DejaVuSans-30"/>
       <use xlink:href="#DejaVuSans-2e" x="63.623047"/>
       <use xlink:href="#DejaVuSans-38" x="95.410156"/>
      </g>
     </g>
    </g>
    <g id="ytick_6">
     <g id="line2d_111">
      <path d="M 62.208 6.330297 
L 460.8 6.330297 
" clip-path="url(#p28f5f1619e)" style="fill: none; stroke: #b0b0b0; stroke-width: 0.8; stroke-linecap: square"/>
     </g>
     <g id="line2d_112">
      <g>
       <use xlink:href="#m0fba11951e" x="62.208" y="6.330297" style="stroke: #000000; stroke-width: 0.8"/>
      </g>
     </g>
     <g id="text_10">
      <!-- 1.0 -->
      <g transform="translate(29.763 12.409047)scale(0.16 -0.16)">
       <use xlink:href="#DejaVuSans-31"/>
       <use xlink:href="#DejaVuSans-2e" x="63.623047"/>
       <use xlink:href="#DejaVuSans-30" x="95.410156"/>
      </g>
     </g>
    </g>
    <g id="text_11">
     <!-- proportion of trials -->
     <g transform="translate(21.603625 241.61425)rotate(-90)scale(0.2 -0.2)">
      <defs>
       <path id="DejaVuSans-70" d="M 1159 525 
L 1159 -1331 
L 581 -1331 
L 581 3500 
L 1159 3500 
L 1159 2969 
Q 1341 3281 1617 3432 
Q 1894 3584 2278 3584 
Q 2916 3584 3314 3078 
Q 3713 2572 3713 1747 
Q 3713 922 3314 415 
Q 2916 -91 2278 -91 
Q 1894 -91 1617 61 
Q 1341 213 1159 525 
z
M 3116 1747 
Q 3116 2381 2855 2742 
Q 2594 3103 2138 3103 
Q 1681 3103 1420 2742 
Q 1159 2381 1159 1747 
Q 1159 1113 1420 752 
Q 1681 391 2138 391 
Q 2594 391 2855 752 
Q 3116 1113 3116 1747 
z
" transform="scale(0.015625)"/>
       <path id="DejaVuSans-72" d="M 2631 2963 
Q 2534 3019 2420 3045 
Q 2306 3072 2169 3072 
Q 1681 3072 1420 2755 
Q 1159 2438 1159 1844 
L 1159 0 
L 581 0 
L 581 3500 
L 1159 3500 
L 1159 2956 
Q 1341 3275 1631 3429 
Q 1922 3584 2338 3584 
Q 2397 3584 2469 3576 
Q 2541 3569 2628 3553 
L 2631 2963 
z
" transform="scale(0.015625)"/>
       <path id="DejaVuSans-74" d="M 1172 4494 
L 1172 3500 
L 2356 3500 
L 2356 3053 
L 1172 3053 
L 1172 1153 
Q 1172 725 1289 603 
Q 1406 481 1766 481 
L 2356 481 
L 2356 0 
L 1766 0 
Q 1100 0 847 248 
Q 594 497 594 1153 
L 594 3053 
L 172 3053 
L 172 3500 
L 594 3500 
L 594 4494 
L 1172 4494 
z
" transform="scale(0.015625)"/>
       <path id="DejaVuSans-69" d="M 603 3500 
L 1178 3500 
L 1178 0 
L 603 0 
L 603 3500 
z
M 603 4863 
L 1178 4863 
L 1178 4134 
L 603 4134 
L 603 4863 
z
" transform="scale(0.015625)"/>
       <path id="DejaVuSans-6e" d="M 3513 2113 
L 3513 0 
L 2938 0 
L 2938 2094 
Q 2938 2591 2744 2837 
Q 2550 3084 2163 3084 
Q 1697 3084 1428 2787 
Q 1159 2491 1159 1978 
L 1159 0 
L 581 0 
L 581 3500 
L 1159 3500 
L 1159 2956 
Q 1366 3272 1645 3428 
Q 1925 3584 2291 3584 
Q 2894 3584 3203 3211 
Q 3513 2838 3513 2113 
z
" transform="scale(0.015625)"/>
      </defs>
      <use xlink:href="#DejaVuSans-70"/>
      <use xlink:href="#DejaVuSans-72" x="63.476562"/>
      <use xlink:href="#DejaVuSans-6f" x="102.339844"/>
      <use xlink:href="#DejaVuSans-70" x="163.521484"/>
      <use xlink:href="#DejaVuSans-6f" x="226.998047"/>
      <use xlink:href="#DejaVuSans-72" x="288.179688"/>
      <use xlink:href="#DejaVuSans-74" x="329.292969"/>
      <use xlink:href="#DejaVuSans-69" x="368.501953"/>
      <use xlink:href="#DejaVuSans-6f" x="396.285156"/>
      <use xlink:href="#DejaVuSans-6e" x="457.466797"/>
      <use xlink:href="#DejaVuSans-20" x="520.845703"/>
      <use xlink:href="#DejaVuSans-6f" x="552.632812"/>
      <use xlink:href="#DejaVuSans-66" x="613.814453"/>
      <use xlink:href="#DejaVuSans-20" x="649.019531"/>
      <use xlink:href="#DejaVuSans-74" x="680.806641"/>
      <use xlink:href="#DejaVuSans-72" x="720.015625"/>
      <use xlink:href="#DejaVuSans-69" x="761.128906"/>
      <use xlink:href="#DejaVuSans-61" x="788.912109"/>
      <use xlink:href="#DejaVuSans-6c" x="850.191406"/>
      <use xlink:href="#DejaVuSans-73" x="877.974609"/>
     </g>
    </g>
   </g>
   <g id="line2d_113">
    <path d="M -1 236.274059 
L 98.274896 236.274059 
L 98.274896 232.441663 
L 107.467795 232.441663 
L 107.467795 228.609267 
L 108.818645 228.609267 
L 108.818645 224.776871 
L 118.801291 224.776871 
L 118.801291 220.944475 
L 120.836137 220.944475 
L 120.836137 217.112079 
L 128.512401 217.112079 
L 128.512401 213.279683 
L 128.922327 213.279683 
L 128.922327 209.447287 
L 129.730142 209.447287 
L 129.730142 205.614891 
L 133.910404 205.614891 
L 133.910404 201.782495 
L 136.704508 201.782495 
L 136.704508 197.950099 
L 138.033566 197.950099 
L 138.033566 194.117703 
L 140.569581 194.117703 
L 140.569581 190.285307 
L 153.63306 190.285307 
L 153.63306 186.452911 
L 157.883966 186.452911 
L 157.883966 182.620515 
L 159.66254 182.620515 
L 159.66254 178.788119 
L 187.239689 178.788119 
L 187.239689 174.955723 
L 191.649515 174.955723 
L 191.649515 171.123327 
L 197.681084 171.123327 
L 197.681084 167.290931 
L 202.873614 167.290931 
L 202.873614 163.458535 
L 204.206974 163.458535 
L 204.206974 159.626139 
L 204.728465 159.626139 
L 204.728465 155.793743 
L 206.129434 155.793743 
L 206.129434 151.961347 
L 206.873982 151.961347 
L 206.873982 144.296554 
L 207.966168 144.296554 
L 207.966168 140.464158 
L 212.282771 140.464158 
L 212.282771 136.631762 
L 213.661443 136.631762 
L 213.765608 128.96697 
L 214.487481 128.96697 
L 214.487481 125.134574 
L 214.94495 125.134574 
L 214.94495 121.302178 
L 232.101439 121.302178 
L 232.101439 117.469782 
L 254.036297 117.469782 
L 254.036297 113.637386 
L 258.554573 113.637386 
L 258.554573 109.80499 
L 258.869057 109.80499 
L 258.869057 105.972594 
L 260.187892 105.972594 
L 260.187892 102.140198 
L 260.456717 102.140198 
L 260.456717 98.307802 
L 261.498485 98.307802 
L 261.498485 94.475406 
L 274.959383 94.475406 
L 274.959383 90.64301 
L 288.294507 90.64301 
L 288.294507 86.810614 
L 289.037581 86.810614 
L 289.037581 82.978218 
L 300.517316 82.978218 
L 300.517316 79.145822 
L 305.916985 79.145822 
L 305.916985 75.313426 
L 315.132099 75.313426 
L 315.132099 71.48103 
L 318.034482 71.48103 
L 318.034482 67.648634 
L 322.435439 67.648634 
L 322.435439 63.816238 
L 324.904548 63.816238 
L 324.904548 59.983842 
L 325.110753 59.983842 
L 325.110753 56.151446 
L 325.661373 56.151446 
L 325.661373 52.31905 
L 329.107885 52.31905 
L 329.107885 48.486653 
L 330.651079 48.486653 
L 330.651079 44.654257 
L 331.349124 44.654257 
L 331.349124 40.821861 
L 332.167934 40.821861 
L 332.167934 36.989465 
L 358.447115 36.989465 
L 358.447115 33.157069 
L 362.26031 33.157069 
L 362.26031 29.324673 
L 363.868421 29.324673 
L 363.868421 25.492277 
L 365.197976 25.492277 
L 365.197976 21.659881 
L 388.756949 21.659881 
L 388.756949 17.827485 
L 391.858997 17.827485 
L 391.858997 13.995089 
L 392.268752 13.995089 
L 392.268752 10.162693 
L 392.964244 10.162693 
L 392.964244 6.330297 
L 392.964244 6.330297 
L 460.8 6.330297 
L 460.8 6.330297 
" clip-path="url(#p28f5f1619e)" style="fill: none; stroke: #000000; stroke-width: 1.5; stroke-linecap: square"/>
   </g>
   <g id="line2d_114">
    <defs>
     <path id="m03aad36b11" d="M 0 14.142136 
L 8.485281 0 
L 0 -14.142136 
L -8.485281 0 
z
" style="stroke: #000000; stroke-width: 1.5; stroke-linejoin: miter"/>
    </defs>
    <g clip-path="url(#p28f5f1619e)">
     <use xlink:href="#m03aad36b11" x="140.569581" y="194.117703" style="fill-opacity: 0; stroke: #000000; stroke-width: 1.5; stroke-linejoin: miter"/>
     <use xlink:href="#m03aad36b11" x="213.765608" y="132.799366" style="fill-opacity: 0; stroke: #000000; stroke-width: 1.5; stroke-linejoin: miter"/>
     <use xlink:href="#m03aad36b11" x="260.456717" y="102.140198" style="fill-opacity: 0; stroke: #000000; stroke-width: 1.5; stroke-linejoin: miter"/>
     <use xlink:href="#m03aad36b11" x="331.349124" y="44.654257" style="fill-opacity: 0; stroke: #000000; stroke-width: 1.5; stroke-linejoin: miter"/>
     <use xlink:href="#m03aad36b11" x="392.964244" y="10.162693" style="fill-opacity: 0; stroke: #000000; stroke-width: 1.5; stroke-linejoin: miter"/>
     <use xlink:href="#m03aad36b11" x="392.964244" y="6.330297" style="fill-opacity: 0; stroke: #000000; stroke-width: 1.5; stroke-linejoin: miter"/>
    </g>
   </g>
   <g id="line2d_115">
    <path clip-path="url(#p28f5f1619e)" style="fill: none; stroke: #000000; stroke-width: 1.5; stroke-linecap: square"/>
    <g clip-path="url(#p28f5f1619e)">
     <use xlink:href="#m03aad36b11" x="-1" y="581.189703" style="fill-opacity: 0; stroke: #000000; stroke-width: 1.5; stroke-linejoin: miter"/>
     <use xlink:href="#m03aad36b11" x="460.8" y="581.189703" style="fill-opacity: 0; stroke: #000000; stroke-width: 1.5; stroke-linejoin: miter"/>
    </g>
   </g>
   <g id="line2d_116">
    <path d="M -1 236.274059 
L 66.134516 236.274059 
L 66.134516 232.441663 
L 81.570853 232.441663 
L 81.570853 228.609267 
L 85.262626 228.609267 
L 85.262626 224.776871 
L 102.357168 224.776871 
L 102.357168 220.944475 
L 110.765334 220.944475 
L 110.765334 217.112079 
L 112.624171 217.112079 
L 112.624171 213.279683 
L 116.660693 213.279683 
L 116.660693 209.447287 
L 117.20636 209.447287 
L 117.20636 205.614891 
L 121.329523 205.614891 
L 121.329523 201.782495 
L 124.171838 201.782495 
L 124.171838 197.950099 
L 130.912919 197.950099 
L 130.912919 194.117703 
L 140.260986 194.117703 
L 140.260986 190.285307 
L 144.663453 190.285307 
L 144.663453 186.452911 
L 144.940877 186.452911 
L 144.940877 182.620515 
L 158.485396 182.620515 
L 158.485396 178.788119 
L 183.293361 178.788119 
L 183.293361 174.955723 
L 188.603315 174.955723 
L 188.699011 167.290931 
L 190.931462 167.290931 
L 190.931462 163.458535 
L 193.646822 163.458535 
L 193.646822 159.626139 
L 194.319445 159.626139 
L 194.319445 155.793743 
L 195.954471 155.793743 
L 195.954471 151.961347 
L 199.338235 151.961347 
L 199.411999 144.296554 
L 200.431064 144.296554 
L 200.431064 140.464158 
L 202.737873 140.464158 
L 202.737873 136.631762 
L 203.612296 136.631762 
L 203.612296 132.799366 
L 204.141321 132.799366 
L 204.141321 128.96697 
L 206.441299 128.96697 
L 206.441299 125.134574 
L 214.487481 125.134574 
L 214.487481 121.302178 
L 227.485905 121.302178 
L 227.485905 117.469782 
L 236.191257 117.469782 
L 236.191257 113.637386 
L 239.188212 113.637386 
L 239.188212 109.80499 
L 243.450122 109.80499 
L 243.450122 105.972594 
L 244.892297 105.972594 
L 244.892297 102.140198 
L 245.257199 102.140198 
L 245.257199 98.307802 
L 246.450714 98.307802 
L 246.450714 94.475406 
L 248.110816 94.475406 
L 248.110816 90.64301 
L 250.268002 90.64301 
L 250.268002 86.810614 
L 251.117022 86.810614 
L 251.117022 82.978218 
L 252.010617 82.978218 
L 252.010617 79.145822 
L 252.885239 79.145822 
L 252.885239 75.313426 
L 254.88855 75.313426 
L 254.88855 71.48103 
L 255.83609 71.48103 
L 255.83609 67.648634 
L 267.150374 67.648634 
L 267.150374 63.816238 
L 323.872124 63.816238 
L 323.872124 59.983842 
L 354.105173 59.983842 
L 354.105173 56.151446 
L 354.648298 56.151446 
L 354.648298 52.31905 
L 355.598923 52.31905 
L 355.598923 48.486653 
L 357.322104 48.486653 
L 357.322104 44.654257 
L 358.222997 44.654257 
L 358.222997 40.821861 
L 359.765307 40.821861 
L 359.765307 36.989465 
L 360.939021 36.989465 
L 360.939021 33.157069 
L 361.061567 33.157069 
L 361.129976 25.492277 
L 385.30038 25.492277 
L 385.30038 21.659881 
L 386.379643 21.659881 
L 386.379643 17.827485 
L 389.146303 17.827485 
L 389.194899 10.162693 
L 418.858544 10.162693 
L 418.858544 6.330297 
L 418.858544 6.330297 
L 460.8 6.330297 
L 460.8 6.330297 
" clip-path="url(#p28f5f1619e)" style="fill: none; stroke: #000000; stroke-width: 1.5; stroke-linecap: square"/>
   </g>
   <g id="line2d_117">
    <defs>
     <path id="m48d9b49620" d="M 0 7.5 
C 1.989023 7.5 3.896849 6.709753 5.303301 5.303301 
C 6.709753 3.896849 7.5 1.989023 7.5 0 
C 7.5 -1.989023 6.709753 -3.896849 5.303301 -5.303301 
C 3.896849 -6.709753 1.989023 -7.5 0 -7.5 
C -1.989023 -7.5 -3.896849 -6.709753 -5.303301 -5.303301 
C -6.709753 -3.896849 -7.5 -1.989023 -7.5 0 
C -7.5 1.989023 -6.709753 3.896849 -5.303301 5.303301 
C -3.896849 6.709753 -1.989023 7.5 0 7.5 
z
" style="stroke: #000000; stroke-width: 1.5"/>
    </defs>
    <g clip-path="url(#p28f5f1619e)">
     <use xlink:href="#m48d9b49620" x="85.262626" y="228.609267" style="fill-opacity: 0; stroke: #000000; stroke-width: 1.5"/>
     <use xlink:href="#m48d9b49620" x="144.940877" y="186.452911" style="fill-opacity: 0; stroke: #000000; stroke-width: 1.5"/>
     <use xlink:href="#m48d9b49620" x="214.487481" y="125.134574" style="fill-opacity: 0; stroke: #000000; stroke-width: 1.5"/>
     <use xlink:href="#m48d9b49620" x="267.150374" y="67.648634" style="fill-opacity: 0; stroke: #000000; stroke-width: 1.5"/>
     <use xlink:href="#m48d9b49620" x="361.061567" y="33.157069" style="fill-opacity: 0; stroke: #000000; stroke-width: 1.5"/>
     <use xlink:href="#m48d9b49620" x="418.858544" y="10.162693" style="fill-opacity: 0; stroke: #000000; stroke-width: 1.5"/>
     <use xlink:href="#m48d9b49620" x="418.858544" y="6.330297" style="fill-opacity: 0; stroke: #000000; stroke-width: 1.5"/>
    </g>
   </g>
   <g id="line2d_118">
    <path clip-path="url(#p28f5f1619e)" style="fill: none; stroke: #000000; stroke-width: 1.5; stroke-linecap: square"/>
   </g>
   <g id="line2d_119">
    <path d="M 242.243261 293.76 
L 242.243261 289.927604 
L 245.378119 289.927604 
L 245.378119 286.095208 
L 249.203527 286.095208 
L 249.203527 282.262812 
L 249.72834 282.262812 
L 249.72834 278.430416 
L 252.66326 278.430416 
L 252.66326 274.59802 
L 252.804658 274.59802 
L 252.804658 270.765624 
L 252.985745 270.765624 
L 252.985745 266.933228 
L 253.325641 266.933228 
L 253.325641 263.100832 
L 253.643002 263.100832 
L 253.643002 259.268436 
L 257.108907 259.268436 
L 257.108907 255.43604 
L 258.781941 255.43604 
L 258.781941 251.603644 
L 259.696131 251.603644 
L 259.696131 247.771248 
L 265.032736 247.771248 
L 265.032736 243.938851 
L 270.353632 243.938851 
L 270.353632 240.106455 
L 272.69596 240.106455 
L 272.69596 236.274059 
L 287.51174 236.274059 
L 287.51174 232.441663 
L 293.045418 232.441663 
L 293.045418 228.609267 
L 312.632588 228.609267 
L 312.632588 224.776871 
L 333.701729 224.776871 
L 333.701729 220.944475 
L 335.53388 220.944475 
L 335.53388 217.112079 
L 335.85207 217.112079 
L 335.85207 213.279683 
L 337.549185 213.279683 
L 337.549185 209.447287 
L 337.770275 209.447287 
L 337.770275 205.614891 
L 337.888048 205.614891 
L 337.888048 201.782495 
L 338.287493 201.782495 
L 338.287493 197.950099 
L 338.612825 197.950099 
L 338.612825 194.117703 
L 342.993561 194.117703 
L 342.993561 190.285307 
L 343.74777 190.285307 
L 343.74777 186.452911 
L 344.002013 186.452911 
L 344.002013 182.620515 
L 347.073787 182.620515 
L 347.073787 178.788119 
L 349.132581 178.788119 
L 349.132581 174.955723 
L 349.336399 174.955723 
L 349.336399 171.123327 
L 358.572648 171.123327 
L 358.572648 167.290931 
L 361.568287 167.290931 
L 361.568287 163.458535 
L 373.238654 163.458535 
L 373.238654 159.626139 
L 380.274287 159.626139 
L 380.274287 155.793743 
L 380.453908 155.793743 
L 380.453908 151.961347 
L 391.510567 151.961347 
L 391.510567 148.12895 
L 400.254426 148.12895 
L 400.254426 144.296554 
L 405.988865 144.296554 
L 405.988865 140.464158 
L 406.657459 140.464158 
L 406.657459 136.631762 
L 407.109622 136.631762 
L 407.109622 132.799366 
L 413.12786 132.799366 
L 413.12786 128.96697 
L 414.15351 128.96697 
L 414.15351 125.134574 
L 440.285116 125.134574 
L 440.285116 121.302178 
L 440.285116 121.302178 
L 440.285116 121.302178 
L 460.8 121.302178 
" clip-path="url(#p28f5f1619e)" style="fill: none; stroke: #00bfbf; stroke-width: 1.5; stroke-linecap: square"/>
   </g>
   <g id="line2d_120">
    <defs>
     <path id="m69c1e6ca80" d="M 0 14.142136 
L 8.485281 0 
L 0 -14.142136 
L -8.485281 0 
z
" style="stroke: #00bfbf; stroke-width: 1.5; stroke-linejoin: miter"/>
    </defs>
    <g clip-path="url(#p28f5f1619e)">
     <use xlink:href="#m69c1e6ca80" x="259.696131" y="251.603644" style="fill-opacity: 0; stroke: #00bfbf; stroke-width: 1.5; stroke-linejoin: miter"/>
     <use xlink:href="#m69c1e6ca80" x="333.701729" y="224.776871" style="fill-opacity: 0; stroke: #00bfbf; stroke-width: 1.5; stroke-linejoin: miter"/>
     <use xlink:href="#m69c1e6ca80" x="358.572648" y="171.123327" style="fill-opacity: 0; stroke: #00bfbf; stroke-width: 1.5; stroke-linejoin: miter"/>
     <use xlink:href="#m69c1e6ca80" x="413.12786" y="132.799366" style="fill-opacity: 0; stroke: #00bfbf; stroke-width: 1.5; stroke-linejoin: miter"/>
     <use xlink:href="#m69c1e6ca80" x="440.285116" y="121.302178" style="fill-opacity: 0; stroke: #00bfbf; stroke-width: 1.5; stroke-linejoin: miter"/>
    </g>
   </g>
   <g id="line2d_121">
    <path clip-path="url(#p28f5f1619e)" style="fill: none; stroke: #00bfbf; stroke-width: 1.5; stroke-linecap: square"/>
    <g clip-path="url(#p28f5f1619e)">
     <use xlink:href="#m69c1e6ca80" x="-1" y="581.189703" style="fill-opacity: 0; stroke: #00bfbf; stroke-width: 1.5; stroke-linejoin: miter"/>
     <use xlink:href="#m69c1e6ca80" x="460.8" y="581.189703" style="fill-opacity: 0; stroke: #00bfbf; stroke-width: 1.5; stroke-linejoin: miter"/>
    </g>
   </g>
   <g id="line2d_122">
    <path d="M 242.399311 293.76 
L 242.399311 289.927604 
L 244.375941 289.927604 
L 244.375941 286.095208 
L 246.096276 286.095208 
L 246.096276 282.262812 
L 248.381111 282.262812 
L 248.381111 278.430416 
L 250.843005 278.430416 
L 250.843005 274.59802 
L 251.576631 274.59802 
L 251.576631 270.765624 
L 251.680376 270.765624 
L 251.680376 266.933228 
L 254.114507 266.933228 
L 254.114507 263.100832 
L 254.289939 263.100832 
L 254.289939 259.268436 
L 264.459285 259.268436 
L 264.459285 255.43604 
L 264.489667 255.43604 
L 264.489667 251.603644 
L 265.361121 251.603644 
L 265.361121 247.771248 
L 312.642026 247.771248 
L 312.642026 243.938851 
L 313.25091 243.938851 
L 313.25091 240.106455 
L 315.718656 240.106455 
L 315.718656 236.274059 
L 322.282628 236.274059 
L 322.282628 232.441663 
L 323.442361 232.441663 
L 323.442361 228.609267 
L 331.58814 228.609267 
L 331.58814 224.776871 
L 331.810965 224.776871 
L 331.810965 220.944475 
L 334.453289 220.944475 
L 334.453289 217.112079 
L 334.469959 217.112079 
L 334.469959 213.279683 
L 337.121649 213.279683 
L 337.121649 209.447287 
L 337.556917 209.447287 
L 337.556917 205.614891 
L 338.099702 205.614891 
L 338.099702 201.782495 
L 339.720671 201.782495 
L 339.720671 197.950099 
L 340.856637 197.950099 
L 340.856637 194.117703 
L 340.973037 194.117703 
L 340.973037 190.285307 
L 341.911137 190.285307 
L 341.911137 186.452911 
L 344.492775 186.452911 
L 344.492775 182.620515 
L 346.515653 182.620515 
L 346.515653 178.788119 
L 349.575806 178.788119 
L 349.575806 174.955723 
L 360.760386 174.955723 
L 360.760386 171.123327 
L 366.104936 171.123327 
L 366.104936 167.290931 
L 370.018093 167.290931 
L 370.018093 163.458535 
L 370.443694 163.458535 
L 370.443694 159.626139 
L 370.836228 159.626139 
L 370.836228 155.793743 
L 371.488284 155.793743 
L 371.488284 151.961347 
L 373.826273 151.961347 
L 373.826273 148.12895 
L 378.22674 148.12895 
L 378.22674 144.296554 
L 381.327087 144.296554 
L 381.327087 140.464158 
L 386.525149 140.464158 
L 386.525149 136.631762 
L 388.704111 136.631762 
L 388.704111 132.799366 
L 399.803566 132.799366 
L 399.803566 128.96697 
L 412.777317 128.96697 
L 412.777317 125.134574 
L 413.21421 125.134574 
L 413.21421 121.302178 
L 414.314998 121.302178 
L 414.314998 117.469782 
L 419.313405 117.469782 
L 419.313405 113.637386 
L 439.012864 113.637386 
L 439.012864 109.80499 
L 439.012864 109.80499 
L 439.012864 109.80499 
L 460.8 109.80499 
" clip-path="url(#p28f5f1619e)" style="fill: none; stroke: #00bfbf; stroke-width: 1.5; stroke-linecap: square"/>
   </g>
   <g id="line2d_123">
    <defs>
     <path id="mb9bfeaa799" d="M 0 7.5 
C 1.989023 7.5 3.896849 6.709753 5.303301 5.303301 
C 6.709753 3.896849 7.5 1.989023 7.5 0 
C 7.5 -1.989023 6.709753 -3.896849 5.303301 -5.303301 
C 3.896849 -6.709753 1.989023 -7.5 0 -7.5 
C -1.989023 -7.5 -3.896849 -6.709753 -5.303301 -5.303301 
C -6.709753 -3.896849 -7.5 -1.989023 -7.5 0 
C -7.5 1.989023 -6.709753 3.896849 -5.303301 5.303301 
C -3.896849 6.709753 -1.989023 7.5 0 7.5 
z
" style="stroke: #00bfbf; stroke-width: 1.5"/>
    </defs>
    <g clip-path="url(#p28f5f1619e)">
     <use xlink:href="#mb9bfeaa799" x="265.361121" y="251.603644" style="fill-opacity: 0; stroke: #00bfbf; stroke-width: 1.5"/>
     <use xlink:href="#mb9bfeaa799" x="344.492775" y="186.452911" style="fill-opacity: 0; stroke: #00bfbf; stroke-width: 1.5"/>
     <use xlink:href="#mb9bfeaa799" x="386.525149" y="140.464158" style="fill-opacity: 0; stroke: #00bfbf; stroke-width: 1.5"/>
     <use xlink:href="#mb9bfeaa799" x="439.012864" y="113.637386" style="fill-opacity: 0; stroke: #00bfbf; stroke-width: 1.5"/>
     <use xlink:href="#mb9bfeaa799" x="439.012864" y="109.80499" style="fill-opacity: 0; stroke: #00bfbf; stroke-width: 1.5"/>
    </g>
   </g>
   <g id="line2d_124">
    <path clip-path="url(#p28f5f1619e)" style="fill: none; stroke: #00bfbf; stroke-width: 1.5; stroke-linecap: square"/>
   </g>
   <g id="line2d_125">
    <path d="M 337.997835 293.76 
L 337.997835 289.927604 
L 345.679888 289.927604 
L 345.679888 286.095208 
L 351.132315 286.095208 
L 351.132315 282.262812 
L 351.721277 282.262812 
L 351.721277 278.430416 
L 372.205829 278.430416 
L 372.205829 274.59802 
L 376.386588 274.59802 
L 376.386588 270.765624 
L 376.520931 270.765624 
L 376.520931 266.933228 
L 376.876722 266.933228 
L 376.876722 263.100832 
L 378.887876 263.100832 
L 378.887876 259.268436 
L 379.494826 259.268436 
L 379.494826 255.43604 
L 379.682504 255.43604 
L 379.682504 251.603644 
L 379.897006 251.603644 
L 379.897006 247.771248 
L 382.748789 247.771248 
L 382.748789 243.938851 
L 403.369752 243.938851 
L 403.369752 240.106455 
L 403.653585 240.106455 
L 403.653585 236.274059 
L 404.527532 236.274059 
L 404.527532 232.441663 
L 406.496281 232.441663 
L 406.496281 228.609267 
L 407.064342 228.609267 
L 407.064342 224.776871 
L 408.293374 224.776871 
L 408.293374 220.944475 
L 409.231505 220.944475 
L 409.231505 217.112079 
L 411.172241 217.112079 
L 411.172241 213.279683 
L 411.735965 213.279683 
L 411.735965 209.447287 
L 427.916407 209.447287 
L 427.916407 205.614891 
L 432.878381 205.614891 
L 432.878381 201.782495 
L 432.920665 201.782495 
L 432.920665 197.950099 
L 436.240837 197.950099 
L 436.240837 194.117703 
L 436.240837 194.117703 
L 436.240837 194.117703 
L 460.8 194.117703 
" clip-path="url(#p28f5f1619e)" style="fill: none; stroke: #bf00bf; stroke-width: 1.5; stroke-linecap: square"/>
   </g>
   <g id="line2d_126">
    <defs>
     <path id="m65f4c1d496" d="M 0 14.142136 
L 8.485281 0 
L 0 -14.142136 
L -8.485281 0 
z
" style="stroke: #bf00bf; stroke-width: 1.5; stroke-linejoin: miter"/>
    </defs>
    <g clip-path="url(#p28f5f1619e)">
     <use xlink:href="#m65f4c1d496" x="379.682504" y="255.43604" style="fill-opacity: 0; stroke: #bf00bf; stroke-width: 1.5; stroke-linejoin: miter"/>
     <use xlink:href="#m65f4c1d496" x="411.172241" y="217.112079" style="fill-opacity: 0; stroke: #bf00bf; stroke-width: 1.5; stroke-linejoin: miter"/>
     <use xlink:href="#m65f4c1d496" x="436.240837" y="197.950099" style="fill-opacity: 0; stroke: #bf00bf; stroke-width: 1.5; stroke-linejoin: miter"/>
     <use xlink:href="#m65f4c1d496" x="436.240837" y="194.117703" style="fill-opacity: 0; stroke: #bf00bf; stroke-width: 1.5; stroke-linejoin: miter"/>
    </g>
   </g>
   <g id="line2d_127">
    <path clip-path="url(#p28f5f1619e)" style="fill: none; stroke: #bf00bf; stroke-width: 1.5; stroke-linecap: square"/>
    <g clip-path="url(#p28f5f1619e)">
     <use xlink:href="#m65f4c1d496" x="-1" y="581.189703" style="fill-opacity: 0; stroke: #bf00bf; stroke-width: 1.5; stroke-linejoin: miter"/>
     <use xlink:href="#m65f4c1d496" x="460.8" y="581.189703" style="fill-opacity: 0; stroke: #bf00bf; stroke-width: 1.5; stroke-linejoin: miter"/>
    </g>
   </g>
   <g id="line2d_128">
    <path d="M 332.123849 293.76 
L 332.123849 289.927604 
L 342.966448 289.927604 
L 342.966448 286.095208 
L 345.949855 286.095208 
L 345.949855 282.262812 
L 346.769914 282.262812 
L 346.769914 278.430416 
L 349.689231 278.430416 
L 349.689231 274.59802 
L 352.352359 274.59802 
L 352.352359 270.765624 
L 353.233684 270.765624 
L 353.233684 266.933228 
L 364.282726 266.933228 
L 364.282726 263.100832 
L 366.468079 263.100832 
L 366.468079 259.268436 
L 372.602922 259.268436 
L 372.602922 255.43604 
L 372.67551 255.43604 
L 372.67551 251.603644 
L 373.006035 251.603644 
L 373.006035 247.771248 
L 374.455121 247.771248 
L 374.455121 243.938851 
L 374.807219 243.938851 
L 374.807219 240.106455 
L 378.632872 240.106455 
L 378.632872 236.274059 
L 383.155511 236.274059 
L 383.155511 232.441663 
L 395.602314 232.441663 
L 395.602314 228.609267 
L 398.930947 228.609267 
L 398.930947 224.776871 
L 399.968189 224.776871 
L 399.968189 220.944475 
L 401.23236 220.944475 
L 401.23236 217.112079 
L 401.99229 217.112079 
L 401.99229 213.279683 
L 402.786629 213.279683 
L 402.786629 209.447287 
L 404.356257 209.447287 
L 404.356257 205.614891 
L 404.936313 205.614891 
L 404.936313 201.782495 
L 407.259405 201.782495 
L 407.259405 197.950099 
L 407.989537 197.950099 
L 407.989537 194.117703 
L 415.915229 194.117703 
L 415.915229 190.285307 
L 416.691868 190.285307 
L 416.691868 186.452911 
L 420.824845 186.452911 
L 420.824845 182.620515 
L 422.005985 182.620515 
L 422.005985 178.788119 
L 429.035169 178.788119 
L 429.035169 174.955723 
L 429.587638 174.955723 
L 429.587638 171.123327 
L 430.350698 171.123327 
L 430.350698 167.290931 
L 434.914243 167.290931 
L 434.914243 163.458535 
L 435.51839 163.458535 
L 435.51839 159.626139 
L 440.99982 159.626139 
L 440.99982 155.793743 
L 440.99982 155.793743 
L 440.99982 155.793743 
L 460.8 155.793743 
" clip-path="url(#p28f5f1619e)" style="fill: none; stroke: #bf00bf; stroke-width: 1.5; stroke-linecap: square"/>
   </g>
   <g id="line2d_129">
    <defs>
     <path id="mece6938b76" d="M 0 7.5 
C 1.989023 7.5 3.896849 6.709753 5.303301 5.303301 
C 6.709753 3.896849 7.5 1.989023 7.5 0 
C 7.5 -1.989023 6.709753 -3.896849 5.303301 -5.303301 
C 3.896849 -6.709753 1.989023 -7.5 0 -7.5 
C -1.989023 -7.5 -3.896849 -6.709753 -5.303301 -5.303301 
C -6.709753 -3.896849 -7.5 -1.989023 -7.5 0 
C -7.5 1.989023 -6.709753 3.896849 -5.303301 5.303301 
C -3.896849 6.709753 -1.989023 7.5 0 7.5 
z
" style="stroke: #bf00bf; stroke-width: 1.5"/>
    </defs>
    <g clip-path="url(#p28f5f1619e)">
     <use xlink:href="#mece6938b76" x="373.006035" y="251.603644" style="fill-opacity: 0; stroke: #bf00bf; stroke-width: 1.5"/>
     <use xlink:href="#mece6938b76" x="401.99229" y="217.112079" style="fill-opacity: 0; stroke: #bf00bf; stroke-width: 1.5"/>
     <use xlink:href="#mece6938b76" x="440.99982" y="159.626139" style="fill-opacity: 0; stroke: #bf00bf; stroke-width: 1.5"/>
     <use xlink:href="#mece6938b76" x="440.99982" y="155.793743" style="fill-opacity: 0; stroke: #bf00bf; stroke-width: 1.5"/>
    </g>
   </g>
   <g id="line2d_130">
    <path clip-path="url(#p28f5f1619e)" style="fill: none; stroke: #bf00bf; stroke-width: 1.5; stroke-linecap: square"/>
   </g>
   <g id="line2d_131">
    <path d="M 406.71377 293.76 
L 406.71377 289.927604 
L 406.990358 289.927604 
L 406.990358 286.095208 
L 408.05337 286.095208 
L 408.05337 282.262812 
L 408.648255 282.262812 
L 408.648255 278.430416 
L 409.394517 278.430416 
L 409.394517 274.59802 
L 409.539377 274.59802 
L 409.539377 270.765624 
L 410.352672 270.765624 
L 410.352672 266.933228 
L 411.531088 266.933228 
L 411.531088 263.100832 
L 411.570435 263.100832 
L 411.570435 259.268436 
L 411.623408 259.268436 
L 411.623408 255.43604 
L 411.941099 255.43604 
L 411.941099 251.603644 
L 412.097975 251.603644 
L 412.097975 247.771248 
L 412.437581 247.771248 
L 412.437581 243.938851 
L 413.180103 243.938851 
L 413.180103 240.106455 
L 414.19725 240.106455 
L 414.19725 236.274059 
L 416.442335 236.274059 
L 416.442335 232.441663 
L 417.941531 232.441663 
L 417.941531 228.609267 
L 431.817121 228.609267 
L 431.817121 224.776871 
L 435.640118 224.776871 
L 435.640118 220.944475 
L 435.864489 220.944475 
L 435.864489 217.112079 
L 436.497231 217.112079 
L 436.497231 213.279683 
L 437.73655 213.279683 
L 437.73655 209.447287 
L 437.73655 209.447287 
L 437.73655 209.447287 
L 460.8 209.447287 
" clip-path="url(#p28f5f1619e)" style="fill: none; stroke: #ff0000; stroke-width: 3; stroke-linecap: square"/>
   </g>
   <g id="line2d_132">
    <defs>
     <path id="mf5620e5f63" d="M 0 14.142136 
L 8.485281 0 
L 0 -14.142136 
L -8.485281 0 
z
" style="stroke: #ff0000; stroke-width: 3; stroke-linejoin: miter"/>
    </defs>
    <g clip-path="url(#p28f5f1619e)">
     <use xlink:href="#mf5620e5f63" x="416.442335" y="236.274059" style="fill-opacity: 0; stroke: #ff0000; stroke-width: 3; stroke-linejoin: miter"/>
     <use xlink:href="#mf5620e5f63" x="437.73655" y="213.279683" style="fill-opacity: 0; stroke: #ff0000; stroke-width: 3; stroke-linejoin: miter"/>
     <use xlink:href="#mf5620e5f63" x="437.73655" y="209.447287" style="fill-opacity: 0; stroke: #ff0000; stroke-width: 3; stroke-linejoin: miter"/>
    </g>
   </g>
   <g id="line2d_133">
    <path clip-path="url(#p28f5f1619e)" style="fill: none; stroke: #ff0000; stroke-width: 3; stroke-linecap: square"/>
    <g clip-path="url(#p28f5f1619e)">
     <use xlink:href="#mf5620e5f63" x="-1" y="581.189703" style="fill-opacity: 0; stroke: #ff0000; stroke-width: 3; stroke-linejoin: miter"/>
     <use xlink:href="#mf5620e5f63" x="460.8" y="581.189703" style="fill-opacity: 0; stroke: #ff0000; stroke-width: 3; stroke-linejoin: miter"/>
    </g>
   </g>
   <g id="line2d_134">
    <path d="M 376.151943 293.76 
L 376.151943 289.927604 
L 380.380148 289.927604 
L 380.380148 286.095208 
L 381.857199 286.095208 
L 381.857199 282.262812 
L 397.822175 282.262812 
L 397.822175 278.430416 
L 400.863707 278.430416 
L 400.863707 274.59802 
L 402.101099 274.59802 
L 402.101099 270.765624 
L 404.371533 270.765624 
L 404.371533 266.933228 
L 405.709391 266.933228 
L 405.709391 263.100832 
L 405.730085 263.100832 
L 405.730085 259.268436 
L 406.139357 259.268436 
L 406.139357 255.43604 
L 406.229 255.43604 
L 406.229 251.603644 
L 406.575983 251.603644 
L 406.575983 247.771248 
L 406.695008 247.771248 
L 406.695008 243.938851 
L 407.619031 243.938851 
L 407.619031 240.106455 
L 408.404777 240.106455 
L 408.404777 236.274059 
L 408.611526 236.274059 
L 408.611526 232.441663 
L 408.623467 232.441663 
L 408.623467 228.609267 
L 408.792557 228.609267 
L 408.792557 224.776871 
L 409.729797 224.776871 
L 409.729797 220.944475 
L 409.921566 220.944475 
L 409.921566 217.112079 
L 419.061127 217.112079 
L 419.061127 213.279683 
L 420.040919 213.279683 
L 420.040919 209.447287 
L 425.403206 209.447287 
L 425.403206 205.614891 
L 425.529513 205.614891 
L 425.529513 201.782495 
L 432.183944 201.782495 
L 432.183944 197.950099 
L 432.569617 197.950099 
L 432.569617 194.117703 
L 433.478253 194.117703 
L 433.478253 190.285307 
L 437.907433 190.285307 
L 437.907433 186.452911 
L 438.240823 186.452911 
L 438.240823 182.620515 
L 438.245745 182.620515 
L 438.245745 178.788119 
L 438.245745 178.788119 
L 438.245745 178.788119 
L 460.8 178.788119 
" clip-path="url(#p28f5f1619e)" style="fill: none; stroke: #ff0000; stroke-width: 3; stroke-linecap: square"/>
   </g>
   <g id="line2d_135">
    <defs>
     <path id="mf42ffd8d99" d="M 0 7.5 
C 1.989023 7.5 3.896849 6.709753 5.303301 5.303301 
C 6.709753 3.896849 7.5 1.989023 7.5 0 
C 7.5 -1.989023 6.709753 -3.896849 5.303301 -5.303301 
C 3.896849 -6.709753 1.989023 -7.5 0 -7.5 
C -1.989023 -7.5 -3.896849 -6.709753 -5.303301 -5.303301 
C -6.709753 -3.896849 -7.5 -1.989023 -7.5 0 
C -7.5 1.989023 -6.709753 3.896849 -5.303301 5.303301 
C -3.896849 6.709753 -1.989023 7.5 0 7.5 
z
" style="stroke: #ff0000; stroke-width: 3"/>
    </defs>
    <g clip-path="url(#p28f5f1619e)">
     <use xlink:href="#mf42ffd8d99" x="405.709391" y="266.933228" style="fill-opacity: 0; stroke: #ff0000; stroke-width: 3"/>
     <use xlink:href="#mf42ffd8d99" x="432.569617" y="197.950099" style="fill-opacity: 0; stroke: #ff0000; stroke-width: 3"/>
     <use xlink:href="#mf42ffd8d99" x="438.245745" y="178.788119" style="fill-opacity: 0; stroke: #ff0000; stroke-width: 3"/>
    </g>
   </g>
   <g id="line2d_136">
    <path clip-path="url(#p28f5f1619e)" style="fill: none; stroke: #ff0000; stroke-width: 3; stroke-linecap: square"/>
   </g>
   <g id="line2d_137">
    <path d="M 441.734004 293.76 
L 441.734004 3.456 
" clip-path="url(#p28f5f1619e)" style="fill: none; stroke: #000000; stroke-width: 1.5; stroke-linecap: square"/>
    <defs>
     <path id="m3d3179f2cd" d="M -10 0 
L 10 0 
M 0 10 
L 0 -10 
" style="stroke: #000000; stroke-width: 3"/>
    </defs>
    <g clip-path="url(#p28f5f1619e)">
     <use xlink:href="#m3d3179f2cd" x="441.734004" y="293.76" style="stroke: #000000; stroke-width: 3"/>
     <use xlink:href="#m3d3179f2cd" x="441.734004" y="3.456" style="stroke: #000000; stroke-width: 3"/>
    </g>
   </g>
   <g id="line2d_138">
    <path d="M 441.720435 293.76 
L 441.720435 3.456 
" clip-path="url(#p28f5f1619e)" style="fill: none; stroke: #000000; stroke-width: 1.5; stroke-linecap: square"/>
    <defs>
     <path id="mdd098ed157" d="M 0 7.5 
C 1.989023 7.5 3.896849 6.709753 5.303301 5.303301 
C 6.709753 3.896849 7.5 1.989023 7.5 0 
C 7.5 -1.989023 6.709753 -3.896849 5.303301 -5.303301 
C 3.896849 -6.709753 1.989023 -7.5 0 -7.5 
C -1.989023 -7.5 -3.896849 -6.709753 -5.303301 -5.303301 
C -6.709753 -3.896849 -7.5 -1.989023 -7.5 0 
C -7.5 1.989023 -6.709753 3.896849 -5.303301 5.303301 
C -3.896849 6.709753 -1.989023 7.5 0 7.5 
z
" style="stroke: #000000; stroke-width: 3"/>
    </defs>
    <g clip-path="url(#p28f5f1619e)">
     <use xlink:href="#mdd098ed157" x="441.720435" y="293.76" style="fill-opacity: 0; stroke: #000000; stroke-width: 3"/>
     <use xlink:href="#mdd098ed157" x="441.720435" y="3.456" style="fill-opacity: 0; stroke: #000000; stroke-width: 3"/>
    </g>
   </g>
   <g id="patch_3">
    <path d="M 62.208 293.76 
L 62.208 3.456 
" style="fill: none; stroke: #000000; stroke-width: 0.8; stroke-linejoin: miter; stroke-linecap: square"/>
   </g>
   <g id="patch_4">
    <path d="M 460.8 293.76 
L 460.8 3.456 
" style="fill: none; stroke: #000000; stroke-width: 0.8; stroke-linejoin: miter; stroke-linecap: square"/>
   </g>
   <g id="patch_5">
    <path d="M 62.208 293.76 
L 460.8 293.76 
" style="fill: none; stroke: #000000; stroke-width: 0.8; stroke-linejoin: miter; stroke-linecap: square"/>
   </g>
   <g id="patch_6">
    <path d="M 62.208 3.456 
L 460.8 3.456 
" style="fill: none; stroke: #000000; stroke-width: 0.8; stroke-linejoin: miter; stroke-linecap: square"/>
   </g>
   <g id="text_12">
    <!-- f15-f19 -->
    <g transform="translate(225.405563 24.458955)scale(0.2 -0.2)">
     <defs>
      <path id="DejaVuSans-35" d="M 691 4666 
L 3169 4666 
L 3169 4134 
L 1269 4134 
L 1269 2991 
Q 1406 3038 1543 3061 
Q 1681 3084 1819 3084 
Q 2600 3084 3056 2656 
Q 3513 2228 3513 1497 
Q 3513 744 3044 326 
Q 2575 -91 1722 -91 
Q 1428 -91 1123 -41 
Q 819 9 494 109 
L 494 744 
Q 775 591 1075 516 
Q 1375 441 1709 441 
Q 2250 441 2565 725 
Q 2881 1009 2881 1497 
Q 2881 1984 2565 2268 
Q 2250 2553 1709 2553 
Q 1456 2553 1204 2497 
Q 953 2441 691 2322 
L 691 4666 
z
" transform="scale(0.015625)"/>
      <path id="DejaVuSans-2d" d="M 313 2009 
L 1997 2009 
L 1997 1497 
L 313 1497 
L 313 2009 
z
" transform="scale(0.015625)"/>
      <path id="DejaVuSans-39" d="M 703 97 
L 703 672 
Q 941 559 1184 500 
Q 1428 441 1663 441 
Q 2288 441 2617 861 
Q 2947 1281 2994 2138 
Q 2813 1869 2534 1725 
Q 2256 1581 1919 1581 
Q 1219 1581 811 2004 
Q 403 2428 403 3163 
Q 403 3881 828 4315 
Q 1253 4750 1959 4750 
Q 2769 4750 3195 4129 
Q 3622 3509 3622 2328 
Q 3622 1225 3098 567 
Q 2575 -91 1691 -91 
Q 1453 -91 1209 -44 
Q 966 3 703 97 
z
M 1959 2075 
Q 2384 2075 2632 2365 
Q 2881 2656 2881 3163 
Q 2881 3666 2632 3958 
Q 2384 4250 1959 4250 
Q 1534 4250 1286 3958 
Q 1038 3666 1038 3163 
Q 1038 2656 1286 2365 
Q 1534 2075 1959 2075 
z
" transform="scale(0.015625)"/>
     </defs>
     <use xlink:href="#DejaVuSans-66"/>
     <use xlink:href="#DejaVuSans-31" x="35.205078"/>
     <use xlink:href="#DejaVuSans-35" x="98.828125"/>
     <use xlink:href="#DejaVuSans-2d" x="162.451172"/>
     <use xlink:href="#DejaVuSans-66" x="198.535156"/>
     <use xlink:href="#DejaVuSans-31" x="233.740234"/>
     <use xlink:href="#DejaVuSans-39" x="297.363281"/>
    </g>
   </g>
   <g id="text_13">
    <!-- absolute targets -->
    <g transform="translate(62.208 609.932673)scale(0.14 -0.14)">
     <defs>
      <path id="DejaVuSans-62" d="M 3116 1747 
Q 3116 2381 2855 2742 
Q 2594 3103 2138 3103 
Q 1681 3103 1420 2742 
Q 1159 2381 1159 1747 
Q 1159 1113 1420 752 
Q 1681 391 2138 391 
Q 2594 391 2855 752 
Q 3116 1113 3116 1747 
z
M 1159 2969 
Q 1341 3281 1617 3432 
Q 1894 3584 2278 3584 
Q 2916 3584 3314 3078 
Q 3713 2572 3713 1747 
Q 3713 922 3314 415 
Q 2916 -91 2278 -91 
Q 1894 -91 1617 61 
Q 1341 213 1159 525 
L 1159 0 
L 581 0 
L 581 4863 
L 1159 4863 
L 1159 2969 
z
" transform="scale(0.015625)"/>
      <path id="DejaVuSans-75" d="M 544 1381 
L 544 3500 
L 1119 3500 
L 1119 1403 
Q 1119 906 1312 657 
Q 1506 409 1894 409 
Q 2359 409 2629 706 
Q 2900 1003 2900 1516 
L 2900 3500 
L 3475 3500 
L 3475 0 
L 2900 0 
L 2900 538 
Q 2691 219 2414 64 
Q 2138 -91 1772 -91 
Q 1169 -91 856 284 
Q 544 659 544 1381 
z
M 1991 3584 
L 1991 3584 
z
" transform="scale(0.015625)"/>
      <path id="DejaVuSans-65" d="M 3597 1894 
L 3597 1613 
L 953 1613 
Q 991 1019 1311 708 
Q 1631 397 2203 397 
Q 2534 397 2845 478 
Q 3156 559 3463 722 
L 3463 178 
Q 3153 47 2828 -22 
Q 2503 -91 2169 -91 
Q 1331 -91 842 396 
Q 353 884 353 1716 
Q 353 2575 817 3079 
Q 1281 3584 2069 3584 
Q 2775 3584 3186 3129 
Q 3597 2675 3597 1894 
z
M 3022 2063 
Q 3016 2534 2758 2815 
Q 2500 3097 2075 3097 
Q 1594 3097 1305 2825 
Q 1016 2553 972 2059 
L 3022 2063 
z
" transform="scale(0.015625)"/>
     </defs>
     <use xlink:href="#DejaVuSans-61"/>
     <use xlink:href="#DejaVuSans-62" x="61.279297"/>
     <use xlink:href="#DejaVuSans-73" x="124.755859"/>
     <use xlink:href="#DejaVuSans-6f" x="176.855469"/>
     <use xlink:href="#DejaVuSans-6c" x="238.037109"/>
     <use xlink:href="#DejaVuSans-75" x="265.820312"/>
     <use xlink:href="#DejaVuSans-74" x="329.199219"/>
     <use xlink:href="#DejaVuSans-65" x="368.408203"/>
     <use xlink:href="#DejaVuSans-20" x="429.931641"/>
     <use xlink:href="#DejaVuSans-74" x="461.71875"/>
     <use xlink:href="#DejaVuSans-61" x="500.927734"/>
     <use xlink:href="#DejaVuSans-72" x="562.207031"/>
     <use xlink:href="#DejaVuSans-67" x="601.570312"/>
     <use xlink:href="#DejaVuSans-65" x="665.046875"/>
     <use xlink:href="#DejaVuSans-74" x="726.570312"/>
     <use xlink:href="#DejaVuSans-73" x="765.779297"/>
    </g>
   </g>
   <g id="text_14">
    <!-- v2.6.3.10 -->
    <g style="fill: #808080" transform="translate(237.871188 288.777272)scale(0.1 -0.1)">
     <defs>
      <path id="DejaVuSans-33" d="M 2597 2516 
Q 3050 2419 3304 2112 
Q 3559 1806 3559 1356 
Q 3559 666 3084 287 
Q 2609 -91 1734 -91 
Q 1441 -91 1130 -33 
Q 819 25 488 141 
L 488 750 
Q 750 597 1062 519 
Q 1375 441 1716 441 
Q 2309 441 2620 675 
Q 2931 909 2931 1356 
Q 2931 1769 2642 2001 
Q 2353 2234 1838 2234 
L 1294 2234 
L 1294 2753 
L 1863 2753 
Q 2328 2753 2575 2939 
Q 2822 3125 2822 3475 
Q 2822 3834 2567 4026 
Q 2313 4219 1838 4219 
Q 1578 4219 1281 4162 
Q 984 4106 628 3988 
L 628 4550 
Q 988 4650 1302 4700 
Q 1616 4750 1894 4750 
Q 2613 4750 3031 4423 
Q 3450 4097 3450 3541 
Q 3450 3153 3228 2886 
Q 3006 2619 2597 2516 
z
" transform="scale(0.015625)"/>
     </defs>
     <use xlink:href="#DejaVuSans-76"/>
     <use xlink:href="#DejaVuSans-32" x="59.179688"/>
     <use xlink:href="#DejaVuSans-2e" x="122.802734"/>
     <use xlink:href="#DejaVuSans-36" x="154.589844"/>
     <use xlink:href="#DejaVuSans-2e" x="218.212891"/>
     <use xlink:href="#DejaVuSans-33" x="250"/>
     <use xlink:href="#DejaVuSans-2e" x="313.623047"/>
     <use xlink:href="#DejaVuSans-31" x="345.410156"/>
     <use xlink:href="#DejaVuSans-30" x="409.033203"/>
    </g>
   </g>
   <g id="legend_1">
    <g id="patch_7">
     <path d="M 76.208 136.881 
L 160.148625 136.881 
Q 164.148625 136.881 164.148625 132.881 
L 164.148625 17.456 
Q 164.148625 13.456 160.148625 13.456 
L 76.208 13.456 
Q 72.208 13.456 72.208 17.456 
L 72.208 132.881 
Q 72.208 136.881 76.208 136.881 
z
" style="fill: #ffffff; opacity: 0.2; stroke: #cccccc; stroke-linejoin: miter"/>
    </g>
    <g id="line2d_139">
     <path d="M 80.208 29.652875 
L 80.208 29.652875 
L 100.208 29.652875 
L 100.208 29.652875 
L 120.208 29.652875 
" style="fill: none; stroke: #000000; stroke-width: 1.5; stroke-linecap: square"/>
    </g>
    <g id="text_15">
     <!-- 1 -->
     <g transform="translate(136.208 36.652875)scale(0.2 -0.2)">
      <use xlink:href="#DejaVuSans-31"/>
     </g>
    </g>
    <g id="line2d_140">
     <path d="M 80.208 59.009125 
L 80.208 59.009125 
L 100.208 59.009125 
L 100.208 59.009125 
L 120.208 59.009125 
" style="fill: none; stroke: #00bfbf; stroke-width: 1.5; stroke-linecap: square"/>
    </g>
    <g id="text_16">
     <!-- -1 -->
     <g transform="translate(136.208 66.009125)scale(0.2 -0.2)">
      <use xlink:href="#DejaVuSans-2d"/>
      <use xlink:href="#DejaVuSans-31" x="36.083984"/>
     </g>
    </g>
    <g id="line2d_141">
     <path d="M 80.208 88.365375 
L 80.208 88.365375 
L 100.208 88.365375 
L 100.208 88.365375 
L 120.208 88.365375 
" style="fill: none; stroke: #bf00bf; stroke-width: 1.5; stroke-linecap: square"/>
    </g>
    <g id="text_17">
     <!-- -4 -->
     <g transform="translate(136.208 95.365375)scale(0.2 -0.2)">
      <use xlink:href="#DejaVuSans-2d"/>
      <use xlink:href="#DejaVuSans-34" x="36.083984"/>
     </g>
    </g>
    <g id="line2d_142">
     <path d="M 80.208 117.721625 
L 80.208 117.721625 
L 100.208 117.721625 
L 100.208 117.721625 
L 120.208 117.721625 
" style="fill: none; stroke: #ff0000; stroke-width: 3; stroke-linecap: square"/>
    </g>
    <g id="text_18">
     <!-- -8 -->
     <g transform="translate(136.208 124.721625)scale(0.2 -0.2)">
      <use xlink:href="#DejaVuSans-2d"/>
      <use xlink:href="#DejaVuSans-38" x="36.083984"/>
     </g>
    </g>
   </g>
  </g>
 </g>
 <defs>
  <clipPath id="p28f5f1619e">
   <rect x="62.208" y="3.456" width="398.592" height="290.304"/>
  </clipPath>
 </defs>
</svg>
