<?xml version="1.0" encoding="utf-8" standalone="no"?>
<!DOCTYPE svg PUBLIC "-//W3C//DTD SVG 1.1//EN"
  "http://www.w3.org/Graphics/SVG/1.1/DTD/svg11.dtd">
<svg xmlns:xlink="http://www.w3.org/1999/xlink" width="460.8pt" height="345.6pt" viewBox="0 0 460.8 345.6" xmlns="http://www.w3.org/2000/svg" version="1.1">
 <metadata>
  <rdf:RDF xmlns:dc="http://purl.org/dc/elements/1.1/" xmlns:cc="http://creativecommons.org/ns#" xmlns:rdf="http://www.w3.org/1999/02/22-rdf-syntax-ns#">
   <cc:Work>
    <dc:type rdf:resource="http://purl.org/dc/dcmitype/StillImage"/>
    <dc:date>2023-05-09T15:29:16.185945</dc:date>
    <dc:format>image/svg+xml</dc:format>
    <dc:creator>
     <cc:Agent>
      <dc:title>Matplotlib v3.5.2, https://matplotlib.org/</dc:title>
     </cc:Agent>
    </dc:creator>
   </cc:Work>
  </rdf:RDF>
 </metadata>
 <defs>
  <style type="text/css">*{stroke-linejoin: round; stroke-linecap: butt}</style>
 </defs>
 <g id="figure_1">
  <g id="patch_1">
   <path d="M 0 345.6 
L 460.8 345.6 
L 460.8 0 
L 0 0 
z
" style="fill: #ffffff"/>
  </g>
  <g id="axes_1">
   <g id="patch_2">
    <path d="M 62.208 293.76 
L 460.8 293.76 
L 460.8 3.456 
L 62.208 3.456 
z
" style="fill: #ffffff"/>
   </g>
   <g id="line2d_1"/>
   <g id="line2d_2"/>
   <g id="line2d_3">
    <path d="M 250.843005 293.76 
L 250.843005 289.927604 
L 292.961815 289.927604 
L 292.961815 286.095208 
L 311.576129 286.095208 
L 311.576129 282.262812 
L 342.25749 282.262812 
L 342.25749 278.430416 
L 348.487345 278.430416 
L 348.487345 274.59802 
L 348.900363 274.59802 
L 348.900363 270.765624 
L 351.481188 270.765624 
L 351.481188 266.933228 
L 360.73837 266.933228 
L 360.73837 263.100832 
L 373.007126 263.100832 
L 373.007126 259.268436 
L 381.578391 259.268436 
L 381.578391 255.43604 
L 382.636772 255.43604 
L 382.636772 251.603644 
L 387.86759 251.603644 
L 387.86759 247.771248 
L 402.343537 247.771248 
L 402.343537 243.938851 
L 437.000669 243.938851 
L 437.000669 240.106455 
L 439.107839 240.106455 
L 439.107839 236.274059 
L 440.25551 236.274059 
L 440.25551 232.441663 
L 440.25551 232.441663 
L 440.25551 232.441663 
L 460.8 232.441663 
" clip-path="url(#pece7a77aaf)" style="fill: none; stroke: #f5deb3; stroke-width: 1.5; stroke-linecap: square"/>
   </g>
   <g id="line2d_4">
    <path d="M 286.456245 293.76 
L 286.456245 289.927604 
L 296.808716 289.927604 
L 296.808716 286.095208 
L 302.344475 286.095208 
L 302.344475 282.262812 
L 323.35514 282.262812 
L 323.35514 278.430416 
L 327.008229 278.430416 
L 327.008229 274.59802 
L 373.873264 274.59802 
L 373.873264 270.765624 
L 376.888628 270.765624 
L 376.888628 266.933228 
L 380.960267 266.933228 
L 380.960267 263.100832 
L 387.049405 263.100832 
L 387.049405 259.268436 
L 389.198578 259.268436 
L 389.198578 255.43604 
L 395.371134 255.43604 
L 395.371134 251.603644 
L 398.270924 251.603644 
L 398.270924 247.771248 
L 399.839953 247.771248 
L 399.839953 243.938851 
L 403.910772 243.938851 
L 403.910772 240.106455 
L 408.442151 240.106455 
L 408.442151 236.274059 
L 408.623008 236.274059 
L 408.623008 232.441663 
L 410.040194 232.441663 
L 410.040194 228.609267 
L 413.060711 228.609267 
L 413.060711 224.776871 
L 416.000159 224.776871 
L 416.000159 220.944475 
L 416.182874 220.944475 
L 416.182874 217.112079 
L 418.909015 217.112079 
L 418.909015 213.279683 
L 419.23114 213.279683 
L 419.23114 209.447287 
L 425.432224 209.447287 
L 425.432224 205.614891 
L 429.337055 205.614891 
L 429.337055 201.782495 
L 429.858102 201.782495 
L 429.858102 197.950099 
L 432.982231 197.950099 
L 432.982231 194.117703 
L 432.982231 194.117703 
L 432.982231 194.117703 
L 460.8 194.117703 
" clip-path="url(#pece7a77aaf)" style="fill: none; stroke: #f5deb3; stroke-width: 1.5; stroke-linecap: square"/>
   </g>
   <g id="line2d_5"/>
   <g id="line2d_6"/>
   <g id="line2d_7">
    <path d="M 256.597133 293.76 
L 256.597133 289.927604 
L 333.454775 289.927604 
L 333.454775 286.095208 
L 334.519929 286.095208 
L 334.519929 282.262812 
L 376.339363 282.262812 
L 376.339363 278.430416 
L 378.83492 278.430416 
L 378.83492 274.59802 
L 410.691194 274.59802 
L 410.691194 270.765624 
L 417.343925 270.765624 
L 417.343925 266.933228 
L 422.545958 266.933228 
L 422.545958 263.100832 
L 426.238331 263.100832 
L 426.238331 259.268436 
L 450.421635 259.268436 
L 450.421635 255.43604 
L 461.8 255.43604 
" clip-path="url(#pece7a77aaf)" style="fill: none; stroke: #f5deb3; stroke-width: 1.5; stroke-linecap: square"/>
   </g>
   <g id="line2d_8"/>
   <g id="line2d_9">
    <path d="M 256.412805 293.76 
L 256.412805 289.927604 
L 257.739811 289.927604 
L 257.739811 286.095208 
L 309.219652 286.095208 
L 309.219652 282.262812 
L 342.819279 282.262812 
L 342.819279 278.430416 
L 368.343616 278.430416 
L 368.343616 274.59802 
L 371.624906 274.59802 
L 371.624906 270.765624 
L 412.196614 270.765624 
L 412.196614 266.933228 
L 430.732631 266.933228 
L 430.732631 263.100832 
L 448.61633 263.100832 
L 448.61633 259.268436 
L 452.551147 259.268436 
L 452.551147 255.43604 
L 453.160327 255.43604 
L 453.160327 251.603644 
L 453.403234 251.603644 
L 453.403234 247.771248 
L 461.8 247.771248 
" clip-path="url(#pece7a77aaf)" style="fill: none; stroke: #f5deb3; stroke-width: 1.5; stroke-linecap: square"/>
   </g>
   <g id="line2d_10">
    <path clip-path="url(#pece7a77aaf)" style="fill: none; stroke: #f5deb3; stroke-width: 1.5; stroke-linecap: square"/>
   </g>
   <g id="line2d_11">
    <path d="M 285.863985 293.76 
L 285.863985 289.927604 
L 309.663322 289.927604 
L 309.663322 286.095208 
L 332.803365 286.095208 
L 332.803365 282.262812 
L 334.233168 282.262812 
L 334.233168 278.430416 
L 344.243743 278.430416 
L 344.243743 274.59802 
L 360.094707 274.59802 
L 360.094707 270.765624 
L 371.334182 270.765624 
L 371.334182 266.933228 
L 385.945592 266.933228 
L 385.945592 263.100832 
L 386.210685 263.100832 
L 386.210685 259.268436 
L 396.380986 259.268436 
L 396.380986 255.43604 
L 396.959137 255.43604 
L 396.959137 251.603644 
L 397.591153 251.603644 
L 397.591153 247.771248 
L 404.745044 247.771248 
L 404.745044 243.938851 
L 416.312999 243.938851 
L 416.312999 240.106455 
L 419.925558 240.106455 
L 419.925558 236.274059 
L 421.444715 236.274059 
L 421.444715 232.441663 
L 423.940502 232.441663 
L 423.940502 228.609267 
L 433.293227 228.609267 
L 433.293227 224.776871 
L 434.444145 224.776871 
L 434.444145 220.944475 
L 436.109329 220.944475 
L 436.109329 217.112079 
L 443.930027 217.112079 
L 443.930027 213.279683 
L 448.337091 213.279683 
L 448.337091 209.447287 
L 450.445767 209.447287 
L 450.445767 205.614891 
L 454.462181 205.614891 
L 454.462181 201.782495 
L 459.658028 201.782495 
L 459.658028 197.950099 
L 461.8 197.950099 
" clip-path="url(#pece7a77aaf)" style="fill: none; stroke: #f5deb3; stroke-width: 1.5; stroke-linecap: square"/>
   </g>
   <g id="line2d_12">
    <path d="M 300.687957 293.76 
L 300.687957 289.927604 
L 392.576975 289.927604 
L 392.576975 286.095208 
L 392.576975 286.095208 
L 392.576975 286.095208 
L 460.8 286.095208 
" clip-path="url(#pece7a77aaf)" style="fill: none; stroke: #f5deb3; stroke-width: 1.5; stroke-linecap: square"/>
   </g>
   <g id="line2d_13"/>
   <g id="line2d_14">
    <path d="M 233.958806 293.76 
L 233.958806 289.927604 
L 267.953904 289.927604 
L 267.953904 286.095208 
L 299.705049 286.095208 
L 299.705049 282.262812 
L 316.080516 282.262812 
L 316.080516 278.430416 
L 325.719812 278.430416 
L 325.719812 274.59802 
L 329.253168 274.59802 
L 329.253168 270.765624 
L 334.247135 270.765624 
L 334.247135 266.933228 
L 347.7635 266.933228 
L 347.7635 263.100832 
L 357.470184 263.100832 
L 357.470184 259.268436 
L 369.903069 259.268436 
L 369.903069 255.43604 
L 381.567766 255.43604 
L 381.567766 251.603644 
L 398.403542 251.603644 
L 398.403542 247.771248 
L 406.444997 247.771248 
L 406.444997 243.938851 
L 423.379479 243.938851 
L 423.379479 240.106455 
L 425.344803 240.106455 
L 425.344803 236.274059 
L 426.342997 236.274059 
L 426.342997 232.441663 
L 429.55146 232.441663 
L 429.55146 228.609267 
L 430.732631 228.609267 
L 430.732631 224.776871 
L 431.778662 224.776871 
L 431.778662 220.944475 
L 435.514804 220.944475 
L 435.514804 217.112079 
L 439.972004 217.112079 
L 439.972004 213.279683 
L 440.589525 213.279683 
L 440.589525 209.447287 
L 440.589525 209.447287 
L 440.589525 209.447287 
L 460.8 209.447287 
" clip-path="url(#pece7a77aaf)" style="fill: none; stroke: #f5deb3; stroke-width: 1.5; stroke-linecap: square"/>
   </g>
   <g id="line2d_15"/>
   <g id="line2d_16">
    <path d="M 352.195493 293.76 
L 352.195493 289.927604 
L 390.152806 289.927604 
L 390.152806 286.095208 
L 400.050821 286.095208 
L 400.050821 282.262812 
L 402.386833 282.262812 
L 402.386833 278.430416 
L 412.534577 278.430416 
L 412.534577 274.59802 
L 439.606525 274.59802 
L 439.606525 270.765624 
L 461.8 270.765624 
" clip-path="url(#pece7a77aaf)" style="fill: none; stroke: #f5deb3; stroke-width: 1.5; stroke-linecap: square"/>
   </g>
   <g id="line2d_17"/>
   <g id="line2d_18">
    <path d="M 224.470127 293.76 
L 224.470127 289.927604 
L 279.535993 289.927604 
L 279.535993 286.095208 
L 288.684603 286.095208 
L 288.684603 282.262812 
L 294.338426 282.262812 
L 294.338426 278.430416 
L 297.909563 278.430416 
L 297.909563 274.59802 
L 303.573979 274.59802 
L 303.573979 270.765624 
L 304.134653 270.765624 
L 304.134653 266.933228 
L 314.428774 266.933228 
L 314.428774 263.100832 
L 319.03236 263.100832 
L 319.03236 259.268436 
L 329.987485 259.268436 
L 329.987485 255.43604 
L 335.776789 255.43604 
L 335.776789 251.603644 
L 337.649594 251.603644 
L 337.649594 247.771248 
L 348.433941 247.771248 
L 348.433941 243.938851 
L 349.741033 243.938851 
L 349.741033 240.106455 
L 350.810365 240.106455 
L 350.810365 236.274059 
L 353.805719 236.274059 
L 353.805719 232.441663 
L 354.887596 232.441663 
L 354.887596 228.609267 
L 373.474277 228.609267 
L 373.474277 224.776871 
L 388.337591 224.776871 
L 388.337591 220.944475 
L 389.333743 220.944475 
L 389.333743 217.112079 
L 399.699914 217.112079 
L 399.699914 213.279683 
L 400.899171 213.279683 
L 400.899171 209.447287 
L 400.899171 209.447287 
L 400.899171 209.447287 
L 460.8 209.447287 
" clip-path="url(#pece7a77aaf)" style="fill: none; stroke: #f5deb3; stroke-width: 1.5; stroke-linecap: square"/>
   </g>
   <g id="line2d_19">
    <path d="M 414.104498 293.76 
L 414.104498 289.927604 
L 419.252786 289.927604 
L 419.252786 286.095208 
L 422.746882 286.095208 
L 422.746882 282.262812 
L 427.977881 282.262812 
L 427.977881 278.430416 
L 428.067342 278.430416 
L 428.067342 274.59802 
L 428.365289 274.59802 
L 428.365289 270.765624 
L 430.030239 270.765624 
L 430.030239 266.933228 
L 430.750884 266.933228 
L 430.750884 263.100832 
L 431.488673 263.100832 
L 431.488673 259.268436 
L 431.581355 259.268436 
L 431.581355 255.43604 
L 439.662548 255.43604 
L 439.662548 251.603644 
L 449.750625 251.603644 
L 449.750625 247.771248 
L 458.150428 247.771248 
L 458.150428 243.938851 
L 461.8 243.938851 
" clip-path="url(#pece7a77aaf)" style="fill: none; stroke: #f5deb3; stroke-width: 1.5; stroke-linecap: square"/>
   </g>
   <g id="line2d_20">
    <path d="M 265.583529 293.76 
L 265.583529 289.927604 
L 272.433835 289.927604 
L 272.433835 286.095208 
L 318.413576 286.095208 
L 318.413576 282.262812 
L 326.204732 282.262812 
L 326.204732 278.430416 
L 333.394942 278.430416 
L 333.394942 274.59802 
L 336.425578 274.59802 
L 336.425578 270.765624 
L 338.74074 270.765624 
L 338.74074 266.933228 
L 339.047616 266.933228 
L 339.047616 263.100832 
L 353.916754 263.100832 
L 353.916754 259.268436 
L 368.549398 259.268436 
L 368.549398 255.43604 
L 371.907996 255.43604 
L 371.907996 251.603644 
L 374.501401 251.603644 
L 374.501401 247.771248 
L 374.683908 247.771248 
L 374.683908 243.938851 
L 375.341118 243.938851 
L 375.341118 240.106455 
L 376.964944 240.106455 
L 376.964944 236.274059 
L 384.992691 236.274059 
L 384.992691 232.441663 
L 385.225091 232.441663 
L 385.225091 228.609267 
L 386.437907 228.609267 
L 386.437907 224.776871 
L 387.86379 224.776871 
L 387.86379 220.944475 
L 393.146494 220.944475 
L 393.146494 217.112079 
L 396.607197 217.112079 
L 396.607197 213.279683 
L 402.795622 213.279683 
L 402.795622 209.447287 
L 421.740001 209.447287 
L 421.740001 205.614891 
L 437.507825 205.614891 
L 437.507825 201.782495 
L 456.074246 201.782495 
L 456.074246 197.950099 
L 456.638128 197.950099 
L 456.638128 194.117703 
L 461.8 194.117703 
" clip-path="url(#pece7a77aaf)" style="fill: none; stroke: #f5deb3; stroke-width: 1.5; stroke-linecap: square"/>
   </g>
   <g id="line2d_21">
    <path d="M 436.29154 293.76 
L 436.29154 289.927604 
L 436.29154 289.927604 
L 436.29154 289.927604 
L 460.8 289.927604 
" clip-path="url(#pece7a77aaf)" style="fill: none; stroke: #f5deb3; stroke-width: 1.5; stroke-linecap: square"/>
   </g>
   <g id="line2d_22">
    <path d="M 372.249153 293.76 
L 372.249153 289.927604 
L 400.867588 289.927604 
L 400.867588 286.095208 
L 411.578556 286.095208 
L 411.578556 282.262812 
L 414.187623 282.262812 
L 414.187623 278.430416 
L 417.363243 278.430416 
L 417.363243 274.59802 
L 423.915166 274.59802 
L 423.915166 270.765624 
L 435.06581 270.765624 
L 435.06581 266.933228 
L 435.322634 266.933228 
L 435.322634 263.100832 
L 438.403169 263.100832 
L 438.403169 259.268436 
L 438.403169 259.268436 
L 438.403169 259.268436 
L 460.8 259.268436 
" clip-path="url(#pece7a77aaf)" style="fill: none; stroke: #f5deb3; stroke-width: 1.5; stroke-linecap: square"/>
   </g>
   <g id="line2d_23">
    <path d="M 348.346763 293.76 
L 348.346763 289.927604 
L 348.346763 289.927604 
L 348.346763 289.927604 
L 460.8 289.927604 
" clip-path="url(#pece7a77aaf)" style="fill: none; stroke: #f5deb3; stroke-width: 1.5; stroke-linecap: square"/>
   </g>
   <g id="line2d_24">
    <path d="M 416.13928 293.76 
L 416.13928 289.927604 
L 423.512136 289.927604 
L 423.512136 286.095208 
L 426.655706 286.095208 
L 426.655706 282.262812 
L 461.8 282.262812 
" clip-path="url(#pece7a77aaf)" style="fill: none; stroke: #f5deb3; stroke-width: 1.5; stroke-linecap: square"/>
   </g>
   <g id="line2d_25">
    <path d="M 420.282442 293.76 
L 420.282442 289.927604 
L 420.765727 289.927604 
L 420.765727 286.095208 
L 421.996693 286.095208 
L 421.996693 282.262812 
L 421.996693 282.262812 
L 421.996693 282.262812 
L 460.8 282.262812 
" clip-path="url(#pece7a77aaf)" style="fill: none; stroke: #f5deb3; stroke-width: 1.5; stroke-linecap: square"/>
   </g>
   <g id="line2d_26">
    <path d="M 327.622878 293.76 
L 327.622878 290.530453 
L 409.051942 290.530453 
L 409.051942 287.300906 
L 438.314148 287.300906 
L 438.314148 284.071358 
L 440.798443 284.071358 
L 440.798443 280.841811 
L 461.8 280.841811 
" clip-path="url(#pece7a77aaf)" style="fill: none; stroke: #f5deb3; stroke-width: 1.5; stroke-linecap: square"/>
   </g>
   <g id="line2d_27">
    <path d="M 249.641334 293.76 
L 249.641334 289.927604 
L 297.338879 289.927604 
L 297.338879 286.095208 
L 300.908113 286.095208 
L 300.908113 282.262812 
L 305.487 282.262812 
L 305.487 278.430416 
L 322.327412 278.430416 
L 322.327412 274.59802 
L 329.698446 274.59802 
L 329.698446 270.765624 
L 345.207427 270.765624 
L 345.207427 266.933228 
L 346.151175 266.933228 
L 346.151175 263.100832 
L 357.709487 263.100832 
L 357.709487 259.268436 
L 376.218544 259.268436 
L 376.218544 255.43604 
L 389.473582 255.43604 
L 389.473582 251.603644 
L 395.82406 251.603644 
L 395.82406 247.771248 
L 397.076596 247.771248 
L 397.076596 243.938851 
L 412.148589 243.938851 
L 412.148589 240.106455 
L 416.581488 240.106455 
L 416.581488 236.274059 
L 424.148616 236.274059 
L 424.148616 232.441663 
L 428.277613 232.441663 
L 428.277613 228.609267 
L 428.612508 228.609267 
L 428.612508 224.776871 
L 433.606902 224.776871 
L 433.606902 220.944475 
L 444.825103 220.944475 
L 444.825103 217.112079 
L 459.689546 217.112079 
L 459.689546 213.279683 
L 461.8 213.279683 
" clip-path="url(#pece7a77aaf)" style="fill: none; stroke: #f5deb3; stroke-width: 1.5; stroke-linecap: square"/>
   </g>
   <g id="line2d_28">
    <path d="M 411.973707 293.76 
L 411.973707 289.927604 
L 412.182297 289.927604 
L 412.182297 286.095208 
L 414.87547 286.095208 
L 414.87547 282.262812 
L 458.83892 282.262812 
L 458.83892 278.430416 
L 459.39858 278.430416 
L 459.39858 274.59802 
L 461.8 274.59802 
" clip-path="url(#pece7a77aaf)" style="fill: none; stroke: #f5deb3; stroke-width: 1.5; stroke-linecap: square"/>
   </g>
   <g id="line2d_29">
    <path d="M 373.564709 293.76 
L 373.564709 289.927604 
L 399.763731 289.927604 
L 399.763731 286.095208 
L 399.763731 286.095208 
L 399.763731 286.095208 
L 460.8 286.095208 
" clip-path="url(#pece7a77aaf)" style="fill: none; stroke: #f5deb3; stroke-width: 1.5; stroke-linecap: square"/>
   </g>
   <g id="line2d_30">
    <path d="M 313.846343 293.76 
L 313.846343 289.927604 
L 341.815958 289.927604 
L 341.815958 286.095208 
L 369.873675 286.095208 
L 369.873675 282.262812 
L 377.599698 282.262812 
L 377.599698 278.430416 
L 402.714612 278.430416 
L 402.714612 274.59802 
L 411.014393 274.59802 
L 411.014393 270.765624 
L 423.714144 270.765624 
L 423.714144 266.933228 
L 438.744082 266.933228 
L 438.744082 263.100832 
L 439.778894 263.100832 
L 439.778894 259.268436 
L 440.774043 259.268436 
L 440.774043 255.43604 
L 440.774043 255.43604 
L 440.774043 255.43604 
L 460.8 255.43604 
" clip-path="url(#pece7a77aaf)" style="fill: none; stroke: #f5deb3; stroke-width: 1.5; stroke-linecap: square"/>
   </g>
   <g id="matplotlib.axis_1">
    <g id="xtick_1">
     <g id="line2d_31">
      <path d="M 62.208 293.76 
L 62.208 3.456 
" clip-path="url(#pece7a77aaf)" style="fill: none; stroke: #b0b0b0; stroke-width: 0.8; stroke-linecap: square"/>
     </g>
     <g id="line2d_32">
      <defs>
       <path id="m5559bed6fd" d="M 0 0 
L 0 3.5 
" style="stroke: #000000; stroke-width: 0.8"/>
      </defs>
      <g>
       <use xlink:href="#m5559bed6fd" x="62.208" y="293.76" style="stroke: #000000; stroke-width: 0.8"/>
      </g>
     </g>
     <g id="text_1">
      <!-- 0 -->
      <g transform="translate(55.8455 315.956875)scale(0.2 -0.2)">
       <defs>
        <path id="DejaVuSans-30" d="M 2034 4250 
Q 1547 4250 1301 3770 
Q 1056 3291 1056 2328 
Q 1056 1369 1301 889 
Q 1547 409 2034 409 
Q 2525 409 2770 889 
Q 3016 1369 3016 2328 
Q 3016 3291 2770 3770 
Q 2525 4250 2034 4250 
z
M 2034 4750 
Q 2819 4750 3233 4129 
Q 3647 3509 3647 2328 
Q 3647 1150 3233 529 
Q 2819 -91 2034 -91 
Q 1250 -91 836 529 
Q 422 1150 422 2328 
Q 422 3509 836 4129 
Q 1250 4750 2034 4750 
z
" transform="scale(0.015625)"/>
       </defs>
       <use xlink:href="#DejaVuSans-30"/>
      </g>
     </g>
    </g>
    <g id="xtick_2">
     <g id="line2d_33">
      <path d="M 251.928304 293.76 
L 251.928304 3.456 
" clip-path="url(#pece7a77aaf)" style="fill: none; stroke: #b0b0b0; stroke-width: 0.8; stroke-linecap: square"/>
     </g>
     <g id="line2d_34">
      <g>
       <use xlink:href="#m5559bed6fd" x="251.928304" y="293.76" style="stroke: #000000; stroke-width: 0.8"/>
      </g>
     </g>
     <g id="text_2">
      <!-- 2 -->
      <g transform="translate(245.565804 315.956875)scale(0.2 -0.2)">
       <defs>
        <path id="DejaVuSans-32" d="M 1228 531 
L 3431 531 
L 3431 0 
L 469 0 
L 469 531 
Q 828 903 1448 1529 
Q 2069 2156 2228 2338 
Q 2531 2678 2651 2914 
Q 2772 3150 2772 3378 
Q 2772 3750 2511 3984 
Q 2250 4219 1831 4219 
Q 1534 4219 1204 4116 
Q 875 4013 500 3803 
L 500 4441 
Q 881 4594 1212 4672 
Q 1544 4750 1819 4750 
Q 2544 4750 2975 4387 
Q 3406 4025 3406 3419 
Q 3406 3131 3298 2873 
Q 3191 2616 2906 2266 
Q 2828 2175 2409 1742 
Q 1991 1309 1228 531 
z
" transform="scale(0.015625)"/>
       </defs>
       <use xlink:href="#DejaVuSans-32"/>
      </g>
     </g>
    </g>
    <g id="xtick_3">
     <g id="line2d_35">
      <path d="M 441.648609 293.76 
L 441.648609 3.456 
" clip-path="url(#pece7a77aaf)" style="fill: none; stroke: #b0b0b0; stroke-width: 0.8; stroke-linecap: square"/>
     </g>
     <g id="line2d_36">
      <g>
       <use xlink:href="#m5559bed6fd" x="441.648609" y="293.76" style="stroke: #000000; stroke-width: 0.8"/>
      </g>
     </g>
     <g id="text_3">
      <!-- 4 -->
      <g transform="translate(435.286109 315.956875)scale(0.2 -0.2)">
       <defs>
        <path id="DejaVuSans-34" d="M 2419 4116 
L 825 1625 
L 2419 1625 
L 2419 4116 
z
M 2253 4666 
L 3047 4666 
L 3047 1625 
L 3713 1625 
L 3713 1100 
L 3047 1100 
L 3047 0 
L 2419 0 
L 2419 1100 
L 313 1100 
L 313 1709 
L 2253 4666 
z
" transform="scale(0.015625)"/>
       </defs>
       <use xlink:href="#DejaVuSans-34"/>
      </g>
     </g>
    </g>
    <g id="xtick_4">
     <g id="line2d_37">
      <path d="M 90.763751 293.76 
L 90.763751 3.456 
" clip-path="url(#pece7a77aaf)" style="fill: none; stroke: #b0b0b0; stroke-width: 0.8; stroke-linecap: square"/>
     </g>
     <g id="line2d_38">
      <defs>
       <path id="m89c0c21937" d="M 0 0 
L 0 2 
" style="stroke: #000000; stroke-width: 0.6"/>
      </defs>
      <g>
       <use xlink:href="#m89c0c21937" x="90.763751" y="293.76" style="stroke: #000000; stroke-width: 0.6"/>
      </g>
     </g>
    </g>
    <g id="xtick_5">
     <g id="line2d_39">
      <path d="M 107.467795 293.76 
L 107.467795 3.456 
" clip-path="url(#pece7a77aaf)" style="fill: none; stroke: #b0b0b0; stroke-width: 0.8; stroke-linecap: square"/>
     </g>
     <g id="line2d_40">
      <g>
       <use xlink:href="#m89c0c21937" x="107.467795" y="293.76" style="stroke: #000000; stroke-width: 0.6"/>
      </g>
     </g>
    </g>
    <g id="xtick_6">
     <g id="line2d_41">
      <path d="M 119.319502 293.76 
L 119.319502 3.456 
" clip-path="url(#pece7a77aaf)" style="fill: none; stroke: #b0b0b0; stroke-width: 0.8; stroke-linecap: square"/>
     </g>
     <g id="line2d_42">
      <g>
       <use xlink:href="#m89c0c21937" x="119.319502" y="293.76" style="stroke: #000000; stroke-width: 0.6"/>
      </g>
     </g>
    </g>
    <g id="xtick_7">
     <g id="line2d_43">
      <path d="M 128.512401 293.76 
L 128.512401 3.456 
" clip-path="url(#pece7a77aaf)" style="fill: none; stroke: #b0b0b0; stroke-width: 0.8; stroke-linecap: square"/>
     </g>
     <g id="line2d_44">
      <g>
       <use xlink:href="#m89c0c21937" x="128.512401" y="293.76" style="stroke: #000000; stroke-width: 0.6"/>
      </g>
     </g>
    </g>
    <g id="xtick_8">
     <g id="line2d_45">
      <path d="M 136.023546 293.76 
L 136.023546 3.456 
" clip-path="url(#pece7a77aaf)" style="fill: none; stroke: #b0b0b0; stroke-width: 0.8; stroke-linecap: square"/>
     </g>
     <g id="line2d_46">
      <g>
       <use xlink:href="#m89c0c21937" x="136.023546" y="293.76" style="stroke: #000000; stroke-width: 0.6"/>
      </g>
     </g>
    </g>
    <g id="xtick_9">
     <g id="line2d_47">
      <path d="M 142.374129 293.76 
L 142.374129 3.456 
" clip-path="url(#pece7a77aaf)" style="fill: none; stroke: #b0b0b0; stroke-width: 0.8; stroke-linecap: square"/>
     </g>
     <g id="line2d_48">
      <g>
       <use xlink:href="#m89c0c21937" x="142.374129" y="293.76" style="stroke: #000000; stroke-width: 0.6"/>
      </g>
     </g>
    </g>
    <g id="xtick_10">
     <g id="line2d_49">
      <path d="M 147.875254 293.76 
L 147.875254 3.456 
" clip-path="url(#pece7a77aaf)" style="fill: none; stroke: #b0b0b0; stroke-width: 0.8; stroke-linecap: square"/>
     </g>
     <g id="line2d_50">
      <g>
       <use xlink:href="#m89c0c21937" x="147.875254" y="293.76" style="stroke: #000000; stroke-width: 0.6"/>
      </g>
     </g>
    </g>
    <g id="xtick_11">
     <g id="line2d_51">
      <path d="M 152.72759 293.76 
L 152.72759 3.456 
" clip-path="url(#pece7a77aaf)" style="fill: none; stroke: #b0b0b0; stroke-width: 0.8; stroke-linecap: square"/>
     </g>
     <g id="line2d_52">
      <g>
       <use xlink:href="#m89c0c21937" x="152.72759" y="293.76" style="stroke: #000000; stroke-width: 0.6"/>
      </g>
     </g>
    </g>
    <g id="xtick_12">
     <g id="line2d_53">
      <path d="M 185.623903 293.76 
L 185.623903 3.456 
" clip-path="url(#pece7a77aaf)" style="fill: none; stroke: #b0b0b0; stroke-width: 0.8; stroke-linecap: square"/>
     </g>
     <g id="line2d_54">
      <g>
       <use xlink:href="#m89c0c21937" x="185.623903" y="293.76" style="stroke: #000000; stroke-width: 0.6"/>
      </g>
     </g>
    </g>
    <g id="xtick_13">
     <g id="line2d_55">
      <path d="M 202.327947 293.76 
L 202.327947 3.456 
" clip-path="url(#pece7a77aaf)" style="fill: none; stroke: #b0b0b0; stroke-width: 0.8; stroke-linecap: square"/>
     </g>
     <g id="line2d_56">
      <g>
       <use xlink:href="#m89c0c21937" x="202.327947" y="293.76" style="stroke: #000000; stroke-width: 0.6"/>
      </g>
     </g>
    </g>
    <g id="xtick_14">
     <g id="line2d_57">
      <path d="M 214.179655 293.76 
L 214.179655 3.456 
" clip-path="url(#pece7a77aaf)" style="fill: none; stroke: #b0b0b0; stroke-width: 0.8; stroke-linecap: square"/>
     </g>
     <g id="line2d_58">
      <g>
       <use xlink:href="#m89c0c21937" x="214.179655" y="293.76" style="stroke: #000000; stroke-width: 0.6"/>
      </g>
     </g>
    </g>
    <g id="xtick_15">
     <g id="line2d_59">
      <path d="M 223.372553 293.76 
L 223.372553 3.456 
" clip-path="url(#pece7a77aaf)" style="fill: none; stroke: #b0b0b0; stroke-width: 0.8; stroke-linecap: square"/>
     </g>
     <g id="line2d_60">
      <g>
       <use xlink:href="#m89c0c21937" x="223.372553" y="293.76" style="stroke: #000000; stroke-width: 0.6"/>
      </g>
     </g>
    </g>
    <g id="xtick_16">
     <g id="line2d_61">
      <path d="M 230.883698 293.76 
L 230.883698 3.456 
" clip-path="url(#pece7a77aaf)" style="fill: none; stroke: #b0b0b0; stroke-width: 0.8; stroke-linecap: square"/>
     </g>
     <g id="line2d_62">
      <g>
       <use xlink:href="#m89c0c21937" x="230.883698" y="293.76" style="stroke: #000000; stroke-width: 0.6"/>
      </g>
     </g>
    </g>
    <g id="xtick_17">
     <g id="line2d_63">
      <path d="M 237.234281 293.76 
L 237.234281 3.456 
" clip-path="url(#pece7a77aaf)" style="fill: none; stroke: #b0b0b0; stroke-width: 0.8; stroke-linecap: square"/>
     </g>
     <g id="line2d_64">
      <g>
       <use xlink:href="#m89c0c21937" x="237.234281" y="293.76" style="stroke: #000000; stroke-width: 0.6"/>
      </g>
     </g>
    </g>
    <g id="xtick_18">
     <g id="line2d_65">
      <path d="M 242.735406 293.76 
L 242.735406 3.456 
" clip-path="url(#pece7a77aaf)" style="fill: none; stroke: #b0b0b0; stroke-width: 0.8; stroke-linecap: square"/>
     </g>
     <g id="line2d_66">
      <g>
       <use xlink:href="#m89c0c21937" x="242.735406" y="293.76" style="stroke: #000000; stroke-width: 0.6"/>
      </g>
     </g>
    </g>
    <g id="xtick_19">
     <g id="line2d_67">
      <path d="M 247.587742 293.76 
L 247.587742 3.456 
" clip-path="url(#pece7a77aaf)" style="fill: none; stroke: #b0b0b0; stroke-width: 0.8; stroke-linecap: square"/>
     </g>
     <g id="line2d_68">
      <g>
       <use xlink:href="#m89c0c21937" x="247.587742" y="293.76" style="stroke: #000000; stroke-width: 0.6"/>
      </g>
     </g>
    </g>
    <g id="xtick_20">
     <g id="line2d_69">
      <path d="M 280.484056 293.76 
L 280.484056 3.456 
" clip-path="url(#pece7a77aaf)" style="fill: none; stroke: #b0b0b0; stroke-width: 0.8; stroke-linecap: square"/>
     </g>
     <g id="line2d_70">
      <g>
       <use xlink:href="#m89c0c21937" x="280.484056" y="293.76" style="stroke: #000000; stroke-width: 0.6"/>
      </g>
     </g>
    </g>
    <g id="xtick_21">
     <g id="line2d_71">
      <path d="M 297.188099 293.76 
L 297.188099 3.456 
" clip-path="url(#pece7a77aaf)" style="fill: none; stroke: #b0b0b0; stroke-width: 0.8; stroke-linecap: square"/>
     </g>
     <g id="line2d_72">
      <g>
       <use xlink:href="#m89c0c21937" x="297.188099" y="293.76" style="stroke: #000000; stroke-width: 0.6"/>
      </g>
     </g>
    </g>
    <g id="xtick_22">
     <g id="line2d_73">
      <path d="M 309.039807 293.76 
L 309.039807 3.456 
" clip-path="url(#pece7a77aaf)" style="fill: none; stroke: #b0b0b0; stroke-width: 0.8; stroke-linecap: square"/>
     </g>
     <g id="line2d_74">
      <g>
       <use xlink:href="#m89c0c21937" x="309.039807" y="293.76" style="stroke: #000000; stroke-width: 0.6"/>
      </g>
     </g>
    </g>
    <g id="xtick_23">
     <g id="line2d_75">
      <path d="M 318.232705 293.76 
L 318.232705 3.456 
" clip-path="url(#pece7a77aaf)" style="fill: none; stroke: #b0b0b0; stroke-width: 0.8; stroke-linecap: square"/>
     </g>
     <g id="line2d_76">
      <g>
       <use xlink:href="#m89c0c21937" x="318.232705" y="293.76" style="stroke: #000000; stroke-width: 0.6"/>
      </g>
     </g>
    </g>
    <g id="xtick_24">
     <g id="line2d_77">
      <path d="M 325.74385 293.76 
L 325.74385 3.456 
" clip-path="url(#pece7a77aaf)" style="fill: none; stroke: #b0b0b0; stroke-width: 0.8; stroke-linecap: square"/>
     </g>
     <g id="line2d_78">
      <g>
       <use xlink:href="#m89c0c21937" x="325.74385" y="293.76" style="stroke: #000000; stroke-width: 0.6"/>
      </g>
     </g>
    </g>
    <g id="xtick_25">
     <g id="line2d_79">
      <path d="M 332.094433 293.76 
L 332.094433 3.456 
" clip-path="url(#pece7a77aaf)" style="fill: none; stroke: #b0b0b0; stroke-width: 0.8; stroke-linecap: square"/>
     </g>
     <g id="line2d_80">
      <g>
       <use xlink:href="#m89c0c21937" x="332.094433" y="293.76" style="stroke: #000000; stroke-width: 0.6"/>
      </g>
     </g>
    </g>
    <g id="xtick_26">
     <g id="line2d_81">
      <path d="M 337.595558 293.76 
L 337.595558 3.456 
" clip-path="url(#pece7a77aaf)" style="fill: none; stroke: #b0b0b0; stroke-width: 0.8; stroke-linecap: square"/>
     </g>
     <g id="line2d_82">
      <g>
       <use xlink:href="#m89c0c21937" x="337.595558" y="293.76" style="stroke: #000000; stroke-width: 0.6"/>
      </g>
     </g>
    </g>
    <g id="xtick_27">
     <g id="line2d_83">
      <path d="M 342.447894 293.76 
L 342.447894 3.456 
" clip-path="url(#pece7a77aaf)" style="fill: none; stroke: #b0b0b0; stroke-width: 0.8; stroke-linecap: square"/>
     </g>
     <g id="line2d_84">
      <g>
       <use xlink:href="#m89c0c21937" x="342.447894" y="293.76" style="stroke: #000000; stroke-width: 0.6"/>
      </g>
     </g>
    </g>
    <g id="xtick_28">
     <g id="line2d_85">
      <path d="M 375.344208 293.76 
L 375.344208 3.456 
" clip-path="url(#pece7a77aaf)" style="fill: none; stroke: #b0b0b0; stroke-width: 0.8; stroke-linecap: square"/>
     </g>
     <g id="line2d_86">
      <g>
       <use xlink:href="#m89c0c21937" x="375.344208" y="293.76" style="stroke: #000000; stroke-width: 0.6"/>
      </g>
     </g>
    </g>
    <g id="xtick_29">
     <g id="line2d_87">
      <path d="M 392.048251 293.76 
L 392.048251 3.456 
" clip-path="url(#pece7a77aaf)" style="fill: none; stroke: #b0b0b0; stroke-width: 0.8; stroke-linecap: square"/>
     </g>
     <g id="line2d_88">
      <g>
       <use xlink:href="#m89c0c21937" x="392.048251" y="293.76" style="stroke: #000000; stroke-width: 0.6"/>
      </g>
     </g>
    </g>
    <g id="xtick_30">
     <g id="line2d_89">
      <path d="M 403.899959 293.76 
L 403.899959 3.456 
" clip-path="url(#pece7a77aaf)" style="fill: none; stroke: #b0b0b0; stroke-width: 0.8; stroke-linecap: square"/>
     </g>
     <g id="line2d_90">
      <g>
       <use xlink:href="#m89c0c21937" x="403.899959" y="293.76" style="stroke: #000000; stroke-width: 0.6"/>
      </g>
     </g>
    </g>
    <g id="xtick_31">
     <g id="line2d_91">
      <path d="M 413.092857 293.76 
L 413.092857 3.456 
" clip-path="url(#pece7a77aaf)" style="fill: none; stroke: #b0b0b0; stroke-width: 0.8; stroke-linecap: square"/>
     </g>
     <g id="line2d_92">
      <g>
       <use xlink:href="#m89c0c21937" x="413.092857" y="293.76" style="stroke: #000000; stroke-width: 0.6"/>
      </g>
     </g>
    </g>
    <g id="xtick_32">
     <g id="line2d_93">
      <path d="M 420.604003 293.76 
L 420.604003 3.456 
" clip-path="url(#pece7a77aaf)" style="fill: none; stroke: #b0b0b0; stroke-width: 0.8; stroke-linecap: square"/>
     </g>
     <g id="line2d_94">
      <g>
       <use xlink:href="#m89c0c21937" x="420.604003" y="293.76" style="stroke: #000000; stroke-width: 0.6"/>
      </g>
     </g>
    </g>
    <g id="xtick_33">
     <g id="line2d_95">
      <path d="M 426.954585 293.76 
L 426.954585 3.456 
" clip-path="url(#pece7a77aaf)" style="fill: none; stroke: #b0b0b0; stroke-width: 0.8; stroke-linecap: square"/>
     </g>
     <g id="line2d_96">
      <g>
       <use xlink:href="#m89c0c21937" x="426.954585" y="293.76" style="stroke: #000000; stroke-width: 0.6"/>
      </g>
     </g>
    </g>
    <g id="xtick_34">
     <g id="line2d_97">
      <path d="M 432.45571 293.76 
L 432.45571 3.456 
" clip-path="url(#pece7a77aaf)" style="fill: none; stroke: #b0b0b0; stroke-width: 0.8; stroke-linecap: square"/>
     </g>
     <g id="line2d_98">
      <g>
       <use xlink:href="#m89c0c21937" x="432.45571" y="293.76" style="stroke: #000000; stroke-width: 0.6"/>
      </g>
     </g>
    </g>
    <g id="xtick_35">
     <g id="line2d_99">
      <path d="M 437.308046 293.76 
L 437.308046 3.456 
" clip-path="url(#pece7a77aaf)" style="fill: none; stroke: #b0b0b0; stroke-width: 0.8; stroke-linecap: square"/>
     </g>
     <g id="line2d_100">
      <g>
       <use xlink:href="#m89c0c21937" x="437.308046" y="293.76" style="stroke: #000000; stroke-width: 0.6"/>
      </g>
     </g>
    </g>
    <g id="text_4">
     <!-- log10 of FEvals / DIM -->
     <g transform="translate(156.430563 339.313125)scale(0.2 -0.2)">
      <defs>
       <path id="DejaVuSans-6c" d="M 603 4863 
L 1178 4863 
L 1178 0 
L 603 0 
L 603 4863 
z
" transform="scale(0.015625)"/>
       <path id="DejaVuSans-6f" d="M 1959 3097 
Q 1497 3097 1228 2736 
Q 959 2375 959 1747 
Q 959 1119 1226 758 
Q 1494 397 1959 397 
Q 2419 397 2687 759 
Q 2956 1122 2956 1747 
Q 2956 2369 2687 2733 
Q 2419 3097 1959 3097 
z
M 1959 3584 
Q 2709 3584 3137 3096 
Q 3566 2609 3566 1747 
Q 3566 888 3137 398 
Q 2709 -91 1959 -91 
Q 1206 -91 779 398 
Q 353 888 353 1747 
Q 353 2609 779 3096 
Q 1206 3584 1959 3584 
z
" transform="scale(0.015625)"/>
       <path id="DejaVuSans-67" d="M 2906 1791 
Q 2906 2416 2648 2759 
Q 2391 3103 1925 3103 
Q 1463 3103 1205 2759 
Q 947 2416 947 1791 
Q 947 1169 1205 825 
Q 1463 481 1925 481 
Q 2391 481 2648 825 
Q 2906 1169 2906 1791 
z
M 3481 434 
Q 3481 -459 3084 -895 
Q 2688 -1331 1869 -1331 
Q 1566 -1331 1297 -1286 
Q 1028 -1241 775 -1147 
L 775 -588 
Q 1028 -725 1275 -790 
Q 1522 -856 1778 -856 
Q 2344 -856 2625 -561 
Q 2906 -266 2906 331 
L 2906 616 
Q 2728 306 2450 153 
Q 2172 0 1784 0 
Q 1141 0 747 490 
Q 353 981 353 1791 
Q 353 2603 747 3093 
Q 1141 3584 1784 3584 
Q 2172 3584 2450 3431 
Q 2728 3278 2906 2969 
L 2906 3500 
L 3481 3500 
L 3481 434 
z
" transform="scale(0.015625)"/>
       <path id="DejaVuSans-31" d="M 794 531 
L 1825 531 
L 1825 4091 
L 703 3866 
L 703 4441 
L 1819 4666 
L 2450 4666 
L 2450 531 
L 3481 531 
L 3481 0 
L 794 0 
L 794 531 
z
" transform="scale(0.015625)"/>
       <path id="DejaVuSans-20" transform="scale(0.015625)"/>
       <path id="DejaVuSans-66" d="M 2375 4863 
L 2375 4384 
L 1825 4384 
Q 1516 4384 1395 4259 
Q 1275 4134 1275 3809 
L 1275 3500 
L 2222 3500 
L 2222 3053 
L 1275 3053 
L 1275 0 
L 697 0 
L 697 3053 
L 147 3053 
L 147 3500 
L 697 3500 
L 697 3744 
Q 697 4328 969 4595 
Q 1241 4863 1831 4863 
L 2375 4863 
z
" transform="scale(0.015625)"/>
       <path id="DejaVuSans-46" d="M 628 4666 
L 3309 4666 
L 3309 4134 
L 1259 4134 
L 1259 2759 
L 3109 2759 
L 3109 2228 
L 1259 2228 
L 1259 0 
L 628 0 
L 628 4666 
z
" transform="scale(0.015625)"/>
       <path id="DejaVuSans-45" d="M 628 4666 
L 3578 4666 
L 3578 4134 
L 1259 4134 
L 1259 2753 
L 3481 2753 
L 3481 2222 
L 1259 2222 
L 1259 531 
L 3634 531 
L 3634 0 
L 628 0 
L 628 4666 
z
" transform="scale(0.015625)"/>
       <path id="DejaVuSans-76" d="M 191 3500 
L 800 3500 
L 1894 563 
L 2988 3500 
L 3597 3500 
L 2284 0 
L 1503 0 
L 191 3500 
z
" transform="scale(0.015625)"/>
       <path id="DejaVuSans-61" d="M 2194 1759 
Q 1497 1759 1228 1600 
Q 959 1441 959 1056 
Q 959 750 1161 570 
Q 1363 391 1709 391 
Q 2188 391 2477 730 
Q 2766 1069 2766 1631 
L 2766 1759 
L 2194 1759 
z
M 3341 1997 
L 3341 0 
L 2766 0 
L 2766 531 
Q 2569 213 2275 61 
Q 1981 -91 1556 -91 
Q 1019 -91 701 211 
Q 384 513 384 1019 
Q 384 1609 779 1909 
Q 1175 2209 1959 2209 
L 2766 2209 
L 2766 2266 
Q 2766 2663 2505 2880 
Q 2244 3097 1772 3097 
Q 1472 3097 1187 3025 
Q 903 2953 641 2809 
L 641 3341 
Q 956 3463 1253 3523 
Q 1550 3584 1831 3584 
Q 2591 3584 2966 3190 
Q 3341 2797 3341 1997 
z
" transform="scale(0.015625)"/>
       <path id="DejaVuSans-73" d="M 2834 3397 
L 2834 2853 
Q 2591 2978 2328 3040 
Q 2066 3103 1784 3103 
Q 1356 3103 1142 2972 
Q 928 2841 928 2578 
Q 928 2378 1081 2264 
Q 1234 2150 1697 2047 
L 1894 2003 
Q 2506 1872 2764 1633 
Q 3022 1394 3022 966 
Q 3022 478 2636 193 
Q 2250 -91 1575 -91 
Q 1294 -91 989 -36 
Q 684 19 347 128 
L 347 722 
Q 666 556 975 473 
Q 1284 391 1588 391 
Q 1994 391 2212 530 
Q 2431 669 2431 922 
Q 2431 1156 2273 1281 
Q 2116 1406 1581 1522 
L 1381 1569 
Q 847 1681 609 1914 
Q 372 2147 372 2553 
Q 372 3047 722 3315 
Q 1072 3584 1716 3584 
Q 2034 3584 2315 3537 
Q 2597 3491 2834 3397 
z
" transform="scale(0.015625)"/>
       <path id="DejaVuSans-2f" d="M 1625 4666 
L 2156 4666 
L 531 -594 
L 0 -594 
L 1625 4666 
z
" transform="scale(0.015625)"/>
       <path id="DejaVuSans-44" d="M 1259 4147 
L 1259 519 
L 2022 519 
Q 2988 519 3436 956 
Q 3884 1394 3884 2338 
Q 3884 3275 3436 3711 
Q 2988 4147 2022 4147 
L 1259 4147 
z
M 628 4666 
L 1925 4666 
Q 3281 4666 3915 4102 
Q 4550 3538 4550 2338 
Q 4550 1131 3912 565 
Q 3275 0 1925 0 
L 628 0 
L 628 4666 
z
" transform="scale(0.015625)"/>
       <path id="DejaVuSans-49" d="M 628 4666 
L 1259 4666 
L 1259 0 
L 628 0 
L 628 4666 
z
" transform="scale(0.015625)"/>
       <path id="DejaVuSans-4d" d="M 628 4666 
L 1569 4666 
L 2759 1491 
L 3956 4666 
L 4897 4666 
L 4897 0 
L 4281 0 
L 4281 4097 
L 3078 897 
L 2444 897 
L 1241 4097 
L 1241 0 
L 628 0 
L 628 4666 
z
" transform="scale(0.015625)"/>
      </defs>
      <use xlink:href="#DejaVuSans-6c"/>
      <use xlink:href="#DejaVuSans-6f" x="27.783203"/>
      <use xlink:href="#DejaVuSans-67" x="88.964844"/>
      <use xlink:href="#DejaVuSans-31" x="152.441406"/>
      <use xlink:href="#DejaVuSans-30" x="216.064453"/>
      <use xlink:href="#DejaVuSans-20" x="279.6875"/>
      <use xlink:href="#DejaVuSans-6f" x="311.474609"/>
      <use xlink:href="#DejaVuSans-66" x="372.65625"/>
      <use xlink:href="#DejaVuSans-20" x="407.861328"/>
      <use xlink:href="#DejaVuSans-46" x="439.648438"/>
      <use xlink:href="#DejaVuSans-45" x="497.167969"/>
      <use xlink:href="#DejaVuSans-76" x="560.351562"/>
      <use xlink:href="#DejaVuSans-61" x="619.53125"/>
      <use xlink:href="#DejaVuSans-6c" x="680.810547"/>
      <use xlink:href="#DejaVuSans-73" x="708.59375"/>
      <use xlink:href="#DejaVuSans-20" x="760.693359"/>
      <use xlink:href="#DejaVuSans-2f" x="792.480469"/>
      <use xlink:href="#DejaVuSans-20" x="826.171875"/>
      <use xlink:href="#DejaVuSans-44" x="857.958984"/>
      <use xlink:href="#DejaVuSans-49" x="934.960938"/>
      <use xlink:href="#DejaVuSans-4d" x="964.453125"/>
     </g>
    </g>
   </g>
   <g id="matplotlib.axis_2">
    <g id="ytick_1">
     <g id="line2d_101">
      <path d="M 62.208 293.76 
L 460.8 293.76 
" clip-path="url(#pece7a77aaf)" style="fill: none; stroke: #b0b0b0; stroke-width: 0.8; stroke-linecap: square"/>
     </g>
     <g id="line2d_102">
      <defs>
       <path id="m74e2673491" d="M 0 0 
L -3.5 0 
" style="stroke: #000000; stroke-width: 0.8"/>
      </defs>
      <g>
       <use xlink:href="#m74e2673491" x="62.208" y="293.76" style="stroke: #000000; stroke-width: 0.8"/>
      </g>
     </g>
     <g id="text_5">
      <!-- 0.0 -->
      <g transform="translate(29.763 299.83875)scale(0.16 -0.16)">
       <defs>
        <path id="DejaVuSans-2e" d="M 684 794 
L 1344 794 
L 1344 0 
L 684 0 
L 684 794 
z
" transform="scale(0.015625)"/>
       </defs>
       <use xlink:href="#DejaVuSans-30"/>
       <use xlink:href="#DejaVuSans-2e" x="63.623047"/>
       <use xlink:href="#DejaVuSans-30" x="95.410156"/>
      </g>
     </g>
    </g>
    <g id="ytick_2">
     <g id="line2d_103">
      <path d="M 62.208 236.274059 
L 460.8 236.274059 
" clip-path="url(#pece7a77aaf)" style="fill: none; stroke: #b0b0b0; stroke-width: 0.8; stroke-linecap: square"/>
     </g>
     <g id="line2d_104">
      <g>
       <use xlink:href="#m74e2673491" x="62.208" y="236.274059" style="stroke: #000000; stroke-width: 0.8"/>
      </g>
     </g>
     <g id="text_6">
      <!-- 0.2 -->
      <g transform="translate(29.763 242.352809)scale(0.16 -0.16)">
       <use xlink:href="#DejaVuSans-30"/>
       <use xlink:href="#DejaVuSans-2e" x="63.623047"/>
       <use xlink:href="#DejaVuSans-32" x="95.410156"/>
      </g>
     </g>
    </g>
    <g id="ytick_3">
     <g id="line2d_105">
      <path d="M 62.208 178.788119 
L 460.8 178.788119 
" clip-path="url(#pece7a77aaf)" style="fill: none; stroke: #b0b0b0; stroke-width: 0.8; stroke-linecap: square"/>
     </g>
     <g id="line2d_106">
      <g>
       <use xlink:href="#m74e2673491" x="62.208" y="178.788119" style="stroke: #000000; stroke-width: 0.8"/>
      </g>
     </g>
     <g id="text_7">
      <!-- 0.4 -->
      <g transform="translate(29.763 184.866869)scale(0.16 -0.16)">
       <use xlink:href="#DejaVuSans-30"/>
       <use xlink:href="#DejaVuSans-2e" x="63.623047"/>
       <use xlink:href="#DejaVuSans-34" x="95.410156"/>
      </g>
     </g>
    </g>
    <g id="ytick_4">
     <g id="line2d_107">
      <path d="M 62.208 121.302178 
L 460.8 121.302178 
" clip-path="url(#pece7a77aaf)" style="fill: none; stroke: #b0b0b0; stroke-width: 0.8; stroke-linecap: square"/>
     </g>
     <g id="line2d_108">
      <g>
       <use xlink:href="#m74e2673491" x="62.208" y="121.302178" style="stroke: #000000; stroke-width: 0.8"/>
      </g>
     </g>
     <g id="text_8">
      <!-- 0.6 -->
      <g transform="translate(29.763 127.380928)scale(0.16 -0.16)">
       <defs>
        <path id="DejaVuSans-36" d="M 2113 2584 
Q 1688 2584 1439 2293 
Q 1191 2003 1191 1497 
Q 1191 994 1439 701 
Q 1688 409 2113 409 
Q 2538 409 2786 701 
Q 3034 994 3034 1497 
Q 3034 2003 2786 2293 
Q 2538 2584 2113 2584 
z
M 3366 4563 
L 3366 3988 
Q 3128 4100 2886 4159 
Q 2644 4219 2406 4219 
Q 1781 4219 1451 3797 
Q 1122 3375 1075 2522 
Q 1259 2794 1537 2939 
Q 1816 3084 2150 3084 
Q 2853 3084 3261 2657 
Q 3669 2231 3669 1497 
Q 3669 778 3244 343 
Q 2819 -91 2113 -91 
Q 1303 -91 875 529 
Q 447 1150 447 2328 
Q 447 3434 972 4092 
Q 1497 4750 2381 4750 
Q 2619 4750 2861 4703 
Q 3103 4656 3366 4563 
z
" transform="scale(0.015625)"/>
       </defs>
       <use xlink:href="#DejaVuSans-30"/>
       <use xlink:href="#DejaVuSans-2e" x="63.623047"/>
       <use xlink:href="#DejaVuSans-36" x="95.410156"/>
      </g>
     </g>
    </g>
    <g id="ytick_5">
     <g id="line2d_109">
      <path d="M 62.208 63.816238 
L 460.8 63.816238 
" clip-path="url(#pece7a77aaf)" style="fill: none; stroke: #b0b0b0; stroke-width: 0.8; stroke-linecap: square"/>
     </g>
     <g id="line2d_110">
      <g>
       <use xlink:href="#m74e2673491" x="62.208" y="63.816238" style="stroke: #000000; stroke-width: 0.8"/>
      </g>
     </g>
     <g id="text_9">
      <!-- 0.8 -->
      <g transform="translate(29.763 69.894988)scale(0.16 -0.16)">
       <defs>
        <path id="DejaVuSans-38" d="M 2034 2216 
Q 1584 2216 1326 1975 
Q 1069 1734 1069 1313 
Q 1069 891 1326 650 
Q 1584 409 2034 409 
Q 2484 409 2743 651 
Q 3003 894 3003 1313 
Q 3003 1734 2745 1975 
Q 2488 2216 2034 2216 
z
M 1403 2484 
Q 997 2584 770 2862 
Q 544 3141 544 3541 
Q 544 4100 942 4425 
Q 1341 4750 2034 4750 
Q 2731 4750 3128 4425 
Q 3525 4100 3525 3541 
Q 3525 3141 3298 2862 
Q 3072 2584 2669 2484 
Q 3125 2378 3379 2068 
Q 3634 1759 3634 1313 
Q 3634 634 3220 271 
Q 2806 -91 2034 -91 
Q 1263 -91 848 271 
Q 434 634 434 1313 
Q 434 1759 690 2068 
Q 947 2378 1403 2484 
z
M 1172 3481 
Q 1172 3119 1398 2916 
Q 1625 2713 2034 2713 
Q 2441 2713 2670 2916 
Q 2900 3119 2900 3481 
Q 2900 3844 2670 4047 
Q 2441 4250 2034 4250 
Q 1625 4250 1398 4047 
Q 1172 3844 1172 3481 
z
" transform="scale(0.015625)"/>
       </defs>
       <use xlink:href="#DejaVuSans-30"/>
       <use xlink:href="#DejaVuSans-2e" x="63.623047"/>
       <use xlink:href="#DejaVuSans-38" x="95.410156"/>
      </g>
     </g>
    </g>
    <g id="ytick_6">
     <g id="line2d_111">
      <path d="M 62.208 6.330297 
L 460.8 6.330297 
" clip-path="url(#pece7a77aaf)" style="fill: none; stroke: #b0b0b0; stroke-width: 0.8; stroke-linecap: square"/>
     </g>
     <g id="line2d_112">
      <g>
       <use xlink:href="#m74e2673491" x="62.208" y="6.330297" style="stroke: #000000; stroke-width: 0.8"/>
      </g>
     </g>
     <g id="text_10">
      <!-- 1.0 -->
      <g transform="translate(29.763 12.409047)scale(0.16 -0.16)">
       <use xlink:href="#DejaVuSans-31"/>
       <use xlink:href="#DejaVuSans-2e" x="63.623047"/>
       <use xlink:href="#DejaVuSans-30" x="95.410156"/>
      </g>
     </g>
    </g>
    <g id="text_11">
     <!-- proportion of trials -->
     <g transform="translate(21.603625 241.61425)rotate(-90)scale(0.2 -0.2)">
      <defs>
       <path id="DejaVuSans-70" d="M 1159 525 
L 1159 -1331 
L 581 -1331 
L 581 3500 
L 1159 3500 
L 1159 2969 
Q 1341 3281 1617 3432 
Q 1894 3584 2278 3584 
Q 2916 3584 3314 3078 
Q 3713 2572 3713 1747 
Q 3713 922 3314 415 
Q 2916 -91 2278 -91 
Q 1894 -91 1617 61 
Q 1341 213 1159 525 
z
M 3116 1747 
Q 3116 2381 2855 2742 
Q 2594 3103 2138 3103 
Q 1681 3103 1420 2742 
Q 1159 2381 1159 1747 
Q 1159 1113 1420 752 
Q 1681 391 2138 391 
Q 2594 391 2855 752 
Q 3116 1113 3116 1747 
z
" transform="scale(0.015625)"/>
       <path id="DejaVuSans-72" d="M 2631 2963 
Q 2534 3019 2420 3045 
Q 2306 3072 2169 3072 
Q 1681 3072 1420 2755 
Q 1159 2438 1159 1844 
L 1159 0 
L 581 0 
L 581 3500 
L 1159 3500 
L 1159 2956 
Q 1341 3275 1631 3429 
Q 1922 3584 2338 3584 
Q 2397 3584 2469 3576 
Q 2541 3569 2628 3553 
L 2631 2963 
z
" transform="scale(0.015625)"/>
       <path id="DejaVuSans-74" d="M 1172 4494 
L 1172 3500 
L 2356 3500 
L 2356 3053 
L 1172 3053 
L 1172 1153 
Q 1172 725 1289 603 
Q 1406 481 1766 481 
L 2356 481 
L 2356 0 
L 1766 0 
Q 1100 0 847 248 
Q 594 497 594 1153 
L 594 3053 
L 172 3053 
L 172 3500 
L 594 3500 
L 594 4494 
L 1172 4494 
z
" transform="scale(0.015625)"/>
       <path id="DejaVuSans-69" d="M 603 3500 
L 1178 3500 
L 1178 0 
L 603 0 
L 603 3500 
z
M 603 4863 
L 1178 4863 
L 1178 4134 
L 603 4134 
L 603 4863 
z
" transform="scale(0.015625)"/>
       <path id="DejaVuSans-6e" d="M 3513 2113 
L 3513 0 
L 2938 0 
L 2938 2094 
Q 2938 2591 2744 2837 
Q 2550 3084 2163 3084 
Q 1697 3084 1428 2787 
Q 1159 2491 1159 1978 
L 1159 0 
L 581 0 
L 581 3500 
L 1159 3500 
L 1159 2956 
Q 1366 3272 1645 3428 
Q 1925 3584 2291 3584 
Q 2894 3584 3203 3211 
Q 3513 2838 3513 2113 
z
" transform="scale(0.015625)"/>
      </defs>
      <use xlink:href="#DejaVuSans-70"/>
      <use xlink:href="#DejaVuSans-72" x="63.476562"/>
      <use xlink:href="#DejaVuSans-6f" x="102.339844"/>
      <use xlink:href="#DejaVuSans-70" x="163.521484"/>
      <use xlink:href="#DejaVuSans-6f" x="226.998047"/>
      <use xlink:href="#DejaVuSans-72" x="288.179688"/>
      <use xlink:href="#DejaVuSans-74" x="329.292969"/>
      <use xlink:href="#DejaVuSans-69" x="368.501953"/>
      <use xlink:href="#DejaVuSans-6f" x="396.285156"/>
      <use xlink:href="#DejaVuSans-6e" x="457.466797"/>
      <use xlink:href="#DejaVuSans-20" x="520.845703"/>
      <use xlink:href="#DejaVuSans-6f" x="552.632812"/>
      <use xlink:href="#DejaVuSans-66" x="613.814453"/>
      <use xlink:href="#DejaVuSans-20" x="649.019531"/>
      <use xlink:href="#DejaVuSans-74" x="680.806641"/>
      <use xlink:href="#DejaVuSans-72" x="720.015625"/>
      <use xlink:href="#DejaVuSans-69" x="761.128906"/>
      <use xlink:href="#DejaVuSans-61" x="788.912109"/>
      <use xlink:href="#DejaVuSans-6c" x="850.191406"/>
      <use xlink:href="#DejaVuSans-73" x="877.974609"/>
     </g>
    </g>
   </g>
   <g id="line2d_113">
    <path d="M -1 270.765624 
L 5.096498 270.765624 
L 5.096498 263.100832 
L 12.607643 263.100832 
L 12.607643 259.268436 
L 18.958225 259.268436 
L 18.958225 255.43604 
L 24.45935 255.43604 
L 24.45935 251.603644 
L 37.578765 251.603644 
L 37.578765 247.771248 
L 41.163394 247.771248 
L 41.163394 240.106455 
L 50.356292 240.106455 
L 50.356292 236.274059 
L 164.061086 236.274059 
L 164.061086 232.441663 
L 166.752475 232.441663 
L 166.752475 228.609267 
L 167.558709 228.609267 
L 167.558709 224.776871 
L 168.505814 224.776871 
L 168.505814 217.112079 
L 169.278768 217.112079 
L 169.278768 213.279683 
L 172.658689 213.279683 
L 172.658689 209.447287 
L 174.588009 209.447287 
L 174.588009 205.614891 
L 174.856396 205.614891 
L 174.856396 201.782495 
L 175.123046 201.782495 
L 175.123046 197.950099 
L 176.042959 197.950099 
L 176.042959 194.117703 
L 176.172714 194.117703 
L 176.172714 190.285307 
L 176.302062 190.285307 
L 176.302062 186.452911 
L 176.559545 186.452911 
L 176.559545 182.620515 
L 177.196301 182.620515 
L 177.196301 178.788119 
L 178.441025 178.788119 
L 178.441025 174.955723 
L 180.357521 174.955723 
L 180.357521 171.123327 
L 180.590934 171.123327 
L 180.590934 167.290931 
L 180.823032 167.290931 
L 180.823032 163.458535 
L 181.511581 163.458535 
L 181.511581 159.626139 
L 181.964302 159.626139 
L 181.964302 155.793743 
L 182.965094 155.793743 
L 182.965094 151.961347 
L 184.58088 151.961347 
L 184.58088 148.12895 
L 185.4174 148.12895 
L 185.4174 144.296554 
L 185.623903 144.296554 
L 185.623903 140.464158 
L 186.03383 140.464158 
L 186.03383 136.631762 
L 186.74153 136.631762 
L 186.74153 132.799366 
L 187.829635 132.799366 
L 187.829635 128.96697 
L 189.362733 128.96697 
L 189.362733 125.134574 
L 191.915591 125.134574 
L 191.915591 121.302178 
L 193.220787 121.302178 
L 193.220787 117.469782 
L 198.215625 117.469782 
L 198.215625 113.637386 
L 198.668346 113.637386 
L 198.668346 109.80499 
L 201.143837 109.80499 
L 201.143837 105.972594 
L 201.705307 105.972594 
L 201.705307 102.140198 
L 202.190393 102.140198 
L 202.190393 98.307802 
L 202.601684 98.307802 
L 202.601684 94.475406 
L 205.625486 94.475406 
L 205.625486 90.64301 
L 218.43258 90.64301 
L 218.43258 86.810614 
L 227.111382 86.810614 
L 227.111382 82.978218 
L 292.302277 82.978218 
L 292.302277 79.145822 
L 293.640906 79.145822 
L 293.640906 75.313426 
L 293.81267 75.313426 
L 293.81267 71.48103 
L 329.604774 71.48103 
L 329.604774 67.648634 
L 357.178292 67.648634 
L 357.178292 63.816238 
L 365.507751 63.816238 
L 365.507751 59.983842 
L 390.172213 59.983842 
L 390.172213 56.151446 
L 409.216118 56.151446 
L 409.216118 52.31905 
L 419.860591 52.31905 
L 419.860591 48.486653 
L 420.570688 48.486653 
L 420.570688 44.654257 
L 433.296255 44.654257 
L 433.296255 40.821861 
L 433.296255 40.821861 
L 460.8 40.821861 
L 460.8 40.821861 
" clip-path="url(#pece7a77aaf)" style="fill: none; stroke: #000000; stroke-width: 1.5; stroke-linecap: square"/>
   </g>
   <g id="line2d_114">
    <defs>
     <path id="m1cd425e1b4" d="M 0 14.142136 
L 8.485281 0 
L 0 -14.142136 
L -8.485281 0 
z
" style="stroke: #000000; stroke-width: 1.5; stroke-linejoin: miter"/>
    </defs>
    <g clip-path="url(#pece7a77aaf)">
     <use xlink:href="#m1cd425e1b4" x="172.658689" y="213.279683" style="fill-opacity: 0; stroke: #000000; stroke-width: 1.5; stroke-linejoin: miter"/>
     <use xlink:href="#m1cd425e1b4" x="193.220787" y="121.302178" style="fill-opacity: 0; stroke: #000000; stroke-width: 1.5; stroke-linejoin: miter"/>
     <use xlink:href="#m1cd425e1b4" x="218.43258" y="90.64301" style="fill-opacity: 0; stroke: #000000; stroke-width: 1.5; stroke-linejoin: miter"/>
     <use xlink:href="#m1cd425e1b4" x="293.81267" y="75.313426" style="fill-opacity: 0; stroke: #000000; stroke-width: 1.5; stroke-linejoin: miter"/>
     <use xlink:href="#m1cd425e1b4" x="419.860591" y="52.31905" style="fill-opacity: 0; stroke: #000000; stroke-width: 1.5; stroke-linejoin: miter"/>
     <use xlink:href="#m1cd425e1b4" x="433.296255" y="40.821861" style="fill-opacity: 0; stroke: #000000; stroke-width: 1.5; stroke-linejoin: miter"/>
    </g>
   </g>
   <g id="line2d_115">
    <path clip-path="url(#pece7a77aaf)" style="fill: none; stroke: #000000; stroke-width: 1.5; stroke-linecap: square"/>
    <g clip-path="url(#pece7a77aaf)">
     <use xlink:href="#m1cd425e1b4" x="-1" y="581.189703" style="fill-opacity: 0; stroke: #000000; stroke-width: 1.5; stroke-linejoin: miter"/>
     <use xlink:href="#m1cd425e1b4" x="460.8" y="581.189703" style="fill-opacity: 0; stroke: #000000; stroke-width: 1.5; stroke-linejoin: miter"/>
    </g>
   </g>
   <g id="line2d_116">
    <path d="M -1 263.100832 
L 5.096498 263.100832 
L 5.096498 255.43604 
L 18.958225 255.43604 
L 18.958225 251.603644 
L 24.45935 251.603644 
L 24.45935 247.771248 
L 37.578765 247.771248 
L 37.578765 243.938851 
L 57.867437 243.938851 
L 57.867437 240.106455 
L 82.83856 240.106455 
L 82.83856 236.274059 
L 153.182812 236.274059 
L 153.182812 232.441663 
L 153.408551 232.441663 
L 153.408551 228.609267 
L 158.683937 228.609267 
L 158.683937 224.776871 
L 163.88689 224.776871 
L 163.88689 220.944475 
L 165.763694 220.944475 
L 165.763694 217.112079 
L 169.431633 217.112079 
L 169.431633 213.279683 
L 170.037486 213.279683 
L 170.037486 209.447287 
L 170.187567 209.447287 
L 170.187567 205.614891 
L 171.2231 205.614891 
L 171.2231 201.782495 
L 172.799534 201.782495 
L 172.799534 197.950099 
L 173.772196 197.950099 
L 173.772196 194.117703 
L 175.782216 194.117703 
L 175.782216 190.285307 
L 177.448272 190.285307 
L 177.448272 186.452911 
L 178.07154 186.452911 
L 178.07154 182.620515 
L 179.170199 182.620515 
L 179.170199 178.788119 
L 179.649242 178.788119 
L 179.649242 174.955723 
L 179.88669 174.955723 
L 179.88669 171.123327 
L 180.122778 171.123327 
L 180.122778 163.458535 
L 180.707146 163.458535 
L 180.707146 159.626139 
L 181.053829 159.626139 
L 181.053829 155.793743 
L 181.851588 155.793743 
L 181.851588 151.961347 
L 182.07671 151.961347 
L 182.07671 148.12895 
L 182.744788 148.12895 
L 182.744788 144.296554 
L 183.72702 144.296554 
L 183.72702 140.464158 
L 184.049295 140.464158 
L 184.049295 136.631762 
L 188.411253 136.631762 
L 188.411253 132.799366 
L 190.292732 132.799366 
L 190.292732 128.96697 
L 191.38171 128.96697 
L 191.38171 125.134574 
L 193.984506 125.134574 
L 193.984506 121.302178 
L 194.235965 121.302178 
L 194.235965 117.469782 
L 198.442607 117.469782 
L 198.442607 113.637386 
L 202.465043 113.637386 
L 202.465043 109.80499 
L 204.663639 109.80499 
L 204.663639 105.972594 
L 223.16605 105.972594 
L 223.16605 102.140198 
L 289.062678 102.140198 
L 289.062678 98.307802 
L 293.849915 98.307802 
L 293.849915 94.475406 
L 294.205769 94.475406 
L 294.205769 90.64301 
L 296.551515 90.64301 
L 296.551515 86.810614 
L 304.377569 86.810614 
L 304.377569 82.978218 
L 328.745611 82.978218 
L 328.745611 79.145822 
L 329.142673 79.145822 
L 329.142673 75.313426 
L 331.319149 75.313426 
L 331.319149 71.48103 
L 354.139652 71.48103 
L 354.139652 67.648634 
L 361.370684 67.648634 
L 361.370684 63.816238 
L 363.046538 63.816238 
L 363.046538 59.983842 
L 395.711138 59.983842 
L 395.711138 56.151446 
L 419.093904 56.151446 
L 419.093904 52.31905 
L 431.55373 52.31905 
L 431.55373 48.486653 
L 431.55373 48.486653 
L 460.8 48.486653 
L 460.8 48.486653 
" clip-path="url(#pece7a77aaf)" style="fill: none; stroke: #000000; stroke-width: 1.5; stroke-linecap: square"/>
   </g>
   <g id="line2d_117">
    <defs>
     <path id="ma28fff8d9b" d="M 0 7.5 
C 1.989023 7.5 3.896849 6.709753 5.303301 5.303301 
C 6.709753 3.896849 7.5 1.989023 7.5 0 
C 7.5 -1.989023 6.709753 -3.896849 5.303301 -5.303301 
C 3.896849 -6.709753 1.989023 -7.5 0 -7.5 
C -1.989023 -7.5 -3.896849 -6.709753 -5.303301 -5.303301 
C -6.709753 -3.896849 -7.5 -1.989023 -7.5 0 
C -7.5 1.989023 -6.709753 3.896849 -5.303301 5.303301 
C -3.896849 6.709753 -1.989023 7.5 0 7.5 
z
" style="stroke: #000000; stroke-width: 1.5"/>
    </defs>
    <g clip-path="url(#pece7a77aaf)">
     <use xlink:href="#ma28fff8d9b" x="82.83856" y="240.106455" style="fill-opacity: 0; stroke: #000000; stroke-width: 1.5"/>
     <use xlink:href="#ma28fff8d9b" x="188.411253" y="136.631762" style="fill-opacity: 0; stroke: #000000; stroke-width: 1.5"/>
     <use xlink:href="#ma28fff8d9b" x="223.16605" y="105.972594" style="fill-opacity: 0; stroke: #000000; stroke-width: 1.5"/>
     <use xlink:href="#ma28fff8d9b" x="304.377569" y="86.810614" style="fill-opacity: 0; stroke: #000000; stroke-width: 1.5"/>
     <use xlink:href="#ma28fff8d9b" x="395.711138" y="59.983842" style="fill-opacity: 0; stroke: #000000; stroke-width: 1.5"/>
     <use xlink:href="#ma28fff8d9b" x="431.55373" y="48.486653" style="fill-opacity: 0; stroke: #000000; stroke-width: 1.5"/>
    </g>
   </g>
   <g id="line2d_118">
    <path clip-path="url(#pece7a77aaf)" style="fill: none; stroke: #000000; stroke-width: 1.5; stroke-linecap: square"/>
   </g>
   <g id="line2d_119">
    <path d="M 209.030144 293.76 
L 209.030144 289.927604 
L 210.68855 289.927604 
L 210.68855 286.095208 
L 216.434169 286.095208 
L 216.434169 282.262812 
L 298.312407 282.262812 
L 298.312407 278.430416 
L 298.777467 278.430416 
L 298.777467 274.59802 
L 334.616919 274.59802 
L 334.616919 270.765624 
L 335.311309 270.765624 
L 335.311309 266.933228 
L 360.252483 266.933228 
L 360.252483 263.100832 
L 364.998544 263.100832 
L 364.998544 259.268436 
L 399.134946 259.268436 
L 399.134946 255.43604 
L 400.76158 255.43604 
L 400.76158 251.603644 
L 414.548693 251.603644 
L 414.548693 247.771248 
L 415.891756 247.771248 
L 415.891756 243.938851 
L 416.851622 243.938851 
L 416.851622 240.106455 
L 440.630929 240.106455 
L 440.630929 236.274059 
L 440.630929 236.274059 
L 440.630929 236.274059 
L 460.8 236.274059 
" clip-path="url(#pece7a77aaf)" style="fill: none; stroke: #00bfbf; stroke-width: 1.5; stroke-linecap: square"/>
   </g>
   <g id="line2d_120">
    <defs>
     <path id="m7924b9a291" d="M 0 14.142136 
L 8.485281 0 
L 0 -14.142136 
L -8.485281 0 
z
" style="stroke: #00bfbf; stroke-width: 1.5; stroke-linejoin: miter"/>
    </defs>
    <g clip-path="url(#pece7a77aaf)">
     <use xlink:href="#m7924b9a291" x="210.68855" y="289.927604" style="fill-opacity: 0; stroke: #00bfbf; stroke-width: 1.5; stroke-linejoin: miter"/>
     <use xlink:href="#m7924b9a291" x="298.312407" y="282.262812" style="fill-opacity: 0; stroke: #00bfbf; stroke-width: 1.5; stroke-linejoin: miter"/>
     <use xlink:href="#m7924b9a291" x="360.252483" y="266.933228" style="fill-opacity: 0; stroke: #00bfbf; stroke-width: 1.5; stroke-linejoin: miter"/>
     <use xlink:href="#m7924b9a291" x="415.891756" y="247.771248" style="fill-opacity: 0; stroke: #00bfbf; stroke-width: 1.5; stroke-linejoin: miter"/>
     <use xlink:href="#m7924b9a291" x="440.630929" y="236.274059" style="fill-opacity: 0; stroke: #00bfbf; stroke-width: 1.5; stroke-linejoin: miter"/>
    </g>
   </g>
   <g id="line2d_121">
    <path clip-path="url(#pece7a77aaf)" style="fill: none; stroke: #00bfbf; stroke-width: 1.5; stroke-linecap: square"/>
    <g clip-path="url(#pece7a77aaf)">
     <use xlink:href="#m7924b9a291" x="-1" y="581.189703" style="fill-opacity: 0; stroke: #00bfbf; stroke-width: 1.5; stroke-linejoin: miter"/>
     <use xlink:href="#m7924b9a291" x="460.8" y="581.189703" style="fill-opacity: 0; stroke: #00bfbf; stroke-width: 1.5; stroke-linejoin: miter"/>
    </g>
   </g>
   <g id="line2d_122">
    <path d="M 215.993029 293.76 
L 215.993029 289.927604 
L 218.012434 289.927604 
L 218.012434 286.095208 
L 296.704639 286.095208 
L 296.704639 282.262812 
L 331.271144 282.262812 
L 331.271144 278.430416 
L 331.899758 278.430416 
L 331.899758 274.59802 
L 335.259566 274.59802 
L 335.259566 270.765624 
L 371.994109 270.765624 
L 371.994109 266.933228 
L 374.620018 266.933228 
L 374.620018 263.100832 
L 384.76307 263.100832 
L 384.76307 259.268436 
L 403.87008 259.268436 
L 403.87008 255.43604 
L 404.5924 255.43604 
L 404.5924 251.603644 
L 406.138382 251.603644 
L 406.138382 247.771248 
L 411.625116 247.771248 
L 411.625116 243.938851 
L 412.876416 243.938851 
L 412.876416 240.106455 
L 418.276366 240.106455 
L 418.276366 236.274059 
L 422.98962 236.274059 
L 422.98962 232.441663 
L 422.98962 232.441663 
L 422.98962 232.441663 
L 460.8 232.441663 
" clip-path="url(#pece7a77aaf)" style="fill: none; stroke: #00bfbf; stroke-width: 1.5; stroke-linecap: square"/>
   </g>
   <g id="line2d_123">
    <defs>
     <path id="m74e28e57c0" d="M 0 7.5 
C 1.989023 7.5 3.896849 6.709753 5.303301 5.303301 
C 6.709753 3.896849 7.5 1.989023 7.5 0 
C 7.5 -1.989023 6.709753 -3.896849 5.303301 -5.303301 
C 3.896849 -6.709753 1.989023 -7.5 0 -7.5 
C -1.989023 -7.5 -3.896849 -6.709753 -5.303301 -5.303301 
C -6.709753 -3.896849 -7.5 -1.989023 -7.5 0 
C -7.5 1.989023 -6.709753 3.896849 -5.303301 5.303301 
C -3.896849 6.709753 -1.989023 7.5 0 7.5 
z
" style="stroke: #00bfbf; stroke-width: 1.5"/>
    </defs>
    <g clip-path="url(#pece7a77aaf)">
     <use xlink:href="#m74e28e57c0" x="218.012434" y="289.927604" style="fill-opacity: 0; stroke: #00bfbf; stroke-width: 1.5"/>
     <use xlink:href="#m74e28e57c0" x="335.259566" y="274.59802" style="fill-opacity: 0; stroke: #00bfbf; stroke-width: 1.5"/>
     <use xlink:href="#m74e28e57c0" x="384.76307" y="263.100832" style="fill-opacity: 0; stroke: #00bfbf; stroke-width: 1.5"/>
     <use xlink:href="#m74e28e57c0" x="422.98962" y="236.274059" style="fill-opacity: 0; stroke: #00bfbf; stroke-width: 1.5"/>
     <use xlink:href="#m74e28e57c0" x="422.98962" y="232.441663" style="fill-opacity: 0; stroke: #00bfbf; stroke-width: 1.5"/>
    </g>
   </g>
   <g id="line2d_124">
    <path clip-path="url(#pece7a77aaf)" style="fill: none; stroke: #00bfbf; stroke-width: 1.5; stroke-linecap: square"/>
   </g>
   <g id="line2d_125">
    <path d="M 231.293624 293.76 
L 231.293624 289.927604 
L 234.591163 289.927604 
L 234.591163 286.095208 
L 236.040074 286.095208 
L 236.040074 282.262812 
L 303.148408 282.262812 
L 303.148408 278.430416 
L 304.704966 278.430416 
L 304.704966 274.59802 
L 338.587697 274.59802 
L 338.587697 270.765624 
L 339.027726 270.765624 
L 339.027726 266.933228 
L 367.631942 266.933228 
L 367.631942 263.100832 
L 419.209483 263.100832 
L 419.209483 259.268436 
L 441.735032 259.268436 
L 441.735032 255.43604 
L 441.735032 255.43604 
L 441.735032 255.43604 
L 460.8 255.43604 
" clip-path="url(#pece7a77aaf)" style="fill: none; stroke: #bf00bf; stroke-width: 1.5; stroke-linecap: square"/>
   </g>
   <g id="line2d_126">
    <defs>
     <path id="mb2bb8749c4" d="M 0 14.142136 
L 8.485281 0 
L 0 -14.142136 
L -8.485281 0 
z
" style="stroke: #bf00bf; stroke-width: 1.5; stroke-linejoin: miter"/>
    </defs>
    <g clip-path="url(#pece7a77aaf)">
     <use xlink:href="#mb2bb8749c4" x="234.591163" y="289.927604" style="fill-opacity: 0; stroke: #bf00bf; stroke-width: 1.5; stroke-linejoin: miter"/>
     <use xlink:href="#mb2bb8749c4" x="303.148408" y="282.262812" style="fill-opacity: 0; stroke: #bf00bf; stroke-width: 1.5; stroke-linejoin: miter"/>
     <use xlink:href="#mb2bb8749c4" x="339.027726" y="270.765624" style="fill-opacity: 0; stroke: #bf00bf; stroke-width: 1.5; stroke-linejoin: miter"/>
     <use xlink:href="#mb2bb8749c4" x="367.631942" y="266.933228" style="fill-opacity: 0; stroke: #bf00bf; stroke-width: 1.5; stroke-linejoin: miter"/>
     <use xlink:href="#mb2bb8749c4" x="441.735032" y="255.43604" style="fill-opacity: 0; stroke: #bf00bf; stroke-width: 1.5; stroke-linejoin: miter"/>
    </g>
   </g>
   <g id="line2d_127">
    <path clip-path="url(#pece7a77aaf)" style="fill: none; stroke: #bf00bf; stroke-width: 1.5; stroke-linecap: square"/>
    <g clip-path="url(#pece7a77aaf)">
     <use xlink:href="#mb2bb8749c4" x="-1" y="581.189703" style="fill-opacity: 0; stroke: #bf00bf; stroke-width: 1.5; stroke-linejoin: miter"/>
     <use xlink:href="#mb2bb8749c4" x="460.8" y="581.189703" style="fill-opacity: 0; stroke: #bf00bf; stroke-width: 1.5; stroke-linejoin: miter"/>
    </g>
   </g>
   <g id="line2d_128">
    <path d="M 237.204844 293.76 
L 237.204844 289.927604 
L 241.929375 289.927604 
L 241.929375 286.095208 
L 301.610974 286.095208 
L 301.610974 282.262812 
L 335.071107 282.262812 
L 335.071107 278.430416 
L 335.490546 278.430416 
L 335.490546 274.59802 
L 415.583057 274.59802 
L 415.583057 270.765624 
L 415.583057 270.765624 
L 415.583057 270.765624 
L 460.8 270.765624 
" clip-path="url(#pece7a77aaf)" style="fill: none; stroke: #bf00bf; stroke-width: 1.5; stroke-linecap: square"/>
   </g>
   <g id="line2d_129">
    <defs>
     <path id="md41c925986" d="M 0 7.5 
C 1.989023 7.5 3.896849 6.709753 5.303301 5.303301 
C 6.709753 3.896849 7.5 1.989023 7.5 0 
C 7.5 -1.989023 6.709753 -3.896849 5.303301 -5.303301 
C 3.896849 -6.709753 1.989023 -7.5 0 -7.5 
C -1.989023 -7.5 -3.896849 -6.709753 -5.303301 -5.303301 
C -6.709753 -3.896849 -7.5 -1.989023 -7.5 0 
C -7.5 1.989023 -6.709753 3.896849 -5.303301 5.303301 
C -3.896849 6.709753 -1.989023 7.5 0 7.5 
z
" style="stroke: #bf00bf; stroke-width: 1.5"/>
    </defs>
    <g clip-path="url(#pece7a77aaf)">
     <use xlink:href="#md41c925986" x="241.929375" y="289.927604" style="fill-opacity: 0; stroke: #bf00bf; stroke-width: 1.5"/>
     <use xlink:href="#md41c925986" x="335.490546" y="278.430416" style="fill-opacity: 0; stroke: #bf00bf; stroke-width: 1.5"/>
     <use xlink:href="#md41c925986" x="415.583057" y="274.59802" style="fill-opacity: 0; stroke: #bf00bf; stroke-width: 1.5"/>
     <use xlink:href="#md41c925986" x="415.583057" y="270.765624" style="fill-opacity: 0; stroke: #bf00bf; stroke-width: 1.5"/>
    </g>
   </g>
   <g id="line2d_130">
    <path clip-path="url(#pece7a77aaf)" style="fill: none; stroke: #bf00bf; stroke-width: 1.5; stroke-linecap: square"/>
   </g>
   <g id="line2d_131">
    <path d="M 248.493212 293.76 
L 248.493212 289.927604 
L 250.160634 289.927604 
L 250.160634 286.095208 
L 252.622771 286.095208 
L 252.622771 282.262812 
L 308.641363 282.262812 
L 308.641363 278.430416 
L 309.582085 278.430416 
L 309.582085 274.59802 
L 342.445605 274.59802 
L 342.445605 270.765624 
L 342.55989 270.765624 
L 342.55989 266.933228 
L 370.684276 266.933228 
L 370.684276 263.100832 
L 422.136186 263.100832 
L 422.136186 259.268436 
L 422.136186 259.268436 
L 422.136186 259.268436 
L 460.8 259.268436 
" clip-path="url(#pece7a77aaf)" style="fill: none; stroke: #ff0000; stroke-width: 3; stroke-linecap: square"/>
   </g>
   <g id="line2d_132">
    <defs>
     <path id="m91e6e53cd3" d="M 0 14.142136 
L 8.485281 0 
L 0 -14.142136 
L -8.485281 0 
z
" style="stroke: #ff0000; stroke-width: 3; stroke-linejoin: miter"/>
    </defs>
    <g clip-path="url(#pece7a77aaf)">
     <use xlink:href="#m91e6e53cd3" x="252.622771" y="286.095208" style="fill-opacity: 0; stroke: #ff0000; stroke-width: 3; stroke-linejoin: miter"/>
     <use xlink:href="#m91e6e53cd3" x="342.445605" y="274.59802" style="fill-opacity: 0; stroke: #ff0000; stroke-width: 3; stroke-linejoin: miter"/>
     <use xlink:href="#m91e6e53cd3" x="370.684276" y="266.933228" style="fill-opacity: 0; stroke: #ff0000; stroke-width: 3; stroke-linejoin: miter"/>
     <use xlink:href="#m91e6e53cd3" x="422.136186" y="259.268436" style="fill-opacity: 0; stroke: #ff0000; stroke-width: 3; stroke-linejoin: miter"/>
    </g>
   </g>
   <g id="line2d_133">
    <path clip-path="url(#pece7a77aaf)" style="fill: none; stroke: #ff0000; stroke-width: 3; stroke-linecap: square"/>
    <g clip-path="url(#pece7a77aaf)">
     <use xlink:href="#m91e6e53cd3" x="-1" y="581.189703" style="fill-opacity: 0; stroke: #ff0000; stroke-width: 3; stroke-linejoin: miter"/>
     <use xlink:href="#m91e6e53cd3" x="460.8" y="581.189703" style="fill-opacity: 0; stroke: #ff0000; stroke-width: 3; stroke-linejoin: miter"/>
    </g>
   </g>
   <g id="line2d_134">
    <path d="M 252.844968 293.76 
L 252.844968 289.927604 
L 255.779848 289.927604 
L 255.779848 286.095208 
L 307.239871 286.095208 
L 307.239871 282.262812 
L 338.958035 282.262812 
L 338.958035 278.430416 
L 339.28555 278.430416 
L 339.28555 274.59802 
L 418.952635 274.59802 
L 418.952635 270.765624 
L 418.952635 270.765624 
L 418.952635 270.765624 
L 460.8 270.765624 
" clip-path="url(#pece7a77aaf)" style="fill: none; stroke: #ff0000; stroke-width: 3; stroke-linecap: square"/>
   </g>
   <g id="line2d_135">
    <defs>
     <path id="m91436f1743" d="M 0 7.5 
C 1.989023 7.5 3.896849 6.709753 5.303301 5.303301 
C 6.709753 3.896849 7.5 1.989023 7.5 0 
C 7.5 -1.989023 6.709753 -3.896849 5.303301 -5.303301 
C 3.896849 -6.709753 1.989023 -7.5 0 -7.5 
C -1.989023 -7.5 -3.896849 -6.709753 -5.303301 -5.303301 
C -6.709753 -3.896849 -7.5 -1.989023 -7.5 0 
C -7.5 1.989023 -6.709753 3.896849 -5.303301 5.303301 
C -3.896849 6.709753 -1.989023 7.5 0 7.5 
z
" style="stroke: #ff0000; stroke-width: 3"/>
    </defs>
    <g clip-path="url(#pece7a77aaf)">
     <use xlink:href="#m91436f1743" x="255.779848" y="289.927604" style="fill-opacity: 0; stroke: #ff0000; stroke-width: 3"/>
     <use xlink:href="#m91436f1743" x="339.28555" y="278.430416" style="fill-opacity: 0; stroke: #ff0000; stroke-width: 3"/>
     <use xlink:href="#m91436f1743" x="418.952635" y="274.59802" style="fill-opacity: 0; stroke: #ff0000; stroke-width: 3"/>
     <use xlink:href="#m91436f1743" x="418.952635" y="270.765624" style="fill-opacity: 0; stroke: #ff0000; stroke-width: 3"/>
    </g>
   </g>
   <g id="line2d_136">
    <path clip-path="url(#pece7a77aaf)" style="fill: none; stroke: #ff0000; stroke-width: 3; stroke-linecap: square"/>
   </g>
   <g id="line2d_137">
    <path d="M 441.819429 293.76 
L 441.819429 3.456 
" clip-path="url(#pece7a77aaf)" style="fill: none; stroke: #000000; stroke-width: 1.5; stroke-linecap: square"/>
    <defs>
     <path id="m728a0e58a7" d="M -10 0 
L 10 0 
M 0 10 
L 0 -10 
" style="stroke: #000000; stroke-width: 3"/>
    </defs>
    <g clip-path="url(#pece7a77aaf)">
     <use xlink:href="#m728a0e58a7" x="441.819429" y="293.76" style="stroke: #000000; stroke-width: 3"/>
     <use xlink:href="#m728a0e58a7" x="441.819429" y="3.456" style="stroke: #000000; stroke-width: 3"/>
    </g>
   </g>
   <g id="line2d_138">
    <path d="M 441.81471 293.76 
L 441.81471 3.456 
" clip-path="url(#pece7a77aaf)" style="fill: none; stroke: #000000; stroke-width: 1.5; stroke-linecap: square"/>
    <defs>
     <path id="m68ed5b1c3e" d="M 0 7.5 
C 1.989023 7.5 3.896849 6.709753 5.303301 5.303301 
C 6.709753 3.896849 7.5 1.989023 7.5 0 
C 7.5 -1.989023 6.709753 -3.896849 5.303301 -5.303301 
C 3.896849 -6.709753 1.989023 -7.5 0 -7.5 
C -1.989023 -7.5 -3.896849 -6.709753 -5.303301 -5.303301 
C -6.709753 -3.896849 -7.5 -1.989023 -7.5 0 
C -7.5 1.989023 -6.709753 3.896849 -5.303301 5.303301 
C -3.896849 6.709753 -1.989023 7.5 0 7.5 
z
" style="stroke: #000000; stroke-width: 3"/>
    </defs>
    <g clip-path="url(#pece7a77aaf)">
     <use xlink:href="#m68ed5b1c3e" x="441.81471" y="293.76" style="fill-opacity: 0; stroke: #000000; stroke-width: 3"/>
     <use xlink:href="#m68ed5b1c3e" x="441.81471" y="3.456" style="fill-opacity: 0; stroke: #000000; stroke-width: 3"/>
    </g>
   </g>
   <g id="patch_3">
    <path d="M 62.208 293.76 
L 62.208 3.456 
" style="fill: none; stroke: #000000; stroke-width: 0.8; stroke-linejoin: miter; stroke-linecap: square"/>
   </g>
   <g id="patch_4">
    <path d="M 460.8 293.76 
L 460.8 3.456 
" style="fill: none; stroke: #000000; stroke-width: 0.8; stroke-linejoin: miter; stroke-linecap: square"/>
   </g>
   <g id="patch_5">
    <path d="M 62.208 293.76 
L 460.8 293.76 
" style="fill: none; stroke: #000000; stroke-width: 0.8; stroke-linejoin: miter; stroke-linecap: square"/>
   </g>
   <g id="patch_6">
    <path d="M 62.208 3.456 
L 460.8 3.456 
" style="fill: none; stroke: #000000; stroke-width: 0.8; stroke-linejoin: miter; stroke-linecap: square"/>
   </g>
   <g id="text_12">
    <!-- f20-f24 -->
    <g transform="translate(225.405563 24.458955)scale(0.2 -0.2)">
     <defs>
      <path id="DejaVuSans-2d" d="M 313 2009 
L 1997 2009 
L 1997 1497 
L 313 1497 
L 313 2009 
z
" transform="scale(0.015625)"/>
     </defs>
     <use xlink:href="#DejaVuSans-66"/>
     <use xlink:href="#DejaVuSans-32" x="35.205078"/>
     <use xlink:href="#DejaVuSans-30" x="98.828125"/>
     <use xlink:href="#DejaVuSans-2d" x="162.451172"/>
     <use xlink:href="#DejaVuSans-66" x="198.535156"/>
     <use xlink:href="#DejaVuSans-32" x="233.740234"/>
     <use xlink:href="#DejaVuSans-34" x="297.363281"/>
    </g>
   </g>
   <g id="text_13">
    <!-- absolute targets -->
    <g transform="translate(62.208 608.208095)scale(0.14 -0.14)">
     <defs>
      <path id="DejaVuSans-62" d="M 3116 1747 
Q 3116 2381 2855 2742 
Q 2594 3103 2138 3103 
Q 1681 3103 1420 2742 
Q 1159 2381 1159 1747 
Q 1159 1113 1420 752 
Q 1681 391 2138 391 
Q 2594 391 2855 752 
Q 3116 1113 3116 1747 
z
M 1159 2969 
Q 1341 3281 1617 3432 
Q 1894 3584 2278 3584 
Q 2916 3584 3314 3078 
Q 3713 2572 3713 1747 
Q 3713 922 3314 415 
Q 2916 -91 2278 -91 
Q 1894 -91 1617 61 
Q 1341 213 1159 525 
L 1159 0 
L 581 0 
L 581 4863 
L 1159 4863 
L 1159 2969 
z
" transform="scale(0.015625)"/>
      <path id="DejaVuSans-75" d="M 544 1381 
L 544 3500 
L 1119 3500 
L 1119 1403 
Q 1119 906 1312 657 
Q 1506 409 1894 409 
Q 2359 409 2629 706 
Q 2900 1003 2900 1516 
L 2900 3500 
L 3475 3500 
L 3475 0 
L 2900 0 
L 2900 538 
Q 2691 219 2414 64 
Q 2138 -91 1772 -91 
Q 1169 -91 856 284 
Q 544 659 544 1381 
z
M 1991 3584 
L 1991 3584 
z
" transform="scale(0.015625)"/>
      <path id="DejaVuSans-65" d="M 3597 1894 
L 3597 1613 
L 953 1613 
Q 991 1019 1311 708 
Q 1631 397 2203 397 
Q 2534 397 2845 478 
Q 3156 559 3463 722 
L 3463 178 
Q 3153 47 2828 -22 
Q 2503 -91 2169 -91 
Q 1331 -91 842 396 
Q 353 884 353 1716 
Q 353 2575 817 3079 
Q 1281 3584 2069 3584 
Q 2775 3584 3186 3129 
Q 3597 2675 3597 1894 
z
M 3022 2063 
Q 3016 2534 2758 2815 
Q 2500 3097 2075 3097 
Q 1594 3097 1305 2825 
Q 1016 2553 972 2059 
L 3022 2063 
z
" transform="scale(0.015625)"/>
     </defs>
     <use xlink:href="#DejaVuSans-61"/>
     <use xlink:href="#DejaVuSans-62" x="61.279297"/>
     <use xlink:href="#DejaVuSans-73" x="124.755859"/>
     <use xlink:href="#DejaVuSans-6f" x="176.855469"/>
     <use xlink:href="#DejaVuSans-6c" x="238.037109"/>
     <use xlink:href="#DejaVuSans-75" x="265.820312"/>
     <use xlink:href="#DejaVuSans-74" x="329.199219"/>
     <use xlink:href="#DejaVuSans-65" x="368.408203"/>
     <use xlink:href="#DejaVuSans-20" x="429.931641"/>
     <use xlink:href="#DejaVuSans-74" x="461.71875"/>
     <use xlink:href="#DejaVuSans-61" x="500.927734"/>
     <use xlink:href="#DejaVuSans-72" x="562.207031"/>
     <use xlink:href="#DejaVuSans-67" x="601.570312"/>
     <use xlink:href="#DejaVuSans-65" x="665.046875"/>
     <use xlink:href="#DejaVuSans-74" x="726.570312"/>
     <use xlink:href="#DejaVuSans-73" x="765.779297"/>
    </g>
   </g>
   <g id="text_14">
    <!-- v2.6.3.10 -->
    <g style="fill: #808080" transform="translate(237.871188 288.777272)scale(0.1 -0.1)">
     <defs>
      <path id="DejaVuSans-33" d="M 2597 2516 
Q 3050 2419 3304 2112 
Q 3559 1806 3559 1356 
Q 3559 666 3084 287 
Q 2609 -91 1734 -91 
Q 1441 -91 1130 -33 
Q 819 25 488 141 
L 488 750 
Q 750 597 1062 519 
Q 1375 441 1716 441 
Q 2309 441 2620 675 
Q 2931 909 2931 1356 
Q 2931 1769 2642 2001 
Q 2353 2234 1838 2234 
L 1294 2234 
L 1294 2753 
L 1863 2753 
Q 2328 2753 2575 2939 
Q 2822 3125 2822 3475 
Q 2822 3834 2567 4026 
Q 2313 4219 1838 4219 
Q 1578 4219 1281 4162 
Q 984 4106 628 3988 
L 628 4550 
Q 988 4650 1302 4700 
Q 1616 4750 1894 4750 
Q 2613 4750 3031 4423 
Q 3450 4097 3450 3541 
Q 3450 3153 3228 2886 
Q 3006 2619 2597 2516 
z
" transform="scale(0.015625)"/>
     </defs>
     <use xlink:href="#DejaVuSans-76"/>
     <use xlink:href="#DejaVuSans-32" x="59.179688"/>
     <use xlink:href="#DejaVuSans-2e" x="122.802734"/>
     <use xlink:href="#DejaVuSans-36" x="154.589844"/>
     <use xlink:href="#DejaVuSans-2e" x="218.212891"/>
     <use xlink:href="#DejaVuSans-33" x="250"/>
     <use xlink:href="#DejaVuSans-2e" x="313.623047"/>
     <use xlink:href="#DejaVuSans-31" x="345.410156"/>
     <use xlink:href="#DejaVuSans-30" x="409.033203"/>
    </g>
   </g>
   <g id="legend_1">
    <g id="patch_7">
     <path d="M 76.208 136.881 
L 160.148625 136.881 
Q 164.148625 136.881 164.148625 132.881 
L 164.148625 17.456 
Q 164.148625 13.456 160.148625 13.456 
L 76.208 13.456 
Q 72.208 13.456 72.208 17.456 
L 72.208 132.881 
Q 72.208 136.881 76.208 136.881 
z
" style="fill: #ffffff; opacity: 0.2; stroke: #cccccc; stroke-linejoin: miter"/>
    </g>
    <g id="line2d_139">
     <path d="M 80.208 29.652875 
L 80.208 29.652875 
L 100.208 29.652875 
L 100.208 29.652875 
L 120.208 29.652875 
" style="fill: none; stroke: #000000; stroke-width: 1.5; stroke-linecap: square"/>
    </g>
    <g id="text_15">
     <!-- 1 -->
     <g transform="translate(136.208 36.652875)scale(0.2 -0.2)">
      <use xlink:href="#DejaVuSans-31"/>
     </g>
    </g>
    <g id="line2d_140">
     <path d="M 80.208 59.009125 
L 80.208 59.009125 
L 100.208 59.009125 
L 100.208 59.009125 
L 120.208 59.009125 
" style="fill: none; stroke: #00bfbf; stroke-width: 1.5; stroke-linecap: square"/>
    </g>
    <g id="text_16">
     <!-- -1 -->
     <g transform="translate(136.208 66.009125)scale(0.2 -0.2)">
      <use xlink:href="#DejaVuSans-2d"/>
      <use xlink:href="#DejaVuSans-31" x="36.083984"/>
     </g>
    </g>
    <g id="line2d_141">
     <path d="M 80.208 88.365375 
L 80.208 88.365375 
L 100.208 88.365375 
L 100.208 88.365375 
L 120.208 88.365375 
" style="fill: none; stroke: #bf00bf; stroke-width: 1.5; stroke-linecap: square"/>
    </g>
    <g id="text_17">
     <!-- -4 -->
     <g transform="translate(136.208 95.365375)scale(0.2 -0.2)">
      <use xlink:href="#DejaVuSans-2d"/>
      <use xlink:href="#DejaVuSans-34" x="36.083984"/>
     </g>
    </g>
    <g id="line2d_142">
     <path d="M 80.208 117.721625 
L 80.208 117.721625 
L 100.208 117.721625 
L 100.208 117.721625 
L 120.208 117.721625 
" style="fill: none; stroke: #ff0000; stroke-width: 3; stroke-linecap: square"/>
    </g>
    <g id="text_18">
     <!-- -8 -->
     <g transform="translate(136.208 124.721625)scale(0.2 -0.2)">
      <use xlink:href="#DejaVuSans-2d"/>
      <use xlink:href="#DejaVuSans-38" x="36.083984"/>
     </g>
    </g>
   </g>
  </g>
 </g>
 <defs>
  <clipPath id="pece7a77aaf">
   <rect x="62.208" y="3.456" width="398.592" height="290.304"/>
  </clipPath>
 </defs>
</svg>
