<?xml version="1.0" encoding="utf-8" standalone="no"?>
<!DOCTYPE svg PUBLIC "-//W3C//DTD SVG 1.1//EN"
  "http://www.w3.org/Graphics/SVG/1.1/DTD/svg11.dtd">
<svg xmlns:xlink="http://www.w3.org/1999/xlink" width="460.8pt" height="345.6pt" viewBox="0 0 460.8 345.6" xmlns="http://www.w3.org/2000/svg" version="1.1">
 <metadata>
  <rdf:RDF xmlns:dc="http://purl.org/dc/elements/1.1/" xmlns:cc="http://creativecommons.org/ns#" xmlns:rdf="http://www.w3.org/1999/02/22-rdf-syntax-ns#">
   <cc:Work>
    <dc:type rdf:resource="http://purl.org/dc/dcmitype/StillImage"/>
    <dc:date>2023-05-09T15:04:36.029544</dc:date>
    <dc:format>image/svg+xml</dc:format>
    <dc:creator>
     <cc:Agent>
      <dc:title>Matplotlib v3.5.2, https://matplotlib.org/</dc:title>
     </cc:Agent>
    </dc:creator>
   </cc:Work>
  </rdf:RDF>
 </metadata>
 <defs>
  <style type="text/css">*{stroke-linejoin: round; stroke-linecap: butt}</style>
 </defs>
 <g id="figure_1">
  <g id="patch_1">
   <path d="M 0 345.6 
L 460.8 345.6 
L 460.8 0 
L 0 0 
z
" style="fill: #ffffff"/>
  </g>
  <g id="axes_1">
   <g id="patch_2">
    <path d="M 34.16 291.28 
L 453.192 291.28 
L 453.192 3 
L 34.16 3 
z
" style="fill: #ffffff"/>
   </g>
   <g id="matplotlib.axis_1">
    <g id="xtick_1">
     <g id="line2d_1">
      <path d="M 123.302887 291.28 
L 123.302887 3 
" clip-path="url(#p5e98d8c536)" style="fill: none; stroke: #b0b0b0; stroke-width: 0.8; stroke-linecap: square"/>
     </g>
     <g id="line2d_2">
      <defs>
       <path id="mbb0eeb2170" d="M 0 0 
L 0 3.5 
" style="stroke: #000000; stroke-width: 0.8"/>
      </defs>
      <g>
       <use xlink:href="#mbb0eeb2170" x="123.302887" y="291.28" style="stroke: #000000; stroke-width: 0.8"/>
      </g>
     </g>
     <g id="text_1">
      <!-- -1 -->
      <g transform="translate(113.332575 313.476875)scale(0.2 -0.2)">
       <defs>
        <path id="DejaVuSans-2d" d="M 313 2009 
L 1997 2009 
L 1997 1497 
L 313 1497 
L 313 2009 
z
" transform="scale(0.015625)"/>
        <path id="DejaVuSans-31" d="M 794 531 
L 1825 531 
L 1825 4091 
L 703 3866 
L 703 4441 
L 1819 4666 
L 2450 4666 
L 2450 531 
L 3481 531 
L 3481 0 
L 794 0 
L 794 531 
z
" transform="scale(0.015625)"/>
       </defs>
       <use xlink:href="#DejaVuSans-2d"/>
       <use xlink:href="#DejaVuSans-31" x="36.083984"/>
      </g>
     </g>
    </g>
    <g id="xtick_2">
     <g id="line2d_3">
      <path d="M 243.676 291.28 
L 243.676 3 
" clip-path="url(#p5e98d8c536)" style="fill: none; stroke: #b0b0b0; stroke-width: 0.8; stroke-linecap: square"/>
     </g>
     <g id="line2d_4">
      <g>
       <use xlink:href="#mbb0eeb2170" x="243.676" y="291.28" style="stroke: #000000; stroke-width: 0.8"/>
      </g>
     </g>
     <g id="text_2">
      <!-- 0 -->
      <g transform="translate(237.3135 313.476875)scale(0.2 -0.2)">
       <defs>
        <path id="DejaVuSans-30" d="M 2034 4250 
Q 1547 4250 1301 3770 
Q 1056 3291 1056 2328 
Q 1056 1369 1301 889 
Q 1547 409 2034 409 
Q 2525 409 2770 889 
Q 3016 1369 3016 2328 
Q 3016 3291 2770 3770 
Q 2525 4250 2034 4250 
z
M 2034 4750 
Q 2819 4750 3233 4129 
Q 3647 3509 3647 2328 
Q 3647 1150 3233 529 
Q 2819 -91 2034 -91 
Q 1250 -91 836 529 
Q 422 1150 422 2328 
Q 422 3509 836 4129 
Q 1250 4750 2034 4750 
z
" transform="scale(0.015625)"/>
       </defs>
       <use xlink:href="#DejaVuSans-30"/>
      </g>
     </g>
    </g>
    <g id="xtick_3">
     <g id="line2d_5">
      <path d="M 364.049113 291.28 
L 364.049113 3 
" clip-path="url(#p5e98d8c536)" style="fill: none; stroke: #b0b0b0; stroke-width: 0.8; stroke-linecap: square"/>
     </g>
     <g id="line2d_6">
      <g>
       <use xlink:href="#mbb0eeb2170" x="364.049113" y="291.28" style="stroke: #000000; stroke-width: 0.8"/>
      </g>
     </g>
     <g id="text_3">
      <!-- 1 -->
      <g transform="translate(357.686613 313.476875)scale(0.2 -0.2)">
       <use xlink:href="#DejaVuSans-31"/>
      </g>
     </g>
    </g>
    <g id="xtick_4">
     <g id="line2d_7">
      <defs>
       <path id="m4d0a85e4ca" d="M 0 0 
L 0 2 
" style="stroke: #000000; stroke-width: 0.6"/>
      </defs>
      <g>
       <use xlink:href="#m4d0a85e4ca" x="39.165692" y="291.28" style="stroke: #000000; stroke-width: 0.6"/>
      </g>
     </g>
    </g>
    <g id="xtick_5">
     <g id="line2d_8">
      <g>
       <use xlink:href="#m4d0a85e4ca" x="60.362345" y="291.28" style="stroke: #000000; stroke-width: 0.6"/>
      </g>
     </g>
    </g>
    <g id="xtick_6">
     <g id="line2d_9">
      <g>
       <use xlink:href="#m4d0a85e4ca" x="75.40161" y="291.28" style="stroke: #000000; stroke-width: 0.6"/>
      </g>
     </g>
    </g>
    <g id="xtick_7">
     <g id="line2d_10">
      <g>
       <use xlink:href="#m4d0a85e4ca" x="87.06697" y="291.28" style="stroke: #000000; stroke-width: 0.6"/>
      </g>
     </g>
    </g>
    <g id="xtick_8">
     <g id="line2d_11">
      <g>
       <use xlink:href="#m4d0a85e4ca" x="96.598263" y="291.28" style="stroke: #000000; stroke-width: 0.6"/>
      </g>
     </g>
    </g>
    <g id="xtick_9">
     <g id="line2d_12">
      <g>
       <use xlink:href="#m4d0a85e4ca" x="104.656856" y="291.28" style="stroke: #000000; stroke-width: 0.6"/>
      </g>
     </g>
    </g>
    <g id="xtick_10">
     <g id="line2d_13">
      <g>
       <use xlink:href="#m4d0a85e4ca" x="111.637528" y="291.28" style="stroke: #000000; stroke-width: 0.6"/>
      </g>
     </g>
    </g>
    <g id="xtick_11">
     <g id="line2d_14">
      <g>
       <use xlink:href="#m4d0a85e4ca" x="117.794916" y="291.28" style="stroke: #000000; stroke-width: 0.6"/>
      </g>
     </g>
    </g>
    <g id="xtick_12">
     <g id="line2d_15">
      <g>
       <use xlink:href="#m4d0a85e4ca" x="159.538805" y="291.28" style="stroke: #000000; stroke-width: 0.6"/>
      </g>
     </g>
    </g>
    <g id="xtick_13">
     <g id="line2d_16">
      <g>
       <use xlink:href="#m4d0a85e4ca" x="180.735458" y="291.28" style="stroke: #000000; stroke-width: 0.6"/>
      </g>
     </g>
    </g>
    <g id="xtick_14">
     <g id="line2d_17">
      <g>
       <use xlink:href="#m4d0a85e4ca" x="195.774723" y="291.28" style="stroke: #000000; stroke-width: 0.6"/>
      </g>
     </g>
    </g>
    <g id="xtick_15">
     <g id="line2d_18">
      <g>
       <use xlink:href="#m4d0a85e4ca" x="207.440082" y="291.28" style="stroke: #000000; stroke-width: 0.6"/>
      </g>
     </g>
    </g>
    <g id="xtick_16">
     <g id="line2d_19">
      <g>
       <use xlink:href="#m4d0a85e4ca" x="216.971375" y="291.28" style="stroke: #000000; stroke-width: 0.6"/>
      </g>
     </g>
    </g>
    <g id="xtick_17">
     <g id="line2d_20">
      <g>
       <use xlink:href="#m4d0a85e4ca" x="225.029969" y="291.28" style="stroke: #000000; stroke-width: 0.6"/>
      </g>
     </g>
    </g>
    <g id="xtick_18">
     <g id="line2d_21">
      <g>
       <use xlink:href="#m4d0a85e4ca" x="232.01064" y="291.28" style="stroke: #000000; stroke-width: 0.6"/>
      </g>
     </g>
    </g>
    <g id="xtick_19">
     <g id="line2d_22">
      <g>
       <use xlink:href="#m4d0a85e4ca" x="238.168028" y="291.28" style="stroke: #000000; stroke-width: 0.6"/>
      </g>
     </g>
    </g>
    <g id="xtick_20">
     <g id="line2d_23">
      <g>
       <use xlink:href="#m4d0a85e4ca" x="279.911918" y="291.28" style="stroke: #000000; stroke-width: 0.6"/>
      </g>
     </g>
    </g>
    <g id="xtick_21">
     <g id="line2d_24">
      <g>
       <use xlink:href="#m4d0a85e4ca" x="301.108571" y="291.28" style="stroke: #000000; stroke-width: 0.6"/>
      </g>
     </g>
    </g>
    <g id="xtick_22">
     <g id="line2d_25">
      <g>
       <use xlink:href="#m4d0a85e4ca" x="316.147835" y="291.28" style="stroke: #000000; stroke-width: 0.6"/>
      </g>
     </g>
    </g>
    <g id="xtick_23">
     <g id="line2d_26">
      <g>
       <use xlink:href="#m4d0a85e4ca" x="327.813195" y="291.28" style="stroke: #000000; stroke-width: 0.6"/>
      </g>
     </g>
    </g>
    <g id="xtick_24">
     <g id="line2d_27">
      <g>
       <use xlink:href="#m4d0a85e4ca" x="337.344488" y="291.28" style="stroke: #000000; stroke-width: 0.6"/>
      </g>
     </g>
    </g>
    <g id="xtick_25">
     <g id="line2d_28">
      <g>
       <use xlink:href="#m4d0a85e4ca" x="345.403082" y="291.28" style="stroke: #000000; stroke-width: 0.6"/>
      </g>
     </g>
    </g>
    <g id="xtick_26">
     <g id="line2d_29">
      <g>
       <use xlink:href="#m4d0a85e4ca" x="352.383753" y="291.28" style="stroke: #000000; stroke-width: 0.6"/>
      </g>
     </g>
    </g>
    <g id="xtick_27">
     <g id="line2d_30">
      <g>
       <use xlink:href="#m4d0a85e4ca" x="358.541141" y="291.28" style="stroke: #000000; stroke-width: 0.6"/>
      </g>
     </g>
    </g>
    <g id="xtick_28">
     <g id="line2d_31">
      <g>
       <use xlink:href="#m4d0a85e4ca" x="400.28503" y="291.28" style="stroke: #000000; stroke-width: 0.6"/>
      </g>
     </g>
    </g>
    <g id="xtick_29">
     <g id="line2d_32">
      <g>
       <use xlink:href="#m4d0a85e4ca" x="421.481683" y="291.28" style="stroke: #000000; stroke-width: 0.6"/>
      </g>
     </g>
    </g>
    <g id="xtick_30">
     <g id="line2d_33">
      <g>
       <use xlink:href="#m4d0a85e4ca" x="436.520948" y="291.28" style="stroke: #000000; stroke-width: 0.6"/>
      </g>
     </g>
    </g>
    <g id="xtick_31">
     <g id="line2d_34">
      <g>
       <use xlink:href="#m4d0a85e4ca" x="448.186308" y="291.28" style="stroke: #000000; stroke-width: 0.6"/>
      </g>
     </g>
    </g>
    <g id="text_4">
     <!-- log10 of FEvals ratio -->
     <g transform="translate(141.371312 336.833125)scale(0.2 -0.2)">
      <defs>
       <path id="DejaVuSans-6c" d="M 603 4863 
L 1178 4863 
L 1178 0 
L 603 0 
L 603 4863 
z
" transform="scale(0.015625)"/>
       <path id="DejaVuSans-6f" d="M 1959 3097 
Q 1497 3097 1228 2736 
Q 959 2375 959 1747 
Q 959 1119 1226 758 
Q 1494 397 1959 397 
Q 2419 397 2687 759 
Q 2956 1122 2956 1747 
Q 2956 2369 2687 2733 
Q 2419 3097 1959 3097 
z
M 1959 3584 
Q 2709 3584 3137 3096 
Q 3566 2609 3566 1747 
Q 3566 888 3137 398 
Q 2709 -91 1959 -91 
Q 1206 -91 779 398 
Q 353 888 353 1747 
Q 353 2609 779 3096 
Q 1206 3584 1959 3584 
z
" transform="scale(0.015625)"/>
       <path id="DejaVuSans-67" d="M 2906 1791 
Q 2906 2416 2648 2759 
Q 2391 3103 1925 3103 
Q 1463 3103 1205 2759 
Q 947 2416 947 1791 
Q 947 1169 1205 825 
Q 1463 481 1925 481 
Q 2391 481 2648 825 
Q 2906 1169 2906 1791 
z
M 3481 434 
Q 3481 -459 3084 -895 
Q 2688 -1331 1869 -1331 
Q 1566 -1331 1297 -1286 
Q 1028 -1241 775 -1147 
L 775 -588 
Q 1028 -725 1275 -790 
Q 1522 -856 1778 -856 
Q 2344 -856 2625 -561 
Q 2906 -266 2906 331 
L 2906 616 
Q 2728 306 2450 153 
Q 2172 0 1784 0 
Q 1141 0 747 490 
Q 353 981 353 1791 
Q 353 2603 747 3093 
Q 1141 3584 1784 3584 
Q 2172 3584 2450 3431 
Q 2728 3278 2906 2969 
L 2906 3500 
L 3481 3500 
L 3481 434 
z
" transform="scale(0.015625)"/>
       <path id="DejaVuSans-20" transform="scale(0.015625)"/>
       <path id="DejaVuSans-66" d="M 2375 4863 
L 2375 4384 
L 1825 4384 
Q 1516 4384 1395 4259 
Q 1275 4134 1275 3809 
L 1275 3500 
L 2222 3500 
L 2222 3053 
L 1275 3053 
L 1275 0 
L 697 0 
L 697 3053 
L 147 3053 
L 147 3500 
L 697 3500 
L 697 3744 
Q 697 4328 969 4595 
Q 1241 4863 1831 4863 
L 2375 4863 
z
" transform="scale(0.015625)"/>
       <path id="DejaVuSans-46" d="M 628 4666 
L 3309 4666 
L 3309 4134 
L 1259 4134 
L 1259 2759 
L 3109 2759 
L 3109 2228 
L 1259 2228 
L 1259 0 
L 628 0 
L 628 4666 
z
" transform="scale(0.015625)"/>
       <path id="DejaVuSans-45" d="M 628 4666 
L 3578 4666 
L 3578 4134 
L 1259 4134 
L 1259 2753 
L 3481 2753 
L 3481 2222 
L 1259 2222 
L 1259 531 
L 3634 531 
L 3634 0 
L 628 0 
L 628 4666 
z
" transform="scale(0.015625)"/>
       <path id="DejaVuSans-76" d="M 191 3500 
L 800 3500 
L 1894 563 
L 2988 3500 
L 3597 3500 
L 2284 0 
L 1503 0 
L 191 3500 
z
" transform="scale(0.015625)"/>
       <path id="DejaVuSans-61" d="M 2194 1759 
Q 1497 1759 1228 1600 
Q 959 1441 959 1056 
Q 959 750 1161 570 
Q 1363 391 1709 391 
Q 2188 391 2477 730 
Q 2766 1069 2766 1631 
L 2766 1759 
L 2194 1759 
z
M 3341 1997 
L 3341 0 
L 2766 0 
L 2766 531 
Q 2569 213 2275 61 
Q 1981 -91 1556 -91 
Q 1019 -91 701 211 
Q 384 513 384 1019 
Q 384 1609 779 1909 
Q 1175 2209 1959 2209 
L 2766 2209 
L 2766 2266 
Q 2766 2663 2505 2880 
Q 2244 3097 1772 3097 
Q 1472 3097 1187 3025 
Q 903 2953 641 2809 
L 641 3341 
Q 956 3463 1253 3523 
Q 1550 3584 1831 3584 
Q 2591 3584 2966 3190 
Q 3341 2797 3341 1997 
z
" transform="scale(0.015625)"/>
       <path id="DejaVuSans-73" d="M 2834 3397 
L 2834 2853 
Q 2591 2978 2328 3040 
Q 2066 3103 1784 3103 
Q 1356 3103 1142 2972 
Q 928 2841 928 2578 
Q 928 2378 1081 2264 
Q 1234 2150 1697 2047 
L 1894 2003 
Q 2506 1872 2764 1633 
Q 3022 1394 3022 966 
Q 3022 478 2636 193 
Q 2250 -91 1575 -91 
Q 1294 -91 989 -36 
Q 684 19 347 128 
L 347 722 
Q 666 556 975 473 
Q 1284 391 1588 391 
Q 1994 391 2212 530 
Q 2431 669 2431 922 
Q 2431 1156 2273 1281 
Q 2116 1406 1581 1522 
L 1381 1569 
Q 847 1681 609 1914 
Q 372 2147 372 2553 
Q 372 3047 722 3315 
Q 1072 3584 1716 3584 
Q 2034 3584 2315 3537 
Q 2597 3491 2834 3397 
z
" transform="scale(0.015625)"/>
       <path id="DejaVuSans-72" d="M 2631 2963 
Q 2534 3019 2420 3045 
Q 2306 3072 2169 3072 
Q 1681 3072 1420 2755 
Q 1159 2438 1159 1844 
L 1159 0 
L 581 0 
L 581 3500 
L 1159 3500 
L 1159 2956 
Q 1341 3275 1631 3429 
Q 1922 3584 2338 3584 
Q 2397 3584 2469 3576 
Q 2541 3569 2628 3553 
L 2631 2963 
z
" transform="scale(0.015625)"/>
       <path id="DejaVuSans-74" d="M 1172 4494 
L 1172 3500 
L 2356 3500 
L 2356 3053 
L 1172 3053 
L 1172 1153 
Q 1172 725 1289 603 
Q 1406 481 1766 481 
L 2356 481 
L 2356 0 
L 1766 0 
Q 1100 0 847 248 
Q 594 497 594 1153 
L 594 3053 
L 172 3053 
L 172 3500 
L 594 3500 
L 594 4494 
L 1172 4494 
z
" transform="scale(0.015625)"/>
       <path id="DejaVuSans-69" d="M 603 3500 
L 1178 3500 
L 1178 0 
L 603 0 
L 603 3500 
z
M 603 4863 
L 1178 4863 
L 1178 4134 
L 603 4134 
L 603 4863 
z
" transform="scale(0.015625)"/>
      </defs>
      <use xlink:href="#DejaVuSans-6c"/>
      <use xlink:href="#DejaVuSans-6f" x="27.783203"/>
      <use xlink:href="#DejaVuSans-67" x="88.964844"/>
      <use xlink:href="#DejaVuSans-31" x="152.441406"/>
      <use xlink:href="#DejaVuSans-30" x="216.064453"/>
      <use xlink:href="#DejaVuSans-20" x="279.6875"/>
      <use xlink:href="#DejaVuSans-6f" x="311.474609"/>
      <use xlink:href="#DejaVuSans-66" x="372.65625"/>
      <use xlink:href="#DejaVuSans-20" x="407.861328"/>
      <use xlink:href="#DejaVuSans-46" x="439.648438"/>
      <use xlink:href="#DejaVuSans-45" x="497.167969"/>
      <use xlink:href="#DejaVuSans-76" x="560.351562"/>
      <use xlink:href="#DejaVuSans-61" x="619.53125"/>
      <use xlink:href="#DejaVuSans-6c" x="680.810547"/>
      <use xlink:href="#DejaVuSans-73" x="708.59375"/>
      <use xlink:href="#DejaVuSans-20" x="760.693359"/>
      <use xlink:href="#DejaVuSans-72" x="792.480469"/>
      <use xlink:href="#DejaVuSans-61" x="833.59375"/>
      <use xlink:href="#DejaVuSans-74" x="894.873047"/>
      <use xlink:href="#DejaVuSans-69" x="934.082031"/>
      <use xlink:href="#DejaVuSans-6f" x="961.865234"/>
     </g>
    </g>
   </g>
   <g id="matplotlib.axis_2">
    <g id="ytick_1">
     <g id="line2d_35">
      <path d="M 34.16 288.453725 
L 453.192 288.453725 
" clip-path="url(#p5e98d8c536)" style="fill: none; stroke: #b0b0b0; stroke-width: 0.8; stroke-linecap: square"/>
     </g>
     <g id="line2d_36">
      <defs>
       <path id="mfdc24e7ecd" d="M 0 0 
L -3.5 0 
" style="stroke: #000000; stroke-width: 0.8"/>
      </defs>
      <g>
       <use xlink:href="#mfdc24e7ecd" x="34.16" y="288.453725" style="stroke: #000000; stroke-width: 0.8"/>
      </g>
     </g>
    </g>
    <g id="ytick_2">
     <g id="line2d_37">
      <path d="M 34.16 217.796863 
L 453.192 217.796863 
" clip-path="url(#p5e98d8c536)" style="fill: none; stroke: #b0b0b0; stroke-width: 0.8; stroke-linecap: square"/>
     </g>
     <g id="line2d_38">
      <g>
       <use xlink:href="#mfdc24e7ecd" x="34.16" y="217.796863" style="stroke: #000000; stroke-width: 0.8"/>
      </g>
     </g>
    </g>
    <g id="ytick_3">
     <g id="line2d_39">
      <path d="M 34.16 147.14 
L 453.192 147.14 
" clip-path="url(#p5e98d8c536)" style="fill: none; stroke: #b0b0b0; stroke-width: 0.8; stroke-linecap: square"/>
     </g>
     <g id="line2d_40">
      <g>
       <use xlink:href="#mfdc24e7ecd" x="34.16" y="147.14" style="stroke: #000000; stroke-width: 0.8"/>
      </g>
     </g>
    </g>
    <g id="ytick_4">
     <g id="line2d_41">
      <path d="M 34.16 76.483137 
L 453.192 76.483137 
" clip-path="url(#p5e98d8c536)" style="fill: none; stroke: #b0b0b0; stroke-width: 0.8; stroke-linecap: square"/>
     </g>
     <g id="line2d_42">
      <g>
       <use xlink:href="#mfdc24e7ecd" x="34.16" y="76.483137" style="stroke: #000000; stroke-width: 0.8"/>
      </g>
     </g>
    </g>
    <g id="ytick_5">
     <g id="line2d_43">
      <path d="M 34.16 5.826275 
L 453.192 5.826275 
" clip-path="url(#p5e98d8c536)" style="fill: none; stroke: #b0b0b0; stroke-width: 0.8; stroke-linecap: square"/>
     </g>
     <g id="line2d_44">
      <g>
       <use xlink:href="#mfdc24e7ecd" x="34.16" y="5.826275" style="stroke: #000000; stroke-width: 0.8"/>
      </g>
     </g>
    </g>
    <g id="text_5">
     <!-- proportion of trials -->
     <g transform="translate(19.000625 240.14625)rotate(-90)scale(0.2 -0.2)">
      <defs>
       <path id="DejaVuSans-70" d="M 1159 525 
L 1159 -1331 
L 581 -1331 
L 581 3500 
L 1159 3500 
L 1159 2969 
Q 1341 3281 1617 3432 
Q 1894 3584 2278 3584 
Q 2916 3584 3314 3078 
Q 3713 2572 3713 1747 
Q 3713 922 3314 415 
Q 2916 -91 2278 -91 
Q 1894 -91 1617 61 
Q 1341 213 1159 525 
z
M 3116 1747 
Q 3116 2381 2855 2742 
Q 2594 3103 2138 3103 
Q 1681 3103 1420 2742 
Q 1159 2381 1159 1747 
Q 1159 1113 1420 752 
Q 1681 391 2138 391 
Q 2594 391 2855 752 
Q 3116 1113 3116 1747 
z
" transform="scale(0.015625)"/>
       <path id="DejaVuSans-6e" d="M 3513 2113 
L 3513 0 
L 2938 0 
L 2938 2094 
Q 2938 2591 2744 2837 
Q 2550 3084 2163 3084 
Q 1697 3084 1428 2787 
Q 1159 2491 1159 1978 
L 1159 0 
L 581 0 
L 581 3500 
L 1159 3500 
L 1159 2956 
Q 1366 3272 1645 3428 
Q 1925 3584 2291 3584 
Q 2894 3584 3203 3211 
Q 3513 2838 3513 2113 
z
" transform="scale(0.015625)"/>
      </defs>
      <use xlink:href="#DejaVuSans-70"/>
      <use xlink:href="#DejaVuSans-72" x="63.476562"/>
      <use xlink:href="#DejaVuSans-6f" x="102.339844"/>
      <use xlink:href="#DejaVuSans-70" x="163.521484"/>
      <use xlink:href="#DejaVuSans-6f" x="226.998047"/>
      <use xlink:href="#DejaVuSans-72" x="288.179688"/>
      <use xlink:href="#DejaVuSans-74" x="329.292969"/>
      <use xlink:href="#DejaVuSans-69" x="368.501953"/>
      <use xlink:href="#DejaVuSans-6f" x="396.285156"/>
      <use xlink:href="#DejaVuSans-6e" x="457.466797"/>
      <use xlink:href="#DejaVuSans-20" x="520.845703"/>
      <use xlink:href="#DejaVuSans-6f" x="552.632812"/>
      <use xlink:href="#DejaVuSans-66" x="613.814453"/>
      <use xlink:href="#DejaVuSans-20" x="649.019531"/>
      <use xlink:href="#DejaVuSans-74" x="680.806641"/>
      <use xlink:href="#DejaVuSans-72" x="720.015625"/>
      <use xlink:href="#DejaVuSans-69" x="761.128906"/>
      <use xlink:href="#DejaVuSans-61" x="788.912109"/>
      <use xlink:href="#DejaVuSans-6c" x="850.191406"/>
      <use xlink:href="#DejaVuSans-73" x="877.974609"/>
     </g>
    </g>
   </g>
   <g id="line2d_45">
    <path d="M 34.16 288.453725 
L 92.29988 288.453725 
L 92.29988 288.202501 
L 94.155566 288.202501 
L 94.155566 287.951277 
L 94.954994 287.951277 
L 94.954994 287.700052 
L 95.577598 287.700052 
L 95.577598 287.448828 
L 103.20412 287.448828 
L 103.20412 287.197603 
L 104.33296 287.197603 
L 104.33296 286.946379 
L 107.514572 286.946379 
L 107.514572 286.695155 
L 108.811844 286.695155 
L 108.811844 286.44393 
L 112.877859 286.44393 
L 112.877859 286.192706 
L 113.496533 286.192706 
L 113.496533 285.941481 
L 114.079017 285.941481 
L 114.079017 285.690257 
L 116.123803 285.690257 
L 116.123803 285.439033 
L 116.512278 285.439033 
L 116.512278 285.187808 
L 120.220312 285.187808 
L 120.220312 284.936584 
L 126.546919 284.936584 
L 126.546919 284.685359 
L 128.402605 284.685359 
L 128.402605 284.434135 
L 129.202033 284.434135 
L 129.202033 284.182911 
L 129.824637 284.182911 
L 129.824637 283.931686 
L 137.451159 283.931686 
L 137.451159 283.680462 
L 138.579999 283.680462 
L 138.579999 283.429237 
L 139.305736 283.429237 
L 139.305736 283.178013 
L 140.288945 283.178013 
L 140.288945 282.926789 
L 141.161422 282.926789 
L 141.161422 282.675564 
L 141.761611 282.675564 
L 141.761611 282.42434 
L 141.96085 282.42434 
L 141.96085 282.173115 
L 142.583454 282.173115 
L 142.583454 281.921891 
L 143.058883 281.921891 
L 143.058883 281.670667 
L 147.124898 281.670667 
L 147.124898 281.419442 
L 147.743572 281.419442 
L 147.743572 281.168218 
L 148.326056 281.168218 
L 148.326056 280.916993 
L 150.209976 280.916993 
L 150.209976 280.665769 
L 150.370842 280.665769 
L 150.370842 280.414545 
L 150.759317 280.414545 
L 150.759317 280.16332 
L 151.338816 280.16332 
L 151.338816 279.912096 
L 152.492087 279.912096 
L 152.492087 279.660871 
L 154.467351 279.660871 
L 154.520428 279.158423 
L 155.8177 279.158423 
L 155.8177 278.907198 
L 155.948442 278.907198 
L 155.948442 278.655974 
L 157.804128 278.655974 
L 157.804128 278.404749 
L 158.054985 278.404749 
L 158.054985 278.153525 
L 158.603556 278.153525 
L 158.708988 277.399852 
L 159.22616 277.399852 
L 159.22616 277.148627 
L 159.499263 277.148627 
L 159.499263 276.897403 
L 159.883714 276.897403 
L 159.883714 276.646179 
L 160.502389 276.646179 
L 160.502389 276.394954 
L 161.084873 276.394954 
L 161.084873 276.14373 
L 163.129659 276.14373 
L 163.185557 275.641281 
L 163.518134 275.641281 
L 163.518134 275.390057 
L 164.335016 275.390057 
L 164.335016 275.138832 
L 164.742681 275.138832 
L 164.742681 274.887608 
L 166.467997 274.887608 
L 166.467997 274.636383 
L 166.852682 274.636383 
L 166.852682 274.385159 
L 166.965702 274.385159 
L 166.965702 274.133935 
L 167.226168 274.133935 
L 167.226168 273.88271 
L 167.981522 273.88271 
L 167.981522 273.631486 
L 168.821387 273.631486 
L 168.821387 273.380261 
L 169.620815 273.380261 
L 169.620815 273.129037 
L 170.168935 273.129037 
L 170.24342 272.124139 
L 171.163134 272.124139 
L 171.163134 271.872915 
L 172.000957 271.872915 
L 172.048315 271.370466 
L 172.260309 271.370466 
L 172.260309 270.868017 
L 172.460406 270.868017 
L 172.460406 270.616793 
L 172.847743 270.616793 
L 172.847743 270.365569 
L 173.185157 270.365569 
L 173.222847 269.86312 
L 173.470347 269.86312 
L 173.470347 269.611895 
L 173.856642 269.611895 
L 173.856642 269.360671 
L 174.438849 269.360671 
L 174.535984 268.606998 
L 174.656071 268.606998 
L 174.656071 268.355773 
L 174.783482 268.355773 
L 174.783482 268.104549 
L 175.040842 268.104549 
L 175.040842 267.853325 
L 175.278675 267.853325 
L 175.278675 267.6021 
L 175.840271 267.6021 
L 175.840271 267.350876 
L 176.462875 267.350876 
L 176.52642 266.848427 
L 177.145095 266.848427 
L 177.145095 266.597203 
L 177.727579 266.597203 
L 177.727579 266.345978 
L 177.869942 266.345978 
L 177.927944 265.843529 
L 178.484421 265.843529 
L 178.484421 265.341081 
L 178.998782 265.341081 
L 178.998782 265.089856 
L 179.772365 265.089856 
L 179.877597 264.587407 
L 180.019318 264.587407 
L 180.019318 264.336183 
L 180.16084 264.336183 
L 180.16084 264.084959 
L 181.096869 264.084959 
L 181.096869 263.833734 
L 182.180394 263.833734 
L 182.225709 263.080061 
L 182.905197 263.080061 
L 182.905197 262.828837 
L 183.477666 262.828837 
L 183.527111 262.075163 
L 183.868874 262.075163 
L 183.868874 261.823939 
L 184.034037 261.823939 
L 184.089397 261.32149 
L 184.47261 261.32149 
L 184.47261 261.070266 
L 184.682795 261.070266 
L 184.682795 260.819041 
L 185.218237 260.819041 
L 185.218237 260.567817 
L 185.407321 260.567817 
L 185.407321 260.316593 
L 186.243429 260.316593 
L 186.328295 259.562919 
L 186.704593 259.562919 
L 186.774169 259.060471 
L 187.127724 259.060471 
L 187.215649 258.558022 
L 187.294801 258.558022 
L 187.294801 258.306797 
L 187.54368 258.306797 
L 187.54368 258.055573 
L 187.750328 258.055573 
L 187.750328 257.804349 
L 188.162354 257.804349 
L 188.162354 257.553124 
L 188.334804 257.553124 
L 188.399849 257.050675 
L 188.512921 257.050675 
L 188.512921 256.799451 
L 188.744838 256.799451 
L 188.744838 256.548227 
L 188.952708 256.548227 
L 188.952708 256.297002 
L 189.697121 256.297002 
L 189.697121 256.045778 
L 190.153607 256.045778 
L 190.153607 255.794553 
L 190.513343 255.794553 
L 190.513343 255.543329 
L 190.770607 255.543329 
L 190.789624 255.04088 
L 191.019097 255.04088 
L 191.019097 254.789656 
L 191.178099 254.789656 
L 191.286119 254.287207 
L 191.365588 254.287207 
L 191.389282 253.533534 
L 191.971766 253.533534 
L 191.971766 253.282309 
L 192.223236 253.282309 
L 192.223236 253.031085 
L 192.578935 253.031085 
L 192.578935 252.779861 
L 192.99828 252.779861 
L 192.99828 252.528636 
L 193.19761 252.528636 
L 193.19761 252.277412 
L 193.660575 252.277412 
L 193.763135 251.523739 
L 193.780093 251.523739 
L 193.888761 251.02129 
L 194.016552 251.02129 
L 194.016552 250.770065 
L 194.38181 250.770065 
L 194.405027 250.267617 
L 194.558915 250.267617 
L 194.558915 250.016392 
L 194.886134 250.016392 
L 194.964293 249.011495 
L 195.37685 249.011495 
L 195.37685 248.76027 
L 195.56178 248.76027 
L 195.56178 248.509046 
L 195.824879 248.509046 
L 195.824879 248.257821 
L 196.074307 248.257821 
L 196.112525 247.755373 
L 196.213354 247.755373 
L 196.213354 247.504148 
L 196.375368 247.504148 
L 196.375368 247.252924 
L 196.50569 247.252924 
L 196.581994 246.499251 
L 196.767299 246.499251 
L 196.767299 246.248026 
L 197.009079 246.248026 
L 197.009079 245.996802 
L 197.267341 245.996802 
L 197.267341 245.745577 
L 197.397554 245.745577 
L 197.397554 245.494353 
L 197.929993 245.494353 
L 198.04097 244.489455 
L 198.113061 244.489455 
L 198.113061 244.238231 
L 198.289914 244.238231 
L 198.289914 243.987007 
L 198.518345 243.987007 
L 198.518345 243.735782 
L 198.729421 243.735782 
L 198.793796 243.233333 
L 199.043928 243.233333 
L 199.124597 242.730885 
L 199.352025 242.730885 
L 199.352025 242.47966 
L 199.601605 242.47966 
L 199.687302 241.977211 
L 199.921389 241.977211 
L 199.921389 241.725987 
L 200.869432 241.725987 
L 200.869432 241.223538 
L 200.984574 241.223538 
L 200.984574 240.972314 
L 201.105589 240.972314 
L 201.105589 240.721089 
L 201.40144 240.721089 
L 201.507326 240.218641 
L 201.631846 240.218641 
L 201.712567 239.464967 
L 202.081424 239.464967 
L 202.081424 239.213743 
L 202.330196 239.213743 
L 202.330196 238.962519 
L 202.862026 238.962519 
L 202.862026 238.711294 
L 202.999463 238.711294 
L 202.999463 238.46007 
L 203.26969 238.46007 
L 203.26969 238.208845 
L 203.525702 238.208845 
L 203.558625 237.455172 
L 203.774475 237.455172 
L 203.774475 237.203948 
L 203.937507 237.203948 
L 203.937507 236.952723 
L 204.081243 236.952723 
L 204.081243 236.701499 
L 204.339605 236.701499 
L 204.339605 236.450275 
L 204.855149 236.450275 
L 204.962209 235.696601 
L 205.002904 235.696601 
L 205.050588 234.691704 
L 205.337764 234.691704 
L 205.348708 234.189255 
L 205.525522 234.189255 
L 205.525522 233.938031 
L 205.654577 233.938031 
L 205.755642 233.184357 
L 205.879448 233.184357 
L 205.879448 232.933133 
L 206.251746 232.933133 
L 206.277182 232.430684 
L 206.404853 232.430684 
L 206.474934 231.928235 
L 206.964338 231.928235 
L 207.070224 230.923338 
L 207.194743 230.923338 
L 207.211996 230.420889 
L 207.440082 230.420889 
L 207.460768 229.164767 
L 208.107388 229.164767 
L 208.136196 228.662318 
L 208.296532 228.662318 
L 208.361455 228.159869 
L 208.408617 228.159869 
L 208.514502 227.406196 
L 208.558358 227.406196 
L 208.639022 226.652523 
L 208.685007 226.652523 
L 208.76912 225.647625 
L 209.017892 225.647625 
L 209.017892 225.396401 
L 209.211815 225.396401 
L 209.215908 224.893952 
L 209.366309 224.893952 
L 209.366309 224.642728 
L 209.556865 224.642728 
L 209.618622 223.63783 
L 209.788471 223.63783 
L 209.838657 223.135381 
L 210.037401 223.135381 
L 210.037401 222.884157 
L 210.246321 222.884157 
L 210.246321 222.632932 
L 210.361274 222.632932 
L 210.459563 222.130484 
L 210.518333 222.130484 
L 210.608054 221.37681 
L 210.674766 221.37681 
L 210.768939 220.874362 
L 210.786977 220.874362 
L 210.786977 220.623137 
L 210.900661 220.623137 
L 210.900661 220.371913 
L 211.0194 220.371913 
L 211.0194 220.120688 
L 211.288999 220.120688 
L 211.31854 219.61824 
L 211.407482 219.61824 
L 211.45807 219.115791 
L 211.742963 219.115791 
L 211.742963 218.864566 
L 211.962612 218.864566 
L 212.030086 218.110893 
L 212.09491 218.110893 
L 212.200796 217.35722 
L 212.325315 217.35722 
L 212.393042 216.101098 
L 212.586271 216.101098 
L 212.588731 215.598649 
L 212.762819 215.598649 
L 212.765536 215.0962 
L 212.901974 215.0962 
L 212.901974 214.844976 
L 213.163631 214.844976 
L 213.269418 213.840078 
L 213.350255 213.840078 
L 213.455605 213.33763 
L 213.474775 213.33763 
L 213.51955 212.835181 
L 213.652034 212.835181 
L 213.75792 211.579059 
L 213.882439 211.579059 
L 213.941711 210.825386 
L 214.132087 210.825386 
L 214.186204 210.071712 
L 214.420754 210.071712 
L 214.420754 209.569264 
L 214.690086 209.569264 
L 214.720338 209.066815 
L 214.803179 209.066815 
L 214.803179 208.81559 
L 214.940218 208.81559 
L 215.032544 208.061917 
L 215.199091 208.061917 
L 215.199091 207.810693 
L 215.374996 207.810693 
L 215.374996 207.559468 
L 215.648906 207.559468 
L 215.714293 207.05702 
L 215.771191 207.05702 
L 215.771191 206.805795 
L 216.031233 206.805795 
L 216.046088 206.303346 
L 216.449112 206.303346 
L 216.508741 205.800898 
L 216.599293 205.800898 
L 216.652286 205.047224 
L 216.798365 205.047224 
L 216.899183 204.293551 
L 217.180693 204.293551 
L 217.271417 203.288654 
L 217.333158 203.288654 
L 217.333158 203.037429 
L 217.531314 203.037429 
L 217.598571 202.283756 
L 217.751649 202.283756 
L 217.853444 201.781307 
L 218.006236 201.781307 
L 218.035196 201.278858 
L 218.181694 201.278858 
L 218.285328 200.273961 
L 218.404607 200.273961 
L 218.486768 199.771512 
L 218.706884 199.771512 
L 218.774222 199.269063 
L 219.105442 199.269063 
L 219.105442 199.017839 
L 219.278105 199.017839 
L 219.278105 198.766614 
L 219.511428 198.766614 
L 219.528236 198.012941 
L 219.656608 198.012941 
L 219.763028 197.510492 
L 219.89823 197.510492 
L 219.990021 196.756819 
L 220.286705 196.756819 
L 220.286705 196.505595 
L 220.578142 196.505595 
L 220.644865 195.751922 
L 220.785448 195.751922 
L 220.806328 195.249473 
L 220.94489 195.249473 
L 220.950556 194.747024 
L 221.174222 194.747024 
L 221.174222 194.4958 
L 221.372717 194.4958 
L 221.372717 194.244575 
L 221.786921 194.244575 
L 221.786921 193.742126 
L 221.953942 193.742126 
L 221.953942 193.490902 
L 222.262469 193.490902 
L 222.371224 192.988453 
L 222.479347 192.988453 
L 222.479347 192.737229 
L 222.664073 192.737229 
L 222.756681 192.23478 
L 222.881143 192.23478 
L 222.881143 191.983556 
L 223.035495 191.983556 
L 223.035495 191.732331 
L 223.463627 191.732331 
L 223.514576 191.229882 
L 223.577442 191.229882 
L 223.597622 190.727434 
L 223.69153 190.727434 
L 223.69153 190.476209 
L 223.894186 190.476209 
L 223.994739 189.471312 
L 224.088009 189.471312 
L 224.196116 188.466414 
L 224.265607 188.466414 
L 224.29 187.963965 
L 224.565278 187.963965 
L 224.570721 187.461516 
L 224.7786 187.461516 
L 224.827735 186.959068 
L 224.9367 186.959068 
L 224.9367 186.707843 
L 225.112198 186.707843 
L 225.112198 186.456619 
L 225.264332 186.456619 
L 225.264332 186.205394 
L 225.381238 186.205394 
L 225.381238 185.95417 
L 225.498827 185.95417 
L 225.532909 185.200497 
L 225.648643 185.200497 
L 225.716334 184.195599 
L 225.896888 184.195599 
L 225.903855 183.69315 
L 226.086114 183.69315 
L 226.086114 183.190702 
L 226.250508 183.190702 
L 226.270839 182.688253 
L 226.49564 182.688253 
L 226.545361 182.185804 
L 226.642261 182.185804 
L 226.74926 181.683355 
L 226.802253 181.683355 
L 226.823386 181.180906 
L 226.959242 181.180906 
L 226.959242 180.929682 
L 227.204389 180.929682 
L 227.293412 180.176009 
L 227.601506 180.176009 
L 227.664834 179.171111 
L 227.797295 179.171111 
L 227.797295 178.919887 
L 227.931227 178.919887 
L 228.018061 178.417438 
L 228.047426 178.417438 
L 228.047426 178.166214 
L 228.168716 178.166214 
L 228.226962 177.663765 
L 228.351326 177.663765 
L 228.457308 176.658867 
L 228.499344 176.658867 
L 228.499344 176.407643 
L 228.680616 176.407643 
L 228.78695 175.402745 
L 228.892836 175.402745 
L 228.980976 174.900296 
L 229.017356 174.900296 
L 229.017356 174.649072 
L 229.150754 174.649072 
L 229.248174 174.146623 
L 229.330347 174.146623 
L 229.351895 173.644174 
L 229.54593 173.644174 
L 229.604923 173.141725 
L 229.700217 173.141725 
L 229.773358 172.639277 
L 229.919266 172.639277 
L 229.949021 172.136828 
L 230.246813 172.136828 
L 230.246813 171.885603 
L 230.531505 171.885603 
L 230.606322 171.383155 
L 230.645618 171.383155 
L 230.750246 170.629481 
L 230.794832 170.629481 
L 230.794832 170.378257 
L 230.919896 170.378257 
L 230.919896 170.127033 
L 231.624827 170.127033 
L 231.667481 169.624584 
L 231.844943 169.624584 
L 231.875731 169.122135 
L 232.261025 169.122135 
L 232.340946 168.368462 
L 232.406334 168.368462 
L 232.462007 167.614789 
L 232.546823 167.614789 
L 232.6474 166.861115 
L 232.697005 166.861115 
L 232.723274 166.358667 
L 232.964766 166.358667 
L 233.07243 165.856218 
L 233.141152 165.856218 
L 233.151283 165.353769 
L 233.261436 165.353769 
L 233.298739 164.85132 
L 233.401414 164.85132 
L 233.412262 164.348871 
L 233.526033 164.348871 
L 233.581064 163.595198 
L 233.845122 163.595198 
L 233.939914 162.590301 
L 234.003225 162.590301 
L 234.052099 162.087852 
L 234.180046 162.087852 
L 234.252384 161.585403 
L 234.302543 161.585403 
L 234.35765 161.082954 
L 234.42352 161.082954 
L 234.528852 160.329281 
L 234.639535 160.329281 
L 234.642375 159.826832 
L 234.902377 159.826832 
L 235.012591 158.57071 
L 235.199944 158.57071 
L 235.274957 158.068261 
L 235.313467 158.068261 
L 235.360515 157.565813 
L 235.478432 157.565813 
L 235.478432 157.314588 
L 235.657247 157.314588 
L 235.657247 157.063364 
L 235.77884 157.063364 
L 235.849854 156.309691 
L 236.028971 156.309691 
L 236.028971 156.058466 
L 236.179865 156.058466 
L 236.255499 155.304793 
L 236.300781 155.304793 
L 236.300781 155.053569 
L 236.411982 155.053569 
L 236.498447 154.55112 
L 236.536189 154.55112 
L 236.536189 154.299895 
L 236.6728 154.299895 
L 236.679196 153.797447 
L 236.905506 153.797447 
L 236.905506 153.546222 
L 237.019029 153.546222 
L 237.020486 153.043773 
L 237.39988 153.043773 
L 237.39988 152.792549 
L 237.528412 152.792549 
L 237.528412 152.541325 
L 237.701769 152.541325 
L 237.760454 151.536427 
L 237.861415 151.536427 
L 237.928079 151.033978 
L 238.009227 151.033978 
L 238.041602 150.531529 
L 238.205652 150.531529 
L 238.249494 149.777856 
L 238.346842 149.777856 
L 238.455783 149.024183 
L 238.52872 149.024183 
L 238.590828 148.27051 
L 238.682092 148.27051 
L 238.682092 148.019285 
L 238.795616 148.019285 
L 238.795616 147.768061 
L 239.06296 147.768061 
L 239.168846 147.014388 
L 239.237656 147.014388 
L 239.293365 146.511939 
L 239.406087 146.511939 
L 239.406087 146.260715 
L 239.589751 146.260715 
L 239.683421 145.758266 
L 239.760273 145.758266 
L 239.801829 145.255817 
L 239.959292 145.255817 
L 239.959292 145.004593 
L 240.138964 145.004593 
L 240.138964 144.753368 
L 240.387736 144.753368 
L 240.401807 144.250919 
L 240.581761 144.250919 
L 240.650579 143.497246 
L 240.832421 143.497246 
L 240.832421 143.246022 
L 241.132589 143.246022 
L 241.238475 142.743573 
L 241.362994 142.743573 
L 241.362994 142.492349 
L 241.510562 142.492349 
L 241.616166 141.9899 
L 241.710332 141.9899 
L 241.710332 141.738675 
L 241.879008 141.738675 
L 241.980369 141.236227 
L 242.033644 141.236227 
L 242.138783 140.231329 
L 242.160608 140.231329 
L 242.160608 139.980105 
L 242.401626 139.980105 
L 242.459104 139.477656 
L 242.583384 139.477656 
L 242.682343 137.970309 
L 242.749254 137.970309 
L 242.830525 137.467861 
L 242.873774 137.467861 
L 242.873774 137.216636 
L 242.999283 137.216636 
L 243.09131 136.462963 
L 243.183146 136.462963 
L 243.183146 136.211739 
L 243.392653 136.211739 
L 243.459977 135.458065 
L 243.573395 135.458065 
L 243.676 77.174004 
L 244.027662 77.174004 
L 244.063372 76.671556 
L 244.229205 76.671556 
L 244.229205 76.420331 
L 244.460456 76.420331 
L 244.535588 75.917882 
L 244.603814 75.917882 
L 244.686765 75.164209 
L 244.751972 75.164209 
L 244.800288 74.159312 
L 245.021878 74.159312 
L 245.127764 73.405638 
L 245.146111 73.405638 
L 245.252283 72.90319 
L 245.284721 72.90319 
L 245.390607 72.400741 
L 245.486791 72.400741 
L 245.515126 71.898292 
L 245.624451 71.898292 
L 245.708239 71.395843 
L 245.810067 71.395843 
L 245.886789 70.64217 
L 246.025941 70.64217 
L 246.113099 70.139721 
L 246.197364 70.139721 
L 246.262752 69.134824 
L 246.517862 69.134824 
L 246.579692 68.632375 
L 246.997571 68.632375 
L 247.073619 68.129926 
L 247.118286 68.129926 
L 247.118286 67.878702 
L 247.692293 67.878702 
L 247.747974 67.125028 
L 247.813092 67.125028 
L 247.813092 66.873804 
L 247.948924 66.873804 
L 247.948924 66.62258 
L 248.108941 66.62258 
L 248.108941 66.371355 
L 248.221882 66.371355 
L 248.274777 65.617682 
L 248.419067 65.617682 
L 248.480362 65.115233 
L 248.575874 65.115233 
L 248.641261 64.36156 
L 248.838716 64.36156 
L 248.904104 63.356662 
L 248.958201 63.356662 
L 249.051748 62.351765 
L 249.191832 62.351765 
L 249.271079 61.598092 
L 249.371341 61.598092 
L 249.37608 61.095643 
L 249.600527 61.095643 
L 249.673555 60.090745 
L 249.779005 60.090745 
L 249.779005 59.839521 
L 250.124628 59.839521 
L 250.128677 59.337072 
L 250.319563 59.337072 
L 250.319563 59.085847 
L 250.440649 59.085847 
L 250.440649 58.834623 
L 250.708038 58.834623 
L 250.723038 58.332174 
L 250.988528 58.332174 
L 251.068631 57.829725 
L 251.147201 57.829725 
L 251.1843 57.327277 
L 251.435009 57.327277 
L 251.435009 57.076052 
L 251.651083 57.076052 
L 251.734593 56.322379 
L 251.802975 56.322379 
L 251.901215 55.81993 
L 252.385458 55.81993 
L 252.385458 55.568706 
L 252.756234 55.568706 
L 252.790738 54.815033 
L 252.867461 54.815033 
L 252.867461 54.563808 
L 253.09377 54.563808 
L 253.09377 54.312584 
L 253.207293 54.312584 
L 253.317467 53.810135 
L 253.462929 53.810135 
L 253.462929 53.307686 
L 254.416072 53.307686 
L 254.430244 52.805237 
L 254.818719 52.805237 
L 254.818719 52.554013 
L 255.183046 52.554013 
L 255.183046 52.302789 
L 255.409356 52.302789 
L 255.409356 52.051564 
L 255.522879 52.051564 
L 255.522879 51.80034 
L 255.757915 51.80034 
L 255.757915 51.549115 
L 256.090486 51.549115 
L 256.090486 51.297891 
L 256.741433 51.297891 
L 256.741433 51.046667 
L 256.966694 51.046667 
L 256.966694 50.795442 
L 257.711022 50.795442 
L 257.711022 50.544218 
L 257.891982 50.544218 
L 257.905887 50.041769 
L 258.022839 50.041769 
L 258.082444 49.53932 
L 258.189859 49.53932 
L 258.189859 49.288096 
L 258.517298 49.288096 
L 258.526754 48.785647 
L 258.644572 48.785647 
L 258.743607 48.283198 
L 258.85713 48.283198 
L 258.907108 47.780749 
L 259.22729 47.780749 
L 259.332221 47.278301 
L 259.750494 47.278301 
L 259.750494 46.775852 
L 260.549747 46.775852 
L 260.549747 46.524627 
L 261.155945 46.524627 
L 261.265886 46.022179 
L 261.884561 46.022179 
L 261.884561 45.770954 
L 262.073195 45.770954 
L 262.073195 45.51973 
L 262.322031 45.51973 
L 262.322031 45.268505 
L 262.781279 45.268505 
L 262.781279 45.017281 
L 263.06501 45.017281 
L 263.06501 44.766057 
L 263.837424 44.766057 
L 263.947365 44.012383 
L 264.405996 44.012383 
L 264.405996 43.761159 
L 264.913922 43.761159 
L 264.913922 43.509935 
L 265.19866 43.509935 
L 265.19866 43.25871 
L 265.620821 43.25871 
L 265.692567 42.756261 
L 266.312892 42.756261 
L 266.312892 42.505037 
L 266.619328 42.505037 
L 266.619328 42.253813 
L 267.304597 42.253813 
L 267.304597 42.002588 
L 268.119379 42.002588 
L 268.119379 41.751364 
L 268.246558 41.751364 
L 268.345689 40.997691 
L 268.459212 40.997691 
L 268.459212 40.746466 
L 268.628478 40.746466 
L 268.628478 40.495242 
L 268.865232 40.495242 
L 268.865232 40.244017 
L 269.537423 40.244017 
L 269.537423 39.992793 
L 269.76195 39.992793 
L 269.76195 39.490344 
L 269.964438 39.490344 
L 269.964438 39.23912 
L 270.104754 39.23912 
L 270.104754 38.987895 
L 270.380625 38.987895 
L 270.380625 38.485447 
L 270.687238 38.485447 
L 270.687238 38.234222 
L 271.207347 38.234222 
L 271.207347 37.982998 
L 271.67149 37.982998 
L 271.67149 37.731773 
L 271.962729 37.731773 
L 271.962729 37.480549 
L 272.456689 37.480549 
L 272.456689 37.229325 
L 272.778612 37.229325 
L 272.778612 36.9781 
L 274.097333 36.9781 
L 274.097333 36.726876 
L 274.403946 36.726876 
L 274.484705 36.224427 
L 274.682006 36.224427 
L 274.682006 35.973203 
L 274.957151 35.973203 
L 274.981602 35.470754 
L 275.189932 35.470754 
L 275.189932 35.219529 
L 275.919338 35.219529 
L 275.919338 34.968305 
L 276.751635 34.968305 
L 276.751635 34.717081 
L 277.115669 34.717081 
L 277.115669 34.465856 
L 277.230439 34.465856 
L 277.259561 33.963407 
L 277.956118 33.963407 
L 277.956118 33.712183 
L 278.139633 33.712183 
L 278.204891 33.209734 
L 278.262414 33.209734 
L 278.262414 32.95851 
L 278.396525 32.95851 
L 278.396525 32.707285 
L 278.595386 32.707285 
L 278.595386 32.456061 
L 278.77034 32.456061 
L 278.855773 31.953612 
L 279.002723 31.953612 
L 279.002723 31.702388 
L 279.364505 31.702388 
L 279.43332 31.199939 
L 279.726537 31.199939 
L 279.726537 30.948715 
L 279.911918 30.948715 
L 279.955937 30.195041 
L 280.097958 30.195041 
L 280.097958 29.943817 
L 280.640924 29.943817 
L 280.660086 29.441368 
L 280.903767 29.441368 
L 280.903767 29.190144 
L 281.14885 29.190144 
L 281.14885 28.938919 
L 281.411693 28.938919 
L 281.411693 28.687695 
L 281.564811 28.687695 
L 281.564811 28.436471 
L 282.295415 28.436471 
L 282.295415 28.185246 
L 282.839032 28.185246 
L 282.944918 27.682797 
L 283.069438 27.682797 
L 283.069438 27.431573 
L 283.884262 27.431573 
L 283.884262 27.180349 
L 284.045413 27.180349 
L 284.045413 26.929124 
L 284.894484 26.929124 
L 284.894484 26.6779 
L 285.080525 26.6779 
L 285.080525 26.426675 
L 285.836444 26.426675 
L 285.836444 25.924227 
L 286.393028 25.924227 
L 286.458415 25.170553 
L 286.775356 25.170553 
L 286.775356 24.919329 
L 287.193234 24.919329 
L 287.193234 24.668105 
L 287.578758 24.668105 
L 287.578758 24.41688 
L 287.708082 24.41688 
L 287.708082 24.165656 
L 287.970511 24.165656 
L 287.970511 23.914431 
L 288.183454 23.914431 
L 288.183454 23.663207 
L 289.026656 23.663207 
L 289.026656 23.411983 
L 289.328441 23.411983 
L 289.328441 23.160758 
L 289.698846 23.160758 
L 289.698846 22.909534 
L 290.134893 22.909534 
L 290.134893 22.658309 
L 290.361203 22.658309 
L 290.361203 22.407085 
L 290.474726 22.407085 
L 290.474726 22.155861 
L 291.577277 22.155861 
L 291.577277 21.904636 
L 291.883891 21.904636 
L 291.993832 21.402187 
L 293.078187 21.402187 
L 293.078187 21.150963 
L 293.326959 21.150963 
L 293.326959 20.899739 
L 293.627634 20.899739 
L 293.627634 20.648514 
L 294.555389 20.648514 
L 294.555389 20.39729 
L 294.951182 20.39729 
L 294.951182 19.894841 
L 295.078006 19.894841 
L 295.143026 19.392392 
L 295.87647 19.392392 
L 295.986412 18.889943 
L 297.391862 18.889943 
L 297.391862 18.638719 
L 297.961101 18.638719 
L 298.066987 18.13627 
L 298.191506 18.13627 
L 298.191506 17.885046 
L 301.108571 17.885046 
L 301.108571 17.633821 
L 301.515096 17.633821 
L 301.580484 17.131373 
L 301.897424 17.131373 
L 301.897424 16.880148 
L 302.315303 16.880148 
L 302.315303 16.628924 
L 303.580325 16.628924 
L 303.580325 16.377699 
L 305.10115 16.377699 
L 305.10115 16.126475 
L 305.560397 16.126475 
L 305.560397 15.875251 
L 305.77334 15.875251 
L 305.77334 15.624026 
L 306.616542 15.624026 
L 306.616542 15.372802 
L 307.958385 15.372802 
L 307.958385 15.121577 
L 310.092451 15.121577 
L 310.092451 14.870353 
L 311.21752 14.870353 
L 311.21752 14.619129 
L 312.541069 14.619129 
L 312.541069 14.11668 
L 313.466356 14.11668 
L 313.466356 13.865455 
L 314.888078 13.865455 
L 314.888078 13.614231 
L 318.458078 13.614231 
L 318.458078 13.363007 
L 318.698457 13.363007 
L 318.698457 13.111782 
L 318.966004 13.111782 
L 318.966004 12.860558 
L 320.332258 12.860558 
L 320.332258 12.609333 
L 320.822425 12.609333 
L 320.822425 12.358109 
L 322.305223 12.358109 
L 322.305223 12.106885 
L 322.581094 12.106885 
L 322.691036 11.604436 
L 326.321854 11.604436 
L 326.321854 11.353211 
L 326.570627 11.353211 
L 326.604416 10.850763 
L 327.799056 10.850763 
L 327.799056 10.599538 
L 328.119808 10.599538 
L 328.119808 10.348314 
L 328.321673 10.348314 
L 328.321673 10.097089 
L 331.204768 10.097089 
L 331.310654 9.594641 
L 331.435174 9.594641 
L 331.435174 9.343416 
L 332.477965 9.343416 
L 332.477965 9.092192 
L 333.580147 9.092192 
L 333.580147 8.840967 
L 334.088073 8.840967 
L 334.088073 8.589743 
L 334.758764 8.589743 
L 334.824151 8.087294 
L 335.141092 8.087294 
L 335.141092 7.83607 
L 335.55897 7.83607 
L 335.55897 7.584845 
L 337.922145 7.584845 
L 337.922145 7.333621 
L 340.170981 7.333621 
L 340.170981 7.082397 
L 344.194302 7.082397 
L 344.194302 6.831172 
L 353.30904 6.831172 
L 353.30904 6.579948 
L 366.823814 6.579948 
L 366.823814 6.328723 
L 367.33174 6.328723 
L 367.33174 6.077499 
L 370.898927 6.077499 
L 370.898927 5.826275 
L 453.192 5.826275 
L 453.192 5.826275 
" clip-path="url(#p5e98d8c536)" style="fill: none; stroke: #000000; stroke-width: 3; stroke-linecap: square"/>
   </g>
   <g id="line2d_46">
    <path clip-path="url(#p5e98d8c536)" style="fill: none; stroke: #000000; stroke-width: 3; stroke-linecap: square"/>
   </g>
   <g id="line2d_47">
    <path d="M 34.16 232.753425 
L 90.264505 232.753425 
L 90.264505 232.409596 
L 94.300466 232.409596 
L 94.300466 232.065767 
L 97.746674 232.065767 
L 97.746674 231.721938 
L 97.96048 231.721938 
L 97.96048 231.378109 
L 101.110805 231.378109 
L 101.110805 231.03428 
L 101.782634 231.03428 
L 101.782634 230.690451 
L 103.473041 230.690451 
L 103.473041 230.346622 
L 103.837953 230.346622 
L 103.837953 230.002793 
L 105.442648 230.002793 
L 105.442648 229.658964 
L 107.509001 229.658964 
L 107.509001 229.315135 
L 107.790734 229.315135 
L 107.790734 228.971306 
L 108.541589 228.971306 
L 108.541589 228.627477 
L 109.06626 228.627477 
L 109.06626 228.283648 
L 111.081584 228.283648 
L 111.169016 227.59599 
L 111.320121 227.59599 
L 111.320121 227.252161 
L 111.851389 227.252161 
L 111.851389 226.908332 
L 112.850573 226.908332 
L 112.850573 226.564503 
L 113.102221 226.564503 
L 113.102221 226.220674 
L 113.496278 226.220674 
L 113.496278 225.876845 
L 114.716231 225.876845 
L 114.716231 225.533016 
L 115.073826 225.533016 
L 115.117544 224.845358 
L 116.321321 224.845358 
L 116.321321 224.501529 
L 116.762235 224.501529 
L 116.780753 223.813871 
L 117.046489 223.813871 
L 117.046489 223.470042 
L 117.532239 223.470042 
L 117.532239 223.126212 
L 117.745709 223.126212 
L 117.745709 222.782383 
L 118.777558 222.782383 
L 118.777558 222.438554 
L 120.806105 222.438554 
L 120.806105 222.094725 
L 121.192253 222.094725 
L 121.192253 221.750896 
L 122.285213 221.750896 
L 122.285213 221.407067 
L 122.639708 221.407067 
L 122.639708 221.063238 
L 123.00125 221.063238 
L 123.00125 220.719409 
L 123.394149 220.719409 
L 123.460682 220.031751 
L 123.752105 220.031751 
L 123.752105 219.687922 
L 124.211537 219.687922 
L 124.211537 219.344093 
L 124.426323 219.344093 
L 124.426323 219.000264 
L 124.655032 219.000264 
L 124.655032 218.656435 
L 125.254511 218.656435 
L 125.254511 218.312606 
L 125.890224 218.312606 
L 125.890224 217.968777 
L 126.556448 217.968777 
L 126.556448 217.624948 
L 127.061905 217.624948 
L 127.069726 216.93729 
L 127.420068 216.93729 
L 127.521337 216.249632 
L 128.917996 216.249632 
L 128.965142 215.561974 
L 129.715997 215.561974 
L 129.715997 215.218145 
L 129.926747 215.218145 
L 129.926747 214.874316 
L 130.284342 214.874316 
L 130.386179 214.186658 
L 130.743774 214.186658 
L 130.743774 213.842829 
L 131.802854 213.842829 
L 131.802854 213.499 
L 131.93444 213.499 
L 131.93444 213.155171 
L 132.570153 213.155171 
L 132.570153 212.811342 
L 132.685295 212.811342 
L 132.685295 212.467513 
L 132.956225 212.467513 
L 133.025797 211.779855 
L 133.194046 211.779855 
L 133.194046 211.436026 
L 133.321008 211.436026 
L 133.415657 210.404539 
L 133.695179 210.404539 
L 133.695179 210.06071 
L 135.890639 210.06071 
L 135.995095 209.373052 
L 136.016621 209.373052 
L 136.016621 209.029223 
L 136.248234 209.029223 
L 136.248234 208.685394 
L 136.476054 208.685394 
L 136.476054 208.341565 
L 136.630808 208.341565 
L 136.630808 207.997736 
L 137.390679 207.997736 
L 137.390679 207.653907 
L 137.790976 207.653907 
L 137.790976 207.310078 
L 137.955608 207.310078 
L 137.955608 206.966249 
L 138.132198 206.966249 
L 138.132198 206.62242 
L 138.323917 206.62242 
L 138.323917 206.278591 
L 138.604665 206.278591 
L 138.604665 205.934762 
L 138.859937 205.934762 
L 138.920117 205.247104 
L 139.064097 205.247104 
L 139.064097 204.903275 
L 139.217532 204.903275 
L 139.217532 204.559446 
L 139.49565 204.559446 
L 139.569014 203.871788 
L 139.853245 203.871788 
L 139.853245 203.527959 
L 140.237251 203.527959 
L 140.237251 203.18413 
L 141.050693 203.18413 
L 141.050693 202.840301 
L 141.826936 202.840301 
L 141.889415 202.152643 
L 141.980513 202.152643 
L 141.980513 201.808814 
L 142.525128 201.808814 
L 142.630584 200.777326 
L 142.723241 200.777326 
L 142.723241 200.433497 
L 143.090016 200.433497 
L 143.090016 200.089668 
L 143.604975 200.089668 
L 143.604975 199.745839 
L 144.568557 199.745839 
L 144.568557 199.40201 
L 144.769796 199.40201 
L 144.843969 198.714352 
L 144.949811 198.714352 
L 144.949811 198.370523 
L 145.48695 198.370523 
L 145.585524 197.339036 
L 146.759201 197.339036 
L 146.759201 196.995207 
L 146.928167 196.995207 
L 146.928167 196.651378 
L 147.120827 196.651378 
L 147.120827 196.307549 
L 147.264989 196.307549 
L 147.264989 195.96372 
L 147.537854 195.96372 
L 147.537854 195.619891 
L 148.173567 195.619891 
L 148.173567 195.276062 
L 148.594476 195.276062 
L 148.594476 194.932233 
L 148.879929 194.932233 
L 148.905695 194.244575 
L 149.261469 194.244575 
L 149.365127 193.556917 
L 149.531358 193.556917 
L 149.531358 193.213088 
L 149.899667 193.213088 
L 149.899667 192.869259 
L 150.419215 192.869259 
L 150.484811 192.181601 
L 151.156787 192.181601 
L 151.156787 191.837772 
L 151.364424 191.837772 
L 151.364424 191.493943 
L 151.563774 191.493943 
L 151.563774 191.150114 
L 152.146327 191.150114 
L 152.199486 190.462456 
L 152.539943 190.462456 
L 152.539943 190.118627 
L 152.803951 190.118627 
L 152.803951 189.774798 
L 153.142462 189.774798 
L 153.142462 189.430969 
L 154.02303 189.430969 
L 154.02303 189.08714 
L 154.39134 189.08714 
L 154.39134 188.743311 
L 154.520772 188.743311 
L 154.520772 188.399482 
L 154.816801 188.399482 
L 154.869587 187.711824 
L 155.447767 187.711824 
L 155.447767 187.367995 
L 155.907199 187.367995 
L 155.907199 187.024166 
L 156.296689 187.024166 
L 156.296689 186.680337 
L 156.907888 186.680337 
L 156.907888 186.336508 
L 157.276198 186.336508 
L 157.276198 185.992679 
L 157.838885 185.992679 
L 157.838885 185.64885 
L 158.180786 185.64885 
L 158.180786 185.305021 
L 158.417416 185.305021 
L 158.474598 184.617363 
L 160.694274 184.617363 
L 160.694274 184.273534 
L 161.411659 184.273534 
L 161.411659 183.929705 
L 163.278975 183.929705 
L 163.278975 183.585876 
L 164.058259 183.585876 
L 164.058259 183.242047 
L 164.380957 183.242047 
L 164.380957 182.898218 
L 165.016669 182.898218 
L 165.016669 182.554389 
L 166.509826 182.554389 
L 166.509826 182.21056 
L 168.980706 182.21056 
L 168.980706 181.866731 
L 170.778198 181.866731 
L 170.887577 181.179073 
L 171.94353 181.179073 
L 171.94353 180.835244 
L 173.147424 180.835244 
L 173.147424 180.491415 
L 174.854725 180.491415 
L 174.854725 180.147586 
L 175.520574 180.147586 
L 175.520574 179.803757 
L 177.908986 179.803757 
L 177.908986 179.459927 
L 178.277295 179.459927 
L 178.277295 179.116098 
L 179.346398 179.116098 
L 179.346398 178.772269 
L 182.231256 178.772269 
L 182.231256 178.42844 
L 182.3526 178.42844 
L 182.3526 178.084611 
L 182.686581 178.084611 
L 182.686581 177.740782 
L 183.626792 177.740782 
L 183.651174 177.053124 
L 184.484073 177.053124 
L 184.593451 176.365466 
L 184.760023 176.365466 
L 184.760023 176.021637 
L 185.649405 176.021637 
L 185.670468 175.333979 
L 186.724606 175.333979 
L 186.724606 174.99015 
L 187.627128 174.99015 
L 187.627128 174.646321 
L 189.226448 174.646321 
L 189.324179 173.958663 
L 190.004059 173.958663 
L 190.004059 173.614834 
L 191.121671 173.614834 
L 191.23105 172.583347 
L 191.643405 172.583347 
L 191.643405 172.239518 
L 192.287003 172.239518 
L 192.287003 171.895689 
L 192.794162 171.895689 
L 192.794162 171.55186 
L 193.152636 171.55186 
L 193.152636 171.208031 
L 194.08574 171.208031 
L 194.08574 170.864202 
L 194.206774 170.864202 
L 194.206774 170.520373 
L 194.45405 170.520373 
L 194.45405 170.176544 
L 195.109296 170.176544 
L 195.202542 169.488886 
L 195.864046 169.488886 
L 195.883233 168.801228 
L 195.992611 168.801228 
L 196.058475 168.11357 
L 196.251542 168.11357 
L 196.360921 167.082083 
L 196.85971 167.082083 
L 196.85971 166.738254 
L 197.048565 166.738254 
L 197.048565 166.394425 
L 197.416874 166.394425 
L 197.486227 165.706767 
L 198.879004 165.706767 
L 198.879004 165.362938 
L 199.125574 165.362938 
L 199.125574 165.019109 
L 199.694214 165.019109 
L 199.694214 164.67528 
L 199.933142 164.67528 
L 199.949294 163.987622 
L 200.276331 163.987622 
L 200.338826 163.299964 
L 200.625608 163.299964 
L 200.625608 162.956135 
L 200.827446 162.956135 
L 200.835664 162.268477 
L 200.993917 162.268477 
L 200.993917 161.924648 
L 202.452929 161.924648 
L 202.452929 161.580819 
L 202.579072 161.580819 
L 202.579072 161.23699 
L 202.696073 161.23699 
L 202.696073 160.893161 
L 203.212595 160.893161 
L 203.232353 160.205503 
L 203.712303 160.205503 
L 203.712303 159.861674 
L 204.468253 159.861674 
L 204.472223 159.174016 
L 204.851941 159.174016 
L 204.851941 158.830187 
L 205.386284 158.830187 
L 205.386284 158.486358 
L 205.526361 158.486358 
L 205.526361 158.142529 
L 205.726211 158.142529 
L 205.783701 157.45487 
L 206.002698 157.45487 
L 206.002698 157.111041 
L 206.428883 157.111041 
L 206.487547 156.423383 
L 206.882947 156.423383 
L 206.882947 156.079554 
L 207.431463 156.079554 
L 207.541684 155.048067 
L 207.825944 155.048067 
L 207.825944 154.704238 
L 208.444207 154.704238 
L 208.444207 154.360409 
L 208.805814 154.360409 
L 208.902241 153.672751 
L 209.752364 153.672751 
L 209.752364 153.328922 
L 209.956379 153.328922 
L 209.956379 152.985093 
L 210.44516 152.985093 
L 210.44516 152.641264 
L 210.821137 152.641264 
L 210.858901 151.953606 
L 211.595917 151.953606 
L 211.595917 151.609777 
L 211.914576 151.609777 
L 211.914576 151.265948 
L 212.066213 151.265948 
L 212.066213 150.922119 
L 212.460484 150.922119 
L 212.46363 150.234461 
L 212.666623 150.234461 
L 212.666623 149.890632 
L 212.799963 149.890632 
L 212.817067 149.202974 
L 213.15783 149.202974 
L 213.235832 148.171487 
L 213.611241 148.171487 
L 213.611241 147.827658 
L 214.113038 147.827658 
L 214.113038 147.483829 
L 214.875178 147.483829 
L 214.875178 147.14 
L 215.054629 147.14 
L 215.054629 146.796171 
L 215.999372 146.796171 
L 216.025935 146.108513 
L 216.126867 146.108513 
L 216.126867 145.764684 
L 216.406248 145.764684 
L 216.406248 145.420855 
L 216.524285 145.420855 
L 216.524285 145.077026 
L 216.849775 145.077026 
L 216.849775 144.733197 
L 217.998299 144.733197 
L 217.998299 144.389368 
L 218.751049 144.389368 
L 218.751049 144.045539 
L 218.99171 144.045539 
L 218.99171 143.70171 
L 219.110462 143.70171 
L 219.110462 143.357881 
L 219.291106 143.357881 
L 219.389127 142.326394 
L 219.409108 142.326394 
L 219.432085 141.638736 
L 219.746721 141.638736 
L 219.746721 141.294907 
L 220.766373 141.294907 
L 220.766373 140.951078 
L 221.2066 140.951078 
L 221.315979 140.26342 
L 221.390738 140.26342 
L 221.412592 139.575762 
L 221.726836 139.575762 
L 221.726836 139.231933 
L 222.021188 139.231933 
L 222.021188 138.888104 
L 222.371932 138.888104 
L 222.418605 138.200446 
L 222.679301 138.200446 
L 222.694628 137.512788 
L 223.146422 137.512788 
L 223.219981 136.481301 
L 223.430156 136.481301 
L 223.529704 135.449813 
L 223.580169 135.449813 
L 223.580169 135.105984 
L 224.280559 135.105984 
L 224.375713 134.418326 
L 224.678227 134.418326 
L 224.713401 133.386839 
L 225.081584 133.386839 
L 225.081584 133.04301 
L 225.429082 133.04301 
L 225.479001 132.011523 
L 225.678491 132.011523 
L 225.678491 131.667694 
L 225.948976 131.667694 
L 225.948976 131.323865 
L 226.069683 131.323865 
L 226.069683 130.980036 
L 226.372498 130.980036 
L 226.372498 130.636207 
L 226.630379 130.636207 
L 226.741388 129.60472 
L 226.806436 129.60472 
L 226.806436 129.260891 
L 227.197615 129.260891 
L 227.197615 128.917062 
L 227.590359 128.917062 
L 227.669627 128.229404 
L 228.067044 128.229404 
L 228.067044 127.885575 
L 228.236108 127.885575 
L 228.236108 127.541746 
L 228.738882 127.541746 
L 228.760682 126.854088 
L 228.867386 126.854088 
L 228.878202 126.16643 
L 229.323554 126.16643 
L 229.374557 125.478772 
L 229.604798 125.478772 
L 229.604798 125.134943 
L 229.782987 125.134943 
L 229.81482 124.447285 
L 229.962393 124.447285 
L 229.962393 124.103456 
L 230.095836 124.103456 
L 230.125412 123.415798 
L 230.455201 123.415798 
L 230.455201 123.071969 
L 230.702149 123.071969 
L 230.812796 122.040482 
L 230.831245 122.040482 
L 230.831245 121.696653 
L 231.122051 121.696653 
L 231.199554 120.665166 
L 231.377954 120.665166 
L 231.377954 120.321337 
L 231.603725 120.321337 
L 231.695546 119.633679 
L 231.752244 119.633679 
L 231.752244 119.28985 
L 231.961319 119.28985 
L 231.961319 118.946021 
L 232.092963 118.946021 
L 232.128809 118.258363 
L 232.35842 118.258363 
L 232.35842 117.914534 
L 232.634276 117.914534 
L 232.683909 117.226876 
L 232.781002 117.226876 
L 232.781002 116.883047 
L 232.914162 116.883047 
L 233.010096 115.163902 
L 233.094273 115.163902 
L 233.196939 114.132414 
L 233.435212 114.132414 
L 233.484679 113.444756 
L 233.877544 113.444756 
L 233.877544 113.100927 
L 234.006909 113.100927 
L 234.006909 112.757098 
L 234.251076 112.757098 
L 234.251076 112.413269 
L 234.628399 112.413269 
L 234.733619 111.381782 
L 234.857398 111.381782 
L 234.857398 111.037953 
L 234.974977 111.037953 
L 234.974977 110.694124 
L 235.153599 110.694124 
L 235.225707 110.006466 
L 235.287446 110.006466 
L 235.287446 109.662637 
L 235.438609 109.662637 
L 235.438609 109.318808 
L 235.694672 109.318808 
L 235.718276 108.63115 
L 235.884376 108.63115 
L 235.884376 108.287321 
L 236.029115 108.287321 
L 236.10991 107.599663 
L 236.300054 107.599663 
L 236.300054 107.255834 
L 236.419074 107.255834 
L 236.428517 106.568176 
L 236.545076 106.568176 
L 236.601254 105.536689 
L 236.657649 105.536689 
L 236.657649 105.19286 
L 236.931637 105.19286 
L 236.937352 104.505202 
L 237.060686 104.505202 
L 237.060686 104.161373 
L 237.396784 104.161373 
L 237.480015 103.473715 
L 237.530529 103.473715 
L 237.530529 103.129886 
L 237.693599 103.129886 
L 237.771658 102.442228 
L 237.811913 102.442228 
L 237.811913 102.098399 
L 237.938199 102.098399 
L 237.970657 101.410741 
L 238.129204 101.410741 
L 238.230637 100.379254 
L 238.256744 100.379254 
L 238.303451 99.347767 
L 238.368075 99.347767 
L 238.368075 99.003938 
L 238.661046 99.003938 
L 238.662101 98.31628 
L 238.892457 98.31628 
L 238.892457 97.972451 
L 239.133119 97.972451 
L 239.183342 96.940964 
L 239.283917 96.940964 
L 239.329532 95.909477 
L 239.641511 95.909477 
L 239.641511 95.565648 
L 239.756924 95.565648 
L 239.756924 95.221819 
L 240.085864 95.221819 
L 240.085864 94.87799 
L 240.249931 94.87799 
L 240.320633 93.502674 
L 240.364873 93.502674 
L 240.364873 93.158845 
L 240.507495 93.158845 
L 240.507495 92.815016 
L 240.803041 92.815016 
L 240.890156 92.127357 
L 240.947915 92.127357 
L 240.947915 91.783528 
L 241.160636 91.783528 
L 241.160636 91.439699 
L 241.304069 91.439699 
L 241.332929 90.752041 
L 241.444643 90.752041 
L 241.554417 90.064383 
L 241.663795 90.064383 
L 241.663795 89.720554 
L 242.021736 89.720554 
L 242.098672 89.032896 
L 242.206591 89.032896 
L 242.313395 88.001409 
L 242.389929 88.001409 
L 242.462795 86.969922 
L 242.526789 86.969922 
L 242.565146 86.282264 
L 242.687648 86.282264 
L 242.797026 85.250777 
L 242.901244 85.250777 
L 242.901244 84.906948 
L 243.039508 84.906948 
L 243.039508 84.563119 
L 243.159038 84.563119 
L 243.159038 84.21929 
L 243.580927 84.21929 
L 243.580927 83.875461 
L 243.832519 83.875461 
L 243.87148 82.843974 
L 244.037059 82.843974 
L 244.102141 82.156316 
L 244.25532 82.156316 
L 244.307561 81.468658 
L 244.393326 81.468658 
L 244.483449 80.781 
L 244.512729 80.781 
L 244.583522 80.093342 
L 244.910146 80.093342 
L 244.977972 79.405684 
L 245.252898 79.405684 
L 245.252898 79.061855 
L 245.373791 79.061855 
L 245.373791 78.718026 
L 245.534444 78.718026 
L 245.534444 78.374197 
L 245.870542 78.374197 
L 245.890774 77.686539 
L 246.170157 77.686539 
L 246.270643 76.655052 
L 246.296792 76.655052 
L 246.296792 76.311223 
L 246.451754 76.311223 
L 246.506255 75.623565 
L 246.86038 75.623565 
L 246.944912 74.592078 
L 246.981369 74.592078 
L 247.037863 73.90442 
L 247.373626 73.90442 
L 247.475765 72.872933 
L 247.847434 72.872933 
L 247.847434 72.529104 
L 247.961834 72.529104 
L 247.961834 72.185275 
L 248.499727 72.185275 
L 248.583746 71.497617 
L 248.685338 71.497617 
L 248.685338 71.153788 
L 249.003891 71.153788 
L 249.053186 70.466129 
L 249.253803 70.466129 
L 249.253803 70.1223 
L 249.434149 70.1223 
L 249.480959 69.434642 
L 249.650484 69.434642 
L 249.650484 69.090813 
L 250.224365 69.090813 
L 250.224365 68.746984 
L 250.582672 68.746984 
L 250.582672 68.403155 
L 251.007288 68.403155 
L 251.007288 68.059326 
L 251.467881 68.059326 
L 251.467881 67.715497 
L 251.863712 67.715497 
L 251.863712 67.371668 
L 251.987753 67.371668 
L 251.987753 67.027839 
L 252.40803 67.027839 
L 252.40803 66.68401 
L 252.753341 66.68401 
L 252.753341 66.340181 
L 253.014469 66.340181 
L 253.014469 65.996352 
L 253.128819 65.996352 
L 253.128819 65.652523 
L 253.506878 65.652523 
L 253.506878 65.308694 
L 254.26205 65.308694 
L 254.26205 64.964865 
L 254.528758 64.964865 
L 254.528758 64.621036 
L 254.962454 64.621036 
L 255.008007 63.933378 
L 255.125818 63.933378 
L 255.125818 63.589549 
L 255.279002 63.589549 
L 255.279002 63.24572 
L 255.976221 63.24572 
L 255.976221 62.901891 
L 256.154613 62.901891 
L 256.154613 62.558062 
L 256.468958 62.558062 
L 256.502138 61.870404 
L 256.805616 61.870404 
L 256.805616 61.526575 
L 257.124744 61.526575 
L 257.124744 61.182746 
L 257.282399 61.182746 
L 257.282399 60.838917 
L 258.262864 60.838917 
L 258.266451 60.151259 
L 258.375829 60.151259 
L 258.375829 59.80743 
L 259.431783 59.80743 
L 259.431783 59.463601 
L 259.781989 59.463601 
L 259.781989 59.119772 
L 260.1696 59.119772 
L 260.180766 58.432114 
L 261.36597 58.432114 
L 261.36597 58.088285 
L 261.821074 58.088285 
L 261.821074 57.744456 
L 263.008826 57.744456 
L 263.095025 57.056798 
L 263.824471 57.056798 
L 263.824471 56.712969 
L 264.804936 56.712969 
L 264.804936 56.36914 
L 266.310194 56.36914 
L 266.324061 55.681482 
L 268.543779 55.681482 
L 268.543779 55.337653 
L 268.668329 55.337653 
L 268.668329 54.993824 
L 268.930096 54.993824 
L 268.930096 54.649995 
L 269.840853 54.649995 
L 269.840853 54.306166 
L 270.727588 54.306166 
L 270.836967 53.274679 
L 271.184761 53.274679 
L 271.184761 52.93085 
L 271.326321 52.93085 
L 271.326321 52.587021 
L 271.89292 52.587021 
L 271.89292 52.243192 
L 272.52449 52.243192 
L 272.52449 51.899363 
L 272.893833 51.899363 
L 272.982254 50.867876 
L 273.091632 50.867876 
L 273.091632 50.524047 
L 274.147586 50.524047 
L 274.147586 50.180218 
L 274.758074 50.180218 
L 274.758074 49.836389 
L 275.305927 49.836389 
L 275.305927 49.49256 
L 275.469964 49.49256 
L 275.469964 49.14873 
L 275.678717 49.14873 
L 275.762578 48.461072 
L 276.502429 48.461072 
L 276.502429 48.117243 
L 277.540617 48.117243 
L 277.63566 47.085756 
L 277.724629 47.085756 
L 277.799444 46.398098 
L 277.912301 46.398098 
L 277.912301 46.054269 
L 279.340217 46.054269 
L 279.449596 45.366611 
L 280.033028 45.366611 
L 280.076302 44.335124 
L 280.435798 44.335124 
L 280.528582 43.303637 
L 280.694843 43.303637 
L 280.694843 42.959808 
L 281.661813 42.959808 
L 281.661813 42.615979 
L 282.30199 42.615979 
L 282.309886 41.928321 
L 282.815571 41.928321 
L 282.815571 41.584492 
L 283.440287 41.584492 
L 283.442842 40.896834 
L 284.082593 40.896834 
L 284.082593 40.553005 
L 284.556656 40.553005 
L 284.576073 39.865347 
L 285.092429 39.865347 
L 285.092429 39.521518 
L 285.673871 39.521518 
L 285.673871 39.177689 
L 288.456414 39.177689 
L 288.456414 38.83386 
L 290.914619 38.83386 
L 290.914619 38.490031 
L 293.214463 38.490031 
L 293.214463 38.146202 
L 293.797857 38.146202 
L 293.797857 37.802373 
L 297.240616 37.802373 
L 297.240616 37.458544 
L 300.154876 37.458544 
L 300.154876 37.114715 
L 305.373607 37.114715 
L 305.390856 36.427057 
L 305.675601 36.427057 
L 305.675601 36.083228 
L 307.930266 36.083228 
L 307.930266 35.739399 
L 309.701754 35.739399 
L 309.701754 35.39557 
L 309.86528 35.39557 
L 309.86528 35.051741 
L 311.956419 35.051741 
L 311.956419 34.707912 
L 312.49713 34.707912 
L 312.49713 34.364083 
L 312.616013 34.364083 
L 312.616013 34.020254 
L 312.750138 34.020254 
L 312.750138 33.676425 
L 314.28823 33.676425 
L 314.28823 33.332596 
L 314.516424 33.332596 
L 314.516424 32.988767 
L 314.870679 32.988767 
L 314.870679 32.644938 
L 315.570562 32.644938 
L 315.570562 32.301109 
L 316.473084 32.301109 
L 316.473084 31.95728 
L 318.314382 31.95728 
L 318.388517 31.269622 
L 318.785934 31.269622 
L 318.850015 30.581964 
L 320.489362 30.581964 
L 320.489362 30.238135 
L 321.228642 30.238135 
L 321.228642 29.894306 
L 321.640119 29.894306 
L 321.640119 29.550477 
L 322.26487 29.550477 
L 322.26487 29.206648 
L 324.284164 29.206648 
L 324.284164 28.862819 
L 325.338302 28.862819 
L 325.338302 28.51899 
L 325.666216 28.51899 
L 325.738673 27.831332 
L 326.002315 27.831332 
L 326.063634 27.143673 
L 326.240825 27.143673 
L 326.240825 26.799844 
L 326.399732 26.799844 
L 326.399732 26.456015 
L 326.871904 26.456015 
L 326.871904 26.112186 
L 328.617755 26.112186 
L 328.617755 25.768357 
L 328.795251 25.768357 
L 328.795251 25.424528 
L 329.001605 25.424528 
L 329.001605 25.080699 
L 329.852008 25.080699 
L 329.852008 24.73687 
L 330.257102 24.73687 
L 330.257102 24.393041 
L 331.000532 24.393041 
L 331.000532 24.049212 
L 331.407859 24.049212 
L 331.407859 23.705383 
L 333.751235 23.705383 
L 333.751235 23.361554 
L 335.696862 23.361554 
L 335.696862 23.017725 
L 336.279305 23.017725 
L 336.279305 22.673896 
L 336.615403 22.673896 
L 336.615403 22.330067 
L 337.129708 22.330067 
L 337.129708 21.986238 
L 337.465806 21.986238 
L 337.465806 21.642409 
L 337.700259 21.642409 
L 337.700259 21.29858 
L 338.278231 21.29858 
L 338.278231 20.954751 
L 338.562991 20.954751 
L 338.614329 20.267093 
L 338.680724 20.267093 
L 338.680724 19.923264 
L 340.199848 19.923264 
L 340.199848 19.579435 
L 342.450707 19.579435 
L 342.450707 19.235606 
L 342.974561 19.235606 
L 342.974561 18.891777 
L 343.310659 18.891777 
L 343.310659 18.547948 
L 344.977958 18.547948 
L 344.977958 18.204119 
L 345.314056 18.204119 
L 345.314056 17.86029 
L 345.958423 17.86029 
L 345.958423 17.516461 
L 346.294522 17.516461 
L 346.294522 17.172632 
L 347.477548 17.172632 
L 347.477548 16.828803 
L 347.813646 16.828803 
L 347.813646 16.484974 
L 349.92799 16.484974 
L 349.92799 16.141145 
L 351.725483 16.141145 
L 351.834861 15.453487 
L 352.065937 15.453487 
L 352.065937 15.109658 
L 352.890814 15.109658 
L 352.890814 14.765829 
L 354.299521 14.765829 
L 354.299521 14.422 
L 354.911844 14.422 
L 354.911844 14.078171 
L 356.467858 14.078171 
L 356.467858 13.734342 
L 357.082064 13.734342 
L 357.16651 13.046684 
L 361.833677 13.046684 
L 361.833677 12.702855 
L 363.299884 12.702855 
L 363.299884 12.359026 
L 363.524473 12.359026 
L 363.524473 12.015197 
L 364.067261 12.015197 
L 364.067261 11.671368 
L 366.849804 11.671368 
L 366.849804 11.327539 
L 386.673495 11.327539 
L 386.673495 10.98371 
L 390.699648 10.98371 
L 390.699648 10.639881 
L 393.613908 10.639881 
L 393.613908 10.296052 
L 435.909738 10.296052 
L 435.909738 9.952223 
L 453.192 9.952223 
L 453.192 9.952223 
" clip-path="url(#p5e98d8c536)" style="fill: none; stroke: #00bfbf; stroke-width: 3; stroke-linecap: square"/>
   </g>
   <g id="line2d_48">
    <path clip-path="url(#p5e98d8c536)" style="fill: none; stroke: #00bfbf; stroke-width: 3; stroke-linecap: square"/>
   </g>
   <g id="line2d_49">
    <path d="M 34.16 204.548701 
L 164.237793 204.548701 
L 164.237793 204.107096 
L 168.979467 204.107096 
L 168.979467 203.66549 
L 169.133627 203.66549 
L 169.133627 203.223885 
L 169.627548 203.223885 
L 169.627548 202.782279 
L 170.904216 202.782279 
L 170.904216 202.340674 
L 175.645889 202.340674 
L 175.647908 201.457463 
L 176.249186 201.457463 
L 176.29397 200.574252 
L 180.389581 200.574252 
L 180.389581 200.132647 
L 181.037662 200.132647 
L 181.037662 199.691042 
L 183.393103 199.691042 
L 183.393103 199.249436 
L 189.486299 199.249436 
L 189.486299 198.807831 
L 190.508662 198.807831 
L 190.508662 198.366225 
L 191.754769 198.366225 
L 191.754769 197.92462 
L 192.969772 197.92462 
L 192.969772 197.483015 
L 195.189001 197.483015 
L 195.189001 197.041409 
L 196.601858 197.041409 
L 196.601858 196.599804 
L 196.839665 196.599804 
L 196.839665 196.158199 
L 197.61204 196.158199 
L 197.61204 195.716593 
L 198.374671 195.716593 
L 198.421192 194.833382 
L 198.743083 194.833382 
L 198.743083 194.391777 
L 199.262704 194.391777 
L 199.262704 193.950172 
L 199.553447 193.950172 
L 199.636194 192.625355 
L 199.768439 192.625355 
L 199.768439 192.18375 
L 199.900806 192.18375 
L 199.900806 191.742145 
L 200.157318 191.742145 
L 200.224958 190.858934 
L 200.37273 190.858934 
L 200.466561 189.534118 
L 200.618996 189.534118 
L 200.618996 189.092512 
L 200.79771 189.092512 
L 200.79771 188.650907 
L 200.937698 188.650907 
L 200.942072 187.767696 
L 201.166121 187.767696 
L 201.166121 187.326091 
L 201.283005 187.326091 
L 201.283005 186.884485 
L 201.419103 186.884485 
L 201.419103 186.44288 
L 202.12581 186.44288 
L 202.199863 185.559669 
L 202.26966 185.559669 
L 202.26966 185.118064 
L 202.592735 185.118064 
L 202.592735 184.676458 
L 202.824133 184.676458 
L 202.8896 183.793248 
L 202.954109 183.793248 
L 202.954109 183.351642 
L 203.164884 183.351642 
L 203.164884 182.910037 
L 203.32252 182.910037 
L 203.32252 182.468431 
L 203.776474 182.468431 
L 203.850527 181.143615 
L 203.991549 181.143615 
L 203.991549 180.70201 
L 204.127741 180.70201 
L 204.232687 178.935588 
L 204.295121 178.935588 
L 204.379886 177.169167 
L 204.474796 177.169167 
L 204.496153 176.285956 
L 204.64248 176.285956 
L 204.64248 175.84435 
L 204.898992 175.84435 
L 204.998125 174.519534 
L 205.033212 174.519534 
L 205.114404 172.753113 
L 205.263568 172.753113 
L 205.31148 171.428297 
L 205.385533 171.428297 
L 205.385533 170.986691 
L 205.547072 170.986691 
L 205.566989 170.10348 
L 205.679371 170.10348 
L 205.762485 168.337059 
L 205.896556 168.337059 
L 205.896556 167.895453 
L 206.009802 167.895453 
L 206.024679 167.012243 
L 206.219631 167.012243 
L 206.327452 165.687426 
L 206.378214 165.687426 
L 206.389481 164.804216 
L 206.672759 164.804216 
L 206.672759 164.36261 
L 206.89138 164.36261 
L 206.914232 163.4794 
L 207.068716 163.4794 
L 207.103459 162.596189 
L 207.40337 162.596189 
L 207.477423 161.712978 
L 208.101692 161.712978 
L 208.101692 161.271373 
L 208.449238 161.271373 
L 208.449238 160.829767 
L 208.733222 160.829767 
L 208.831003 159.504951 
L 208.936077 159.504951 
L 208.936077 159.063346 
L 209.066917 159.063346 
L 209.066917 158.62174 
L 209.381303 158.62174 
L 209.381303 158.180135 
L 209.584158 158.180135 
L 209.584158 157.738529 
L 209.714998 157.738529 
L 209.774885 156.855319 
L 210.308663 156.855319 
L 210.308663 156.413713 
L 210.422966 156.413713 
L 210.422966 155.972108 
L 210.541128 155.972108 
L 210.541128 155.530502 
L 210.899109 155.530502 
L 210.956744 154.647292 
L 211.635072 154.647292 
L 211.635072 154.205686 
L 211.7791 154.205686 
L 211.847151 153.322475 
L 213.3455 153.322475 
L 213.3455 152.88087 
L 215.497425 152.88087 
L 215.497425 152.439265 
L 215.642801 152.439265 
L 215.642801 151.997659 
L 216.522792 151.997659 
L 216.522792 151.556054 
L 220.241117 151.556054 
L 220.241117 151.114449 
L 220.648957 151.114449 
L 220.648957 150.672843 
L 221.328192 150.672843 
L 221.328192 150.231238 
L 226.742152 150.231238 
L 226.742152 149.789632 
L 227.070423 149.789632 
L 227.125347 148.906422 
L 227.417782 148.906422 
L 227.421388 148.023211 
L 227.622979 148.023211 
L 227.674294 147.14 
L 227.889706 147.14 
L 227.889706 146.698395 
L 228.285426 146.698395 
L 228.34035 145.815184 
L 228.454673 145.815184 
L 228.454673 145.373578 
L 228.632785 145.373578 
L 228.632785 144.931973 
L 228.799981 144.931973 
L 228.889297 144.048762 
L 229.104709 144.048762 
L 229.104709 143.607157 
L 229.273643 143.607157 
L 229.273643 143.165551 
L 229.48596 143.165551 
L 229.48596 142.723946 
L 229.669676 142.723946 
L 229.669676 142.282341 
L 230.014984 142.282341 
L 230.014984 141.840735 
L 230.808649 141.840735 
L 230.882652 140.957525 
L 231.17706 140.957525 
L 231.17706 140.515919 
L 231.390942 140.515919 
L 231.390942 140.074314 
L 231.508525 140.074314 
L 231.508525 139.632708 
L 231.711379 139.632708 
L 231.711379 139.191103 
L 231.84222 139.191103 
L 231.908999 138.307892 
L 232.097896 138.307892 
L 232.097896 137.866287 
L 232.324892 137.866287 
L 232.324892 137.424681 
L 232.448472 137.424681 
L 232.550187 136.541471 
L 232.723528 136.541471 
L 232.80385 135.65826 
L 232.900539 135.65826 
L 232.926382 134.775049 
L 233.057223 134.775049 
L 233.083965 133.891838 
L 233.305691 133.891838 
L 233.305691 133.450233 
L 233.76519 133.450233 
L 233.81398 132.567022 
L 234.065398 132.567022 
L 234.09231 131.683811 
L 234.298968 131.683811 
L 234.298968 131.242206 
L 234.482547 131.242206 
L 234.520934 130.358995 
L 234.747931 130.358995 
L 234.747931 129.91739 
L 234.871511 129.91739 
L 234.915955 129.034179 
L 235.226889 129.034179 
L 235.23903 128.150968 
L 235.46209 128.150968 
L 235.540612 127.267757 
L 235.595536 127.267757 
L 235.595536 126.826152 
L 235.752691 126.826152 
L 235.807615 125.501336 
L 235.887971 125.501336 
L 235.970379 124.618125 
L 236.10005 124.618125 
L 236.144483 123.734914 
L 236.312647 123.734914 
L 236.422769 121.968493 
L 236.496782 121.968493 
L 236.571974 119.760466 
L 236.635723 119.760466 
L 236.677333 118.877255 
L 236.820937 118.877255 
L 236.924862 117.552439 
L 237.02791 117.552439 
L 237.136941 116.227623 
L 237.144012 116.227623 
L 237.144012 115.786017 
L 237.27017 115.786017 
L 237.27017 115.344412 
L 237.383288 115.344412 
L 237.482249 114.461201 
L 237.52789 114.461201 
L 237.52789 114.019596 
L 237.66406 114.019596 
L 237.754887 113.136385 
L 237.819461 113.136385 
L 237.893514 111.369963 
L 238.077962 111.369963 
L 238.077962 110.928358 
L 238.201543 110.928358 
L 238.233845 110.045147 
L 238.327751 110.045147 
L 238.401804 109.161936 
L 238.517783 109.161936 
L 238.55692 108.278725 
L 238.671748 108.278725 
L 238.671748 107.83712 
L 239.026073 107.83712 
L 239.108757 106.512304 
L 239.261701 106.512304 
L 239.370831 105.187488 
L 239.385281 105.187488 
L 239.459334 104.304277 
L 239.522305 104.304277 
L 239.603264 102.537855 
L 239.733027 102.537855 
L 239.814712 101.213039 
L 239.84538 101.213039 
L 239.8957 100.329828 
L 239.960023 100.329828 
L 239.978714 99.446618 
L 240.083604 99.446618 
L 240.190793 97.238591 
L 240.312409 97.238591 
L 240.393647 95.913775 
L 240.428332 95.913775 
L 240.524487 94.147353 
L 240.775691 94.147353 
L 240.775691 93.705748 
L 240.932591 93.705748 
L 241.032202 91.056115 
L 241.103172 91.056115 
L 241.148969 90.172904 
L 241.232455 90.172904 
L 241.277898 88.848088 
L 241.465509 88.848088 
L 241.554154 87.964877 
L 241.727441 87.964877 
L 241.812582 86.640061 
L 242.157889 86.640061 
L 242.172462 85.75685 
L 242.399459 85.75685 
L 242.399459 85.315245 
L 242.523039 85.315245 
L 242.523039 84.87364 
L 242.878417 84.87364 
L 242.878417 84.432034 
L 243.163204 84.432034 
L 243.202853 83.548824 
L 243.485795 83.548824 
L 243.485795 83.107218 
L 243.986442 83.107218 
L 243.986442 82.665613 
L 244.146656 82.665613 
L 244.20158 80.457586 
L 244.320137 80.457586 
L 244.330483 79.574375 
L 244.494016 79.574375 
L 244.494016 79.13277 
L 244.750527 79.13277 
L 244.750527 78.691164 
L 244.866433 78.691164 
L 244.96594 77.807953 
L 245.028105 77.807953 
L 245.069288 76.924743 
L 245.200128 76.924743 
L 245.200128 76.483137 
L 245.530907 76.483137 
L 245.561883 75.599926 
L 245.876214 75.599926 
L 245.908096 74.27511 
L 246.441874 74.27511 
L 246.48639 73.3919 
L 247.621032 73.3919 
L 247.621032 72.950294 
L 247.906896 72.950294 
L 247.946545 72.067083 
L 248.584758 72.067083 
L 248.584758 71.625478 
L 248.787613 71.625478 
L 248.787613 71.183873 
L 248.918453 71.183873 
L 248.918453 70.742267 
L 249.074175 70.742267 
L 249.074175 70.300662 
L 249.626421 70.300662 
L 249.626421 69.859056 
L 250.013986 69.859056 
L 250.013986 69.417451 
L 250.160199 69.417451 
L 250.160199 68.975846 
L 252.364724 68.975846 
L 252.364724 68.53424 
L 254.408553 68.53424 
L 254.408553 68.092635 
L 256.107181 68.092635 
L 256.107181 67.651029 
L 260.501749 67.651029 
L 260.501749 67.209424 
L 261.919938 67.209424 
L 261.919938 66.767819 
L 263.31663 66.767819 
L 263.31663 66.326213 
L 263.824919 66.326213 
L 263.824919 65.884608 
L 264.531873 65.884608 
L 264.531873 65.443002 
L 264.75887 65.443002 
L 264.75887 65.001397 
L 264.88245 65.001397 
L 264.88245 64.559792 
L 265.237828 64.559792 
L 265.237828 64.118186 
L 266.526288 64.118186 
L 266.526288 63.676581 
L 269.798201 63.676581 
L 269.853125 62.79337 
L 270.14556 62.79337 
L 270.14556 62.351765 
L 270.402072 62.351765 
L 270.402072 61.910159 
L 270.617484 61.910159 
L 270.617484 61.468554 
L 271.182451 61.468554 
L 271.182451 61.026949 
L 271.527759 61.026949 
L 271.527759 60.585343 
L 271.812435 60.585343 
L 271.91765 58.377316 
L 272.159795 58.377316 
L 272.199444 57.494105 
L 272.416306 57.494105 
L 272.455955 56.610895 
L 272.631719 56.610895 
L 272.671368 55.727684 
L 272.850824 55.727684 
L 272.850824 55.286078 
L 272.979714 55.286078 
L 273.034638 54.402868 
L 273.196686 54.402868 
L 273.236335 53.519657 
L 273.327073 53.519657 
L 273.327073 53.078051 
L 273.541993 53.078051 
L 273.583585 51.753235 
L 273.798997 51.753235 
L 273.798997 51.31163 
L 274.236303 51.31163 
L 274.340689 50.428419 
L 274.363965 50.428419 
L 274.439157 49.545208 
L 274.569998 49.545208 
L 274.569998 49.103603 
L 274.709272 49.103603 
L 274.709272 48.661998 
L 275.277965 48.661998 
L 275.277965 48.220392 
L 275.811743 48.220392 
L 275.811743 47.778787 
L 276.250537 47.778787 
L 276.325187 46.012365 
L 276.453392 46.012365 
L 276.497088 44.687549 
L 276.584232 44.687549 
L 276.626685 42.921127 
L 276.874134 42.921127 
L 276.874134 42.479522 
L 277.089546 42.479522 
L 277.089546 42.037917 
L 277.245392 42.037917 
L 277.347645 39.82989 
L 277.417816 39.82989 
L 277.417816 39.388284 
L 277.62067 39.388284 
L 277.67072 38.063468 
L 277.751511 38.063468 
L 277.825978 37.180257 
L 277.865627 37.180257 
L 277.865627 36.738652 
L 277.999821 36.738652 
L 277.999821 36.297047 
L 278.459479 36.297047 
L 278.459479 35.855441 
L 278.854459 35.855441 
L 278.928512 34.97223 
L 278.993256 34.97223 
L 278.993256 34.530625 
L 279.552781 34.530625 
L 279.552781 34.08902 
L 280.708365 34.08902 
L 280.708365 33.647414 
L 280.911219 33.647414 
L 280.911219 33.205809 
L 281.04206 33.205809 
L 281.04206 32.764203 
L 281.750027 32.764203 
L 281.750027 32.322598 
L 281.992217 32.322598 
L 281.992217 31.880993 
L 282.283805 31.880993 
L 282.283805 31.439387 
L 304.351628 31.439387 
L 304.351628 30.997782 
L 305.991714 30.997782 
L 305.991714 30.556176 
L 310.386281 30.556176 
L 310.386281 30.114571 
L 453.192 30.114571 
L 453.192 30.114571 
" clip-path="url(#p5e98d8c536)" style="fill: none; stroke: #bf00bf; stroke-width: 3; stroke-linecap: square"/>
   </g>
   <g id="line2d_50">
    <path clip-path="url(#p5e98d8c536)" style="fill: none; stroke: #bf00bf; stroke-width: 3; stroke-linecap: square"/>
   </g>
   <g id="line2d_51">
    <path d="M 34.16 189.852187 
L 169.549011 189.852187 
L 169.549011 189.397802 
L 171.489982 189.397802 
L 171.544472 188.489032 
L 171.793691 188.489032 
L 171.793691 188.034647 
L 171.993623 188.034647 
L 172.068693 187.125877 
L 174.82098 187.125877 
L 174.82098 186.671492 
L 184.994711 186.671492 
L 184.994711 186.217107 
L 191.007087 186.217107 
L 191.007087 185.762722 
L 200.593138 185.762722 
L 200.647628 184.853952 
L 200.896847 184.853952 
L 200.896847 184.399567 
L 201.096779 184.399567 
L 201.171849 183.490798 
L 201.719211 183.490798 
L 201.773702 182.582028 
L 202.003627 182.582028 
L 202.058117 181.218873 
L 202.222852 181.218873 
L 202.307335 179.855718 
L 202.507267 179.855718 
L 202.582338 178.946948 
L 203.924136 178.946948 
L 203.924136 178.492563 
L 204.57038 178.492563 
L 204.62487 177.583793 
L 204.723043 177.583793 
L 204.832467 176.675023 
L 204.874089 176.675023 
L 204.874089 176.220638 
L 205.05021 176.220638 
L 205.149091 174.857483 
L 205.334625 174.857483 
L 205.412364 173.948713 
L 205.466854 173.948713 
L 205.466854 173.494328 
L 205.655197 173.494328 
L 205.716073 172.131173 
L 205.872128 172.131173 
L 205.958906 170.313633 
L 205.991075 170.313633 
L 206.098457 168.496094 
L 206.131172 168.496094 
L 206.233909 166.224169 
L 206.245537 166.224169 
L 206.302091 163.952244 
L 206.375769 163.952244 
L 206.450839 162.589089 
L 206.505224 162.589089 
L 206.613919 159.862779 
L 206.636452 159.862779 
L 206.717331 158.045239 
L 206.749178 158.045239 
L 206.824249 156.682084 
L 206.876611 156.682084 
L 206.931101 155.773314 
L 207.024924 155.773314 
L 207.116054 153.955775 
L 207.18032 153.955775 
L 207.18032 153.50139 
L 207.324361 153.50139 
L 207.380252 152.59262 
L 207.455322 152.59262 
L 207.524768 151.68385 
L 207.696855 151.68385 
L 207.762178 150.77508 
L 207.901378 150.77508 
L 207.994012 149.86631 
L 208.463544 149.86631 
L 208.463544 149.411925 
L 208.743362 149.411925 
L 208.774423 148.503155 
L 208.876349 148.503155 
L 208.986195 147.594385 
L 209.039349 147.594385 
L 209.039349 147.14 
L 209.203126 147.14 
L 209.203126 146.685615 
L 209.40768 146.685615 
L 209.40768 146.23123 
L 209.544689 146.23123 
L 209.576536 145.32246 
L 209.886995 145.32246 
L 209.966219 144.41369 
L 210.207609 144.41369 
L 210.252652 143.50492 
L 220.168743 143.50492 
L 220.168743 143.050535 
L 221.997294 143.050535 
L 221.997294 142.59615 
L 222.561754 142.59615 
L 222.561754 142.141765 
L 226.181119 142.141765 
L 226.181119 141.68738 
L 228.00967 141.68738 
L 228.00967 141.232995 
L 228.57413 141.232995 
L 228.57413 140.77861 
L 232.042507 140.77861 
L 232.042507 140.324225 
L 232.354335 140.324225 
L 232.376867 139.415456 
L 232.832361 139.415456 
L 232.832361 138.961071 
L 233.217128 138.961071 
L 233.265184 138.052301 
L 233.502593 138.052301 
L 233.551488 136.689146 
L 233.734428 136.689146 
L 233.734428 136.234761 
L 233.935623 136.234761 
L 234.006982 135.325991 
L 234.203959 135.325991 
L 234.203959 134.871606 
L 234.439805 134.871606 
L 234.514839 133.962836 
L 234.616765 133.962836 
L 234.677214 133.054066 
L 234.779765 133.054066 
L 234.779765 132.599681 
L 234.909049 132.599681 
L 234.909049 132.145296 
L 235.061696 132.145296 
L 235.169814 131.236526 
L 235.201613 131.236526 
L 235.201613 130.782141 
L 235.346111 130.782141 
L 235.37858 129.418986 
L 235.627411 129.418986 
L 235.68946 128.510216 
L 235.791386 128.510216 
L 235.893987 127.147061 
L 235.954386 127.147061 
L 235.993068 126.238291 
L 236.12808 126.238291 
L 236.164703 125.329521 
L 236.295887 125.329521 
L 236.327686 124.420752 
L 236.427517 124.420752 
L 236.53259 123.057597 
L 236.580302 123.057597 
L 236.612101 122.148827 
L 236.772025 122.148827 
L 236.86695 119.876902 
L 236.909694 119.876902 
L 236.964184 118.513747 
L 237.167689 118.513747 
L 237.254153 116.696207 
L 237.290777 116.696207 
L 237.322444 115.787437 
L 237.413335 115.787437 
L 237.488405 114.878667 
L 237.538568 114.878667 
L 237.575192 113.515512 
L 237.650418 113.515512 
L 237.755266 112.606742 
L 237.782255 112.606742 
L 237.838006 111.243587 
L 237.912865 111.243587 
L 237.992676 108.971663 
L 238.085964 108.971663 
L 238.085964 108.517278 
L 238.210499 108.517278 
L 238.285896 107.154123 
L 238.360966 107.154123 
L 238.440273 106.245353 
L 238.652545 106.245353 
L 238.754849 104.882198 
L 238.873095 104.882198 
L 238.964372 103.973428 
L 238.986905 103.973428 
L 239.004922 102.610273 
L 239.106847 102.610273 
L 239.214613 100.338348 
L 239.269847 100.338348 
L 239.342339 98.975193 
L 239.419167 98.975193 
L 239.442399 98.066423 
L 239.556176 98.066423 
L 239.588022 97.157653 
L 239.769112 97.157653 
L 239.875221 95.794498 
L 239.98904 95.794498 
L 240.020839 94.885729 
L 240.105322 94.885729 
L 240.180762 92.159419 
L 240.219096 92.159419 
L 240.321755 89.433109 
L 240.340375 89.433109 
L 240.448804 86.706799 
L 240.480603 86.706799 
L 240.48315 85.798029 
L 240.611096 85.798029 
L 240.685157 83.071719 
L 240.777252 83.071719 
L 240.854012 79.43664 
L 240.947306 79.43664 
L 241.013936 77.6191 
L 241.070861 77.6191 
L 241.124876 75.80156 
L 241.190139 75.80156 
L 241.275415 73.07525 
L 241.389802 73.07525 
L 241.489576 69.44017 
L 241.544432 69.44017 
L 241.648248 66.71386 
L 241.679256 66.71386 
L 241.785256 63.987551 
L 241.817103 63.987551 
L 241.911061 62.624396 
L 242.013676 62.624396 
L 242.079916 60.352471 
L 242.237448 60.352471 
L 242.283555 59.443701 
L 242.411553 59.443701 
L 242.483208 57.171776 
L 242.603105 57.171776 
L 242.71099 56.263006 
L 242.794087 56.263006 
L 242.896013 55.354236 
L 243.059013 55.354236 
L 243.083483 54.445466 
L 243.507808 54.445466 
L 243.507808 53.991081 
L 243.812474 53.991081 
L 243.906659 52.627926 
L 244.072267 52.627926 
L 244.116183 51.719156 
L 244.272316 51.719156 
L 244.316115 50.810386 
L 244.391186 50.810386 
L 244.391186 50.356002 
L 245.140251 50.356002 
L 245.140251 49.901617 
L 246.968803 49.901617 
L 246.968803 49.447232 
L 247.143473 49.447232 
L 247.143473 48.992847 
L 247.526071 48.992847 
L 247.533262 48.084077 
L 251.339687 48.084077 
L 251.339687 47.629692 
L 255.786074 47.629692 
L 255.786074 47.175307 
L 257.352062 47.175307 
L 257.352062 46.720922 
L 261.79845 46.720922 
L 261.79845 46.266537 
L 270.252179 46.266537 
L 270.252179 45.812152 
L 271.12474 45.812152 
L 271.12474 45.357767 
L 271.48637 45.357767 
L 271.518169 44.448997 
L 271.678093 44.448997 
L 271.678093 43.994612 
L 272.108426 43.994612 
L 272.108426 43.540227 
L 272.358931 43.540227 
L 272.444636 42.177072 
L 272.481259 42.177072 
L 272.550654 41.268302 
L 272.744073 41.268302 
L 272.8502 40.359532 
L 272.980988 40.359532 
L 272.980988 39.905147 
L 273.116566 39.905147 
L 273.116566 39.450762 
L 273.266487 39.450762 
L 273.35382 38.087607 
L 273.616634 38.087607 
L 273.616634 37.633222 
L 273.989127 37.633222 
L 273.989127 37.178837 
L 274.441108 37.178837 
L 274.441108 36.724452 
L 276.311195 36.724452 
L 276.311195 36.270067 
L 277.154959 36.270067 
L 277.154959 35.815682 
L 277.296588 35.815682 
L 277.296588 35.361298 
L 277.75657 35.361298 
L 277.75657 34.906913 
L 278.38915 34.906913 
L 278.420949 33.998143 
L 278.580873 33.998143 
L 278.580873 33.543758 
L 278.874398 33.543758 
L 278.874398 33.089373 
L 279.011207 33.089373 
L 279.011207 32.634988 
L 279.347416 32.634988 
L 279.38404 31.726218 
L 279.646853 31.726218 
L 279.646853 31.271833 
L 279.876525 31.271833 
L 279.876525 30.817448 
L 280.019347 30.817448 
L 280.019347 30.363063 
L 280.757583 30.363063 
L 280.757583 29.908678 
L 281.545735 29.908678 
L 281.545735 29.454293 
L 453.192 29.454293 
L 453.192 29.454293 
" clip-path="url(#p5e98d8c536)" style="fill: none; stroke: #ff0000; stroke-width: 3; stroke-linecap: square"/>
   </g>
   <g id="line2d_52">
    <path clip-path="url(#p5e98d8c536)" style="fill: none; stroke: #ff0000; stroke-width: 3; stroke-linecap: square"/>
   </g>
   <g id="line2d_53">
    <path d="M 243.676 291.28 
L 243.676 3 
" clip-path="url(#p5e98d8c536)" style="fill: none; stroke: #000000; stroke-width: 1.5; stroke-linecap: square"/>
   </g>
   <g id="line2d_54">
    <path d="M 34.16 147.14 
L 453.192 147.14 
" clip-path="url(#p5e98d8c536)" style="fill: none; stroke-dasharray: 2,3.3; stroke-dashoffset: 0; stroke: #000000; stroke-width: 2"/>
   </g>
   <g id="patch_3">
    <path d="M 34.16 291.28 
L 34.16 3 
" style="fill: none; stroke: #000000; stroke-width: 0.8; stroke-linejoin: miter; stroke-linecap: square"/>
   </g>
   <g id="patch_4">
    <path d="M 453.192 291.28 
L 453.192 3 
" style="fill: none; stroke: #000000; stroke-width: 0.8; stroke-linejoin: miter; stroke-linecap: square"/>
   </g>
   <g id="patch_5">
    <path d="M 34.16 291.28 
L 453.192 291.28 
" style="fill: none; stroke: #000000; stroke-width: 0.8; stroke-linejoin: miter; stroke-linecap: square"/>
   </g>
   <g id="patch_6">
    <path d="M 34.16 3 
L 453.192 3 
" style="fill: none; stroke: #000000; stroke-width: 0.8; stroke-linejoin: miter; stroke-linecap: square"/>
   </g>
   <g id="text_6">
    <!-- f15-f19,20-D -->
    <g transform="translate(318.19261 285.5144)scale(0.2 -0.2)">
     <defs>
      <path id="DejaVuSans-35" d="M 691 4666 
L 3169 4666 
L 3169 4134 
L 1269 4134 
L 1269 2991 
Q 1406 3038 1543 3061 
Q 1681 3084 1819 3084 
Q 2600 3084 3056 2656 
Q 3513 2228 3513 1497 
Q 3513 744 3044 326 
Q 2575 -91 1722 -91 
Q 1428 -91 1123 -41 
Q 819 9 494 109 
L 494 744 
Q 775 591 1075 516 
Q 1375 441 1709 441 
Q 2250 441 2565 725 
Q 2881 1009 2881 1497 
Q 2881 1984 2565 2268 
Q 2250 2553 1709 2553 
Q 1456 2553 1204 2497 
Q 953 2441 691 2322 
L 691 4666 
z
" transform="scale(0.015625)"/>
      <path id="DejaVuSans-39" d="M 703 97 
L 703 672 
Q 941 559 1184 500 
Q 1428 441 1663 441 
Q 2288 441 2617 861 
Q 2947 1281 2994 2138 
Q 2813 1869 2534 1725 
Q 2256 1581 1919 1581 
Q 1219 1581 811 2004 
Q 403 2428 403 3163 
Q 403 3881 828 4315 
Q 1253 4750 1959 4750 
Q 2769 4750 3195 4129 
Q 3622 3509 3622 2328 
Q 3622 1225 3098 567 
Q 2575 -91 1691 -91 
Q 1453 -91 1209 -44 
Q 966 3 703 97 
z
M 1959 2075 
Q 2384 2075 2632 2365 
Q 2881 2656 2881 3163 
Q 2881 3666 2632 3958 
Q 2384 4250 1959 4250 
Q 1534 4250 1286 3958 
Q 1038 3666 1038 3163 
Q 1038 2656 1286 2365 
Q 1534 2075 1959 2075 
z
" transform="scale(0.015625)"/>
      <path id="DejaVuSans-2c" d="M 750 794 
L 1409 794 
L 1409 256 
L 897 -744 
L 494 -744 
L 750 256 
L 750 794 
z
" transform="scale(0.015625)"/>
      <path id="DejaVuSans-32" d="M 1228 531 
L 3431 531 
L 3431 0 
L 469 0 
L 469 531 
Q 828 903 1448 1529 
Q 2069 2156 2228 2338 
Q 2531 2678 2651 2914 
Q 2772 3150 2772 3378 
Q 2772 3750 2511 3984 
Q 2250 4219 1831 4219 
Q 1534 4219 1204 4116 
Q 875 4013 500 3803 
L 500 4441 
Q 881 4594 1212 4672 
Q 1544 4750 1819 4750 
Q 2544 4750 2975 4387 
Q 3406 4025 3406 3419 
Q 3406 3131 3298 2873 
Q 3191 2616 2906 2266 
Q 2828 2175 2409 1742 
Q 1991 1309 1228 531 
z
" transform="scale(0.015625)"/>
      <path id="DejaVuSans-44" d="M 1259 4147 
L 1259 519 
L 2022 519 
Q 2988 519 3436 956 
Q 3884 1394 3884 2338 
Q 3884 3275 3436 3711 
Q 2988 4147 2022 4147 
L 1259 4147 
z
M 628 4666 
L 1925 4666 
Q 3281 4666 3915 4102 
Q 4550 3538 4550 2338 
Q 4550 1131 3912 565 
Q 3275 0 1925 0 
L 628 0 
L 628 4666 
z
" transform="scale(0.015625)"/>
     </defs>
     <use xlink:href="#DejaVuSans-66"/>
     <use xlink:href="#DejaVuSans-31" x="35.205078"/>
     <use xlink:href="#DejaVuSans-35" x="98.828125"/>
     <use xlink:href="#DejaVuSans-2d" x="162.451172"/>
     <use xlink:href="#DejaVuSans-66" x="198.535156"/>
     <use xlink:href="#DejaVuSans-31" x="233.740234"/>
     <use xlink:href="#DejaVuSans-39" x="297.363281"/>
     <use xlink:href="#DejaVuSans-2c" x="360.986328"/>
     <use xlink:href="#DejaVuSans-32" x="392.773438"/>
     <use xlink:href="#DejaVuSans-30" x="456.396484"/>
     <use xlink:href="#DejaVuSans-2d" x="520.019531"/>
     <use xlink:href="#DejaVuSans-44" x="556.103516"/>
    </g>
   </g>
   <g id="text_7">
    <!-- v2.6.3.10 -->
    <g style="fill: #808080" transform="translate(220.043187 286.317512)scale(0.1 -0.1)">
     <defs>
      <path id="DejaVuSans-2e" d="M 684 794 
L 1344 794 
L 1344 0 
L 684 0 
L 684 794 
z
" transform="scale(0.015625)"/>
      <path id="DejaVuSans-36" d="M 2113 2584 
Q 1688 2584 1439 2293 
Q 1191 2003 1191 1497 
Q 1191 994 1439 701 
Q 1688 409 2113 409 
Q 2538 409 2786 701 
Q 3034 994 3034 1497 
Q 3034 2003 2786 2293 
Q 2538 2584 2113 2584 
z
M 3366 4563 
L 3366 3988 
Q 3128 4100 2886 4159 
Q 2644 4219 2406 4219 
Q 1781 4219 1451 3797 
Q 1122 3375 1075 2522 
Q 1259 2794 1537 2939 
Q 1816 3084 2150 3084 
Q 2853 3084 3261 2657 
Q 3669 2231 3669 1497 
Q 3669 778 3244 343 
Q 2819 -91 2113 -91 
Q 1303 -91 875 529 
Q 447 1150 447 2328 
Q 447 3434 972 4092 
Q 1497 4750 2381 4750 
Q 2619 4750 2861 4703 
Q 3103 4656 3366 4563 
z
" transform="scale(0.015625)"/>
      <path id="DejaVuSans-33" d="M 2597 2516 
Q 3050 2419 3304 2112 
Q 3559 1806 3559 1356 
Q 3559 666 3084 287 
Q 2609 -91 1734 -91 
Q 1441 -91 1130 -33 
Q 819 25 488 141 
L 488 750 
Q 750 597 1062 519 
Q 1375 441 1716 441 
Q 2309 441 2620 675 
Q 2931 909 2931 1356 
Q 2931 1769 2642 2001 
Q 2353 2234 1838 2234 
L 1294 2234 
L 1294 2753 
L 1863 2753 
Q 2328 2753 2575 2939 
Q 2822 3125 2822 3475 
Q 2822 3834 2567 4026 
Q 2313 4219 1838 4219 
Q 1578 4219 1281 4162 
Q 984 4106 628 3988 
L 628 4550 
Q 988 4650 1302 4700 
Q 1616 4750 1894 4750 
Q 2613 4750 3031 4423 
Q 3450 4097 3450 3541 
Q 3450 3153 3228 2886 
Q 3006 2619 2597 2516 
z
" transform="scale(0.015625)"/>
     </defs>
     <use xlink:href="#DejaVuSans-76"/>
     <use xlink:href="#DejaVuSans-32" x="59.179688"/>
     <use xlink:href="#DejaVuSans-2e" x="122.802734"/>
     <use xlink:href="#DejaVuSans-36" x="154.589844"/>
     <use xlink:href="#DejaVuSans-2e" x="218.212891"/>
     <use xlink:href="#DejaVuSans-33" x="250"/>
     <use xlink:href="#DejaVuSans-2e" x="313.623047"/>
     <use xlink:href="#DejaVuSans-31" x="345.410156"/>
     <use xlink:href="#DejaVuSans-30" x="409.033203"/>
    </g>
   </g>
   <g id="legend_1">
    <g id="patch_7">
     <path d="M 48.16 136.425 
L 177.381875 136.425 
Q 181.381875 136.425 181.381875 132.425 
L 181.381875 17 
Q 181.381875 13 177.381875 13 
L 48.16 13 
Q 44.16 13 44.16 17 
L 44.16 132.425 
Q 44.16 136.425 48.16 136.425 
z
" style="fill: #ffffff; opacity: 0.2; stroke: #cccccc; stroke-linejoin: miter"/>
    </g>
    <g id="line2d_55">
     <path d="M 52.16 29.196875 
L 72.16 29.196875 
L 92.16 29.196875 
" style="fill: none; stroke: #000000; stroke-width: 3; stroke-linecap: square"/>
    </g>
    <g id="text_8">
     <!-- 1: 5/5 -->
     <g transform="translate(108.16 36.196875)scale(0.2 -0.2)">
      <defs>
       <path id="DejaVuSans-3a" d="M 750 794 
L 1409 794 
L 1409 0 
L 750 0 
L 750 794 
z
M 750 3309 
L 1409 3309 
L 1409 2516 
L 750 2516 
L 750 3309 
z
" transform="scale(0.015625)"/>
       <path id="DejaVuSans-2f" d="M 1625 4666 
L 2156 4666 
L 531 -594 
L 0 -594 
L 1625 4666 
z
" transform="scale(0.015625)"/>
      </defs>
      <use xlink:href="#DejaVuSans-31"/>
      <use xlink:href="#DejaVuSans-3a" x="63.623047"/>
      <use xlink:href="#DejaVuSans-20" x="97.314453"/>
      <use xlink:href="#DejaVuSans-35" x="129.101562"/>
      <use xlink:href="#DejaVuSans-2f" x="192.724609"/>
      <use xlink:href="#DejaVuSans-35" x="226.416016"/>
     </g>
    </g>
    <g id="line2d_56">
     <path d="M 52.16 58.553125 
L 72.16 58.553125 
L 92.16 58.553125 
" style="fill: none; stroke: #00bfbf; stroke-width: 3; stroke-linecap: square"/>
    </g>
    <g id="text_9">
     <!-- -1: 5/4 -->
     <g transform="translate(108.16 65.553125)scale(0.2 -0.2)">
      <defs>
       <path id="DejaVuSans-34" d="M 2419 4116 
L 825 1625 
L 2419 1625 
L 2419 4116 
z
M 2253 4666 
L 3047 4666 
L 3047 1625 
L 3713 1625 
L 3713 1100 
L 3047 1100 
L 3047 0 
L 2419 0 
L 2419 1100 
L 313 1100 
L 313 1709 
L 2253 4666 
z
" transform="scale(0.015625)"/>
      </defs>
      <use xlink:href="#DejaVuSans-2d"/>
      <use xlink:href="#DejaVuSans-31" x="36.083984"/>
      <use xlink:href="#DejaVuSans-3a" x="99.707031"/>
      <use xlink:href="#DejaVuSans-20" x="133.398438"/>
      <use xlink:href="#DejaVuSans-35" x="165.185547"/>
      <use xlink:href="#DejaVuSans-2f" x="228.808594"/>
      <use xlink:href="#DejaVuSans-34" x="262.5"/>
     </g>
    </g>
    <g id="line2d_57">
     <path d="M 52.16 87.909375 
L 72.16 87.909375 
L 92.16 87.909375 
" style="fill: none; stroke: #bf00bf; stroke-width: 3; stroke-linecap: square"/>
    </g>
    <g id="text_10">
     <!-- -4: 4/3 -->
     <g transform="translate(108.16 94.909375)scale(0.2 -0.2)">
      <use xlink:href="#DejaVuSans-2d"/>
      <use xlink:href="#DejaVuSans-34" x="36.083984"/>
      <use xlink:href="#DejaVuSans-3a" x="99.707031"/>
      <use xlink:href="#DejaVuSans-20" x="133.398438"/>
      <use xlink:href="#DejaVuSans-34" x="165.185547"/>
      <use xlink:href="#DejaVuSans-2f" x="228.808594"/>
      <use xlink:href="#DejaVuSans-33" x="262.5"/>
     </g>
    </g>
    <g id="line2d_58">
     <path d="M 52.16 117.265625 
L 72.16 117.265625 
L 92.16 117.265625 
" style="fill: none; stroke: #ff0000; stroke-width: 3; stroke-linecap: square"/>
    </g>
    <g id="text_11">
     <!-- -8: 4/3 -->
     <g transform="translate(108.16 124.265625)scale(0.2 -0.2)">
      <defs>
       <path id="DejaVuSans-38" d="M 2034 2216 
Q 1584 2216 1326 1975 
Q 1069 1734 1069 1313 
Q 1069 891 1326 650 
Q 1584 409 2034 409 
Q 2484 409 2743 651 
Q 3003 894 3003 1313 
Q 3003 1734 2745 1975 
Q 2488 2216 2034 2216 
z
M 1403 2484 
Q 997 2584 770 2862 
Q 544 3141 544 3541 
Q 544 4100 942 4425 
Q 1341 4750 2034 4750 
Q 2731 4750 3128 4425 
Q 3525 4100 3525 3541 
Q 3525 3141 3298 2862 
Q 3072 2584 2669 2484 
Q 3125 2378 3379 2068 
Q 3634 1759 3634 1313 
Q 3634 634 3220 271 
Q 2806 -91 2034 -91 
Q 1263 -91 848 271 
Q 434 634 434 1313 
Q 434 1759 690 2068 
Q 947 2378 1403 2484 
z
M 1172 3481 
Q 1172 3119 1398 2916 
Q 1625 2713 2034 2713 
Q 2441 2713 2670 2916 
Q 2900 3119 2900 3481 
Q 2900 3844 2670 4047 
Q 2441 4250 2034 4250 
Q 1625 4250 1398 4047 
Q 1172 3844 1172 3481 
z
" transform="scale(0.015625)"/>
      </defs>
      <use xlink:href="#DejaVuSans-2d"/>
      <use xlink:href="#DejaVuSans-38" x="36.083984"/>
      <use xlink:href="#DejaVuSans-3a" x="99.707031"/>
      <use xlink:href="#DejaVuSans-20" x="133.398438"/>
      <use xlink:href="#DejaVuSans-34" x="165.185547"/>
      <use xlink:href="#DejaVuSans-2f" x="228.808594"/>
      <use xlink:href="#DejaVuSans-33" x="262.5"/>
     </g>
    </g>
   </g>
  </g>
 </g>
 <defs>
  <clipPath id="p5e98d8c536">
   <rect x="34.16" y="3" width="419.032" height="288.28"/>
  </clipPath>
 </defs>
</svg>
