<?xml version="1.0" encoding="utf-8" standalone="no"?>
<!DOCTYPE svg PUBLIC "-//W3C//DTD SVG 1.1//EN"
  "http://www.w3.org/Graphics/SVG/1.1/DTD/svg11.dtd">
<svg xmlns:xlink="http://www.w3.org/1999/xlink" width="460.8pt" height="345.6pt" viewBox="0 0 460.8 345.6" xmlns="http://www.w3.org/2000/svg" version="1.1">
 <metadata>
  <rdf:RDF xmlns:dc="http://purl.org/dc/elements/1.1/" xmlns:cc="http://creativecommons.org/ns#" xmlns:rdf="http://www.w3.org/1999/02/22-rdf-syntax-ns#">
   <cc:Work>
    <dc:type rdf:resource="http://purl.org/dc/dcmitype/StillImage"/>
    <dc:date>2023-05-09T15:04:35.593005</dc:date>
    <dc:format>image/svg+xml</dc:format>
    <dc:creator>
     <cc:Agent>
      <dc:title>Matplotlib v3.5.2, https://matplotlib.org/</dc:title>
     </cc:Agent>
    </dc:creator>
   </cc:Work>
  </rdf:RDF>
 </metadata>
 <defs>
  <style type="text/css">*{stroke-linejoin: round; stroke-linecap: butt}</style>
 </defs>
 <g id="figure_1">
  <g id="patch_1">
   <path d="M 0 345.6 
L 460.8 345.6 
L 460.8 0 
L 0 0 
z
" style="fill: #ffffff"/>
  </g>
  <g id="axes_1">
   <g id="patch_2">
    <path d="M 34.16 291.28 
L 453.192 291.28 
L 453.192 3 
L 34.16 3 
z
" style="fill: #ffffff"/>
   </g>
   <g id="matplotlib.axis_1">
    <g id="xtick_1">
     <g id="line2d_1">
      <path d="M 78.054321 291.28 
L 78.054321 3 
" clip-path="url(#p9e7c7a50cb)" style="fill: none; stroke: #b0b0b0; stroke-width: 0.8; stroke-linecap: square"/>
     </g>
     <g id="line2d_2">
      <defs>
       <path id="m869f43aeef" d="M 0 0 
L 0 3.5 
" style="stroke: #000000; stroke-width: 0.8"/>
      </defs>
      <g>
       <use xlink:href="#m869f43aeef" x="78.054321" y="291.28" style="stroke: #000000; stroke-width: 0.8"/>
      </g>
     </g>
     <g id="text_1">
      <!-- -1 -->
      <g transform="translate(68.084008 313.476875)scale(0.2 -0.2)">
       <defs>
        <path id="DejaVuSans-2d" d="M 313 2009 
L 1997 2009 
L 1997 1497 
L 313 1497 
L 313 2009 
z
" transform="scale(0.015625)"/>
        <path id="DejaVuSans-31" d="M 794 531 
L 1825 531 
L 1825 4091 
L 703 3866 
L 703 4441 
L 1819 4666 
L 2450 4666 
L 2450 531 
L 3481 531 
L 3481 0 
L 794 0 
L 794 531 
z
" transform="scale(0.015625)"/>
       </defs>
       <use xlink:href="#DejaVuSans-2d"/>
       <use xlink:href="#DejaVuSans-31" x="36.083984"/>
      </g>
     </g>
    </g>
    <g id="xtick_2">
     <g id="line2d_3">
      <path d="M 243.676 291.28 
L 243.676 3 
" clip-path="url(#p9e7c7a50cb)" style="fill: none; stroke: #b0b0b0; stroke-width: 0.8; stroke-linecap: square"/>
     </g>
     <g id="line2d_4">
      <g>
       <use xlink:href="#m869f43aeef" x="243.676" y="291.28" style="stroke: #000000; stroke-width: 0.8"/>
      </g>
     </g>
     <g id="text_2">
      <!-- 0 -->
      <g transform="translate(237.3135 313.476875)scale(0.2 -0.2)">
       <defs>
        <path id="DejaVuSans-30" d="M 2034 4250 
Q 1547 4250 1301 3770 
Q 1056 3291 1056 2328 
Q 1056 1369 1301 889 
Q 1547 409 2034 409 
Q 2525 409 2770 889 
Q 3016 1369 3016 2328 
Q 3016 3291 2770 3770 
Q 2525 4250 2034 4250 
z
M 2034 4750 
Q 2819 4750 3233 4129 
Q 3647 3509 3647 2328 
Q 3647 1150 3233 529 
Q 2819 -91 2034 -91 
Q 1250 -91 836 529 
Q 422 1150 422 2328 
Q 422 3509 836 4129 
Q 1250 4750 2034 4750 
z
" transform="scale(0.015625)"/>
       </defs>
       <use xlink:href="#DejaVuSans-30"/>
      </g>
     </g>
    </g>
    <g id="xtick_3">
     <g id="line2d_5">
      <path d="M 409.297679 291.28 
L 409.297679 3 
" clip-path="url(#p9e7c7a50cb)" style="fill: none; stroke: #b0b0b0; stroke-width: 0.8; stroke-linecap: square"/>
     </g>
     <g id="line2d_6">
      <g>
       <use xlink:href="#m869f43aeef" x="409.297679" y="291.28" style="stroke: #000000; stroke-width: 0.8"/>
      </g>
     </g>
     <g id="text_3">
      <!-- 1 -->
      <g transform="translate(402.935179 313.476875)scale(0.2 -0.2)">
       <use xlink:href="#DejaVuSans-31"/>
      </g>
     </g>
    </g>
    <g id="xtick_4">
     <g id="line2d_7">
      <defs>
       <path id="m61865a22f1" d="M 0 0 
L 0 2 
" style="stroke: #000000; stroke-width: 0.6"/>
      </defs>
      <g>
       <use xlink:href="#m61865a22f1" x="41.311358" y="291.28" style="stroke: #000000; stroke-width: 0.6"/>
      </g>
     </g>
    </g>
    <g id="xtick_5">
     <g id="line2d_8">
      <g>
       <use xlink:href="#m61865a22f1" x="52.399198" y="291.28" style="stroke: #000000; stroke-width: 0.6"/>
      </g>
     </g>
    </g>
    <g id="xtick_6">
     <g id="line2d_9">
      <g>
       <use xlink:href="#m61865a22f1" x="62.003922" y="291.28" style="stroke: #000000; stroke-width: 0.6"/>
      </g>
     </g>
    </g>
    <g id="xtick_7">
     <g id="line2d_10">
      <g>
       <use xlink:href="#m61865a22f1" x="70.475888" y="291.28" style="stroke: #000000; stroke-width: 0.6"/>
      </g>
     </g>
    </g>
    <g id="xtick_8">
     <g id="line2d_11">
      <g>
       <use xlink:href="#m61865a22f1" x="127.911414" y="291.28" style="stroke: #000000; stroke-width: 0.6"/>
      </g>
     </g>
    </g>
    <g id="xtick_9">
     <g id="line2d_12">
      <g>
       <use xlink:href="#m61865a22f1" x="157.075944" y="291.28" style="stroke: #000000; stroke-width: 0.6"/>
      </g>
     </g>
    </g>
    <g id="xtick_10">
     <g id="line2d_13">
      <g>
       <use xlink:href="#m61865a22f1" x="177.768508" y="291.28" style="stroke: #000000; stroke-width: 0.6"/>
      </g>
     </g>
    </g>
    <g id="xtick_11">
     <g id="line2d_14">
      <g>
       <use xlink:href="#m61865a22f1" x="193.818907" y="291.28" style="stroke: #000000; stroke-width: 0.6"/>
      </g>
     </g>
    </g>
    <g id="xtick_12">
     <g id="line2d_15">
      <g>
       <use xlink:href="#m61865a22f1" x="206.933038" y="291.28" style="stroke: #000000; stroke-width: 0.6"/>
      </g>
     </g>
    </g>
    <g id="xtick_13">
     <g id="line2d_16">
      <g>
       <use xlink:href="#m61865a22f1" x="218.020877" y="291.28" style="stroke: #000000; stroke-width: 0.6"/>
      </g>
     </g>
    </g>
    <g id="xtick_14">
     <g id="line2d_17">
      <g>
       <use xlink:href="#m61865a22f1" x="227.625601" y="291.28" style="stroke: #000000; stroke-width: 0.6"/>
      </g>
     </g>
    </g>
    <g id="xtick_15">
     <g id="line2d_18">
      <g>
       <use xlink:href="#m61865a22f1" x="236.097568" y="291.28" style="stroke: #000000; stroke-width: 0.6"/>
      </g>
     </g>
    </g>
    <g id="xtick_16">
     <g id="line2d_19">
      <g>
       <use xlink:href="#m61865a22f1" x="293.533093" y="291.28" style="stroke: #000000; stroke-width: 0.6"/>
      </g>
     </g>
    </g>
    <g id="xtick_17">
     <g id="line2d_20">
      <g>
       <use xlink:href="#m61865a22f1" x="322.697623" y="291.28" style="stroke: #000000; stroke-width: 0.6"/>
      </g>
     </g>
    </g>
    <g id="xtick_18">
     <g id="line2d_21">
      <g>
       <use xlink:href="#m61865a22f1" x="343.390187" y="291.28" style="stroke: #000000; stroke-width: 0.6"/>
      </g>
     </g>
    </g>
    <g id="xtick_19">
     <g id="line2d_22">
      <g>
       <use xlink:href="#m61865a22f1" x="359.440586" y="291.28" style="stroke: #000000; stroke-width: 0.6"/>
      </g>
     </g>
    </g>
    <g id="xtick_20">
     <g id="line2d_23">
      <g>
       <use xlink:href="#m61865a22f1" x="372.554717" y="291.28" style="stroke: #000000; stroke-width: 0.6"/>
      </g>
     </g>
    </g>
    <g id="xtick_21">
     <g id="line2d_24">
      <g>
       <use xlink:href="#m61865a22f1" x="383.642556" y="291.28" style="stroke: #000000; stroke-width: 0.6"/>
      </g>
     </g>
    </g>
    <g id="xtick_22">
     <g id="line2d_25">
      <g>
       <use xlink:href="#m61865a22f1" x="393.24728" y="291.28" style="stroke: #000000; stroke-width: 0.6"/>
      </g>
     </g>
    </g>
    <g id="xtick_23">
     <g id="line2d_26">
      <g>
       <use xlink:href="#m61865a22f1" x="401.719247" y="291.28" style="stroke: #000000; stroke-width: 0.6"/>
      </g>
     </g>
    </g>
    <g id="text_4">
     <!-- log10 of FEvals ratio -->
     <g transform="translate(141.371312 336.833125)scale(0.2 -0.2)">
      <defs>
       <path id="DejaVuSans-6c" d="M 603 4863 
L 1178 4863 
L 1178 0 
L 603 0 
L 603 4863 
z
" transform="scale(0.015625)"/>
       <path id="DejaVuSans-6f" d="M 1959 3097 
Q 1497 3097 1228 2736 
Q 959 2375 959 1747 
Q 959 1119 1226 758 
Q 1494 397 1959 397 
Q 2419 397 2687 759 
Q 2956 1122 2956 1747 
Q 2956 2369 2687 2733 
Q 2419 3097 1959 3097 
z
M 1959 3584 
Q 2709 3584 3137 3096 
Q 3566 2609 3566 1747 
Q 3566 888 3137 398 
Q 2709 -91 1959 -91 
Q 1206 -91 779 398 
Q 353 888 353 1747 
Q 353 2609 779 3096 
Q 1206 3584 1959 3584 
z
" transform="scale(0.015625)"/>
       <path id="DejaVuSans-67" d="M 2906 1791 
Q 2906 2416 2648 2759 
Q 2391 3103 1925 3103 
Q 1463 3103 1205 2759 
Q 947 2416 947 1791 
Q 947 1169 1205 825 
Q 1463 481 1925 481 
Q 2391 481 2648 825 
Q 2906 1169 2906 1791 
z
M 3481 434 
Q 3481 -459 3084 -895 
Q 2688 -1331 1869 -1331 
Q 1566 -1331 1297 -1286 
Q 1028 -1241 775 -1147 
L 775 -588 
Q 1028 -725 1275 -790 
Q 1522 -856 1778 -856 
Q 2344 -856 2625 -561 
Q 2906 -266 2906 331 
L 2906 616 
Q 2728 306 2450 153 
Q 2172 0 1784 0 
Q 1141 0 747 490 
Q 353 981 353 1791 
Q 353 2603 747 3093 
Q 1141 3584 1784 3584 
Q 2172 3584 2450 3431 
Q 2728 3278 2906 2969 
L 2906 3500 
L 3481 3500 
L 3481 434 
z
" transform="scale(0.015625)"/>
       <path id="DejaVuSans-20" transform="scale(0.015625)"/>
       <path id="DejaVuSans-66" d="M 2375 4863 
L 2375 4384 
L 1825 4384 
Q 1516 4384 1395 4259 
Q 1275 4134 1275 3809 
L 1275 3500 
L 2222 3500 
L 2222 3053 
L 1275 3053 
L 1275 0 
L 697 0 
L 697 3053 
L 147 3053 
L 147 3500 
L 697 3500 
L 697 3744 
Q 697 4328 969 4595 
Q 1241 4863 1831 4863 
L 2375 4863 
z
" transform="scale(0.015625)"/>
       <path id="DejaVuSans-46" d="M 628 4666 
L 3309 4666 
L 3309 4134 
L 1259 4134 
L 1259 2759 
L 3109 2759 
L 3109 2228 
L 1259 2228 
L 1259 0 
L 628 0 
L 628 4666 
z
" transform="scale(0.015625)"/>
       <path id="DejaVuSans-45" d="M 628 4666 
L 3578 4666 
L 3578 4134 
L 1259 4134 
L 1259 2753 
L 3481 2753 
L 3481 2222 
L 1259 2222 
L 1259 531 
L 3634 531 
L 3634 0 
L 628 0 
L 628 4666 
z
" transform="scale(0.015625)"/>
       <path id="DejaVuSans-76" d="M 191 3500 
L 800 3500 
L 1894 563 
L 2988 3500 
L 3597 3500 
L 2284 0 
L 1503 0 
L 191 3500 
z
" transform="scale(0.015625)"/>
       <path id="DejaVuSans-61" d="M 2194 1759 
Q 1497 1759 1228 1600 
Q 959 1441 959 1056 
Q 959 750 1161 570 
Q 1363 391 1709 391 
Q 2188 391 2477 730 
Q 2766 1069 2766 1631 
L 2766 1759 
L 2194 1759 
z
M 3341 1997 
L 3341 0 
L 2766 0 
L 2766 531 
Q 2569 213 2275 61 
Q 1981 -91 1556 -91 
Q 1019 -91 701 211 
Q 384 513 384 1019 
Q 384 1609 779 1909 
Q 1175 2209 1959 2209 
L 2766 2209 
L 2766 2266 
Q 2766 2663 2505 2880 
Q 2244 3097 1772 3097 
Q 1472 3097 1187 3025 
Q 903 2953 641 2809 
L 641 3341 
Q 956 3463 1253 3523 
Q 1550 3584 1831 3584 
Q 2591 3584 2966 3190 
Q 3341 2797 3341 1997 
z
" transform="scale(0.015625)"/>
       <path id="DejaVuSans-73" d="M 2834 3397 
L 2834 2853 
Q 2591 2978 2328 3040 
Q 2066 3103 1784 3103 
Q 1356 3103 1142 2972 
Q 928 2841 928 2578 
Q 928 2378 1081 2264 
Q 1234 2150 1697 2047 
L 1894 2003 
Q 2506 1872 2764 1633 
Q 3022 1394 3022 966 
Q 3022 478 2636 193 
Q 2250 -91 1575 -91 
Q 1294 -91 989 -36 
Q 684 19 347 128 
L 347 722 
Q 666 556 975 473 
Q 1284 391 1588 391 
Q 1994 391 2212 530 
Q 2431 669 2431 922 
Q 2431 1156 2273 1281 
Q 2116 1406 1581 1522 
L 1381 1569 
Q 847 1681 609 1914 
Q 372 2147 372 2553 
Q 372 3047 722 3315 
Q 1072 3584 1716 3584 
Q 2034 3584 2315 3537 
Q 2597 3491 2834 3397 
z
" transform="scale(0.015625)"/>
       <path id="DejaVuSans-72" d="M 2631 2963 
Q 2534 3019 2420 3045 
Q 2306 3072 2169 3072 
Q 1681 3072 1420 2755 
Q 1159 2438 1159 1844 
L 1159 0 
L 581 0 
L 581 3500 
L 1159 3500 
L 1159 2956 
Q 1341 3275 1631 3429 
Q 1922 3584 2338 3584 
Q 2397 3584 2469 3576 
Q 2541 3569 2628 3553 
L 2631 2963 
z
" transform="scale(0.015625)"/>
       <path id="DejaVuSans-74" d="M 1172 4494 
L 1172 3500 
L 2356 3500 
L 2356 3053 
L 1172 3053 
L 1172 1153 
Q 1172 725 1289 603 
Q 1406 481 1766 481 
L 2356 481 
L 2356 0 
L 1766 0 
Q 1100 0 847 248 
Q 594 497 594 1153 
L 594 3053 
L 172 3053 
L 172 3500 
L 594 3500 
L 594 4494 
L 1172 4494 
z
" transform="scale(0.015625)"/>
       <path id="DejaVuSans-69" d="M 603 3500 
L 1178 3500 
L 1178 0 
L 603 0 
L 603 3500 
z
M 603 4863 
L 1178 4863 
L 1178 4134 
L 603 4134 
L 603 4863 
z
" transform="scale(0.015625)"/>
      </defs>
      <use xlink:href="#DejaVuSans-6c"/>
      <use xlink:href="#DejaVuSans-6f" x="27.783203"/>
      <use xlink:href="#DejaVuSans-67" x="88.964844"/>
      <use xlink:href="#DejaVuSans-31" x="152.441406"/>
      <use xlink:href="#DejaVuSans-30" x="216.064453"/>
      <use xlink:href="#DejaVuSans-20" x="279.6875"/>
      <use xlink:href="#DejaVuSans-6f" x="311.474609"/>
      <use xlink:href="#DejaVuSans-66" x="372.65625"/>
      <use xlink:href="#DejaVuSans-20" x="407.861328"/>
      <use xlink:href="#DejaVuSans-46" x="439.648438"/>
      <use xlink:href="#DejaVuSans-45" x="497.167969"/>
      <use xlink:href="#DejaVuSans-76" x="560.351562"/>
      <use xlink:href="#DejaVuSans-61" x="619.53125"/>
      <use xlink:href="#DejaVuSans-6c" x="680.810547"/>
      <use xlink:href="#DejaVuSans-73" x="708.59375"/>
      <use xlink:href="#DejaVuSans-20" x="760.693359"/>
      <use xlink:href="#DejaVuSans-72" x="792.480469"/>
      <use xlink:href="#DejaVuSans-61" x="833.59375"/>
      <use xlink:href="#DejaVuSans-74" x="894.873047"/>
      <use xlink:href="#DejaVuSans-69" x="934.082031"/>
      <use xlink:href="#DejaVuSans-6f" x="961.865234"/>
     </g>
    </g>
   </g>
   <g id="matplotlib.axis_2">
    <g id="ytick_1">
     <g id="line2d_27">
      <path d="M 34.16 288.453725 
L 453.192 288.453725 
" clip-path="url(#p9e7c7a50cb)" style="fill: none; stroke: #b0b0b0; stroke-width: 0.8; stroke-linecap: square"/>
     </g>
     <g id="line2d_28">
      <defs>
       <path id="m702d7a6c7c" d="M 0 0 
L -3.5 0 
" style="stroke: #000000; stroke-width: 0.8"/>
      </defs>
      <g>
       <use xlink:href="#m702d7a6c7c" x="34.16" y="288.453725" style="stroke: #000000; stroke-width: 0.8"/>
      </g>
     </g>
    </g>
    <g id="ytick_2">
     <g id="line2d_29">
      <path d="M 34.16 217.796863 
L 453.192 217.796863 
" clip-path="url(#p9e7c7a50cb)" style="fill: none; stroke: #b0b0b0; stroke-width: 0.8; stroke-linecap: square"/>
     </g>
     <g id="line2d_30">
      <g>
       <use xlink:href="#m702d7a6c7c" x="34.16" y="217.796863" style="stroke: #000000; stroke-width: 0.8"/>
      </g>
     </g>
    </g>
    <g id="ytick_3">
     <g id="line2d_31">
      <path d="M 34.16 147.14 
L 453.192 147.14 
" clip-path="url(#p9e7c7a50cb)" style="fill: none; stroke: #b0b0b0; stroke-width: 0.8; stroke-linecap: square"/>
     </g>
     <g id="line2d_32">
      <g>
       <use xlink:href="#m702d7a6c7c" x="34.16" y="147.14" style="stroke: #000000; stroke-width: 0.8"/>
      </g>
     </g>
    </g>
    <g id="ytick_4">
     <g id="line2d_33">
      <path d="M 34.16 76.483137 
L 453.192 76.483137 
" clip-path="url(#p9e7c7a50cb)" style="fill: none; stroke: #b0b0b0; stroke-width: 0.8; stroke-linecap: square"/>
     </g>
     <g id="line2d_34">
      <g>
       <use xlink:href="#m702d7a6c7c" x="34.16" y="76.483137" style="stroke: #000000; stroke-width: 0.8"/>
      </g>
     </g>
    </g>
    <g id="ytick_5">
     <g id="line2d_35">
      <path d="M 34.16 5.826275 
L 453.192 5.826275 
" clip-path="url(#p9e7c7a50cb)" style="fill: none; stroke: #b0b0b0; stroke-width: 0.8; stroke-linecap: square"/>
     </g>
     <g id="line2d_36">
      <g>
       <use xlink:href="#m702d7a6c7c" x="34.16" y="5.826275" style="stroke: #000000; stroke-width: 0.8"/>
      </g>
     </g>
    </g>
    <g id="text_5">
     <!-- proportion of trials -->
     <g transform="translate(19.000625 240.14625)rotate(-90)scale(0.2 -0.2)">
      <defs>
       <path id="DejaVuSans-70" d="M 1159 525 
L 1159 -1331 
L 581 -1331 
L 581 3500 
L 1159 3500 
L 1159 2969 
Q 1341 3281 1617 3432 
Q 1894 3584 2278 3584 
Q 2916 3584 3314 3078 
Q 3713 2572 3713 1747 
Q 3713 922 3314 415 
Q 2916 -91 2278 -91 
Q 1894 -91 1617 61 
Q 1341 213 1159 525 
z
M 3116 1747 
Q 3116 2381 2855 2742 
Q 2594 3103 2138 3103 
Q 1681 3103 1420 2742 
Q 1159 2381 1159 1747 
Q 1159 1113 1420 752 
Q 1681 391 2138 391 
Q 2594 391 2855 752 
Q 3116 1113 3116 1747 
z
" transform="scale(0.015625)"/>
       <path id="DejaVuSans-6e" d="M 3513 2113 
L 3513 0 
L 2938 0 
L 2938 2094 
Q 2938 2591 2744 2837 
Q 2550 3084 2163 3084 
Q 1697 3084 1428 2787 
Q 1159 2491 1159 1978 
L 1159 0 
L 581 0 
L 581 3500 
L 1159 3500 
L 1159 2956 
Q 1366 3272 1645 3428 
Q 1925 3584 2291 3584 
Q 2894 3584 3203 3211 
Q 3513 2838 3513 2113 
z
" transform="scale(0.015625)"/>
      </defs>
      <use xlink:href="#DejaVuSans-70"/>
      <use xlink:href="#DejaVuSans-72" x="63.476562"/>
      <use xlink:href="#DejaVuSans-6f" x="102.339844"/>
      <use xlink:href="#DejaVuSans-70" x="163.521484"/>
      <use xlink:href="#DejaVuSans-6f" x="226.998047"/>
      <use xlink:href="#DejaVuSans-72" x="288.179688"/>
      <use xlink:href="#DejaVuSans-74" x="329.292969"/>
      <use xlink:href="#DejaVuSans-69" x="368.501953"/>
      <use xlink:href="#DejaVuSans-6f" x="396.285156"/>
      <use xlink:href="#DejaVuSans-6e" x="457.466797"/>
      <use xlink:href="#DejaVuSans-20" x="520.845703"/>
      <use xlink:href="#DejaVuSans-6f" x="552.632812"/>
      <use xlink:href="#DejaVuSans-66" x="613.814453"/>
      <use xlink:href="#DejaVuSans-20" x="649.019531"/>
      <use xlink:href="#DejaVuSans-74" x="680.806641"/>
      <use xlink:href="#DejaVuSans-72" x="720.015625"/>
      <use xlink:href="#DejaVuSans-69" x="761.128906"/>
      <use xlink:href="#DejaVuSans-61" x="788.912109"/>
      <use xlink:href="#DejaVuSans-6c" x="850.191406"/>
      <use xlink:href="#DejaVuSans-73" x="877.974609"/>
     </g>
    </g>
   </g>
   <g id="line2d_37">
    <path d="M 34.16 271.977686 
L 136.702212 271.977686 
L 136.702212 271.660839 
L 137.943932 271.660839 
L 137.943932 271.343992 
L 140.457527 271.343992 
L 140.457527 271.027145 
L 141.699247 271.027145 
L 141.699247 270.710298 
L 142.232389 270.710298 
L 142.232389 270.393451 
L 143.474109 270.393451 
L 143.474109 270.076604 
L 172.404887 270.076604 
L 172.404887 269.759757 
L 177.566646 269.759757 
L 177.566646 269.44291 
L 181.254716 269.44291 
L 181.32196 268.809217 
L 182.151773 268.809217 
L 182.151773 268.49237 
L 182.371208 268.49237 
L 182.395368 267.858676 
L 183.096823 267.858676 
L 183.096823 267.541829 
L 183.374962 267.541829 
L 183.374962 267.224982 
L 185.4056 267.224982 
L 185.4056 266.908135 
L 185.559552 266.908135 
L 185.586755 266.274441 
L 186.124554 266.274441 
L 186.150683 265.3239 
L 186.801271 265.3239 
L 186.828475 264.690207 
L 187.130277 264.690207 
L 187.130277 264.37336 
L 187.356889 264.37336 
L 187.364258 263.739666 
L 187.901385 263.739666 
L 187.925545 263.105972 
L 188.598609 263.105972 
L 188.598609 262.789125 
L 188.905139 262.789125 
L 188.905139 262.472278 
L 189.160915 262.472278 
L 189.160915 262.155431 
L 189.506425 262.155431 
L 189.506425 261.838584 
L 190.006927 261.838584 
L 190.006927 261.521737 
L 190.748145 261.521737 
L 190.748145 261.204891 
L 190.935777 261.204891 
L 190.935777 260.888044 
L 191.248646 260.888044 
L 191.248646 260.571197 
L 192.394532 260.571197 
L 192.394532 260.25435 
L 193.743549 260.25435 
L 193.743549 259.937503 
L 193.969859 259.937503 
L 194.045454 259.303809 
L 194.121128 259.303809 
L 194.204552 258.670115 
L 194.401328 258.670115 
L 194.401328 258.353268 
L 194.816941 258.353268 
L 194.816941 258.036421 
L 195.099568 258.036421 
L 195.099568 257.719574 
L 195.580511 257.719574 
L 195.661513 257.085881 
L 196.195027 257.085881 
L 196.214086 256.452187 
L 196.664128 256.452187 
L 196.74261 255.818493 
L 197.594451 255.818493 
L 197.594451 255.501646 
L 197.850443 255.501646 
L 197.959866 254.867952 
L 198.409528 254.867952 
L 198.409528 254.234258 
L 198.89465 254.234258 
L 198.89465 253.917411 
L 199.447476 253.917411 
L 199.463259 253.283718 
L 199.734729 253.283718 
L 199.741732 252.650024 
L 201.083924 252.650024 
L 201.083924 252.333177 
L 201.358864 252.333177 
L 201.358864 252.01633 
L 201.569417 252.01633 
L 201.569417 251.699483 
L 202.873294 251.699483 
L 202.887088 251.065789 
L 203.666769 251.065789 
L 203.666769 250.748942 
L 203.949397 250.748942 
L 203.986308 250.115248 
L 204.212617 250.115248 
L 204.288212 249.481555 
L 204.363887 249.481555 
L 204.363887 249.164708 
L 204.511342 249.164708 
L 204.511342 248.847861 
L 205.336172 248.847861 
L 205.336172 248.531014 
L 205.508663 248.531014 
L 205.508663 248.214167 
L 206.010864 248.214167 
L 206.010864 247.89732 
L 206.302476 247.89732 
L 206.302476 247.580473 
L 206.437785 247.580473 
L 206.44428 246.946779 
L 206.906886 246.946779 
L 206.985368 246.313085 
L 207.398596 246.313085 
L 207.505037 245.679392 
L 207.978253 245.679392 
L 207.978253 245.362545 
L 208.093201 245.362545 
L 208.102634 244.728851 
L 208.213699 244.728851 
L 208.213699 244.412004 
L 208.536607 244.412004 
L 208.591561 243.77831 
L 208.819235 243.77831 
L 208.819235 243.461463 
L 209.137409 243.461463 
L 209.137409 243.144616 
L 209.360698 243.144616 
L 209.38118 242.510922 
L 209.706017 242.510922 
L 209.706017 242.194075 
L 210.419246 242.194075 
L 210.419246 241.877229 
L 210.539881 241.877229 
L 210.539881 241.560382 
L 210.744715 241.560382 
L 210.744715 241.243535 
L 210.980524 241.243535 
L 210.980524 240.926688 
L 211.314118 240.926688 
L 211.314118 240.609841 
L 212.245696 240.609841 
L 212.245696 240.292994 
L 212.511691 240.292994 
L 212.511691 239.976147 
L 212.95064 239.976147 
L 212.95064 239.6593 
L 213.129846 239.6593 
L 213.17695 239.025606 
L 213.252545 239.025606 
L 213.328219 238.391912 
L 213.368898 238.391912 
L 213.461399 237.124525 
L 214.186001 237.124525 
L 214.186001 236.807678 
L 214.406847 236.807678 
L 214.406847 236.490831 
L 215.289084 236.490831 
L 215.289084 236.173984 
L 215.402118 236.173984 
L 215.472893 235.54029 
L 215.871219 235.54029 
L 215.949701 234.906596 
L 216.354866 234.906596 
L 216.453508 234.272902 
L 216.545235 234.272902 
L 216.545235 233.956056 
L 216.813381 233.956056 
L 216.828082 233.322362 
L 217.057534 233.322362 
L 217.100439 232.054974 
L 217.326748 232.054974 
L 217.402343 231.42128 
L 217.478017 231.42128 
L 217.478017 231.104433 
L 217.657953 231.104433 
L 217.657953 230.787586 
L 217.832665 230.787586 
L 217.832665 230.470739 
L 217.992565 230.470739 
L 218.101741 229.837046 
L 218.171659 229.837046 
L 218.275192 229.203352 
L 218.301817 229.203352 
L 218.301817 228.886505 
L 218.437654 228.886505 
L 218.497497 228.252811 
L 218.567812 228.252811 
L 218.67035 227.619117 
L 218.763492 227.619117 
L 218.837137 226.985423 
L 219.030152 226.985423 
L 219.055839 226.35173 
L 219.296147 226.35173 
L 219.301539 225.718036 
L 219.467409 225.718036 
L 219.560249 224.450648 
L 219.590891 224.450648 
L 219.590891 224.133801 
L 219.733404 224.133801 
L 219.830353 223.500107 
L 220.021017 223.500107 
L 220.099499 222.866413 
L 220.14004 222.866413 
L 220.14004 222.549567 
L 220.534519 222.549567 
L 220.534519 222.23272 
L 220.770075 222.23272 
L 220.821581 220.965332 
L 220.970234 220.965332 
L 220.970234 220.648485 
L 221.104209 220.648485 
L 221.207332 219.697944 
L 221.224704 219.697944 
L 221.224704 219.381097 
L 221.666154 219.381097 
L 221.738173 218.11371 
L 221.796977 218.11371 
L 221.85953 217.480016 
L 221.933366 217.480016 
L 221.933366 217.163169 
L 222.062972 217.163169 
L 222.142157 216.212628 
L 222.25154 216.212628 
L 222.357967 215.262087 
L 222.379471 215.262087 
L 222.379471 214.94524 
L 222.509629 214.94524 
L 222.509629 214.628394 
L 222.704102 214.628394 
L 222.705309 213.9947 
L 222.820148 213.9947 
L 222.917356 213.361006 
L 223.062004 213.361006 
L 223.142927 212.727312 
L 223.237964 212.727312 
L 223.237964 212.410465 
L 223.408922 212.410465 
L 223.408922 212.093618 
L 223.565858 212.093618 
L 223.675221 210.826231 
L 224.077824 210.826231 
L 224.077824 210.509384 
L 224.372655 210.509384 
L 224.372655 210.192537 
L 224.63704 210.192537 
L 224.745041 208.291455 
L 224.898757 208.291455 
L 224.898757 207.974608 
L 225.285348 207.974608 
L 225.285348 207.657761 
L 225.416733 207.657761 
L 225.509567 206.707221 
L 225.567975 206.707221 
L 225.579533 206.073527 
L 225.682729 206.073527 
L 225.775213 204.172445 
L 225.806446 204.172445 
L 225.806446 203.855598 
L 225.955596 203.855598 
L 226.004789 202.905058 
L 226.12992 202.905058 
L 226.12992 202.588211 
L 226.242206 202.588211 
L 226.307868 201.63767 
L 226.423985 201.63767 
L 226.451189 201.003976 
L 226.745125 201.003976 
L 226.784321 200.370282 
L 227.146221 200.370282 
L 227.146221 200.053435 
L 227.332612 200.053435 
L 227.350739 199.419741 
L 227.574058 199.419741 
L 227.574058 198.786048 
L 227.812235 198.786048 
L 227.839108 198.152354 
L 228.062575 198.152354 
L 228.151367 196.884966 
L 228.221323 196.884966 
L 228.328571 196.251272 
L 228.422917 196.251272 
L 228.511796 195.617578 
L 228.580468 195.617578 
L 228.612006 194.667038 
L 228.705545 194.667038 
L 228.8041 194.033344 
L 228.849203 194.033344 
L 228.849203 193.716497 
L 229.074693 193.716497 
L 229.074693 193.39965 
L 229.267489 193.39965 
L 229.267489 193.082803 
L 229.501478 193.082803 
L 229.501478 192.765956 
L 229.624546 192.765956 
L 229.659366 192.132262 
L 229.803007 192.132262 
L 229.836615 191.181722 
L 229.974694 191.181722 
L 230.003787 190.548028 
L 230.093277 190.548028 
L 230.184023 189.597487 
L 230.210139 189.597487 
L 230.210139 188.963793 
L 230.329625 188.963793 
L 230.420643 188.013252 
L 230.514687 188.013252 
L 230.514687 187.696406 
L 230.655222 187.696406 
L 230.680661 187.062712 
L 230.797315 187.062712 
L 230.87136 185.795324 
L 230.954878 185.795324 
L 230.961938 185.16163 
L 231.150558 185.16163 
L 231.255751 183.260549 
L 231.279912 183.260549 
L 231.389323 181.359467 
L 231.650371 181.359467 
L 231.732409 180.408926 
L 231.862567 180.408926 
L 231.862567 180.092079 
L 232.037824 180.092079 
L 232.12047 178.824692 
L 232.232301 178.824692 
L 232.270388 177.874151 
L 232.366647 177.874151 
L 232.378761 177.240457 
L 232.58816 177.240457 
L 232.694449 176.289916 
L 232.976964 176.289916 
L 233.050046 174.705682 
L 233.156769 174.705682 
L 233.253927 173.438294 
L 233.292198 173.438294 
L 233.347709 172.8046 
L 233.439396 172.8046 
L 233.509678 171.85406 
L 233.629105 171.85406 
L 233.629105 171.537213 
L 233.807758 171.537213 
L 233.807758 171.220366 
L 233.982894 171.220366 
L 234.029639 169.952978 
L 234.095269 169.952978 
L 234.156148 169.319284 
L 234.21834 169.319284 
L 234.290143 168.051897 
L 234.450038 168.051897 
L 234.547626 167.418203 
L 234.679984 167.418203 
L 234.735442 166.467662 
L 234.860221 166.467662 
L 234.860221 166.150815 
L 234.975055 166.150815 
L 235.055901 165.200274 
L 235.09941 165.200274 
L 235.199582 163.61604 
L 235.256288 163.61604 
L 235.357727 162.665499 
L 235.422994 162.665499 
L 235.439479 162.031805 
L 235.588556 162.031805 
L 235.675922 161.398111 
L 235.700083 161.398111 
L 235.804579 160.447571 
L 235.934279 160.447571 
L 236.025813 159.813877 
L 236.060277 159.813877 
L 236.060277 159.49703 
L 236.179175 159.49703 
L 236.204783 158.863336 
L 236.563126 158.863336 
L 236.602178 158.229642 
L 236.679677 158.229642 
L 236.703677 157.595948 
L 236.887901 157.595948 
L 236.985165 156.645408 
L 237.018059 156.645408 
L 237.092923 155.694867 
L 237.213739 155.694867 
L 237.267164 154.744326 
L 237.547372 154.744326 
L 237.650578 154.110632 
L 237.71752 154.110632 
L 237.808339 152.526398 
L 237.849276 152.526398 
L 237.933406 151.575857 
L 237.973444 151.575857 
L 238.08156 150.308469 
L 238.183651 150.308469 
L 238.209813 149.674775 
L 238.355381 149.674775 
L 238.44666 149.041082 
L 238.629272 149.041082 
L 238.710315 148.090541 
L 238.76734 148.090541 
L 238.829783 147.456847 
L 238.942149 147.456847 
L 239.014872 146.506306 
L 239.121559 146.506306 
L 239.121559 146.189459 
L 239.250761 146.189459 
L 239.251718 145.555765 
L 239.431194 145.555765 
L 239.536961 144.288378 
L 239.671236 144.288378 
L 239.733721 143.02099 
L 239.809057 143.02099 
L 239.909245 141.753602 
L 239.980052 141.753602 
L 240.060738 140.486215 
L 240.329881 140.486215 
L 240.440979 139.535674 
L 240.467951 139.535674 
L 240.546433 137.951439 
L 240.592214 137.951439 
L 240.667288 137.317746 
L 240.715637 137.317746 
L 240.818558 136.367205 
L 240.931059 136.367205 
L 241.033919 135.416664 
L 241.111014 135.416664 
L 241.111014 135.099817 
L 241.297979 135.099817 
L 241.405893 133.832429 
L 241.448931 133.832429 
L 241.48442 133.198736 
L 241.58423 133.198736 
L 241.654265 132.248195 
L 241.819676 132.248195 
L 241.859169 131.614501 
L 241.975137 131.614501 
L 241.975137 131.297654 
L 242.096582 131.297654 
L 242.096582 130.980807 
L 242.477163 130.980807 
L 242.564405 129.396573 
L 242.698473 129.396573 
L 242.746877 128.762879 
L 242.83472 128.762879 
L 242.917138 127.812338 
L 242.971963 127.812338 
L 243.061891 127.178644 
L 243.088897 127.178644 
L 243.180755 126.228103 
L 243.202784 126.228103 
L 243.267081 125.277563 
L 243.359039 125.277563 
L 243.440039 123.693328 
L 243.643483 123.693328 
L 243.687545 122.109093 
L 243.773641 122.109093 
L 243.814285 121.4754 
L 243.894961 121.4754 
L 243.96932 120.524859 
L 244.009965 120.524859 
L 244.092827 119.891165 
L 244.132975 119.891165 
L 244.132975 119.574318 
L 244.397512 119.574318 
L 244.501975 118.940624 
L 244.54262 118.940624 
L 244.620979 117.673237 
L 244.692453 117.673237 
L 244.704989 117.039543 
L 244.859229 117.039543 
L 244.940835 116.089002 
L 244.979877 116.089002 
L 245.070993 115.455308 
L 245.266673 115.455308 
L 245.329603 113.871074 
L 245.59208 113.871074 
L 245.59208 113.554227 
L 245.73502 113.554227 
L 245.844865 112.603686 
L 245.865178 112.603686 
L 245.974233 111.653145 
L 246.006343 111.653145 
L 246.060857 110.702604 
L 246.160688 110.702604 
L 246.236585 110.068911 
L 246.318081 110.068911 
L 246.38111 108.801523 
L 246.553527 108.801523 
L 246.593512 107.850982 
L 246.678271 107.850982 
L 246.778817 106.900441 
L 246.926111 106.900441 
L 247.03253 105.316207 
L 247.157095 105.316207 
L 247.157095 104.99936 
L 247.2688 104.99936 
L 247.309445 104.048819 
L 247.439722 104.048819 
L 247.538273 102.781431 
L 247.629362 102.781431 
L 247.629362 102.464585 
L 248.001667 102.464585 
L 248.09788 101.830891 
L 248.330183 101.830891 
L 248.420263 101.197197 
L 248.566153 101.197197 
L 248.655395 100.246656 
L 248.789008 100.246656 
L 248.789008 99.929809 
L 249.012476 99.929809 
L 249.012476 99.612962 
L 249.1243 99.612962 
L 249.1243 99.296115 
L 249.30457 99.296115 
L 249.40117 98.028728 
L 249.584517 98.028728 
L 249.624638 97.395034 
L 249.769946 97.395034 
L 249.844479 96.76134 
L 249.885124 96.76134 
L 249.934605 95.810799 
L 250.106299 95.810799 
L 250.106299 95.493952 
L 250.291123 95.493952 
L 250.291123 95.177105 
L 250.699265 95.177105 
L 250.706288 94.543412 
L 250.888557 94.543412 
L 250.929202 93.909718 
L 251.141831 93.909718 
L 251.141831 93.592871 
L 251.448035 93.592871 
L 251.532843 92.64233 
L 251.652514 92.64233 
L 251.652514 92.325483 
L 251.766382 92.325483 
L 251.766382 92.008636 
L 251.878823 92.008636 
L 251.954418 91.058095 
L 252.030092 91.058095 
L 252.081886 90.424402 
L 252.185909 90.424402 
L 252.185909 90.107555 
L 252.745387 90.107555 
L 252.745387 89.790708 
L 252.907515 89.790708 
L 252.999906 88.840167 
L 253.071324 88.840167 
L 253.071324 88.52332 
L 253.310932 88.52332 
L 253.351576 87.889626 
L 253.488772 87.889626 
L 253.575044 86.622239 
L 253.909571 86.622239 
L 253.909571 86.305392 
L 254.103991 86.305392 
L 254.103991 85.988545 
L 254.295248 85.988545 
L 254.295248 85.671698 
L 254.573092 85.671698 
L 254.651574 84.721157 
L 254.831752 84.721157 
L 254.831752 84.40431 
L 254.999285 84.40431 
L 254.999285 84.087463 
L 255.24019 84.087463 
L 255.253677 83.453769 
L 255.402469 83.453769 
L 255.402469 83.136923 
L 255.625936 83.136923 
L 255.713406 82.503229 
L 255.759407 82.503229 
L 255.759407 82.186382 
L 255.948851 82.186382 
L 255.948851 81.869535 
L 256.07461 81.869535 
L 256.07461 81.552688 
L 256.803615 81.552688 
L 256.803615 81.235841 
L 256.982299 81.235841 
L 256.982299 80.918994 
L 257.141861 80.918994 
L 257.141861 80.602147 
L 257.372223 80.602147 
L 257.372223 80.2853 
L 257.641367 80.2853 
L 257.676326 79.651606 
L 257.972886 79.651606 
L 257.972886 79.33476 
L 258.199196 79.33476 
L 258.274791 78.701066 
L 258.350465 78.701066 
L 258.350465 78.384219 
L 258.510967 78.384219 
L 258.510967 78.067372 
L 258.715676 78.067372 
L 258.715676 77.750525 
L 259.276716 77.750525 
L 259.276716 77.433678 
L 259.845191 77.433678 
L 259.921959 76.799984 
L 259.979953 76.799984 
L 259.979953 76.483137 
L 260.148269 76.483137 
L 260.223864 75.849443 
L 260.299538 75.849443 
L 260.318407 75.21575 
L 260.424364 75.21575 
L 260.424364 74.898903 
L 260.553853 74.898903 
L 260.553853 74.582056 
L 260.796052 74.582056 
L 260.893465 73.948362 
L 260.971947 73.948362 
L 260.971947 73.631515 
L 261.161706 73.631515 
L 261.161706 73.314668 
L 262.07978 73.314668 
L 262.170323 72.364127 
L 262.373437 72.364127 
L 262.373437 72.04728 
L 262.842538 72.04728 
L 262.92102 71.413587 
L 263.123987 71.413587 
L 263.123987 71.09674 
L 263.320678 71.09674 
L 263.364072 70.463046 
L 263.692596 70.463046 
L 263.740784 69.829352 
L 264.028853 69.829352 
L 264.028853 69.512505 
L 264.21144 69.512505 
L 264.21144 69.195658 
L 264.37145 69.195658 
L 264.37145 68.878811 
L 264.983611 68.878811 
L 265.080548 67.92827 
L 265.306857 67.92827 
L 265.382452 67.294577 
L 265.458127 67.294577 
L 265.458127 66.97773 
L 265.641669 66.97773 
L 265.641669 66.660883 
L 265.766708 66.660883 
L 265.766708 66.344036 
L 266.257678 66.344036 
L 266.257678 66.027189 
L 267.036691 66.027189 
L 267.116425 65.393495 
L 267.532025 65.393495 
L 267.532025 65.076648 
L 268.001126 65.076648 
L 268.079608 64.442954 
L 268.733637 64.442954 
L 268.733637 64.126107 
L 268.893373 64.126107 
L 268.959946 63.175567 
L 269.035541 63.175567 
L 269.111215 62.225026 
L 269.187441 62.225026 
L 269.187441 61.908179 
L 269.459329 61.908179 
L 269.459329 61.591332 
L 270.102743 61.591332 
L 270.190725 60.957638 
L 270.231649 60.957638 
L 270.329053 60.323944 
L 270.404648 60.323944 
L 270.480322 59.690251 
L 270.531813 59.690251 
L 270.531813 59.373404 
L 270.800257 59.373404 
L 270.800257 59.056557 
L 270.98491 59.056557 
L 270.98491 58.73971 
L 271.185114 58.73971 
L 271.185114 58.422863 
L 271.641693 58.422863 
L 271.732697 57.472322 
L 272.480886 57.472322 
L 272.554221 56.838628 
L 272.84053 56.838628 
L 272.84053 56.521781 
L 273.023322 56.521781 
L 273.101804 55.888088 
L 273.381858 55.888088 
L 273.381858 55.571241 
L 273.884738 55.571241 
L 273.884738 55.254394 
L 274.209637 55.254394 
L 274.288052 53.987006 
L 274.453346 53.987006 
L 274.453346 53.670159 
L 275.253844 53.670159 
L 275.33256 52.719618 
L 275.558869 52.719618 
L 275.634464 52.085925 
L 275.710139 52.085925 
L 275.710139 51.769078 
L 275.822453 51.769078 
L 275.822453 51.452231 
L 277.298283 51.452231 
L 277.298283 51.135384 
L 277.469213 51.135384 
L 277.469213 50.818537 
L 277.639475 50.818537 
L 277.639475 50.50169 
L 277.784038 50.50169 
L 277.877175 49.867996 
L 278.253139 49.867996 
L 278.33162 49.234302 
L 279.246282 49.234302 
L 279.246282 48.917455 
L 279.439453 48.917455 
L 279.439453 48.600608 
L 279.70223 48.600608 
L 279.70223 48.283762 
L 280.483661 48.283762 
L 280.483661 47.966915 
L 281.052269 47.966915 
L 281.052269 47.650068 
L 281.292564 47.650068 
L 281.292564 47.333221 
L 281.651304 47.333221 
L 281.651304 47.016374 
L 282.187119 47.016374 
L 282.187119 46.699527 
L 282.66167 46.699527 
L 282.66167 46.38268 
L 283.789586 46.38268 
L 283.789586 46.065833 
L 284.206215 46.065833 
L 284.308769 45.432139 
L 284.476098 45.432139 
L 284.476098 45.115292 
L 284.895599 45.115292 
L 284.895599 44.798445 
L 285.447935 44.798445 
L 285.447935 44.481599 
L 285.738659 44.481599 
L 285.738659 44.164752 
L 286.097235 44.164752 
L 286.137318 43.531058 
L 286.507917 43.531058 
L 286.535121 42.897364 
L 286.809892 42.897364 
L 286.809892 42.580517 
L 286.991681 42.580517 
L 287.015842 41.946823 
L 287.891487 41.946823 
L 287.995435 41.313129 
L 288.064084 41.313129 
L 288.064084 40.996282 
L 288.305255 40.996282 
L 288.305255 40.679436 
L 289.838946 40.679436 
L 289.891061 40.045742 
L 290.026073 40.045742 
L 290.026073 39.728895 
L 290.454791 39.728895 
L 290.462981 39.095201 
L 290.897247 39.095201 
L 290.955292 38.461507 
L 291.155557 38.461507 
L 291.155557 38.14466 
L 291.832087 38.14466 
L 291.832087 37.827813 
L 293.646376 37.827813 
L 293.646376 37.510966 
L 294.550336 37.510966 
L 294.550336 37.194119 
L 295.421238 37.194119 
L 295.421238 36.877272 
L 295.919443 36.877272 
L 295.98428 35.926732 
L 296.963873 35.926732 
L 297.061904 35.293038 
L 298.825025 35.293038 
L 298.825025 34.976191 
L 298.994511 34.976191 
L 298.994511 34.659344 
L 301.044181 34.659344 
L 301.149259 34.02565 
L 307.581375 34.02565 
L 307.581375 33.708803 
L 307.793463 33.708803 
L 307.793463 33.391956 
L 312.635957 33.391956 
L 312.635957 33.075109 
L 312.862267 33.075109 
L 312.937862 32.441416 
L 313.013536 32.441416 
L 313.013536 32.124569 
L 315.087435 32.124569 
L 315.087435 31.807722 
L 315.556536 31.807722 
L 315.635018 31.174028 
L 316.742851 31.174028 
L 316.742851 30.857181 
L 317.787058 30.857181 
L 317.787058 30.540334 
L 318.355667 30.540334 
L 318.355667 30.223487 
L 319.173151 30.223487 
L 319.173151 29.90664 
L 319.39946 29.90664 
L 319.475055 29.272946 
L 319.55073 29.272946 
L 319.55073 28.9561 
L 321.624628 28.9561 
L 321.624628 28.639253 
L 321.779496 28.639253 
L 321.779496 28.322406 
L 322.09373 28.322406 
L 322.172211 27.688712 
L 323.280044 27.688712 
L 323.280044 27.371865 
L 324.324252 27.371865 
L 324.324252 27.055018 
L 324.89286 27.055018 
L 324.89286 26.738171 
L 325.070649 26.738171 
L 325.070649 26.421324 
L 325.194884 26.421324 
L 325.194884 26.104477 
L 325.760032 26.104477 
L 325.760032 25.78763 
L 328.316689 25.78763 
L 328.316689 25.470783 
L 329.543261 25.470783 
L 329.543261 25.153937 
L 329.875211 25.153937 
L 329.899371 24.520243 
L 330.564594 24.520243 
L 330.588755 23.886549 
L 330.878965 23.886549 
L 330.878965 23.569702 
L 331.568348 23.569702 
L 331.568348 23.252855 
L 331.732078 23.252855 
L 331.732078 22.936008 
L 332.909603 22.936008 
L 332.909603 22.619161 
L 333.166109 22.619161 
L 333.193312 21.985467 
L 333.598987 21.985467 
L 333.598987 21.66862 
L 334.365302 21.66862 
L 334.365302 21.351773 
L 334.963446 21.351773 
L 334.963446 21.034927 
L 337.112982 21.034927 
L 337.112982 20.71808 
L 337.613484 20.71808 
L 337.613484 20.401233 
L 338.452657 20.401233 
L 338.452657 20.084386 
L 338.7484 20.084386 
L 338.775604 19.450692 
L 340.545738 19.450692 
L 340.545738 19.133845 
L 340.902495 19.133845 
L 340.902495 18.816998 
L 341.708554 18.816998 
L 341.708554 18.500151 
L 342.271051 18.500151 
L 342.271051 18.183304 
L 342.397938 18.183304 
L 342.397938 17.866457 
L 342.695274 17.866457 
L 342.695274 17.54961 
L 343.195775 17.54961 
L 343.195775 17.232764 
L 344.98985 17.232764 
L 344.98985 16.915917 
L 351.239489 16.915917 
L 351.239489 16.59907 
L 376.201453 16.59907 
L 376.201453 16.282223 
L 381.783744 16.282223 
L 381.783744 15.965376 
L 385.154581 15.965376 
L 385.154581 15.648529 
L 385.843964 15.648529 
L 385.843964 15.331682 
L 388.929242 15.331682 
L 388.929242 15.014835 
L 394.511534 15.014835 
L 394.511534 14.697988 
L 397.897681 14.697988 
L 397.897681 14.381141 
L 403.479972 14.381141 
L 403.479972 14.064294 
L 431.812772 14.064294 
L 431.812772 13.747447 
L 432.502156 13.747447 
L 432.502156 13.430601 
L 437.395064 13.430601 
L 437.395064 13.113754 
L 438.084447 13.113754 
L 438.084447 12.796907 
L 453.192 12.796907 
L 453.192 12.796907 
" clip-path="url(#p9e7c7a50cb)" style="fill: none; stroke: #000000; stroke-width: 3; stroke-linecap: square"/>
   </g>
   <g id="line2d_38">
    <path clip-path="url(#p9e7c7a50cb)" style="fill: none; stroke: #000000; stroke-width: 3; stroke-linecap: square"/>
   </g>
   <g id="line2d_39">
    <path d="M 34.16 288.453725 
L 186.080302 288.453725 
L 186.080302 288.035018 
L 187.185855 288.035018 
L 187.185855 287.616311 
L 193.059358 287.616311 
L 193.059358 287.197603 
L 195.244626 287.197603 
L 195.244626 286.778896 
L 196.350178 286.778896 
L 196.423468 285.941481 
L 198.430534 285.941481 
L 198.511994 285.104067 
L 198.961677 285.104067 
L 198.961677 284.685359 
L 200.66298 284.685359 
L 200.66298 284.266652 
L 201.976587 284.266652 
L 201.976587 283.847945 
L 202.223682 283.847945 
L 202.223682 283.429237 
L 205.587792 283.429237 
L 205.587792 283.01053 
L 207.162475 283.01053 
L 207.162475 282.591823 
L 207.594858 282.591823 
L 207.676317 281.754408 
L 208.041074 281.754408 
L 208.126 280.916993 
L 209.119202 280.916993 
L 209.119202 280.498286 
L 209.827304 280.498286 
L 209.827304 280.079579 
L 211.140911 280.079579 
L 211.140911 279.660871 
L 213.283961 279.660871 
L 213.283961 279.242164 
L 214.10538 279.242164 
L 214.10538 278.823457 
L 214.389513 278.823457 
L 214.389513 278.404749 
L 214.81755 278.404749 
L 214.81755 277.986042 
L 215.701523 277.986042 
L 215.701523 277.567335 
L 216.326799 277.567335 
L 216.326799 277.148627 
L 216.807076 277.148627 
L 216.807076 276.72992 
L 217.205397 276.72992 
L 217.205397 276.311213 
L 218.273299 276.311213 
L 218.283526 275.473798 
L 219.446958 275.473798 
L 219.527173 274.636383 
L 219.829706 274.636383 
L 219.829706 274.217676 
L 220.107291 274.217676 
L 220.107291 273.798969 
L 220.263016 273.798969 
L 220.263016 273.380261 
L 220.575273 273.380261 
L 220.575273 272.961554 
L 220.935258 272.961554 
L 220.935258 272.542847 
L 221.070641 272.542847 
L 221.070641 272.124139 
L 222.346583 272.124139 
L 222.346583 271.705432 
L 222.680579 271.705432 
L 222.680579 271.286725 
L 222.960878 271.286725 
L 223.006916 270.44931 
L 223.269703 270.44931 
L 223.320972 269.611895 
L 223.410714 269.611895 
L 223.474898 268.774481 
L 223.627127 268.774481 
L 223.627127 268.355773 
L 223.981873 268.355773 
L 223.981873 267.937066 
L 224.709805 267.937066 
L 224.709805 267.518359 
L 224.884776 267.518359 
L 224.884776 267.099651 
L 225.007222 267.099651 
L 225.007222 266.680944 
L 225.370138 266.680944 
L 225.442119 265.424822 
L 225.634193 265.424822 
L 225.715652 264.1687 
L 225.755963 264.1687 
L 225.860503 262.912578 
L 225.879094 262.912578 
L 225.965703 262.075163 
L 226.044689 262.075163 
L 226.044689 261.656456 
L 226.165335 261.656456 
L 226.220597 260.819041 
L 226.310339 260.819041 
L 226.310339 260.400334 
L 226.428244 260.400334 
L 226.537264 259.144212 
L 226.808762 259.144212 
L 226.852675 258.306797 
L 227.232655 258.306797 
L 227.232655 257.88809 
L 227.437622 257.88809 
L 227.513007 257.050675 
L 227.866638 257.050675 
L 227.906847 256.213261 
L 227.980989 256.213261 
L 228.051755 254.538431 
L 228.133215 254.538431 
L 228.223725 253.701017 
L 228.582898 253.701017 
L 228.673562 252.026187 
L 228.778719 252.026187 
L 228.865328 251.188773 
L 228.946714 251.188773 
L 228.9721 250.351358 
L 229.180245 250.351358 
L 229.180245 249.932651 
L 229.451623 249.932651 
L 229.451623 249.513943 
L 229.92563 249.513943 
L 229.92563 249.095236 
L 230.172872 249.095236 
L 230.270069 248.257821 
L 230.284201 248.257821 
L 230.366595 246.582992 
L 230.444602 246.582992 
L 230.490182 245.745577 
L 230.625075 245.745577 
L 230.726688 244.908163 
L 230.769027 244.908163 
L 230.816431 243.652041 
L 230.884647 243.652041 
L 230.995092 241.139797 
L 231.06086 241.139797 
L 231.161127 239.04626 
L 231.22855 239.04626 
L 231.285408 238.208845 
L 231.382689 238.208845 
L 231.469099 236.534016 
L 231.597808 236.534016 
L 231.597808 236.115309 
L 231.740269 236.115309 
L 231.832548 234.440479 
L 231.894867 234.440479 
L 231.894867 234.021772 
L 232.179938 234.021772 
L 232.276425 231.928235 
L 232.400602 231.928235 
L 232.428115 230.672113 
L 232.590259 230.672113 
L 232.590259 230.253406 
L 232.704596 230.253406 
L 232.71108 229.415991 
L 232.868584 229.415991 
L 232.949631 227.741162 
L 233.036315 227.741162 
L 233.11128 226.903747 
L 233.231062 226.903747 
L 233.284811 225.647625 
L 233.351869 225.647625 
L 233.371419 224.391503 
L 233.696647 224.391503 
L 233.696647 223.972796 
L 233.819893 223.972796 
L 233.879803 222.716674 
L 233.960485 222.716674 
L 233.960485 222.297967 
L 234.138995 222.297967 
L 234.183612 221.041845 
L 234.273355 221.041845 
L 234.366133 219.367015 
L 234.412383 219.367015 
L 234.499089 218.529601 
L 234.588831 218.529601 
L 234.61482 217.692186 
L 234.830965 217.692186 
L 234.925891 216.436064 
L 234.974914 216.436064 
L 235.064656 215.598649 
L 235.175504 215.598649 
L 235.254189 213.92382 
L 235.291119 213.92382 
L 235.36657 212.667698 
L 235.419346 212.667698 
L 235.446626 211.830283 
L 235.5804 211.830283 
L 235.680414 210.155454 
L 235.704025 210.155454 
L 235.809882 208.061917 
L 235.840577 208.061917 
L 235.899207 205.968381 
L 235.956805 205.968381 
L 235.956805 205.549673 
L 236.097568 205.549673 
L 236.18731 203.456137 
L 236.243025 203.456137 
L 236.323707 201.3626 
L 236.399396 201.3626 
L 236.468114 200.106478 
L 236.550235 200.106478 
L 236.661164 197.594234 
L 236.741734 197.594234 
L 236.828343 195.500697 
L 236.873403 195.500697 
L 236.935722 193.825868 
L 237.000071 193.825868 
L 237.076074 191.732331 
L 237.113437 191.732331 
L 237.157106 190.057502 
L 237.268137 190.057502 
L 237.359505 187.963965 
L 237.389918 187.963965 
L 237.417974 187.12655 
L 237.533036 187.12655 
L 237.631807 184.614306 
L 237.662295 184.614306 
L 237.737154 183.776892 
L 237.783818 183.776892 
L 237.894738 182.102062 
L 237.922883 182.102062 
L 237.998874 181.264648 
L 238.108899 181.264648 
L 238.191371 179.171111 
L 238.259014 179.171111 
L 238.350789 177.914989 
L 238.385894 177.914989 
L 238.482159 175.402745 
L 238.505215 175.402745 
L 238.596579 174.146623 
L 238.65569 174.146623 
L 238.742299 172.471794 
L 238.788405 172.471794 
L 238.896551 170.378257 
L 238.930452 170.378257 
L 238.960546 169.540842 
L 239.067518 169.540842 
L 239.157261 167.866013 
L 239.191747 167.866013 
L 239.29492 166.191184 
L 239.320639 166.191184 
L 239.410382 164.516354 
L 239.468451 164.516354 
L 239.55506 163.67894 
L 239.632387 163.67894 
L 239.667572 162.841525 
L 239.819063 162.841525 
L 239.874277 161.585403 
L 239.981907 161.585403 
L 240.081142 160.329281 
L 240.283495 160.329281 
L 240.369053 158.235744 
L 240.43187 158.235744 
L 240.47392 157.39833 
L 240.606054 157.39833 
L 240.705624 156.142208 
L 240.747685 156.142208 
L 240.847944 154.048671 
L 240.911879 154.048671 
L 241.006889 152.792549 
L 241.194078 152.792549 
L 241.270604 151.955134 
L 241.309038 151.955134 
L 241.365956 150.699012 
L 241.452109 150.699012 
L 241.509554 149.861598 
L 241.602987 149.861598 
L 241.712249 147.768061 
L 241.721352 147.768061 
L 241.802077 146.511939 
L 241.833938 146.511939 
L 241.9235 144.83711 
L 241.96537 144.83711 
L 242.028378 143.16228 
L 242.078557 143.16228 
L 242.187641 141.906158 
L 242.218336 141.906158 
L 242.320447 140.231329 
L 242.369172 140.231329 
L 242.39616 138.975207 
L 242.500783 138.975207 
L 242.560806 137.719085 
L 242.624749 137.719085 
L 242.726719 136.044256 
L 242.868606 136.044256 
L 242.90025 134.369426 
L 242.986859 134.369426 
L 243.036631 133.532012 
L 243.108033 133.532012 
L 243.193854 131.857182 
L 243.251162 131.857182 
L 243.354171 129.763646 
L 243.460856 129.763646 
L 243.501712 128.088816 
L 243.606336 128.088816 
L 243.676 127.251402 
L 243.7266 127.251402 
L 243.837456 125.157865 
L 243.920794 125.157865 
L 244.013298 123.901743 
L 244.159285 123.901743 
L 244.219544 122.645621 
L 244.278228 122.645621 
L 244.345432 121.389499 
L 244.43877 121.389499 
L 244.524378 120.552084 
L 244.569534 120.552084 
L 244.66938 118.03984 
L 244.71066 118.03984 
L 244.814703 116.783718 
L 244.825475 116.783718 
L 244.850342 115.527596 
L 244.972046 115.527596 
L 245.034786 113.852767 
L 245.159242 113.852767 
L 245.215569 113.015352 
L 245.282088 113.015352 
L 245.324349 112.177938 
L 245.476957 112.177938 
L 245.50485 111.340523 
L 245.689576 111.340523 
L 245.748317 108.828279 
L 245.878224 108.828279 
L 245.987157 106.734742 
L 245.996088 106.734742 
L 246.077984 105.059913 
L 246.242373 105.059913 
L 246.331105 102.966376 
L 246.559846 102.966376 
L 246.648593 101.291547 
L 246.713064 101.291547 
L 246.807406 99.19801 
L 246.829154 99.19801 
L 246.937874 97.941888 
L 246.964229 97.941888 
L 247.060528 95.848351 
L 247.091233 95.848351 
L 247.166963 93.754815 
L 247.214354 93.754815 
L 247.224368 92.498693 
L 247.352593 92.498693 
L 247.456244 90.823863 
L 247.524546 90.823863 
L 247.524546 90.405156 
L 247.675143 90.405156 
L 247.675143 89.986449 
L 247.786624 89.986449 
L 247.89452 88.730327 
L 248.001333 88.730327 
L 248.082016 87.474205 
L 248.185566 87.474205 
L 248.290323 85.799375 
L 248.329652 85.799375 
L 248.403845 84.124546 
L 248.494035 84.124546 
L 248.566953 82.868424 
L 248.780581 82.868424 
L 248.780581 82.449717 
L 249.26399 82.449717 
L 249.272295 81.612302 
L 249.375216 81.612302 
L 249.479839 80.774887 
L 249.501077 80.774887 
L 249.526069 79.937473 
L 249.725848 79.937473 
L 249.725848 79.518765 
L 249.847881 79.518765 
L 249.950913 78.262643 
L 250.381766 78.262643 
L 250.481885 77.425229 
L 250.690595 77.425229 
L 250.736493 76.587814 
L 250.998571 76.587814 
L 250.999064 75.750399 
L 251.487318 75.750399 
L 251.590103 74.494277 
L 251.61377 74.494277 
L 251.702108 73.656863 
L 251.795492 73.656863 
L 251.795492 73.238155 
L 252.022702 73.238155 
L 252.067336 72.400741 
L 252.238843 72.400741 
L 252.319526 71.144619 
L 252.35291 71.144619 
L 252.419293 69.888497 
L 252.505902 69.888497 
L 252.505902 69.469789 
L 252.641354 69.469789 
L 252.739326 68.213667 
L 252.843949 68.213667 
L 252.843949 67.79496 
L 252.975324 67.79496 
L 253.032083 66.957545 
L 253.241521 66.957545 
L 253.340551 65.701423 
L 253.5036 65.701423 
L 253.5036 65.282716 
L 253.620836 65.282716 
L 253.702295 64.026594 
L 254.151978 64.026594 
L 254.151978 63.607887 
L 254.32917 63.607887 
L 254.32917 63.189179 
L 254.553829 63.189179 
L 254.553829 62.770472 
L 254.694397 62.770472 
L 254.746392 61.933057 
L 254.827851 61.933057 
L 254.932475 60.676935 
L 254.983679 60.676935 
L 254.983679 60.258228 
L 255.217781 60.258228 
L 255.277534 59.420813 
L 255.382157 59.420813 
L 255.47986 58.583399 
L 255.583009 58.583399 
L 255.583009 58.164691 
L 255.845088 58.164691 
L 255.87229 56.908569 
L 256.134369 56.908569 
L 256.134369 56.489862 
L 256.871636 56.489862 
L 256.98138 55.23374 
L 257.083461 55.23374 
L 257.166889 54.396325 
L 257.360821 54.396325 
L 257.360821 53.977618 
L 257.520377 53.977618 
L 257.601059 53.140203 
L 257.859978 53.140203 
L 257.922888 52.302789 
L 258.292444 52.302789 
L 258.397068 51.465374 
L 258.938107 51.465374 
L 258.938107 51.046667 
L 260.724932 51.046667 
L 260.724932 50.627959 
L 262.352777 50.627959 
L 262.352777 50.209252 
L 262.731998 50.209252 
L 262.813457 49.371837 
L 263.231375 49.371837 
L 263.26314 48.534423 
L 263.478332 48.534423 
L 263.582956 47.697008 
L 263.924284 47.697008 
L 263.924284 47.278301 
L 264.309504 47.278301 
L 264.356931 46.440886 
L 264.461554 46.440886 
L 264.461554 46.022179 
L 264.636454 46.022179 
L 264.636454 45.603471 
L 264.964443 45.603471 
L 264.964443 45.184764 
L 265.43506 45.184764 
L 265.539683 44.347349 
L 266.27805 44.347349 
L 266.27805 43.928642 
L 268.092203 43.928642 
L 268.092203 43.509935 
L 269.295681 43.509935 
L 269.295681 43.091227 
L 270.007851 43.091227 
L 270.007851 42.67252 
L 270.421237 42.67252 
L 270.52586 41.835105 
L 271.133407 41.835105 
L 271.23803 40.997691 
L 271.463938 40.997691 
L 271.572322 40.160276 
L 272.342537 40.160276 
L 272.342537 39.741569 
L 272.677874 39.741569 
L 272.677874 39.322861 
L 273.420666 39.322861 
L 273.4636 38.485447 
L 273.726445 38.485447 
L 273.726445 38.066739 
L 274.589156 38.066739 
L 274.69378 37.229325 
L 274.831997 37.229325 
L 274.831997 36.810617 
L 278.406843 36.810617 
L 278.406843 36.39191 
L 278.551378 36.39191 
L 278.551378 35.973203 
L 279.119013 35.973203 
L 279.119013 35.554495 
L 280.705501 35.554495 
L 280.705501 35.135788 
L 281.915488 35.135788 
L 281.915488 34.717081 
L 282.574762 34.717081 
L 282.574762 34.298373 
L 283.922554 34.298373 
L 284.004014 33.460959 
L 284.069611 33.460959 
L 284.069611 33.042251 
L 284.453696 33.042251 
L 284.453696 32.623544 
L 286.076677 32.623544 
L 286.158137 31.367422 
L 286.327014 31.367422 
L 286.327014 30.948715 
L 286.607819 30.948715 
L 286.607819 30.530007 
L 287.432566 30.530007 
L 287.468607 29.692593 
L 288.309123 29.692593 
L 288.309123 29.273885 
L 289.387477 29.273885 
L 289.387477 28.855178 
L 289.62273 28.855178 
L 289.62273 28.436471 
L 290.128177 28.436471 
L 290.128177 28.017763 
L 290.49303 28.017763 
L 290.49303 27.599056 
L 291.23373 27.599056 
L 291.23373 27.180349 
L 292.654495 27.180349 
L 292.654495 26.761641 
L 293.30607 26.761641 
L 293.30607 26.342934 
L 293.533093 26.342934 
L 293.533093 25.924227 
L 294.611222 25.924227 
L 294.611222 25.505519 
L 294.808618 25.505519 
L 294.808618 25.086812 
L 295.687216 25.086812 
L 295.687216 24.668105 
L 296.366533 24.668105 
L 296.366533 24.249397 
L 296.67018 24.249397 
L 296.765345 23.411983 
L 297.107233 23.411983 
L 297.107233 22.993275 
L 298.677246 22.993275 
L 298.758705 22.155861 
L 299.208388 22.155861 
L 299.208388 21.737153 
L 299.597399 21.737153 
L 299.597399 21.318446 
L 299.730643 21.318446 
L 299.730643 20.899739 
L 300.309569 20.899739 
L 300.309569 20.481031 
L 300.471343 20.481031 
L 300.471343 20.062324 
L 300.909692 20.062324 
L 300.909692 19.643617 
L 301.737709 19.643617 
L 301.819169 18.387495 
L 302.223299 18.387495 
L 302.268851 17.55008 
L 302.463692 17.55008 
L 302.559869 16.293958 
L 303.009552 16.293958 
L 303.009552 15.875251 
L 303.765319 15.875251 
L 303.765319 15.456543 
L 303.970155 15.456543 
L 303.970155 15.037836 
L 304.710855 15.037836 
L 304.710855 14.619129 
L 305.283762 14.619129 
L 305.283762 14.200421 
L 305.919442 14.200421 
L 306.024462 13.363007 
L 307.409187 13.363007 
L 307.409187 12.944299 
L 308.287785 12.944299 
L 308.287785 12.525592 
L 309.365914 12.525592 
L 309.365914 12.106885 
L 310.46965 12.106885 
L 310.46965 11.688177 
L 311.21035 11.688177 
L 311.21035 11.26947 
L 311.348248 11.26947 
L 311.348248 10.850763 
L 312.088949 10.850763 
L 312.088949 10.432055 
L 312.426377 10.432055 
L 312.426377 10.013348 
L 313.167077 10.013348 
L 313.167077 9.594641 
L 314.352091 9.594641 
L 314.352091 9.175933 
L 315.064261 9.175933 
L 315.064261 8.757226 
L 317.412554 8.757226 
L 317.412554 8.338519 
L 318.124724 8.338519 
L 318.153255 7.501104 
L 318.52001 7.501104 
L 318.52001 7.082397 
L 318.865425 7.082397 
L 318.865425 6.663689 
L 321.580474 6.663689 
L 321.580474 6.244982 
L 322.321174 6.244982 
L 322.321174 5.826275 
L 453.192 5.826275 
L 453.192 5.826275 
" clip-path="url(#p9e7c7a50cb)" style="fill: none; stroke: #00bfbf; stroke-width: 3; stroke-linecap: square"/>
   </g>
   <g id="line2d_40">
    <path clip-path="url(#p9e7c7a50cb)" style="fill: none; stroke: #00bfbf; stroke-width: 3; stroke-linecap: square"/>
   </g>
   <g id="line2d_41">
    <path d="M 34.16 288.453725 
L 162.476756 288.453725 
L 162.476756 288.035018 
L 165.073212 288.035018 
L 165.073212 287.616311 
L 169.090685 287.616311 
L 169.090685 287.197603 
L 169.95463 287.197603 
L 170.007538 286.360189 
L 171.687141 286.360189 
L 171.687141 285.941481 
L 172.02022 285.941481 
L 172.02022 285.522774 
L 172.347541 285.522774 
L 172.347541 285.104067 
L 172.566585 285.104067 
L 172.566585 284.685359 
L 173.644083 284.685359 
L 173.644083 284.266652 
L 176.568559 284.266652 
L 176.621467 283.429237 
L 178.390244 283.429237 
L 178.390244 283.01053 
L 178.63415 283.01053 
L 178.63415 282.591823 
L 178.96147 282.591823 
L 178.96147 282.173115 
L 179.107444 282.173115 
L 179.180515 281.335701 
L 179.498934 281.335701 
L 179.498934 280.916993 
L 180.258013 280.916993 
L 180.258013 280.498286 
L 181.302976 280.498286 
L 181.302976 280.079579 
L 181.95617 280.079579 
L 181.95617 279.660871 
L 183.984247 279.660871 
L 183.984247 279.242164 
L 184.177344 279.242164 
L 184.177344 278.823457 
L 185.004174 278.823457 
L 185.004174 278.404749 
L 185.721374 278.404749 
L 185.721374 277.986042 
L 186.112864 277.986042 
L 186.112864 277.567335 
L 187.916906 277.567335 
L 187.916906 277.148627 
L 188.5701 277.148627 
L 188.5701 276.72992 
L 190.402389 276.72992 
L 190.402389 276.311213 
L 190.598176 276.311213 
L 190.598176 275.892505 
L 190.791273 275.892505 
L 190.791273 275.473798 
L 192.998845 275.473798 
L 192.998845 275.055091 
L 195.234869 275.055091 
L 195.234869 274.636383 
L 196.301872 274.636383 
L 196.301872 274.217676 
L 197.831325 274.217676 
L 197.933171 272.961554 
L 198.898328 272.961554 
L 198.898328 272.542847 
L 199.945853 272.542847 
L 199.945853 272.124139 
L 200.273174 272.124139 
L 200.273174 271.705432 
L 200.492218 271.705432 
L 200.492218 271.286725 
L 201.569716 271.286725 
L 201.569716 270.868017 
L 202.712743 270.868017 
L 202.765651 270.030603 
L 203.779746 270.030603 
L 203.832654 269.193188 
L 204.778334 269.193188 
L 204.778334 268.774481 
L 205.105654 268.774481 
L 205.105654 268.355773 
L 205.324699 268.355773 
L 205.324699 267.937066 
L 205.845336 267.937066 
L 205.845336 267.518359 
L 206.172657 267.518359 
L 206.172657 267.099651 
L 206.315877 267.099651 
L 206.402197 265.843529 
L 207.033077 265.843529 
L 207.033077 265.424822 
L 207.424567 265.424822 
L 207.4692 264.587407 
L 209.228609 264.587407 
L 209.228609 264.1687 
L 209.881803 264.1687 
L 209.881803 263.749993 
L 211.148358 263.749993 
L 211.148358 263.331285 
L 211.865558 263.331285 
L 211.90988 262.493871 
L 212.102977 262.493871 
L 212.102977 262.075163 
L 212.215361 262.075163 
L 212.257048 261.237749 
L 212.554602 261.237749 
L 212.554602 260.819041 
L 212.932561 260.819041 
L 212.932561 260.400334 
L 213.324051 260.400334 
L 213.324051 259.981627 
L 214.06109 259.981627 
L 214.06109 259.562919 
L 214.714284 259.562919 
L 214.714284 259.144212 
L 215.116663 259.144212 
L 215.151058 257.88809 
L 215.781286 257.88809 
L 215.781286 257.469383 
L 216.242219 257.469383 
L 216.242219 257.050675 
L 216.74236 257.050675 
L 216.74236 256.631968 
L 216.935457 256.631968 
L 216.935457 256.213261 
L 217.453458 256.213261 
L 217.453458 255.794553 
L 217.713119 255.794553 
L 217.809363 254.957139 
L 218.00246 254.957139 
L 218.00246 254.538431 
L 218.838675 254.538431 
L 218.838675 254.119724 
L 220.032476 254.119724 
L 220.085384 252.863602 
L 222.098066 252.863602 
L 222.098066 252.444895 
L 222.425387 252.444895 
L 222.425387 252.026187 
L 222.594537 252.026187 
L 222.647445 250.770065 
L 223.720093 250.770065 
L 223.773001 249.513943 
L 224.660128 249.513943 
L 224.660128 249.095236 
L 224.931332 249.095236 
L 224.987448 247.839114 
L 225.206492 247.839114 
L 225.206492 247.420407 
L 225.785683 247.420407 
L 225.785683 247.001699 
L 226.113004 247.001699 
L 226.113004 246.582992 
L 226.283991 246.582992 
L 226.332048 245.745577 
L 226.655595 245.745577 
L 226.655595 245.32687 
L 226.996922 245.32687 
L 226.996922 244.908163 
L 227.324243 244.908163 
L 227.409547 244.070748 
L 227.543287 244.070748 
L 227.543287 243.652041 
L 228.468091 243.652041 
L 228.555269 242.814626 
L 228.620785 242.814626 
L 228.692319 241.977211 
L 229.011091 241.977211 
L 229.011091 241.558504 
L 229.185291 241.558504 
L 229.185291 241.139797 
L 229.336004 241.139797 
L 229.336004 240.721089 
L 229.464044 240.721089 
L 229.464044 240.302382 
L 229.576781 240.302382 
L 229.576781 239.883675 
L 229.954084 239.883675 
L 229.954084 239.464967 
L 230.109438 239.464967 
L 230.109438 239.04626 
L 230.226173 239.04626 
L 230.332706 238.208845 
L 230.806102 238.208845 
L 230.806102 237.790138 
L 231.030152 237.790138 
L 231.030152 237.371431 
L 231.235678 237.371431 
L 231.235678 236.952723 
L 231.372728 236.952723 
L 231.380823 236.115309 
L 231.555526 236.115309 
L 231.64319 235.277894 
L 231.686983 235.277894 
L 231.747352 234.021772 
L 231.853758 234.021772 
L 231.853758 233.603065 
L 231.990808 233.603065 
L 232.034016 231.928235 
L 232.125847 231.928235 
L 232.155708 229.834699 
L 232.262897 229.834699 
L 232.30958 228.997284 
L 232.464934 228.997284 
L 232.464934 228.578577 
L 232.581669 228.578577 
L 232.643725 227.741162 
L 232.708068 227.741162 
L 232.762533 226.903747 
L 232.859403 226.903747 
L 232.929162 224.810211 
L 233.034622 224.810211 
L 233.117366 223.972796 
L 233.20789 223.972796 
L 233.288829 222.716674 
L 233.366946 222.716674 
L 233.366946 222.297967 
L 233.528417 222.297967 
L 233.528417 221.879259 
L 233.860308 221.879259 
L 233.942884 221.041845 
L 234.062093 221.041845 
L 234.084146 220.20443 
L 234.21124 220.20443 
L 234.25519 218.529601 
L 234.3236 218.529601 
L 234.367392 217.692186 
L 234.475636 217.692186 
L 234.475636 217.273479 
L 234.596078 217.273479 
L 234.673193 216.436064 
L 234.796163 216.436064 
L 234.854015 215.598649 
L 234.94168 215.598649 
L 235.009369 214.342527 
L 235.06844 214.342527 
L 235.140825 212.248991 
L 235.183169 212.248991 
L 235.291272 210.155454 
L 235.324135 210.155454 
L 235.433937 208.899332 
L 235.446626 208.899332 
L 235.545937 207.64321 
L 235.563361 207.64321 
L 235.563386 206.805795 
L 235.721633 206.805795 
L 235.797776 205.549673 
L 235.897032 205.549673 
L 235.969238 204.293551 
L 236.016338 204.293551 
L 236.113206 203.037429 
L 236.157892 203.037429 
L 236.215804 201.781307 
L 236.279678 201.781307 
L 236.313246 200.525185 
L 236.40721 200.525185 
L 236.429981 198.431649 
L 236.571209 198.431649 
L 236.668756 196.756819 
L 236.687944 196.756819 
L 236.790099 195.08199 
L 236.817251 195.08199 
L 236.914437 193.40716 
L 236.932872 193.40716 
L 236.932872 192.988453 
L 237.082843 192.988453 
L 237.169276 192.151038 
L 237.209609 192.151038 
L 237.219893 191.313624 
L 237.333611 191.313624 
L 237.439441 190.057502 
L 237.447903 190.057502 
L 237.544672 187.963965 
L 237.611739 187.963965 
L 237.678479 187.12655 
L 237.731083 187.12655 
L 237.834777 184.614306 
L 237.863488 184.614306 
L 237.942807 183.358184 
L 237.991618 183.358184 
L 237.991618 182.939477 
L 238.107821 182.939477 
L 238.195485 181.683355 
L 238.239277 181.683355 
L 238.328026 180.008526 
L 238.381404 180.008526 
L 238.381404 179.589818 
L 238.495305 179.589818 
L 238.545078 178.752404 
L 238.636445 178.752404 
L 238.649885 177.914989 
L 238.760239 177.914989 
L 238.847903 176.24016 
L 238.878194 176.24016 
L 238.960949 174.146623 
L 239.015624 174.146623 
L 239.015624 173.727916 
L 239.129525 173.727916 
L 239.197496 172.053086 
L 239.257371 172.053086 
L 239.341406 169.95955 
L 239.411698 169.95955 
L 239.51938 167.866013 
L 239.569893 167.866013 
L 239.669661 166.191184 
L 239.698447 166.191184 
L 239.767807 164.097647 
L 239.812348 164.097647 
L 239.922872 161.585403 
L 239.931924 161.585403 
L 240.02085 160.329281 
L 240.064116 160.329281 
L 240.170765 157.817037 
L 240.186714 157.817037 
L 240.266986 155.304793 
L 240.322079 155.304793 
L 240.422535 152.792549 
L 240.465325 152.792549 
L 240.574414 149.861598 
L 240.614747 149.861598 
L 240.725293 148.605476 
L 240.765716 148.605476 
L 240.809852 146.930646 
L 240.929624 146.930646 
L 241.033144 145.674524 
L 241.147046 145.674524 
L 241.239915 144.418402 
L 241.298077 144.418402 
L 241.386977 143.16228 
L 241.421346 143.16228 
L 241.529934 140.231329 
L 241.606617 140.231329 
L 241.64494 138.975207 
L 241.814368 138.975207 
L 241.92539 135.206841 
L 241.945824 135.206841 
L 242.027168 133.113304 
L 242.067171 133.113304 
L 242.154768 131.857182 
L 242.220464 131.857182 
L 242.317107 128.507524 
L 242.335588 128.507524 
L 242.417489 125.99528 
L 242.454158 125.99528 
L 242.465874 125.157865 
L 242.574612 125.157865 
L 242.632774 123.901743 
L 242.718476 123.901743 
L 242.829567 119.295962 
L 242.853811 119.295962 
L 242.926648 117.621133 
L 243.002979 117.621133 
L 243.108771 114.690182 
L 243.118245 114.690182 
L 243.225882 111.340523 
L 243.355871 111.340523 
L 243.458364 108.409572 
L 243.471811 108.409572 
L 243.547671 105.897328 
L 243.58991 105.897328 
L 243.595735 104.641206 
L 243.719213 104.641206 
L 243.821316 102.966376 
L 243.842948 102.966376 
L 243.934891 101.710254 
L 243.974912 101.710254 
L 244.019335 100.454132 
L 244.109306 100.454132 
L 244.192854 98.779303 
L 244.310535 98.779303 
L 244.395094 96.685766 
L 244.424436 96.685766 
L 244.526277 93.754815 
L 244.557489 93.754815 
L 244.640414 91.661278 
L 244.698575 91.661278 
L 244.807324 89.986449 
L 244.891883 89.986449 
L 244.955143 88.311619 
L 245.006587 88.311619 
L 245.006587 87.892912 
L 245.120488 87.892912 
L 245.226835 86.218083 
L 245.27106 86.218083 
L 245.363517 83.705839 
L 245.405029 83.705839 
L 245.505551 82.031009 
L 245.558023 82.031009 
L 245.669133 80.35618 
L 245.671936 80.35618 
L 245.773701 78.262643 
L 245.789174 78.262643 
L 245.882554 75.331692 
L 245.910164 75.331692 
L 245.99505 72.819448 
L 246.031664 72.819448 
L 246.115091 71.982033 
L 246.203127 71.982033 
L 246.25795 70.725911 
L 246.364076 70.725911 
L 246.405564 68.632375 
L 246.548055 68.632375 
L 246.621242 66.957545 
L 246.694093 66.957545 
L 246.783586 64.864009 
L 246.820052 64.864009 
L 246.879205 63.607887 
L 246.941112 63.607887 
L 247.050667 61.933057 
L 247.055013 61.933057 
L 247.138935 60.676935 
L 247.17746 60.676935 
L 247.17746 60.258228 
L 247.337658 60.258228 
L 247.437902 57.745984 
L 247.466916 57.745984 
L 247.572504 56.489862 
L 247.760785 56.489862 
L 247.857412 54.815033 
L 247.986475 54.815033 
L 248.083898 53.558911 
L 248.168457 53.558911 
L 248.203939 52.302789 
L 248.288498 52.302789 
L 248.386083 51.465374 
L 248.456837 51.465374 
L 248.540742 50.209252 
L 248.779951 50.209252 
L 248.867501 48.95313 
L 248.899992 48.95313 
L 248.908727 48.115715 
L 249.158926 48.115715 
L 249.158926 47.697008 
L 249.317536 47.697008 
L 249.380392 46.440886 
L 249.478994 46.440886 
L 249.478994 46.022179 
L 249.64065 46.022179 
L 249.725374 45.184764 
L 249.760691 45.184764 
L 249.81212 44.347349 
L 250.115466 44.347349 
L 250.217804 43.091227 
L 250.235302 43.091227 
L 250.339693 42.253813 
L 250.391362 42.253813 
L 250.391362 41.835105 
L 250.543721 41.835105 
L 250.543721 41.416398 
L 250.714476 41.416398 
L 250.714476 40.997691 
L 250.834517 40.997691 
L 250.834517 40.578983 
L 251.248683 40.578983 
L 251.248683 40.160276 
L 251.413519 40.160276 
L 251.42098 39.322861 
L 251.564184 39.322861 
L 251.564184 38.904154 
L 251.840197 38.904154 
L 251.840197 38.485447 
L 252.033294 38.485447 
L 252.033294 38.066739 
L 252.411724 38.066739 
L 252.411724 37.648032 
L 252.632569 37.648032 
L 252.717128 36.810617 
L 253.2675 36.810617 
L 253.328622 35.554495 
L 254.189321 35.554495 
L 254.189321 35.135788 
L 255.050378 35.135788 
L 255.103286 34.298373 
L 255.263147 34.298373 
L 255.333091 33.460959 
L 255.660412 33.460959 
L 255.660412 33.042251 
L 255.879456 33.042251 
L 255.879456 32.623544 
L 256.956954 32.623544 
L 256.956954 32.204837 
L 257.115969 32.204837 
L 257.115969 31.786129 
L 257.443289 31.786129 
L 257.443289 31.367422 
L 257.662334 31.367422 
L 257.662334 30.948715 
L 258.739832 30.948715 
L 258.739832 30.530007 
L 260.173073 30.530007 
L 260.173073 30.1113 
L 261.703115 30.1113 
L 261.703115 29.692593 
L 262.420315 29.692593 
L 262.420315 29.273885 
L 262.769529 29.273885 
L 262.811805 28.436471 
L 263.233537 28.436471 
L 263.233537 28.017763 
L 263.485993 28.017763 
L 263.485993 27.599056 
L 263.974237 27.599056 
L 263.974237 27.180349 
L 264.203193 27.180349 
L 264.203193 26.761641 
L 264.594683 26.761641 
L 264.615847 25.924227 
L 265.269041 25.924227 
L 265.269041 25.505519 
L 265.829993 25.505519 
L 265.829993 25.086812 
L 266.398725 25.086812 
L 266.398725 24.668105 
L 266.570693 24.668105 
L 266.570693 24.249397 
L 267.051919 24.249397 
L 267.051919 23.83069 
L 267.297118 23.83069 
L 267.297118 23.411983 
L 267.490215 23.411983 
L 267.490215 22.993275 
L 267.650947 22.993275 
L 267.703855 22.155861 
L 269.079995 22.155861 
L 269.079995 21.737153 
L 269.273092 21.737153 
L 269.273092 21.318446 
L 269.716538 21.318446 
L 269.716538 20.899739 
L 270.043858 20.899739 
L 270.043858 20.481031 
L 270.262903 20.481031 
L 270.262903 20.062324 
L 270.71141 20.062324 
L 270.764318 19.224909 
L 271.340401 19.224909 
L 271.340401 18.806202 
L 271.45211 18.806202 
L 271.505019 17.968787 
L 272.777001 17.968787 
L 272.777001 17.55008 
L 273.104321 17.55008 
L 273.104321 17.131373 
L 273.323366 17.131373 
L 273.323366 16.712665 
L 273.517701 16.712665 
L 273.517701 16.293958 
L 273.845022 16.293958 
L 273.845022 15.875251 
L 274.064066 15.875251 
L 274.064066 15.456543 
L 274.400864 15.456543 
L 274.400864 15.037836 
L 275.141564 15.037836 
L 275.141564 14.619129 
L 276.086562 14.619129 
L 276.086562 14.200421 
L 276.803762 14.200421 
L 276.803762 13.781714 
L 277.195252 13.781714 
L 277.195252 13.363007 
L 278.999294 13.363007 
L 278.999294 12.944299 
L 279.147025 12.944299 
L 279.147025 12.525592 
L 279.652488 12.525592 
L 279.652488 12.106885 
L 279.864225 12.106885 
L 279.887725 11.26947 
L 280.255715 11.26947 
L 280.255715 10.850763 
L 280.604925 10.850763 
L 280.604925 10.432055 
L 280.996415 10.432055 
L 280.996415 10.013348 
L 281.680564 10.013348 
L 281.680564 9.594641 
L 281.873661 9.594641 
L 281.873661 9.175933 
L 282.059757 9.175933 
L 282.059757 8.757226 
L 282.712951 8.757226 
L 282.800457 7.919811 
L 283.453651 7.919811 
L 283.453651 7.501104 
L 284.741028 7.501104 
L 284.741028 7.082397 
L 284.934124 7.082397 
L 284.934124 6.663689 
L 285.481728 6.663689 
L 285.481728 6.244982 
L 285.674825 6.244982 
L 285.674825 5.826275 
L 453.192 5.826275 
L 453.192 5.826275 
" clip-path="url(#p9e7c7a50cb)" style="fill: none; stroke: #bf00bf; stroke-width: 3; stroke-linecap: square"/>
   </g>
   <g id="line2d_42">
    <path clip-path="url(#p9e7c7a50cb)" style="fill: none; stroke: #bf00bf; stroke-width: 3; stroke-linecap: square"/>
   </g>
   <g id="line2d_43">
    <path d="M 34.16 288.453725 
L 135.933395 288.453725 
L 135.933395 288.035018 
L 142.41255 288.035018 
L 142.41255 287.616311 
L 142.547325 287.616311 
L 142.547325 287.197603 
L 144.535247 287.197603 
L 144.535247 286.778896 
L 145.038442 286.778896 
L 145.11329 285.941481 
L 146.83746 285.941481 
L 146.83746 285.522774 
L 147.763841 285.522774 
L 147.763841 285.104067 
L 148.584328 285.104067 
L 148.584328 284.685359 
L 149.02648 284.685359 
L 149.02648 284.266652 
L 149.732991 284.266652 
L 149.732991 283.847945 
L 151.149177 283.847945 
L 151.149177 283.429237 
L 151.634476 283.429237 
L 151.727219 282.173115 
L 151.778108 282.173115 
L 151.778108 281.754408 
L 152.086859 281.754408 
L 152.086859 281.335701 
L 152.376227 281.335701 
L 152.438386 280.498286 
L 152.812474 280.498286 
L 152.812474 280.079579 
L 153.45139 280.079579 
L 153.45139 279.660871 
L 154.37777 279.660871 
L 154.37777 279.242164 
L 155.198257 279.242164 
L 155.198257 278.823457 
L 156.346921 278.823457 
L 156.346921 278.404749 
L 158.248406 278.404749 
L 158.248406 277.986042 
L 158.392037 277.986042 
L 158.392037 277.567335 
L 158.700788 277.567335 
L 158.700788 277.148627 
L 158.990156 277.148627 
L 159.052316 276.311213 
L 159.426403 276.311213 
L 159.426403 275.892505 
L 163.859028 275.892505 
L 163.859028 275.473798 
L 168.691509 275.473798 
L 168.691509 275.055091 
L 169.758512 275.055091 
L 169.758512 274.636383 
L 170.338183 274.636383 
L 170.338183 274.217676 
L 172.46088 274.217676 
L 172.46088 273.798969 
L 172.964075 273.798969 
L 173.038923 272.961554 
L 174.763093 272.961554 
L 174.763093 272.542847 
L 175.170664 272.542847 
L 175.170664 272.124139 
L 175.689474 272.124139 
L 175.689474 271.705432 
L 176.237667 271.705432 
L 176.237667 271.286725 
L 176.509961 271.286725 
L 176.509961 270.868017 
L 177.293361 270.868017 
L 177.293361 270.44931 
L 177.658624 270.44931 
L 177.658624 270.030603 
L 177.796555 270.030603 
L 177.871403 269.193188 
L 178.360363 269.193188 
L 178.360363 268.774481 
L 178.863558 268.774481 
L 178.938406 267.937066 
L 179.560109 267.937066 
L 179.595574 267.099651 
L 179.703741 267.099651 
L 179.703741 266.680944 
L 180.012492 266.680944 
L 180.012492 266.262237 
L 180.30186 266.262237 
L 180.364019 265.424822 
L 180.521954 265.424822 
L 180.521954 265.006115 
L 180.662577 265.006115 
L 180.738107 264.1687 
L 181.342441 264.1687 
L 181.342441 263.749993 
L 181.588957 263.749993 
L 181.588957 263.331285 
L 182.409444 263.331285 
L 182.491105 262.493871 
L 183.558108 262.493871 
L 183.558108 262.075163 
L 184.39259 262.075163 
L 184.39259 261.656456 
L 184.536221 261.656456 
L 184.536221 261.237749 
L 184.844972 261.237749 
L 184.844972 260.819041 
L 185.13434 260.819041 
L 185.1965 259.981627 
L 185.459592 259.981627 
L 185.570587 259.144212 
L 185.603224 259.144212 
L 185.603224 258.725505 
L 185.911975 258.725505 
L 186.011242 257.88809 
L 186.201343 257.88809 
L 186.263502 257.050675 
L 186.63759 257.050675 
L 186.63759 256.631968 
L 188.573303 256.631968 
L 188.573303 256.213261 
L 189.698859 256.213261 
L 189.698859 255.794553 
L 190.910097 255.794553 
L 190.910097 255.375846 
L 192.490397 255.375846 
L 192.490397 254.957139 
L 194.613093 254.957139 
L 194.613093 254.538431 
L 195.052458 254.538431 
L 195.116288 253.701017 
L 195.191136 253.701017 
L 195.191136 253.282309 
L 196.178014 253.282309 
L 196.178014 252.863602 
L 196.915306 252.863602 
L 196.915306 252.444895 
L 197.175155 252.444895 
L 197.175155 252.026187 
L 197.389253 252.026187 
L 197.389253 251.60748 
L 197.678349 251.60748 
L 197.753197 250.770065 
L 197.841687 250.770065 
L 197.841687 250.351358 
L 198.300711 250.351358 
L 198.300711 249.932651 
L 198.662174 249.932651 
L 198.662174 249.513943 
L 198.803905 249.513943 
L 198.878753 248.676529 
L 199.477368 248.676529 
L 199.511949 247.839114 
L 199.810837 247.839114 
L 199.810837 247.420407 
L 200.015144 247.420407 
L 200.089992 246.582992 
L 200.403748 246.582992 
L 200.403748 246.164285 
L 200.602924 246.164285 
L 200.602924 245.745577 
L 201.224235 245.745577 
L 201.224235 245.32687 
L 201.529304 245.32687 
L 201.529304 244.908163 
L 201.712322 244.908163 
L 201.814162 244.070748 
L 201.855954 244.070748 
L 201.855954 243.652041 
L 202.164705 243.652041 
L 202.164705 243.233333 
L 202.349791 243.233333 
L 202.454073 241.977211 
L 202.516232 241.977211 
L 202.516232 241.558504 
L 202.740543 241.558504 
L 202.740543 241.139797 
L 202.89032 241.139797 
L 202.89032 240.721089 
L 203.498455 240.721089 
L 203.56103 239.883675 
L 203.789345 239.883675 
L 203.789345 239.464967 
L 204.274384 239.464967 
L 204.274384 239.04626 
L 204.418015 239.04626 
L 204.418015 238.627553 
L 204.709693 238.627553 
L 204.726766 237.790138 
L 205.016134 237.790138 
L 205.078294 236.952723 
L 205.39994 236.952723 
L 205.452381 236.115309 
L 205.543571 236.115309 
L 205.543571 235.696601 
L 205.852322 235.696601 
L 205.852322 235.277894 
L 206.14169 235.277894 
L 206.203849 234.440479 
L 206.577937 234.440479 
L 206.611178 233.603065 
L 206.75481 233.603065 
L 206.75481 233.184357 
L 207.063561 233.184357 
L 207.063561 232.76565 
L 207.352929 232.76565 
L 207.415088 231.928235 
L 207.789176 231.928235 
L 207.789176 231.509528 
L 210.2685 231.509528 
L 210.2685 231.090821 
L 212.391197 231.090821 
L 212.391197 230.672113 
L 212.894392 230.672113 
L 212.969239 229.834699 
L 214.69341 229.834699 
L 214.69341 229.415991 
L 215.619791 229.415991 
L 215.619791 228.997284 
L 216.440278 228.997284 
L 216.440278 228.578577 
L 217.588941 228.578577 
L 217.588941 228.159869 
L 219.246266 228.159869 
L 219.246266 227.741162 
L 219.490426 227.741162 
L 219.490426 227.322455 
L 219.634058 227.322455 
L 219.634058 226.903747 
L 219.942809 226.903747 
L 219.942809 226.48504 
L 220.232177 226.48504 
L 220.294336 225.647625 
L 220.668424 225.647625 
L 220.668424 225.228918 
L 221.029144 225.228918 
L 221.029144 224.810211 
L 225.725421 224.810211 
L 225.725421 224.391503 
L 227.508299 224.391503 
L 227.508299 223.972796 
L 227.848118 223.972796 
L 227.848118 223.554089 
L 228.351313 223.554089 
L 228.42616 222.716674 
L 229.630996 222.716674 
L 229.630996 222.297967 
L 230.13419 222.297967 
L 230.209038 220.623137 
L 231.076711 220.623137 
L 231.076711 220.20443 
L 231.554908 220.20443 
L 231.63689 219.367015 
L 231.76747 219.367015 
L 231.76747 218.948308 
L 231.897198 218.948308 
L 231.933209 218.110893 
L 232.154854 218.110893 
L 232.154854 217.692186 
L 232.669115 217.692186 
L 232.669115 217.273479 
L 232.859589 217.273479 
L 232.859589 216.854771 
L 232.991869 216.854771 
L 233.045862 215.598649 
L 233.126148 215.598649 
L 233.204431 214.761235 
L 233.509834 214.761235 
L 233.509834 214.342527 
L 233.629713 214.342527 
L 233.722396 212.667698 
L 233.952156 212.667698 
L 234.051132 211.411576 
L 234.221459 211.411576 
L 234.236657 210.574161 
L 234.373851 210.574161 
L 234.481127 209.736747 
L 234.586413 209.736747 
L 234.693689 208.480625 
L 234.82874 208.480625 
L 234.836037 207.64321 
L 234.947347 207.64321 
L 234.988515 206.387088 
L 235.090978 206.387088 
L 235.201077 205.549673 
L 235.307136 205.549673 
L 235.399729 204.293551 
L 235.519698 204.293551 
L 235.555337 203.456137 
L 235.65842 203.456137 
L 235.751257 202.200015 
L 235.882803 202.200015 
L 235.989486 200.943893 
L 236.055712 200.943893 
L 236.125345 200.106478 
L 236.176384 200.106478 
L 236.176384 199.687771 
L 236.306891 199.687771 
L 236.342934 198.850356 
L 236.452987 198.850356 
L 236.519453 198.012941 
L 236.667707 198.012941 
L 236.74969 195.500697 
L 236.787495 195.500697 
L 236.873856 194.663282 
L 236.962252 194.663282 
L 237.040402 193.40716 
L 237.117968 193.40716 
L 237.182607 192.151038 
L 237.267164 192.151038 
L 237.344465 191.313624 
L 237.430876 191.313624 
L 237.534135 187.545258 
L 237.557027 187.545258 
L 237.655066 185.870428 
L 237.908222 185.870428 
L 238.010638 184.195599 
L 238.024524 184.195599 
L 238.092641 183.358184 
L 238.174604 183.358184 
L 238.260576 181.683355 
L 238.374281 181.683355 
L 238.481557 180.427233 
L 238.502249 180.427233 
L 238.554929 179.171111 
L 238.715301 179.171111 
L 238.742421 178.333696 
L 238.867013 178.333696 
L 238.973442 176.658867 
L 238.981931 176.658867 
L 239.089358 174.146623 
L 239.231059 174.146623 
L 239.322837 172.053086 
L 239.36521 172.053086 
L 239.456105 169.95955 
L 239.487527 169.95955 
L 239.587155 167.447306 
L 239.606438 167.447306 
L 239.713714 166.191184 
L 239.771782 166.191184 
L 239.858738 164.097647 
L 239.924312 164.097647 
L 240.015963 161.585403 
L 240.044187 161.585403 
L 240.152263 156.979622 
L 240.176941 156.979622 
L 240.272431 154.886086 
L 240.30732 154.886086 
L 240.39701 153.211256 
L 240.427398 153.211256 
L 240.53328 150.699012 
L 240.539723 150.699012 
L 240.64509 148.605476 
L 240.656899 148.605476 
L 240.750119 146.930646 
L 240.807695 146.930646 
L 240.870196 145.255817 
L 240.934786 145.255817 
L 241.040959 142.324866 
L 241.103463 142.324866 
L 241.205344 140.231329 
L 241.215274 140.231329 
L 241.318184 137.300378 
L 241.330295 137.300378 
L 241.429994 135.206841 
L 241.52286 135.206841 
L 241.605305 133.113304 
L 241.641521 133.113304 
L 241.746355 131.438475 
L 241.767968 131.438475 
L 241.869951 128.926231 
L 241.908 128.926231 
L 241.982277 127.251402 
L 242.106972 127.251402 
L 242.148908 126.413987 
L 242.231565 126.413987 
L 242.342568 123.064328 
L 242.353138 123.064328 
L 242.401455 122.226914 
L 242.467529 122.226914 
L 242.577052 120.552084 
L 242.610372 120.552084 
L 242.717648 117.621133 
L 242.728588 117.621133 
L 242.830224 113.852767 
L 242.885598 113.852767 
L 242.973999 110.503108 
L 243.110888 110.503108 
L 243.213435 107.990864 
L 243.225036 107.990864 
L 243.330063 104.222498 
L 243.367624 104.222498 
L 243.467284 100.454132 
L 243.490801 100.454132 
L 243.543744 97.523181 
L 243.602541 97.523181 
L 243.69697 94.173522 
L 243.783436 94.173522 
L 243.890712 92.9174 
L 243.910031 92.9174 
L 244.015687 89.149034 
L 244.085124 89.149034 
L 244.127497 87.474205 
L 244.222421 87.474205 
L 244.321973 85.380668 
L 244.3981 85.380668 
L 244.504859 81.612302 
L 244.517529 81.612302 
L 244.611095 78.681351 
L 244.630979 78.681351 
L 244.722796 76.587814 
L 244.742723 76.587814 
L 244.810068 75.750399 
L 244.854534 75.750399 
L 244.945141 73.238155 
L 244.986211 73.238155 
L 245.07663 71.982033 
L 245.116958 71.982033 
L 245.184934 70.307204 
L 245.244565 70.307204 
L 245.318559 69.051082 
L 245.373308 69.051082 
L 245.461257 64.864009 
L 245.503685 64.864009 
L 245.591505 62.770472 
L 245.676924 62.770472 
L 245.785052 61.095643 
L 245.795223 61.095643 
L 245.87007 59.839521 
L 245.911971 59.839521 
L 246.007397 57.745984 
L 246.032728 57.745984 
L 246.138267 55.652447 
L 246.148837 55.652447 
L 246.245151 53.140203 
L 246.265191 53.140203 
L 246.368006 50.209252 
L 246.390608 50.209252 
L 246.49905 48.115715 
L 246.535923 48.115715 
L 246.636526 46.022179 
L 246.676749 46.022179 
L 246.774577 43.509935 
L 246.835499 43.509935 
L 246.927107 40.997691 
L 246.959149 40.997691 
L 247.0346 39.322861 
L 247.093807 39.322861 
L 247.202144 36.39191 
L 247.262586 36.39191 
L 247.262586 35.973203 
L 247.382385 35.973203 
L 247.429309 34.298373 
L 247.542751 34.298373 
L 247.604731 32.623544 
L 247.695281 32.623544 
L 247.790027 31.786129 
L 247.863216 31.786129 
L 247.881252 30.948715 
L 247.993062 30.948715 
L 248.096384 29.692593 
L 248.147698 29.692593 
L 248.225076 28.436471 
L 248.285518 28.436471 
L 248.383094 27.180349 
L 248.409742 27.180349 
L 248.520621 25.924227 
L 248.680858 25.924227 
L 248.737386 25.086812 
L 248.912657 25.086812 
L 248.976314 23.83069 
L 249.050499 23.83069 
L 249.053692 22.993275 
L 249.172511 22.993275 
L 249.261322 22.155861 
L 249.330794 22.155861 
L 249.341108 21.318446 
L 249.474425 21.318446 
L 249.557974 20.481031 
L 249.600348 20.481031 
L 249.631577 19.643617 
L 249.741273 19.643617 
L 249.783176 18.806202 
L 249.853922 18.806202 
L 249.853922 18.387495 
L 250.006919 18.387495 
L 250.081809 17.131373 
L 250.134704 17.131373 
L 250.233571 15.456543 
L 250.327384 15.456543 
L 250.345575 14.619129 
L 250.489772 14.619129 
L 250.508791 13.363007 
L 251.001745 13.363007 
L 251.001745 12.944299 
L 251.230472 12.944299 
L 251.230472 12.525592 
L 251.440481 12.525592 
L 251.51786 11.688177 
L 252.205441 11.688177 
L 252.205441 11.26947 
L 252.391257 11.26947 
L 252.391257 10.850763 
L 252.534888 10.850763 
L 252.534888 10.432055 
L 252.843639 10.432055 
L 252.843639 10.013348 
L 253.131957 10.013348 
L 253.195167 8.757226 
L 253.275589 8.757226 
L 253.275589 8.338519 
L 253.465912 8.338519 
L 253.569255 7.501104 
L 253.58434 7.501104 
L 253.58434 7.082397 
L 253.873708 7.082397 
L 253.935867 6.244982 
L 254.309955 6.244982 
L 254.309955 5.826275 
L 453.192 5.826275 
L 453.192 5.826275 
" clip-path="url(#p9e7c7a50cb)" style="fill: none; stroke: #ff0000; stroke-width: 3; stroke-linecap: square"/>
   </g>
   <g id="line2d_44">
    <path clip-path="url(#p9e7c7a50cb)" style="fill: none; stroke: #ff0000; stroke-width: 3; stroke-linecap: square"/>
   </g>
   <g id="line2d_45">
    <path d="M 243.676 291.28 
L 243.676 3 
" clip-path="url(#p9e7c7a50cb)" style="fill: none; stroke: #000000; stroke-width: 1.5; stroke-linecap: square"/>
   </g>
   <g id="line2d_46">
    <path d="M 34.16 147.14 
L 453.192 147.14 
" clip-path="url(#p9e7c7a50cb)" style="fill: none; stroke-dasharray: 2,3.3; stroke-dashoffset: 0; stroke: #000000; stroke-width: 2"/>
   </g>
   <g id="patch_3">
    <path d="M 34.16 291.28 
L 34.16 3 
" style="fill: none; stroke: #000000; stroke-width: 0.8; stroke-linejoin: miter; stroke-linecap: square"/>
   </g>
   <g id="patch_4">
    <path d="M 453.192 291.28 
L 453.192 3 
" style="fill: none; stroke: #000000; stroke-width: 0.8; stroke-linejoin: miter; stroke-linecap: square"/>
   </g>
   <g id="patch_5">
    <path d="M 34.16 291.28 
L 453.192 291.28 
" style="fill: none; stroke: #000000; stroke-width: 0.8; stroke-linejoin: miter; stroke-linecap: square"/>
   </g>
   <g id="patch_6">
    <path d="M 34.16 3 
L 453.192 3 
" style="fill: none; stroke: #000000; stroke-width: 0.8; stroke-linejoin: miter; stroke-linecap: square"/>
   </g>
   <g id="text_6">
    <!-- f1-f5,20-D -->
    <g transform="translate(343.64261 285.5144)scale(0.2 -0.2)">
     <defs>
      <path id="DejaVuSans-35" d="M 691 4666 
L 3169 4666 
L 3169 4134 
L 1269 4134 
L 1269 2991 
Q 1406 3038 1543 3061 
Q 1681 3084 1819 3084 
Q 2600 3084 3056 2656 
Q 3513 2228 3513 1497 
Q 3513 744 3044 326 
Q 2575 -91 1722 -91 
Q 1428 -91 1123 -41 
Q 819 9 494 109 
L 494 744 
Q 775 591 1075 516 
Q 1375 441 1709 441 
Q 2250 441 2565 725 
Q 2881 1009 2881 1497 
Q 2881 1984 2565 2268 
Q 2250 2553 1709 2553 
Q 1456 2553 1204 2497 
Q 953 2441 691 2322 
L 691 4666 
z
" transform="scale(0.015625)"/>
      <path id="DejaVuSans-2c" d="M 750 794 
L 1409 794 
L 1409 256 
L 897 -744 
L 494 -744 
L 750 256 
L 750 794 
z
" transform="scale(0.015625)"/>
      <path id="DejaVuSans-32" d="M 1228 531 
L 3431 531 
L 3431 0 
L 469 0 
L 469 531 
Q 828 903 1448 1529 
Q 2069 2156 2228 2338 
Q 2531 2678 2651 2914 
Q 2772 3150 2772 3378 
Q 2772 3750 2511 3984 
Q 2250 4219 1831 4219 
Q 1534 4219 1204 4116 
Q 875 4013 500 3803 
L 500 4441 
Q 881 4594 1212 4672 
Q 1544 4750 1819 4750 
Q 2544 4750 2975 4387 
Q 3406 4025 3406 3419 
Q 3406 3131 3298 2873 
Q 3191 2616 2906 2266 
Q 2828 2175 2409 1742 
Q 1991 1309 1228 531 
z
" transform="scale(0.015625)"/>
      <path id="DejaVuSans-44" d="M 1259 4147 
L 1259 519 
L 2022 519 
Q 2988 519 3436 956 
Q 3884 1394 3884 2338 
Q 3884 3275 3436 3711 
Q 2988 4147 2022 4147 
L 1259 4147 
z
M 628 4666 
L 1925 4666 
Q 3281 4666 3915 4102 
Q 4550 3538 4550 2338 
Q 4550 1131 3912 565 
Q 3275 0 1925 0 
L 628 0 
L 628 4666 
z
" transform="scale(0.015625)"/>
     </defs>
     <use xlink:href="#DejaVuSans-66"/>
     <use xlink:href="#DejaVuSans-31" x="35.205078"/>
     <use xlink:href="#DejaVuSans-2d" x="98.828125"/>
     <use xlink:href="#DejaVuSans-66" x="134.912109"/>
     <use xlink:href="#DejaVuSans-35" x="170.117188"/>
     <use xlink:href="#DejaVuSans-2c" x="233.740234"/>
     <use xlink:href="#DejaVuSans-32" x="265.527344"/>
     <use xlink:href="#DejaVuSans-30" x="329.150391"/>
     <use xlink:href="#DejaVuSans-2d" x="392.773438"/>
     <use xlink:href="#DejaVuSans-44" x="428.857422"/>
    </g>
   </g>
   <g id="text_7">
    <!-- v2.6.3.10 -->
    <g style="fill: #808080" transform="translate(220.043187 286.317512)scale(0.1 -0.1)">
     <defs>
      <path id="DejaVuSans-2e" d="M 684 794 
L 1344 794 
L 1344 0 
L 684 0 
L 684 794 
z
" transform="scale(0.015625)"/>
      <path id="DejaVuSans-36" d="M 2113 2584 
Q 1688 2584 1439 2293 
Q 1191 2003 1191 1497 
Q 1191 994 1439 701 
Q 1688 409 2113 409 
Q 2538 409 2786 701 
Q 3034 994 3034 1497 
Q 3034 2003 2786 2293 
Q 2538 2584 2113 2584 
z
M 3366 4563 
L 3366 3988 
Q 3128 4100 2886 4159 
Q 2644 4219 2406 4219 
Q 1781 4219 1451 3797 
Q 1122 3375 1075 2522 
Q 1259 2794 1537 2939 
Q 1816 3084 2150 3084 
Q 2853 3084 3261 2657 
Q 3669 2231 3669 1497 
Q 3669 778 3244 343 
Q 2819 -91 2113 -91 
Q 1303 -91 875 529 
Q 447 1150 447 2328 
Q 447 3434 972 4092 
Q 1497 4750 2381 4750 
Q 2619 4750 2861 4703 
Q 3103 4656 3366 4563 
z
" transform="scale(0.015625)"/>
      <path id="DejaVuSans-33" d="M 2597 2516 
Q 3050 2419 3304 2112 
Q 3559 1806 3559 1356 
Q 3559 666 3084 287 
Q 2609 -91 1734 -91 
Q 1441 -91 1130 -33 
Q 819 25 488 141 
L 488 750 
Q 750 597 1062 519 
Q 1375 441 1716 441 
Q 2309 441 2620 675 
Q 2931 909 2931 1356 
Q 2931 1769 2642 2001 
Q 2353 2234 1838 2234 
L 1294 2234 
L 1294 2753 
L 1863 2753 
Q 2328 2753 2575 2939 
Q 2822 3125 2822 3475 
Q 2822 3834 2567 4026 
Q 2313 4219 1838 4219 
Q 1578 4219 1281 4162 
Q 984 4106 628 3988 
L 628 4550 
Q 988 4650 1302 4700 
Q 1616 4750 1894 4750 
Q 2613 4750 3031 4423 
Q 3450 4097 3450 3541 
Q 3450 3153 3228 2886 
Q 3006 2619 2597 2516 
z
" transform="scale(0.015625)"/>
     </defs>
     <use xlink:href="#DejaVuSans-76"/>
     <use xlink:href="#DejaVuSans-32" x="59.179688"/>
     <use xlink:href="#DejaVuSans-2e" x="122.802734"/>
     <use xlink:href="#DejaVuSans-36" x="154.589844"/>
     <use xlink:href="#DejaVuSans-2e" x="218.212891"/>
     <use xlink:href="#DejaVuSans-33" x="250"/>
     <use xlink:href="#DejaVuSans-2e" x="313.623047"/>
     <use xlink:href="#DejaVuSans-31" x="345.410156"/>
     <use xlink:href="#DejaVuSans-30" x="409.033203"/>
    </g>
   </g>
   <g id="legend_1">
    <g id="patch_7">
     <path d="M 48.16 136.425 
L 177.381875 136.425 
Q 181.381875 136.425 181.381875 132.425 
L 181.381875 17 
Q 181.381875 13 177.381875 13 
L 48.16 13 
Q 44.16 13 44.16 17 
L 44.16 132.425 
Q 44.16 136.425 48.16 136.425 
z
" style="fill: #ffffff; opacity: 0.2; stroke: #cccccc; stroke-linejoin: miter"/>
    </g>
    <g id="line2d_47">
     <path d="M 52.16 29.196875 
L 72.16 29.196875 
L 92.16 29.196875 
" style="fill: none; stroke: #000000; stroke-width: 3; stroke-linecap: square"/>
    </g>
    <g id="text_8">
     <!-- 1: 4/4 -->
     <g transform="translate(108.16 36.196875)scale(0.2 -0.2)">
      <defs>
       <path id="DejaVuSans-3a" d="M 750 794 
L 1409 794 
L 1409 0 
L 750 0 
L 750 794 
z
M 750 3309 
L 1409 3309 
L 1409 2516 
L 750 2516 
L 750 3309 
z
" transform="scale(0.015625)"/>
       <path id="DejaVuSans-34" d="M 2419 4116 
L 825 1625 
L 2419 1625 
L 2419 4116 
z
M 2253 4666 
L 3047 4666 
L 3047 1625 
L 3713 1625 
L 3713 1100 
L 3047 1100 
L 3047 0 
L 2419 0 
L 2419 1100 
L 313 1100 
L 313 1709 
L 2253 4666 
z
" transform="scale(0.015625)"/>
       <path id="DejaVuSans-2f" d="M 1625 4666 
L 2156 4666 
L 531 -594 
L 0 -594 
L 1625 4666 
z
" transform="scale(0.015625)"/>
      </defs>
      <use xlink:href="#DejaVuSans-31"/>
      <use xlink:href="#DejaVuSans-3a" x="63.623047"/>
      <use xlink:href="#DejaVuSans-20" x="97.314453"/>
      <use xlink:href="#DejaVuSans-34" x="129.101562"/>
      <use xlink:href="#DejaVuSans-2f" x="192.724609"/>
      <use xlink:href="#DejaVuSans-34" x="226.416016"/>
     </g>
    </g>
    <g id="line2d_48">
     <path d="M 52.16 58.553125 
L 72.16 58.553125 
L 92.16 58.553125 
" style="fill: none; stroke: #00bfbf; stroke-width: 3; stroke-linecap: square"/>
    </g>
    <g id="text_9">
     <!-- -1: 3/3 -->
     <g transform="translate(108.16 65.553125)scale(0.2 -0.2)">
      <use xlink:href="#DejaVuSans-2d"/>
      <use xlink:href="#DejaVuSans-31" x="36.083984"/>
      <use xlink:href="#DejaVuSans-3a" x="99.707031"/>
      <use xlink:href="#DejaVuSans-20" x="133.398438"/>
      <use xlink:href="#DejaVuSans-33" x="165.185547"/>
      <use xlink:href="#DejaVuSans-2f" x="228.808594"/>
      <use xlink:href="#DejaVuSans-33" x="262.5"/>
     </g>
    </g>
    <g id="line2d_49">
     <path d="M 52.16 87.909375 
L 72.16 87.909375 
L 92.16 87.909375 
" style="fill: none; stroke: #bf00bf; stroke-width: 3; stroke-linecap: square"/>
    </g>
    <g id="text_10">
     <!-- -4: 3/3 -->
     <g transform="translate(108.16 94.909375)scale(0.2 -0.2)">
      <use xlink:href="#DejaVuSans-2d"/>
      <use xlink:href="#DejaVuSans-34" x="36.083984"/>
      <use xlink:href="#DejaVuSans-3a" x="99.707031"/>
      <use xlink:href="#DejaVuSans-20" x="133.398438"/>
      <use xlink:href="#DejaVuSans-33" x="165.185547"/>
      <use xlink:href="#DejaVuSans-2f" x="228.808594"/>
      <use xlink:href="#DejaVuSans-33" x="262.5"/>
     </g>
    </g>
    <g id="line2d_50">
     <path d="M 52.16 117.265625 
L 72.16 117.265625 
L 92.16 117.265625 
" style="fill: none; stroke: #ff0000; stroke-width: 3; stroke-linecap: square"/>
    </g>
    <g id="text_11">
     <!-- -8: 3/3 -->
     <g transform="translate(108.16 124.265625)scale(0.2 -0.2)">
      <defs>
       <path id="DejaVuSans-38" d="M 2034 2216 
Q 1584 2216 1326 1975 
Q 1069 1734 1069 1313 
Q 1069 891 1326 650 
Q 1584 409 2034 409 
Q 2484 409 2743 651 
Q 3003 894 3003 1313 
Q 3003 1734 2745 1975 
Q 2488 2216 2034 2216 
z
M 1403 2484 
Q 997 2584 770 2862 
Q 544 3141 544 3541 
Q 544 4100 942 4425 
Q 1341 4750 2034 4750 
Q 2731 4750 3128 4425 
Q 3525 4100 3525 3541 
Q 3525 3141 3298 2862 
Q 3072 2584 2669 2484 
Q 3125 2378 3379 2068 
Q 3634 1759 3634 1313 
Q 3634 634 3220 271 
Q 2806 -91 2034 -91 
Q 1263 -91 848 271 
Q 434 634 434 1313 
Q 434 1759 690 2068 
Q 947 2378 1403 2484 
z
M 1172 3481 
Q 1172 3119 1398 2916 
Q 1625 2713 2034 2713 
Q 2441 2713 2670 2916 
Q 2900 3119 2900 3481 
Q 2900 3844 2670 4047 
Q 2441 4250 2034 4250 
Q 1625 4250 1398 4047 
Q 1172 3844 1172 3481 
z
" transform="scale(0.015625)"/>
      </defs>
      <use xlink:href="#DejaVuSans-2d"/>
      <use xlink:href="#DejaVuSans-38" x="36.083984"/>
      <use xlink:href="#DejaVuSans-3a" x="99.707031"/>
      <use xlink:href="#DejaVuSans-20" x="133.398438"/>
      <use xlink:href="#DejaVuSans-33" x="165.185547"/>
      <use xlink:href="#DejaVuSans-2f" x="228.808594"/>
      <use xlink:href="#DejaVuSans-33" x="262.5"/>
     </g>
    </g>
   </g>
  </g>
 </g>
 <defs>
  <clipPath id="p9e7c7a50cb">
   <rect x="34.16" y="3" width="419.032" height="288.28"/>
  </clipPath>
 </defs>
</svg>
