<?xml version="1.0" encoding="utf-8" standalone="no"?>
<!DOCTYPE svg PUBLIC "-//W3C//DTD SVG 1.1//EN"
  "http://www.w3.org/Graphics/SVG/1.1/DTD/svg11.dtd">
<svg xmlns:xlink="http://www.w3.org/1999/xlink" width="460.8pt" height="345.6pt" viewBox="0 0 460.8 345.6" xmlns="http://www.w3.org/2000/svg" version="1.1">
 <metadata>
  <rdf:RDF xmlns:dc="http://purl.org/dc/elements/1.1/" xmlns:cc="http://creativecommons.org/ns#" xmlns:rdf="http://www.w3.org/1999/02/22-rdf-syntax-ns#">
   <cc:Work>
    <dc:type rdf:resource="http://purl.org/dc/dcmitype/StillImage"/>
    <dc:date>2023-05-09T15:04:36.371201</dc:date>
    <dc:format>image/svg+xml</dc:format>
    <dc:creator>
     <cc:Agent>
      <dc:title>Matplotlib v3.5.2, https://matplotlib.org/</dc:title>
     </cc:Agent>
    </dc:creator>
   </cc:Work>
  </rdf:RDF>
 </metadata>
 <defs>
  <style type="text/css">*{stroke-linejoin: round; stroke-linecap: butt}</style>
 </defs>
 <g id="figure_1">
  <g id="patch_1">
   <path d="M 0 345.6 
L 460.8 345.6 
L 460.8 0 
L 0 0 
z
" style="fill: #ffffff"/>
  </g>
  <g id="axes_1">
   <g id="patch_2">
    <path d="M 34.16 291.28 
L 453.192 291.28 
L 453.192 3 
L 34.16 3 
z
" style="fill: #ffffff"/>
   </g>
   <g id="matplotlib.axis_1">
    <g id="xtick_1">
     <g id="line2d_1">
      <path d="M 153.566761 291.28 
L 153.566761 3 
" clip-path="url(#p48c89f369e)" style="fill: none; stroke: #b0b0b0; stroke-width: 0.8; stroke-linecap: square"/>
     </g>
     <g id="line2d_2">
      <defs>
       <path id="meb30bd74b3" d="M 0 0 
L 0 3.5 
" style="stroke: #000000; stroke-width: 0.8"/>
      </defs>
      <g>
       <use xlink:href="#meb30bd74b3" x="153.566761" y="291.28" style="stroke: #000000; stroke-width: 0.8"/>
      </g>
     </g>
     <g id="text_1">
      <!-- -1 -->
      <g transform="translate(143.596449 313.476875)scale(0.2 -0.2)">
       <defs>
        <path id="DejaVuSans-2d" d="M 313 2009 
L 1997 2009 
L 1997 1497 
L 313 1497 
L 313 2009 
z
" transform="scale(0.015625)"/>
        <path id="DejaVuSans-31" d="M 794 531 
L 1825 531 
L 1825 4091 
L 703 3866 
L 703 4441 
L 1819 4666 
L 2450 4666 
L 2450 531 
L 3481 531 
L 3481 0 
L 794 0 
L 794 531 
z
" transform="scale(0.015625)"/>
       </defs>
       <use xlink:href="#DejaVuSans-2d"/>
       <use xlink:href="#DejaVuSans-31" x="36.083984"/>
      </g>
     </g>
    </g>
    <g id="xtick_2">
     <g id="line2d_3">
      <path d="M 333.785239 291.28 
L 333.785239 3 
" clip-path="url(#p48c89f369e)" style="fill: none; stroke: #b0b0b0; stroke-width: 0.8; stroke-linecap: square"/>
     </g>
     <g id="line2d_4">
      <g>
       <use xlink:href="#meb30bd74b3" x="333.785239" y="291.28" style="stroke: #000000; stroke-width: 0.8"/>
      </g>
     </g>
     <g id="text_2">
      <!-- 1 -->
      <g transform="translate(327.422739 313.476875)scale(0.2 -0.2)">
       <use xlink:href="#DejaVuSans-31"/>
      </g>
     </g>
    </g>
    <g id="xtick_3">
     <g id="line2d_5">
      <defs>
       <path id="mea5c2f41a5" d="M 0 0 
L 0 2 
" style="stroke: #000000; stroke-width: 0.6"/>
      </defs>
      <g>
       <use xlink:href="#mea5c2f41a5" x="36.331939" y="291.28" style="stroke: #000000; stroke-width: 0.6"/>
      </g>
     </g>
    </g>
    <g id="xtick_4">
     <g id="line2d_6">
      <g>
       <use xlink:href="#mea5c2f41a5" x="43.466901" y="291.28" style="stroke: #000000; stroke-width: 0.6"/>
      </g>
     </g>
    </g>
    <g id="xtick_5">
     <g id="line2d_7">
      <g>
       <use xlink:href="#mea5c2f41a5" x="49.499425" y="291.28" style="stroke: #000000; stroke-width: 0.6"/>
      </g>
     </g>
    </g>
    <g id="xtick_6">
     <g id="line2d_8">
      <g>
       <use xlink:href="#mea5c2f41a5" x="54.725036" y="291.28" style="stroke: #000000; stroke-width: 0.6"/>
      </g>
     </g>
    </g>
    <g id="xtick_7">
     <g id="line2d_9">
      <g>
       <use xlink:href="#mea5c2f41a5" x="59.33435" y="291.28" style="stroke: #000000; stroke-width: 0.6"/>
      </g>
     </g>
    </g>
    <g id="xtick_8">
     <g id="line2d_10">
      <g>
       <use xlink:href="#mea5c2f41a5" x="90.583107" y="291.28" style="stroke: #000000; stroke-width: 0.6"/>
      </g>
     </g>
    </g>
    <g id="xtick_9">
     <g id="line2d_11">
      <g>
       <use xlink:href="#mea5c2f41a5" x="106.450556" y="291.28" style="stroke: #000000; stroke-width: 0.6"/>
      </g>
     </g>
    </g>
    <g id="xtick_10">
     <g id="line2d_12">
      <g>
       <use xlink:href="#mea5c2f41a5" x="117.70869" y="291.28" style="stroke: #000000; stroke-width: 0.6"/>
      </g>
     </g>
    </g>
    <g id="xtick_11">
     <g id="line2d_13">
      <g>
       <use xlink:href="#mea5c2f41a5" x="126.441178" y="291.28" style="stroke: #000000; stroke-width: 0.6"/>
      </g>
     </g>
    </g>
    <g id="xtick_12">
     <g id="line2d_14">
      <g>
       <use xlink:href="#mea5c2f41a5" x="133.57614" y="291.28" style="stroke: #000000; stroke-width: 0.6"/>
      </g>
     </g>
    </g>
    <g id="xtick_13">
     <g id="line2d_15">
      <g>
       <use xlink:href="#mea5c2f41a5" x="139.608664" y="291.28" style="stroke: #000000; stroke-width: 0.6"/>
      </g>
     </g>
    </g>
    <g id="xtick_14">
     <g id="line2d_16">
      <g>
       <use xlink:href="#mea5c2f41a5" x="144.834274" y="291.28" style="stroke: #000000; stroke-width: 0.6"/>
      </g>
     </g>
    </g>
    <g id="xtick_15">
     <g id="line2d_17">
      <g>
       <use xlink:href="#mea5c2f41a5" x="149.443589" y="291.28" style="stroke: #000000; stroke-width: 0.6"/>
      </g>
     </g>
    </g>
    <g id="xtick_16">
     <g id="line2d_18">
      <g>
       <use xlink:href="#mea5c2f41a5" x="180.692345" y="291.28" style="stroke: #000000; stroke-width: 0.6"/>
      </g>
     </g>
    </g>
    <g id="xtick_17">
     <g id="line2d_19">
      <g>
       <use xlink:href="#mea5c2f41a5" x="196.559794" y="291.28" style="stroke: #000000; stroke-width: 0.6"/>
      </g>
     </g>
    </g>
    <g id="xtick_18">
     <g id="line2d_20">
      <g>
       <use xlink:href="#mea5c2f41a5" x="207.817929" y="291.28" style="stroke: #000000; stroke-width: 0.6"/>
      </g>
     </g>
    </g>
    <g id="xtick_19">
     <g id="line2d_21">
      <g>
       <use xlink:href="#mea5c2f41a5" x="216.550416" y="291.28" style="stroke: #000000; stroke-width: 0.6"/>
      </g>
     </g>
    </g>
    <g id="xtick_20">
     <g id="line2d_22">
      <g>
       <use xlink:href="#mea5c2f41a5" x="223.685378" y="291.28" style="stroke: #000000; stroke-width: 0.6"/>
      </g>
     </g>
    </g>
    <g id="xtick_21">
     <g id="line2d_23">
      <g>
       <use xlink:href="#mea5c2f41a5" x="229.717902" y="291.28" style="stroke: #000000; stroke-width: 0.6"/>
      </g>
     </g>
    </g>
    <g id="xtick_22">
     <g id="line2d_24">
      <g>
       <use xlink:href="#mea5c2f41a5" x="234.943513" y="291.28" style="stroke: #000000; stroke-width: 0.6"/>
      </g>
     </g>
    </g>
    <g id="xtick_23">
     <g id="line2d_25">
      <g>
       <use xlink:href="#mea5c2f41a5" x="239.552827" y="291.28" style="stroke: #000000; stroke-width: 0.6"/>
      </g>
     </g>
    </g>
    <g id="xtick_24">
     <g id="line2d_26">
      <g>
       <use xlink:href="#mea5c2f41a5" x="270.801584" y="291.28" style="stroke: #000000; stroke-width: 0.6"/>
      </g>
     </g>
    </g>
    <g id="xtick_25">
     <g id="line2d_27">
      <g>
       <use xlink:href="#mea5c2f41a5" x="286.669033" y="291.28" style="stroke: #000000; stroke-width: 0.6"/>
      </g>
     </g>
    </g>
    <g id="xtick_26">
     <g id="line2d_28">
      <g>
       <use xlink:href="#mea5c2f41a5" x="297.927167" y="291.28" style="stroke: #000000; stroke-width: 0.6"/>
      </g>
     </g>
    </g>
    <g id="xtick_27">
     <g id="line2d_29">
      <g>
       <use xlink:href="#mea5c2f41a5" x="306.659655" y="291.28" style="stroke: #000000; stroke-width: 0.6"/>
      </g>
     </g>
    </g>
    <g id="xtick_28">
     <g id="line2d_30">
      <g>
       <use xlink:href="#mea5c2f41a5" x="313.794617" y="291.28" style="stroke: #000000; stroke-width: 0.6"/>
      </g>
     </g>
    </g>
    <g id="xtick_29">
     <g id="line2d_31">
      <g>
       <use xlink:href="#mea5c2f41a5" x="319.827141" y="291.28" style="stroke: #000000; stroke-width: 0.6"/>
      </g>
     </g>
    </g>
    <g id="xtick_30">
     <g id="line2d_32">
      <g>
       <use xlink:href="#mea5c2f41a5" x="325.052751" y="291.28" style="stroke: #000000; stroke-width: 0.6"/>
      </g>
     </g>
    </g>
    <g id="xtick_31">
     <g id="line2d_33">
      <g>
       <use xlink:href="#mea5c2f41a5" x="329.662066" y="291.28" style="stroke: #000000; stroke-width: 0.6"/>
      </g>
     </g>
    </g>
    <g id="xtick_32">
     <g id="line2d_34">
      <g>
       <use xlink:href="#mea5c2f41a5" x="360.910822" y="291.28" style="stroke: #000000; stroke-width: 0.6"/>
      </g>
     </g>
    </g>
    <g id="xtick_33">
     <g id="line2d_35">
      <g>
       <use xlink:href="#mea5c2f41a5" x="376.778271" y="291.28" style="stroke: #000000; stroke-width: 0.6"/>
      </g>
     </g>
    </g>
    <g id="xtick_34">
     <g id="line2d_36">
      <g>
       <use xlink:href="#mea5c2f41a5" x="388.036406" y="291.28" style="stroke: #000000; stroke-width: 0.6"/>
      </g>
     </g>
    </g>
    <g id="xtick_35">
     <g id="line2d_37">
      <g>
       <use xlink:href="#mea5c2f41a5" x="396.768893" y="291.28" style="stroke: #000000; stroke-width: 0.6"/>
      </g>
     </g>
    </g>
    <g id="xtick_36">
     <g id="line2d_38">
      <g>
       <use xlink:href="#mea5c2f41a5" x="403.903855" y="291.28" style="stroke: #000000; stroke-width: 0.6"/>
      </g>
     </g>
    </g>
    <g id="xtick_37">
     <g id="line2d_39">
      <g>
       <use xlink:href="#mea5c2f41a5" x="409.936379" y="291.28" style="stroke: #000000; stroke-width: 0.6"/>
      </g>
     </g>
    </g>
    <g id="xtick_38">
     <g id="line2d_40">
      <g>
       <use xlink:href="#mea5c2f41a5" x="415.16199" y="291.28" style="stroke: #000000; stroke-width: 0.6"/>
      </g>
     </g>
    </g>
    <g id="xtick_39">
     <g id="line2d_41">
      <g>
       <use xlink:href="#mea5c2f41a5" x="419.771304" y="291.28" style="stroke: #000000; stroke-width: 0.6"/>
      </g>
     </g>
    </g>
    <g id="xtick_40">
     <g id="line2d_42">
      <g>
       <use xlink:href="#mea5c2f41a5" x="451.020061" y="291.28" style="stroke: #000000; stroke-width: 0.6"/>
      </g>
     </g>
    </g>
    <g id="text_3">
     <!-- log10 of FEvals ratio -->
     <g transform="translate(141.371312 336.833125)scale(0.2 -0.2)">
      <defs>
       <path id="DejaVuSans-6c" d="M 603 4863 
L 1178 4863 
L 1178 0 
L 603 0 
L 603 4863 
z
" transform="scale(0.015625)"/>
       <path id="DejaVuSans-6f" d="M 1959 3097 
Q 1497 3097 1228 2736 
Q 959 2375 959 1747 
Q 959 1119 1226 758 
Q 1494 397 1959 397 
Q 2419 397 2687 759 
Q 2956 1122 2956 1747 
Q 2956 2369 2687 2733 
Q 2419 3097 1959 3097 
z
M 1959 3584 
Q 2709 3584 3137 3096 
Q 3566 2609 3566 1747 
Q 3566 888 3137 398 
Q 2709 -91 1959 -91 
Q 1206 -91 779 398 
Q 353 888 353 1747 
Q 353 2609 779 3096 
Q 1206 3584 1959 3584 
z
" transform="scale(0.015625)"/>
       <path id="DejaVuSans-67" d="M 2906 1791 
Q 2906 2416 2648 2759 
Q 2391 3103 1925 3103 
Q 1463 3103 1205 2759 
Q 947 2416 947 1791 
Q 947 1169 1205 825 
Q 1463 481 1925 481 
Q 2391 481 2648 825 
Q 2906 1169 2906 1791 
z
M 3481 434 
Q 3481 -459 3084 -895 
Q 2688 -1331 1869 -1331 
Q 1566 -1331 1297 -1286 
Q 1028 -1241 775 -1147 
L 775 -588 
Q 1028 -725 1275 -790 
Q 1522 -856 1778 -856 
Q 2344 -856 2625 -561 
Q 2906 -266 2906 331 
L 2906 616 
Q 2728 306 2450 153 
Q 2172 0 1784 0 
Q 1141 0 747 490 
Q 353 981 353 1791 
Q 353 2603 747 3093 
Q 1141 3584 1784 3584 
Q 2172 3584 2450 3431 
Q 2728 3278 2906 2969 
L 2906 3500 
L 3481 3500 
L 3481 434 
z
" transform="scale(0.015625)"/>
       <path id="DejaVuSans-30" d="M 2034 4250 
Q 1547 4250 1301 3770 
Q 1056 3291 1056 2328 
Q 1056 1369 1301 889 
Q 1547 409 2034 409 
Q 2525 409 2770 889 
Q 3016 1369 3016 2328 
Q 3016 3291 2770 3770 
Q 2525 4250 2034 4250 
z
M 2034 4750 
Q 2819 4750 3233 4129 
Q 3647 3509 3647 2328 
Q 3647 1150 3233 529 
Q 2819 -91 2034 -91 
Q 1250 -91 836 529 
Q 422 1150 422 2328 
Q 422 3509 836 4129 
Q 1250 4750 2034 4750 
z
" transform="scale(0.015625)"/>
       <path id="DejaVuSans-20" transform="scale(0.015625)"/>
       <path id="DejaVuSans-66" d="M 2375 4863 
L 2375 4384 
L 1825 4384 
Q 1516 4384 1395 4259 
Q 1275 4134 1275 3809 
L 1275 3500 
L 2222 3500 
L 2222 3053 
L 1275 3053 
L 1275 0 
L 697 0 
L 697 3053 
L 147 3053 
L 147 3500 
L 697 3500 
L 697 3744 
Q 697 4328 969 4595 
Q 1241 4863 1831 4863 
L 2375 4863 
z
" transform="scale(0.015625)"/>
       <path id="DejaVuSans-46" d="M 628 4666 
L 3309 4666 
L 3309 4134 
L 1259 4134 
L 1259 2759 
L 3109 2759 
L 3109 2228 
L 1259 2228 
L 1259 0 
L 628 0 
L 628 4666 
z
" transform="scale(0.015625)"/>
       <path id="DejaVuSans-45" d="M 628 4666 
L 3578 4666 
L 3578 4134 
L 1259 4134 
L 1259 2753 
L 3481 2753 
L 3481 2222 
L 1259 2222 
L 1259 531 
L 3634 531 
L 3634 0 
L 628 0 
L 628 4666 
z
" transform="scale(0.015625)"/>
       <path id="DejaVuSans-76" d="M 191 3500 
L 800 3500 
L 1894 563 
L 2988 3500 
L 3597 3500 
L 2284 0 
L 1503 0 
L 191 3500 
z
" transform="scale(0.015625)"/>
       <path id="DejaVuSans-61" d="M 2194 1759 
Q 1497 1759 1228 1600 
Q 959 1441 959 1056 
Q 959 750 1161 570 
Q 1363 391 1709 391 
Q 2188 391 2477 730 
Q 2766 1069 2766 1631 
L 2766 1759 
L 2194 1759 
z
M 3341 1997 
L 3341 0 
L 2766 0 
L 2766 531 
Q 2569 213 2275 61 
Q 1981 -91 1556 -91 
Q 1019 -91 701 211 
Q 384 513 384 1019 
Q 384 1609 779 1909 
Q 1175 2209 1959 2209 
L 2766 2209 
L 2766 2266 
Q 2766 2663 2505 2880 
Q 2244 3097 1772 3097 
Q 1472 3097 1187 3025 
Q 903 2953 641 2809 
L 641 3341 
Q 956 3463 1253 3523 
Q 1550 3584 1831 3584 
Q 2591 3584 2966 3190 
Q 3341 2797 3341 1997 
z
" transform="scale(0.015625)"/>
       <path id="DejaVuSans-73" d="M 2834 3397 
L 2834 2853 
Q 2591 2978 2328 3040 
Q 2066 3103 1784 3103 
Q 1356 3103 1142 2972 
Q 928 2841 928 2578 
Q 928 2378 1081 2264 
Q 1234 2150 1697 2047 
L 1894 2003 
Q 2506 1872 2764 1633 
Q 3022 1394 3022 966 
Q 3022 478 2636 193 
Q 2250 -91 1575 -91 
Q 1294 -91 989 -36 
Q 684 19 347 128 
L 347 722 
Q 666 556 975 473 
Q 1284 391 1588 391 
Q 1994 391 2212 530 
Q 2431 669 2431 922 
Q 2431 1156 2273 1281 
Q 2116 1406 1581 1522 
L 1381 1569 
Q 847 1681 609 1914 
Q 372 2147 372 2553 
Q 372 3047 722 3315 
Q 1072 3584 1716 3584 
Q 2034 3584 2315 3537 
Q 2597 3491 2834 3397 
z
" transform="scale(0.015625)"/>
       <path id="DejaVuSans-72" d="M 2631 2963 
Q 2534 3019 2420 3045 
Q 2306 3072 2169 3072 
Q 1681 3072 1420 2755 
Q 1159 2438 1159 1844 
L 1159 0 
L 581 0 
L 581 3500 
L 1159 3500 
L 1159 2956 
Q 1341 3275 1631 3429 
Q 1922 3584 2338 3584 
Q 2397 3584 2469 3576 
Q 2541 3569 2628 3553 
L 2631 2963 
z
" transform="scale(0.015625)"/>
       <path id="DejaVuSans-74" d="M 1172 4494 
L 1172 3500 
L 2356 3500 
L 2356 3053 
L 1172 3053 
L 1172 1153 
Q 1172 725 1289 603 
Q 1406 481 1766 481 
L 2356 481 
L 2356 0 
L 1766 0 
Q 1100 0 847 248 
Q 594 497 594 1153 
L 594 3053 
L 172 3053 
L 172 3500 
L 594 3500 
L 594 4494 
L 1172 4494 
z
" transform="scale(0.015625)"/>
       <path id="DejaVuSans-69" d="M 603 3500 
L 1178 3500 
L 1178 0 
L 603 0 
L 603 3500 
z
M 603 4863 
L 1178 4863 
L 1178 4134 
L 603 4134 
L 603 4863 
z
" transform="scale(0.015625)"/>
      </defs>
      <use xlink:href="#DejaVuSans-6c"/>
      <use xlink:href="#DejaVuSans-6f" x="27.783203"/>
      <use xlink:href="#DejaVuSans-67" x="88.964844"/>
      <use xlink:href="#DejaVuSans-31" x="152.441406"/>
      <use xlink:href="#DejaVuSans-30" x="216.064453"/>
      <use xlink:href="#DejaVuSans-20" x="279.6875"/>
      <use xlink:href="#DejaVuSans-6f" x="311.474609"/>
      <use xlink:href="#DejaVuSans-66" x="372.65625"/>
      <use xlink:href="#DejaVuSans-20" x="407.861328"/>
      <use xlink:href="#DejaVuSans-46" x="439.648438"/>
      <use xlink:href="#DejaVuSans-45" x="497.167969"/>
      <use xlink:href="#DejaVuSans-76" x="560.351562"/>
      <use xlink:href="#DejaVuSans-61" x="619.53125"/>
      <use xlink:href="#DejaVuSans-6c" x="680.810547"/>
      <use xlink:href="#DejaVuSans-73" x="708.59375"/>
      <use xlink:href="#DejaVuSans-20" x="760.693359"/>
      <use xlink:href="#DejaVuSans-72" x="792.480469"/>
      <use xlink:href="#DejaVuSans-61" x="833.59375"/>
      <use xlink:href="#DejaVuSans-74" x="894.873047"/>
      <use xlink:href="#DejaVuSans-69" x="934.082031"/>
      <use xlink:href="#DejaVuSans-6f" x="961.865234"/>
     </g>
    </g>
   </g>
   <g id="matplotlib.axis_2">
    <g id="ytick_1">
     <g id="line2d_43">
      <path d="M 34.16 288.453725 
L 453.192 288.453725 
" clip-path="url(#p48c89f369e)" style="fill: none; stroke: #b0b0b0; stroke-width: 0.8; stroke-linecap: square"/>
     </g>
     <g id="line2d_44">
      <defs>
       <path id="mdbfc33b7ab" d="M 0 0 
L -3.5 0 
" style="stroke: #000000; stroke-width: 0.8"/>
      </defs>
      <g>
       <use xlink:href="#mdbfc33b7ab" x="34.16" y="288.453725" style="stroke: #000000; stroke-width: 0.8"/>
      </g>
     </g>
    </g>
    <g id="ytick_2">
     <g id="line2d_45">
      <path d="M 34.16 217.796863 
L 453.192 217.796863 
" clip-path="url(#p48c89f369e)" style="fill: none; stroke: #b0b0b0; stroke-width: 0.8; stroke-linecap: square"/>
     </g>
     <g id="line2d_46">
      <g>
       <use xlink:href="#mdbfc33b7ab" x="34.16" y="217.796863" style="stroke: #000000; stroke-width: 0.8"/>
      </g>
     </g>
    </g>
    <g id="ytick_3">
     <g id="line2d_47">
      <path d="M 34.16 147.14 
L 453.192 147.14 
" clip-path="url(#p48c89f369e)" style="fill: none; stroke: #b0b0b0; stroke-width: 0.8; stroke-linecap: square"/>
     </g>
     <g id="line2d_48">
      <g>
       <use xlink:href="#mdbfc33b7ab" x="34.16" y="147.14" style="stroke: #000000; stroke-width: 0.8"/>
      </g>
     </g>
    </g>
    <g id="ytick_4">
     <g id="line2d_49">
      <path d="M 34.16 76.483137 
L 453.192 76.483137 
" clip-path="url(#p48c89f369e)" style="fill: none; stroke: #b0b0b0; stroke-width: 0.8; stroke-linecap: square"/>
     </g>
     <g id="line2d_50">
      <g>
       <use xlink:href="#mdbfc33b7ab" x="34.16" y="76.483137" style="stroke: #000000; stroke-width: 0.8"/>
      </g>
     </g>
    </g>
    <g id="ytick_5">
     <g id="line2d_51">
      <path d="M 34.16 5.826275 
L 453.192 5.826275 
" clip-path="url(#p48c89f369e)" style="fill: none; stroke: #b0b0b0; stroke-width: 0.8; stroke-linecap: square"/>
     </g>
     <g id="line2d_52">
      <g>
       <use xlink:href="#mdbfc33b7ab" x="34.16" y="5.826275" style="stroke: #000000; stroke-width: 0.8"/>
      </g>
     </g>
    </g>
    <g id="text_4">
     <!-- proportion of trials -->
     <g transform="translate(19.000625 240.14625)rotate(-90)scale(0.2 -0.2)">
      <defs>
       <path id="DejaVuSans-70" d="M 1159 525 
L 1159 -1331 
L 581 -1331 
L 581 3500 
L 1159 3500 
L 1159 2969 
Q 1341 3281 1617 3432 
Q 1894 3584 2278 3584 
Q 2916 3584 3314 3078 
Q 3713 2572 3713 1747 
Q 3713 922 3314 415 
Q 2916 -91 2278 -91 
Q 1894 -91 1617 61 
Q 1341 213 1159 525 
z
M 3116 1747 
Q 3116 2381 2855 2742 
Q 2594 3103 2138 3103 
Q 1681 3103 1420 2742 
Q 1159 2381 1159 1747 
Q 1159 1113 1420 752 
Q 1681 391 2138 391 
Q 2594 391 2855 752 
Q 3116 1113 3116 1747 
z
" transform="scale(0.015625)"/>
       <path id="DejaVuSans-6e" d="M 3513 2113 
L 3513 0 
L 2938 0 
L 2938 2094 
Q 2938 2591 2744 2837 
Q 2550 3084 2163 3084 
Q 1697 3084 1428 2787 
Q 1159 2491 1159 1978 
L 1159 0 
L 581 0 
L 581 3500 
L 1159 3500 
L 1159 2956 
Q 1366 3272 1645 3428 
Q 1925 3584 2291 3584 
Q 2894 3584 3203 3211 
Q 3513 2838 3513 2113 
z
" transform="scale(0.015625)"/>
      </defs>
      <use xlink:href="#DejaVuSans-70"/>
      <use xlink:href="#DejaVuSans-72" x="63.476562"/>
      <use xlink:href="#DejaVuSans-6f" x="102.339844"/>
      <use xlink:href="#DejaVuSans-70" x="163.521484"/>
      <use xlink:href="#DejaVuSans-6f" x="226.998047"/>
      <use xlink:href="#DejaVuSans-72" x="288.179688"/>
      <use xlink:href="#DejaVuSans-74" x="329.292969"/>
      <use xlink:href="#DejaVuSans-69" x="368.501953"/>
      <use xlink:href="#DejaVuSans-6f" x="396.285156"/>
      <use xlink:href="#DejaVuSans-6e" x="457.466797"/>
      <use xlink:href="#DejaVuSans-20" x="520.845703"/>
      <use xlink:href="#DejaVuSans-6f" x="552.632812"/>
      <use xlink:href="#DejaVuSans-66" x="613.814453"/>
      <use xlink:href="#DejaVuSans-20" x="649.019531"/>
      <use xlink:href="#DejaVuSans-74" x="680.806641"/>
      <use xlink:href="#DejaVuSans-72" x="720.015625"/>
      <use xlink:href="#DejaVuSans-69" x="761.128906"/>
      <use xlink:href="#DejaVuSans-61" x="788.912109"/>
      <use xlink:href="#DejaVuSans-6c" x="850.191406"/>
      <use xlink:href="#DejaVuSans-73" x="877.974609"/>
     </g>
    </g>
   </g>
   <g id="line2d_53">
    <path d="M 34.16 273.138938 
L 52.619659 273.138938 
L 52.619659 272.860487 
L 55.349012 272.860487 
L 55.349012 272.582036 
L 59.157144 272.582036 
L 59.157144 272.303585 
L 61.886497 272.303585 
L 61.886497 272.025135 
L 63.023601 272.025135 
L 63.023601 271.746684 
L 63.295366 271.746684 
L 63.295366 271.468233 
L 63.833298 271.468233 
L 63.833298 271.189783 
L 65.017272 271.189783 
L 65.017272 270.911332 
L 65.752954 270.911332 
L 65.752954 270.632881 
L 66.024718 270.632881 
L 66.024718 270.354431 
L 66.56265 270.354431 
L 66.56265 270.07598 
L 66.790634 270.07598 
L 66.790634 269.797529 
L 67.160407 269.797529 
L 67.160407 269.519079 
L 67.746625 269.519079 
L 67.746625 269.240628 
L 69.519987 269.240628 
L 69.519987 268.962177 
L 69.889759 268.962177 
L 69.889759 268.683726 
L 73.070061 268.683726 
L 73.070061 268.405276 
L 74.621147 268.405276 
L 74.621147 268.126825 
L 75.799414 268.126825 
L 75.799414 267.848374 
L 77.3505 267.848374 
L 77.3505 267.569924 
L 79.834082 267.569924 
L 79.834082 267.291473 
L 82.563435 267.291473 
L 82.563435 267.013022 
L 85.369053 267.013022 
L 85.369053 266.734572 
L 88.098406 266.734572 
L 88.098406 266.456121 
L 101.390271 266.456121 
L 101.390271 266.17767 
L 104.119624 266.17767 
L 104.119624 265.89922 
L 117.70869 265.89922 
L 117.70869 264.785417 
L 121.266742 264.785417 
L 121.266742 264.506966 
L 122.711314 264.506966 
L 122.711314 263.393163 
L 122.845433 263.393163 
L 122.845433 263.114713 
L 124.411783 263.114713 
L 124.411783 262.836262 
L 125.945438 262.836262 
L 125.945438 262.557811 
L 127.511788 262.557811 
L 127.511788 262.279361 
L 127.804227 262.279361 
L 127.804227 262.00091 
L 131.670684 262.00091 
L 131.717935 261.444008 
L 131.871898 261.444008 
L 131.942449 260.887107 
L 132.480381 260.887107 
L 132.480381 260.608656 
L 133.284285 260.608656 
L 133.284285 260.330206 
L 133.664355 260.330206 
L 133.664355 260.051755 
L 134.601251 260.051755 
L 134.626058 259.494854 
L 135.437718 259.494854 
L 135.437718 259.216403 
L 135.80749 259.216403 
L 135.80749 258.937952 
L 136.192408 258.937952 
L 136.192408 258.659502 
L 140.316019 258.659502 
L 140.399275 257.267248 
L 141.027564 257.267248 
L 141.027564 256.988797 
L 141.717144 256.988797 
L 141.717144 256.710347 
L 141.882368 256.710347 
L 141.882368 256.431896 
L 142.593914 256.431896 
L 142.593914 256.153445 
L 143.26823 256.153445 
L 143.26823 255.874995 
L 144.834274 255.874995 
L 144.834274 255.318093 
L 148.481166 255.318093 
L 148.481166 255.039643 
L 149.836898 255.039643 
L 149.836898 253.368938 
L 149.971017 253.368938 
L 149.971017 253.090488 
L 151.537367 253.090488 
L 151.537367 252.812037 
L 153.777314 252.812037 
L 153.777314 252.533586 
L 154.016137 252.533586 
L 154.016137 252.255136 
L 155.343664 252.255136 
L 155.343664 251.976685 
L 160.701723 251.976685 
L 160.701723 251.141333 
L 165.704347 251.141333 
L 165.704347 250.305981 
L 167.524859 250.305981 
L 167.524859 249.749079 
L 170.037354 249.749079 
L 170.037354 249.470629 
L 173.557383 249.470629 
L 173.557383 247.243023 
L 176.962482 247.243023 
L 176.962482 246.686122 
L 180.149187 246.686122 
L 180.149187 246.407671 
L 180.692345 246.407671 
L 180.692345 246.129221 
L 182.878539 246.129221 
L 182.878539 245.85077 
L 183.392308 245.85077 
L 183.392308 245.015418 
L 185.694969 245.015418 
L 185.694969 244.736967 
L 187.827307 244.736967 
L 187.827307 244.458516 
L 189.424833 244.458516 
L 189.424833 243.344714 
L 192.829931 243.344714 
L 192.829931 242.230911 
L 193.859831 242.230911 
L 193.859831 241.95246 
L 198.268654 241.95246 
L 198.268654 241.674009 
L 198.862455 241.674009 
L 198.862455 241.395559 
L 200.518981 241.395559 
L 200.518981 241.117108 
L 200.682967 241.117108 
L 200.682967 237.7757 
L 203.38293 237.7757 
L 203.38293 237.497249 
L 203.701872 237.497249 
L 203.701872 237.218798 
L 204.80614 237.218798 
L 204.80614 236.940348 
L 207.182738 236.940348 
L 207.182738 236.661897 
L 207.394503 236.661897 
L 207.394503 236.383446 
L 207.557902 236.383446 
L 207.605051 235.826545 
L 207.817929 235.826545 
L 207.817929 235.548094 
L 208.672596 235.548094 
L 208.75402 234.991193 
L 208.841097 234.991193 
L 208.944361 234.155841 
L 209.482293 234.155841 
L 209.482293 233.87739 
L 210.239357 233.87739 
L 210.239357 233.598939 
L 210.517892 233.598939 
L 210.517892 233.320489 
L 210.666267 233.320489 
L 210.666267 233.042038 
L 212.027585 233.042038 
L 212.027585 232.763587 
L 212.178999 232.763587 
L 212.178999 232.485137 
L 212.43963 232.485137 
L 212.43963 232.206686 
L 212.680539 232.206686 
L 212.680539 231.928235 
L 212.809402 231.928235 
L 212.820553 231.092883 
L 213.720224 231.092883 
L 213.720224 230.814433 
L 214.105814 230.814433 
L 214.142536 230.257531 
L 214.377579 230.257531 
L 214.377579 229.97908 
L 214.915511 229.97908 
L 215.025003 229.422179 
L 215.188402 229.422179 
L 215.291505 228.586827 
L 215.324644 228.586827 
L 215.366442 228.029926 
L 215.780543 228.029926 
L 215.823828 227.473024 
L 216.099485 227.473024 
L 216.099485 227.194574 
L 216.471597 227.194574 
L 216.550416 222.182461 
L 217.58668 222.182461 
L 217.693149 221.62556 
L 217.69962 221.62556 
L 217.800082 221.068658 
L 217.82525 221.068658 
L 217.872848 220.233306 
L 218.008993 220.233306 
L 218.008993 219.954856 
L 218.24262 219.954856 
L 218.280758 219.397954 
L 218.396377 219.397954 
L 218.396377 219.119504 
L 218.570681 219.119504 
L 218.570681 218.841053 
L 218.716484 218.841053 
L 218.81869 217.72725 
L 218.861579 217.72725 
L 218.861579 217.448799 
L 219.059862 217.448799 
L 219.157962 216.891898 
L 219.385869 216.891898 
L 219.429727 216.334997 
L 219.543003 216.334997 
L 219.580351 215.778095 
L 219.955515 215.778095 
L 220.002664 214.942743 
L 220.270143 214.942743 
L 220.270143 214.664292 
L 220.456005 214.664292 
L 220.491752 214.107391 
L 220.708205 214.107391 
L 220.708205 213.82894 
L 220.923747 213.82894 
L 220.985415 213.272039 
L 221.151633 213.272039 
L 221.188517 212.715138 
L 221.353714 212.715138 
L 221.353714 212.436687 
L 221.472269 212.436687 
L 221.55304 211.879786 
L 221.723486 211.879786 
L 221.776027 211.322884 
L 221.86213 211.322884 
L 221.961584 210.765983 
L 222.145799 210.765983 
L 222.145799 210.487532 
L 222.485874 210.487532 
L 222.582941 209.930631 
L 222.854705 209.930631 
L 222.924995 209.095279 
L 222.996942 209.095279 
L 222.996942 208.816828 
L 223.294768 208.816828 
L 223.392637 208.259927 
L 223.425351 208.259927 
L 223.425351 207.981476 
L 223.55601 207.981476 
L 223.55601 207.703025 
L 223.685378 207.703025 
L 223.685378 207.424575 
L 223.965138 207.424575 
L 224.023752 206.867673 
L 224.152275 206.867673 
L 224.152275 206.589222 
L 224.461163 206.589222 
L 224.461163 206.310772 
L 224.576612 206.310772 
L 224.576612 206.032321 
L 225.33012 206.032321 
L 225.33012 205.75387 
L 225.45575 205.75387 
L 225.483078 205.196969 
L 225.70336 205.196969 
L 225.728586 204.640068 
L 225.988039 204.640068 
L 226.000351 203.804716 
L 226.201181 203.804716 
L 226.201181 203.526265 
L 226.349974 203.526265 
L 226.446536 202.690913 
L 226.538283 202.690913 
L 226.538283 202.412462 
L 226.690362 202.412462 
L 226.719746 201.855561 
L 227.109712 201.855561 
L 227.173503 201.298659 
L 227.633141 201.298659 
L 227.734081 200.463307 
L 227.808551 200.463307 
L 227.808551 199.349504 
L 228.009754 199.349504 
L 228.055453 198.514152 
L 228.122251 198.514152 
L 228.192489 197.957251 
L 228.258371 197.957251 
L 228.355888 197.40035 
L 228.688002 197.40035 
L 228.688002 197.121899 
L 228.819017 197.121899 
L 228.819017 196.843448 
L 229.084469 196.843448 
L 229.184226 196.286547 
L 229.204422 196.286547 
L 229.258122 195.451195 
L 229.328507 195.451195 
L 229.328507 195.172744 
L 229.480175 195.172744 
L 229.49562 194.615843 
L 229.606539 194.615843 
L 229.639083 194.058941 
L 229.796249 194.058941 
L 229.865392 193.50204 
L 229.997256 193.50204 
L 229.997256 193.223589 
L 230.112866 193.223589 
L 230.160654 192.388237 
L 230.228818 192.388237 
L 230.276264 191.831336 
L 230.392217 191.831336 
L 230.392217 191.552885 
L 230.508514 191.552885 
L 230.531063 190.995984 
L 230.642204 190.995984 
L 230.672928 190.160632 
L 230.755508 190.160632 
L 230.86267 189.32528 
L 230.916296 189.32528 
L 231.018049 188.768378 
L 231.055851 188.768378 
L 231.166494 187.933026 
L 231.44385 187.933026 
L 231.44385 187.654575 
L 231.559459 187.654575 
L 231.595638 187.097674 
L 231.675412 187.097674 
L 231.675412 186.819223 
L 231.876211 186.819223 
L 231.876211 186.540773 
L 232.147975 186.540773 
L 232.23663 185.705421 
L 232.417866 185.705421 
L 232.417866 184.870069 
L 232.542249 184.870069 
L 232.629401 183.756266 
L 232.685907 183.756266 
L 232.704372 183.199364 
L 232.870762 183.199364 
L 232.870762 182.920914 
L 233.034161 182.920914 
L 233.034161 182.642463 
L 233.769151 182.642463 
L 233.869882 182.085562 
L 234.06798 182.085562 
L 234.133257 181.52866 
L 234.180487 181.52866 
L 234.238377 180.971759 
L 234.296656 180.971759 
L 234.397162 180.136407 
L 234.819475 180.136407 
L 234.819475 179.857956 
L 235.579851 179.857956 
L 235.643244 179.301055 
L 235.728835 179.301055 
L 235.795607 178.465703 
L 235.968444 178.465703 
L 236.053164 177.3519 
L 236.164428 177.3519 
L 236.245686 176.794999 
L 236.332164 176.794999 
L 236.332164 176.516548 
L 236.451267 176.516548 
L 236.541038 175.681196 
L 236.856455 175.681196 
L 236.922617 174.567393 
L 237.04371 174.567393 
L 237.056408 174.010492 
L 237.201542 174.010492 
L 237.300945 173.45359 
L 237.326133 173.45359 
L 237.364941 172.896689 
L 237.568 172.896689 
L 237.568 172.618238 
L 237.835403 172.618238 
L 237.92659 171.782886 
L 237.951013 171.782886 
L 237.969195 171.225985 
L 238.06503 171.225985 
L 238.084805 170.390633 
L 238.185212 170.390633 
L 238.200757 169.833731 
L 238.348611 169.833731 
L 238.394332 168.998379 
L 238.497606 168.998379 
L 238.497606 168.719929 
L 238.623236 168.719929 
L 238.648136 167.884576 
L 239.105878 167.884576 
L 239.105878 167.606126 
L 239.348226 167.606126 
L 239.393422 166.492323 
L 239.515217 166.492323 
L 239.614022 165.656971 
L 239.631806 165.656971 
L 239.662064 165.10007 
L 239.806122 165.10007 
L 239.859461 163.986267 
L 239.932133 163.986267 
L 239.969704 162.872464 
L 240.080336 162.872464 
L 240.080336 162.594013 
L 240.243735 162.594013 
L 240.354446 161.20176 
L 240.417982 161.20176 
L 240.506002 160.087957 
L 240.533935 160.087957 
L 240.543613 159.531056 
L 240.659566 159.531056 
L 240.749828 158.695704 
L 240.775863 158.695704 
L 240.842701 158.138802 
L 241.145661 158.138802 
L 241.23297 157.025 
L 241.2608 157.025 
L 241.289737 156.189647 
L 241.404997 156.189647 
L 241.503415 154.797394 
L 241.52693 154.797394 
L 241.626634 153.962042 
L 241.650351 153.962042 
L 241.662615 153.12669 
L 241.778225 153.12669 
L 241.778225 152.848239 
L 241.894177 152.848239 
L 241.986503 151.455986 
L 242.105196 151.455986 
L 242.181718 150.620634 
L 242.261366 150.620634 
L 242.261366 150.342183 
L 242.377319 150.342183 
L 242.449771 149.785282 
L 242.539068 149.785282 
L 242.539068 149.506831 
L 242.712011 149.506831 
L 242.783172 148.949929 
L 242.878483 148.949929 
L 242.878483 148.671479 
L 243.094504 148.671479 
L 243.175879 147.836127 
L 243.210114 147.836127 
L 243.30151 147.279225 
L 243.326067 147.279225 
L 243.429097 146.722324 
L 243.473757 146.722324 
L 243.473757 146.443873 
L 243.612419 146.443873 
L 243.676 137.811902 
L 243.791269 137.811902 
L 243.79887 137.255 
L 243.906879 137.255 
L 243.936792 136.698099 
L 244.022832 136.698099 
L 244.046941 136.141198 
L 244.223337 136.141198 
L 244.292295 135.584296 
L 244.409456 135.584296 
L 244.438374 135.027395 
L 244.536121 135.027395 
L 244.642319 134.192043 
L 244.726639 134.192043 
L 244.763124 133.635142 
L 244.914084 133.635142 
L 245.019263 132.521339 
L 245.03969 132.521339 
L 245.115317 131.964437 
L 245.173481 131.964437 
L 245.229553 131.407536 
L 245.304207 131.407536 
L 245.309435 130.850635 
L 245.452016 130.850635 
L 245.55479 130.015283 
L 245.655104 130.015283 
L 245.742201 129.17993 
L 245.798616 129.17993 
L 245.873571 128.344578 
L 245.968011 128.344578 
L 246.028104 127.230776 
L 246.143714 127.230776 
L 246.225158 126.395424 
L 246.259666 126.395424 
L 246.281757 125.838522 
L 246.375963 125.838522 
L 246.375963 125.560071 
L 246.511453 125.560071 
L 246.607977 124.724719 
L 246.63599 124.724719 
L 246.683501 123.610917 
L 246.799453 123.610917 
L 246.799453 123.332466 
L 246.921393 123.332466 
L 246.95076 122.775565 
L 247.039266 122.775565 
L 247.039266 122.497114 
L 247.230506 122.497114 
L 247.230506 122.218663 
L 247.459325 122.218663 
L 247.506659 121.661762 
L 247.581589 121.661762 
L 247.662306 120.82641 
L 247.918484 120.82641 
L 247.927271 120.269508 
L 248.049331 120.269508 
L 248.139731 119.155706 
L 248.206748 119.155706 
L 248.206748 118.877255 
L 248.332379 118.877255 
L 248.409353 118.041903 
L 248.490329 118.041903 
L 248.490329 117.763452 
L 248.61596 117.763452 
L 248.686692 116.371199 
L 248.779125 116.371199 
L 248.866902 115.257396 
L 248.90161 115.257396 
L 248.90161 114.978945 
L 249.07781 114.978945 
L 249.07781 114.700495 
L 249.323165 114.700495 
L 249.361391 113.865142 
L 249.441397 113.865142 
L 249.441397 113.586692 
L 249.566991 113.586692 
L 249.606745 113.02979 
L 249.681244 113.02979 
L 249.708524 111.915988 
L 249.79346 111.915988 
L 249.850571 111.080636 
L 250.050132 111.080636 
L 250.099416 110.523734 
L 250.164105 110.523734 
L 250.164105 110.245283 
L 250.298791 110.245283 
L 250.385453 109.131481 
L 250.416662 109.131481 
L 250.511083 108.296129 
L 250.703892 108.296129 
L 250.810962 107.460777 
L 250.995556 107.460777 
L 250.99888 106.903875 
L 251.127838 106.903875 
L 251.213862 106.346974 
L 251.256514 106.346974 
L 251.282461 105.511622 
L 251.387885 105.511622 
L 251.387885 105.233171 
L 251.501869 105.233171 
L 251.501869 104.95472 
L 251.695645 104.95472 
L 251.745695 104.397819 
L 251.855627 104.397819 
L 251.855627 104.119368 
L 251.979226 104.119368 
L 251.979226 103.840918 
L 252.228836 103.840918 
L 252.228836 103.562467 
L 252.408487 103.562467 
L 252.472484 103.005566 
L 252.764947 103.005566 
L 252.764947 102.727115 
L 253.055089 102.727115 
L 253.125822 101.613312 
L 253.177584 101.613312 
L 253.23239 100.77796 
L 253.407259 100.77796 
L 253.407259 100.499509 
L 253.772178 100.499509 
L 253.87435 99.942608 
L 253.93248 99.942608 
L 253.93248 99.664157 
L 254.21606 99.664157 
L 254.221663 99.107256 
L 254.340285 99.107256 
L 254.340285 98.828805 
L 254.472267 98.828805 
L 254.515586 98.271904 
L 254.68878 98.271904 
L 254.755847 97.715002 
L 255.051831 97.715002 
L 255.051831 97.436552 
L 255.168611 97.436552 
L 255.168611 97.158101 
L 255.813586 97.158101 
L 255.813586 96.87965 
L 255.95335 96.87965 
L 255.95335 96.6012 
L 256.111184 96.6012 
L 256.111184 96.322749 
L 256.239866 96.322749 
L 256.239866 96.044298 
L 256.375663 96.044298 
L 256.472545 95.487397 
L 256.605759 95.487397 
L 256.696089 94.652045 
L 257.519391 94.652045 
L 257.524632 94.095143 
L 257.653183 94.095143 
L 257.653183 93.816693 
L 257.79473 93.816693 
L 257.79473 93.538242 
L 257.977883 93.538242 
L 257.977883 93.259791 
L 258.247175 93.259791 
L 258.247175 92.981341 
L 258.974907 92.981341 
L 258.974907 92.70289 
L 259.097219 92.70289 
L 259.097219 92.424439 
L 259.543449 92.424439 
L 259.543449 90.475284 
L 259.754414 90.475284 
L 259.808765 89.918383 
L 259.98636 89.918383 
L 259.98636 89.639932 
L 260.111991 89.639932 
L 260.111991 89.361482 
L 260.412056 89.361482 
L 260.412056 89.083031 
L 260.857422 89.083031 
L 260.949611 88.247679 
L 261.040931 88.247679 
L 261.102777 87.690778 
L 261.346603 87.690778 
L 261.457077 86.855425 
L 261.601027 86.855425 
L 261.601027 86.576975 
L 261.829744 86.576975 
L 261.829744 86.298524 
L 262.007516 86.298524 
L 262.007516 86.020073 
L 262.778492 86.020073 
L 262.778492 85.741623 
L 262.982808 85.741623 
L 262.982808 85.463172 
L 263.374108 85.463172 
L 263.475257 84.62782 
L 263.499739 84.62782 
L 263.560711 83.792468 
L 263.666622 83.792468 
L 263.666622 82.678665 
L 263.995283 82.678665 
L 264.095256 82.121764 
L 264.24517 82.121764 
L 264.24517 81.843313 
L 264.490525 81.843313 
L 264.490525 81.564862 
L 264.734351 81.564862 
L 264.734351 81.286412 
L 265.217492 81.286412 
L 265.217492 81.007961 
L 265.575973 81.007961 
L 265.575973 80.72951 
L 265.712092 80.72951 
L 265.712092 80.45106 
L 266.16624 80.45106 
L 266.251879 79.894158 
L 266.863005 79.894158 
L 266.863005 79.615708 
L 266.987772 79.615708 
L 266.987772 79.337257 
L 267.80158 79.337257 
L 267.904189 78.780355 
L 267.974922 78.780355 
L 267.974922 78.501905 
L 268.752218 78.501905 
L 268.752218 78.223454 
L 268.995081 78.223454 
L 269.09984 77.666553 
L 269.42992 77.666553 
L 269.500653 77.109651 
L 269.639627 77.109651 
L 269.639627 76.831201 
L 270.242881 76.831201 
L 270.242881 76.55275 
L 270.801584 76.55275 
L 270.801584 73.768243 
L 272.558515 73.768243 
L 272.558515 73.489792 
L 274.720941 73.489792 
L 274.720941 73.211342 
L 276.834108 73.211342 
L 276.834108 72.097539 
L 276.957296 72.097539 
L 276.957296 71.819088 
L 277.520894 71.819088 
L 277.520894 71.540637 
L 278.028734 71.540637 
L 278.028734 71.262187 
L 278.523646 71.262187 
L 278.523646 70.983736 
L 278.736539 70.983736 
L 278.736539 70.705285 
L 279.534071 70.705285 
L 279.534071 69.034581 
L 280.302889 69.034581 
L 280.302889 68.756131 
L 280.836454 68.756131 
L 280.836454 68.47768 
L 281.168053 68.47768 
L 281.238786 67.920779 
L 282.402804 67.920779 
L 282.402804 67.642328 
L 282.954112 67.642328 
L 283.008989 67.085426 
L 285.016298 67.085426 
L 285.016298 66.806976 
L 286.434978 66.806976 
L 286.434978 66.528525 
L 286.669033 66.528525 
L 286.669033 62.630215 
L 286.85729 62.630215 
L 286.85729 62.351765 
L 288.006259 62.351765 
L 288.006259 62.073314 
L 290.792206 62.073314 
L 290.792206 61.516413 
L 291.431238 61.516413 
L 291.431238 61.237962 
L 292.701557 61.237962 
L 292.701557 60.40261 
L 294.576884 60.40261 
L 294.576884 60.124159 
L 295.40152 60.124159 
L 295.40152 59.845708 
L 300.724508 59.845708 
L 300.724508 59.567258 
L 301.597663 59.567258 
L 301.597663 59.288807 
L 303.031636 59.288807 
L 303.031636 59.010356 
L 303.164013 59.010356 
L 303.164013 58.731906 
L 303.959692 58.731906 
L 303.959692 58.175004 
L 304.597986 58.175004 
L 304.597986 57.896554 
L 306.659655 57.896554 
L 306.659655 55.668948 
L 308.510361 55.668948 
L 308.510361 55.390497 
L 310.015699 55.390497 
L 310.015699 55.112047 
L 313.490617 55.112047 
L 313.490617 54.833596 
L 313.794617 54.833596 
L 313.794617 53.719793 
L 315.497926 53.719793 
L 315.497926 53.441343 
L 319.827141 53.441343 
L 319.827141 51.770638 
L 322.527104 51.770638 
L 322.527104 51.213737 
L 325.798182 51.213737 
L 325.798182 50.935286 
L 327.227809 50.935286 
L 327.227809 50.656836 
L 329.74535 50.656836 
L 329.74535 50.378385 
L 330.980767 50.378385 
L 330.980767 50.099934 
L 331.2314 50.099934 
L 331.2314 49.821484 
L 333.498308 49.821484 
L 333.498308 49.543033 
L 333.785239 49.543033 
L 333.785239 48.42923 
L 334.712266 48.42923 
L 334.712266 48.150779 
L 335.134579 48.150779 
L 335.134579 47.872329 
L 336.283548 47.872329 
L 336.283548 47.593878 
L 337.161807 47.593878 
L 337.161807 47.315427 
L 337.686097 47.315427 
L 337.686097 47.036977 
L 338.756233 47.036977 
L 338.756233 46.758526 
L 339.223975 46.758526 
L 339.223975 46.480075 
L 339.679348 46.480075 
L 339.708526 45.923174 
L 340.203639 45.923174 
L 340.203639 45.644723 
L 341.273774 45.644723 
L 341.273774 45.366273 
L 341.741516 45.366273 
L 341.741516 45.087822 
L 342.854172 45.087822 
L 342.854172 44.809371 
L 346.343255 44.809371 
L 346.343255 44.530921 
L 346.952725 44.530921 
L 346.952725 43.417118 
L 347.780403 43.417118 
L 347.780403 43.138667 
L 348.860796 43.138667 
L 348.969374 42.581766 
L 349.001796 42.581766 
L 349.001796 42.303315 
L 349.652688 42.303315 
L 349.652688 41.189512 
L 350.297945 41.189512 
L 350.297945 40.911062 
L 350.929059 40.911062 
L 350.929059 40.632611 
L 351.486915 40.632611 
L 351.486915 40.35416 
L 353.4466 40.35416 
L 353.4466 40.075709 
L 355.169927 40.075709 
L 355.169927 39.797259 
L 356.78765 39.797259 
L 356.78765 39.518808 
L 357.687469 39.518808 
L 357.687469 39.240357 
L 358.292987 39.240357 
L 358.292987 38.961907 
L 359.926862 38.961907 
L 359.926862 38.683456 
L 361.767905 38.683456 
L 361.767905 38.405005 
L 362.444404 38.405005 
L 362.444404 38.126555 
L 363.039443 38.126555 
L 363.039443 37.848104 
L 363.775214 37.848104 
L 363.775214 37.569653 
L 364.818686 37.569653 
L 364.818686 37.291203 
L 366.792401 37.291203 
L 366.792401 37.012752 
L 366.918602 37.012752 
L 366.918602 36.734301 
L 368.571644 36.734301 
L 368.571644 36.45585 
L 370.67156 36.45585 
L 370.67156 36.1774 
L 372.973441 36.1774 
L 372.973441 35.898949 
L 373.497732 35.898949 
L 373.497732 35.620498 
L 374.567867 35.620498 
L 374.567867 35.342048 
L 374.752685 35.342048 
L 374.752685 35.063597 
L 375.035609 35.063597 
L 375.035609 34.785146 
L 375.276975 34.785146 
L 375.276975 34.506696 
L 376.347111 34.506696 
L 376.347111 34.228245 
L 376.814853 34.228245 
L 376.8526 33.671344 
L 377.37689 33.671344 
L 377.37689 33.392893 
L 378.447026 33.392893 
L 378.447026 33.114442 
L 378.914768 33.114442 
L 378.914768 32.835992 
L 382.154889 32.835992 
L 382.154889 32.557541 
L 383.592037 32.557541 
L 383.592037 32.27909 
L 383.934133 32.27909 
L 383.934133 32.000639 
L 384.781008 32.000639 
L 384.781008 31.722189 
L 385.371281 31.722189 
L 385.371281 31.443738 
L 386.034048 31.443738 
L 386.034048 31.165287 
L 386.560252 31.165287 
L 386.560252 30.886837 
L 386.740693 30.886837 
L 386.740693 30.608386 
L 387.471196 30.608386 
L 387.471196 30.329935 
L 387.67981 30.329935 
L 387.67981 30.051485 
L 388.519936 30.051485 
L 388.519936 29.773034 
L 388.660167 29.773034 
L 388.660167 29.494583 
L 389.113783 29.494583 
L 389.113783 29.216133 
L 390.619852 29.216133 
L 390.619852 28.937682 
L 390.981562 28.937682 
L 390.981562 28.659231 
L 391.432768 28.659231 
L 391.432768 28.38078 
L 392.760805 28.38078 
L 392.866741 27.823879 
L 394.86072 27.823879 
L 394.86072 27.545428 
L 395.738496 27.545428 
L 395.738496 27.266978 
L 397.51774 27.266978 
L 397.613808 26.710076 
L 398.138099 26.710076 
L 398.138099 26.431626 
L 399.047782 26.431626 
L 399.047782 26.153175 
L 399.208234 26.153175 
L 399.208234 25.874724 
L 399.572072 25.874724 
L 399.675976 25.039372 
L 400.642208 25.039372 
L 400.642208 24.760921 
L 401.10995 24.760921 
L 401.10995 24.482471 
L 406.795256 24.482471 
L 406.795256 24.20402 
L 408.22923 24.20402 
L 408.232405 23.647119 
L 409.421375 23.647119 
L 409.421375 23.368668 
L 409.666378 23.368668 
L 409.666378 23.090217 
L 410.855349 23.090217 
L 410.855349 22.811767 
L 411.38106 22.811767 
L 411.38106 22.533316 
L 412.815034 22.533316 
L 412.815034 22.254865 
L 415.621929 22.254865 
L 415.621929 21.976415 
L 417.055902 21.976415 
L 417.055902 21.697964 
L 420.378863 21.697964 
L 420.378863 21.419513 
L 421.812837 21.419513 
L 421.812837 21.141062 
L 453.192 21.141062 
L 453.192 21.141062 
" clip-path="url(#p48c89f369e)" style="fill: none; stroke: #000000; stroke-width: 3; stroke-linecap: square"/>
   </g>
   <g id="line2d_54">
    <path clip-path="url(#p48c89f369e)" style="fill: none; stroke: #000000; stroke-width: 3; stroke-linecap: square"/>
   </g>
   <g id="line2d_55">
    <path d="M 34.16 141.27074 
L 124.863987 141.27074 
L 124.863987 140.367777 
L 125.223616 140.367777 
L 125.223616 139.464814 
L 137.780587 139.464814 
L 137.780587 138.561851 
L 138.140217 138.561851 
L 138.140217 137.658887 
L 159.923447 137.658887 
L 159.923447 136.755924 
L 169.847208 136.755924 
L 169.847208 135.852961 
L 171.000457 135.852961 
L 171.000457 134.949998 
L 172.840047 134.949998 
L 172.840047 134.047035 
L 183.069461 134.047035 
L 183.069461 133.144072 
L 184.901615 133.144072 
L 184.901615 132.241109 
L 205.919037 132.241109 
L 205.919037 131.338146 
L 206.588199 131.338146 
L 206.588199 130.435183 
L 207.072287 130.435183 
L 207.072287 129.53222 
L 212.279312 129.53222 
L 212.279312 128.629256 
L 212.638941 128.629256 
L 212.638941 127.726293 
L 214.047409 127.726293 
L 214.047409 126.82333 
L 215.200658 126.82333 
L 215.217603 125.017404 
L 216.370852 125.017404 
L 216.370852 124.114441 
L 219.141291 124.114441 
L 219.141291 123.211478 
L 220.973444 123.211478 
L 220.973444 122.308515 
L 225.280606 122.308515 
L 225.280606 121.405552 
L 226.190301 121.405552 
L 226.190301 120.502588 
L 226.433855 120.502588 
L 226.433855 119.599625 
L 227.269662 119.599625 
L 227.34355 117.793699 
L 228.439856 117.793699 
L 228.439856 116.890736 
L 229.101816 116.890736 
L 229.101816 115.987773 
L 230.27201 115.987773 
L 230.27201 115.08481 
L 232.57182 115.08481 
L 232.57182 114.181847 
L 233.725069 114.181847 
L 233.725069 113.278884 
L 236.922683 113.278884 
L 236.922683 112.375921 
L 237.897694 112.375921 
L 237.897694 111.472957 
L 238.075932 111.472957 
L 238.075932 110.569994 
L 238.502859 110.569994 
L 238.502859 109.667031 
L 239.050943 109.667031 
L 239.050943 108.764068 
L 239.397441 108.764068 
L 239.412554 106.958142 
L 240.335013 106.958142 
L 240.335013 106.055179 
L 240.55069 106.055179 
L 240.55069 105.152216 
L 241.244708 105.152216 
L 241.244708 104.249253 
L 242.660029 104.249253 
L 242.660029 103.34629 
L 245.769591 103.34629 
L 245.794073 101.540363 
L 246.12922 101.540363 
L 246.12922 100.6374 
L 247.096502 100.6374 
L 247.116543 98.831474 
L 247.338772 98.831474 
L 247.338772 97.928511 
L 247.626227 97.928511 
L 247.626227 97.025548 
L 250.144936 97.025548 
L 250.144936 96.122585 
L 250.788401 96.122585 
L 250.788401 95.219622 
L 251.119947 95.219622 
L 251.119947 94.316659 
L 251.707094 94.316659 
L 251.707094 93.413695 
L 251.958594 93.413695 
L 251.97709 91.607769 
L 252.619694 91.607769 
L 252.619694 90.704806 
L 252.860343 90.704806 
L 252.952101 88.89888 
L 254.451848 88.89888 
L 254.451848 87.995917 
L 255.819138 87.995917 
L 255.819138 87.092954 
L 256.972387 87.092954 
L 256.972387 86.189991 
L 260.013103 86.189991 
L 260.013103 85.287028 
L 262.021598 85.287028 
L 262.021598 84.384064 
L 262.931293 84.384064 
L 262.931293 83.481101 
L 264.929347 83.481101 
L 264.929347 82.578138 
L 266.761501 82.578138 
L 266.761501 81.675175 
L 268.474672 81.675175 
L 268.474672 80.772212 
L 268.834301 80.772212 
L 268.834301 79.869249 
L 269.041391 79.869249 
L 269.041391 78.966286 
L 269.312812 78.966286 
L 269.312812 78.063323 
L 270.873545 78.063323 
L 270.873545 77.16036 
L 273.663674 77.16036 
L 273.663674 76.257396 
L 274.638685 76.257396 
L 274.638685 75.354433 
L 276.138432 75.354433 
L 276.138432 74.45147 
L 280.82905 74.45147 
L 280.82905 73.548507 
L 283.188373 73.548507 
L 283.188373 72.645544 
L 288.448085 72.645544 
L 288.448085 71.742581 
L 291.316745 71.742581 
L 291.316745 70.839618 
L 292.486938 70.839618 
L 292.560129 69.033692 
L 302.549942 69.033692 
L 302.549942 68.130729 
L 303.459637 68.130729 
L 303.534132 66.324802 
L 309.841156 66.324802 
L 309.841156 65.421839 
L 314.192018 65.421839 
L 314.192018 64.518876 
L 315.167029 64.518876 
L 315.167029 63.615913 
L 316.666776 63.615913 
L 316.666776 62.71295 
L 328.976429 62.71295 
L 328.976429 61.809987 
L 333.088473 61.809987 
L 333.088473 60.907024 
L 334.511828 60.907024 
L 334.511828 60.004061 
L 368.002106 60.004061 
L 368.002106 59.101098 
L 390.707188 59.101098 
L 390.707188 58.198134 
L 453.192 58.198134 
L 453.192 58.198134 
" clip-path="url(#p48c89f369e)" style="fill: none; stroke: #00bfbf; stroke-width: 3; stroke-linecap: square"/>
   </g>
   <g id="line2d_56">
    <path clip-path="url(#p48c89f369e)" style="fill: none; stroke: #00bfbf; stroke-width: 3; stroke-linecap: square"/>
   </g>
   <g id="line2d_57">
    <path d="M 34.16 153.284075 
L 144.937607 153.284075 
L 144.937607 150.826445 
L 145.283196 150.826445 
L 145.283196 148.368815 
L 151.372143 148.368815 
L 151.372143 145.911185 
L 151.717732 145.911185 
L 151.717732 143.453555 
L 178.49836 143.453555 
L 178.49836 140.995925 
L 184.932896 140.995925 
L 184.932896 138.538295 
L 213.410965 138.538295 
L 213.410965 136.080665 
L 213.756554 136.080665 
L 213.756554 133.623035 
L 242.967535 133.623035 
L 242.967535 131.165405 
L 245.680691 131.165405 
L 245.680691 128.707775 
L 246.02628 128.707775 
L 246.02628 126.250145 
L 246.971718 126.250145 
L 246.971718 123.792515 
L 249.40207 123.792515 
L 249.40207 121.334885 
L 268.440477 121.334885 
L 268.440477 118.877255 
L 268.786066 118.877255 
L 268.786066 116.419625 
L 279.241444 116.419625 
L 279.241444 113.961995 
L 302.00123 113.961995 
L 302.00123 111.504365 
L 311.440892 111.504365 
L 311.440892 109.046735 
L 343.710618 109.046735 
L 343.710618 106.589105 
L 366.470404 106.589105 
L 366.470404 104.131475 
L 453.192 104.131475 
" clip-path="url(#p48c89f369e)" style="fill: none; stroke: #bf00bf; stroke-width: 3; stroke-linecap: square"/>
   </g>
   <g id="line2d_58">
    <path clip-path="url(#p48c89f369e)" style="fill: none; stroke: #bf00bf; stroke-width: 3; stroke-linecap: square"/>
   </g>
   <g id="line2d_59">
    <path d="M 34.16 153.284075 
L 157.491353 153.284075 
L 157.491353 150.826445 
L 158.229815 150.826445 
L 158.229815 148.368815 
L 163.5006 148.368815 
L 163.5006 145.911185 
L 164.239063 145.911185 
L 164.239063 143.453555 
L 189.99397 143.453555 
L 189.99397 140.995925 
L 196.003218 140.995925 
L 196.003218 138.538295 
L 214.399023 138.538295 
L 214.399023 136.080665 
L 215.137485 136.080665 
L 215.137485 133.623035 
L 241.478777 133.623035 
L 241.478777 131.165405 
L 244.853333 131.165405 
L 244.853333 128.707775 
L 245.591795 128.707775 
L 245.591795 126.250145 
L 246.90164 126.250145 
L 246.90164 123.792515 
L 247.488024 123.792515 
L 247.488024 121.334885 
L 268.404476 121.334885 
L 268.404476 118.877255 
L 269.142939 118.877255 
L 269.142939 116.419625 
L 277.35595 116.419625 
L 277.35595 113.961995 
L 298.386446 113.961995 
L 298.386446 111.504365 
L 300.907094 111.504365 
L 300.907094 109.046735 
L 328.840757 109.046735 
L 328.840757 106.589105 
L 352.3919 106.589105 
L 352.3919 104.131475 
L 453.192 104.131475 
" clip-path="url(#p48c89f369e)" style="fill: none; stroke: #ff0000; stroke-width: 3; stroke-linecap: square"/>
   </g>
   <g id="line2d_60">
    <path clip-path="url(#p48c89f369e)" style="fill: none; stroke: #ff0000; stroke-width: 3; stroke-linecap: square"/>
   </g>
   <g id="line2d_61">
    <path d="M 243.676 291.28 
L 243.676 3 
" clip-path="url(#p48c89f369e)" style="fill: none; stroke: #000000; stroke-width: 1.5; stroke-linecap: square"/>
   </g>
   <g id="line2d_62">
    <path d="M 34.16 147.14 
L 453.192 147.14 
" clip-path="url(#p48c89f369e)" style="fill: none; stroke-dasharray: 2,3.3; stroke-dashoffset: 0; stroke: #000000; stroke-width: 2"/>
   </g>
   <g id="patch_3">
    <path d="M 34.16 291.28 
L 34.16 3 
" style="fill: none; stroke: #000000; stroke-width: 0.8; stroke-linejoin: miter; stroke-linecap: square"/>
   </g>
   <g id="patch_4">
    <path d="M 453.192 291.28 
L 453.192 3 
" style="fill: none; stroke: #000000; stroke-width: 0.8; stroke-linejoin: miter; stroke-linecap: square"/>
   </g>
   <g id="patch_5">
    <path d="M 34.16 291.28 
L 453.192 291.28 
" style="fill: none; stroke: #000000; stroke-width: 0.8; stroke-linejoin: miter; stroke-linecap: square"/>
   </g>
   <g id="patch_6">
    <path d="M 34.16 3 
L 453.192 3 
" style="fill: none; stroke: #000000; stroke-width: 0.8; stroke-linejoin: miter; stroke-linecap: square"/>
   </g>
   <g id="text_5">
    <!-- f20-f24,20-D -->
    <g transform="translate(318.19261 285.5144)scale(0.2 -0.2)">
     <defs>
      <path id="DejaVuSans-32" d="M 1228 531 
L 3431 531 
L 3431 0 
L 469 0 
L 469 531 
Q 828 903 1448 1529 
Q 2069 2156 2228 2338 
Q 2531 2678 2651 2914 
Q 2772 3150 2772 3378 
Q 2772 3750 2511 3984 
Q 2250 4219 1831 4219 
Q 1534 4219 1204 4116 
Q 875 4013 500 3803 
L 500 4441 
Q 881 4594 1212 4672 
Q 1544 4750 1819 4750 
Q 2544 4750 2975 4387 
Q 3406 4025 3406 3419 
Q 3406 3131 3298 2873 
Q 3191 2616 2906 2266 
Q 2828 2175 2409 1742 
Q 1991 1309 1228 531 
z
" transform="scale(0.015625)"/>
      <path id="DejaVuSans-34" d="M 2419 4116 
L 825 1625 
L 2419 1625 
L 2419 4116 
z
M 2253 4666 
L 3047 4666 
L 3047 1625 
L 3713 1625 
L 3713 1100 
L 3047 1100 
L 3047 0 
L 2419 0 
L 2419 1100 
L 313 1100 
L 313 1709 
L 2253 4666 
z
" transform="scale(0.015625)"/>
      <path id="DejaVuSans-2c" d="M 750 794 
L 1409 794 
L 1409 256 
L 897 -744 
L 494 -744 
L 750 256 
L 750 794 
z
" transform="scale(0.015625)"/>
      <path id="DejaVuSans-44" d="M 1259 4147 
L 1259 519 
L 2022 519 
Q 2988 519 3436 956 
Q 3884 1394 3884 2338 
Q 3884 3275 3436 3711 
Q 2988 4147 2022 4147 
L 1259 4147 
z
M 628 4666 
L 1925 4666 
Q 3281 4666 3915 4102 
Q 4550 3538 4550 2338 
Q 4550 1131 3912 565 
Q 3275 0 1925 0 
L 628 0 
L 628 4666 
z
" transform="scale(0.015625)"/>
     </defs>
     <use xlink:href="#DejaVuSans-66"/>
     <use xlink:href="#DejaVuSans-32" x="35.205078"/>
     <use xlink:href="#DejaVuSans-30" x="98.828125"/>
     <use xlink:href="#DejaVuSans-2d" x="162.451172"/>
     <use xlink:href="#DejaVuSans-66" x="198.535156"/>
     <use xlink:href="#DejaVuSans-32" x="233.740234"/>
     <use xlink:href="#DejaVuSans-34" x="297.363281"/>
     <use xlink:href="#DejaVuSans-2c" x="360.986328"/>
     <use xlink:href="#DejaVuSans-32" x="392.773438"/>
     <use xlink:href="#DejaVuSans-30" x="456.396484"/>
     <use xlink:href="#DejaVuSans-2d" x="520.019531"/>
     <use xlink:href="#DejaVuSans-44" x="556.103516"/>
    </g>
   </g>
   <g id="text_6">
    <!-- v2.6.3.10 -->
    <g style="fill: #808080" transform="translate(220.043187 286.317512)scale(0.1 -0.1)">
     <defs>
      <path id="DejaVuSans-2e" d="M 684 794 
L 1344 794 
L 1344 0 
L 684 0 
L 684 794 
z
" transform="scale(0.015625)"/>
      <path id="DejaVuSans-36" d="M 2113 2584 
Q 1688 2584 1439 2293 
Q 1191 2003 1191 1497 
Q 1191 994 1439 701 
Q 1688 409 2113 409 
Q 2538 409 2786 701 
Q 3034 994 3034 1497 
Q 3034 2003 2786 2293 
Q 2538 2584 2113 2584 
z
M 3366 4563 
L 3366 3988 
Q 3128 4100 2886 4159 
Q 2644 4219 2406 4219 
Q 1781 4219 1451 3797 
Q 1122 3375 1075 2522 
Q 1259 2794 1537 2939 
Q 1816 3084 2150 3084 
Q 2853 3084 3261 2657 
Q 3669 2231 3669 1497 
Q 3669 778 3244 343 
Q 2819 -91 2113 -91 
Q 1303 -91 875 529 
Q 447 1150 447 2328 
Q 447 3434 972 4092 
Q 1497 4750 2381 4750 
Q 2619 4750 2861 4703 
Q 3103 4656 3366 4563 
z
" transform="scale(0.015625)"/>
      <path id="DejaVuSans-33" d="M 2597 2516 
Q 3050 2419 3304 2112 
Q 3559 1806 3559 1356 
Q 3559 666 3084 287 
Q 2609 -91 1734 -91 
Q 1441 -91 1130 -33 
Q 819 25 488 141 
L 488 750 
Q 750 597 1062 519 
Q 1375 441 1716 441 
Q 2309 441 2620 675 
Q 2931 909 2931 1356 
Q 2931 1769 2642 2001 
Q 2353 2234 1838 2234 
L 1294 2234 
L 1294 2753 
L 1863 2753 
Q 2328 2753 2575 2939 
Q 2822 3125 2822 3475 
Q 2822 3834 2567 4026 
Q 2313 4219 1838 4219 
Q 1578 4219 1281 4162 
Q 984 4106 628 3988 
L 628 4550 
Q 988 4650 1302 4700 
Q 1616 4750 1894 4750 
Q 2613 4750 3031 4423 
Q 3450 4097 3450 3541 
Q 3450 3153 3228 2886 
Q 3006 2619 2597 2516 
z
" transform="scale(0.015625)"/>
     </defs>
     <use xlink:href="#DejaVuSans-76"/>
     <use xlink:href="#DejaVuSans-32" x="59.179688"/>
     <use xlink:href="#DejaVuSans-2e" x="122.802734"/>
     <use xlink:href="#DejaVuSans-36" x="154.589844"/>
     <use xlink:href="#DejaVuSans-2e" x="218.212891"/>
     <use xlink:href="#DejaVuSans-33" x="250"/>
     <use xlink:href="#DejaVuSans-2e" x="313.623047"/>
     <use xlink:href="#DejaVuSans-31" x="345.410156"/>
     <use xlink:href="#DejaVuSans-30" x="409.033203"/>
    </g>
   </g>
   <g id="legend_1">
    <g id="patch_7">
     <path d="M 309.970125 281.28 
L 439.192 281.28 
Q 443.192 281.28 443.192 277.28 
L 443.192 161.855 
Q 443.192 157.855 439.192 157.855 
L 309.970125 157.855 
Q 305.970125 157.855 305.970125 161.855 
L 305.970125 277.28 
Q 305.970125 281.28 309.970125 281.28 
z
" style="fill: #ffffff; opacity: 0.2; stroke: #cccccc; stroke-linejoin: miter"/>
    </g>
    <g id="line2d_63">
     <path d="M 313.970125 174.051875 
L 333.970125 174.051875 
L 353.970125 174.051875 
" style="fill: none; stroke: #000000; stroke-width: 3; stroke-linecap: square"/>
    </g>
    <g id="text_7">
     <!-- 1: 5/5 -->
     <g transform="translate(369.970125 181.051875)scale(0.2 -0.2)">
      <defs>
       <path id="DejaVuSans-3a" d="M 750 794 
L 1409 794 
L 1409 0 
L 750 0 
L 750 794 
z
M 750 3309 
L 1409 3309 
L 1409 2516 
L 750 2516 
L 750 3309 
z
" transform="scale(0.015625)"/>
       <path id="DejaVuSans-35" d="M 691 4666 
L 3169 4666 
L 3169 4134 
L 1269 4134 
L 1269 2991 
Q 1406 3038 1543 3061 
Q 1681 3084 1819 3084 
Q 2600 3084 3056 2656 
Q 3513 2228 3513 1497 
Q 3513 744 3044 326 
Q 2575 -91 1722 -91 
Q 1428 -91 1123 -41 
Q 819 9 494 109 
L 494 744 
Q 775 591 1075 516 
Q 1375 441 1709 441 
Q 2250 441 2565 725 
Q 2881 1009 2881 1497 
Q 2881 1984 2565 2268 
Q 2250 2553 1709 2553 
Q 1456 2553 1204 2497 
Q 953 2441 691 2322 
L 691 4666 
z
" transform="scale(0.015625)"/>
       <path id="DejaVuSans-2f" d="M 1625 4666 
L 2156 4666 
L 531 -594 
L 0 -594 
L 1625 4666 
z
" transform="scale(0.015625)"/>
      </defs>
      <use xlink:href="#DejaVuSans-31"/>
      <use xlink:href="#DejaVuSans-3a" x="63.623047"/>
      <use xlink:href="#DejaVuSans-20" x="97.314453"/>
      <use xlink:href="#DejaVuSans-35" x="129.101562"/>
      <use xlink:href="#DejaVuSans-2f" x="192.724609"/>
      <use xlink:href="#DejaVuSans-35" x="226.416016"/>
     </g>
    </g>
    <g id="line2d_64">
     <path d="M 313.970125 203.408125 
L 333.970125 203.408125 
L 353.970125 203.408125 
" style="fill: none; stroke: #00bfbf; stroke-width: 3; stroke-linecap: square"/>
    </g>
    <g id="text_8">
     <!-- -1: 2/2 -->
     <g transform="translate(369.970125 210.408125)scale(0.2 -0.2)">
      <use xlink:href="#DejaVuSans-2d"/>
      <use xlink:href="#DejaVuSans-31" x="36.083984"/>
      <use xlink:href="#DejaVuSans-3a" x="99.707031"/>
      <use xlink:href="#DejaVuSans-20" x="133.398438"/>
      <use xlink:href="#DejaVuSans-32" x="165.185547"/>
      <use xlink:href="#DejaVuSans-2f" x="228.808594"/>
      <use xlink:href="#DejaVuSans-32" x="262.5"/>
     </g>
    </g>
    <g id="line2d_65">
     <path d="M 313.970125 232.764375 
L 333.970125 232.764375 
L 353.970125 232.764375 
" style="fill: none; stroke: #bf00bf; stroke-width: 3; stroke-linecap: square"/>
    </g>
    <g id="text_9">
     <!-- -4: 1/1 -->
     <g transform="translate(369.970125 239.764375)scale(0.2 -0.2)">
      <use xlink:href="#DejaVuSans-2d"/>
      <use xlink:href="#DejaVuSans-34" x="36.083984"/>
      <use xlink:href="#DejaVuSans-3a" x="99.707031"/>
      <use xlink:href="#DejaVuSans-20" x="133.398438"/>
      <use xlink:href="#DejaVuSans-31" x="165.185547"/>
      <use xlink:href="#DejaVuSans-2f" x="228.808594"/>
      <use xlink:href="#DejaVuSans-31" x="262.5"/>
     </g>
    </g>
    <g id="line2d_66">
     <path d="M 313.970125 262.120625 
L 333.970125 262.120625 
L 353.970125 262.120625 
" style="fill: none; stroke: #ff0000; stroke-width: 3; stroke-linecap: square"/>
    </g>
    <g id="text_10">
     <!-- -8: 1/1 -->
     <g transform="translate(369.970125 269.120625)scale(0.2 -0.2)">
      <defs>
       <path id="DejaVuSans-38" d="M 2034 2216 
Q 1584 2216 1326 1975 
Q 1069 1734 1069 1313 
Q 1069 891 1326 650 
Q 1584 409 2034 409 
Q 2484 409 2743 651 
Q 3003 894 3003 1313 
Q 3003 1734 2745 1975 
Q 2488 2216 2034 2216 
z
M 1403 2484 
Q 997 2584 770 2862 
Q 544 3141 544 3541 
Q 544 4100 942 4425 
Q 1341 4750 2034 4750 
Q 2731 4750 3128 4425 
Q 3525 4100 3525 3541 
Q 3525 3141 3298 2862 
Q 3072 2584 2669 2484 
Q 3125 2378 3379 2068 
Q 3634 1759 3634 1313 
Q 3634 634 3220 271 
Q 2806 -91 2034 -91 
Q 1263 -91 848 271 
Q 434 634 434 1313 
Q 434 1759 690 2068 
Q 947 2378 1403 2484 
z
M 1172 3481 
Q 1172 3119 1398 2916 
Q 1625 2713 2034 2713 
Q 2441 2713 2670 2916 
Q 2900 3119 2900 3481 
Q 2900 3844 2670 4047 
Q 2441 4250 2034 4250 
Q 1625 4250 1398 4047 
Q 1172 3844 1172 3481 
z
" transform="scale(0.015625)"/>
      </defs>
      <use xlink:href="#DejaVuSans-2d"/>
      <use xlink:href="#DejaVuSans-38" x="36.083984"/>
      <use xlink:href="#DejaVuSans-3a" x="99.707031"/>
      <use xlink:href="#DejaVuSans-20" x="133.398438"/>
      <use xlink:href="#DejaVuSans-31" x="165.185547"/>
      <use xlink:href="#DejaVuSans-2f" x="228.808594"/>
      <use xlink:href="#DejaVuSans-31" x="262.5"/>
     </g>
    </g>
   </g>
  </g>
 </g>
 <defs>
  <clipPath id="p48c89f369e">
   <rect x="34.16" y="3" width="419.032" height="288.28"/>
  </clipPath>
 </defs>
</svg>
