<?xml version="1.0" encoding="utf-8" standalone="no"?>
<!DOCTYPE svg PUBLIC "-//W3C//DTD SVG 1.1//EN"
  "http://www.w3.org/Graphics/SVG/1.1/DTD/svg11.dtd">
<svg xmlns:xlink="http://www.w3.org/1999/xlink" width="460.8pt" height="345.6pt" viewBox="0 0 460.8 345.6" xmlns="http://www.w3.org/2000/svg" version="1.1">
 <metadata>
  <rdf:RDF xmlns:dc="http://purl.org/dc/elements/1.1/" xmlns:cc="http://creativecommons.org/ns#" xmlns:rdf="http://www.w3.org/1999/02/22-rdf-syntax-ns#">
   <cc:Work>
    <dc:type rdf:resource="http://purl.org/dc/dcmitype/StillImage"/>
    <dc:date>2023-05-09T15:04:42.842610</dc:date>
    <dc:format>image/svg+xml</dc:format>
    <dc:creator>
     <cc:Agent>
      <dc:title>Matplotlib v3.5.2, https://matplotlib.org/</dc:title>
     </cc:Agent>
    </dc:creator>
   </cc:Work>
  </rdf:RDF>
 </metadata>
 <defs>
  <style type="text/css">*{stroke-linejoin: round; stroke-linecap: butt}</style>
 </defs>
 <g id="figure_1">
  <g id="patch_1">
   <path d="M 0 345.6 
L 460.8 345.6 
L 460.8 0 
L 0 0 
z
" style="fill: #ffffff"/>
  </g>
  <g id="axes_1">
   <g id="patch_2">
    <path d="M 62.208 293.76 
L 460.8 293.76 
L 460.8 3.456 
L 62.208 3.456 
z
" style="fill: #ffffff"/>
   </g>
   <g id="line2d_1"/>
   <g id="line2d_2"/>
   <g id="line2d_3"/>
   <g id="line2d_4"/>
   <g id="line2d_5"/>
   <g id="line2d_6"/>
   <g id="line2d_7"/>
   <g id="line2d_8"/>
   <g id="line2d_9">
    <path d="M 383.88834 293.76 
L 383.88834 289.927604 
L 404.354907 289.927604 
L 404.354907 286.095208 
L 411.246445 286.095208 
L 411.246445 282.262812 
L 412.17106 282.262812 
L 412.17106 278.430416 
L 412.835608 278.430416 
L 412.835608 274.59802 
L 413.174187 274.59802 
L 413.174187 270.765624 
L 413.767787 270.765624 
L 413.767787 266.933228 
L 414.959078 266.933228 
L 415.009844 259.268436 
L 416.281952 259.268436 
L 416.281952 255.43604 
L 417.273582 255.43604 
L 417.273582 251.603644 
L 417.642327 251.603644 
L 417.642327 247.771248 
L 417.962796 247.771248 
L 417.962796 243.938851 
L 418.290236 243.938851 
L 418.290236 240.106455 
L 418.735629 240.106455 
L 418.793792 232.441663 
L 418.946705 232.441663 
L 418.946705 228.609267 
L 420.553146 228.609267 
L 420.553146 224.776871 
L 420.903677 224.776871 
L 420.903677 220.944475 
L 434.456622 220.944475 
L 434.456622 217.112079 
L 437.430412 217.112079 
L 437.430412 213.279683 
L 440.496468 213.279683 
L 440.496468 209.447287 
L 442.947007 209.447287 
L 442.947007 205.614891 
L 444.682373 205.614891 
L 444.682373 201.782495 
L 445.198928 201.782495 
L 445.198928 197.950099 
L 447.068557 197.950099 
L 447.068557 194.117703 
L 448.021933 194.117703 
L 448.043282 186.452911 
L 449.682955 186.452911 
L 449.682955 182.620515 
L 450.260145 182.620515 
L 450.260145 178.788119 
L 450.687834 178.788119 
L 450.687834 174.955723 
L 450.865449 174.955723 
L 450.865449 171.123327 
L 451.281388 171.123327 
L 451.281388 167.290931 
L 451.437304 167.290931 
L 451.437304 163.458535 
L 452.257708 163.458535 
L 452.257708 159.626139 
L 453.167679 159.626139 
L 453.167679 155.793743 
L 454.054631 155.793743 
L 454.054631 151.961347 
L 454.435803 151.961347 
L 454.435803 148.12895 
L 455.709572 148.12895 
L 455.709572 144.296554 
L 457.895225 144.296554 
L 457.895225 140.464158 
L 461.8 140.464158 
L 461.8 140.464158 
" clip-path="url(#pbfcd5ee8bf)" style="fill: none; stroke: #f5deb3; stroke-width: 1.5; stroke-linecap: square"/>
   </g>
   <g id="line2d_10"/>
   <g id="line2d_11"/>
   <g id="line2d_12"/>
   <g id="line2d_13"/>
   <g id="line2d_14"/>
   <g id="line2d_15"/>
   <g id="line2d_16"/>
   <g id="line2d_17"/>
   <g id="line2d_18"/>
   <g id="line2d_19"/>
   <g id="line2d_20"/>
   <g id="line2d_21"/>
   <g id="line2d_22"/>
   <g id="line2d_23"/>
   <g id="line2d_24">
    <path d="M 399.33465 293.76 
L 399.33465 289.927604 
L 402.625989 289.927604 
L 402.668463 282.262812 
L 446.561529 282.262812 
L 446.561529 278.430416 
L 446.700811 278.430416 
L 446.700811 274.59802 
L 450.011173 274.59802 
L 450.011173 270.765624 
L 450.75263 270.765624 
L 450.75263 266.933228 
L 451.107526 266.933228 
L 451.107526 263.100832 
L 454.089678 263.100832 
L 454.089678 259.268436 
L 457.257316 259.268436 
L 457.257316 255.43604 
L 457.447846 255.43604 
L 457.447846 251.603644 
L 461.8 251.603644 
L 461.8 251.603644 
" clip-path="url(#pbfcd5ee8bf)" style="fill: none; stroke: #f5deb3; stroke-width: 1.5; stroke-linecap: square"/>
   </g>
   <g id="line2d_25">
    <path clip-path="url(#pbfcd5ee8bf)" style="fill: none; stroke: #f5deb3; stroke-width: 1.5; stroke-linecap: square"/>
   </g>
   <g id="line2d_26">
    <path clip-path="url(#pbfcd5ee8bf)" style="fill: none; stroke: #f5deb3; stroke-width: 1.5; stroke-linecap: square"/>
   </g>
   <g id="line2d_27"/>
   <g id="line2d_28">
    <path clip-path="url(#pbfcd5ee8bf)" style="fill: none; stroke: #f5deb3; stroke-width: 1.5; stroke-linecap: square"/>
   </g>
   <g id="line2d_29"/>
   <g id="line2d_30"/>
   <g id="matplotlib.axis_1">
    <g id="xtick_1">
     <g id="line2d_31">
      <path d="M 62.208 293.76 
L 62.208 3.456 
" clip-path="url(#pbfcd5ee8bf)" style="fill: none; stroke: #b0b0b0; stroke-width: 0.8; stroke-linecap: square"/>
     </g>
     <g id="line2d_32">
      <defs>
       <path id="m41d9d4959e" d="M 0 0 
L 0 3.5 
" style="stroke: #000000; stroke-width: 0.8"/>
      </defs>
      <g>
       <use xlink:href="#m41d9d4959e" x="62.208" y="293.76" style="stroke: #000000; stroke-width: 0.8"/>
      </g>
     </g>
     <g id="text_1">
      <!-- 0 -->
      <g transform="translate(55.8455 315.956875)scale(0.2 -0.2)">
       <defs>
        <path id="DejaVuSans-30" d="M 2034 4250 
Q 1547 4250 1301 3770 
Q 1056 3291 1056 2328 
Q 1056 1369 1301 889 
Q 1547 409 2034 409 
Q 2525 409 2770 889 
Q 3016 1369 3016 2328 
Q 3016 3291 2770 3770 
Q 2525 4250 2034 4250 
z
M 2034 4750 
Q 2819 4750 3233 4129 
Q 3647 3509 3647 2328 
Q 3647 1150 3233 529 
Q 2819 -91 2034 -91 
Q 1250 -91 836 529 
Q 422 1150 422 2328 
Q 422 3509 836 4129 
Q 1250 4750 2034 4750 
z
" transform="scale(0.015625)"/>
       </defs>
       <use xlink:href="#DejaVuSans-30"/>
      </g>
     </g>
    </g>
    <g id="xtick_2">
     <g id="line2d_33">
      <path d="M 251.930662 293.76 
L 251.930662 3.456 
" clip-path="url(#pbfcd5ee8bf)" style="fill: none; stroke: #b0b0b0; stroke-width: 0.8; stroke-linecap: square"/>
     </g>
     <g id="line2d_34">
      <g>
       <use xlink:href="#m41d9d4959e" x="251.930662" y="293.76" style="stroke: #000000; stroke-width: 0.8"/>
      </g>
     </g>
     <g id="text_2">
      <!-- 2 -->
      <g transform="translate(245.568162 315.956875)scale(0.2 -0.2)">
       <defs>
        <path id="DejaVuSans-32" d="M 1228 531 
L 3431 531 
L 3431 0 
L 469 0 
L 469 531 
Q 828 903 1448 1529 
Q 2069 2156 2228 2338 
Q 2531 2678 2651 2914 
Q 2772 3150 2772 3378 
Q 2772 3750 2511 3984 
Q 2250 4219 1831 4219 
Q 1534 4219 1204 4116 
Q 875 4013 500 3803 
L 500 4441 
Q 881 4594 1212 4672 
Q 1544 4750 1819 4750 
Q 2544 4750 2975 4387 
Q 3406 4025 3406 3419 
Q 3406 3131 3298 2873 
Q 3191 2616 2906 2266 
Q 2828 2175 2409 1742 
Q 1991 1309 1228 531 
z
" transform="scale(0.015625)"/>
       </defs>
       <use xlink:href="#DejaVuSans-32"/>
      </g>
     </g>
    </g>
    <g id="xtick_3">
     <g id="line2d_35">
      <path d="M 441.653325 293.76 
L 441.653325 3.456 
" clip-path="url(#pbfcd5ee8bf)" style="fill: none; stroke: #b0b0b0; stroke-width: 0.8; stroke-linecap: square"/>
     </g>
     <g id="line2d_36">
      <g>
       <use xlink:href="#m41d9d4959e" x="441.653325" y="293.76" style="stroke: #000000; stroke-width: 0.8"/>
      </g>
     </g>
     <g id="text_3">
      <!-- 4 -->
      <g transform="translate(435.290825 315.956875)scale(0.2 -0.2)">
       <defs>
        <path id="DejaVuSans-34" d="M 2419 4116 
L 825 1625 
L 2419 1625 
L 2419 4116 
z
M 2253 4666 
L 3047 4666 
L 3047 1625 
L 3713 1625 
L 3713 1100 
L 3047 1100 
L 3047 0 
L 2419 0 
L 2419 1100 
L 313 1100 
L 313 1709 
L 2253 4666 
z
" transform="scale(0.015625)"/>
       </defs>
       <use xlink:href="#DejaVuSans-34"/>
      </g>
     </g>
    </g>
    <g id="xtick_4">
     <g id="line2d_37">
      <path d="M 90.764106 293.76 
L 90.764106 3.456 
" clip-path="url(#pbfcd5ee8bf)" style="fill: none; stroke: #b0b0b0; stroke-width: 0.8; stroke-linecap: square"/>
     </g>
     <g id="line2d_38">
      <defs>
       <path id="md1d8cfdcc2" d="M 0 0 
L 0 2 
" style="stroke: #000000; stroke-width: 0.6"/>
      </defs>
      <g>
       <use xlink:href="#md1d8cfdcc2" x="90.764106" y="293.76" style="stroke: #000000; stroke-width: 0.6"/>
      </g>
     </g>
    </g>
    <g id="xtick_5">
     <g id="line2d_39">
      <path d="M 107.468357 293.76 
L 107.468357 3.456 
" clip-path="url(#pbfcd5ee8bf)" style="fill: none; stroke: #b0b0b0; stroke-width: 0.8; stroke-linecap: square"/>
     </g>
     <g id="line2d_40">
      <g>
       <use xlink:href="#md1d8cfdcc2" x="107.468357" y="293.76" style="stroke: #000000; stroke-width: 0.6"/>
      </g>
     </g>
    </g>
    <g id="xtick_6">
     <g id="line2d_41">
      <path d="M 119.320212 293.76 
L 119.320212 3.456 
" clip-path="url(#pbfcd5ee8bf)" style="fill: none; stroke: #b0b0b0; stroke-width: 0.8; stroke-linecap: square"/>
     </g>
     <g id="line2d_42">
      <g>
       <use xlink:href="#md1d8cfdcc2" x="119.320212" y="293.76" style="stroke: #000000; stroke-width: 0.6"/>
      </g>
     </g>
    </g>
    <g id="xtick_7">
     <g id="line2d_43">
      <path d="M 128.513225 293.76 
L 128.513225 3.456 
" clip-path="url(#pbfcd5ee8bf)" style="fill: none; stroke: #b0b0b0; stroke-width: 0.8; stroke-linecap: square"/>
     </g>
     <g id="line2d_44">
      <g>
       <use xlink:href="#md1d8cfdcc2" x="128.513225" y="293.76" style="stroke: #000000; stroke-width: 0.6"/>
      </g>
     </g>
    </g>
    <g id="xtick_8">
     <g id="line2d_45">
      <path d="M 136.024464 293.76 
L 136.024464 3.456 
" clip-path="url(#pbfcd5ee8bf)" style="fill: none; stroke: #b0b0b0; stroke-width: 0.8; stroke-linecap: square"/>
     </g>
     <g id="line2d_46">
      <g>
       <use xlink:href="#md1d8cfdcc2" x="136.024464" y="293.76" style="stroke: #000000; stroke-width: 0.6"/>
      </g>
     </g>
    </g>
    <g id="xtick_9">
     <g id="line2d_47">
      <path d="M 142.375125 293.76 
L 142.375125 3.456 
" clip-path="url(#pbfcd5ee8bf)" style="fill: none; stroke: #b0b0b0; stroke-width: 0.8; stroke-linecap: square"/>
     </g>
     <g id="line2d_48">
      <g>
       <use xlink:href="#md1d8cfdcc2" x="142.375125" y="293.76" style="stroke: #000000; stroke-width: 0.6"/>
      </g>
     </g>
    </g>
    <g id="xtick_10">
     <g id="line2d_49">
      <path d="M 147.876318 293.76 
L 147.876318 3.456 
" clip-path="url(#pbfcd5ee8bf)" style="fill: none; stroke: #b0b0b0; stroke-width: 0.8; stroke-linecap: square"/>
     </g>
     <g id="line2d_50">
      <g>
       <use xlink:href="#md1d8cfdcc2" x="147.876318" y="293.76" style="stroke: #000000; stroke-width: 0.6"/>
      </g>
     </g>
    </g>
    <g id="xtick_11">
     <g id="line2d_51">
      <path d="M 152.728715 293.76 
L 152.728715 3.456 
" clip-path="url(#pbfcd5ee8bf)" style="fill: none; stroke: #b0b0b0; stroke-width: 0.8; stroke-linecap: square"/>
     </g>
     <g id="line2d_52">
      <g>
       <use xlink:href="#md1d8cfdcc2" x="152.728715" y="293.76" style="stroke: #000000; stroke-width: 0.6"/>
      </g>
     </g>
    </g>
    <g id="xtick_12">
     <g id="line2d_53">
      <path d="M 185.625437 293.76 
L 185.625437 3.456 
" clip-path="url(#pbfcd5ee8bf)" style="fill: none; stroke: #b0b0b0; stroke-width: 0.8; stroke-linecap: square"/>
     </g>
     <g id="line2d_54">
      <g>
       <use xlink:href="#md1d8cfdcc2" x="185.625437" y="293.76" style="stroke: #000000; stroke-width: 0.6"/>
      </g>
     </g>
    </g>
    <g id="xtick_13">
     <g id="line2d_55">
      <path d="M 202.329689 293.76 
L 202.329689 3.456 
" clip-path="url(#pbfcd5ee8bf)" style="fill: none; stroke: #b0b0b0; stroke-width: 0.8; stroke-linecap: square"/>
     </g>
     <g id="line2d_56">
      <g>
       <use xlink:href="#md1d8cfdcc2" x="202.329689" y="293.76" style="stroke: #000000; stroke-width: 0.6"/>
      </g>
     </g>
    </g>
    <g id="xtick_14">
     <g id="line2d_57">
      <path d="M 214.181544 293.76 
L 214.181544 3.456 
" clip-path="url(#pbfcd5ee8bf)" style="fill: none; stroke: #b0b0b0; stroke-width: 0.8; stroke-linecap: square"/>
     </g>
     <g id="line2d_58">
      <g>
       <use xlink:href="#md1d8cfdcc2" x="214.181544" y="293.76" style="stroke: #000000; stroke-width: 0.6"/>
      </g>
     </g>
    </g>
    <g id="xtick_15">
     <g id="line2d_59">
      <path d="M 223.374556 293.76 
L 223.374556 3.456 
" clip-path="url(#pbfcd5ee8bf)" style="fill: none; stroke: #b0b0b0; stroke-width: 0.8; stroke-linecap: square"/>
     </g>
     <g id="line2d_60">
      <g>
       <use xlink:href="#md1d8cfdcc2" x="223.374556" y="293.76" style="stroke: #000000; stroke-width: 0.6"/>
      </g>
     </g>
    </g>
    <g id="xtick_16">
     <g id="line2d_61">
      <path d="M 230.885795 293.76 
L 230.885795 3.456 
" clip-path="url(#pbfcd5ee8bf)" style="fill: none; stroke: #b0b0b0; stroke-width: 0.8; stroke-linecap: square"/>
     </g>
     <g id="line2d_62">
      <g>
       <use xlink:href="#md1d8cfdcc2" x="230.885795" y="293.76" style="stroke: #000000; stroke-width: 0.6"/>
      </g>
     </g>
    </g>
    <g id="xtick_17">
     <g id="line2d_63">
      <path d="M 237.236456 293.76 
L 237.236456 3.456 
" clip-path="url(#pbfcd5ee8bf)" style="fill: none; stroke: #b0b0b0; stroke-width: 0.8; stroke-linecap: square"/>
     </g>
     <g id="line2d_64">
      <g>
       <use xlink:href="#md1d8cfdcc2" x="237.236456" y="293.76" style="stroke: #000000; stroke-width: 0.6"/>
      </g>
     </g>
    </g>
    <g id="xtick_18">
     <g id="line2d_65">
      <path d="M 242.73765 293.76 
L 242.73765 3.456 
" clip-path="url(#pbfcd5ee8bf)" style="fill: none; stroke: #b0b0b0; stroke-width: 0.8; stroke-linecap: square"/>
     </g>
     <g id="line2d_66">
      <g>
       <use xlink:href="#md1d8cfdcc2" x="242.73765" y="293.76" style="stroke: #000000; stroke-width: 0.6"/>
      </g>
     </g>
    </g>
    <g id="xtick_19">
     <g id="line2d_67">
      <path d="M 247.590046 293.76 
L 247.590046 3.456 
" clip-path="url(#pbfcd5ee8bf)" style="fill: none; stroke: #b0b0b0; stroke-width: 0.8; stroke-linecap: square"/>
     </g>
     <g id="line2d_68">
      <g>
       <use xlink:href="#md1d8cfdcc2" x="247.590046" y="293.76" style="stroke: #000000; stroke-width: 0.6"/>
      </g>
     </g>
    </g>
    <g id="xtick_20">
     <g id="line2d_69">
      <path d="M 280.486769 293.76 
L 280.486769 3.456 
" clip-path="url(#pbfcd5ee8bf)" style="fill: none; stroke: #b0b0b0; stroke-width: 0.8; stroke-linecap: square"/>
     </g>
     <g id="line2d_70">
      <g>
       <use xlink:href="#md1d8cfdcc2" x="280.486769" y="293.76" style="stroke: #000000; stroke-width: 0.6"/>
      </g>
     </g>
    </g>
    <g id="xtick_21">
     <g id="line2d_71">
      <path d="M 297.19102 293.76 
L 297.19102 3.456 
" clip-path="url(#pbfcd5ee8bf)" style="fill: none; stroke: #b0b0b0; stroke-width: 0.8; stroke-linecap: square"/>
     </g>
     <g id="line2d_72">
      <g>
       <use xlink:href="#md1d8cfdcc2" x="297.19102" y="293.76" style="stroke: #000000; stroke-width: 0.6"/>
      </g>
     </g>
    </g>
    <g id="xtick_22">
     <g id="line2d_73">
      <path d="M 309.042875 293.76 
L 309.042875 3.456 
" clip-path="url(#pbfcd5ee8bf)" style="fill: none; stroke: #b0b0b0; stroke-width: 0.8; stroke-linecap: square"/>
     </g>
     <g id="line2d_74">
      <g>
       <use xlink:href="#md1d8cfdcc2" x="309.042875" y="293.76" style="stroke: #000000; stroke-width: 0.6"/>
      </g>
     </g>
    </g>
    <g id="xtick_23">
     <g id="line2d_75">
      <path d="M 318.235888 293.76 
L 318.235888 3.456 
" clip-path="url(#pbfcd5ee8bf)" style="fill: none; stroke: #b0b0b0; stroke-width: 0.8; stroke-linecap: square"/>
     </g>
     <g id="line2d_76">
      <g>
       <use xlink:href="#md1d8cfdcc2" x="318.235888" y="293.76" style="stroke: #000000; stroke-width: 0.6"/>
      </g>
     </g>
    </g>
    <g id="xtick_24">
     <g id="line2d_77">
      <path d="M 325.747126 293.76 
L 325.747126 3.456 
" clip-path="url(#pbfcd5ee8bf)" style="fill: none; stroke: #b0b0b0; stroke-width: 0.8; stroke-linecap: square"/>
     </g>
     <g id="line2d_78">
      <g>
       <use xlink:href="#md1d8cfdcc2" x="325.747126" y="293.76" style="stroke: #000000; stroke-width: 0.6"/>
      </g>
     </g>
    </g>
    <g id="xtick_25">
     <g id="line2d_79">
      <path d="M 332.097788 293.76 
L 332.097788 3.456 
" clip-path="url(#pbfcd5ee8bf)" style="fill: none; stroke: #b0b0b0; stroke-width: 0.8; stroke-linecap: square"/>
     </g>
     <g id="line2d_80">
      <g>
       <use xlink:href="#md1d8cfdcc2" x="332.097788" y="293.76" style="stroke: #000000; stroke-width: 0.6"/>
      </g>
     </g>
    </g>
    <g id="xtick_26">
     <g id="line2d_81">
      <path d="M 337.598981 293.76 
L 337.598981 3.456 
" clip-path="url(#pbfcd5ee8bf)" style="fill: none; stroke: #b0b0b0; stroke-width: 0.8; stroke-linecap: square"/>
     </g>
     <g id="line2d_82">
      <g>
       <use xlink:href="#md1d8cfdcc2" x="337.598981" y="293.76" style="stroke: #000000; stroke-width: 0.6"/>
      </g>
     </g>
    </g>
    <g id="xtick_27">
     <g id="line2d_83">
      <path d="M 342.451377 293.76 
L 342.451377 3.456 
" clip-path="url(#pbfcd5ee8bf)" style="fill: none; stroke: #b0b0b0; stroke-width: 0.8; stroke-linecap: square"/>
     </g>
     <g id="line2d_84">
      <g>
       <use xlink:href="#md1d8cfdcc2" x="342.451377" y="293.76" style="stroke: #000000; stroke-width: 0.6"/>
      </g>
     </g>
    </g>
    <g id="xtick_28">
     <g id="line2d_85">
      <path d="M 375.3481 293.76 
L 375.3481 3.456 
" clip-path="url(#pbfcd5ee8bf)" style="fill: none; stroke: #b0b0b0; stroke-width: 0.8; stroke-linecap: square"/>
     </g>
     <g id="line2d_86">
      <g>
       <use xlink:href="#md1d8cfdcc2" x="375.3481" y="293.76" style="stroke: #000000; stroke-width: 0.6"/>
      </g>
     </g>
    </g>
    <g id="xtick_29">
     <g id="line2d_87">
      <path d="M 392.052351 293.76 
L 392.052351 3.456 
" clip-path="url(#pbfcd5ee8bf)" style="fill: none; stroke: #b0b0b0; stroke-width: 0.8; stroke-linecap: square"/>
     </g>
     <g id="line2d_88">
      <g>
       <use xlink:href="#md1d8cfdcc2" x="392.052351" y="293.76" style="stroke: #000000; stroke-width: 0.6"/>
      </g>
     </g>
    </g>
    <g id="xtick_30">
     <g id="line2d_89">
      <path d="M 403.904206 293.76 
L 403.904206 3.456 
" clip-path="url(#pbfcd5ee8bf)" style="fill: none; stroke: #b0b0b0; stroke-width: 0.8; stroke-linecap: square"/>
     </g>
     <g id="line2d_90">
      <g>
       <use xlink:href="#md1d8cfdcc2" x="403.904206" y="293.76" style="stroke: #000000; stroke-width: 0.6"/>
      </g>
     </g>
    </g>
    <g id="xtick_31">
     <g id="line2d_91">
      <path d="M 413.097219 293.76 
L 413.097219 3.456 
" clip-path="url(#pbfcd5ee8bf)" style="fill: none; stroke: #b0b0b0; stroke-width: 0.8; stroke-linecap: square"/>
     </g>
     <g id="line2d_92">
      <g>
       <use xlink:href="#md1d8cfdcc2" x="413.097219" y="293.76" style="stroke: #000000; stroke-width: 0.6"/>
      </g>
     </g>
    </g>
    <g id="xtick_32">
     <g id="line2d_93">
      <path d="M 420.608457 293.76 
L 420.608457 3.456 
" clip-path="url(#pbfcd5ee8bf)" style="fill: none; stroke: #b0b0b0; stroke-width: 0.8; stroke-linecap: square"/>
     </g>
     <g id="line2d_94">
      <g>
       <use xlink:href="#md1d8cfdcc2" x="420.608457" y="293.76" style="stroke: #000000; stroke-width: 0.6"/>
      </g>
     </g>
    </g>
    <g id="xtick_33">
     <g id="line2d_95">
      <path d="M 426.959119 293.76 
L 426.959119 3.456 
" clip-path="url(#pbfcd5ee8bf)" style="fill: none; stroke: #b0b0b0; stroke-width: 0.8; stroke-linecap: square"/>
     </g>
     <g id="line2d_96">
      <g>
       <use xlink:href="#md1d8cfdcc2" x="426.959119" y="293.76" style="stroke: #000000; stroke-width: 0.6"/>
      </g>
     </g>
    </g>
    <g id="xtick_34">
     <g id="line2d_97">
      <path d="M 432.460312 293.76 
L 432.460312 3.456 
" clip-path="url(#pbfcd5ee8bf)" style="fill: none; stroke: #b0b0b0; stroke-width: 0.8; stroke-linecap: square"/>
     </g>
     <g id="line2d_98">
      <g>
       <use xlink:href="#md1d8cfdcc2" x="432.460312" y="293.76" style="stroke: #000000; stroke-width: 0.6"/>
      </g>
     </g>
    </g>
    <g id="xtick_35">
     <g id="line2d_99">
      <path d="M 437.312708 293.76 
L 437.312708 3.456 
" clip-path="url(#pbfcd5ee8bf)" style="fill: none; stroke: #b0b0b0; stroke-width: 0.8; stroke-linecap: square"/>
     </g>
     <g id="line2d_100">
      <g>
       <use xlink:href="#md1d8cfdcc2" x="437.312708" y="293.76" style="stroke: #000000; stroke-width: 0.6"/>
      </g>
     </g>
    </g>
    <g id="text_4">
     <!-- log10 of FEvals / DIM -->
     <g transform="translate(156.430563 339.313125)scale(0.2 -0.2)">
      <defs>
       <path id="DejaVuSans-6c" d="M 603 4863 
L 1178 4863 
L 1178 0 
L 603 0 
L 603 4863 
z
" transform="scale(0.015625)"/>
       <path id="DejaVuSans-6f" d="M 1959 3097 
Q 1497 3097 1228 2736 
Q 959 2375 959 1747 
Q 959 1119 1226 758 
Q 1494 397 1959 397 
Q 2419 397 2687 759 
Q 2956 1122 2956 1747 
Q 2956 2369 2687 2733 
Q 2419 3097 1959 3097 
z
M 1959 3584 
Q 2709 3584 3137 3096 
Q 3566 2609 3566 1747 
Q 3566 888 3137 398 
Q 2709 -91 1959 -91 
Q 1206 -91 779 398 
Q 353 888 353 1747 
Q 353 2609 779 3096 
Q 1206 3584 1959 3584 
z
" transform="scale(0.015625)"/>
       <path id="DejaVuSans-67" d="M 2906 1791 
Q 2906 2416 2648 2759 
Q 2391 3103 1925 3103 
Q 1463 3103 1205 2759 
Q 947 2416 947 1791 
Q 947 1169 1205 825 
Q 1463 481 1925 481 
Q 2391 481 2648 825 
Q 2906 1169 2906 1791 
z
M 3481 434 
Q 3481 -459 3084 -895 
Q 2688 -1331 1869 -1331 
Q 1566 -1331 1297 -1286 
Q 1028 -1241 775 -1147 
L 775 -588 
Q 1028 -725 1275 -790 
Q 1522 -856 1778 -856 
Q 2344 -856 2625 -561 
Q 2906 -266 2906 331 
L 2906 616 
Q 2728 306 2450 153 
Q 2172 0 1784 0 
Q 1141 0 747 490 
Q 353 981 353 1791 
Q 353 2603 747 3093 
Q 1141 3584 1784 3584 
Q 2172 3584 2450 3431 
Q 2728 3278 2906 2969 
L 2906 3500 
L 3481 3500 
L 3481 434 
z
" transform="scale(0.015625)"/>
       <path id="DejaVuSans-31" d="M 794 531 
L 1825 531 
L 1825 4091 
L 703 3866 
L 703 4441 
L 1819 4666 
L 2450 4666 
L 2450 531 
L 3481 531 
L 3481 0 
L 794 0 
L 794 531 
z
" transform="scale(0.015625)"/>
       <path id="DejaVuSans-20" transform="scale(0.015625)"/>
       <path id="DejaVuSans-66" d="M 2375 4863 
L 2375 4384 
L 1825 4384 
Q 1516 4384 1395 4259 
Q 1275 4134 1275 3809 
L 1275 3500 
L 2222 3500 
L 2222 3053 
L 1275 3053 
L 1275 0 
L 697 0 
L 697 3053 
L 147 3053 
L 147 3500 
L 697 3500 
L 697 3744 
Q 697 4328 969 4595 
Q 1241 4863 1831 4863 
L 2375 4863 
z
" transform="scale(0.015625)"/>
       <path id="DejaVuSans-46" d="M 628 4666 
L 3309 4666 
L 3309 4134 
L 1259 4134 
L 1259 2759 
L 3109 2759 
L 3109 2228 
L 1259 2228 
L 1259 0 
L 628 0 
L 628 4666 
z
" transform="scale(0.015625)"/>
       <path id="DejaVuSans-45" d="M 628 4666 
L 3578 4666 
L 3578 4134 
L 1259 4134 
L 1259 2753 
L 3481 2753 
L 3481 2222 
L 1259 2222 
L 1259 531 
L 3634 531 
L 3634 0 
L 628 0 
L 628 4666 
z
" transform="scale(0.015625)"/>
       <path id="DejaVuSans-76" d="M 191 3500 
L 800 3500 
L 1894 563 
L 2988 3500 
L 3597 3500 
L 2284 0 
L 1503 0 
L 191 3500 
z
" transform="scale(0.015625)"/>
       <path id="DejaVuSans-61" d="M 2194 1759 
Q 1497 1759 1228 1600 
Q 959 1441 959 1056 
Q 959 750 1161 570 
Q 1363 391 1709 391 
Q 2188 391 2477 730 
Q 2766 1069 2766 1631 
L 2766 1759 
L 2194 1759 
z
M 3341 1997 
L 3341 0 
L 2766 0 
L 2766 531 
Q 2569 213 2275 61 
Q 1981 -91 1556 -91 
Q 1019 -91 701 211 
Q 384 513 384 1019 
Q 384 1609 779 1909 
Q 1175 2209 1959 2209 
L 2766 2209 
L 2766 2266 
Q 2766 2663 2505 2880 
Q 2244 3097 1772 3097 
Q 1472 3097 1187 3025 
Q 903 2953 641 2809 
L 641 3341 
Q 956 3463 1253 3523 
Q 1550 3584 1831 3584 
Q 2591 3584 2966 3190 
Q 3341 2797 3341 1997 
z
" transform="scale(0.015625)"/>
       <path id="DejaVuSans-73" d="M 2834 3397 
L 2834 2853 
Q 2591 2978 2328 3040 
Q 2066 3103 1784 3103 
Q 1356 3103 1142 2972 
Q 928 2841 928 2578 
Q 928 2378 1081 2264 
Q 1234 2150 1697 2047 
L 1894 2003 
Q 2506 1872 2764 1633 
Q 3022 1394 3022 966 
Q 3022 478 2636 193 
Q 2250 -91 1575 -91 
Q 1294 -91 989 -36 
Q 684 19 347 128 
L 347 722 
Q 666 556 975 473 
Q 1284 391 1588 391 
Q 1994 391 2212 530 
Q 2431 669 2431 922 
Q 2431 1156 2273 1281 
Q 2116 1406 1581 1522 
L 1381 1569 
Q 847 1681 609 1914 
Q 372 2147 372 2553 
Q 372 3047 722 3315 
Q 1072 3584 1716 3584 
Q 2034 3584 2315 3537 
Q 2597 3491 2834 3397 
z
" transform="scale(0.015625)"/>
       <path id="DejaVuSans-2f" d="M 1625 4666 
L 2156 4666 
L 531 -594 
L 0 -594 
L 1625 4666 
z
" transform="scale(0.015625)"/>
       <path id="DejaVuSans-44" d="M 1259 4147 
L 1259 519 
L 2022 519 
Q 2988 519 3436 956 
Q 3884 1394 3884 2338 
Q 3884 3275 3436 3711 
Q 2988 4147 2022 4147 
L 1259 4147 
z
M 628 4666 
L 1925 4666 
Q 3281 4666 3915 4102 
Q 4550 3538 4550 2338 
Q 4550 1131 3912 565 
Q 3275 0 1925 0 
L 628 0 
L 628 4666 
z
" transform="scale(0.015625)"/>
       <path id="DejaVuSans-49" d="M 628 4666 
L 1259 4666 
L 1259 0 
L 628 0 
L 628 4666 
z
" transform="scale(0.015625)"/>
       <path id="DejaVuSans-4d" d="M 628 4666 
L 1569 4666 
L 2759 1491 
L 3956 4666 
L 4897 4666 
L 4897 0 
L 4281 0 
L 4281 4097 
L 3078 897 
L 2444 897 
L 1241 4097 
L 1241 0 
L 628 0 
L 628 4666 
z
" transform="scale(0.015625)"/>
      </defs>
      <use xlink:href="#DejaVuSans-6c"/>
      <use xlink:href="#DejaVuSans-6f" x="27.783203"/>
      <use xlink:href="#DejaVuSans-67" x="88.964844"/>
      <use xlink:href="#DejaVuSans-31" x="152.441406"/>
      <use xlink:href="#DejaVuSans-30" x="216.064453"/>
      <use xlink:href="#DejaVuSans-20" x="279.6875"/>
      <use xlink:href="#DejaVuSans-6f" x="311.474609"/>
      <use xlink:href="#DejaVuSans-66" x="372.65625"/>
      <use xlink:href="#DejaVuSans-20" x="407.861328"/>
      <use xlink:href="#DejaVuSans-46" x="439.648438"/>
      <use xlink:href="#DejaVuSans-45" x="497.167969"/>
      <use xlink:href="#DejaVuSans-76" x="560.351562"/>
      <use xlink:href="#DejaVuSans-61" x="619.53125"/>
      <use xlink:href="#DejaVuSans-6c" x="680.810547"/>
      <use xlink:href="#DejaVuSans-73" x="708.59375"/>
      <use xlink:href="#DejaVuSans-20" x="760.693359"/>
      <use xlink:href="#DejaVuSans-2f" x="792.480469"/>
      <use xlink:href="#DejaVuSans-20" x="826.171875"/>
      <use xlink:href="#DejaVuSans-44" x="857.958984"/>
      <use xlink:href="#DejaVuSans-49" x="934.960938"/>
      <use xlink:href="#DejaVuSans-4d" x="964.453125"/>
     </g>
    </g>
   </g>
   <g id="matplotlib.axis_2">
    <g id="ytick_1">
     <g id="line2d_101">
      <path d="M 62.208 293.76 
L 460.8 293.76 
" clip-path="url(#pbfcd5ee8bf)" style="fill: none; stroke: #b0b0b0; stroke-width: 0.8; stroke-linecap: square"/>
     </g>
     <g id="line2d_102">
      <defs>
       <path id="m2f0fdea453" d="M 0 0 
L -3.5 0 
" style="stroke: #000000; stroke-width: 0.8"/>
      </defs>
      <g>
       <use xlink:href="#m2f0fdea453" x="62.208" y="293.76" style="stroke: #000000; stroke-width: 0.8"/>
      </g>
     </g>
     <g id="text_5">
      <!-- 0.0 -->
      <g transform="translate(29.763 299.83875)scale(0.16 -0.16)">
       <defs>
        <path id="DejaVuSans-2e" d="M 684 794 
L 1344 794 
L 1344 0 
L 684 0 
L 684 794 
z
" transform="scale(0.015625)"/>
       </defs>
       <use xlink:href="#DejaVuSans-30"/>
       <use xlink:href="#DejaVuSans-2e" x="63.623047"/>
       <use xlink:href="#DejaVuSans-30" x="95.410156"/>
      </g>
     </g>
    </g>
    <g id="ytick_2">
     <g id="line2d_103">
      <path d="M 62.208 236.274059 
L 460.8 236.274059 
" clip-path="url(#pbfcd5ee8bf)" style="fill: none; stroke: #b0b0b0; stroke-width: 0.8; stroke-linecap: square"/>
     </g>
     <g id="line2d_104">
      <g>
       <use xlink:href="#m2f0fdea453" x="62.208" y="236.274059" style="stroke: #000000; stroke-width: 0.8"/>
      </g>
     </g>
     <g id="text_6">
      <!-- 0.2 -->
      <g transform="translate(29.763 242.352809)scale(0.16 -0.16)">
       <use xlink:href="#DejaVuSans-30"/>
       <use xlink:href="#DejaVuSans-2e" x="63.623047"/>
       <use xlink:href="#DejaVuSans-32" x="95.410156"/>
      </g>
     </g>
    </g>
    <g id="ytick_3">
     <g id="line2d_105">
      <path d="M 62.208 178.788119 
L 460.8 178.788119 
" clip-path="url(#pbfcd5ee8bf)" style="fill: none; stroke: #b0b0b0; stroke-width: 0.8; stroke-linecap: square"/>
     </g>
     <g id="line2d_106">
      <g>
       <use xlink:href="#m2f0fdea453" x="62.208" y="178.788119" style="stroke: #000000; stroke-width: 0.8"/>
      </g>
     </g>
     <g id="text_7">
      <!-- 0.4 -->
      <g transform="translate(29.763 184.866869)scale(0.16 -0.16)">
       <use xlink:href="#DejaVuSans-30"/>
       <use xlink:href="#DejaVuSans-2e" x="63.623047"/>
       <use xlink:href="#DejaVuSans-34" x="95.410156"/>
      </g>
     </g>
    </g>
    <g id="ytick_4">
     <g id="line2d_107">
      <path d="M 62.208 121.302178 
L 460.8 121.302178 
" clip-path="url(#pbfcd5ee8bf)" style="fill: none; stroke: #b0b0b0; stroke-width: 0.8; stroke-linecap: square"/>
     </g>
     <g id="line2d_108">
      <g>
       <use xlink:href="#m2f0fdea453" x="62.208" y="121.302178" style="stroke: #000000; stroke-width: 0.8"/>
      </g>
     </g>
     <g id="text_8">
      <!-- 0.6 -->
      <g transform="translate(29.763 127.380928)scale(0.16 -0.16)">
       <defs>
        <path id="DejaVuSans-36" d="M 2113 2584 
Q 1688 2584 1439 2293 
Q 1191 2003 1191 1497 
Q 1191 994 1439 701 
Q 1688 409 2113 409 
Q 2538 409 2786 701 
Q 3034 994 3034 1497 
Q 3034 2003 2786 2293 
Q 2538 2584 2113 2584 
z
M 3366 4563 
L 3366 3988 
Q 3128 4100 2886 4159 
Q 2644 4219 2406 4219 
Q 1781 4219 1451 3797 
Q 1122 3375 1075 2522 
Q 1259 2794 1537 2939 
Q 1816 3084 2150 3084 
Q 2853 3084 3261 2657 
Q 3669 2231 3669 1497 
Q 3669 778 3244 343 
Q 2819 -91 2113 -91 
Q 1303 -91 875 529 
Q 447 1150 447 2328 
Q 447 3434 972 4092 
Q 1497 4750 2381 4750 
Q 2619 4750 2861 4703 
Q 3103 4656 3366 4563 
z
" transform="scale(0.015625)"/>
       </defs>
       <use xlink:href="#DejaVuSans-30"/>
       <use xlink:href="#DejaVuSans-2e" x="63.623047"/>
       <use xlink:href="#DejaVuSans-36" x="95.410156"/>
      </g>
     </g>
    </g>
    <g id="ytick_5">
     <g id="line2d_109">
      <path d="M 62.208 63.816238 
L 460.8 63.816238 
" clip-path="url(#pbfcd5ee8bf)" style="fill: none; stroke: #b0b0b0; stroke-width: 0.8; stroke-linecap: square"/>
     </g>
     <g id="line2d_110">
      <g>
       <use xlink:href="#m2f0fdea453" x="62.208" y="63.816238" style="stroke: #000000; stroke-width: 0.8"/>
      </g>
     </g>
     <g id="text_9">
      <!-- 0.8 -->
      <g transform="translate(29.763 69.894988)scale(0.16 -0.16)">
       <defs>
        <path id="DejaVuSans-38" d="M 2034 2216 
Q 1584 2216 1326 1975 
Q 1069 1734 1069 1313 
Q 1069 891 1326 650 
Q 1584 409 2034 409 
Q 2484 409 2743 651 
Q 3003 894 3003 1313 
Q 3003 1734 2745 1975 
Q 2488 2216 2034 2216 
z
M 1403 2484 
Q 997 2584 770 2862 
Q 544 3141 544 3541 
Q 544 4100 942 4425 
Q 1341 4750 2034 4750 
Q 2731 4750 3128 4425 
Q 3525 4100 3525 3541 
Q 3525 3141 3298 2862 
Q 3072 2584 2669 2484 
Q 3125 2378 3379 2068 
Q 3634 1759 3634 1313 
Q 3634 634 3220 271 
Q 2806 -91 2034 -91 
Q 1263 -91 848 271 
Q 434 634 434 1313 
Q 434 1759 690 2068 
Q 947 2378 1403 2484 
z
M 1172 3481 
Q 1172 3119 1398 2916 
Q 1625 2713 2034 2713 
Q 2441 2713 2670 2916 
Q 2900 3119 2900 3481 
Q 2900 3844 2670 4047 
Q 2441 4250 2034 4250 
Q 1625 4250 1398 4047 
Q 1172 3844 1172 3481 
z
" transform="scale(0.015625)"/>
       </defs>
       <use xlink:href="#DejaVuSans-30"/>
       <use xlink:href="#DejaVuSans-2e" x="63.623047"/>
       <use xlink:href="#DejaVuSans-38" x="95.410156"/>
      </g>
     </g>
    </g>
    <g id="ytick_6">
     <g id="line2d_111">
      <path d="M 62.208 6.330297 
L 460.8 6.330297 
" clip-path="url(#pbfcd5ee8bf)" style="fill: none; stroke: #b0b0b0; stroke-width: 0.8; stroke-linecap: square"/>
     </g>
     <g id="line2d_112">
      <g>
       <use xlink:href="#m2f0fdea453" x="62.208" y="6.330297" style="stroke: #000000; stroke-width: 0.8"/>
      </g>
     </g>
     <g id="text_10">
      <!-- 1.0 -->
      <g transform="translate(29.763 12.409047)scale(0.16 -0.16)">
       <use xlink:href="#DejaVuSans-31"/>
       <use xlink:href="#DejaVuSans-2e" x="63.623047"/>
       <use xlink:href="#DejaVuSans-30" x="95.410156"/>
      </g>
     </g>
    </g>
    <g id="text_11">
     <!-- proportion of trials -->
     <g transform="translate(21.603625 241.61425)rotate(-90)scale(0.2 -0.2)">
      <defs>
       <path id="DejaVuSans-70" d="M 1159 525 
L 1159 -1331 
L 581 -1331 
L 581 3500 
L 1159 3500 
L 1159 2969 
Q 1341 3281 1617 3432 
Q 1894 3584 2278 3584 
Q 2916 3584 3314 3078 
Q 3713 2572 3713 1747 
Q 3713 922 3314 415 
Q 2916 -91 2278 -91 
Q 1894 -91 1617 61 
Q 1341 213 1159 525 
z
M 3116 1747 
Q 3116 2381 2855 2742 
Q 2594 3103 2138 3103 
Q 1681 3103 1420 2742 
Q 1159 2381 1159 1747 
Q 1159 1113 1420 752 
Q 1681 391 2138 391 
Q 2594 391 2855 752 
Q 3116 1113 3116 1747 
z
" transform="scale(0.015625)"/>
       <path id="DejaVuSans-72" d="M 2631 2963 
Q 2534 3019 2420 3045 
Q 2306 3072 2169 3072 
Q 1681 3072 1420 2755 
Q 1159 2438 1159 1844 
L 1159 0 
L 581 0 
L 581 3500 
L 1159 3500 
L 1159 2956 
Q 1341 3275 1631 3429 
Q 1922 3584 2338 3584 
Q 2397 3584 2469 3576 
Q 2541 3569 2628 3553 
L 2631 2963 
z
" transform="scale(0.015625)"/>
       <path id="DejaVuSans-74" d="M 1172 4494 
L 1172 3500 
L 2356 3500 
L 2356 3053 
L 1172 3053 
L 1172 1153 
Q 1172 725 1289 603 
Q 1406 481 1766 481 
L 2356 481 
L 2356 0 
L 1766 0 
Q 1100 0 847 248 
Q 594 497 594 1153 
L 594 3053 
L 172 3053 
L 172 3500 
L 594 3500 
L 594 4494 
L 1172 4494 
z
" transform="scale(0.015625)"/>
       <path id="DejaVuSans-69" d="M 603 3500 
L 1178 3500 
L 1178 0 
L 603 0 
L 603 3500 
z
M 603 4863 
L 1178 4863 
L 1178 4134 
L 603 4134 
L 603 4863 
z
" transform="scale(0.015625)"/>
       <path id="DejaVuSans-6e" d="M 3513 2113 
L 3513 0 
L 2938 0 
L 2938 2094 
Q 2938 2591 2744 2837 
Q 2550 3084 2163 3084 
Q 1697 3084 1428 2787 
Q 1159 2491 1159 1978 
L 1159 0 
L 581 0 
L 581 3500 
L 1159 3500 
L 1159 2956 
Q 1366 3272 1645 3428 
Q 1925 3584 2291 3584 
Q 2894 3584 3203 3211 
Q 3513 2838 3513 2113 
z
" transform="scale(0.015625)"/>
      </defs>
      <use xlink:href="#DejaVuSans-70"/>
      <use xlink:href="#DejaVuSans-72" x="63.476562"/>
      <use xlink:href="#DejaVuSans-6f" x="102.339844"/>
      <use xlink:href="#DejaVuSans-70" x="163.521484"/>
      <use xlink:href="#DejaVuSans-6f" x="226.998047"/>
      <use xlink:href="#DejaVuSans-72" x="288.179688"/>
      <use xlink:href="#DejaVuSans-74" x="329.292969"/>
      <use xlink:href="#DejaVuSans-69" x="368.501953"/>
      <use xlink:href="#DejaVuSans-6f" x="396.285156"/>
      <use xlink:href="#DejaVuSans-6e" x="457.466797"/>
      <use xlink:href="#DejaVuSans-20" x="520.845703"/>
      <use xlink:href="#DejaVuSans-6f" x="552.632812"/>
      <use xlink:href="#DejaVuSans-66" x="613.814453"/>
      <use xlink:href="#DejaVuSans-20" x="649.019531"/>
      <use xlink:href="#DejaVuSans-74" x="680.806641"/>
      <use xlink:href="#DejaVuSans-72" x="720.015625"/>
      <use xlink:href="#DejaVuSans-69" x="761.128906"/>
      <use xlink:href="#DejaVuSans-61" x="788.912109"/>
      <use xlink:href="#DejaVuSans-6c" x="850.191406"/>
      <use xlink:href="#DejaVuSans-73" x="877.974609"/>
     </g>
    </g>
   </g>
   <g id="line2d_113">
    <path d="M -1 236.274059 
L 50.356145 236.274059 
L 50.356145 232.441663 
L 64.218045 232.441663 
L 64.218045 228.609267 
L 71.401013 228.609267 
L 71.401013 224.776871 
L 84.068691 224.776871 
L 84.068691 220.944475 
L 85.262913 220.944475 
L 85.262913 217.112079 
L 88.650938 217.112079 
L 88.650938 213.279683 
L 98.275345 213.279683 
L 98.275345 209.447287 
L 99.957119 209.447287 
L 99.957119 205.614891 
L 112.624798 205.614891 
L 112.624798 201.782495 
L 118.801995 201.782495 
L 118.801995 197.950099 
L 122.775941 197.950099 
L 122.775941 194.117703 
L 125.964098 194.117703 
L 125.964098 190.285307 
L 127.680919 190.285307 
L 127.680919 186.452911 
L 129.329049 186.452911 
L 129.329049 182.620515 
L 138.360184 182.620515 
L 138.360184 178.788119 
L 181.055306 178.788119 
L 181.055306 174.955723 
L 191.383315 174.955723 
L 191.472778 167.290931 
L 191.651124 167.290931 
L 191.651124 163.458535 
L 193.563599 163.458535 
L 193.563599 159.626139 
L 195.634274 159.626139 
L 195.634274 155.793743 
L 199.117848 155.793743 
L 199.117848 151.961347 
L 199.560839 151.961347 
L 199.560839 148.12895 
L 199.853542 148.12895 
L 199.853542 144.296554 
L 206.567182 144.296554 
L 206.567182 140.464158 
L 207.546669 140.464158 
L 207.546669 136.631762 
L 210.182819 136.631762 
L 210.182819 132.799366 
L 210.969703 132.799366 
L 210.969703 128.96697 
L 211.302392 128.96697 
L 211.302392 125.134574 
L 222.710062 125.134574 
L 222.710062 121.302178 
L 240.840743 121.302178 
L 240.840743 117.469782 
L 244.08021 117.469782 
L 244.08021 113.637386 
L 258.062987 113.637386 
L 258.062987 109.80499 
L 262.596626 109.80499 
L 262.596626 105.972594 
L 263.632904 105.972594 
L 263.632904 102.140198 
L 268.05407 102.140198 
L 268.05407 98.307802 
L 277.196913 98.307802 
L 277.196913 94.475406 
L 286.092112 94.475406 
L 286.092112 90.64301 
L 287.025334 90.64301 
L 287.025334 86.810614 
L 288.450406 86.810614 
L 288.450406 82.978218 
L 290.993421 82.978218 
L 290.993421 79.145822 
L 291.112962 79.145822 
L 291.112962 75.313426 
L 299.675691 75.313426 
L 299.675691 71.48103 
L 312.791155 71.48103 
L 312.791155 67.648634 
L 317.310993 67.648634 
L 317.310993 63.816238 
L 322.845879 63.816238 
L 322.845879 59.983842 
L 329.228102 59.983842 
L 329.228102 56.151446 
L 349.834628 56.151446 
L 349.834628 52.31905 
L 358.823183 52.31905 
L 358.823183 48.486653 
L 359.030319 48.486653 
L 359.030319 44.654257 
L 360.904729 44.654257 
L 360.904729 40.821861 
L 362.095315 40.821861 
L 362.095315 36.989465 
L 363.726309 36.989465 
L 363.726309 33.157069 
L 371.824429 33.157069 
L 371.824429 29.324673 
L 383.751664 29.324673 
L 383.751664 25.492277 
L 384.072928 25.492277 
L 384.072928 21.659881 
L 384.978772 21.659881 
L 384.978772 17.827485 
L 387.883795 17.827485 
L 387.883795 13.995089 
L 389.021975 13.995089 
L 389.021975 10.162693 
L 393.405876 10.162693 
L 393.405876 6.330297 
L 393.405876 6.330297 
L 460.8 6.330297 
L 460.8 6.330297 
" clip-path="url(#pbfcd5ee8bf)" style="fill: none; stroke: #000000; stroke-width: 1.5; stroke-linecap: square"/>
   </g>
   <g id="line2d_114">
    <defs>
     <path id="mce553113f1" d="M 0 14.142136 
L 8.485281 0 
L 0 -14.142136 
L -8.485281 0 
z
" style="stroke: #000000; stroke-width: 1.5; stroke-linejoin: miter"/>
    </defs>
    <g clip-path="url(#pbfcd5ee8bf)">
     <use xlink:href="#mce553113f1" x="85.262913" y="220.944475" style="fill-opacity: 0; stroke: #000000; stroke-width: 1.5; stroke-linejoin: miter"/>
     <use xlink:href="#mce553113f1" x="181.055306" y="178.788119" style="fill-opacity: 0; stroke: #000000; stroke-width: 1.5; stroke-linejoin: miter"/>
     <use xlink:href="#mce553113f1" x="222.710062" y="125.134574" style="fill-opacity: 0; stroke: #000000; stroke-width: 1.5; stroke-linejoin: miter"/>
     <use xlink:href="#mce553113f1" x="317.310993" y="67.648634" style="fill-opacity: 0; stroke: #000000; stroke-width: 1.5; stroke-linejoin: miter"/>
     <use xlink:href="#mce553113f1" x="387.883795" y="17.827485" style="fill-opacity: 0; stroke: #000000; stroke-width: 1.5; stroke-linejoin: miter"/>
     <use xlink:href="#mce553113f1" x="393.405876" y="6.330297" style="fill-opacity: 0; stroke: #000000; stroke-width: 1.5; stroke-linejoin: miter"/>
    </g>
   </g>
   <g id="line2d_115">
    <path clip-path="url(#pbfcd5ee8bf)" style="fill: none; stroke: #000000; stroke-width: 1.5; stroke-linecap: square"/>
    <g clip-path="url(#pbfcd5ee8bf)">
     <use xlink:href="#mce553113f1" x="-1" y="581.189703" style="fill-opacity: 0; stroke: #000000; stroke-width: 1.5; stroke-linejoin: miter"/>
     <use xlink:href="#mce553113f1" x="460.8" y="581.189703" style="fill-opacity: 0; stroke: #000000; stroke-width: 1.5; stroke-linejoin: miter"/>
    </g>
   </g>
   <g id="line2d_116">
    <path d="M -1 236.274059 
L 71.401013 236.274059 
L 71.401013 228.609267 
L 77.515584 228.609267 
L 77.515584 224.776871 
L 82.838816 224.776871 
L 82.838816 220.944475 
L 84.068691 220.944475 
L 84.068691 217.112079 
L 99.124813 217.112079 
L 99.124813 213.279683 
L 99.957119 213.279683 
L 99.957119 209.447287 
L 104.626006 209.447287 
L 104.626006 201.782495 
L 109.478403 201.782495 
L 109.478403 197.950099 
L 112.624798 197.950099 
L 112.624798 194.117703 
L 120.337492 194.117703 
L 120.337492 190.285307 
L 124.627837 190.285307 
L 124.627837 186.452911 
L 126.400057 186.452911 
L 126.400057 182.620515 
L 150.615546 182.620515 
L 150.615546 178.788119 
L 183.294866 178.788119 
L 183.294866 174.955723 
L 184.26427 174.955723 
L 184.26427 171.123327 
L 184.793131 171.123327 
L 184.793131 167.290931 
L 186.137217 167.290931 
L 186.137217 163.458535 
L 186.943067 163.458535 
L 186.943067 159.626139 
L 187.340157 159.626139 
L 187.340157 155.793743 
L 187.537276 155.793743 
L 187.537276 151.961347 
L 192.269323 151.961347 
L 192.269323 148.12895 
L 193.39336 148.12895 
L 193.39336 144.296554 
L 195.553415 144.296554 
L 195.553415 140.464158 
L 198.894554 140.464158 
L 198.894554 136.631762 
L 200.719376 136.631762 
L 200.719376 132.799366 
L 203.346969 132.799366 
L 203.346969 128.96697 
L 210.913993 128.96697 
L 210.913993 125.134574 
L 228.263557 125.134574 
L 228.263557 121.302178 
L 230.541042 121.302178 
L 230.541042 117.469782 
L 232.003435 117.469782 
L 232.003435 113.637386 
L 232.633433 113.637386 
L 232.633433 109.80499 
L 233.124083 109.80499 
L 233.124083 105.972594 
L 239.134246 105.972594 
L 239.134246 102.140198 
L 240.023841 102.140198 
L 240.023841 98.307802 
L 242.531144 98.307802 
L 242.531144 94.475406 
L 243.553473 94.475406 
L 243.553473 90.64301 
L 246.75774 90.64301 
L 246.75774 86.810614 
L 247.245293 86.810614 
L 247.245293 82.978218 
L 247.704326 82.978218 
L 247.704326 79.145822 
L 249.315741 79.145822 
L 249.315741 75.313426 
L 249.621883 75.313426 
L 249.621883 71.48103 
L 252.54404 71.48103 
L 252.54404 67.648634 
L 268.359342 67.648634 
L 268.359342 63.816238 
L 321.547409 63.816238 
L 321.547409 59.983842 
L 351.909035 59.983842 
L 351.909035 56.151446 
L 356.242919 56.151446 
L 356.242919 52.31905 
L 356.438967 52.31905 
L 356.438967 48.486653 
L 357.407044 48.486653 
L 357.407044 44.654257 
L 357.818899 44.654257 
L 357.818899 40.821861 
L 360.090953 40.821861 
L 360.174397 33.157069 
L 360.272526 33.157069 
L 360.272526 29.324673 
L 362.891717 29.324673 
L 362.943247 21.659881 
L 363.193015 21.659881 
L 363.193015 17.827485 
L 363.522329 17.827485 
L 363.522329 13.995089 
L 388.160926 13.995089 
L 388.160926 10.162693 
L 388.561203 10.162693 
L 388.561203 6.330297 
L 388.561203 6.330297 
L 460.8 6.330297 
L 460.8 6.330297 
" clip-path="url(#pbfcd5ee8bf)" style="fill: none; stroke: #000000; stroke-width: 1.5; stroke-linecap: square"/>
   </g>
   <g id="line2d_117">
    <defs>
     <path id="m880973b548" d="M 0 7.5 
C 1.989023 7.5 3.896849 6.709753 5.303301 5.303301 
C 6.709753 3.896849 7.5 1.989023 7.5 0 
C 7.5 -1.989023 6.709753 -3.896849 5.303301 -5.303301 
C 3.896849 -6.709753 1.989023 -7.5 0 -7.5 
C -1.989023 -7.5 -3.896849 -6.709753 -5.303301 -5.303301 
C -6.709753 -3.896849 -7.5 -1.989023 -7.5 0 
C -7.5 1.989023 -6.709753 3.896849 -5.303301 5.303301 
C -3.896849 6.709753 -1.989023 7.5 0 7.5 
z
" style="stroke: #000000; stroke-width: 1.5"/>
    </defs>
    <g clip-path="url(#pbfcd5ee8bf)">
     <use xlink:href="#m880973b548" x="124.627837" y="190.285307" style="fill-opacity: 0; stroke: #000000; stroke-width: 1.5"/>
     <use xlink:href="#m880973b548" x="200.719376" y="136.631762" style="fill-opacity: 0; stroke: #000000; stroke-width: 1.5"/>
     <use xlink:href="#m880973b548" x="249.621883" y="75.313426" style="fill-opacity: 0; stroke: #000000; stroke-width: 1.5"/>
     <use xlink:href="#m880973b548" x="357.818899" y="44.654257" style="fill-opacity: 0; stroke: #000000; stroke-width: 1.5"/>
     <use xlink:href="#m880973b548" x="388.561203" y="10.162693" style="fill-opacity: 0; stroke: #000000; stroke-width: 1.5"/>
     <use xlink:href="#m880973b548" x="388.561203" y="6.330297" style="fill-opacity: 0; stroke: #000000; stroke-width: 1.5"/>
    </g>
   </g>
   <g id="line2d_118">
    <path clip-path="url(#pbfcd5ee8bf)" style="fill: none; stroke: #000000; stroke-width: 1.5; stroke-linecap: square"/>
   </g>
   <g id="line2d_119">
    <path d="M 251.951256 293.76 
L 251.951256 289.927604 
L 253.148419 289.927604 
L 253.148419 286.095208 
L 253.921085 286.095208 
L 253.921085 282.262812 
L 255.499884 282.262812 
L 255.499884 278.430416 
L 259.200877 278.430416 
L 259.200877 274.59802 
L 260.105983 274.59802 
L 260.105983 270.765624 
L 260.776153 270.765624 
L 260.776153 266.933228 
L 268.826723 266.933228 
L 268.826723 263.100832 
L 269.139912 263.100832 
L 269.139912 259.268436 
L 274.464378 259.268436 
L 274.464378 255.43604 
L 282.161951 255.43604 
L 282.161951 251.603644 
L 288.297317 251.603644 
L 288.297317 247.771248 
L 331.78764 247.771248 
L 331.78764 243.938851 
L 332.28862 243.938851 
L 332.28862 240.106455 
L 334.628608 240.106455 
L 334.628608 236.274059 
L 336.243135 236.274059 
L 336.243135 232.441663 
L 338.89416 232.441663 
L 338.89416 228.609267 
L 338.966457 228.609267 
L 338.966457 224.776871 
L 339.328517 224.776871 
L 339.328517 220.944475 
L 340.688463 220.944475 
L 340.688463 217.112079 
L 342.359725 217.112079 
L 342.359725 213.279683 
L 344.845447 213.279683 
L 344.845447 209.447287 
L 345.341307 209.447287 
L 345.341307 205.614891 
L 346.24665 205.614891 
L 346.24665 201.782495 
L 349.74269 201.782495 
L 349.74269 197.950099 
L 350.351769 197.950099 
L 350.351769 194.117703 
L 351.315328 194.117703 
L 351.315328 190.285307 
L 352.128583 190.285307 
L 352.128583 186.452911 
L 361.948716 186.452911 
L 361.948716 182.620515 
L 365.392348 182.620515 
L 365.392348 178.788119 
L 367.295274 178.788119 
L 367.295274 174.955723 
L 368.883472 174.955723 
L 368.883472 171.123327 
L 373.291269 171.123327 
L 373.291269 167.290931 
L 374.22576 167.290931 
L 374.22576 163.458535 
L 375.118815 163.458535 
L 375.118815 159.626139 
L 377.803994 159.626139 
L 377.803994 155.793743 
L 383.700398 155.793743 
L 383.700398 151.961347 
L 391.154132 151.961347 
L 391.154132 148.12895 
L 410.820235 148.12895 
L 410.820235 144.296554 
L 411.110485 144.296554 
L 411.110485 140.464158 
L 414.862885 140.464158 
L 414.862885 136.631762 
L 418.646431 136.631762 
L 418.646431 132.799366 
L 420.093716 132.799366 
L 420.093716 128.96697 
L 430.894779 128.96697 
L 430.894779 125.134574 
L 430.894779 125.134574 
L 430.894779 125.134574 
L 460.8 125.134574 
" clip-path="url(#pbfcd5ee8bf)" style="fill: none; stroke: #00bfbf; stroke-width: 1.5; stroke-linecap: square"/>
   </g>
   <g id="line2d_120">
    <defs>
     <path id="m10aa86694e" d="M 0 14.142136 
L 8.485281 0 
L 0 -14.142136 
L -8.485281 0 
z
" style="stroke: #00bfbf; stroke-width: 1.5; stroke-linejoin: miter"/>
    </defs>
    <g clip-path="url(#pbfcd5ee8bf)">
     <use xlink:href="#m10aa86694e" x="282.161951" y="255.43604" style="fill-opacity: 0; stroke: #00bfbf; stroke-width: 1.5; stroke-linejoin: miter"/>
     <use xlink:href="#m10aa86694e" x="350.351769" y="197.950099" style="fill-opacity: 0; stroke: #00bfbf; stroke-width: 1.5; stroke-linejoin: miter"/>
     <use xlink:href="#m10aa86694e" x="410.820235" y="148.12895" style="fill-opacity: 0; stroke: #00bfbf; stroke-width: 1.5; stroke-linejoin: miter"/>
     <use xlink:href="#m10aa86694e" x="430.894779" y="125.134574" style="fill-opacity: 0; stroke: #00bfbf; stroke-width: 1.5; stroke-linejoin: miter"/>
    </g>
   </g>
   <g id="line2d_121">
    <path clip-path="url(#pbfcd5ee8bf)" style="fill: none; stroke: #00bfbf; stroke-width: 1.5; stroke-linecap: square"/>
    <g clip-path="url(#pbfcd5ee8bf)">
     <use xlink:href="#m10aa86694e" x="-1" y="581.189703" style="fill-opacity: 0; stroke: #00bfbf; stroke-width: 1.5; stroke-linejoin: miter"/>
     <use xlink:href="#m10aa86694e" x="460.8" y="581.189703" style="fill-opacity: 0; stroke: #00bfbf; stroke-width: 1.5; stroke-linejoin: miter"/>
    </g>
   </g>
   <g id="line2d_122">
    <path d="M 238.965287 293.76 
L 238.965287 289.927604 
L 244.229477 289.927604 
L 244.229477 286.095208 
L 244.821197 286.095208 
L 244.821197 282.262812 
L 247.42952 282.262812 
L 247.42952 278.430416 
L 249.68719 278.430416 
L 249.68719 274.59802 
L 249.968996 274.59802 
L 249.968996 270.765624 
L 252.074603 270.765624 
L 252.074603 266.933228 
L 254.486381 266.933228 
L 254.486381 263.100832 
L 256.525916 263.100832 
L 256.525916 259.268436 
L 259.698586 259.268436 
L 259.698586 255.43604 
L 262.802813 255.43604 
L 262.802813 251.603644 
L 264.643755 251.603644 
L 264.643755 247.771248 
L 265.983395 247.771248 
L 265.983395 243.938851 
L 268.867709 243.938851 
L 268.867709 240.106455 
L 269.799305 240.106455 
L 269.799305 236.274059 
L 273.499515 236.274059 
L 273.499515 232.441663 
L 327.796388 232.441663 
L 327.796388 228.609267 
L 328.017917 228.609267 
L 328.017917 224.776871 
L 333.753187 224.776871 
L 333.753187 220.944475 
L 334.018053 220.944475 
L 334.018053 217.112079 
L 336.397186 217.112079 
L 336.397186 213.279683 
L 336.918783 213.279683 
L 336.918783 209.447287 
L 337.988512 209.447287 
L 337.988512 205.614891 
L 338.819237 205.614891 
L 338.819237 201.782495 
L 339.530479 201.782495 
L 339.530479 197.950099 
L 340.458494 197.950099 
L 340.458494 194.117703 
L 341.403645 194.117703 
L 341.403645 190.285307 
L 342.69555 190.285307 
L 342.69555 186.452911 
L 342.731938 186.452911 
L 342.731938 182.620515 
L 343.602416 182.620515 
L 343.602416 178.788119 
L 349.241095 178.788119 
L 349.241095 174.955723 
L 359.282079 174.955723 
L 359.282079 171.123327 
L 367.579811 171.123327 
L 367.579811 167.290931 
L 369.340011 167.290931 
L 369.340011 163.458535 
L 371.532824 163.458535 
L 371.532824 159.626139 
L 372.030345 159.626139 
L 372.030345 155.793743 
L 373.446879 155.793743 
L 373.446879 151.961347 
L 373.533076 151.961347 
L 373.533076 148.12895 
L 374.365231 148.12895 
L 374.365231 144.296554 
L 377.184159 144.296554 
L 377.184159 140.464158 
L 382.568211 140.464158 
L 382.568211 136.631762 
L 400.988037 136.631762 
L 400.988037 132.799366 
L 404.160891 132.799366 
L 404.160891 128.96697 
L 406.457505 128.96697 
L 406.457505 125.134574 
L 413.203783 125.134574 
L 413.203783 121.302178 
L 413.665112 121.302178 
L 413.665112 117.469782 
L 414.025174 117.469782 
L 414.025174 113.637386 
L 415.559517 113.637386 
L 415.559517 109.80499 
L 428.754208 109.80499 
L 428.754208 105.972594 
L 439.789191 105.972594 
L 439.789191 102.140198 
L 439.846911 102.140198 
L 439.846911 98.307802 
L 440.677417 98.307802 
L 440.677417 94.475406 
L 441.67186 94.475406 
L 441.67186 90.64301 
L 441.71343 90.64301 
L 441.71343 86.810614 
L 441.71343 86.810614 
L 441.71343 86.810614 
L 460.8 86.810614 
" clip-path="url(#pbfcd5ee8bf)" style="fill: none; stroke: #00bfbf; stroke-width: 1.5; stroke-linecap: square"/>
   </g>
   <g id="line2d_123">
    <defs>
     <path id="m1cc63f7d6f" d="M 0 7.5 
C 1.989023 7.5 3.896849 6.709753 5.303301 5.303301 
C 6.709753 3.896849 7.5 1.989023 7.5 0 
C 7.5 -1.989023 6.709753 -3.896849 5.303301 -5.303301 
C 3.896849 -6.709753 1.989023 -7.5 0 -7.5 
C -1.989023 -7.5 -3.896849 -6.709753 -5.303301 -5.303301 
C -6.709753 -3.896849 -7.5 -1.989023 -7.5 0 
C -7.5 1.989023 -6.709753 3.896849 -5.303301 5.303301 
C -3.896849 6.709753 -1.989023 7.5 0 7.5 
z
" style="stroke: #00bfbf; stroke-width: 1.5"/>
    </defs>
    <g clip-path="url(#pbfcd5ee8bf)">
     <use xlink:href="#m1cc63f7d6f" x="269.799305" y="240.106455" style="fill-opacity: 0; stroke: #00bfbf; stroke-width: 1.5"/>
     <use xlink:href="#m1cc63f7d6f" x="336.397186" y="217.112079" style="fill-opacity: 0; stroke: #00bfbf; stroke-width: 1.5"/>
     <use xlink:href="#m1cc63f7d6f" x="377.184159" y="144.296554" style="fill-opacity: 0; stroke: #00bfbf; stroke-width: 1.5"/>
     <use xlink:href="#m1cc63f7d6f" x="439.789191" y="105.972594" style="fill-opacity: 0; stroke: #00bfbf; stroke-width: 1.5"/>
     <use xlink:href="#m1cc63f7d6f" x="441.71343" y="86.810614" style="fill-opacity: 0; stroke: #00bfbf; stroke-width: 1.5"/>
    </g>
   </g>
   <g id="line2d_124">
    <path clip-path="url(#pbfcd5ee8bf)" style="fill: none; stroke: #00bfbf; stroke-width: 1.5; stroke-linecap: square"/>
   </g>
   <g id="line2d_125">
    <path d="M 345.492523 293.76 
L 345.492523 289.927604 
L 348.085676 289.927604 
L 348.085676 286.095208 
L 348.974316 286.095208 
L 348.974316 282.262812 
L 349.005562 282.262812 
L 349.005562 278.430416 
L 350.592902 278.430416 
L 350.592902 274.59802 
L 370.807878 274.59802 
L 370.807878 270.765624 
L 373.738144 270.765624 
L 373.738144 266.933228 
L 374.431631 266.933228 
L 374.431631 263.100832 
L 377.422833 263.100832 
L 377.422833 259.268436 
L 377.589965 259.268436 
L 377.589965 255.43604 
L 378.553992 255.43604 
L 378.553992 251.603644 
L 383.307492 251.603644 
L 383.307492 247.771248 
L 384.264988 247.771248 
L 384.264988 243.938851 
L 387.215916 243.938851 
L 387.215916 240.106455 
L 401.702584 240.106455 
L 401.702584 236.274059 
L 402.213311 236.274059 
L 402.213311 232.441663 
L 404.671028 232.441663 
L 404.671028 228.609267 
L 404.836491 228.609267 
L 404.836491 224.776871 
L 405.950038 224.776871 
L 405.950038 220.944475 
L 406.758915 220.944475 
L 406.758915 217.112079 
L 407.250877 217.112079 
L 407.250877 213.279683 
L 407.309235 213.279683 
L 407.309235 209.447287 
L 408.242093 209.447287 
L 408.242093 205.614891 
L 408.496696 205.614891 
L 408.496696 201.782495 
L 409.166987 201.782495 
L 409.166987 197.950099 
L 410.86636 197.950099 
L 410.86636 194.117703 
L 412.775862 194.117703 
L 412.775862 190.285307 
L 417.866036 190.285307 
L 417.866036 186.452911 
L 422.667845 186.452911 
L 422.667845 182.620515 
L 433.905179 182.620515 
L 433.905179 178.788119 
L 433.905179 178.788119 
L 433.905179 178.788119 
L 460.8 178.788119 
" clip-path="url(#pbfcd5ee8bf)" style="fill: none; stroke: #bf00bf; stroke-width: 1.5; stroke-linecap: square"/>
   </g>
   <g id="line2d_126">
    <defs>
     <path id="mb1fc6440c3" d="M 0 14.142136 
L 8.485281 0 
L 0 -14.142136 
L -8.485281 0 
z
" style="stroke: #bf00bf; stroke-width: 1.5; stroke-linejoin: miter"/>
    </defs>
    <g clip-path="url(#pbfcd5ee8bf)">
     <use xlink:href="#mb1fc6440c3" x="404.671028" y="232.441663" style="fill-opacity: 0; stroke: #bf00bf; stroke-width: 1.5; stroke-linejoin: miter"/>
     <use xlink:href="#mb1fc6440c3" x="433.905179" y="182.620515" style="fill-opacity: 0; stroke: #bf00bf; stroke-width: 1.5; stroke-linejoin: miter"/>
     <use xlink:href="#mb1fc6440c3" x="433.905179" y="178.788119" style="fill-opacity: 0; stroke: #bf00bf; stroke-width: 1.5; stroke-linejoin: miter"/>
    </g>
   </g>
   <g id="line2d_127">
    <path clip-path="url(#pbfcd5ee8bf)" style="fill: none; stroke: #bf00bf; stroke-width: 1.5; stroke-linecap: square"/>
    <g clip-path="url(#pbfcd5ee8bf)">
     <use xlink:href="#mb1fc6440c3" x="-1" y="581.189703" style="fill-opacity: 0; stroke: #bf00bf; stroke-width: 1.5; stroke-linejoin: miter"/>
     <use xlink:href="#mb1fc6440c3" x="460.8" y="581.189703" style="fill-opacity: 0; stroke: #bf00bf; stroke-width: 1.5; stroke-linejoin: miter"/>
    </g>
   </g>
   <g id="line2d_128">
    <path d="M 343.347902 293.76 
L 343.347902 289.927604 
L 348.601448 289.927604 
L 348.601448 286.095208 
L 352.339766 286.095208 
L 352.339766 282.262812 
L 371.178784 282.262812 
L 371.178784 278.430416 
L 371.222067 278.430416 
L 371.222067 274.59802 
L 371.452524 274.59802 
L 371.452524 270.765624 
L 371.654671 270.765624 
L 371.654671 266.933228 
L 371.824429 266.933228 
L 371.824429 263.100832 
L 372.269658 263.100832 
L 372.269658 259.268436 
L 372.541781 259.268436 
L 372.541781 255.43604 
L 374.565159 255.43604 
L 374.565159 251.603644 
L 374.676278 251.603644 
L 374.676278 247.771248 
L 374.83614 247.771248 
L 374.83614 243.938851 
L 374.93925 243.938851 
L 374.93925 240.106455 
L 375.161257 240.106455 
L 375.161257 236.274059 
L 375.497172 236.274059 
L 375.497172 232.441663 
L 375.865983 232.441663 
L 375.865983 228.609267 
L 375.917821 228.609267 
L 375.917821 224.776871 
L 377.075661 224.776871 
L 377.075661 220.944475 
L 377.365991 220.944475 
L 377.365991 217.112079 
L 378.724197 217.112079 
L 378.724197 213.279683 
L 380.76875 213.279683 
L 380.76875 209.447287 
L 401.593248 209.447287 
L 401.593248 205.614891 
L 402.693926 205.614891 
L 402.693926 201.782495 
L 403.094489 201.782495 
L 403.094489 197.950099 
L 403.651612 197.950099 
L 403.651612 194.117703 
L 403.830499 194.117703 
L 403.830499 190.285307 
L 403.927888 190.285307 
L 403.927888 186.452911 
L 404.207947 186.452911 
L 404.207947 182.620515 
L 404.521135 182.620515 
L 404.521135 178.788119 
L 405.056414 178.788119 
L 405.056414 174.955723 
L 405.223332 174.955723 
L 405.223332 171.123327 
L 416.58135 171.123327 
L 416.58135 167.290931 
L 416.705334 167.290931 
L 416.705334 163.458535 
L 418.429102 163.458535 
L 418.429102 159.626139 
L 427.662563 159.626139 
L 427.662563 155.793743 
L 431.125749 155.793743 
L 431.125749 151.961347 
L 435.032 151.961347 
L 435.032 148.12895 
L 441.673919 148.12895 
L 441.673919 144.296554 
L 441.673919 144.296554 
L 441.673919 144.296554 
L 460.8 144.296554 
" clip-path="url(#pbfcd5ee8bf)" style="fill: none; stroke: #bf00bf; stroke-width: 1.5; stroke-linecap: square"/>
   </g>
   <g id="line2d_129">
    <defs>
     <path id="m70457dd8bf" d="M 0 7.5 
C 1.989023 7.5 3.896849 6.709753 5.303301 5.303301 
C 6.709753 3.896849 7.5 1.989023 7.5 0 
C 7.5 -1.989023 6.709753 -3.896849 5.303301 -5.303301 
C 3.896849 -6.709753 1.989023 -7.5 0 -7.5 
C -1.989023 -7.5 -3.896849 -6.709753 -5.303301 -5.303301 
C -6.709753 -3.896849 -7.5 -1.989023 -7.5 0 
C -7.5 1.989023 -6.709753 3.896849 -5.303301 5.303301 
C -3.896849 6.709753 -1.989023 7.5 0 7.5 
z
" style="stroke: #bf00bf; stroke-width: 1.5"/>
    </defs>
    <g clip-path="url(#pbfcd5ee8bf)">
     <use xlink:href="#m70457dd8bf" x="375.161257" y="240.106455" style="fill-opacity: 0; stroke: #bf00bf; stroke-width: 1.5"/>
     <use xlink:href="#m70457dd8bf" x="404.207947" y="186.452911" style="fill-opacity: 0; stroke: #bf00bf; stroke-width: 1.5"/>
     <use xlink:href="#m70457dd8bf" x="441.673919" y="148.12895" style="fill-opacity: 0; stroke: #bf00bf; stroke-width: 1.5"/>
     <use xlink:href="#m70457dd8bf" x="441.673919" y="144.296554" style="fill-opacity: 0; stroke: #bf00bf; stroke-width: 1.5"/>
    </g>
   </g>
   <g id="line2d_130">
    <path clip-path="url(#pbfcd5ee8bf)" style="fill: none; stroke: #bf00bf; stroke-width: 1.5; stroke-linecap: square"/>
   </g>
   <g id="line2d_131">
    <path d="M 379.269047 293.76 
L 379.269047 289.927604 
L 384.021226 289.927604 
L 384.021226 286.095208 
L 384.708858 286.095208 
L 384.708858 282.262812 
L 405.005805 282.262812 
L 405.005805 278.430416 
L 407.733279 278.430416 
L 407.733279 274.59802 
L 408.376753 274.59802 
L 408.376753 270.765624 
L 408.874077 270.765624 
L 408.874077 266.933228 
L 408.899174 266.933228 
L 408.899174 263.100832 
L 409.007145 263.100832 
L 409.007145 259.268436 
L 409.168346 259.268436 
L 409.168346 255.43604 
L 409.339301 255.43604 
L 409.339301 251.603644 
L 409.530669 251.603644 
L 409.530669 247.771248 
L 410.194203 247.771248 
L 410.194203 243.938851 
L 411.366063 243.938851 
L 411.366063 240.106455 
L 412.216961 240.106455 
L 412.216961 236.274059 
L 412.441097 236.274059 
L 412.441097 232.441663 
L 412.681503 232.441663 
L 412.681503 228.609267 
L 413.328512 228.609267 
L 413.328512 224.776871 
L 413.471239 224.776871 
L 413.471239 220.944475 
L 414.352156 220.944475 
L 414.352156 217.112079 
L 416.964942 217.112079 
L 416.964942 213.279683 
L 417.890614 213.279683 
L 417.890614 209.447287 
L 419.946754 209.447287 
L 419.946754 205.614891 
L 424.684872 205.614891 
L 424.684872 201.782495 
L 436.263568 201.782495 
L 436.263568 197.950099 
L 436.857022 197.950099 
L 436.857022 194.117703 
L 438.175627 194.117703 
L 438.175627 190.285307 
L 438.175627 190.285307 
L 438.175627 190.285307 
L 460.8 190.285307 
" clip-path="url(#pbfcd5ee8bf)" style="fill: none; stroke: #ff0000; stroke-width: 3; stroke-linecap: square"/>
   </g>
   <g id="line2d_132">
    <defs>
     <path id="m25c9691900" d="M 0 14.142136 
L 8.485281 0 
L 0 -14.142136 
L -8.485281 0 
z
" style="stroke: #ff0000; stroke-width: 3; stroke-linejoin: miter"/>
    </defs>
    <g clip-path="url(#pbfcd5ee8bf)">
     <use xlink:href="#m25c9691900" x="411.366063" y="243.938851" style="fill-opacity: 0; stroke: #ff0000; stroke-width: 3; stroke-linejoin: miter"/>
     <use xlink:href="#m25c9691900" x="438.175627" y="194.117703" style="fill-opacity: 0; stroke: #ff0000; stroke-width: 3; stroke-linejoin: miter"/>
     <use xlink:href="#m25c9691900" x="438.175627" y="190.285307" style="fill-opacity: 0; stroke: #ff0000; stroke-width: 3; stroke-linejoin: miter"/>
    </g>
   </g>
   <g id="line2d_133">
    <path clip-path="url(#pbfcd5ee8bf)" style="fill: none; stroke: #ff0000; stroke-width: 3; stroke-linecap: square"/>
    <g clip-path="url(#pbfcd5ee8bf)">
     <use xlink:href="#m25c9691900" x="-1" y="581.189703" style="fill-opacity: 0; stroke: #ff0000; stroke-width: 3; stroke-linejoin: miter"/>
     <use xlink:href="#m25c9691900" x="460.8" y="581.189703" style="fill-opacity: 0; stroke: #ff0000; stroke-width: 3; stroke-linejoin: miter"/>
    </g>
   </g>
   <g id="line2d_134">
    <path d="M 378.440448 293.76 
L 378.440448 289.927604 
L 379.376597 289.927604 
L 379.376597 286.095208 
L 379.419538 286.095208 
L 379.419538 282.262812 
L 379.615938 282.262812 
L 379.615938 278.430416 
L 379.773496 278.430416 
L 379.773496 274.59802 
L 379.832657 274.59802 
L 379.832657 270.765624 
L 382.001626 270.765624 
L 382.001626 266.933228 
L 405.652502 266.933228 
L 405.652502 263.100832 
L 406.159724 263.100832 
L 406.159724 259.268436 
L 406.62512 259.268436 
L 406.62512 255.43604 
L 406.650179 255.43604 
L 406.650179 251.603644 
L 406.776209 251.603644 
L 406.776209 247.771248 
L 407.115338 247.771248 
L 407.115338 243.938851 
L 407.380292 243.938851 
L 407.380292 240.106455 
L 407.409153 240.106455 
L 407.409153 236.274059 
L 407.600734 236.274059 
L 407.600734 232.441663 
L 407.616266 232.441663 
L 407.616266 228.609267 
L 407.909814 228.609267 
L 407.909814 224.776871 
L 408.045562 224.776871 
L 408.045562 220.944475 
L 408.722715 220.944475 
L 408.722715 217.112079 
L 408.968454 217.112079 
L 408.968454 213.279683 
L 408.986211 213.279683 
L 408.986211 209.447287 
L 409.345168 209.447287 
L 409.345168 205.614891 
L 409.686258 205.614891 
L 409.686258 201.782495 
L 409.873351 201.782495 
L 409.873351 197.950099 
L 410.056051 197.950099 
L 410.056051 194.117703 
L 410.426071 194.117703 
L 410.426071 190.285307 
L 410.671063 190.285307 
L 410.671063 186.452911 
L 410.751386 186.452911 
L 410.751386 182.620515 
L 410.87984 182.620515 
L 410.87984 178.788119 
L 411.547837 178.788119 
L 411.547837 174.955723 
L 411.835997 174.955723 
L 411.835997 171.123327 
L 420.371577 171.123327 
L 420.371577 167.290931 
L 420.666094 167.290931 
L 420.666094 163.458535 
L 422.012448 163.458535 
L 422.012448 159.626139 
L 430.724323 159.626139 
L 430.724323 155.793743 
L 434.228347 155.793743 
L 434.228347 151.961347 
L 441.209717 151.961347 
L 441.209717 148.12895 
L 441.209717 148.12895 
L 441.209717 148.12895 
L 460.8 148.12895 
" clip-path="url(#pbfcd5ee8bf)" style="fill: none; stroke: #ff0000; stroke-width: 3; stroke-linecap: square"/>
   </g>
   <g id="line2d_135">
    <defs>
     <path id="mf6c64ec780" d="M 0 7.5 
C 1.989023 7.5 3.896849 6.709753 5.303301 5.303301 
C 6.709753 3.896849 7.5 1.989023 7.5 0 
C 7.5 -1.989023 6.709753 -3.896849 5.303301 -5.303301 
C 3.896849 -6.709753 1.989023 -7.5 0 -7.5 
C -1.989023 -7.5 -3.896849 -6.709753 -5.303301 -5.303301 
C -6.709753 -3.896849 -7.5 -1.989023 -7.5 0 
C -7.5 1.989023 -6.709753 3.896849 -5.303301 5.303301 
C -3.896849 6.709753 -1.989023 7.5 0 7.5 
z
" style="stroke: #ff0000; stroke-width: 3"/>
    </defs>
    <g clip-path="url(#pbfcd5ee8bf)">
     <use xlink:href="#mf6c64ec780" x="408.968454" y="217.112079" style="fill-opacity: 0; stroke: #ff0000; stroke-width: 3"/>
     <use xlink:href="#mf6c64ec780" x="430.724323" y="159.626139" style="fill-opacity: 0; stroke: #ff0000; stroke-width: 3"/>
     <use xlink:href="#mf6c64ec780" x="441.209717" y="148.12895" style="fill-opacity: 0; stroke: #ff0000; stroke-width: 3"/>
    </g>
   </g>
   <g id="line2d_136">
    <path clip-path="url(#pbfcd5ee8bf)" style="fill: none; stroke: #ff0000; stroke-width: 3; stroke-linecap: square"/>
   </g>
   <g id="line2d_137">
    <path d="M 441.729882 293.76 
L 441.729882 3.456 
" clip-path="url(#pbfcd5ee8bf)" style="fill: none; stroke: #000000; stroke-width: 1.5; stroke-linecap: square"/>
    <defs>
     <path id="mcb41000af0" d="M -10 0 
L 10 0 
M 0 10 
L 0 -10 
" style="stroke: #000000; stroke-width: 3"/>
    </defs>
    <g clip-path="url(#pbfcd5ee8bf)">
     <use xlink:href="#mcb41000af0" x="441.729882" y="293.76" style="stroke: #000000; stroke-width: 3"/>
     <use xlink:href="#mcb41000af0" x="441.729882" y="3.456" style="stroke: #000000; stroke-width: 3"/>
    </g>
   </g>
   <g id="line2d_138">
    <path d="M 441.718572 293.76 
L 441.718572 3.456 
" clip-path="url(#pbfcd5ee8bf)" style="fill: none; stroke: #000000; stroke-width: 1.5; stroke-linecap: square"/>
    <defs>
     <path id="mf71ba6442e" d="M 0 7.5 
C 1.989023 7.5 3.896849 6.709753 5.303301 5.303301 
C 6.709753 3.896849 7.5 1.989023 7.5 0 
C 7.5 -1.989023 6.709753 -3.896849 5.303301 -5.303301 
C 3.896849 -6.709753 1.989023 -7.5 0 -7.5 
C -1.989023 -7.5 -3.896849 -6.709753 -5.303301 -5.303301 
C -6.709753 -3.896849 -7.5 -1.989023 -7.5 0 
C -7.5 1.989023 -6.709753 3.896849 -5.303301 5.303301 
C -3.896849 6.709753 -1.989023 7.5 0 7.5 
z
" style="stroke: #000000; stroke-width: 3"/>
    </defs>
    <g clip-path="url(#pbfcd5ee8bf)">
     <use xlink:href="#mf71ba6442e" x="441.718572" y="293.76" style="fill-opacity: 0; stroke: #000000; stroke-width: 3"/>
     <use xlink:href="#mf71ba6442e" x="441.718572" y="3.456" style="fill-opacity: 0; stroke: #000000; stroke-width: 3"/>
    </g>
   </g>
   <g id="patch_3">
    <path d="M 62.208 293.76 
L 62.208 3.456 
" style="fill: none; stroke: #000000; stroke-width: 0.8; stroke-linejoin: miter; stroke-linecap: square"/>
   </g>
   <g id="patch_4">
    <path d="M 460.8 293.76 
L 460.8 3.456 
" style="fill: none; stroke: #000000; stroke-width: 0.8; stroke-linejoin: miter; stroke-linecap: square"/>
   </g>
   <g id="patch_5">
    <path d="M 62.208 293.76 
L 460.8 293.76 
" style="fill: none; stroke: #000000; stroke-width: 0.8; stroke-linejoin: miter; stroke-linecap: square"/>
   </g>
   <g id="patch_6">
    <path d="M 62.208 3.456 
L 460.8 3.456 
" style="fill: none; stroke: #000000; stroke-width: 0.8; stroke-linejoin: miter; stroke-linecap: square"/>
   </g>
   <g id="text_12">
    <!-- f15-f19 -->
    <g transform="translate(225.405563 24.458955)scale(0.2 -0.2)">
     <defs>
      <path id="DejaVuSans-35" d="M 691 4666 
L 3169 4666 
L 3169 4134 
L 1269 4134 
L 1269 2991 
Q 1406 3038 1543 3061 
Q 1681 3084 1819 3084 
Q 2600 3084 3056 2656 
Q 3513 2228 3513 1497 
Q 3513 744 3044 326 
Q 2575 -91 1722 -91 
Q 1428 -91 1123 -41 
Q 819 9 494 109 
L 494 744 
Q 775 591 1075 516 
Q 1375 441 1709 441 
Q 2250 441 2565 725 
Q 2881 1009 2881 1497 
Q 2881 1984 2565 2268 
Q 2250 2553 1709 2553 
Q 1456 2553 1204 2497 
Q 953 2441 691 2322 
L 691 4666 
z
" transform="scale(0.015625)"/>
      <path id="DejaVuSans-2d" d="M 313 2009 
L 1997 2009 
L 1997 1497 
L 313 1497 
L 313 2009 
z
" transform="scale(0.015625)"/>
      <path id="DejaVuSans-39" d="M 703 97 
L 703 672 
Q 941 559 1184 500 
Q 1428 441 1663 441 
Q 2288 441 2617 861 
Q 2947 1281 2994 2138 
Q 2813 1869 2534 1725 
Q 2256 1581 1919 1581 
Q 1219 1581 811 2004 
Q 403 2428 403 3163 
Q 403 3881 828 4315 
Q 1253 4750 1959 4750 
Q 2769 4750 3195 4129 
Q 3622 3509 3622 2328 
Q 3622 1225 3098 567 
Q 2575 -91 1691 -91 
Q 1453 -91 1209 -44 
Q 966 3 703 97 
z
M 1959 2075 
Q 2384 2075 2632 2365 
Q 2881 2656 2881 3163 
Q 2881 3666 2632 3958 
Q 2384 4250 1959 4250 
Q 1534 4250 1286 3958 
Q 1038 3666 1038 3163 
Q 1038 2656 1286 2365 
Q 1534 2075 1959 2075 
z
" transform="scale(0.015625)"/>
     </defs>
     <use xlink:href="#DejaVuSans-66"/>
     <use xlink:href="#DejaVuSans-31" x="35.205078"/>
     <use xlink:href="#DejaVuSans-35" x="98.828125"/>
     <use xlink:href="#DejaVuSans-2d" x="162.451172"/>
     <use xlink:href="#DejaVuSans-66" x="198.535156"/>
     <use xlink:href="#DejaVuSans-31" x="233.740234"/>
     <use xlink:href="#DejaVuSans-39" x="297.363281"/>
    </g>
   </g>
   <g id="text_13">
    <!-- absolute targets -->
    <g transform="translate(62.208 609.932673)scale(0.14 -0.14)">
     <defs>
      <path id="DejaVuSans-62" d="M 3116 1747 
Q 3116 2381 2855 2742 
Q 2594 3103 2138 3103 
Q 1681 3103 1420 2742 
Q 1159 2381 1159 1747 
Q 1159 1113 1420 752 
Q 1681 391 2138 391 
Q 2594 391 2855 752 
Q 3116 1113 3116 1747 
z
M 1159 2969 
Q 1341 3281 1617 3432 
Q 1894 3584 2278 3584 
Q 2916 3584 3314 3078 
Q 3713 2572 3713 1747 
Q 3713 922 3314 415 
Q 2916 -91 2278 -91 
Q 1894 -91 1617 61 
Q 1341 213 1159 525 
L 1159 0 
L 581 0 
L 581 4863 
L 1159 4863 
L 1159 2969 
z
" transform="scale(0.015625)"/>
      <path id="DejaVuSans-75" d="M 544 1381 
L 544 3500 
L 1119 3500 
L 1119 1403 
Q 1119 906 1312 657 
Q 1506 409 1894 409 
Q 2359 409 2629 706 
Q 2900 1003 2900 1516 
L 2900 3500 
L 3475 3500 
L 3475 0 
L 2900 0 
L 2900 538 
Q 2691 219 2414 64 
Q 2138 -91 1772 -91 
Q 1169 -91 856 284 
Q 544 659 544 1381 
z
M 1991 3584 
L 1991 3584 
z
" transform="scale(0.015625)"/>
      <path id="DejaVuSans-65" d="M 3597 1894 
L 3597 1613 
L 953 1613 
Q 991 1019 1311 708 
Q 1631 397 2203 397 
Q 2534 397 2845 478 
Q 3156 559 3463 722 
L 3463 178 
Q 3153 47 2828 -22 
Q 2503 -91 2169 -91 
Q 1331 -91 842 396 
Q 353 884 353 1716 
Q 353 2575 817 3079 
Q 1281 3584 2069 3584 
Q 2775 3584 3186 3129 
Q 3597 2675 3597 1894 
z
M 3022 2063 
Q 3016 2534 2758 2815 
Q 2500 3097 2075 3097 
Q 1594 3097 1305 2825 
Q 1016 2553 972 2059 
L 3022 2063 
z
" transform="scale(0.015625)"/>
     </defs>
     <use xlink:href="#DejaVuSans-61"/>
     <use xlink:href="#DejaVuSans-62" x="61.279297"/>
     <use xlink:href="#DejaVuSans-73" x="124.755859"/>
     <use xlink:href="#DejaVuSans-6f" x="176.855469"/>
     <use xlink:href="#DejaVuSans-6c" x="238.037109"/>
     <use xlink:href="#DejaVuSans-75" x="265.820312"/>
     <use xlink:href="#DejaVuSans-74" x="329.199219"/>
     <use xlink:href="#DejaVuSans-65" x="368.408203"/>
     <use xlink:href="#DejaVuSans-20" x="429.931641"/>
     <use xlink:href="#DejaVuSans-74" x="461.71875"/>
     <use xlink:href="#DejaVuSans-61" x="500.927734"/>
     <use xlink:href="#DejaVuSans-72" x="562.207031"/>
     <use xlink:href="#DejaVuSans-67" x="601.570312"/>
     <use xlink:href="#DejaVuSans-65" x="665.046875"/>
     <use xlink:href="#DejaVuSans-74" x="726.570312"/>
     <use xlink:href="#DejaVuSans-73" x="765.779297"/>
    </g>
   </g>
   <g id="text_14">
    <!-- v2.6.3.10 -->
    <g style="fill: #808080" transform="translate(237.871188 288.777272)scale(0.1 -0.1)">
     <defs>
      <path id="DejaVuSans-33" d="M 2597 2516 
Q 3050 2419 3304 2112 
Q 3559 1806 3559 1356 
Q 3559 666 3084 287 
Q 2609 -91 1734 -91 
Q 1441 -91 1130 -33 
Q 819 25 488 141 
L 488 750 
Q 750 597 1062 519 
Q 1375 441 1716 441 
Q 2309 441 2620 675 
Q 2931 909 2931 1356 
Q 2931 1769 2642 2001 
Q 2353 2234 1838 2234 
L 1294 2234 
L 1294 2753 
L 1863 2753 
Q 2328 2753 2575 2939 
Q 2822 3125 2822 3475 
Q 2822 3834 2567 4026 
Q 2313 4219 1838 4219 
Q 1578 4219 1281 4162 
Q 984 4106 628 3988 
L 628 4550 
Q 988 4650 1302 4700 
Q 1616 4750 1894 4750 
Q 2613 4750 3031 4423 
Q 3450 4097 3450 3541 
Q 3450 3153 3228 2886 
Q 3006 2619 2597 2516 
z
" transform="scale(0.015625)"/>
     </defs>
     <use xlink:href="#DejaVuSans-76"/>
     <use xlink:href="#DejaVuSans-32" x="59.179688"/>
     <use xlink:href="#DejaVuSans-2e" x="122.802734"/>
     <use xlink:href="#DejaVuSans-36" x="154.589844"/>
     <use xlink:href="#DejaVuSans-2e" x="218.212891"/>
     <use xlink:href="#DejaVuSans-33" x="250"/>
     <use xlink:href="#DejaVuSans-2e" x="313.623047"/>
     <use xlink:href="#DejaVuSans-31" x="345.410156"/>
     <use xlink:href="#DejaVuSans-30" x="409.033203"/>
    </g>
   </g>
   <g id="legend_1">
    <g id="patch_7">
     <path d="M 76.208 136.881 
L 160.148625 136.881 
Q 164.148625 136.881 164.148625 132.881 
L 164.148625 17.456 
Q 164.148625 13.456 160.148625 13.456 
L 76.208 13.456 
Q 72.208 13.456 72.208 17.456 
L 72.208 132.881 
Q 72.208 136.881 76.208 136.881 
z
" style="fill: #ffffff; opacity: 0.2; stroke: #cccccc; stroke-linejoin: miter"/>
    </g>
    <g id="line2d_139">
     <path d="M 80.208 29.652875 
L 80.208 29.652875 
L 100.208 29.652875 
L 100.208 29.652875 
L 120.208 29.652875 
" style="fill: none; stroke: #000000; stroke-width: 1.5; stroke-linecap: square"/>
    </g>
    <g id="text_15">
     <!-- 1 -->
     <g transform="translate(136.208 36.652875)scale(0.2 -0.2)">
      <use xlink:href="#DejaVuSans-31"/>
     </g>
    </g>
    <g id="line2d_140">
     <path d="M 80.208 59.009125 
L 80.208 59.009125 
L 100.208 59.009125 
L 100.208 59.009125 
L 120.208 59.009125 
" style="fill: none; stroke: #00bfbf; stroke-width: 1.5; stroke-linecap: square"/>
    </g>
    <g id="text_16">
     <!-- -1 -->
     <g transform="translate(136.208 66.009125)scale(0.2 -0.2)">
      <use xlink:href="#DejaVuSans-2d"/>
      <use xlink:href="#DejaVuSans-31" x="36.083984"/>
     </g>
    </g>
    <g id="line2d_141">
     <path d="M 80.208 88.365375 
L 80.208 88.365375 
L 100.208 88.365375 
L 100.208 88.365375 
L 120.208 88.365375 
" style="fill: none; stroke: #bf00bf; stroke-width: 1.5; stroke-linecap: square"/>
    </g>
    <g id="text_17">
     <!-- -4 -->
     <g transform="translate(136.208 95.365375)scale(0.2 -0.2)">
      <use xlink:href="#DejaVuSans-2d"/>
      <use xlink:href="#DejaVuSans-34" x="36.083984"/>
     </g>
    </g>
    <g id="line2d_142">
     <path d="M 80.208 117.721625 
L 80.208 117.721625 
L 100.208 117.721625 
L 100.208 117.721625 
L 120.208 117.721625 
" style="fill: none; stroke: #ff0000; stroke-width: 3; stroke-linecap: square"/>
    </g>
    <g id="text_18">
     <!-- -8 -->
     <g transform="translate(136.208 124.721625)scale(0.2 -0.2)">
      <use xlink:href="#DejaVuSans-2d"/>
      <use xlink:href="#DejaVuSans-38" x="36.083984"/>
     </g>
    </g>
   </g>
  </g>
 </g>
 <defs>
  <clipPath id="pbfcd5ee8bf">
   <rect x="62.208" y="3.456" width="398.592" height="290.304"/>
  </clipPath>
 </defs>
</svg>
