<?xml version="1.0" encoding="utf-8" standalone="no"?>
<!DOCTYPE svg PUBLIC "-//W3C//DTD SVG 1.1//EN"
  "http://www.w3.org/Graphics/SVG/1.1/DTD/svg11.dtd">
<svg xmlns:xlink="http://www.w3.org/1999/xlink" width="460.8pt" height="345.6pt" viewBox="0 0 460.8 345.6" xmlns="http://www.w3.org/2000/svg" version="1.1">
 <metadata>
  <rdf:RDF xmlns:dc="http://purl.org/dc/elements/1.1/" xmlns:cc="http://creativecommons.org/ns#" xmlns:rdf="http://www.w3.org/1999/02/22-rdf-syntax-ns#">
   <cc:Work>
    <dc:type rdf:resource="http://purl.org/dc/dcmitype/StillImage"/>
    <dc:date>2023-05-09T15:04:43.480476</dc:date>
    <dc:format>image/svg+xml</dc:format>
    <dc:creator>
     <cc:Agent>
      <dc:title>Matplotlib v3.5.2, https://matplotlib.org/</dc:title>
     </cc:Agent>
    </dc:creator>
   </cc:Work>
  </rdf:RDF>
 </metadata>
 <defs>
  <style type="text/css">*{stroke-linejoin: round; stroke-linecap: butt}</style>
 </defs>
 <g id="figure_1">
  <g id="patch_1">
   <path d="M 0 345.6 
L 460.8 345.6 
L 460.8 0 
L 0 0 
z
" style="fill: #ffffff"/>
  </g>
  <g id="axes_1">
   <g id="patch_2">
    <path d="M 62.208 293.76 
L 460.8 293.76 
L 460.8 3.456 
L 62.208 3.456 
z
" style="fill: #ffffff"/>
   </g>
   <g id="line2d_1"/>
   <g id="line2d_2"/>
   <g id="line2d_3">
    <path d="M 250.84535 293.76 
L 250.84535 289.927604 
L 292.964683 289.927604 
L 292.964683 286.095208 
L 311.579229 286.095208 
L 311.579229 282.262812 
L 342.260971 282.262812 
L 342.260971 278.430416 
L 348.490903 278.430416 
L 348.490903 274.59802 
L 348.903926 274.59802 
L 348.903926 270.765624 
L 351.484783 270.765624 
L 351.484783 266.933228 
L 360.74208 266.933228 
L 360.74208 263.100832 
L 373.010989 263.100832 
L 373.010989 259.268436 
L 381.582361 259.268436 
L 381.582361 255.43604 
L 382.640755 255.43604 
L 382.640755 251.603644 
L 387.871637 251.603644 
L 387.871637 247.771248 
L 402.347765 247.771248 
L 402.347765 243.938851 
L 437.005328 243.938851 
L 437.005328 240.106455 
L 439.112524 240.106455 
L 439.112524 236.274059 
L 440.260209 236.274059 
L 440.260209 232.441663 
L 440.260209 232.441663 
L 440.260209 232.441663 
L 460.8 232.441663 
" clip-path="url(#pa5da996478)" style="fill: none; stroke: #f5deb3; stroke-width: 1.5; stroke-linecap: square"/>
   </g>
   <g id="line2d_4">
    <path d="M 286.459033 293.76 
L 286.459033 289.927604 
L 296.811632 289.927604 
L 296.811632 286.095208 
L 302.34746 286.095208 
L 302.34746 282.262812 
L 323.358386 282.262812 
L 323.358386 278.430416 
L 327.01152 278.430416 
L 327.01152 274.59802 
L 373.877138 274.59802 
L 373.877138 270.765624 
L 376.89254 270.765624 
L 376.89254 266.933228 
L 380.964229 266.933228 
L 380.964229 263.100832 
L 387.053442 263.100832 
L 387.053442 259.268436 
L 389.202642 259.268436 
L 389.202642 255.43604 
L 395.375275 255.43604 
L 395.375275 251.603644 
L 398.275101 251.603644 
L 398.275101 247.771248 
L 399.84415 247.771248 
L 399.84415 243.938851 
L 403.915019 243.938851 
L 403.915019 240.106455 
L 408.446455 240.106455 
L 408.446455 236.274059 
L 408.627313 236.274059 
L 408.627313 232.441663 
L 410.044517 232.441663 
L 410.044517 228.609267 
L 413.065072 228.609267 
L 413.065072 224.776871 
L 416.004556 224.776871 
L 416.004556 220.944475 
L 416.187274 220.944475 
L 416.187274 217.112079 
L 418.913449 217.112079 
L 418.913449 213.279683 
L 419.235578 213.279683 
L 419.235578 209.447287 
L 425.436738 209.447287 
L 425.436738 205.614891 
L 429.341618 205.614891 
L 429.341618 201.782495 
L 429.862672 201.782495 
L 429.862672 197.950099 
L 432.986839 197.950099 
L 432.986839 194.117703 
L 432.986839 194.117703 
L 432.986839 194.117703 
L 460.8 194.117703 
" clip-path="url(#pa5da996478)" style="fill: none; stroke: #f5deb3; stroke-width: 1.5; stroke-linecap: square"/>
   </g>
   <g id="line2d_5"/>
   <g id="line2d_6"/>
   <g id="line2d_7">
    <path d="M 256.59955 293.76 
L 256.59955 289.927604 
L 333.458146 289.927604 
L 333.458146 286.095208 
L 334.523313 286.095208 
L 334.523313 282.262812 
L 376.343268 282.262812 
L 376.343268 278.430416 
L 378.838855 278.430416 
L 378.838855 274.59802 
L 410.695525 274.59802 
L 410.695525 270.765624 
L 417.348339 270.765624 
L 417.348339 266.933228 
L 422.550437 266.933228 
L 422.550437 263.100832 
L 426.242856 263.100832 
L 426.242856 259.268436 
L 450.42646 259.268436 
L 450.42646 255.43604 
L 461.8 255.43604 
" clip-path="url(#pa5da996478)" style="fill: none; stroke: #f5deb3; stroke-width: 1.5; stroke-linecap: square"/>
   </g>
   <g id="line2d_8"/>
   <g id="line2d_9">
    <path d="M 256.415219 293.76 
L 256.415219 289.927604 
L 257.742242 289.927604 
L 257.742242 286.095208 
L 309.222722 286.095208 
L 309.222722 282.262812 
L 342.822767 282.262812 
L 342.822767 278.430416 
L 368.347421 278.430416 
L 368.347421 274.59802 
L 371.628752 274.59802 
L 371.628752 270.765624 
L 412.200965 270.765624 
L 412.200965 266.933228 
L 430.737212 266.933228 
L 430.737212 263.100832 
L 448.621133 263.100832 
L 448.621133 259.268436 
L 452.555999 259.268436 
L 452.555999 255.43604 
L 453.165187 255.43604 
L 453.165187 251.603644 
L 453.408096 251.603644 
L 453.408096 247.771248 
L 461.8 247.771248 
" clip-path="url(#pa5da996478)" style="fill: none; stroke: #f5deb3; stroke-width: 1.5; stroke-linecap: square"/>
   </g>
   <g id="line2d_10">
    <path clip-path="url(#pa5da996478)" style="fill: none; stroke: #f5deb3; stroke-width: 1.5; stroke-linecap: square"/>
   </g>
   <g id="line2d_11">
    <path d="M 285.866765 293.76 
L 285.866765 289.927604 
L 309.666398 289.927604 
L 309.666398 286.095208 
L 332.806728 286.095208 
L 332.806728 282.262812 
L 334.23655 282.262812 
L 334.23655 278.430416 
L 344.247249 278.430416 
L 344.247249 274.59802 
L 360.09841 274.59802 
L 360.09841 270.765624 
L 371.338025 270.765624 
L 371.338025 266.933228 
L 385.949616 266.933228 
L 385.949616 263.100832 
L 386.214713 263.100832 
L 386.214713 259.268436 
L 396.385139 259.268436 
L 396.385139 255.43604 
L 396.963298 255.43604 
L 396.963298 251.603644 
L 397.595322 251.603644 
L 397.595322 247.771248 
L 404.749302 247.771248 
L 404.749302 243.938851 
L 416.317401 243.938851 
L 416.317401 240.106455 
L 419.930005 240.106455 
L 419.930005 236.274059 
L 421.449181 236.274059 
L 421.449181 232.441663 
L 423.944998 232.441663 
L 423.944998 228.609267 
L 433.29784 228.609267 
L 433.29784 224.776871 
L 434.448772 224.776871 
L 434.448772 220.944475 
L 436.113977 220.944475 
L 436.113977 217.112079 
L 443.934772 217.112079 
L 443.934772 213.279683 
L 448.34189 213.279683 
L 448.34189 209.447287 
L 450.450593 209.447287 
L 450.450593 205.614891 
L 454.467057 205.614891 
L 454.467057 201.782495 
L 459.662968 201.782495 
L 459.662968 197.950099 
L 461.8 197.950099 
" clip-path="url(#pa5da996478)" style="fill: none; stroke: #f5deb3; stroke-width: 1.5; stroke-linecap: square"/>
   </g>
   <g id="line2d_12">
    <path d="M 300.690922 293.76 
L 300.690922 289.927604 
L 392.581081 289.927604 
L 392.581081 286.095208 
L 392.581081 286.095208 
L 392.581081 286.095208 
L 460.8 286.095208 
" clip-path="url(#pa5da996478)" style="fill: none; stroke: #f5deb3; stroke-width: 1.5; stroke-linecap: square"/>
   </g>
   <g id="line2d_13"/>
   <g id="line2d_14">
    <path d="M 233.960941 293.76 
L 233.960941 289.927604 
L 267.956461 289.927604 
L 267.956461 286.095208 
L 299.708001 286.095208 
L 299.708001 282.262812 
L 316.083671 282.262812 
L 316.083671 278.430416 
L 325.723087 278.430416 
L 325.723087 274.59802 
L 329.256487 274.59802 
L 329.256487 270.765624 
L 334.250516 270.765624 
L 334.250516 266.933228 
L 347.76705 266.933228 
L 347.76705 263.100832 
L 357.473854 263.100832 
L 357.473854 259.268436 
L 369.906894 259.268436 
L 369.906894 255.43604 
L 381.571736 255.43604 
L 381.571736 251.603644 
L 398.407721 251.603644 
L 398.407721 247.771248 
L 406.449275 247.771248 
L 406.449275 243.938851 
L 423.383968 243.938851 
L 423.383968 240.106455 
L 425.349316 240.106455 
L 425.349316 236.274059 
L 426.347523 236.274059 
L 426.347523 232.441663 
L 429.556026 232.441663 
L 429.556026 228.609267 
L 430.737212 228.609267 
L 430.737212 224.776871 
L 431.783256 224.776871 
L 431.783256 220.944475 
L 435.519444 220.944475 
L 435.519444 217.112079 
L 439.9767 217.112079 
L 439.9767 213.279683 
L 440.594228 213.279683 
L 440.594228 209.447287 
L 440.594228 209.447287 
L 440.594228 209.447287 
L 460.8 209.447287 
" clip-path="url(#pa5da996478)" style="fill: none; stroke: #f5deb3; stroke-width: 1.5; stroke-linecap: square"/>
   </g>
   <g id="line2d_15"/>
   <g id="line2d_16">
    <path d="M 352.199097 293.76 
L 352.199097 289.927604 
L 390.156882 289.927604 
L 390.156882 286.095208 
L 400.05502 286.095208 
L 400.05502 282.262812 
L 402.391061 282.262812 
L 402.391061 278.430416 
L 412.538931 278.430416 
L 412.538931 274.59802 
L 439.611216 274.59802 
L 439.611216 270.765624 
L 461.8 270.765624 
" clip-path="url(#pa5da996478)" style="fill: none; stroke: #f5deb3; stroke-width: 1.5; stroke-linecap: square"/>
   </g>
   <g id="line2d_17"/>
   <g id="line2d_18">
    <path d="M 224.472144 293.76 
L 224.472144 289.927604 
L 279.538694 289.927604 
L 279.538694 286.095208 
L 288.687418 286.095208 
L 288.687418 282.262812 
L 294.341311 282.262812 
L 294.341311 278.430416 
L 297.912492 278.430416 
L 297.912492 274.59802 
L 303.576979 274.59802 
L 303.576979 270.765624 
L 304.13766 270.765624 
L 304.13766 266.933228 
L 314.431909 266.933228 
L 314.431909 263.100832 
L 319.035552 263.100832 
L 319.035552 259.268436 
L 329.990814 259.268436 
L 329.990814 255.43604 
L 335.780189 255.43604 
L 335.780189 251.603644 
L 337.653017 251.603644 
L 337.653017 247.771248 
L 348.437498 247.771248 
L 348.437498 243.938851 
L 349.744607 243.938851 
L 349.744607 240.106455 
L 350.813952 240.106455 
L 350.813952 236.274059 
L 353.809344 236.274059 
L 353.809344 232.441663 
L 354.891234 232.441663 
L 354.891234 228.609267 
L 373.478146 228.609267 
L 373.478146 224.776871 
L 388.341645 224.776871 
L 388.341645 220.944475 
L 389.337809 220.944475 
L 389.337809 217.112079 
L 399.704109 217.112079 
L 399.704109 213.279683 
L 400.90338 213.279683 
L 400.90338 209.447287 
L 400.90338 209.447287 
L 400.90338 209.447287 
L 460.8 209.447287 
" clip-path="url(#pa5da996478)" style="fill: none; stroke: #f5deb3; stroke-width: 1.5; stroke-linecap: square"/>
   </g>
   <g id="line2d_19">
    <path d="M 414.108872 293.76 
L 414.108872 289.927604 
L 419.257224 289.927604 
L 419.257224 286.095208 
L 422.751363 286.095208 
L 422.751363 282.262812 
L 427.982427 282.262812 
L 427.982427 278.430416 
L 428.07189 278.430416 
L 428.07189 274.59802 
L 428.36984 274.59802 
L 428.36984 270.765624 
L 430.034811 270.765624 
L 430.034811 266.933228 
L 430.755465 266.933228 
L 430.755465 263.100832 
L 431.493263 263.100832 
L 431.493263 259.268436 
L 431.585946 259.268436 
L 431.585946 255.43604 
L 439.66724 255.43604 
L 439.66724 251.603644 
L 449.755442 251.603644 
L 449.755442 247.771248 
L 458.155349 247.771248 
L 458.155349 243.938851 
L 461.8 243.938851 
" clip-path="url(#pa5da996478)" style="fill: none; stroke: #f5deb3; stroke-width: 1.5; stroke-linecap: square"/>
   </g>
   <g id="line2d_20">
    <path d="M 265.586057 293.76 
L 265.586057 289.927604 
L 272.436448 289.927604 
L 272.436448 286.095208 
L 318.41676 286.095208 
L 318.41676 282.262812 
L 326.208013 282.262812 
L 326.208013 278.430416 
L 333.398313 278.430416 
L 333.398313 274.59802 
L 336.428986 274.59802 
L 336.428986 270.765624 
L 338.744177 270.765624 
L 338.744177 266.933228 
L 339.051057 266.933228 
L 339.051057 263.100832 
L 353.920379 263.100832 
L 353.920379 259.268436 
L 368.553206 259.268436 
L 368.553206 255.43604 
L 371.911845 255.43604 
L 371.911845 251.603644 
L 374.505283 251.603644 
L 374.505283 247.771248 
L 374.687792 247.771248 
L 374.687792 243.938851 
L 375.34501 243.938851 
L 375.34501 240.106455 
L 376.968856 240.106455 
L 376.968856 236.274059 
L 384.996703 236.274059 
L 384.996703 232.441663 
L 385.229106 232.441663 
L 385.229106 228.609267 
L 386.441937 228.609267 
L 386.441937 224.776871 
L 387.867837 224.776871 
L 387.867837 220.944475 
L 393.150607 220.944475 
L 393.150607 217.112079 
L 396.611354 217.112079 
L 396.611354 213.279683 
L 402.799855 213.279683 
L 402.799855 209.447287 
L 421.74447 209.447287 
L 421.74447 205.614891 
L 437.51249 205.614891 
L 437.51249 201.782495 
L 456.079141 201.782495 
L 456.079141 197.950099 
L 456.643031 197.950099 
L 456.643031 194.117703 
L 461.8 194.117703 
" clip-path="url(#pa5da996478)" style="fill: none; stroke: #f5deb3; stroke-width: 1.5; stroke-linecap: square"/>
   </g>
   <g id="line2d_21">
    <path d="M 436.296189 293.76 
L 436.296189 289.927604 
L 436.296189 289.927604 
L 436.296189 289.927604 
L 460.8 289.927604 
" clip-path="url(#pa5da996478)" style="fill: none; stroke: #f5deb3; stroke-width: 1.5; stroke-linecap: square"/>
   </g>
   <g id="line2d_22">
    <path d="M 372.253007 293.76 
L 372.253007 289.927604 
L 400.871797 289.927604 
L 400.871797 286.095208 
L 411.582899 286.095208 
L 411.582899 282.262812 
L 414.191998 282.262812 
L 414.191998 278.430416 
L 417.367657 278.430416 
L 417.367657 274.59802 
L 423.919662 274.59802 
L 423.919662 270.765624 
L 435.070444 270.765624 
L 435.070444 266.933228 
L 435.327272 266.933228 
L 435.327272 263.100832 
L 438.407845 263.100832 
L 438.407845 259.268436 
L 438.407845 259.268436 
L 438.407845 259.268436 
L 460.8 259.268436 
" clip-path="url(#pa5da996478)" style="fill: none; stroke: #f5deb3; stroke-width: 1.5; stroke-linecap: square"/>
   </g>
   <g id="line2d_23">
    <path d="M 348.35032 293.76 
L 348.35032 289.927604 
L 348.35032 289.927604 
L 348.35032 289.927604 
L 460.8 289.927604 
" clip-path="url(#pa5da996478)" style="fill: none; stroke: #f5deb3; stroke-width: 1.5; stroke-linecap: square"/>
   </g>
   <g id="line2d_24">
    <path d="M 416.143679 293.76 
L 416.143679 289.927604 
L 423.516627 289.927604 
L 423.516627 286.095208 
L 426.660236 286.095208 
L 426.660236 282.262812 
L 461.8 282.262812 
" clip-path="url(#pa5da996478)" style="fill: none; stroke: #f5deb3; stroke-width: 1.5; stroke-linecap: square"/>
   </g>
   <g id="line2d_25">
    <path d="M 420.286893 293.76 
L 420.286893 289.927604 
L 420.770184 289.927604 
L 420.770184 286.095208 
L 422.001165 286.095208 
L 422.001165 282.262812 
L 422.001165 282.262812 
L 422.001165 282.262812 
L 460.8 282.262812 
" clip-path="url(#pa5da996478)" style="fill: none; stroke: #f5deb3; stroke-width: 1.5; stroke-linecap: square"/>
   </g>
   <g id="line2d_26">
    <path d="M 327.626177 293.76 
L 327.626177 290.530453 
L 409.056254 290.530453 
L 409.056254 287.300906 
L 438.318822 287.300906 
L 438.318822 284.071358 
L 440.803149 284.071358 
L 440.803149 280.841811 
L 461.8 280.841811 
" clip-path="url(#pa5da996478)" style="fill: none; stroke: #f5deb3; stroke-width: 1.5; stroke-linecap: square"/>
   </g>
   <g id="line2d_27">
    <path d="M 249.643664 293.76 
L 249.643664 289.927604 
L 297.341802 289.927604 
L 297.341802 286.095208 
L 300.91108 286.095208 
L 300.91108 282.262812 
L 305.490024 282.262812 
L 305.490024 278.430416 
L 322.330645 278.430416 
L 322.330645 274.59802 
L 329.701771 274.59802 
L 329.701771 270.765624 
L 345.210945 270.765624 
L 345.210945 266.933228 
L 346.154704 266.933228 
L 346.154704 263.100832 
L 357.71316 263.100832 
L 357.71316 259.268436 
L 376.222447 259.268436 
L 376.222447 255.43604 
L 389.47765 255.43604 
L 389.47765 251.603644 
L 395.828207 251.603644 
L 395.828207 247.771248 
L 397.080758 247.771248 
L 397.080758 243.938851 
L 412.152938 243.938851 
L 412.152938 240.106455 
L 416.585892 240.106455 
L 416.585892 236.274059 
L 424.153115 236.274059 
L 424.153115 232.441663 
L 428.282163 232.441663 
L 428.282163 228.609267 
L 428.617062 228.609267 
L 428.617062 224.776871 
L 433.611518 224.776871 
L 433.611518 220.944475 
L 444.829859 220.944475 
L 444.829859 217.112079 
L 459.694487 217.112079 
L 459.694487 213.279683 
L 461.8 213.279683 
" clip-path="url(#pa5da996478)" style="fill: none; stroke: #f5deb3; stroke-width: 1.5; stroke-linecap: square"/>
   </g>
   <g id="line2d_28">
    <path d="M 411.978054 293.76 
L 411.978054 289.927604 
L 412.186647 289.927604 
L 412.186647 286.095208 
L 414.879854 286.095208 
L 414.879854 282.262812 
L 458.84385 282.262812 
L 458.84385 278.430416 
L 459.403517 278.430416 
L 459.403517 274.59802 
L 461.8 274.59802 
" clip-path="url(#pa5da996478)" style="fill: none; stroke: #f5deb3; stroke-width: 1.5; stroke-linecap: square"/>
   </g>
   <g id="line2d_29">
    <path d="M 373.568579 293.76 
L 373.568579 289.927604 
L 399.767926 289.927604 
L 399.767926 286.095208 
L 399.767926 286.095208 
L 399.767926 286.095208 
L 460.8 286.095208 
" clip-path="url(#pa5da996478)" style="fill: none; stroke: #f5deb3; stroke-width: 1.5; stroke-linecap: square"/>
   </g>
   <g id="line2d_30">
    <path d="M 313.84947 293.76 
L 313.84947 289.927604 
L 341.819434 289.927604 
L 341.819434 286.095208 
L 369.877499 286.095208 
L 369.877499 282.262812 
L 377.603618 282.262812 
L 377.603618 278.430416 
L 402.718844 278.430416 
L 402.718844 274.59802 
L 411.018729 274.59802 
L 411.018729 270.765624 
L 423.718637 270.765624 
L 423.718637 266.933228 
L 438.748762 266.933228 
L 438.748762 263.100832 
L 439.783587 263.100832 
L 439.783587 259.268436 
L 440.778748 259.268436 
L 440.778748 255.43604 
L 440.778748 255.43604 
L 440.778748 255.43604 
L 460.8 255.43604 
" clip-path="url(#pa5da996478)" style="fill: none; stroke: #f5deb3; stroke-width: 1.5; stroke-linecap: square"/>
   </g>
   <g id="matplotlib.axis_1">
    <g id="xtick_1">
     <g id="line2d_31">
      <path d="M 62.208 293.76 
L 62.208 3.456 
" clip-path="url(#pa5da996478)" style="fill: none; stroke: #b0b0b0; stroke-width: 0.8; stroke-linecap: square"/>
     </g>
     <g id="line2d_32">
      <defs>
       <path id="m8adf845a05" d="M 0 0 
L 0 3.5 
" style="stroke: #000000; stroke-width: 0.8"/>
      </defs>
      <g>
       <use xlink:href="#m8adf845a05" x="62.208" y="293.76" style="stroke: #000000; stroke-width: 0.8"/>
      </g>
     </g>
     <g id="text_1">
      <!-- 0 -->
      <g transform="translate(55.8455 315.956875)scale(0.2 -0.2)">
       <defs>
        <path id="DejaVuSans-30" d="M 2034 4250 
Q 1547 4250 1301 3770 
Q 1056 3291 1056 2328 
Q 1056 1369 1301 889 
Q 1547 409 2034 409 
Q 2525 409 2770 889 
Q 3016 1369 3016 2328 
Q 3016 3291 2770 3770 
Q 2525 4250 2034 4250 
z
M 2034 4750 
Q 2819 4750 3233 4129 
Q 3647 3509 3647 2328 
Q 3647 1150 3233 529 
Q 2819 -91 2034 -91 
Q 1250 -91 836 529 
Q 422 1150 422 2328 
Q 422 3509 836 4129 
Q 1250 4750 2034 4750 
z
" transform="scale(0.015625)"/>
       </defs>
       <use xlink:href="#DejaVuSans-30"/>
      </g>
     </g>
    </g>
    <g id="xtick_2">
     <g id="line2d_33">
      <path d="M 251.930662 293.76 
L 251.930662 3.456 
" clip-path="url(#pa5da996478)" style="fill: none; stroke: #b0b0b0; stroke-width: 0.8; stroke-linecap: square"/>
     </g>
     <g id="line2d_34">
      <g>
       <use xlink:href="#m8adf845a05" x="251.930662" y="293.76" style="stroke: #000000; stroke-width: 0.8"/>
      </g>
     </g>
     <g id="text_2">
      <!-- 2 -->
      <g transform="translate(245.568162 315.956875)scale(0.2 -0.2)">
       <defs>
        <path id="DejaVuSans-32" d="M 1228 531 
L 3431 531 
L 3431 0 
L 469 0 
L 469 531 
Q 828 903 1448 1529 
Q 2069 2156 2228 2338 
Q 2531 2678 2651 2914 
Q 2772 3150 2772 3378 
Q 2772 3750 2511 3984 
Q 2250 4219 1831 4219 
Q 1534 4219 1204 4116 
Q 875 4013 500 3803 
L 500 4441 
Q 881 4594 1212 4672 
Q 1544 4750 1819 4750 
Q 2544 4750 2975 4387 
Q 3406 4025 3406 3419 
Q 3406 3131 3298 2873 
Q 3191 2616 2906 2266 
Q 2828 2175 2409 1742 
Q 1991 1309 1228 531 
z
" transform="scale(0.015625)"/>
       </defs>
       <use xlink:href="#DejaVuSans-32"/>
      </g>
     </g>
    </g>
    <g id="xtick_3">
     <g id="line2d_35">
      <path d="M 441.653325 293.76 
L 441.653325 3.456 
" clip-path="url(#pa5da996478)" style="fill: none; stroke: #b0b0b0; stroke-width: 0.8; stroke-linecap: square"/>
     </g>
     <g id="line2d_36">
      <g>
       <use xlink:href="#m8adf845a05" x="441.653325" y="293.76" style="stroke: #000000; stroke-width: 0.8"/>
      </g>
     </g>
     <g id="text_3">
      <!-- 4 -->
      <g transform="translate(435.290825 315.956875)scale(0.2 -0.2)">
       <defs>
        <path id="DejaVuSans-34" d="M 2419 4116 
L 825 1625 
L 2419 1625 
L 2419 4116 
z
M 2253 4666 
L 3047 4666 
L 3047 1625 
L 3713 1625 
L 3713 1100 
L 3047 1100 
L 3047 0 
L 2419 0 
L 2419 1100 
L 313 1100 
L 313 1709 
L 2253 4666 
z
" transform="scale(0.015625)"/>
       </defs>
       <use xlink:href="#DejaVuSans-34"/>
      </g>
     </g>
    </g>
    <g id="xtick_4">
     <g id="line2d_37">
      <path d="M 90.764106 293.76 
L 90.764106 3.456 
" clip-path="url(#pa5da996478)" style="fill: none; stroke: #b0b0b0; stroke-width: 0.8; stroke-linecap: square"/>
     </g>
     <g id="line2d_38">
      <defs>
       <path id="mf91837507e" d="M 0 0 
L 0 2 
" style="stroke: #000000; stroke-width: 0.6"/>
      </defs>
      <g>
       <use xlink:href="#mf91837507e" x="90.764106" y="293.76" style="stroke: #000000; stroke-width: 0.6"/>
      </g>
     </g>
    </g>
    <g id="xtick_5">
     <g id="line2d_39">
      <path d="M 107.468357 293.76 
L 107.468357 3.456 
" clip-path="url(#pa5da996478)" style="fill: none; stroke: #b0b0b0; stroke-width: 0.8; stroke-linecap: square"/>
     </g>
     <g id="line2d_40">
      <g>
       <use xlink:href="#mf91837507e" x="107.468357" y="293.76" style="stroke: #000000; stroke-width: 0.6"/>
      </g>
     </g>
    </g>
    <g id="xtick_6">
     <g id="line2d_41">
      <path d="M 119.320212 293.76 
L 119.320212 3.456 
" clip-path="url(#pa5da996478)" style="fill: none; stroke: #b0b0b0; stroke-width: 0.8; stroke-linecap: square"/>
     </g>
     <g id="line2d_42">
      <g>
       <use xlink:href="#mf91837507e" x="119.320212" y="293.76" style="stroke: #000000; stroke-width: 0.6"/>
      </g>
     </g>
    </g>
    <g id="xtick_7">
     <g id="line2d_43">
      <path d="M 128.513225 293.76 
L 128.513225 3.456 
" clip-path="url(#pa5da996478)" style="fill: none; stroke: #b0b0b0; stroke-width: 0.8; stroke-linecap: square"/>
     </g>
     <g id="line2d_44">
      <g>
       <use xlink:href="#mf91837507e" x="128.513225" y="293.76" style="stroke: #000000; stroke-width: 0.6"/>
      </g>
     </g>
    </g>
    <g id="xtick_8">
     <g id="line2d_45">
      <path d="M 136.024464 293.76 
L 136.024464 3.456 
" clip-path="url(#pa5da996478)" style="fill: none; stroke: #b0b0b0; stroke-width: 0.8; stroke-linecap: square"/>
     </g>
     <g id="line2d_46">
      <g>
       <use xlink:href="#mf91837507e" x="136.024464" y="293.76" style="stroke: #000000; stroke-width: 0.6"/>
      </g>
     </g>
    </g>
    <g id="xtick_9">
     <g id="line2d_47">
      <path d="M 142.375125 293.76 
L 142.375125 3.456 
" clip-path="url(#pa5da996478)" style="fill: none; stroke: #b0b0b0; stroke-width: 0.8; stroke-linecap: square"/>
     </g>
     <g id="line2d_48">
      <g>
       <use xlink:href="#mf91837507e" x="142.375125" y="293.76" style="stroke: #000000; stroke-width: 0.6"/>
      </g>
     </g>
    </g>
    <g id="xtick_10">
     <g id="line2d_49">
      <path d="M 147.876318 293.76 
L 147.876318 3.456 
" clip-path="url(#pa5da996478)" style="fill: none; stroke: #b0b0b0; stroke-width: 0.8; stroke-linecap: square"/>
     </g>
     <g id="line2d_50">
      <g>
       <use xlink:href="#mf91837507e" x="147.876318" y="293.76" style="stroke: #000000; stroke-width: 0.6"/>
      </g>
     </g>
    </g>
    <g id="xtick_11">
     <g id="line2d_51">
      <path d="M 152.728715 293.76 
L 152.728715 3.456 
" clip-path="url(#pa5da996478)" style="fill: none; stroke: #b0b0b0; stroke-width: 0.8; stroke-linecap: square"/>
     </g>
     <g id="line2d_52">
      <g>
       <use xlink:href="#mf91837507e" x="152.728715" y="293.76" style="stroke: #000000; stroke-width: 0.6"/>
      </g>
     </g>
    </g>
    <g id="xtick_12">
     <g id="line2d_53">
      <path d="M 185.625437 293.76 
L 185.625437 3.456 
" clip-path="url(#pa5da996478)" style="fill: none; stroke: #b0b0b0; stroke-width: 0.8; stroke-linecap: square"/>
     </g>
     <g id="line2d_54">
      <g>
       <use xlink:href="#mf91837507e" x="185.625437" y="293.76" style="stroke: #000000; stroke-width: 0.6"/>
      </g>
     </g>
    </g>
    <g id="xtick_13">
     <g id="line2d_55">
      <path d="M 202.329689 293.76 
L 202.329689 3.456 
" clip-path="url(#pa5da996478)" style="fill: none; stroke: #b0b0b0; stroke-width: 0.8; stroke-linecap: square"/>
     </g>
     <g id="line2d_56">
      <g>
       <use xlink:href="#mf91837507e" x="202.329689" y="293.76" style="stroke: #000000; stroke-width: 0.6"/>
      </g>
     </g>
    </g>
    <g id="xtick_14">
     <g id="line2d_57">
      <path d="M 214.181544 293.76 
L 214.181544 3.456 
" clip-path="url(#pa5da996478)" style="fill: none; stroke: #b0b0b0; stroke-width: 0.8; stroke-linecap: square"/>
     </g>
     <g id="line2d_58">
      <g>
       <use xlink:href="#mf91837507e" x="214.181544" y="293.76" style="stroke: #000000; stroke-width: 0.6"/>
      </g>
     </g>
    </g>
    <g id="xtick_15">
     <g id="line2d_59">
      <path d="M 223.374556 293.76 
L 223.374556 3.456 
" clip-path="url(#pa5da996478)" style="fill: none; stroke: #b0b0b0; stroke-width: 0.8; stroke-linecap: square"/>
     </g>
     <g id="line2d_60">
      <g>
       <use xlink:href="#mf91837507e" x="223.374556" y="293.76" style="stroke: #000000; stroke-width: 0.6"/>
      </g>
     </g>
    </g>
    <g id="xtick_16">
     <g id="line2d_61">
      <path d="M 230.885795 293.76 
L 230.885795 3.456 
" clip-path="url(#pa5da996478)" style="fill: none; stroke: #b0b0b0; stroke-width: 0.8; stroke-linecap: square"/>
     </g>
     <g id="line2d_62">
      <g>
       <use xlink:href="#mf91837507e" x="230.885795" y="293.76" style="stroke: #000000; stroke-width: 0.6"/>
      </g>
     </g>
    </g>
    <g id="xtick_17">
     <g id="line2d_63">
      <path d="M 237.236456 293.76 
L 237.236456 3.456 
" clip-path="url(#pa5da996478)" style="fill: none; stroke: #b0b0b0; stroke-width: 0.8; stroke-linecap: square"/>
     </g>
     <g id="line2d_64">
      <g>
       <use xlink:href="#mf91837507e" x="237.236456" y="293.76" style="stroke: #000000; stroke-width: 0.6"/>
      </g>
     </g>
    </g>
    <g id="xtick_18">
     <g id="line2d_65">
      <path d="M 242.73765 293.76 
L 242.73765 3.456 
" clip-path="url(#pa5da996478)" style="fill: none; stroke: #b0b0b0; stroke-width: 0.8; stroke-linecap: square"/>
     </g>
     <g id="line2d_66">
      <g>
       <use xlink:href="#mf91837507e" x="242.73765" y="293.76" style="stroke: #000000; stroke-width: 0.6"/>
      </g>
     </g>
    </g>
    <g id="xtick_19">
     <g id="line2d_67">
      <path d="M 247.590046 293.76 
L 247.590046 3.456 
" clip-path="url(#pa5da996478)" style="fill: none; stroke: #b0b0b0; stroke-width: 0.8; stroke-linecap: square"/>
     </g>
     <g id="line2d_68">
      <g>
       <use xlink:href="#mf91837507e" x="247.590046" y="293.76" style="stroke: #000000; stroke-width: 0.6"/>
      </g>
     </g>
    </g>
    <g id="xtick_20">
     <g id="line2d_69">
      <path d="M 280.486769 293.76 
L 280.486769 3.456 
" clip-path="url(#pa5da996478)" style="fill: none; stroke: #b0b0b0; stroke-width: 0.8; stroke-linecap: square"/>
     </g>
     <g id="line2d_70">
      <g>
       <use xlink:href="#mf91837507e" x="280.486769" y="293.76" style="stroke: #000000; stroke-width: 0.6"/>
      </g>
     </g>
    </g>
    <g id="xtick_21">
     <g id="line2d_71">
      <path d="M 297.19102 293.76 
L 297.19102 3.456 
" clip-path="url(#pa5da996478)" style="fill: none; stroke: #b0b0b0; stroke-width: 0.8; stroke-linecap: square"/>
     </g>
     <g id="line2d_72">
      <g>
       <use xlink:href="#mf91837507e" x="297.19102" y="293.76" style="stroke: #000000; stroke-width: 0.6"/>
      </g>
     </g>
    </g>
    <g id="xtick_22">
     <g id="line2d_73">
      <path d="M 309.042875 293.76 
L 309.042875 3.456 
" clip-path="url(#pa5da996478)" style="fill: none; stroke: #b0b0b0; stroke-width: 0.8; stroke-linecap: square"/>
     </g>
     <g id="line2d_74">
      <g>
       <use xlink:href="#mf91837507e" x="309.042875" y="293.76" style="stroke: #000000; stroke-width: 0.6"/>
      </g>
     </g>
    </g>
    <g id="xtick_23">
     <g id="line2d_75">
      <path d="M 318.235888 293.76 
L 318.235888 3.456 
" clip-path="url(#pa5da996478)" style="fill: none; stroke: #b0b0b0; stroke-width: 0.8; stroke-linecap: square"/>
     </g>
     <g id="line2d_76">
      <g>
       <use xlink:href="#mf91837507e" x="318.235888" y="293.76" style="stroke: #000000; stroke-width: 0.6"/>
      </g>
     </g>
    </g>
    <g id="xtick_24">
     <g id="line2d_77">
      <path d="M 325.747126 293.76 
L 325.747126 3.456 
" clip-path="url(#pa5da996478)" style="fill: none; stroke: #b0b0b0; stroke-width: 0.8; stroke-linecap: square"/>
     </g>
     <g id="line2d_78">
      <g>
       <use xlink:href="#mf91837507e" x="325.747126" y="293.76" style="stroke: #000000; stroke-width: 0.6"/>
      </g>
     </g>
    </g>
    <g id="xtick_25">
     <g id="line2d_79">
      <path d="M 332.097788 293.76 
L 332.097788 3.456 
" clip-path="url(#pa5da996478)" style="fill: none; stroke: #b0b0b0; stroke-width: 0.8; stroke-linecap: square"/>
     </g>
     <g id="line2d_80">
      <g>
       <use xlink:href="#mf91837507e" x="332.097788" y="293.76" style="stroke: #000000; stroke-width: 0.6"/>
      </g>
     </g>
    </g>
    <g id="xtick_26">
     <g id="line2d_81">
      <path d="M 337.598981 293.76 
L 337.598981 3.456 
" clip-path="url(#pa5da996478)" style="fill: none; stroke: #b0b0b0; stroke-width: 0.8; stroke-linecap: square"/>
     </g>
     <g id="line2d_82">
      <g>
       <use xlink:href="#mf91837507e" x="337.598981" y="293.76" style="stroke: #000000; stroke-width: 0.6"/>
      </g>
     </g>
    </g>
    <g id="xtick_27">
     <g id="line2d_83">
      <path d="M 342.451377 293.76 
L 342.451377 3.456 
" clip-path="url(#pa5da996478)" style="fill: none; stroke: #b0b0b0; stroke-width: 0.8; stroke-linecap: square"/>
     </g>
     <g id="line2d_84">
      <g>
       <use xlink:href="#mf91837507e" x="342.451377" y="293.76" style="stroke: #000000; stroke-width: 0.6"/>
      </g>
     </g>
    </g>
    <g id="xtick_28">
     <g id="line2d_85">
      <path d="M 375.3481 293.76 
L 375.3481 3.456 
" clip-path="url(#pa5da996478)" style="fill: none; stroke: #b0b0b0; stroke-width: 0.8; stroke-linecap: square"/>
     </g>
     <g id="line2d_86">
      <g>
       <use xlink:href="#mf91837507e" x="375.3481" y="293.76" style="stroke: #000000; stroke-width: 0.6"/>
      </g>
     </g>
    </g>
    <g id="xtick_29">
     <g id="line2d_87">
      <path d="M 392.052351 293.76 
L 392.052351 3.456 
" clip-path="url(#pa5da996478)" style="fill: none; stroke: #b0b0b0; stroke-width: 0.8; stroke-linecap: square"/>
     </g>
     <g id="line2d_88">
      <g>
       <use xlink:href="#mf91837507e" x="392.052351" y="293.76" style="stroke: #000000; stroke-width: 0.6"/>
      </g>
     </g>
    </g>
    <g id="xtick_30">
     <g id="line2d_89">
      <path d="M 403.904206 293.76 
L 403.904206 3.456 
" clip-path="url(#pa5da996478)" style="fill: none; stroke: #b0b0b0; stroke-width: 0.8; stroke-linecap: square"/>
     </g>
     <g id="line2d_90">
      <g>
       <use xlink:href="#mf91837507e" x="403.904206" y="293.76" style="stroke: #000000; stroke-width: 0.6"/>
      </g>
     </g>
    </g>
    <g id="xtick_31">
     <g id="line2d_91">
      <path d="M 413.097219 293.76 
L 413.097219 3.456 
" clip-path="url(#pa5da996478)" style="fill: none; stroke: #b0b0b0; stroke-width: 0.8; stroke-linecap: square"/>
     </g>
     <g id="line2d_92">
      <g>
       <use xlink:href="#mf91837507e" x="413.097219" y="293.76" style="stroke: #000000; stroke-width: 0.6"/>
      </g>
     </g>
    </g>
    <g id="xtick_32">
     <g id="line2d_93">
      <path d="M 420.608457 293.76 
L 420.608457 3.456 
" clip-path="url(#pa5da996478)" style="fill: none; stroke: #b0b0b0; stroke-width: 0.8; stroke-linecap: square"/>
     </g>
     <g id="line2d_94">
      <g>
       <use xlink:href="#mf91837507e" x="420.608457" y="293.76" style="stroke: #000000; stroke-width: 0.6"/>
      </g>
     </g>
    </g>
    <g id="xtick_33">
     <g id="line2d_95">
      <path d="M 426.959119 293.76 
L 426.959119 3.456 
" clip-path="url(#pa5da996478)" style="fill: none; stroke: #b0b0b0; stroke-width: 0.8; stroke-linecap: square"/>
     </g>
     <g id="line2d_96">
      <g>
       <use xlink:href="#mf91837507e" x="426.959119" y="293.76" style="stroke: #000000; stroke-width: 0.6"/>
      </g>
     </g>
    </g>
    <g id="xtick_34">
     <g id="line2d_97">
      <path d="M 432.460312 293.76 
L 432.460312 3.456 
" clip-path="url(#pa5da996478)" style="fill: none; stroke: #b0b0b0; stroke-width: 0.8; stroke-linecap: square"/>
     </g>
     <g id="line2d_98">
      <g>
       <use xlink:href="#mf91837507e" x="432.460312" y="293.76" style="stroke: #000000; stroke-width: 0.6"/>
      </g>
     </g>
    </g>
    <g id="xtick_35">
     <g id="line2d_99">
      <path d="M 437.312708 293.76 
L 437.312708 3.456 
" clip-path="url(#pa5da996478)" style="fill: none; stroke: #b0b0b0; stroke-width: 0.8; stroke-linecap: square"/>
     </g>
     <g id="line2d_100">
      <g>
       <use xlink:href="#mf91837507e" x="437.312708" y="293.76" style="stroke: #000000; stroke-width: 0.6"/>
      </g>
     </g>
    </g>
    <g id="text_4">
     <!-- log10 of FEvals / DIM -->
     <g transform="translate(156.430563 339.313125)scale(0.2 -0.2)">
      <defs>
       <path id="DejaVuSans-6c" d="M 603 4863 
L 1178 4863 
L 1178 0 
L 603 0 
L 603 4863 
z
" transform="scale(0.015625)"/>
       <path id="DejaVuSans-6f" d="M 1959 3097 
Q 1497 3097 1228 2736 
Q 959 2375 959 1747 
Q 959 1119 1226 758 
Q 1494 397 1959 397 
Q 2419 397 2687 759 
Q 2956 1122 2956 1747 
Q 2956 2369 2687 2733 
Q 2419 3097 1959 3097 
z
M 1959 3584 
Q 2709 3584 3137 3096 
Q 3566 2609 3566 1747 
Q 3566 888 3137 398 
Q 2709 -91 1959 -91 
Q 1206 -91 779 398 
Q 353 888 353 1747 
Q 353 2609 779 3096 
Q 1206 3584 1959 3584 
z
" transform="scale(0.015625)"/>
       <path id="DejaVuSans-67" d="M 2906 1791 
Q 2906 2416 2648 2759 
Q 2391 3103 1925 3103 
Q 1463 3103 1205 2759 
Q 947 2416 947 1791 
Q 947 1169 1205 825 
Q 1463 481 1925 481 
Q 2391 481 2648 825 
Q 2906 1169 2906 1791 
z
M 3481 434 
Q 3481 -459 3084 -895 
Q 2688 -1331 1869 -1331 
Q 1566 -1331 1297 -1286 
Q 1028 -1241 775 -1147 
L 775 -588 
Q 1028 -725 1275 -790 
Q 1522 -856 1778 -856 
Q 2344 -856 2625 -561 
Q 2906 -266 2906 331 
L 2906 616 
Q 2728 306 2450 153 
Q 2172 0 1784 0 
Q 1141 0 747 490 
Q 353 981 353 1791 
Q 353 2603 747 3093 
Q 1141 3584 1784 3584 
Q 2172 3584 2450 3431 
Q 2728 3278 2906 2969 
L 2906 3500 
L 3481 3500 
L 3481 434 
z
" transform="scale(0.015625)"/>
       <path id="DejaVuSans-31" d="M 794 531 
L 1825 531 
L 1825 4091 
L 703 3866 
L 703 4441 
L 1819 4666 
L 2450 4666 
L 2450 531 
L 3481 531 
L 3481 0 
L 794 0 
L 794 531 
z
" transform="scale(0.015625)"/>
       <path id="DejaVuSans-20" transform="scale(0.015625)"/>
       <path id="DejaVuSans-66" d="M 2375 4863 
L 2375 4384 
L 1825 4384 
Q 1516 4384 1395 4259 
Q 1275 4134 1275 3809 
L 1275 3500 
L 2222 3500 
L 2222 3053 
L 1275 3053 
L 1275 0 
L 697 0 
L 697 3053 
L 147 3053 
L 147 3500 
L 697 3500 
L 697 3744 
Q 697 4328 969 4595 
Q 1241 4863 1831 4863 
L 2375 4863 
z
" transform="scale(0.015625)"/>
       <path id="DejaVuSans-46" d="M 628 4666 
L 3309 4666 
L 3309 4134 
L 1259 4134 
L 1259 2759 
L 3109 2759 
L 3109 2228 
L 1259 2228 
L 1259 0 
L 628 0 
L 628 4666 
z
" transform="scale(0.015625)"/>
       <path id="DejaVuSans-45" d="M 628 4666 
L 3578 4666 
L 3578 4134 
L 1259 4134 
L 1259 2753 
L 3481 2753 
L 3481 2222 
L 1259 2222 
L 1259 531 
L 3634 531 
L 3634 0 
L 628 0 
L 628 4666 
z
" transform="scale(0.015625)"/>
       <path id="DejaVuSans-76" d="M 191 3500 
L 800 3500 
L 1894 563 
L 2988 3500 
L 3597 3500 
L 2284 0 
L 1503 0 
L 191 3500 
z
" transform="scale(0.015625)"/>
       <path id="DejaVuSans-61" d="M 2194 1759 
Q 1497 1759 1228 1600 
Q 959 1441 959 1056 
Q 959 750 1161 570 
Q 1363 391 1709 391 
Q 2188 391 2477 730 
Q 2766 1069 2766 1631 
L 2766 1759 
L 2194 1759 
z
M 3341 1997 
L 3341 0 
L 2766 0 
L 2766 531 
Q 2569 213 2275 61 
Q 1981 -91 1556 -91 
Q 1019 -91 701 211 
Q 384 513 384 1019 
Q 384 1609 779 1909 
Q 1175 2209 1959 2209 
L 2766 2209 
L 2766 2266 
Q 2766 2663 2505 2880 
Q 2244 3097 1772 3097 
Q 1472 3097 1187 3025 
Q 903 2953 641 2809 
L 641 3341 
Q 956 3463 1253 3523 
Q 1550 3584 1831 3584 
Q 2591 3584 2966 3190 
Q 3341 2797 3341 1997 
z
" transform="scale(0.015625)"/>
       <path id="DejaVuSans-73" d="M 2834 3397 
L 2834 2853 
Q 2591 2978 2328 3040 
Q 2066 3103 1784 3103 
Q 1356 3103 1142 2972 
Q 928 2841 928 2578 
Q 928 2378 1081 2264 
Q 1234 2150 1697 2047 
L 1894 2003 
Q 2506 1872 2764 1633 
Q 3022 1394 3022 966 
Q 3022 478 2636 193 
Q 2250 -91 1575 -91 
Q 1294 -91 989 -36 
Q 684 19 347 128 
L 347 722 
Q 666 556 975 473 
Q 1284 391 1588 391 
Q 1994 391 2212 530 
Q 2431 669 2431 922 
Q 2431 1156 2273 1281 
Q 2116 1406 1581 1522 
L 1381 1569 
Q 847 1681 609 1914 
Q 372 2147 372 2553 
Q 372 3047 722 3315 
Q 1072 3584 1716 3584 
Q 2034 3584 2315 3537 
Q 2597 3491 2834 3397 
z
" transform="scale(0.015625)"/>
       <path id="DejaVuSans-2f" d="M 1625 4666 
L 2156 4666 
L 531 -594 
L 0 -594 
L 1625 4666 
z
" transform="scale(0.015625)"/>
       <path id="DejaVuSans-44" d="M 1259 4147 
L 1259 519 
L 2022 519 
Q 2988 519 3436 956 
Q 3884 1394 3884 2338 
Q 3884 3275 3436 3711 
Q 2988 4147 2022 4147 
L 1259 4147 
z
M 628 4666 
L 1925 4666 
Q 3281 4666 3915 4102 
Q 4550 3538 4550 2338 
Q 4550 1131 3912 565 
Q 3275 0 1925 0 
L 628 0 
L 628 4666 
z
" transform="scale(0.015625)"/>
       <path id="DejaVuSans-49" d="M 628 4666 
L 1259 4666 
L 1259 0 
L 628 0 
L 628 4666 
z
" transform="scale(0.015625)"/>
       <path id="DejaVuSans-4d" d="M 628 4666 
L 1569 4666 
L 2759 1491 
L 3956 4666 
L 4897 4666 
L 4897 0 
L 4281 0 
L 4281 4097 
L 3078 897 
L 2444 897 
L 1241 4097 
L 1241 0 
L 628 0 
L 628 4666 
z
" transform="scale(0.015625)"/>
      </defs>
      <use xlink:href="#DejaVuSans-6c"/>
      <use xlink:href="#DejaVuSans-6f" x="27.783203"/>
      <use xlink:href="#DejaVuSans-67" x="88.964844"/>
      <use xlink:href="#DejaVuSans-31" x="152.441406"/>
      <use xlink:href="#DejaVuSans-30" x="216.064453"/>
      <use xlink:href="#DejaVuSans-20" x="279.6875"/>
      <use xlink:href="#DejaVuSans-6f" x="311.474609"/>
      <use xlink:href="#DejaVuSans-66" x="372.65625"/>
      <use xlink:href="#DejaVuSans-20" x="407.861328"/>
      <use xlink:href="#DejaVuSans-46" x="439.648438"/>
      <use xlink:href="#DejaVuSans-45" x="497.167969"/>
      <use xlink:href="#DejaVuSans-76" x="560.351562"/>
      <use xlink:href="#DejaVuSans-61" x="619.53125"/>
      <use xlink:href="#DejaVuSans-6c" x="680.810547"/>
      <use xlink:href="#DejaVuSans-73" x="708.59375"/>
      <use xlink:href="#DejaVuSans-20" x="760.693359"/>
      <use xlink:href="#DejaVuSans-2f" x="792.480469"/>
      <use xlink:href="#DejaVuSans-20" x="826.171875"/>
      <use xlink:href="#DejaVuSans-44" x="857.958984"/>
      <use xlink:href="#DejaVuSans-49" x="934.960938"/>
      <use xlink:href="#DejaVuSans-4d" x="964.453125"/>
     </g>
    </g>
   </g>
   <g id="matplotlib.axis_2">
    <g id="ytick_1">
     <g id="line2d_101">
      <path d="M 62.208 293.76 
L 460.8 293.76 
" clip-path="url(#pa5da996478)" style="fill: none; stroke: #b0b0b0; stroke-width: 0.8; stroke-linecap: square"/>
     </g>
     <g id="line2d_102">
      <defs>
       <path id="m9065e5904c" d="M 0 0 
L -3.5 0 
" style="stroke: #000000; stroke-width: 0.8"/>
      </defs>
      <g>
       <use xlink:href="#m9065e5904c" x="62.208" y="293.76" style="stroke: #000000; stroke-width: 0.8"/>
      </g>
     </g>
     <g id="text_5">
      <!-- 0.0 -->
      <g transform="translate(29.763 299.83875)scale(0.16 -0.16)">
       <defs>
        <path id="DejaVuSans-2e" d="M 684 794 
L 1344 794 
L 1344 0 
L 684 0 
L 684 794 
z
" transform="scale(0.015625)"/>
       </defs>
       <use xlink:href="#DejaVuSans-30"/>
       <use xlink:href="#DejaVuSans-2e" x="63.623047"/>
       <use xlink:href="#DejaVuSans-30" x="95.410156"/>
      </g>
     </g>
    </g>
    <g id="ytick_2">
     <g id="line2d_103">
      <path d="M 62.208 236.274059 
L 460.8 236.274059 
" clip-path="url(#pa5da996478)" style="fill: none; stroke: #b0b0b0; stroke-width: 0.8; stroke-linecap: square"/>
     </g>
     <g id="line2d_104">
      <g>
       <use xlink:href="#m9065e5904c" x="62.208" y="236.274059" style="stroke: #000000; stroke-width: 0.8"/>
      </g>
     </g>
     <g id="text_6">
      <!-- 0.2 -->
      <g transform="translate(29.763 242.352809)scale(0.16 -0.16)">
       <use xlink:href="#DejaVuSans-30"/>
       <use xlink:href="#DejaVuSans-2e" x="63.623047"/>
       <use xlink:href="#DejaVuSans-32" x="95.410156"/>
      </g>
     </g>
    </g>
    <g id="ytick_3">
     <g id="line2d_105">
      <path d="M 62.208 178.788119 
L 460.8 178.788119 
" clip-path="url(#pa5da996478)" style="fill: none; stroke: #b0b0b0; stroke-width: 0.8; stroke-linecap: square"/>
     </g>
     <g id="line2d_106">
      <g>
       <use xlink:href="#m9065e5904c" x="62.208" y="178.788119" style="stroke: #000000; stroke-width: 0.8"/>
      </g>
     </g>
     <g id="text_7">
      <!-- 0.4 -->
      <g transform="translate(29.763 184.866869)scale(0.16 -0.16)">
       <use xlink:href="#DejaVuSans-30"/>
       <use xlink:href="#DejaVuSans-2e" x="63.623047"/>
       <use xlink:href="#DejaVuSans-34" x="95.410156"/>
      </g>
     </g>
    </g>
    <g id="ytick_4">
     <g id="line2d_107">
      <path d="M 62.208 121.302178 
L 460.8 121.302178 
" clip-path="url(#pa5da996478)" style="fill: none; stroke: #b0b0b0; stroke-width: 0.8; stroke-linecap: square"/>
     </g>
     <g id="line2d_108">
      <g>
       <use xlink:href="#m9065e5904c" x="62.208" y="121.302178" style="stroke: #000000; stroke-width: 0.8"/>
      </g>
     </g>
     <g id="text_8">
      <!-- 0.6 -->
      <g transform="translate(29.763 127.380928)scale(0.16 -0.16)">
       <defs>
        <path id="DejaVuSans-36" d="M 2113 2584 
Q 1688 2584 1439 2293 
Q 1191 2003 1191 1497 
Q 1191 994 1439 701 
Q 1688 409 2113 409 
Q 2538 409 2786 701 
Q 3034 994 3034 1497 
Q 3034 2003 2786 2293 
Q 2538 2584 2113 2584 
z
M 3366 4563 
L 3366 3988 
Q 3128 4100 2886 4159 
Q 2644 4219 2406 4219 
Q 1781 4219 1451 3797 
Q 1122 3375 1075 2522 
Q 1259 2794 1537 2939 
Q 1816 3084 2150 3084 
Q 2853 3084 3261 2657 
Q 3669 2231 3669 1497 
Q 3669 778 3244 343 
Q 2819 -91 2113 -91 
Q 1303 -91 875 529 
Q 447 1150 447 2328 
Q 447 3434 972 4092 
Q 1497 4750 2381 4750 
Q 2619 4750 2861 4703 
Q 3103 4656 3366 4563 
z
" transform="scale(0.015625)"/>
       </defs>
       <use xlink:href="#DejaVuSans-30"/>
       <use xlink:href="#DejaVuSans-2e" x="63.623047"/>
       <use xlink:href="#DejaVuSans-36" x="95.410156"/>
      </g>
     </g>
    </g>
    <g id="ytick_5">
     <g id="line2d_109">
      <path d="M 62.208 63.816238 
L 460.8 63.816238 
" clip-path="url(#pa5da996478)" style="fill: none; stroke: #b0b0b0; stroke-width: 0.8; stroke-linecap: square"/>
     </g>
     <g id="line2d_110">
      <g>
       <use xlink:href="#m9065e5904c" x="62.208" y="63.816238" style="stroke: #000000; stroke-width: 0.8"/>
      </g>
     </g>
     <g id="text_9">
      <!-- 0.8 -->
      <g transform="translate(29.763 69.894988)scale(0.16 -0.16)">
       <defs>
        <path id="DejaVuSans-38" d="M 2034 2216 
Q 1584 2216 1326 1975 
Q 1069 1734 1069 1313 
Q 1069 891 1326 650 
Q 1584 409 2034 409 
Q 2484 409 2743 651 
Q 3003 894 3003 1313 
Q 3003 1734 2745 1975 
Q 2488 2216 2034 2216 
z
M 1403 2484 
Q 997 2584 770 2862 
Q 544 3141 544 3541 
Q 544 4100 942 4425 
Q 1341 4750 2034 4750 
Q 2731 4750 3128 4425 
Q 3525 4100 3525 3541 
Q 3525 3141 3298 2862 
Q 3072 2584 2669 2484 
Q 3125 2378 3379 2068 
Q 3634 1759 3634 1313 
Q 3634 634 3220 271 
Q 2806 -91 2034 -91 
Q 1263 -91 848 271 
Q 434 634 434 1313 
Q 434 1759 690 2068 
Q 947 2378 1403 2484 
z
M 1172 3481 
Q 1172 3119 1398 2916 
Q 1625 2713 2034 2713 
Q 2441 2713 2670 2916 
Q 2900 3119 2900 3481 
Q 2900 3844 2670 4047 
Q 2441 4250 2034 4250 
Q 1625 4250 1398 4047 
Q 1172 3844 1172 3481 
z
" transform="scale(0.015625)"/>
       </defs>
       <use xlink:href="#DejaVuSans-30"/>
       <use xlink:href="#DejaVuSans-2e" x="63.623047"/>
       <use xlink:href="#DejaVuSans-38" x="95.410156"/>
      </g>
     </g>
    </g>
    <g id="ytick_6">
     <g id="line2d_111">
      <path d="M 62.208 6.330297 
L 460.8 6.330297 
" clip-path="url(#pa5da996478)" style="fill: none; stroke: #b0b0b0; stroke-width: 0.8; stroke-linecap: square"/>
     </g>
     <g id="line2d_112">
      <g>
       <use xlink:href="#m9065e5904c" x="62.208" y="6.330297" style="stroke: #000000; stroke-width: 0.8"/>
      </g>
     </g>
     <g id="text_10">
      <!-- 1.0 -->
      <g transform="translate(29.763 12.409047)scale(0.16 -0.16)">
       <use xlink:href="#DejaVuSans-31"/>
       <use xlink:href="#DejaVuSans-2e" x="63.623047"/>
       <use xlink:href="#DejaVuSans-30" x="95.410156"/>
      </g>
     </g>
    </g>
    <g id="text_11">
     <!-- proportion of trials -->
     <g transform="translate(21.603625 241.61425)rotate(-90)scale(0.2 -0.2)">
      <defs>
       <path id="DejaVuSans-70" d="M 1159 525 
L 1159 -1331 
L 581 -1331 
L 581 3500 
L 1159 3500 
L 1159 2969 
Q 1341 3281 1617 3432 
Q 1894 3584 2278 3584 
Q 2916 3584 3314 3078 
Q 3713 2572 3713 1747 
Q 3713 922 3314 415 
Q 2916 -91 2278 -91 
Q 1894 -91 1617 61 
Q 1341 213 1159 525 
z
M 3116 1747 
Q 3116 2381 2855 2742 
Q 2594 3103 2138 3103 
Q 1681 3103 1420 2742 
Q 1159 2381 1159 1747 
Q 1159 1113 1420 752 
Q 1681 391 2138 391 
Q 2594 391 2855 752 
Q 3116 1113 3116 1747 
z
" transform="scale(0.015625)"/>
       <path id="DejaVuSans-72" d="M 2631 2963 
Q 2534 3019 2420 3045 
Q 2306 3072 2169 3072 
Q 1681 3072 1420 2755 
Q 1159 2438 1159 1844 
L 1159 0 
L 581 0 
L 581 3500 
L 1159 3500 
L 1159 2956 
Q 1341 3275 1631 3429 
Q 1922 3584 2338 3584 
Q 2397 3584 2469 3576 
Q 2541 3569 2628 3553 
L 2631 2963 
z
" transform="scale(0.015625)"/>
       <path id="DejaVuSans-74" d="M 1172 4494 
L 1172 3500 
L 2356 3500 
L 2356 3053 
L 1172 3053 
L 1172 1153 
Q 1172 725 1289 603 
Q 1406 481 1766 481 
L 2356 481 
L 2356 0 
L 1766 0 
Q 1100 0 847 248 
Q 594 497 594 1153 
L 594 3053 
L 172 3053 
L 172 3500 
L 594 3500 
L 594 4494 
L 1172 4494 
z
" transform="scale(0.015625)"/>
       <path id="DejaVuSans-69" d="M 603 3500 
L 1178 3500 
L 1178 0 
L 603 0 
L 603 3500 
z
M 603 4863 
L 1178 4863 
L 1178 4134 
L 603 4134 
L 603 4863 
z
" transform="scale(0.015625)"/>
       <path id="DejaVuSans-6e" d="M 3513 2113 
L 3513 0 
L 2938 0 
L 2938 2094 
Q 2938 2591 2744 2837 
Q 2550 3084 2163 3084 
Q 1697 3084 1428 2787 
Q 1159 2491 1159 1978 
L 1159 0 
L 581 0 
L 581 3500 
L 1159 3500 
L 1159 2956 
Q 1366 3272 1645 3428 
Q 1925 3584 2291 3584 
Q 2894 3584 3203 3211 
Q 3513 2838 3513 2113 
z
" transform="scale(0.015625)"/>
      </defs>
      <use xlink:href="#DejaVuSans-70"/>
      <use xlink:href="#DejaVuSans-72" x="63.476562"/>
      <use xlink:href="#DejaVuSans-6f" x="102.339844"/>
      <use xlink:href="#DejaVuSans-70" x="163.521484"/>
      <use xlink:href="#DejaVuSans-6f" x="226.998047"/>
      <use xlink:href="#DejaVuSans-72" x="288.179688"/>
      <use xlink:href="#DejaVuSans-74" x="329.292969"/>
      <use xlink:href="#DejaVuSans-69" x="368.501953"/>
      <use xlink:href="#DejaVuSans-6f" x="396.285156"/>
      <use xlink:href="#DejaVuSans-6e" x="457.466797"/>
      <use xlink:href="#DejaVuSans-20" x="520.845703"/>
      <use xlink:href="#DejaVuSans-6f" x="552.632812"/>
      <use xlink:href="#DejaVuSans-66" x="613.814453"/>
      <use xlink:href="#DejaVuSans-20" x="649.019531"/>
      <use xlink:href="#DejaVuSans-74" x="680.806641"/>
      <use xlink:href="#DejaVuSans-72" x="720.015625"/>
      <use xlink:href="#DejaVuSans-69" x="761.128906"/>
      <use xlink:href="#DejaVuSans-61" x="788.912109"/>
      <use xlink:href="#DejaVuSans-6c" x="850.191406"/>
      <use xlink:href="#DejaVuSans-73" x="877.974609"/>
     </g>
    </g>
   </g>
   <g id="line2d_113">
    <path d="M -1 259.268436 
L 12.607026 259.268436 
L 12.607026 251.603644 
L 37.578459 251.603644 
L 37.578459 247.771248 
L 47.513794 247.771248 
L 47.513794 243.938851 
L 66.134565 243.938851 
L 66.134565 240.106455 
L 71.401013 240.106455 
L 71.401013 236.274059 
L 154.520204 236.274059 
L 154.520204 232.441663 
L 158.086611 232.441663 
L 158.086611 228.609267 
L 168.193842 228.609267 
L 168.193842 224.776871 
L 168.818063 224.776871 
L 168.818063 220.944475 
L 170.188909 220.944475 
L 170.188909 217.112079 
L 170.487445 217.112079 
L 170.487445 213.279683 
L 170.931231 213.279683 
L 170.931231 209.447287 
L 171.224455 209.447287 
L 171.224455 205.614891 
L 172.941276 205.614891 
L 172.941276 201.782495 
L 174.454553 201.782495 
L 174.454553 197.950099 
L 174.589406 197.950099 
L 174.589406 194.117703 
L 175.783628 194.117703 
L 175.783628 190.285307 
L 176.174131 190.285307 
L 176.174131 186.452911 
L 177.949077 186.452911 
L 177.949077 182.620515 
L 178.5649 182.620515 
L 178.5649 178.788119 
L 178.686967 178.788119 
L 178.686967 174.955723 
L 178.808674 174.955723 
L 178.808674 171.123327 
L 179.769598 171.123327 
L 179.769598 167.290931 
L 180.708619 167.290931 
L 180.708619 163.458535 
L 182.413597 163.458535 
L 182.413597 159.626139 
L 184.370586 159.626139 
L 184.47663 151.961347 
L 185.728303 151.961347 
L 185.728303 148.12895 
L 187.241243 148.12895 
L 187.241243 144.296554 
L 190.842418 144.296554 
L 190.842418 140.464158 
L 194.153956 140.464158 
L 194.153956 136.631762 
L 194.570519 136.631762 
L 194.570519 132.799366 
L 194.735972 132.799366 
L 194.735972 128.96697 
L 195.228381 128.96697 
L 195.228381 125.134574 
L 196.354953 125.134574 
L 196.354953 121.302178 
L 196.906893 121.302178 
L 196.906893 117.469782 
L 197.759558 117.469782 
L 197.759558 113.637386 
L 198.96912 113.637386 
L 198.96912 109.80499 
L 199.413704 109.80499 
L 199.413704 105.972594 
L 202.603429 105.972594 
L 202.603429 102.140198 
L 203.078141 102.140198 
L 203.078141 98.307802 
L 203.413903 98.307802 
L 203.413903 94.475406 
L 207.36478 94.475406 
L 207.36478 90.64301 
L 208.79789 90.64301 
L 208.79789 86.810614 
L 289.860654 86.810614 
L 289.860654 82.978218 
L 296.337689 82.978218 
L 296.337689 79.145822 
L 297.986644 79.145822 
L 297.986644 75.313426 
L 359.254689 75.313426 
L 359.254689 71.48103 
L 362.12798 71.48103 
L 362.12798 67.648634 
L 392.224336 67.648634 
L 392.298799 59.983842 
L 399.085912 59.983842 
L 399.085912 56.151446 
L 429.525622 56.151446 
L 429.525622 52.31905 
L 431.493526 52.31905 
L 431.493526 48.486653 
L 431.493526 48.486653 
L 460.8 48.486653 
L 460.8 48.486653 
" clip-path="url(#pa5da996478)" style="fill: none; stroke: #000000; stroke-width: 1.5; stroke-linecap: square"/>
   </g>
   <g id="line2d_114">
    <defs>
     <path id="m341394a108" d="M 0 14.142136 
L 8.485281 0 
L 0 -14.142136 
L -8.485281 0 
z
" style="stroke: #000000; stroke-width: 1.5; stroke-linejoin: miter"/>
    </defs>
    <g clip-path="url(#pa5da996478)">
     <use xlink:href="#m341394a108" x="71.401013" y="240.106455" style="fill-opacity: 0; stroke: #000000; stroke-width: 1.5; stroke-linejoin: miter"/>
     <use xlink:href="#m341394a108" x="177.949077" y="186.452911" style="fill-opacity: 0; stroke: #000000; stroke-width: 1.5; stroke-linejoin: miter"/>
     <use xlink:href="#m341394a108" x="194.570519" y="136.631762" style="fill-opacity: 0; stroke: #000000; stroke-width: 1.5; stroke-linejoin: miter"/>
     <use xlink:href="#m341394a108" x="208.79789" y="90.64301" style="fill-opacity: 0; stroke: #000000; stroke-width: 1.5; stroke-linejoin: miter"/>
     <use xlink:href="#m341394a108" x="359.254689" y="75.313426" style="fill-opacity: 0; stroke: #000000; stroke-width: 1.5; stroke-linejoin: miter"/>
     <use xlink:href="#m341394a108" x="431.493526" y="52.31905" style="fill-opacity: 0; stroke: #000000; stroke-width: 1.5; stroke-linejoin: miter"/>
     <use xlink:href="#m341394a108" x="431.493526" y="48.486653" style="fill-opacity: 0; stroke: #000000; stroke-width: 1.5; stroke-linejoin: miter"/>
    </g>
   </g>
   <g id="line2d_115">
    <path clip-path="url(#pa5da996478)" style="fill: none; stroke: #000000; stroke-width: 1.5; stroke-linecap: square"/>
    <g clip-path="url(#pa5da996478)">
     <use xlink:href="#m341394a108" x="-1" y="581.189703" style="fill-opacity: 0; stroke: #000000; stroke-width: 1.5; stroke-linejoin: miter"/>
     <use xlink:href="#m341394a108" x="460.8" y="581.189703" style="fill-opacity: 0; stroke: #000000; stroke-width: 1.5; stroke-linejoin: miter"/>
    </g>
   </g>
   <g id="line2d_116">
    <path d="M -1 259.268436 
L 5.095788 259.268436 
L 5.095788 255.43604 
L 12.607026 255.43604 
L 12.607026 251.603644 
L 18.957688 251.603644 
L 18.957688 247.771248 
L 33.651894 247.771248 
L 33.651894 243.938851 
L 47.513794 243.938851 
L 47.513794 240.106455 
L 50.356145 240.106455 
L 50.356145 236.274059 
L 160.995896 236.274059 
L 160.995896 232.441663 
L 164.408554 232.441663 
L 164.408554 228.609267 
L 164.58057 228.609267 
L 164.58057 224.776871 
L 165.931437 224.776871 
L 165.931437 220.944475 
L 167.878149 220.944475 
L 167.878149 217.112079 
L 170.783833 217.112079 
L 170.783833 213.279683 
L 171.948511 213.279683 
L 171.948511 209.447287 
L 172.234608 209.447287 
L 172.234608 205.614891 
L 172.660062 205.614891 
L 172.660062 201.782495 
L 172.800909 201.782495 
L 172.800909 194.117703 
L 174.047323 194.117703 
L 174.047323 186.452911 
L 175.257132 186.452911 
L 175.257132 182.620515 
L 175.389388 182.620515 
L 175.389388 178.788119 
L 175.914207 178.788119 
L 175.914207 174.955723 
L 176.174131 174.955723 
L 176.174131 171.123327 
L 176.30348 171.123327 
L 176.30348 167.290931 
L 176.432425 167.290931 
L 176.432425 163.458535 
L 176.689109 163.458535 
L 176.689109 159.626139 
L 177.19773 159.626139 
L 177.19773 155.793743 
L 178.196512 155.793743 
L 178.196512 151.961347 
L 178.930023 151.961347 
L 178.930023 148.12895 
L 180.124244 148.12895 
L 180.124244 144.296554 
L 181.284821 144.296554 
L 181.284821 140.464158 
L 181.853075 140.464158 
L 181.853075 136.631762 
L 182.524792 136.631762 
L 182.524792 132.799366 
L 183.185733 132.799366 
L 183.185733 128.96697 
L 184.157678 128.96697 
L 184.157678 125.134574 
L 189.175765 125.134574 
L 189.175765 121.302178 
L 189.645528 121.302178 
L 189.645528 117.469782 
L 189.924835 117.469782 
L 189.924835 113.637386 
L 195.472397 113.637386 
L 195.472397 109.80499 
L 199.339939 109.80499 
L 199.339939 105.972594 
L 203.346969 105.972594 
L 203.346969 102.140198 
L 212.338525 102.140198 
L 212.338525 98.307802 
L 244.427663 98.307802 
L 244.427663 94.475406 
L 295.250951 94.475406 
L 295.322862 86.810614 
L 297.973172 86.810614 
L 297.973172 82.978218 
L 333.023096 82.978218 
L 333.023096 79.145822 
L 334.896171 79.145822 
L 334.896171 75.313426 
L 337.10683 75.313426 
L 337.10683 71.48103 
L 358.962922 71.48103 
L 358.962922 67.648634 
L 360.472519 67.648634 
L 360.472519 63.816238 
L 402.172513 63.816238 
L 402.172513 59.983842 
L 417.804711 59.983842 
L 417.804711 56.151446 
L 419.410904 56.151446 
L 419.410904 52.31905 
L 431.768071 52.31905 
L 431.768071 48.486653 
L 431.768071 48.486653 
L 460.8 48.486653 
L 460.8 48.486653 
" clip-path="url(#pa5da996478)" style="fill: none; stroke: #000000; stroke-width: 1.5; stroke-linecap: square"/>
   </g>
   <g id="line2d_117">
    <defs>
     <path id="m453ddcb4cc" d="M 0 7.5 
C 1.989023 7.5 3.896849 6.709753 5.303301 5.303301 
C 6.709753 3.896849 7.5 1.989023 7.5 0 
C 7.5 -1.989023 6.709753 -3.896849 5.303301 -5.303301 
C 3.896849 -6.709753 1.989023 -7.5 0 -7.5 
C -1.989023 -7.5 -3.896849 -6.709753 -5.303301 -5.303301 
C -6.709753 -3.896849 -7.5 -1.989023 -7.5 0 
C -7.5 1.989023 -6.709753 3.896849 -5.303301 5.303301 
C -3.896849 6.709753 -1.989023 7.5 0 7.5 
z
" style="stroke: #000000; stroke-width: 1.5"/>
    </defs>
    <g clip-path="url(#pa5da996478)">
     <use xlink:href="#m453ddcb4cc" x="175.914207" y="178.788119" style="fill-opacity: 0; stroke: #000000; stroke-width: 1.5"/>
     <use xlink:href="#m453ddcb4cc" x="212.338525" y="102.140198" style="fill-opacity: 0; stroke: #000000; stroke-width: 1.5"/>
     <use xlink:href="#m453ddcb4cc" x="244.427663" y="98.307802" style="fill-opacity: 0; stroke: #000000; stroke-width: 1.5"/>
     <use xlink:href="#m453ddcb4cc" x="358.962922" y="71.48103" style="fill-opacity: 0; stroke: #000000; stroke-width: 1.5"/>
     <use xlink:href="#m453ddcb4cc" x="431.768071" y="52.31905" style="fill-opacity: 0; stroke: #000000; stroke-width: 1.5"/>
     <use xlink:href="#m453ddcb4cc" x="431.768071" y="48.486653" style="fill-opacity: 0; stroke: #000000; stroke-width: 1.5"/>
    </g>
   </g>
   <g id="line2d_118">
    <path clip-path="url(#pa5da996478)" style="fill: none; stroke: #000000; stroke-width: 1.5; stroke-linecap: square"/>
   </g>
   <g id="line2d_119">
    <path d="M 204.665409 293.76 
L 204.665409 289.927604 
L 296.435712 289.927604 
L 296.435712 286.095208 
L 329.807678 286.095208 
L 329.807678 282.262812 
L 332.965509 282.262812 
L 332.965509 278.430416 
L 333.344104 278.430416 
L 333.344104 274.59802 
L 372.473366 274.59802 
L 372.473366 270.765624 
L 395.303637 270.765624 
L 395.303637 266.933228 
L 397.232413 266.933228 
L 397.232413 263.100832 
L 409.9379 263.100832 
L 409.9379 259.268436 
L 411.151968 259.268436 
L 411.151968 255.43604 
L 411.151968 255.43604 
L 411.151968 255.43604 
L 460.8 255.43604 
" clip-path="url(#pa5da996478)" style="fill: none; stroke: #00bfbf; stroke-width: 1.5; stroke-linecap: square"/>
   </g>
   <g id="line2d_120">
    <defs>
     <path id="mb30d372398" d="M 0 14.142136 
L 8.485281 0 
L 0 -14.142136 
L -8.485281 0 
z
" style="stroke: #00bfbf; stroke-width: 1.5; stroke-linejoin: miter"/>
    </defs>
    <g clip-path="url(#pa5da996478)">
     <use xlink:href="#mb30d372398" x="204.665409" y="293.76" style="fill-opacity: 0; stroke: #00bfbf; stroke-width: 1.5; stroke-linejoin: miter"/>
     <use xlink:href="#mb30d372398" x="204.665409" y="293.76" style="fill-opacity: 0; stroke: #00bfbf; stroke-width: 1.5; stroke-linejoin: miter"/>
     <use xlink:href="#mb30d372398" x="332.965509" y="282.262812" style="fill-opacity: 0; stroke: #00bfbf; stroke-width: 1.5; stroke-linejoin: miter"/>
     <use xlink:href="#mb30d372398" x="395.303637" y="270.765624" style="fill-opacity: 0; stroke: #00bfbf; stroke-width: 1.5; stroke-linejoin: miter"/>
     <use xlink:href="#mb30d372398" x="411.151968" y="255.43604" style="fill-opacity: 0; stroke: #00bfbf; stroke-width: 1.5; stroke-linejoin: miter"/>
    </g>
   </g>
   <g id="line2d_121">
    <path clip-path="url(#pa5da996478)" style="fill: none; stroke: #00bfbf; stroke-width: 1.5; stroke-linecap: square"/>
    <g clip-path="url(#pa5da996478)">
     <use xlink:href="#mb30d372398" x="-1" y="581.189703" style="fill-opacity: 0; stroke: #00bfbf; stroke-width: 1.5; stroke-linejoin: miter"/>
     <use xlink:href="#mb30d372398" x="460.8" y="581.189703" style="fill-opacity: 0; stroke: #00bfbf; stroke-width: 1.5; stroke-linejoin: miter"/>
    </g>
   </g>
   <g id="line2d_122">
    <path d="M 208.266299 293.76 
L 208.266299 289.927604 
L 221.864083 289.927604 
L 221.864083 286.095208 
L 300.291648 286.095208 
L 300.291648 282.262812 
L 333.429665 282.262812 
L 333.429665 278.430416 
L 335.548104 278.430416 
L 335.548104 274.59802 
L 359.450584 274.59802 
L 359.450584 270.765624 
L 371.403816 270.765624 
L 371.403816 266.933228 
L 379.960854 266.933228 
L 379.960854 263.100832 
L 381.19276 263.100832 
L 381.19276 259.268436 
L 391.786456 259.268436 
L 391.786456 255.43604 
L 392.744126 255.43604 
L 392.744126 251.603644 
L 399.462187 251.603644 
L 399.462187 247.771248 
L 404.042501 247.771248 
L 404.042501 243.938851 
L 405.068931 243.938851 
L 405.068931 240.106455 
L 406.64777 240.106455 
L 406.64777 236.274059 
L 419.606598 236.274059 
L 419.606598 232.441663 
L 423.935499 232.441663 
L 423.935499 228.609267 
L 423.935499 228.609267 
L 423.935499 228.609267 
L 460.8 228.609267 
" clip-path="url(#pa5da996478)" style="fill: none; stroke: #00bfbf; stroke-width: 1.5; stroke-linecap: square"/>
   </g>
   <g id="line2d_123">
    <defs>
     <path id="m31fe0a47cf" d="M 0 7.5 
C 1.989023 7.5 3.896849 6.709753 5.303301 5.303301 
C 6.709753 3.896849 7.5 1.989023 7.5 0 
C 7.5 -1.989023 6.709753 -3.896849 5.303301 -5.303301 
C 3.896849 -6.709753 1.989023 -7.5 0 -7.5 
C -1.989023 -7.5 -3.896849 -6.709753 -5.303301 -5.303301 
C -6.709753 -3.896849 -7.5 -1.989023 -7.5 0 
C -7.5 1.989023 -6.709753 3.896849 -5.303301 5.303301 
C -3.896849 6.709753 -1.989023 7.5 0 7.5 
z
" style="stroke: #00bfbf; stroke-width: 1.5"/>
    </defs>
    <g clip-path="url(#pa5da996478)">
     <use xlink:href="#m31fe0a47cf" x="208.266299" y="293.76" style="fill-opacity: 0; stroke: #00bfbf; stroke-width: 1.5"/>
     <use xlink:href="#m31fe0a47cf" x="300.291648" y="286.095208" style="fill-opacity: 0; stroke: #00bfbf; stroke-width: 1.5"/>
     <use xlink:href="#m31fe0a47cf" x="359.450584" y="274.59802" style="fill-opacity: 0; stroke: #00bfbf; stroke-width: 1.5"/>
     <use xlink:href="#m31fe0a47cf" x="419.606598" y="236.274059" style="fill-opacity: 0; stroke: #00bfbf; stroke-width: 1.5"/>
     <use xlink:href="#m31fe0a47cf" x="423.935499" y="228.609267" style="fill-opacity: 0; stroke: #00bfbf; stroke-width: 1.5"/>
    </g>
   </g>
   <g id="line2d_124">
    <path clip-path="url(#pa5da996478)" style="fill: none; stroke: #00bfbf; stroke-width: 1.5; stroke-linecap: square"/>
   </g>
   <g id="line2d_125">
    <path d="M 233.608958 293.76 
L 233.608958 289.927604 
L 301.478044 289.927604 
L 301.478044 286.095208 
L 336.444877 286.095208 
L 336.444877 282.262812 
L 336.808692 282.262812 
L 336.808692 278.430416 
L 336.808692 278.430416 
L 336.808692 278.430416 
L 460.8 278.430416 
" clip-path="url(#pa5da996478)" style="fill: none; stroke: #bf00bf; stroke-width: 1.5; stroke-linecap: square"/>
   </g>
   <g id="line2d_126">
    <defs>
     <path id="m0f8a53b967" d="M 0 14.142136 
L 8.485281 0 
L 0 -14.142136 
L -8.485281 0 
z
" style="stroke: #bf00bf; stroke-width: 1.5; stroke-linejoin: miter"/>
    </defs>
    <g clip-path="url(#pa5da996478)">
     <use xlink:href="#m0f8a53b967" x="233.608958" y="293.76" style="fill-opacity: 0; stroke: #bf00bf; stroke-width: 1.5; stroke-linejoin: miter"/>
     <use xlink:href="#m0f8a53b967" x="233.608958" y="293.76" style="fill-opacity: 0; stroke: #bf00bf; stroke-width: 1.5; stroke-linejoin: miter"/>
     <use xlink:href="#m0f8a53b967" x="301.478044" y="289.927604" style="fill-opacity: 0; stroke: #bf00bf; stroke-width: 1.5; stroke-linejoin: miter"/>
     <use xlink:href="#m0f8a53b967" x="336.808692" y="278.430416" style="fill-opacity: 0; stroke: #bf00bf; stroke-width: 1.5; stroke-linejoin: miter"/>
    </g>
   </g>
   <g id="line2d_127">
    <path clip-path="url(#pa5da996478)" style="fill: none; stroke: #bf00bf; stroke-width: 1.5; stroke-linecap: square"/>
    <g clip-path="url(#pa5da996478)">
     <use xlink:href="#m0f8a53b967" x="-1" y="581.189703" style="fill-opacity: 0; stroke: #bf00bf; stroke-width: 1.5; stroke-linejoin: miter"/>
     <use xlink:href="#m0f8a53b967" x="460.8" y="581.189703" style="fill-opacity: 0; stroke: #bf00bf; stroke-width: 1.5; stroke-linejoin: miter"/>
    </g>
   </g>
   <g id="line2d_128">
    <path d="M 232.86313 293.76 
L 232.86313 289.927604 
L 239.637004 289.927604 
L 239.637004 286.095208 
L 304.947569 286.095208 
L 304.947569 282.262812 
L 338.919104 282.262812 
L 338.919104 278.430416 
L 362.879173 278.430416 
L 362.879173 274.59802 
L 362.879173 274.59802 
L 362.879173 274.59802 
L 460.8 274.59802 
" clip-path="url(#pa5da996478)" style="fill: none; stroke: #bf00bf; stroke-width: 1.5; stroke-linecap: square"/>
   </g>
   <g id="line2d_129">
    <defs>
     <path id="ma3fc916113" d="M 0 7.5 
C 1.989023 7.5 3.896849 6.709753 5.303301 5.303301 
C 6.709753 3.896849 7.5 1.989023 7.5 0 
C 7.5 -1.989023 6.709753 -3.896849 5.303301 -5.303301 
C 3.896849 -6.709753 1.989023 -7.5 0 -7.5 
C -1.989023 -7.5 -3.896849 -6.709753 -5.303301 -5.303301 
C -6.709753 -3.896849 -7.5 -1.989023 -7.5 0 
C -7.5 1.989023 -6.709753 3.896849 -5.303301 5.303301 
C -3.896849 6.709753 -1.989023 7.5 0 7.5 
z
" style="stroke: #bf00bf; stroke-width: 1.5"/>
    </defs>
    <g clip-path="url(#pa5da996478)">
     <use xlink:href="#ma3fc916113" x="232.86313" y="293.76" style="fill-opacity: 0; stroke: #bf00bf; stroke-width: 1.5"/>
     <use xlink:href="#ma3fc916113" x="239.637004" y="289.927604" style="fill-opacity: 0; stroke: #bf00bf; stroke-width: 1.5"/>
     <use xlink:href="#ma3fc916113" x="338.919104" y="282.262812" style="fill-opacity: 0; stroke: #bf00bf; stroke-width: 1.5"/>
     <use xlink:href="#ma3fc916113" x="362.879173" y="274.59802" style="fill-opacity: 0; stroke: #bf00bf; stroke-width: 1.5"/>
    </g>
   </g>
   <g id="line2d_130">
    <path clip-path="url(#pa5da996478)" style="fill: none; stroke: #bf00bf; stroke-width: 1.5; stroke-linecap: square"/>
   </g>
   <g id="line2d_131">
    <path d="M 252.604878 293.76 
L 252.604878 289.927604 
L 306.80484 289.927604 
L 306.80484 286.095208 
L 340.244142 286.095208 
L 340.244142 282.262812 
L 341.021549 282.262812 
L 341.021549 278.430416 
L 341.021549 278.430416 
L 341.021549 278.430416 
L 460.8 278.430416 
" clip-path="url(#pa5da996478)" style="fill: none; stroke: #ff0000; stroke-width: 3; stroke-linecap: square"/>
   </g>
   <g id="line2d_132">
    <defs>
     <path id="m3144d1bed1" d="M 0 14.142136 
L 8.485281 0 
L 0 -14.142136 
L -8.485281 0 
z
" style="stroke: #ff0000; stroke-width: 3; stroke-linejoin: miter"/>
    </defs>
    <g clip-path="url(#pa5da996478)">
     <use xlink:href="#m3144d1bed1" x="252.604878" y="293.76" style="fill-opacity: 0; stroke: #ff0000; stroke-width: 3; stroke-linejoin: miter"/>
     <use xlink:href="#m3144d1bed1" x="306.80484" y="289.927604" style="fill-opacity: 0; stroke: #ff0000; stroke-width: 3; stroke-linejoin: miter"/>
     <use xlink:href="#m3144d1bed1" x="341.021549" y="278.430416" style="fill-opacity: 0; stroke: #ff0000; stroke-width: 3; stroke-linejoin: miter"/>
    </g>
   </g>
   <g id="line2d_133">
    <path clip-path="url(#pa5da996478)" style="fill: none; stroke: #ff0000; stroke-width: 3; stroke-linecap: square"/>
    <g clip-path="url(#pa5da996478)">
     <use xlink:href="#m3144d1bed1" x="-1" y="581.189703" style="fill-opacity: 0; stroke: #ff0000; stroke-width: 3; stroke-linejoin: miter"/>
     <use xlink:href="#m3144d1bed1" x="460.8" y="581.189703" style="fill-opacity: 0; stroke: #ff0000; stroke-width: 3; stroke-linejoin: miter"/>
    </g>
   </g>
   <g id="line2d_134">
    <path d="M 250.29178 293.76 
L 250.29178 289.927604 
L 256.617937 289.927604 
L 256.617937 286.095208 
L 310.200591 286.095208 
L 310.200591 282.262812 
L 342.260971 282.262812 
L 342.260971 278.430416 
L 367.054131 278.430416 
L 367.054131 274.59802 
L 367.054131 274.59802 
L 367.054131 274.59802 
L 460.8 274.59802 
" clip-path="url(#pa5da996478)" style="fill: none; stroke: #ff0000; stroke-width: 3; stroke-linecap: square"/>
   </g>
   <g id="line2d_135">
    <defs>
     <path id="m550142ef4b" d="M 0 7.5 
C 1.989023 7.5 3.896849 6.709753 5.303301 5.303301 
C 6.709753 3.896849 7.5 1.989023 7.5 0 
C 7.5 -1.989023 6.709753 -3.896849 5.303301 -5.303301 
C 3.896849 -6.709753 1.989023 -7.5 0 -7.5 
C -1.989023 -7.5 -3.896849 -6.709753 -5.303301 -5.303301 
C -6.709753 -3.896849 -7.5 -1.989023 -7.5 0 
C -7.5 1.989023 -6.709753 3.896849 -5.303301 5.303301 
C -3.896849 6.709753 -1.989023 7.5 0 7.5 
z
" style="stroke: #ff0000; stroke-width: 3"/>
    </defs>
    <g clip-path="url(#pa5da996478)">
     <use xlink:href="#m550142ef4b" x="256.617937" y="289.927604" style="fill-opacity: 0; stroke: #ff0000; stroke-width: 3"/>
     <use xlink:href="#m550142ef4b" x="310.200591" y="286.095208" style="fill-opacity: 0; stroke: #ff0000; stroke-width: 3"/>
     <use xlink:href="#m550142ef4b" x="367.054131" y="278.430416" style="fill-opacity: 0; stroke: #ff0000; stroke-width: 3"/>
     <use xlink:href="#m550142ef4b" x="367.054131" y="274.59802" style="fill-opacity: 0; stroke: #ff0000; stroke-width: 3"/>
    </g>
   </g>
   <g id="line2d_136">
    <path clip-path="url(#pa5da996478)" style="fill: none; stroke: #ff0000; stroke-width: 3; stroke-linecap: square"/>
   </g>
   <g id="line2d_137">
    <path d="M 441.819429 293.76 
L 441.819429 3.456 
" clip-path="url(#pa5da996478)" style="fill: none; stroke: #000000; stroke-width: 1.5; stroke-linecap: square"/>
    <defs>
     <path id="m0ff808da9e" d="M -10 0 
L 10 0 
M 0 10 
L 0 -10 
" style="stroke: #000000; stroke-width: 3"/>
    </defs>
    <g clip-path="url(#pa5da996478)">
     <use xlink:href="#m0ff808da9e" x="441.819429" y="293.76" style="stroke: #000000; stroke-width: 3"/>
     <use xlink:href="#m0ff808da9e" x="441.819429" y="3.456" style="stroke: #000000; stroke-width: 3"/>
    </g>
   </g>
   <g id="line2d_138">
    <path d="M 441.818813 293.76 
L 441.818813 3.456 
" clip-path="url(#pa5da996478)" style="fill: none; stroke: #000000; stroke-width: 1.5; stroke-linecap: square"/>
    <defs>
     <path id="m904af520d9" d="M 0 7.5 
C 1.989023 7.5 3.896849 6.709753 5.303301 5.303301 
C 6.709753 3.896849 7.5 1.989023 7.5 0 
C 7.5 -1.989023 6.709753 -3.896849 5.303301 -5.303301 
C 3.896849 -6.709753 1.989023 -7.5 0 -7.5 
C -1.989023 -7.5 -3.896849 -6.709753 -5.303301 -5.303301 
C -6.709753 -3.896849 -7.5 -1.989023 -7.5 0 
C -7.5 1.989023 -6.709753 3.896849 -5.303301 5.303301 
C -3.896849 6.709753 -1.989023 7.5 0 7.5 
z
" style="stroke: #000000; stroke-width: 3"/>
    </defs>
    <g clip-path="url(#pa5da996478)">
     <use xlink:href="#m904af520d9" x="441.818813" y="293.76" style="fill-opacity: 0; stroke: #000000; stroke-width: 3"/>
     <use xlink:href="#m904af520d9" x="441.818813" y="3.456" style="fill-opacity: 0; stroke: #000000; stroke-width: 3"/>
    </g>
   </g>
   <g id="patch_3">
    <path d="M 62.208 293.76 
L 62.208 3.456 
" style="fill: none; stroke: #000000; stroke-width: 0.8; stroke-linejoin: miter; stroke-linecap: square"/>
   </g>
   <g id="patch_4">
    <path d="M 460.8 293.76 
L 460.8 3.456 
" style="fill: none; stroke: #000000; stroke-width: 0.8; stroke-linejoin: miter; stroke-linecap: square"/>
   </g>
   <g id="patch_5">
    <path d="M 62.208 293.76 
L 460.8 293.76 
" style="fill: none; stroke: #000000; stroke-width: 0.8; stroke-linejoin: miter; stroke-linecap: square"/>
   </g>
   <g id="patch_6">
    <path d="M 62.208 3.456 
L 460.8 3.456 
" style="fill: none; stroke: #000000; stroke-width: 0.8; stroke-linejoin: miter; stroke-linecap: square"/>
   </g>
   <g id="text_12">
    <!-- f20-f24 -->
    <g transform="translate(225.405563 24.458955)scale(0.2 -0.2)">
     <defs>
      <path id="DejaVuSans-2d" d="M 313 2009 
L 1997 2009 
L 1997 1497 
L 313 1497 
L 313 2009 
z
" transform="scale(0.015625)"/>
     </defs>
     <use xlink:href="#DejaVuSans-66"/>
     <use xlink:href="#DejaVuSans-32" x="35.205078"/>
     <use xlink:href="#DejaVuSans-30" x="98.828125"/>
     <use xlink:href="#DejaVuSans-2d" x="162.451172"/>
     <use xlink:href="#DejaVuSans-66" x="198.535156"/>
     <use xlink:href="#DejaVuSans-32" x="233.740234"/>
     <use xlink:href="#DejaVuSans-34" x="297.363281"/>
    </g>
   </g>
   <g id="text_13">
    <!-- absolute targets -->
    <g transform="translate(62.208 607.824855)scale(0.14 -0.14)">
     <defs>
      <path id="DejaVuSans-62" d="M 3116 1747 
Q 3116 2381 2855 2742 
Q 2594 3103 2138 3103 
Q 1681 3103 1420 2742 
Q 1159 2381 1159 1747 
Q 1159 1113 1420 752 
Q 1681 391 2138 391 
Q 2594 391 2855 752 
Q 3116 1113 3116 1747 
z
M 1159 2969 
Q 1341 3281 1617 3432 
Q 1894 3584 2278 3584 
Q 2916 3584 3314 3078 
Q 3713 2572 3713 1747 
Q 3713 922 3314 415 
Q 2916 -91 2278 -91 
Q 1894 -91 1617 61 
Q 1341 213 1159 525 
L 1159 0 
L 581 0 
L 581 4863 
L 1159 4863 
L 1159 2969 
z
" transform="scale(0.015625)"/>
      <path id="DejaVuSans-75" d="M 544 1381 
L 544 3500 
L 1119 3500 
L 1119 1403 
Q 1119 906 1312 657 
Q 1506 409 1894 409 
Q 2359 409 2629 706 
Q 2900 1003 2900 1516 
L 2900 3500 
L 3475 3500 
L 3475 0 
L 2900 0 
L 2900 538 
Q 2691 219 2414 64 
Q 2138 -91 1772 -91 
Q 1169 -91 856 284 
Q 544 659 544 1381 
z
M 1991 3584 
L 1991 3584 
z
" transform="scale(0.015625)"/>
      <path id="DejaVuSans-65" d="M 3597 1894 
L 3597 1613 
L 953 1613 
Q 991 1019 1311 708 
Q 1631 397 2203 397 
Q 2534 397 2845 478 
Q 3156 559 3463 722 
L 3463 178 
Q 3153 47 2828 -22 
Q 2503 -91 2169 -91 
Q 1331 -91 842 396 
Q 353 884 353 1716 
Q 353 2575 817 3079 
Q 1281 3584 2069 3584 
Q 2775 3584 3186 3129 
Q 3597 2675 3597 1894 
z
M 3022 2063 
Q 3016 2534 2758 2815 
Q 2500 3097 2075 3097 
Q 1594 3097 1305 2825 
Q 1016 2553 972 2059 
L 3022 2063 
z
" transform="scale(0.015625)"/>
     </defs>
     <use xlink:href="#DejaVuSans-61"/>
     <use xlink:href="#DejaVuSans-62" x="61.279297"/>
     <use xlink:href="#DejaVuSans-73" x="124.755859"/>
     <use xlink:href="#DejaVuSans-6f" x="176.855469"/>
     <use xlink:href="#DejaVuSans-6c" x="238.037109"/>
     <use xlink:href="#DejaVuSans-75" x="265.820312"/>
     <use xlink:href="#DejaVuSans-74" x="329.199219"/>
     <use xlink:href="#DejaVuSans-65" x="368.408203"/>
     <use xlink:href="#DejaVuSans-20" x="429.931641"/>
     <use xlink:href="#DejaVuSans-74" x="461.71875"/>
     <use xlink:href="#DejaVuSans-61" x="500.927734"/>
     <use xlink:href="#DejaVuSans-72" x="562.207031"/>
     <use xlink:href="#DejaVuSans-67" x="601.570312"/>
     <use xlink:href="#DejaVuSans-65" x="665.046875"/>
     <use xlink:href="#DejaVuSans-74" x="726.570312"/>
     <use xlink:href="#DejaVuSans-73" x="765.779297"/>
    </g>
   </g>
   <g id="text_14">
    <!-- v2.6.3.10 -->
    <g style="fill: #808080" transform="translate(237.871188 288.777272)scale(0.1 -0.1)">
     <defs>
      <path id="DejaVuSans-33" d="M 2597 2516 
Q 3050 2419 3304 2112 
Q 3559 1806 3559 1356 
Q 3559 666 3084 287 
Q 2609 -91 1734 -91 
Q 1441 -91 1130 -33 
Q 819 25 488 141 
L 488 750 
Q 750 597 1062 519 
Q 1375 441 1716 441 
Q 2309 441 2620 675 
Q 2931 909 2931 1356 
Q 2931 1769 2642 2001 
Q 2353 2234 1838 2234 
L 1294 2234 
L 1294 2753 
L 1863 2753 
Q 2328 2753 2575 2939 
Q 2822 3125 2822 3475 
Q 2822 3834 2567 4026 
Q 2313 4219 1838 4219 
Q 1578 4219 1281 4162 
Q 984 4106 628 3988 
L 628 4550 
Q 988 4650 1302 4700 
Q 1616 4750 1894 4750 
Q 2613 4750 3031 4423 
Q 3450 4097 3450 3541 
Q 3450 3153 3228 2886 
Q 3006 2619 2597 2516 
z
" transform="scale(0.015625)"/>
     </defs>
     <use xlink:href="#DejaVuSans-76"/>
     <use xlink:href="#DejaVuSans-32" x="59.179688"/>
     <use xlink:href="#DejaVuSans-2e" x="122.802734"/>
     <use xlink:href="#DejaVuSans-36" x="154.589844"/>
     <use xlink:href="#DejaVuSans-2e" x="218.212891"/>
     <use xlink:href="#DejaVuSans-33" x="250"/>
     <use xlink:href="#DejaVuSans-2e" x="313.623047"/>
     <use xlink:href="#DejaVuSans-31" x="345.410156"/>
     <use xlink:href="#DejaVuSans-30" x="409.033203"/>
    </g>
   </g>
   <g id="legend_1">
    <g id="patch_7">
     <path d="M 76.208 136.881 
L 160.148625 136.881 
Q 164.148625 136.881 164.148625 132.881 
L 164.148625 17.456 
Q 164.148625 13.456 160.148625 13.456 
L 76.208 13.456 
Q 72.208 13.456 72.208 17.456 
L 72.208 132.881 
Q 72.208 136.881 76.208 136.881 
z
" style="fill: #ffffff; opacity: 0.2; stroke: #cccccc; stroke-linejoin: miter"/>
    </g>
    <g id="line2d_139">
     <path d="M 80.208 29.652875 
L 80.208 29.652875 
L 100.208 29.652875 
L 100.208 29.652875 
L 120.208 29.652875 
" style="fill: none; stroke: #000000; stroke-width: 1.5; stroke-linecap: square"/>
    </g>
    <g id="text_15">
     <!-- 1 -->
     <g transform="translate(136.208 36.652875)scale(0.2 -0.2)">
      <use xlink:href="#DejaVuSans-31"/>
     </g>
    </g>
    <g id="line2d_140">
     <path d="M 80.208 59.009125 
L 80.208 59.009125 
L 100.208 59.009125 
L 100.208 59.009125 
L 120.208 59.009125 
" style="fill: none; stroke: #00bfbf; stroke-width: 1.5; stroke-linecap: square"/>
    </g>
    <g id="text_16">
     <!-- -1 -->
     <g transform="translate(136.208 66.009125)scale(0.2 -0.2)">
      <use xlink:href="#DejaVuSans-2d"/>
      <use xlink:href="#DejaVuSans-31" x="36.083984"/>
     </g>
    </g>
    <g id="line2d_141">
     <path d="M 80.208 88.365375 
L 80.208 88.365375 
L 100.208 88.365375 
L 100.208 88.365375 
L 120.208 88.365375 
" style="fill: none; stroke: #bf00bf; stroke-width: 1.5; stroke-linecap: square"/>
    </g>
    <g id="text_17">
     <!-- -4 -->
     <g transform="translate(136.208 95.365375)scale(0.2 -0.2)">
      <use xlink:href="#DejaVuSans-2d"/>
      <use xlink:href="#DejaVuSans-34" x="36.083984"/>
     </g>
    </g>
    <g id="line2d_142">
     <path d="M 80.208 117.721625 
L 80.208 117.721625 
L 100.208 117.721625 
L 100.208 117.721625 
L 120.208 117.721625 
" style="fill: none; stroke: #ff0000; stroke-width: 3; stroke-linecap: square"/>
    </g>
    <g id="text_18">
     <!-- -8 -->
     <g transform="translate(136.208 124.721625)scale(0.2 -0.2)">
      <use xlink:href="#DejaVuSans-2d"/>
      <use xlink:href="#DejaVuSans-38" x="36.083984"/>
     </g>
    </g>
   </g>
  </g>
 </g>
 <defs>
  <clipPath id="pa5da996478">
   <rect x="62.208" y="3.456" width="398.592" height="290.304"/>
  </clipPath>
 </defs>
</svg>
